<?xml version="1.0" encoding="UTF-8" standalone="no"?>
<svg
   xmlns:dc="http://purl.org/dc/elements/1.1/"
   xmlns:cc="http://creativecommons.org/ns#"
   xmlns:rdf="http://www.w3.org/1999/02/22-rdf-syntax-ns#"
   xmlns:svg="http://www.w3.org/2000/svg"
   xmlns="http://www.w3.org/2000/svg"
   xmlns:sodipodi="http://sodipodi.sourceforge.net/DTD/sodipodi-0.dtd"
   xmlns:inkscape="http://www.inkscape.org/namespaces/inkscape"
   id="b64b805f-e6f6-44d8-97ce-775b67d7efb4"
   data-name="Layer 1"
   width="800"
   height="600"
   viewBox="0 0 799.99999 599.99997"
   version="1.1"
   sodipodi:docname="illustration-1.svg"
   inkscape:version="1.0.2 (e86c870879, 2021-01-15, custom)">
  <metadata
     id="metadata59">
    <rdf:RDF>
      <cc:Work
         rdf:about="">
        <dc:format>image/svg+xml</dc:format>
        <dc:type
           rdf:resource="http://purl.org/dc/dcmitype/StillImage" />
        <dc:title>the_world_is_mine</dc:title>
      </cc:Work>
    </rdf:RDF>
  </metadata>
  <defs
     id="defs57" />
  <sodipodi:namedview
     pagecolor="#ffffff"
     bordercolor="#666666"
     borderopacity="1"
     objecttolerance="10"
     gridtolerance="10"
     guidetolerance="10"
     inkscape:pageopacity="0"
     inkscape:pageshadow="2"
     inkscape:window-width="1920"
     inkscape:window-height="1015"
     id="namedview55"
     showgrid="false"
     inkscape:zoom="1.1758789"
     inkscape:cx="327.48247"
     inkscape:cy="363.27256"
     inkscape:window-x="0"
     inkscape:window-y="0"
     inkscape:window-maximized="1"
     inkscape:current-layer="b64b805f-e6f6-44d8-97ce-775b67d7efb4"
     inkscape:document-rotation="0" />
  <title
     id="title2">the_world_is_mine</title>
  <g
     id="g941"
     transform="matrix(0.8133852,0,0,0.8133852,-233.18739,19.205611)">
    <path
       d="m 526.62913,541.9426 c 0,0 -2.34532,-50.44293 -50.42446,-44.57962"
       fill="#e6e6e6"
       id="path4" />
    <path
       d="m 527.1937,712.87027 c 0.0602,-0.52789 5.735,-53.0908 -17.2428,-80.90789 -8.4802,-10.26669 -19.84343,-16.01623 -33.77332,-17.08754 l -0.15332,1.98153 c 13.37,1.02861 24.26839,6.53555 32.39149,16.36751 22.44018,27.16208 16.8624,78.9021 16.80418,79.42126 z"
       fill="#e6e6e6"
       id="path6" />
    <rect
       x="-529.13641"
       y="490.36734"
       width="2"
       height="221"
       fill="#e6e6e6"
       id="rect8"
       transform="scale(-1,1)" />
    <circle
       cx="-526.62909"
       cy="475.0824"
       r="16.417271"
       fill="#6c63ff"
       id="circle10"
       transform="scale(-1,1)"
       style="fill:#0094e3;fill-opacity:1" />
    <circle
       cx="-476.1008"
       cy="615.8653"
       r="16.31344"
       fill="#e6e6e6"
       id="circle12"
       transform="scale(-1,1)" />
  </g>
  <g
     id="g962"
     transform="matrix(0.8133852,0,0,0.8133852,377.13777,19.205611)">
    <path
       d="m 0,180.38693 v 1.07987 q 0.0369,4.06783 0.23316,8.099 a 180.38684,180.38684 0 0 0 360.17257,2.356 q 0.36816,-5.72449 0.36813,-11.5349 A 179.49331,179.49331 0 0 0 327.60471,76.11831 q -2.59531,-3.68138 -5.39929,-7.2277 c -1.28846,-1.64437 -2.61377,-3.2519 -3.95137,-4.84714 A 180.42083,180.42083 0 0 0 66.86587,40.18821 c -2.172,1.75478 -4.30721,3.5709 -6.39326,5.42386 q -2.50341,2.22728 -4.92077,4.55265 a 179.899,179.899 0 0 0 -54.926,115.055 Q -4e-5,172.72962 0,180.38693 Z"
       fill="#6c63ff"
       id="path14"
       style="fill:#0094e3;fill-opacity:1" />
    <path
       d="m 322.20541,68.89063 a 1.00323,1.00323 0 0 0 -0.24542,0.14725 c -0.96943,0.79763 0.24542,2.33153 0.0982,3.59547 -0.1718,1.6198 -2.33153,1.97567 -3.96361,2.13519 -1.63207,0.1718 -3.69363,1.48482 -2.92055,2.93282 4.09859,1.41119 8.24626,0.0245 12.43075,-1.583 a 179.49358,179.49358 0 0 1 33.16908,104.26855 q 0,5.81655 -0.36814,11.53494 a 4.66235,4.66235 0 0 1 -1.11668,0.60129 c -1.22712,0.46631 -2.65058,0.38041 -3.77954,1.04306 -0.8958,0.52766 -1.49709,1.46027 -2.39288,1.95112 -2.56469,1.39892 -6.12334,-1.28848 -8.51623,0.38041 a 22.00377,22.00377 0 0 0 -1.75479,1.7916 c -2.20882,1.91431 -5.8411,0.62583 -8.39351,2.06156 -1.64434,0.92034 -2.49106,2.761 -3.37459,4.42991 -2.19654,4.17222 -5.7552,8.2708 -10.45507,8.60213 a 28.15488,28.15488 0 0 0 -4.44219,0.14725 c -1.448,0.33132 -2.87146,1.59526 -2.63831,3.05553 0.40495,2.5156 -0.83444,5.26436 -0.50312,7.78 0.60129,4.6017 7.11731,6.61418 7.66951,11.21589 a 27.71079,27.71079 0 0 0 0.1718,3.031 c 0.29451,1.20258 1.20258,2.18428 1.52163,3.38686 0.61356,2.27018 -1.01851,4.54035 -2.79784,6.062 -1.79159,1.5339 -3.92679,2.8592 -4.90848,4.99439 -1.03079,2.27017 -0.52767,4.90849 -0.859,7.375 -0.73627,5.38707 -5.38706,9.37521 -10.17284,11.95217 a 10.62167,10.62167 0 0 0 -3.97587,2.896 c -1.22713,1.77932 -1.10441,4.12313 -1.52164,6.246 -1.00624,5.19072 -5.37479,9.47338 -5.4975,14.76227 -0.0859,3.76727 2.00021,7.17867 3.25187,10.72505 a 24.75173,24.75173 0 0 1 1.11668,11.584 181.25111,181.25111 0 0 1 -22.24772,16.13666 6.48232,6.48232 0 0 1 -0.92034,-2.06157 4.07734,4.07734 0 0 1 1.902,-4.2213 10.08769,10.08769 0 0 1 -3.52184,-2.2579 3.45474,3.45474 0 0 1 -0.6381,-3.90225 c -2.15974,0.27 -4.72442,0.40495 -6.14789,-1.25167 -1.14122,-1.32529 -1.06759,-3.31322 -0.61356,-4.99438 0.454,-1.69343 1.21485,-3.3255 1.22713,-5.08029 a 91.38214,91.38214 0 0 1 -14.99543,-0.50312 9.73448,9.73448 0 0 1 4.56489,-5.71838 c -2.25791,-0.38041 -4.3072,-3.08008 -5.01893,-5.25209 a 13.37761,13.37761 0 0 1 -0.0982,-6.786 3.60994,3.60994 0 0 0 0.0736,-1.76706 3.47667,3.47667 0 0 0 -1.7916,-1.73024 q -5.59568,-3.22119 -11.19135,-6.43012 a 6.74722,6.74722 0 0 1 -1.7916,-1.313 c -1.16577,-1.38665 -0.994,-3.46048 -0.39268,-5.16618 0.60132,-1.7057 1.55845,-3.31323 1.7916,-5.10483 0.68719,-5.36252 -5.05574,-9.21568 -6.9946,-14.27143 a 21.434,21.434 0 0 1 -1.05532,-6.24605 c -0.15953,-2.28244 -0.1718,-4.92076 1.57071,-6.381 1.68116,-1.41119 4.29493,-1.09214 6.04972,-2.40516 1.60753,-1.20258 2.15973,-3.52184 3.91451,-4.49127 1.59526,-0.88353 3.5832,-0.31905 5.36253,-0.73627 3.11689,-0.724 5.08028,-4.31947 8.2708,-4.65079 1.7916,-0.19634 3.82862,0.68719 5.30117,-0.35587 1.30075,-0.93261 1.34983,-2.78556 1.59526,-4.35628 a 12.16905,12.16905 0 0 1 9.817,-9.84152 c 1.85295,-0.29451 3.86543,-0.18407 5.44842,-1.20258 1.59526,-1.03078 2.31926,-2.95736 3.5832,-4.3931 2.01248,-2.29471 5.203,-3.11688 8.1849,-3.81634 q 6.07425,-1.41733 12.13624,-2.84693 c 2.14746,-0.51539 4.92076,-0.78536 6.08652,1.10441 a 8.30191,8.30191 0 0 1 0.71173,2.27018 7.04015,7.04015 0 0 0 6.60192,4.95757 7.80066,7.80066 0 0 1 4.58944,-3.55865 28.95665,28.95665 0 0 0 3.73045,-0.88353 5.22652,5.22652 0 0 0 2.2579,-7.25229 6.51144,6.51144 0 0 1 1.11668,-7.81677 c 2.06157,-1.853 5.04347,-2.307 7.81677,-2.12292 0.724,-1.583 -0.49085,-3.36231 -1.7916,-4.51581 -1.313,-1.14122 -2.896,-2.27017 -3.17825,-3.98814 -0.454,-2.69967 2.99418,-4.749 5.60795,-3.95134 2.61377,0.8099 4.28266,3.35005 5.38707,5.85337 a 17.65275,17.65275 0 0 0 2.172,4.15995 4.26415,4.26415 0 0 0 4.12313,1.69343 c 2.15974,-0.55221 2.98191,-3.11689 3.46049,-5.27663 a 34.40658,34.40658 0 0 0 1.15349,-8.84755 11.54962,11.54962 0 0 0 -3.33777,-8.04992 c -3.57093,-3.28868 -9.06843,-2.96963 -13.891,-2.442 a 3.53822,3.53822 0 0 0 -0.36814,-4.66306 5.30186,5.30186 0 0 0 -4.81032,-1.178 6.59987,6.59987 0 0 0 -3.71818,2.22109 c -1.37437,1.66889 -1.767,3.93906 -2.79783,5.82883 -1.04306,1.902 -3.37459,3.52184 -5.27663,2.50333 -1.65661,-0.88353 -1.91431,-3.166 -1.50936,-4.99439 0.41722,-1.81614 1.28848,-3.59547 1.14123,-5.46069 -0.28224,-3.54638 -3.97588,-5.69385 -7.22775,-7.15412 -3.25187,-1.46027 -6.97006,-3.43594 -7.48545,-6.97 a 6.513,6.513 0 0 0 -0.39268,-2.01248 3.93418,3.93418 0 0 0 -1.46027,-1.37438 c -9.48565,-6.27059 -19.1431,-12.62709 -29.99086,-16.05076 -0.56448,-0.18406 -0.62583,0.0123 -1.20258,-0.12271 -0.8099,-0.4663 -0.27,-1.75478 0.50312,-2.27017 0.77312,-0.51539 1.80387,-0.92034 2.00021,-1.82842 0.135,-0.66264 -0.2577,-1.32529 -0.35587,-2.0002 a 2.49731,2.49731 0 0 1 3.27642,-2.52788 c 0.87126,-1.15349 -0.84672,-2.49105 -2.24563,-2.88373 a 61.333,61.333 0 0 0 -12.82343,-2.08611 2.28347,2.28347 0 0 0 -1.46027,0.24543 1.73533,1.73533 0 0 0 -0.11044,2.38061 13.4402,13.4402 0 0 0 1.95112,1.77933 5.36,5.36 0 0 1 1.39892,5.38706 c -2.27018,1.1535 -4.72442,2.34381 -7.24,1.93886 -2.50333,-0.40495 -4.72442,-3.22733 -3.54638,-5.473 1.09213,-2.09838 4.39309,-2.57695 4.95757,-4.87167 0.66264,-2.6874 -3.14143,-5.08029 -2.28245,-7.70633 0.36814,-1.15349 1.52163,-1.84068 2.40516,-2.66285 a 7.26026,7.26026 0 0 0 1.583,-8.02538 9.14382,9.14382 0 0 0 8.00083,-2.50333 c 1.91431,-1.92658 3.43594,-4.98211 6.16016,-4.88394 2.49105,0.0736 4.63852,2.9819 6.97005,2.09838 0.57675,-0.22089 1.178,-0.66265 1.73024,-0.40495 a 1.43018,1.43018 0 0 1 0.65037,1.06759 c 0.589,2.83465 -0.42949,6.062 1.11669,8.51623 1.68115,2.66285 5.57113,3.031 7.60815,5.43615 1.10441,1.30075 1.5339,3.05553 2.55242,4.42991 1.01852,1.37438 3.166,2.2579 4.39309,1.05532 a 6.04709,6.04709 0 0 1 1.64435,-7.36273 15.81167,15.81167 0 0 1 3.63228,-1.767 21.55681,21.55681 0 0 0 4.06177,-2.25791 4.025,4.025 0 0 0 1.48482,-1.59526 3.668,3.668 0 0 0 -0.0982,-2.52787 10.33172,10.33172 0 0 0 -8.20945,-6.79825 c -1.6198,-0.22089 -3.50957,-0.14726 -4.58943,-1.38665 -0.56448,-0.65038 -0.859,-1.64435 -1.69343,-1.902 a 2.46881,2.46881 0 0 0 -1.55845,0.18407 c -2.02475,0.71173 -4.03723,1.42346 -6.062,2.13519 a 4.15248,4.15248 0 0 1 -2.15973,0.35586 1.45274,1.45274 0 0 1 -1.26394,-1.5339 c 0.19634,-1.00624 1.74251,-1.48482 1.59526,-2.50333 a 1.59148,1.59148 0 0 0 -0.50312,-0.859 21.68329,21.68329 0 0 0 -17.192,-6.786 c -0.76082,1.26394 0.44176,2.74876 1.46028,3.81635 1.00624,1.07987 1.81614,2.99418 0.589,3.81635 a 3.23284,3.23284 0 0 1 -1.60753,0.36814 14.02118,14.02118 0 0 0 -4.29492,1.30075 c -2.09838,0.90807 -4.15995,1.91431 -6.17243,2.99418 a 7.78183,7.78183 0 0 0 -0.14725,-3.97588 2.7,2.7 0 0 0 -3.19052,-1.73024 c -1.20258,0.46631 -1.81614,2.06156 -3.10462,2.20882 -1.7057,0.19634 -2.38061,-2.33153 -1.66888,-3.90225 0.71173,-1.57072 2.13519,-2.87146 2.24563,-4.60171 0.0859,-1.15349 -0.35586,-2.58922 0.56448,-3.28868 a 2.44116,2.44116 0 0 1 1.09214,-0.39268 q 11.55948,-2.11679 23.13124,-4.24584 c 1.37438,-0.2577 3.35005,-0.0614 3.4114,1.32529 0.0368,0.78536 -0.66264,1.55844 -0.35586,2.27017 0.33132,0.76082 1.41119,0.69946 2.19655,0.96943 a 2.98239,2.98239 0 0 1 1.718,3.1537 8.59619,8.59619 0 0 1 -1.448,3.54638 c 1.50936,-0.62583 3.77954,-0.73627 5.2889,-1.37437 a 20.35615,20.35615 0 0 1 1.32529,-5.09256 1.79748,1.79748 0 0 1 2.3438,-1.448 c 1.98794,0.30678 3.97588,0.60129 5.96382,0.90807 a 2.30681,2.30681 0 0 1 1.3621,0.52766 c 0.77309,0.82217 0.0123,2.13519 0.0368,3.26415 a 3.05893,3.05893 0 0 0 2.36835,2.63831 8.92727,8.92727 0 0 0 3.77954,-0.0491 c 2.78556,-0.42949 5.55886,-0.859 8.34443,-1.28848 a 13.66913,13.66913 0 0 1 -6.30741,-4.22129 c -1.10441,-1.30075 -1.69343,-3.73046 -0.0982,-4.344 a 3.80718,3.80718 0 0 1 1.448,-0.11044 c 3.77954,0.0245 6.76144,-3.12916 10.29556,-4.46672 a 10.12021,10.12021 0 0 1 3.47275,-0.6381 z"
       fill="#3f3d56"
       id="path16" />
    <path
       d="m 0.23313,189.5658 a 4.43089,4.43089 0 0 0 3.755,1.77933 c 3.84089,-0.33133 5.46069,-5.86565 9.26477,-6.49148 a 1.48259,1.48259 0 0 1 1.00624,0.0982 c 0.56448,0.30678 0.66265,1.0676 0.69946,1.7057 0.15953,3.166 0.29451,6.45466 -0.94488,9.37521 -1.80387,4.27039 -6.47921,7.85358 -5.49751,12.38166 5.27662,-2.442 8.02538,-8.369 9.26477,-14.05054 1.25167,-5.68158 1.448,-11.64539 3.68137,-17.02019 1.7057,2.172 5.26435,0.38041 6.81052,-1.902 1.47255,-2.15974 2.38062,-4.66307 3.80408,-6.85962 1.42346,-2.18427 3.60774,-4.14767 6.20924,-4.27038 2.73648,-0.12271 5.1171,1.75478 7.2032,3.53411 a 16.67021,16.67021 0 0 1 4.479,4.98212 c 1.46027,2.94509 1.07987,6.40557 1.15349,9.682 0.0736,3.53411 0.82218,7.27683 3.23961,9.87833 2.41743,2.58923 6.87188,3.4973 9.53473,1.15349 a 10.75637,10.75637 0 0 0 2.66286,-4.798 233.47929,233.47929 0 0 0 7.21548,-25.745 c 0.44176,1.98794 2.19654,4.55262 3.86543,3.38686 a 3.447,3.447 0 0 0 0.88353,-1.1535 c 3.11689,-5.26435 8.87209,-8.43033 14.70092,-10.33237 5.81656,-1.88976 11.93989,-2.77329 17.6951,-4.8594 a 45.24209,45.24209 0 0 0 9.19114,-4.57716 7.23748,7.23748 0 0 1 0.44176,7.38727 5.91761,5.91761 0 0 1 -6.651,2.78557 c -1.2762,-0.41722 -2.35607,-1.30075 -3.62,-1.74252 -1.26393,-0.42949 -2.96963,-0.22088 -3.52184,1.00624 -0.53993,1.16577 0.27,2.577 -0.135,3.80408 -0.60129,1.853 -3.4114,2.00021 -4.3931,3.69364 a 3.4191,3.4191 0 0 0 0.92034,3.95133 16.53766,16.53766 0 0 0 3.70591,2.28245 c 4.12313,2.29472 7.05595,6.20924 10.66369,9.2525 3.60774,3.05553 8.7003,5.27662 12.99522,3.3255 -1.01851,-5.19073 5.15392,-8.99481 6.29514,-14.161 0.38041,-1.7057 0.18407,-3.50957 0.71173,-5.16618 0.77309,-2.40516 2.90828,-4.0495 4.65079,-5.86565 a 23.0562,23.0562 0 0 0 6.31968,-16.75021 c -0.0982,-2.13519 -0.49085,-4.3072 0,-6.3933 0.47858,-2.07384 2.20882,-4.08632 4.344,-4.00042 4.87168,0.22088 11.01956,0.589 13.572,-3.57093 0.92034,-1.48481 1.313,-3.65682 -0.0123,-4.798 -0.93261,-0.79763 -2.307,-0.724 -3.52184,-0.60129 -3.66909,0.35586 -7.32592,0.724 -10.995,1.07986 -2.56469,0.24543 -5.338,0.454 -7.5468,-0.88352 -2.2088,-1.33752 -3.166,-4.90849 -1.11668,-6.49148 1.48481,-1.15349 4.15994,-1.09214 4.6017,-2.92055 0.35587,-1.5339 -1.33756,-3.26414 -0.41722,-4.55262 0.65038,-0.90807 2.12292,-0.66265 3.01872,0.0245 a 19.72114,19.72114 0 0 0 2.54014,2.22109 c 1.75479,0.90807 3.8409,0.0368 5.73066,-0.5522 1.88976,-0.58901 4.41764,-0.63811 5.32571,1.11668 1.03079,1.95112 -0.8958,4.52808 0.11044,6.49147 1.34984,2.58923 5.89019,1.11668 7.78,3.35005 2.15973,2.55241 -1.47255,6.381 -0.74855,9.64517 a 6.01285,6.01285 0 0 0 5.927,-0.33132 5.738,5.738 0 0 0 2.47879,-5.35025 c -0.1718,-1.47255 -0.94489,-2.98191 -0.42949,-4.36856 a 5.09982,5.09982 0 0 1 2.58922,-2.36834 q 5.338,-2.9635 10.676,-5.90246 c 0.994,1.84069 -0.25769,4.11086 -1.82841,5.49751 -1.55844,1.37438 -3.52184,2.41743 -4.55262,4.23357 a 5.56428,5.56428 0 0 0 2.08611,7.33819 1.29446,1.29446 0 0 0 1.06759,0.18407 1.47935,1.47935 0 0 0 0.68719,-0.92034 c 1.8775,-4.82259 4.71215,-9.57156 9.228,-12.08716 4.52808,-2.52787 11.01955,-2.0002 13.98919,2.23337 0.69946,1.00624 1.178,2.15973 1.7916,3.22733 3.25187,5.657 10.24646,8.33216 16.77475,8.16036 a 3.233,3.233 0 0 0 1.82842,-0.42949 c 1.05532,-0.724 1.00624,-2.27018 0.84671,-3.54639 -0.23315,-1.80387 -0.454,-3.59546 -0.68719,-5.39933 a 4.32425,4.32425 0 0 0 -1.19031,-2.95737 c -1.21485,-0.95715 -2.95736,-0.35586 -4.50353,-0.3804 a 5.673,5.673 0 0 1 -5.16619,-3.98815 6.41078,6.41078 0 0 1 1.7916,-6.381 c 0.69946,-0.66264 1.64434,-1.49708 1.27621,-2.39288 a 1.98853,1.98853 0 0 0 -1.38665,-0.93262 c -2.761,-0.79763 -5.69385,-1.00624 -8.40579,-1.96339 -2.72421,-0.94488 -5.36252,-2.88374 -6.01289,-5.69385 -0.19634,-0.859 -0.28224,-1.902 -1.05533,-2.33153 a 3.4176,3.4176 0 0 0 -1.22712,-0.24542 5.97248,5.97248 0 0 1 -5.1171,-6.22151 c -1.30075,-0.90807 -3.12916,-0.23315 -4.3931,0.73627 -1.25166,0.96943 -2.36834,2.24564 -3.90224,2.66286 -2.8592,0.78535 -5.62022,-1.75479 -8.58986,-1.76706 -1.25166,0 -2.54014,0.44177 -3.70591,0.0123 -1.1903,-0.42949 -1.902,-1.60753 -2.8101,-2.47878 -0.92035,-0.88353 -2.5156,-1.41119 -3.36232,-0.46631 0.24543,-1.77933 0.47858,-3.54638 0.724,-5.31344 a 10.44545,10.44545 0 0 1 -8.504,-1.54617 c 3.09235,-1.04306 6.17242,-2.08611 9.26477,-3.12916 a 1.99923,1.99923 0 0 0 0.87126,-0.46631 c 0.67491,-0.724 0,-1.85295 -0.53994,-2.67513 -1.313,-1.97566 -1.5339,-5.22753 0.62583,-6.20923 1.47255,-0.67492 3.15371,0.135 4.5649,0.92034 2.2579,1.25166 4.51581,2.5156 6.77371,3.76726 0.20861,1.28848 -1.3621,2.02475 -2.33153,2.88374 a 3.91016,3.91016 0 0 0 2.55241,6.83507 4.89841,4.89841 0 0 0 -0.87125,4.1354 c 1.50936,0.11044 3.031,0.22088 4.55262,0.33132 a 1.955,1.955 0 0 0 1.47254,-0.29451 c 0.49085,-0.42949 0.41723,-1.1903 0.53994,-1.82841 a 3.94969,3.94969 0 0 1 3.33777,-2.90828 11.52267,11.52267 0 0 1 4.65079,0.4295 2.83379,2.83379 0 0 0 2.01248,-0.0491 2.00758,2.00758 0 0 0 0.78536,-1.00624 5.13091,5.13091 0 0 0 -1.03078,-4.933 28.23766,28.23766 0 0 0 -3.87771,-3.57092 22.60562,22.60562 0 0 1 -6.7369,-10.43054 c -2.50333,-1.05533 -5.09255,-2.47879 -7.60815,-3.53411 a 30.39287,30.39287 0 0 0 -6.31968,-2.12292 29.86432,29.86432 0 0 0 -6.197,-0.29451 c -2.82238,0.0491 -5.657,0.0982 -8.47941,0.15952 a 20.40694,20.40694 0 0 0 -7.42409,1.0676 c -2.31926,0.95716 -4.36855,3.031 -4.52808,5.53432 a 1.69922,1.69922 0 0 0 0.55221,1.55844 1.98844,1.98844 0 0 0 1.06759,0.24543 c 2.34381,0.0736 3.33778,0.66265 5.68158,0.74854 -1.48482,1.583 -3.15371,3.25188 -5.31344,3.53411 -3.80408,0.49085 -6.54056,-3.44821 -8.29534,-6.87188 a 3.34867,3.34867 0 0 1 -3.4973,3.10462 7.05261,7.05261 0 0 1 -2.63831,-1.03078 51.89888,51.89888 0 0 0 -24.6038,-6.35649 2.6493,2.6493 0 0 0 -2.02475,-2.92055 c -1.75478,-0.3436 -3.3255,1.16576 -4.17221,2.73648 -0.83445,1.57071 -1.36211,3.38685 -2.71194,4.56489 -1.33757,1.178 -3.92679,1.11668 -4.45446,-0.57675 -0.51539,-1.63207 1.19031,-3.031 2.6015,-4.00041 1.42346,-0.95716 2.90828,-2.73649 1.95113,-4.16 -7.21548,-1.60753 -14.49231,-3.20278 -21.89186,-3.52184 a 9.31582,9.31582 0 0 1 -3.68137,-0.6381 2.86149,2.86149 0 0 1 -1.718,-3.031 8.36665,8.36665 0 0 0 8.71257,-3.28869 c -7.59589,-0.62583 -15.54764,-1.178 -22.849,0.52766 l -6.39331,5.42388 c 1.21485,1.26394 2.83466,2.45425 1.95113,3.71818 a 2.72023,2.72023 0 0 1 -2.24564,0.77309 c -1.54617,0.0245 -3.09234,0.0614 -4.62625,0.0614 a 179.89938,179.89938 0 0 0 -54.926,115.055 c 2.577,-0.0982 4.9453,3.166 4.614,6.0129 -0.39267,3.301 -2.77329,5.95154 -4.479,8.79846 A 13.40829,13.40829 0 0 0 -2e-5,181.46703 Z"
       fill="#3f3d56"
       id="path18" />
    <circle
       cx="-238.73032"
       cy="326.94006"
       r="30.9995"
       fill="#2f2e41"
       id="circle20"
       transform="scale(-1,1)" />
    <path
       d="m 253.52831,342.60125 c 0,0 10.09708,22.35783 12.982,23.079 2.88492,0.72117 -23.80027,13.70319 -23.80027,13.70319 0,0 -5.04854,-27.40637 -7.2122,-28.84881 -2.16366,-1.44244 18.03047,-7.93338 18.03047,-7.93338 z"
       fill="#ffb9b9"
       id="path22" />
    <polygon
       points="334.715,578.44 354.909,586.374 389.528,517.858 353.467,525.791 "
       fill="#ffb9b9"
       id="polygon24"
       transform="matrix(-1,0,0,1,666.85626,0)" />
    <path
       d="m 247.75854,527.23367 c 0,0 -37.50346,52.64908 -39.66712,53.3703 -2.16366,0.72122 -17.30929,-12.26074 -17.30929,-12.26074 0,0 18.75173,-45.43689 24.5215,-47.60055 5.76977,-2.16366 32.45491,6.49099 32.45491,6.49099 z"
       fill="#ffb9b9"
       id="path26" />
    <path
       d="m 335.02621,569.06441 29.57,77.17058 c 0,0 -2.16366,4.32732 0,5.04854 2.16366,0.72122 7.21221,12.26075 7.21221,12.982 0,0.72125 5.04854,1.44244 5.04854,3.6061 0,2.16366 4.32732,19.473 4.32732,19.473 0,0 -7.93342,17.30929 -12.982,12.26075 -5.04858,-5.04854 -7.21215,-15.14567 -7.21215,-15.14567 l -7.2122,-18.75173 c 0,0 0.72122,-10.09709 -4.32732,-11.53953 -5.04854,-1.44244 -7.93343,-19.47295 -7.93343,-19.47295 0,0 -7.93342,-7.93342 -9.37586,-10.09708 -1.44244,-2.16366 -26.68516,-40.38834 -24.5215,-41.10956 2.16366,-0.72122 27.40639,-14.42445 27.40639,-14.42445 z"
       fill="#2f2e41"
       id="path28" />
    <path
       d="m 212.41874,579.16153 -21.63661,-14.4244 c 0,0 -37.50346,68.51593 -37.50346,69.95837 0,1.44244 1.44244,5.76977 0,7.21221 -1.44244,1.44244 -13.70318,24.52149 -21.63661,26.68515 -7.93343,2.16366 -9.37586,10.81831 -2.88488,12.26075 6.49098,1.44244 15.14563,5.04854 17.30929,0 a 79.371,79.371 0 0 1 4.32732,-8.65465 c 0,0 7.21221,2.16366 7.93343,0.72122 a 66.371,66.371 0 0 0 2.16366,-6.491 c 0,0 5.76976,-10.09709 5.76976,-13.70319 0,-3.6061 3.6061,-4.32732 3.6061,-4.32732 0,0 7.93343,-18.75173 12.982,-21.63661 5.04857,-2.88488 9.37586,-17.30929 9.37586,-17.30929 z"
       fill="#2f2e41"
       id="path30" />
    <circle
       cx="-238.38269"
       cy="338.27393"
       r="20.91539"
       fill="#ffb9b9"
       id="circle32"
       transform="scale(-1,1)" />
    <path
       d="m 300.40763,465.20871 c 0,0 30.95529,82.23385 26.628,82.23385 -4.32729,0 -124.04328,2.6049 -127.64938,-3.16486 -3.6061,-5.76976 31.063,-63.20214 32.50547,-63.92336 1.44247,-0.72122 68.51591,-15.14563 68.51591,-15.14563 z"
       fill="#2f2e41"
       id="path34" />
    <path
       d="m 331.42013,293.55827 21.63661,-33.17614 c 0,0 -5.35057,-34.8021 1.86163,-28.31112 7.2122,6.49098 9.49458,32.70356 9.49458,32.70356 l -25.0594,38.15956 z"
       fill="#ffb9b9"
       id="path36" />
    <path
       d="m 135.24813,354.14078 -19.47295,-1.44244 c 0,0 -23.07905,-24.5215 -24.52149,-16.58807 -1.44244,7.93343 18.75173,25.24271 18.75173,25.24271 l 26.68515,2.88488 z"
       fill="#ffb9b9"
       id="path38" />
    <path
       d="m 277.32858,361.35298 v -7.2122 c 0,0 18.75173,-12.26075 18.03055,-14.42437 -0.72118,-2.16362 1.44244,-3.6061 1.44244,-3.6061 0,0 2.16366,-2.88488 2.16366,-3.6061 0,-0.72122 2.88488,-1.44244 2.88488,-1.44244 l 18.03051,-20.9154 c 0,0 10.09709,-20.19417 12.26075,-19.473 2.16366,0.72117 13.70318,5.04855 12.26074,7.93343 -1.44244,2.88488 -41.83078,64.90983 -41.83078,64.90983 0,0 -2.16366,13.70319 -5.76976,13.70319 -3.6061,0 -19.47299,-15.86684 -19.47299,-15.86684 z"
       fill="#3f3d56"
       id="path40" />
    <path
       d="m 229.00681,370.00763 c 0,0 -15.86685,-0.72123 -16.58807,0 -0.72122,0.72123 -10.8183,0 -10.8183,0 0,0 -27.40638,-6.491 -29.57,-8.65465 -2.16362,-2.16365 -38.22468,-11.53953 -39.66712,-7.2122 -1.44244,4.32733 -5.04854,12.982 -1.44244,14.4244 3.6061,1.4424 100.97085,25.96394 100.97085,25.96394 z"
       fill="#3f3d56"
       id="path42" />
    <circle
       cx="-249.5744"
       cy="294.31332"
       r="12.82738"
       fill="#2f2e41"
       id="circle44"
       transform="scale(-1,1)" />
    <path
       d="m 266.67756,287.36516 a 12.82871,12.82871 0 0 0 -11.4912,-12.758 12.97109,12.97109 0 0 1 1.33619,-0.0694 12.82738,12.82738 0 1 1 0,25.65476 12.96827,12.96827 0 0 1 -1.33619,-0.0694 12.8287,12.8287 0 0 0 11.4912,-12.75805 z"
       fill="#2f2e41"
       id="path46" />
    <ellipse
       cx="-235.12421"
       cy="320.36734"
       rx="21.378969"
       ry="12.82738"
       fill="#2f2e41"
       id="ellipse48"
       transform="scale(-1,1)" />
    <path
       d="m 259.65868,353.78017 c 0,0 6.491,5.04854 7.93342,5.76976 1.44242,0.72122 10.09709,-6.491 11.53953,-6.491 1.44244,0 20.19417,21.63661 20.19417,21.63661 0,0 -3.48485,4.014 0,24.52149 1.30692,7.69094 3.89983,40.5723 3.89983,44.89962 0,4.32732 14.13068,14.96167 1.14871,24.33754 -12.98197,9.37587 -75.00692,19.47295 -75.72814,13.70318 -0.72122,-5.76977 7.21221,-20.91539 3.6061,-28.12759 -3.60611,-7.2122 -3.6061,-33.89736 -3.6061,-33.89736 l -4.32732,-28.12759 -3.6061,-22.35783 c 0,0 16.94868,-4.68794 18.39112,-4.68794 1.44244,0 7.93342,10.09711 20.55478,-11.17889 z"
       fill="#3f3d56"
       id="path50" />
  </g>
  <rect
     y="597.302"
     width="799.99609"
     height="2.6996498"
     fill="#3f3d56"
     id="rect52"
     x="-799.94342"
     transform="scale(-1,1)"
     style="stroke-width:1.20481" />
</svg>
