<?xml version="1.0" encoding="UTF-8" standalone="no"?>
<svg
   xmlns:dc="http://purl.org/dc/elements/1.1/"
   xmlns:cc="http://creativecommons.org/ns#"
   xmlns:rdf="http://www.w3.org/1999/02/22-rdf-syntax-ns#"
   xmlns:svg="http://www.w3.org/2000/svg"
   xmlns="http://www.w3.org/2000/svg"
   xmlns:sodipodi="http://sodipodi.sourceforge.net/DTD/sodipodi-0.dtd"
   xmlns:inkscape="http://www.inkscape.org/namespaces/inkscape"
   id="b68b2dea-431f-4b15-9350-961d32a371b9"
   data-name="Layer 1"
   width="800"
   height="600"
   viewBox="0 0 800 599.99997"
   version="1.1"
   sodipodi:docname="illustration-2.svg"
   inkscape:version="1.0.2 (e86c870879, 2021-01-15, custom)">
  <metadata
     id="metadata91">
    <rdf:RDF>
      <cc:Work
         rdf:about="">
        <dc:format>image/svg+xml</dc:format>
        <dc:type
           rdf:resource="http://purl.org/dc/dcmitype/StillImage" />
        <dc:title>adventure</dc:title>
      </cc:Work>
    </rdf:RDF>
  </metadata>
  <defs
     id="defs89" />
  <sodipodi:namedview
     pagecolor="#ffffff"
     bordercolor="#666666"
     borderopacity="1"
     objecttolerance="10"
     gridtolerance="10"
     guidetolerance="10"
     inkscape:pageopacity="0"
     inkscape:pageshadow="2"
     inkscape:window-width="1920"
     inkscape:window-height="1015"
     id="namedview87"
     showgrid="false"
     inkscape:zoom="0.92993465"
     inkscape:cx="345.51223"
     inkscape:cy="194.57513"
     inkscape:window-x="0"
     inkscape:window-y="0"
     inkscape:window-maximized="1"
     inkscape:current-layer="b68b2dea-431f-4b15-9350-961d32a371b9"
     inkscape:document-rotation="0" />
  <title
     id="title2">adventure</title>
  <line
     y1="599.07458"
     x2="799.7829"
     y2="599.07458"
     fill="none"
     stroke="#3f3d56"
     stroke-miterlimit="10"
     stroke-width="1.84702"
     id="line72"
     x1="0.0027777518" />
  <rect
     x="-616.36914"
     y="-414.95645"
     width="19.435036"
     height="56.577362"
     transform="matrix(-0.65381107,-0.75665784,-0.75665784,0.65381107,0,0)"
     fill="#6c63ff"
     id="rect58"
     style="fill:#0094e3;fill-opacity:1;stroke-width:1.11388" />
  <rect
     x="-635.4342"
     y="-34.781796"
     width="19.435036"
     height="50.150566"
     transform="matrix(-0.65381107,-0.75665784,-0.75665784,0.65381107,0,0)"
     fill="#6c63ff"
     id="rect60"
     style="fill:#0094e3;fill-opacity:1;stroke-width:1.11388" />
  <path
     d="m 360.50089,333.827 v 1.14024 q 0.0389,4.29506 0.24617,8.55138 a 190.46326,190.46326 0 0 0 380.29183,2.48766 q 0.38874,-6.04425 0.38874,-12.1792 A 189.51991,189.51991 0 0 0 706.40566,223.73403 q -2.74028,-3.88701 -5.70085,-7.63143 c -1.36043,-1.73623 -2.75978,-3.43355 -4.1721,-5.1179 A 190.49914,190.49914 0 0 0 431.10198,185.79689 c -2.29337,1.85279 -4.54782,3.77036 -6.75039,5.72683 q -2.64325,2.35169 -5.19565,4.80697 a 189.94815,189.94815 0 0 0 -57.99425,121.48186 q -0.6608,7.92942 -0.6608,16.01445 z"
     fill="#3f3d56"
     id="path62"
     style="stroke-width:1.11388" />
  <path
     d="m 550.96424,548.26023 c 118.23866,0 214.43323,-96.19457 214.43323,-214.43323 A 213.73242,213.73242 0 0 0 708.18174,188.00286 l -4.74868,4.40705 A 207.27007,207.27007 0 0 1 758.91912,333.827 c 0,114.66671 -93.28817,207.95489 -207.95488,207.95489 A 206.31012,206.31012 0 0 1 401.67507,478.5965 l -4.65124,4.50955 a 212.73715,212.73715 0 0 0 153.94041,65.15418 z"
     fill="#6c63ff"
     id="path64"
     style="fill:#0094e3;fill-opacity:1;stroke-width:1.11388" />
  <rect
     x="-574.28625"
     y="543.7254"
     width="54.418102"
     height="54.418102"
     fill="#6c63ff"
     id="rect66"
     transform="scale(-1,1)"
     style="fill:#0094e3;fill-opacity:1;stroke-width:1.11388" />
  <path
     d="m 700.70471,216.10253 a 1.059626,1.059626 0 0 0 -0.25914,0.15548 c -1.02357,0.84219 0.25914,2.46177 0.10371,3.79631 -0.1814,1.71029 -2.46178,2.08603 -4.18502,2.2545 -1.72323,0.18139 -3.89996,1.56775 -3.08369,3.09665 4.32754,1.49002 8.7069,0.0259 13.12513,-1.67142 a 189.52011,189.52011 0 0 1 35.02193,110.09301 q 0,6.14146 -0.38874,12.17929 a 4.9232639,4.9232639 0 0 1 -1.17906,0.63491 c -1.29567,0.49234 -2.79864,0.40167 -3.99066,1.10132 -0.94583,0.55714 -1.58071,1.54185 -2.52656,2.06012 -2.70795,1.47706 -6.46539,-1.36046 -8.99194,0.40165 a 23.232609,23.232609 0 0 0 -1.8528,1.89169 c -2.33221,2.02124 -6.16738,0.66079 -8.86238,2.17671 -1.7362,0.97176 -2.63021,2.91526 -3.56309,4.67737 -2.31925,4.40527 -6.07669,8.73284 -11.0391,9.0826 a 29.726883,29.726883 0 0 0 -4.69033,0.15548 c -1.52888,0.34982 -3.03186,1.68437 -2.78568,3.22622 0.42757,2.65612 -0.88109,5.55842 -0.53123,8.21454 0.63492,4.85876 7.51488,6.98365 8.09794,11.84241 a 29.255276,29.255276 0 0 0 0.18139,3.20031 c 0.31096,1.26974 1.26975,2.30628 1.60663,3.57604 0.64784,2.39699 -1.07541,4.79398 -2.95413,6.40061 -1.89167,1.61958 -4.14614,3.0189 -5.18267,5.27337 -1.08837,2.39698 -0.55715,5.18267 -0.90697,7.78696 -0.7774,5.68799 -5.68799,9.89892 -10.7411,12.61982 a 11.215112,11.215112 0 0 0 -4.19797,3.05778 c -1.29567,1.87872 -1.1661,4.35346 -1.60662,6.59496 -1.06246,5.48068 -5.67504,10.00257 -5.8046,15.5869 -0.0907,3.97768 2.11192,7.57967 3.43352,11.32415 a 26.13442,26.13442 0 0 1 1.17906,12.23111 191.3757,191.3757 0 0 1 -23.49048,17.03805 6.8438661,6.8438661 0 0 1 -0.97175,-2.17672 4.3050698,4.3050698 0 0 1 2.00833,-4.4571 10.651253,10.651253 0 0 1 -3.71857,-2.38404 3.6477116,3.6477116 0 0 1 -0.67375,-4.12025 c -2.28037,0.28504 -4.98832,0.42756 -6.4913,-1.32159 -1.20497,-1.39932 -1.12725,-3.49831 -0.64783,-5.27337 a 21.748739,21.748739 0 0 0 1.29567,-5.36407 96.488292,96.488292 0 0 1 -15.83308,-0.53122 10.278325,10.278325 0 0 1 4.81989,-6.03782 c -2.38403,-0.40167 -4.54781,-3.25214 -5.29929,-5.54547 a 14.124842,14.124842 0 0 1 -0.1037,-7.16505 3.8113856,3.8113856 0 0 0 0.0778,-1.86576 3.6708247,3.6708247 0 0 0 -1.89168,-1.8269 q -5.90824,-3.40113 -11.81649,-6.7893 a 7.1243976,7.1243976 0 0 1 -1.89168,-1.38637 c -1.23084,-1.4641 -1.0495,-3.65378 -0.41462,-5.45476 0.63488,-1.80099 1.64551,-3.49831 1.89168,-5.38998 0.72558,-5.66208 -5.33816,-9.73048 -7.38532,-15.06862 a 22.631602,22.631602 0 0 1 -1.11427,-6.59496 c -0.16843,-2.40994 -0.1814,-5.19563 1.65846,-6.73747 1.77506,-1.49002 4.53484,-1.15314 6.38764,-2.53951 1.69734,-1.26975 2.28039,-3.71857 4.13319,-4.74215 1.68437,-0.93288 3.78336,-0.33687 5.66208,-0.7774 3.29099,-0.76445 5.36406,-4.56075 8.73284,-4.91059 1.89169,-0.2073 4.0425,0.72557 5.59727,-0.37575 1.37342,-0.98467 1.42523,-2.94116 1.68437,-4.59962 a 12.848833,12.848833 0 0 1 10.36535,-10.39126 c 1.95646,-0.31096 4.08136,-0.19435 5.75277,-1.26976 1.68437,-1.08836 2.44881,-3.12256 3.78335,-4.63849 2.1249,-2.42291 5.49367,-3.291 8.64211,-4.02953 q 6.41356,-1.4965 12.81411,-3.00596 c 2.26742,-0.54417 5.19563,-0.82923 6.42652,1.1661 a 8.7654484,8.7654484 0 0 1 0.75149,2.39699 7.4334,7.4334 0 0 0 6.97068,5.23451 8.2363984,8.2363984 0 0 1 4.8458,-3.75744 30.57359,30.57359 0 0 0 3.93883,-0.93288 5.5184786,5.5184786 0 0 0 2.38404,-7.65741 6.8751439,6.8751439 0 0 1 1.17905,-8.25341 c 2.17673,-1.95646 5.3252,-2.43586 8.25342,-2.24151 0.76444,-1.67141 -0.51827,-3.55013 -1.89168,-4.76806 -1.38637,-1.20498 -3.05778,-2.39699 -3.35578,-4.21092 -0.4794,-2.85043 3.16143,-5.01425 5.92121,-4.17206 2.75978,0.85515 4.52188,3.53718 5.68798,6.18034 a 18.6392,18.6392 0 0 0 2.29333,4.39232 4.5023163,4.5023163 0 0 0 4.35345,1.78802 c 2.28039,-0.58305 3.14848,-3.291 3.65379,-5.57138 a 36.328457,36.328457 0 0 0 1.21794,-9.34177 12.194794,12.194794 0 0 0 -3.52423,-8.49958 c -3.7704,-3.4724 -9.57494,-3.13559 -14.66697,-2.57839 a 3.7358755,3.7358755 0 0 0 -0.38875,-4.92354 5.5980322,5.5980322 0 0 0 -5.07903,-1.24384 6.9684539,6.9684539 0 0 0 -3.92587,2.34516 c -1.45115,1.76216 -1.86575,4.15909 -2.95413,6.15443 -1.10131,2.00833 -3.56309,3.71856 -5.57137,2.64316 -1.74916,-0.93288 -2.02124,-3.34283 -1.59367,-5.27338 0.44052,-1.91758 1.36045,-3.7963 1.20497,-5.76572 -0.298,-3.74448 -4.19797,-6.0119 -7.6315,-7.55375 -3.43352,-1.54185 -7.35942,-3.62792 -7.90358,-7.35942 a 6.876993,6.876993 0 0 0 -0.41461,-2.1249 4.1540384,4.1540384 0 0 0 -1.54185,-1.45115 c -10.01551,-6.62092 -20.21243,-13.33244 -31.66615,-16.94735 -0.59601,-0.19435 -0.66079,0.0129 -1.26975,-0.12957 -0.85514,-0.49234 -0.28505,-1.8528 0.53122,-2.39699 0.81628,-0.54419 1.90463,-0.97175 2.11193,-1.93054 0.14257,-0.69966 -0.2721,-1.39932 -0.37575,-2.11192 a 2.6367957,2.6367957 0 0 1 3.45943,-2.66908 c 0.91992,-1.21793 -0.89401,-2.63021 -2.37107,-3.04482 a 64.759649,64.759649 0 0 0 -13.53974,-2.20264 2.410967,2.410967 0 0 0 -1.54185,0.25914 1.832338,1.832338 0 0 0 -0.11661,2.5136 14.190795,14.190795 0 0 0 2.06012,1.87872 5.6594405,5.6594405 0 0 1 1.47706,5.68798 c -2.39698,1.21793 -4.98832,2.47473 -7.64444,2.04716 -2.64317,-0.42758 -4.98833,-3.40762 -3.74449,-5.77868 1.15315,-2.2156 4.63849,-2.72091 5.2345,-5.14382 0.69966,-2.8375 -3.31692,-5.36406 -2.40995,-8.13679 0.38875,-1.21793 1.60663,-1.9435 2.53952,-2.81161 a 7.6657449,7.6657449 0 0 0 1.67141,-8.47367 9.6546726,9.6546726 0 0 0 8.44776,-2.64316 c 2.02125,-2.03421 3.62792,-5.26042 6.50426,-5.15677 2.63021,0.0777 4.89763,3.14848 7.35943,2.21559 0.60896,-0.23321 1.24384,-0.69965 1.82689,-0.42756 a 1.5101473,1.5101473 0 0 1 0.68671,1.12725 c 0.62191,2.993 -0.45349,6.4006 1.17905,8.99194 1.77506,2.8116 5.88234,3.2003 8.03315,5.73984 1.1661,1.37342 1.61959,3.22621 2.69499,4.67737 1.07539,1.45115 3.34283,2.38403 4.6385,1.11427 a 6.3848682,6.3848682 0 0 1 1.73619,-7.77402 16.695562,16.695562 0 0 1 3.83518,-1.86575 22.760557,22.760557 0 0 0 4.28866,-2.38403 4.2497655,4.2497655 0 0 0 1.56776,-1.68437 3.872794,3.872794 0 0 0 -0.10359,-2.66908 10.908872,10.908872 0 0 0 -8.66803,-7.17801 c -1.71028,-0.23321 -3.70561,-0.15547 -4.8458,-1.4641 -0.59601,-0.68671 -0.90697,-1.7362 -1.78802,-2.00833 a 2.6067208,2.6067208 0 0 0 -1.6455,0.19435 c -2.13786,0.75148 -4.26276,1.50298 -6.40061,2.2545 a 4.3843783,4.3843783 0 0 1 -2.28038,0.37574 1.533873,1.533873 0 0 1 -1.33453,-1.61959 c 0.2073,-1.06244 1.83985,-1.56776 1.68437,-2.64316 a 1.6803487,1.6803487 0 0 0 -0.53123,-0.90696 22.894479,22.894479 0 0 0 -18.15232,-7.16506 c -0.80331,1.33455 0.46643,2.9023 1.54184,4.02953 1.06245,1.14019 1.9176,3.16144 0.62193,4.02953 a 3.4132392,3.4132392 0 0 1 -1.69734,0.38874 14.804823,14.804823 0 0 0 -4.53484,1.37342 c -2.21559,0.95879 -4.39231,2.02124 -6.51721,3.16143 a 8.2163931,8.2163931 0 0 0 -0.15548,-4.19796 2.8508506,2.8508506 0 0 0 -3.36874,-1.82691 c -1.26975,0.49234 -1.91759,2.17673 -3.27804,2.33221 -1.80098,0.20732 -2.5136,-2.46177 -1.76216,-4.12026 0.75143,-1.65848 2.2545,-3.03186 2.37107,-4.85875 0.0907,-1.21794 -0.37575,-2.73386 0.596,-3.4724 a 2.5776819,2.5776819 0 0 1 1.15315,-0.41461 q 12.20521,-2.23503 24.42336,-4.48301 c 1.45116,-0.2721 3.53718,-0.0648 3.60196,1.39931 0.0389,0.82923 -0.69966,1.64551 -0.37574,2.39699 0.34982,0.80332 1.49002,0.7385 2.31925,1.02358 a 3.1489481,3.1489481 0 0 1 1.81394,3.32987 9.0765226,9.0765226 0 0 1 -1.5289,3.74448 c 1.59368,-0.66079 3.99067,-0.7774 5.58433,-1.45114 a 21.493492,21.493492 0 0 1 1.39933,-5.37703 1.8978901,1.8978901 0 0 1 2.47473,-1.52889 c 2.09899,0.32391 4.19797,0.63491 6.29694,0.95879 a 2.4356284,2.4356284 0 0 1 1.43821,0.55715 c 0.81626,0.86809 0.0129,2.2545 0.0389,3.44647 a 3.2297937,3.2297937 0 0 0 2.50067,2.78569 9.4259701,9.4259701 0 0 0 3.99065,-0.0518 c 2.94118,-0.45349 5.86939,-0.90697 8.81055,-1.36046 a 14.432786,14.432786 0 0 1 -6.65973,-4.4571 c -1.1661,-1.37342 -1.78803,-3.93884 -0.1037,-4.58667 a 4.0197264,4.0197264 0 0 1 1.52889,-0.1166 c 3.99066,0.0259 7.13914,-3.30396 10.87066,-4.71618 a 10.685772,10.685772 0 0 1 3.66675,-0.67376 z"
     fill="#6c63ff"
     id="path68"
     style="fill:#0094e3;fill-opacity:1;stroke-width:1.11388" />
  <path
     d="m 360.74706,343.5186 a 4.6783656,4.6783656 0 0 0 3.96474,1.87872 c 4.05545,-0.34982 5.76573,-6.19329 9.7823,-6.85409 a 1.5654182,1.5654182 0 0 1 1.06245,0.1037 c 0.59601,0.32392 0.69966,1.12725 0.7385,1.80098 0.16843,3.34277 0.31096,6.81522 -0.99767,9.89892 -1.90463,4.50892 -6.84113,8.29228 -5.80459,13.07329 5.57138,-2.57837 8.47368,-8.83644 9.7823,-14.83541 1.32158,-5.99894 1.52888,-12.29589 3.88701,-17.97093 1.80098,2.29333 5.55842,0.40166 7.19096,-2.00833 1.5548,-2.28037 2.5136,-4.92354 4.01657,-7.24279 1.50298,-2.30628 3.80927,-4.37935 6.55609,-4.50892 2.88934,-0.12957 5.40293,1.8528 7.60559,3.73151 a 17.601651,17.601651 0 0 1 4.7292,5.26041 c 1.54184,3.10961 1.14019,6.7634 1.21793,10.22283 0.0777,3.73151 0.8681,7.68333 3.42056,10.43014 2.55247,2.73386 7.25575,3.69266 10.06735,1.21793 a 11.357266,11.357266 0 0 0 2.81161,-5.06606 246.52191,246.52191 0 0 0 7.61852,-27.18314 c 0.46645,2.09899 2.31925,4.80693 4.08136,3.57604 a 3.6391904,3.6391904 0 0 0 0.93289,-1.21792 c 3.291,-5.55842 9.36768,-8.90125 15.52211,-10.90954 6.14147,-1.99533 12.60686,-2.92821 18.68355,-5.13085 a 47.769142,47.769142 0 0 0 9.70457,-4.83285 7.6417852,7.6417852 0 0 1 0.46644,7.79994 6.2481613,6.2481613 0 0 1 -7.02254,2.94116 c -1.34748,-0.44053 -2.48768,-1.37342 -3.82222,-1.83984 -1.33453,-0.45349 -3.13552,-0.23323 -3.71857,1.06244 -0.57009,1.23084 0.28505,2.7209 -0.14252,4.01657 -0.63491,1.95646 -3.60196,2.11193 -4.6385,3.89997 a 3.6100958,3.6100958 0 0 0 0.97175,4.17206 17.461491,17.461491 0 0 0 3.91293,2.40994 c 4.35345,2.4229 7.4501,6.55608 11.25936,9.76935 3.80927,3.22621 9.18629,5.57137 13.72113,3.51126 -1.07539,-5.48069 5.44181,-9.49726 6.64679,-14.95203 0.40166,-1.80098 0.19435,-3.70561 0.75148,-5.45476 0.81628,-2.53951 3.07074,-4.27571 4.91059,-6.1933 a 24.344109,24.344109 0 0 0 6.6727,-17.68589 c -0.1036,-2.2545 -0.51827,-4.54779 0,-6.75043 0.50531,-2.18968 2.3322,-4.31457 4.58667,-4.22385 5.1438,0.23323 11.63511,0.62193 14.33011,-3.77039 0.97175,-1.56776 1.38637,-3.8611 -0.0129,-5.06606 a 4.8918524,4.8918524 0 0 0 -3.71856,-0.63492 c -3.87409,0.37575 -7.73515,0.76445 -11.60921,1.14018 -2.70793,0.25914 -5.63616,0.47941 -7.96836,-0.93287 -2.3322,-1.41228 -3.34276,-5.18268 -1.17906,-6.85409 1.56776,-1.21794 4.39232,-1.15315 4.85876,-3.08369 0.37575,-1.61959 -1.41228,-3.44649 -0.44053,-4.80694 0.68671,-0.95879 2.24151,-0.69965 3.18736,0.0259 a 20.823369,20.823369 0 0 0 2.68203,2.34516 c 1.85281,0.9588 4.05545,0.0389 6.05077,-0.58305 1.99532,-0.62193 4.66441,-0.67374 5.6232,1.17906 1.08837,2.06011 -0.94583,4.78102 0.11662,6.85409 1.42523,2.73386 6.21921,1.17905 8.21454,3.53718 2.28038,2.69498 -1.5548,6.73748 -0.79036,10.18396 a 6.348745,6.348745 0 0 0 6.25808,-0.34984 6.0584113,6.0584113 0 0 0 2.61726,-5.64912 c -0.1814,-1.5548 -0.99767,-3.14847 -0.45349,-4.61259 a 5.3847124,5.3847124 0 0 1 2.73386,-2.50067 q 5.63616,-3.12903 11.27232,-6.23217 c 1.04949,1.9435 -0.27208,4.34049 -1.93055,5.8046 -1.64549,1.45114 -3.71856,2.55246 -4.80693,4.47001 a 5.8750995,5.8750995 0 0 0 2.20264,7.7481 1.3667348,1.3667348 0 0 0 1.12725,0.19435 1.561954,1.561954 0 0 0 0.72557,-0.97175 c 1.98238,-5.09198 4.97538,-10.10627 9.74344,-12.76234 4.78102,-2.66908 11.6351,-2.11193 14.77063,2.35809 0.7385,1.06244 1.24384,2.28037 1.89167,3.4076 3.43353,5.97304 10.81884,8.79759 17.7118,8.6162 a 3.4134285,3.4134285 0 0 0 1.93054,-0.45349 c 1.11428,-0.76443 1.06246,-2.39698 0.89402,-3.74447 -0.24617,-1.90464 -0.47939,-3.79631 -0.72557,-5.70094 a 4.5658076,4.5658076 0 0 0 -1.25681,-3.12257 c -1.2827,-1.01062 -3.12256,-0.37574 -4.7551,-0.40166 a 5.989874,5.989874 0 0 1 -5.45476,-4.21092 6.7688683,6.7688683 0 0 1 1.89167,-6.73748 c 0.7385,-0.69967 1.7362,-1.58072 1.3475,-2.52656 a 2.09967,2.09967 0 0 0 -1.46411,-0.98467 c -2.91526,-0.84219 -6.01191,-1.06245 -8.87534,-2.07307 -2.87638,-0.99766 -5.66207,-3.04482 -6.34877,-6.01191 -0.20731,-0.90697 -0.298,-2.00833 -1.11428,-2.46177 a 3.6087034,3.6087034 0 0 0 -1.29567,-0.25913 6.3060721,6.3060721 0 0 1 -5.40293,-6.56904 c -1.37342,-0.9588 -3.30396,-0.24617 -4.6385,0.7774 -1.32158,1.02358 -2.50067,2.37107 -4.12026,2.8116 -3.0189,0.82923 -5.93415,-1.8528 -9.06968,-1.86576 -1.32158,0 -2.68203,0.46645 -3.91292,0.0129 -1.25679,-0.45348 -2.00833,-1.69733 -2.96708,-2.61725 -0.97175,-0.93288 -2.65612,-1.49002 -3.55014,-0.49234 0.25914,-1.87872 0.50532,-3.74449 0.76445,-5.61025 a 11.028948,11.028948 0 0 1 -8.97901,-1.63254 c 3.26508,-1.10132 6.51721,-2.20264 9.7823,-3.30396 a 2.1109648,2.1109648 0 0 0 0.91992,-0.49233 c 0.71262,-0.76445 0,-1.95646 -0.57009,-2.82456 -1.38637,-2.08603 -1.61959,-5.51956 0.66079,-6.55609 1.5548,-0.71262 3.32987,0.14258 4.81989,0.97175 2.38402,1.32159 4.76806,2.65612 7.15209,3.97768 0.22026,1.36045 -1.43819,2.13785 -2.46177,3.04482 a 4.128575,4.128575 0 0 0 2.69499,7.21685 5.1721055,5.1721055 0 0 0 -0.91993,4.36642 c 1.59368,0.1166 3.20031,0.23322 4.80694,0.34983 a 2.0643042,2.0643042 0 0 0 1.5548,-0.31096 c 0.51827,-0.45349 0.44052,-1.2568 0.57009,-1.93055 a 4.1703011,4.1703011 0 0 1 3.52423,-3.07073 12.166168,12.166168 0 0 1 4.91058,0.45348 2.9920688,2.9920688 0 0 0 2.12489,-0.0518 2.1197199,2.1197199 0 0 0 0.82923,-1.06244 5.4175385,5.4175385 0 0 0 -1.08836,-5.2086 29.815014,29.815014 0 0 0 -4.09431,-3.77039 23.868291,23.868291 0 0 1 -7.11326,-11.01319 c -2.64316,-1.11427 -5.37703,-2.61724 -8.03315,-3.73151 a 32.090354,32.090354 0 0 0 -6.6727,-2.24151 31.533045,31.533045 0 0 0 -6.54312,-0.31096 c -2.98004,0.0518 -5.97304,0.1037 -8.95308,0.16844 a 21.547048,21.547048 0 0 0 -7.83879,1.12725 c -2.44882,1.01063 -4.61259,3.20031 -4.78102,5.84343 a 1.7941875,1.7941875 0 0 0 0.58305,1.64551 2.09967,2.09967 0 0 0 1.12725,0.25913 c 2.47472,0.0777 3.52421,0.69967 5.99894,0.79036 -1.56776,1.67141 -3.32987,3.43352 -5.61024,3.73151 -4.01658,0.51826 -6.90592,-3.64084 -8.75872,-7.25575 a 3.5357218,3.5357218 0 0 1 -3.69266,3.27804 7.4463099,7.4463099 0 0 1 -2.78569,-1.08837 54.797946,54.797946 0 0 0 -25.97816,-6.71156 2.7973063,2.7973063 0 0 0 -2.13786,-3.08369 c -1.85281,-0.36278 -3.51127,1.23084 -4.40527,2.88934 -0.88108,1.65845 -1.4382,3.57605 -2.86344,4.81989 -1.41227,1.24384 -4.14614,1.17905 -4.70327,-0.60896 -0.54419,-1.72325 1.25679,-3.20031 2.74684,-4.22385 1.50297,-1.01062 3.07074,-2.88935 2.06011,-4.39232 -7.61854,-1.69732 -15.30185,-3.38175 -23.11474,-3.71858 a 9.8362022,9.8362022 0 0 1 -3.887,-0.67374 3.0213416,3.0213416 0 0 1 -1.81394,-3.2003 8.8340191,8.8340191 0 0 0 9.19925,-3.47239 c -8.02019,-0.66079 -16.41612,-1.24384 -24.12535,0.55714 l -6.75044,5.72685 c 1.28271,1.33454 2.99301,2.59134 2.06011,3.92588 a 2.8721481,2.8721481 0 0 1 -2.37107,0.81627 c -1.63254,0.026 -3.26509,0.0648 -4.88468,0.0648 A 189.9486,189.9486 0 0 0 361.1617,317.81241 c 2.7209,-0.10359 5.22155,3.34283 4.87171,6.34878 -0.41461,3.48534 -2.92821,6.284 -4.72919,9.28996 a 14.156131,14.156131 0 0 0 -0.8033,1.516 z"
     fill="#6c63ff"
     id="path70"
     style="fill:#0094e3;fill-opacity:1;stroke-width:1.11388" />
  <circle
     cx="-219.60602"
     cy="413.30463"
     r="16.435972"
     fill="none"
     stroke="#3f3d56"
     stroke-miterlimit="10"
     stroke-width="2.22777"
     id="circle76"
     transform="scale(-1,1)"
     style="fill:none;fill-opacity:1;stroke:#0094e3;stroke-opacity:1" />
  <circle
     cx="-313.78137"
     cy="34.913872"
     r="16.435972"
     fill="none"
     stroke="#3f3d56"
     stroke-miterlimit="10"
     stroke-width="2.22777"
     id="circle78"
     transform="scale(-1,1)"
     style="fill:none;fill-opacity:1;stroke:#0094e3;stroke-opacity:1" />
  <circle
     cx="-452.05344"
     cy="249.2955"
     r="18.444815"
     fill="#3f3d56"
     id="circle80"
     transform="scale(-1,1)"
     style="stroke-width:1.11388" />
  <circle
     cx="-392.80478"
     cy="190.01018"
     r="24.31361"
     fill="#ffffff"
     id="circle82"
     transform="scale(-1,1)"
     style="stroke-width:1.11388" />
  <path
     d="m 368.21587,164.80449 a 34.374439,34.374439 0 0 1 48.60904,0.60203 c 13.25677,13.58927 32.18325,82.21661 32.18325,82.21661 0,0 -68.13755,-20.62033 -81.39433,-34.20958 a 34.374439,34.374439 0 0 1 0.60204,-48.60906 z m 35.71253,36.60824 a 15.929645,15.929645 0 1 0 -22.52614,-0.27899 15.929645,15.929645 0 0 0 22.52614,0.27899 z"
     fill="#57b894"
     id="path84"
     style="stroke-width:1.11388" />
  <circle
     cx="-162.46095"
     cy="271.27191"
     fill="none"
     stroke="#3f3d56"
     stroke-miterlimit="10"
     stroke-width="2.22777"
     id="circle846"
     transform="scale(-1,1)"
     style="fill:none;fill-opacity:1;stroke:#0094e3;stroke-opacity:1"
     r="16.435972" />
</svg>
