<?xml version="1.0" encoding="UTF-8" standalone="no"?>
<svg
   width="20"
   height="20"
   viewBox="0 0 5.2916665 5.291667"
   version="1.1"
   id="svg2859"
   xmlns="http://www.w3.org/2000/svg"
   xmlns:svg="http://www.w3.org/2000/svg">
  <defs
     id="defs2853" />
  <g
     id="g1143"
     transform="matrix(1.1193851,0,0,1.1193851,-1.0343072,-0.31587286)">
    <path
       d="M 4.8755332,4.7478052 1.8498398,0.43849739 c -0.022977,-0.0327324 -0.06453,-0.0467881 -0.1026624,-0.0347404 -0.038133,0.0120477 -0.064062,0.0474207 -0.064062,0.0874239 V 4.8004888 c 0,0.050639 0.041049,0.091687 0.091687,0.091687 H 4.800487 c 0.034209,0 0.065575,-0.019053 0.081354,-0.049401 0.015779,-0.030358 0.01334,-0.066978 -0.00631,-0.09497 z M 1.8664902,4.7088014 V 4.4337392 H 2.1415524 V 4.2503644 H 1.8664902 V 3.7919274 H 2.1415524 V 3.6085526 H 1.8664902 V 3.1501156 H 2.1415524 V 2.9667408 H 1.8664902 V 2.5083038 H 2.1415524 V 2.324929 H 1.8664902 V 1.866492 H 2.1415524 V 1.6831172 H 1.8664902 V 0.78132575 L 4.6240805,4.7088014 Z"
       id="path1032"
       style="stroke-width:0.00916874" />
    <path
       d="M 2.4624583,4.0669896 H 3.425176 c 0.034731,0 0.066473,-0.019621 0.082005,-0.050685 0.015532,-0.031064 0.012176,-0.068234 -0.00866,-0.096015 L 2.5358082,2.6366661 c -0.023683,-0.031577 -0.064896,-0.044459 -0.1023414,-0.031971 -0.037436,0.012479 -0.062696,0.047522 -0.062696,0.086984 v 1.2836236 c 0,0.050639 0.041049,0.091687 0.091688,0.091687 z m 0.091687,-1.1002488 0.6876555,0.916874 H 2.5541457 Z"
       id="path1034"
       style="stroke-width:0.00916874" />
  </g>
</svg>
