<?xml version="1.0" encoding="UTF-8" standalone="no"?>
<svg
   width="20"
   height="20"
   viewBox="0 0 5.2916665 5.291667"
   version="1.1"
   id="svg1644"
   inkscape:version="1.1.1 (3bf5ae0d25, 2021-09-20)"
   sodipodi:docname="properties.svg"
   xmlns:inkscape="http://www.inkscape.org/namespaces/inkscape"
   xmlns:sodipodi="http://sodipodi.sourceforge.net/DTD/sodipodi-0.dtd"
   xmlns="http://www.w3.org/2000/svg"
   xmlns:svg="http://www.w3.org/2000/svg"
   xmlns:rdf="http://www.w3.org/1999/02/22-rdf-syntax-ns#"
   xmlns:cc="http://creativecommons.org/ns#"
   xmlns:dc="http://purl.org/dc/elements/1.1/">
  <defs
     id="defs1638" />
  <g
     inkscape:label="Calque 1"
     inkscape:groupmode="layer"
     id="layer1">
    <g
       id="g1021"
       transform="matrix(0.80867179,0,0,0.80867179,22.494591,-2.8568473)">
      <path
         id="Tracé_142"
         data-name="Tracé 142"
         d="m -25.362606,9.9460978 a 0.18838333,0.18838333 0 0 1 -0.185208,-0.2219854 l 0.166423,-0.9247187 a 0.18944166,0.18944166 0 0 1 0.05292,-0.1000125 l 2.918884,-2.9141208 a 0.18811875,0.18811875 0 0 1 0.266435,0 l 0.751417,0.7503583 a 0.18864791,0.18864791 0 0 1 0,0.2669646 l -2.922588,2.9217937 a 0.19076458,0.19076458 0 0 1 -0.09948,0.052917 l -0.914929,0.1664229 a 0.18309166,0.18309166 0 0 1 -0.03387,0.00238 z m 0.341842,-1.0215562 -0.10795,0.5987521 0.589227,-0.1058334 2.746904,-2.7469041 -0.484717,-0.4841875 z"
         style="stroke-width:0.264583" />
      <path
         id="Tracé_146"
         data-name="Tracé 146"
         d="m -27.103035,4.9637292 a 0.65034583,0.65034583 0 1 1 0.650346,-0.6503459 0.65087499,0.65087499 0 0 1 -0.650346,0.6503459 z m 0,-0.9233959 a 0.27305,0.27305 0 1 0 0.27305,0.27305 0.27331458,0.27331458 0 0 0 -0.27305,-0.27305 z"
         style="stroke-width:0.264583" />
      <path
         id="Tracé_147"
         data-name="Tracé 147"
         d="m -27.103035,6.5551979 a 0.65034583,0.65034583 0 1 1 0.650346,-0.6503458 0.65087499,0.65087499 0 0 1 -0.650346,0.6503458 z m 0,-0.9233958 a 0.27305,0.27305 0 1 0 0.27305,0.27305 0.27331458,0.27331458 0 0 0 -0.27305,-0.27305 z"
         style="stroke-width:0.264583" />
      <path
         id="Tracé_148"
         data-name="Tracé 148"
         d="m -27.103035,8.146402 a 0.65008124,0.65008124 0 1 1 0.650346,-0.6500812 0.65087499,0.65087499 0 0 1 -0.650346,0.6500812 z m 0,-0.9231312 a 0.27305,0.27305 0 1 0 0.27305,0.27305 0.27331458,0.27331458 0 0 0 -0.27305,-0.27305 z"
         style="stroke-width:0.264583" />
      <path
         id="Tracé_149"
         data-name="Tracé 149"
         d="m -23.389608,4.5020312 h -2.462742 a 0.18864791,0.18864791 0 1 1 0,-0.3772958 h 2.4638 a 0.18864791,0.18864791 0 1 1 0,0.3772958 z"
         style="stroke-width:0.264583" />
      <path
         id="Tracé_150"
         data-name="Tracé 150"
         d="m -23.389608,6.0935 h -2.462742 a 0.18864795,0.18864795 0 0 1 0,-0.3772959 h 2.4638 a 0.18864795,0.18864795 0 0 1 0,0.3772959 z"
         style="stroke-width:0.264583" />
      <path
         id="Tracé_151"
         data-name="Tracé 151"
         d="m -24.961498,7.6839104 h -0.890852 a 0.18851565,0.18851565 0 1 1 0,-0.3770313 h 0.891911 a 0.18851565,0.18851565 0 1 1 0,0.3770313 z"
         style="stroke-width:0.264583" />
    </g>
  </g>
</svg>
