<?xml version="1.0" encoding="UTF-8" standalone="no"?>
<svg
   xmlns:dc="http://purl.org/dc/elements/1.1/"
   xmlns:cc="http://creativecommons.org/ns#"
   xmlns:rdf="http://www.w3.org/1999/02/22-rdf-syntax-ns#"
   xmlns:svg="http://www.w3.org/2000/svg"
   xmlns="http://www.w3.org/2000/svg"
   xmlns:sodipodi="http://sodipodi.sourceforge.net/DTD/sodipodi-0.dtd"
   xmlns:inkscape="http://www.inkscape.org/namespaces/inkscape"
   width="30"
   height="30"
   viewBox="0 0 7.9374998 7.9375002"
   version="1.1"
   id="svg1644"
   inkscape:version="1.0.2 (e86c870879, 2021-01-15)"
   sodipodi:docname="properties.svg">
  <defs
     id="defs1638" />
  <sodipodi:namedview
     id="base"
     pagecolor="#ffffff"
     bordercolor="#666666"
     borderopacity="1.0"
     inkscape:pageopacity="0.0"
     inkscape:pageshadow="2"
     inkscape:zoom="22.4"
     inkscape:cx="16.884102"
     inkscape:cy="12.329065"
     inkscape:document-units="mm"
     inkscape:current-layer="layer1"
     inkscape:document-rotation="0"
     showgrid="false"
     units="px"
     inkscape:window-width="1920"
     inkscape:window-height="1015"
     inkscape:window-x="0"
     inkscape:window-y="0"
     inkscape:window-maximized="1" />
  <metadata
     id="metadata1641">
    <rdf:RDF>
      <cc:Work
         rdf:about="">
        <dc:format>image/svg+xml</dc:format>
        <dc:type
           rdf:resource="http://purl.org/dc/dcmitype/StillImage" />
        <dc:title></dc:title>
      </cc:Work>
    </rdf:RDF>
  </metadata>
  <g
     inkscape:label="Calque 1"
     inkscape:groupmode="layer"
     id="layer1">
    <g
       id="g876"
       transform="matrix(1.0091206,0,0,1.0091206,-5.0405906,-14.383543)">
      <path
         id="rect865"
         style="fill:none;fill-opacity:1;stroke:#3e3e3e;stroke-width:0.222357;stroke-miterlimit:4;stroke-dasharray:none;stroke-dashoffset:0;stroke-opacity:1"
         d="m 11.527896,19.34108 c 0,0.357248 -0.287597,0.644852 -0.644848,0.644852 m -1.7796804,0.0054 -3.1711814,-0.0054 C 5.5749381,19.985318 5.2873334,19.698328 5.2873334,19.34108 v -3.692616 c 0,-0.357248 0.2876047,-0.644853 0.6448528,-0.644853 h 4.9508618 c 0.357251,0 0.643058,0.287609 0.644848,0.644853 l 0.01001,2.001612"
         sodipodi:nodetypes="cccssssssc" />
      <path
         style="fill:#3e3e3e;fill-opacity:1;stroke-width:0.00501128"
         d="m 9.2075531,21.476163 c -0.036355,-0.01112 -0.065929,-0.03716 -0.085608,-0.0755 -0.02357,-0.04613 -0.026905,-0.03225 0.142431,-0.608871 0.08494,-0.289402 0.1590299,-0.541384 0.1645777,-0.55996 0.00556,-0.01858 0.016121,-0.0423 0.023459,-0.05272 0.011896,-0.01696 1.5203232,-1.520271 1.5285842,-1.523421 0.0044,-0.0017 0.95528,0.959833 0.95528,0.965789 0,0.009 -1.506849,1.50126 -1.527483,1.512644 -0.02679,0.01478 -1.1514108,0.346864 -1.1727126,0.346287 -0.00889,-2.35e-4 -0.021569,-0.0021 -0.028462,-0.0042 z m 0.7279198,-0.474687 c 0.2761451,-0.08057 0.3044071,-0.08978 0.3042071,-0.09914 -1.34e-4,-0.0057 -0.02101,-0.112781 -0.04636,-0.238013 l -0.04614,-0.227695 -0.2321629,-0.04713 c -0.1276887,-0.02592 -0.2327192,-0.04636 -0.2334196,-0.04542 -0.00334,0.0051 -0.1787307,0.61191 -0.17743,0.615429 0.00334,0.0081 0.1168599,0.129858 0.1218407,0.130317 0.00222,2.55e-4 0.1420085,-0.03951 0.3094435,-0.08835 z m 2.1835041,-1.810841 c -0.05092,-0.0524 -0.257067,-0.261173 -0.458145,-0.463942 l -0.365589,-0.368672 0.200222,-0.199237 c 0.142175,-0.141477 0.208949,-0.204451 0.230329,-0.217223 0.108288,-0.0647 0.246749,-0.06212 0.353069,0.0067 0.02935,0.01897 0.119417,0.108454 0.433708,0.430848 0.06304,0.0647 0.111846,0.119204 0.12183,0.136134 0.06715,0.113889 0.05893,0.260242 -0.02023,0.360762 -0.0229,0.02909 -0.393828,0.409991 -0.399242,0.409991 -0.0022,0 -0.04503,-0.04287 -0.09595,-0.09527 z M 6.3411323,18.777261 v -0.303183 h 0.303183 0.3031819 v 0.303183 0.303183 H 6.6443153 6.3411323 Z m 1.2177406,0 v -0.303183 h 1.3793388 1.3793373 l -0.30315,0.303183 -0.3031511,0.303183 H 8.6350598 7.5588729 Z m -1.2177406,-1.21774 v -0.303183 h 0.303183 0.3031819 v 0.303183 0.303181 H 6.6443153 6.3411323 Z m 1.2177406,0 v -0.303183 h 1.5159107 1.5159094 v 0.303183 0.303181 H 9.0747836 7.5588729 Z m -1.2177406,-1.21273 v -0.303182 h 0.303183 0.3031819 v 0.303182 0.303183 H 6.6443153 6.3411323 Z m 1.2177406,0 v -0.303182 h 1.5159107 1.5159094 v 0.303182 0.303183 H 9.0747836 7.5588729 Z"
         id="path863"
         sodipodi:nodetypes="ssscscsssssssscsccssssscssssssssscccccccccccccccccccccccccccccccccccccccccccccccccccccc" />
    </g>
  </g>
</svg>
