<?xml version="1.0" encoding="UTF-8" standalone="no"?>
<svg
   version="1.1"
   id="Layer_1"
   x="0px"
   y="0px"
   viewBox="0 0 40 40"
   xml:space="preserve"
   sodipodi:docname="apps-grid-icon.svg"
   inkscape:version="1.2.1 (9c6d41e410, 2022-07-14, custom)"
   width="40"
   height="40"
   xmlns:inkscape="http://www.inkscape.org/namespaces/inkscape"
   xmlns:sodipodi="http://sodipodi.sourceforge.net/DTD/sodipodi-0.dtd"
   xmlns="http://www.w3.org/2000/svg"
   xmlns:svg="http://www.w3.org/2000/svg"><defs
     id="defs61" /><sodipodi:namedview
     id="namedview59"
     pagecolor="#ffffff"
     bordercolor="#666666"
     borderopacity="1.0"
     inkscape:showpageshadow="2"
     inkscape:pageopacity="0.0"
     inkscape:pagecheckerboard="0"
     inkscape:deskcolor="#d1d1d1"
     showgrid="false"
     inkscape:zoom="17.456551"
     inkscape:cx="9.2801838"
     inkscape:cy="17.070955"
     inkscape:window-width="1920"
     inkscape:window-height="1015"
     inkscape:window-x="0"
     inkscape:window-y="0"
     inkscape:window-maximized="1"
     inkscape:current-layer="Layer_1" /><style
     type="text/css"
     id="style52"><![CDATA[
	.st0{fill-rule:evenodd;clip-rule:evenodd;}
]]></style><path
     class="st0"
     d="m 2.2803757,0.32380384 h 6.4333108 c 1.031123,0 1.8733135,0.84219056 1.8733135,1.87331346 v 6.4333108 c 0,1.031123 -0.8421905,1.8733139 -1.8733135,1.8733139 H 2.2803757 C 1.2492527,10.506944 0.40706219,9.6615511 0.40706219,8.6304281 V 2.1971173 c 0,-1.0311229 0.84219051,-1.87331346 1.87331351,-1.87331346 z M 31.283111,29.489854 h 6.433311 c 1.031123,0 1.876516,0.842191 1.876516,1.876516 v 6.433311 c 0,1.031123 -0.842191,1.876515 -1.876516,1.876515 h -6.433311 c -1.031123,0 -1.876515,-0.84219 -1.876515,-1.876515 V 31.36637 c 0,-1.031123 0.845392,-1.876516 1.876515,-1.876516 z m -14.499766,0 h 6.43331 c 1.031123,0 1.876516,0.842191 1.876516,1.876516 v 6.433311 c 0,1.031123 -0.84219,1.876515 -1.876516,1.876515 h -6.43331 c -1.031123,0 -1.873314,-0.84219 -1.873314,-1.876515 V 31.36637 c -0.0032,-1.031123 0.842191,-1.876516 1.873314,-1.876516 z m -14.5029693,0 h 6.4333108 c 1.031123,0 1.8733135,0.842191 1.8733135,1.876516 v 6.433311 c 0,1.031123 -0.8421905,1.876515 -1.8733135,1.876515 H 2.2803757 c -1.031123,0 -1.87331351,-0.84219 -1.87331351,-1.876515 V 31.36637 c 0,-1.031123 0.84219051,-1.876516 1.87331351,-1.876516 z M 31.283111,14.906829 h 6.433311 c 1.031123,0 1.876516,0.84219 1.876516,1.876516 v 6.43331 c 0,1.031123 -0.842191,1.876516 -1.876516,1.876516 h -6.433311 c -1.031123,0 -1.876515,-0.84219 -1.876515,-1.876516 v -6.43331 c 0,-1.031123 0.845392,-1.876516 1.876515,-1.876516 z m -14.499766,0 h 6.43331 c 1.031123,0 1.876516,0.84219 1.876516,1.876516 v 6.43331 c 0,1.031123 -0.84219,1.876516 -1.876516,1.876516 h -6.43331 c -1.031123,0 -1.873314,-0.84219 -1.873314,-1.876516 v -6.43331 c -0.0032,-1.031123 0.842191,-1.876516 1.873314,-1.876516 z m -14.5029693,0 h 6.4333108 c 1.031123,0 1.8733135,0.84219 1.8733135,1.876516 v 6.43331 c 0,1.031123 -0.8421905,1.876516 -1.8733135,1.876516 H 2.2803757 c -1.031123,-0.0032 -1.87331351,-0.848595 -1.87331351,-1.879718 v -6.430108 c 0,-1.031123 0.84219051,-1.876516 1.87331351,-1.876516 z M 31.283111,0.32380384 h 6.433311 c 1.031123,0 1.876516,0.84219056 1.876516,1.87331346 v 6.4333108 c 0,1.031123 -0.842191,1.8733139 -1.876516,1.8733139 h -6.433311 c -1.031123,0 -1.876515,-0.8421909 -1.876515,-1.8733139 V 2.1971173 c 0,-1.0311229 0.845392,-1.87331346 1.876515,-1.87331346 z m -14.499766,0 h 6.43331 c 1.031123,0 1.876516,0.84219056 1.876516,1.87331346 v 6.4333108 c 0,1.031123 -0.84219,1.8733139 -1.876516,1.8733139 h -6.43331 c -1.031123,0 -1.873314,-0.8421909 -1.873314,-1.8733139 V 2.1971173 c -0.0032,-1.0311229 0.842191,-1.87331346 1.873314,-1.87331346 z"
     id="path54"
     style="stroke-width:0.320225;fill:#00456a;fill-opacity:1" /></svg>
