<?xml version="1.0" encoding="UTF-8" standalone="no"?>
<svg
   width="20"
   height="20"
   viewBox="0 0 5.2916665 5.291667"
   version="1.1"
   id="svg4061"
   inkscape:version="1.1.1 (3bf5ae0d25, 2021-09-20)"
   sodipodi:docname="point.svg"
   xmlns:inkscape="http://www.inkscape.org/namespaces/inkscape"
   xmlns:sodipodi="http://sodipodi.sourceforge.net/DTD/sodipodi-0.dtd"
   xmlns="http://www.w3.org/2000/svg"
   xmlns:svg="http://www.w3.org/2000/svg"
   xmlns:rdf="http://www.w3.org/1999/02/22-rdf-syntax-ns#"
   xmlns:cc="http://creativecommons.org/ns#"
   xmlns:dc="http://purl.org/dc/elements/1.1/">
  <defs
     id="defs4055" />
  <g
     inkscape:label="Calque 1"
     inkscape:groupmode="layer"
     id="layer1">
    <g
       id="g1006"
       transform="matrix(0.79096793,0,0,0.79096793,-0.38120659,-1.4649607)">
      <path
         id="Tracé_140"
         data-name="Tracé 140"
         d="M 3.826101,8.4425483 A 0.18864791,0.18864791 0 0 1 3.6789927,8.37164 L 1.8909386,6.1367046 v 0 L 1.7967469,6.018965 a 0.12673542,0.12673542 0 0 1 -0.00979,-0.013494 2.4889354,2.4889354 0 0 1 -0.3384021,-0.6223 2.54,2.54 0 1 1 4.4185416,0.6217708 c -0.00317,0.00476 -0.00714,0.010054 -0.010319,0.014023 v 0 L 3.9740031,8.3721692 A 0.18864791,0.18864791 0 0 1 3.826101,8.4425483 Z M 2.1907115,5.90784 3.826101,7.9520108 5.4665177,5.9030775 5.4704877,5.8977875 5.5583297,5.78825 5.5617697,5.78349 A 2.1515916,2.1515916 0 0 0 5.988276,4.4944359 2.1611166,2.1611166 0 1 0 1.8023031,5.250615 2.1277791,2.1277791 0 0 0 2.0909636,5.7811046 l 0.093133,0.1166813 z"
         style="stroke-width:0.264583" />
      <path
         id="Tracé_141"
         data-name="Tracé 141"
         d="M 3.826101,5.7059629 A 1.2041187,1.2041187 0 1 1 5.0304843,4.5015796 1.2057062,1.2057062 0 0 1 3.826101,5.7059629 Z m 0,-2.0312062 A 0.82682291,0.82682291 0 1 0 4.6531885,4.5015796 0.82788124,0.82788124 0 0 0 3.826101,3.6747567 Z"
         style="stroke-width:0.264583" />
    </g>
  </g>
</svg>
