<?xml version="1.0" encoding="UTF-8" standalone="no"?>
<svg
   width="20"
   height="20"
   viewBox="0 0 5.2916667 5.2916668"
   version="1.1"
   id="svg5932"
   inkscape:version="1.1.1 (3bf5ae0d25, 2021-09-20)"
   sodipodi:docname="selection.svg"
   xmlns:inkscape="http://www.inkscape.org/namespaces/inkscape"
   xmlns:sodipodi="http://sodipodi.sourceforge.net/DTD/sodipodi-0.dtd"
   xmlns="http://www.w3.org/2000/svg"
   xmlns:svg="http://www.w3.org/2000/svg"
   xmlns:rdf="http://www.w3.org/1999/02/22-rdf-syntax-ns#"
   xmlns:cc="http://creativecommons.org/ns#"
   xmlns:dc="http://purl.org/dc/elements/1.1/">
  <defs
     id="defs5926" />
  <g
     inkscape:label="Calque 1"
     inkscape:groupmode="layer"
     id="layer1">
    <path
       id="Tracé_154"
       data-name="Tracé 154"
       d="M 4.4324413,5.174077 H 3.8275108 a 0.21036011,0.21036011 0 0 1 0,-0.4204296 h 0.6049305 a 0.21036011,0.21036011 0 0 1 0,0.4204296 z m -1.8145012,0 H 2.0130098 a 0.21036011,0.21036011 0 1 1 0,-0.4204296 h 0.6046398 a 0.21036011,0.21036011 0 0 1 0,0.4204296 z m -1.81479165,0 H 0.60528207 A 0.53810346,0.53810346 0 0 1 0.10262611,4.8059469 0.21036011,0.21036011 0 0 1 0.49806826,4.6624138 0.12464707,0.12464707 0 0 0 0.60528219,4.753647 h 0.19786637 a 0.21036011,0.21036011 0 1 1 -1.1e-7,0.42043 z M 5.0138372,4.3971392 A 0.21036011,0.21036011 0 0 1 4.8037675,4.1867792 V 3.5818486 a 0.21021485,0.21021485 0 0 1 0.4204297,0 v 0.6049306 a 0.21036011,0.21036011 0 0 1 -0.21036,0.2106506 z M 0.27782932,3.7375848 A 0.21036011,0.21036011 0 0 1 0.0674693,3.5272246 V 2.9222941 a 0.21021483,0.21021483 0 0 1 0.42042955,0 V 3.5272246 A 0.21006954,0.21006954 0 0 1 0.27637654,3.7375848 Z M 5.0138372,2.5823476 A 0.21006954,0.21006954 0 0 1 4.8037675,2.372278 V 1.7673474 a 0.21021485,0.21021485 0 1 1 0.4204297,0 V 2.372278 a 0.21036011,0.21036011 0 0 1 -0.21036,0.2100696 z M 0.27782932,1.9227931 A 0.21006954,0.21006954 0 0 1 0.0674693,1.7127236 V 1.1077931 a 0.21021483,0.21021483 0 0 1 0.42042955,0 V 1.7127236 A 0.21006954,0.21006954 0 0 1 0.27637654,1.9227931 Z M 4.9920457,0.77046141 A 0.209779,0.209779 0 0 1 4.7941794,0.63099611 0.12522819,0.12522819 0 0 0 4.6863847,0.53889078 H 4.4905518 a 0.21036011,0.21036011 0 0 1 0,-0.42042955 H 4.6863843 A 0.54478617,0.54478617 0 0 1 5.1902026,0.48949706 0.21036011,0.21036011 0 0 1 5.06265,0.75825814 0.20658292,0.20658292 0 0 1 4.9905935,0.77046085 Z M 3.2806907,0.5380192 H 2.6757601 a 0.21036011,0.21036011 0 1 1 0,-0.42042944 h 0.60464 a 0.21036011,0.21036011 0 1 1 0,0.42042944 z m -1.8145011,0 H 0.85602915 a 0.21036011,0.21036011 0 0 1 0,-0.42042944 H 1.4609596 a 0.21210341,0.21210341 0 0 1 0.212394,0.21036002 0.20861678,0.20861678 0 0 1 -0.2086167,0.21094111 z"
       style="stroke-width:0.290552" />
  </g>
</svg>
