<?xml version="1.0" encoding="UTF-8" standalone="no"?>
<!-- Created with Inkscape (http://www.inkscape.org/) -->

<svg
   width="75"
   height="50"
   viewBox="0 0 19.843749 13.229167"
   version="1.1"
   id="svg5"
   sodipodi:docname="offline.svg"
   inkscape:version="1.1.2 (0a00cf5339, 2022-02-04, custom)"
   inkscape:export-filename="/home/remo/projects/abcmap/abc-map_private/packages/frontend/src/components/offline-indicator/offline.png"
   inkscape:export-xdpi="64"
   inkscape:export-ydpi="64"
   xmlns:inkscape="http://www.inkscape.org/namespaces/inkscape"
   xmlns:sodipodi="http://sodipodi.sourceforge.net/DTD/sodipodi-0.dtd"
   xmlns="http://www.w3.org/2000/svg"
   xmlns:svg="http://www.w3.org/2000/svg">
  <sodipodi:namedview
     id="namedview9"
     pagecolor="#ffffff"
     bordercolor="#666666"
     borderopacity="1.0"
     inkscape:pageshadow="2"
     inkscape:pageopacity="1"
     inkscape:pagecheckerboard="0"
     showgrid="false"
     inkscape:zoom="2.5964286"
     inkscape:cx="20.990371"
     inkscape:cy="40.825309"
     inkscape:window-width="1920"
     inkscape:window-height="1015"
     inkscape:window-x="0"
     inkscape:window-y="0"
     inkscape:window-maximized="1"
     inkscape:current-layer="svg5" />
  <defs
     id="defs2" />
  <g
     id="g831"
     transform="matrix(1.0647965,0,0,1.0647965,2.7505243,1.6843532)">
    <path
       style="fill:#424242;fill-opacity:1;stroke-width:0.0345116"
       d="M 6.1253049,10.680746 C 5.6764265,10.560037 5.2979112,10.241622 5.0947497,9.8138194 4.8798877,9.3613813 4.9003558,8.7799213 5.1460644,8.3562311 5.4382757,7.8523404 5.9482265,7.5602835 6.535839,7.5602835 c 0.6482809,0 1.1576238,0.3265047 1.4436183,0.9254053 0.1232616,0.2581217 0.1266641,0.2759618 0.1266641,0.6639236 0,0.3927331 -0.00205,0.4026693 -0.1324124,0.6665944 C 7.6238877,10.524023 6.8640642,10.87941 6.1253092,10.680746 Z M 2.3912267,7.2384012 C 2.1789236,7.1263169 2.0419496,6.9209064 2.0224121,6.6853113 1.9930463,6.3312027 2.1147205,6.1459428 2.6764267,5.6895101 3.3866589,5.1123872 4.2911718,4.6633785 5.1305095,4.4712813 c 0.9172843,-0.2099358 1.9640443,-0.2031096 2.8720726,0.01873 0.1708337,0.041732 0.3141204,0.07886 0.3184161,0.082502 0.00422,0.00361 -0.024349,0.09111 -0.063664,0.1943766 C 8.1521723,5.0431306 8.0559512,5.5115237 8.0550986,5.7512929 8.0546873,5.8667666 8.0458068,5.9697365 8.0354772,5.9801213 8.0251113,5.9904872 7.921463,5.9693928 7.8051823,5.9332088 7.2972183,5.7751121 6.4340383,5.7156233 5.8801209,5.8005355 4.9159287,5.948341 4.1503477,6.3105441 3.394306,6.9765927 3.251409,7.1024735 3.085229,7.230947 3.0250166,7.2620856 2.8623016,7.3462272 2.5751554,7.3354939 2.3912349,7.2384 Z M 0.45456922,5.2483965 C 0.04017973,5.1234824 -0.16436626,4.5834621 0.05859949,4.2030012 0.14443696,4.0565306 0.69213532,3.5505649 1.1025343,3.2386114 2.305576,2.3241504 3.7539115,1.7190897 5.2589012,1.5022343 5.8737026,1.4136462 6.9006277,1.3975308 7.5021634,1.4670292 8.5473207,1.587782 9.5188802,1.8608045 10.391918,2.2790947 L 10.72901,2.440601 10.539195,2.5031494 C 10.163625,2.6269007 9.6973335,2.8929398 9.3717584,3.1692212 L 9.1879061,3.3252376 8.8368269,3.2167545 C 7.9381524,2.9390666 7.3081879,2.8530073 6.3460194,2.8764886 5.1576623,2.9054947 4.2633894,3.1197157 3.2387557,3.6208486 2.509547,3.9774943 1.9607787,4.3523383 1.4143634,4.8670289 1.2497714,5.022065 1.0496386,5.1786312 0.96962385,5.2149555 0.81835886,5.2836269 0.61518205,5.29682 0.45456922,5.2484076 Z M -1.5401338,3.2158398 c -0.2638721,-0.085664 -0.4327658,-0.2450166 -0.5126869,-0.4837214 -0.1297364,-0.3874879 0.018102,-0.6281557 0.8062591,-1.312504 1.78547208,-1.5503088 3.894802,-2.4932353 6.2983915,-2.8155479 0.5700461,-0.076442 1.7416545,-0.1032965 2.3749318,-0.054436 2.5661261,0.1979858 4.9325973,1.18143389 6.8764733,2.8576964 0.858244,0.7400876 0.989649,0.985049 0.765624,1.4272524 C 14.965778,3.038055 14.821924,3.1551646 14.602481,3.2142549 14.305642,3.2941891 14.143296,3.2089779 13.51949,2.6459583 12.817037,2.0119395 12.054702,1.4898175 11.229429,1.0774999 10.440355,0.68326777 9.9555988,0.49905908 9.1759825,0.29718539 8.1762475,0.0383144 7.3727396,-0.04899403 6.2424844,-0.02156588 5.4277064,-0.00179453 5.0597954,0.03987949 4.3111743,0.19719296 2.502431,0.57727788 0.73745849,1.5093995 -0.62725448,2.8052873 -0.79704033,2.9665102 -0.98616154,3.1241922 -1.0475243,3.1556907 c -0.1349722,0.069284 -0.3744131,0.098522 -0.4926095,0.060141 z"
       id="path836" />
    <circle
       style="fill:#ffffff;fill-opacity:1;stroke-width:3.96844;stroke-linejoin:round"
       id="circle944"
       cx="11.174335"
       cy="4.3661652"
       r="4.6113052" />
    <circle
       style="fill:#ffde17;fill-opacity:1;stroke-width:3.47407;stroke-linejoin:round"
       id="path2241"
       cx="11.174335"
       cy="4.3661652"
       r="4.0368505" />
    <text
       xml:space="preserve"
       style="font-style:normal;font-weight:normal;font-size:6.51933px;line-height:1.25;font-family:sans-serif;fill:#424242;fill-opacity:1;stroke:none;stroke-width:0.162984"
       x="10.24533"
       y="6.6511917"
       id="text3723"><tspan
         id="tspan3721"
         style="font-weight:bold;fill:#424242;fill-opacity:1;stroke-width:0.162984"
         x="10.24533"
         y="6.6511917">!</tspan></text>
  </g>
</svg>
