<?xml version="1.0" encoding="UTF-8" standalone="no"?>
<!-- Created with Inkscape (http://www.inkscape.org/) -->

<svg
   xmlns:dc="http://purl.org/dc/elements/1.1/"
   xmlns:cc="http://creativecommons.org/ns#"
   xmlns:rdf="http://www.w3.org/1999/02/22-rdf-syntax-ns#"
   xmlns:svg="http://www.w3.org/2000/svg"
   xmlns="http://www.w3.org/2000/svg"
   xmlns:sodipodi="http://sodipodi.sourceforge.net/DTD/sodipodi-0.dtd"
   xmlns:inkscape="http://www.inkscape.org/namespaces/inkscape"
   width="1052.3622"
   height="744.09448"
   id="svg2"
   version="1.1"
   inkscape:version="0.48.0 r9654"
   sodipodi:docname="us-uk.svg">
  <defs
     id="defs4">
    <inkscape:perspective
       sodipodi:type="inkscape:persp3d"
       inkscape:vp_x="0 : 372.04724 : 1"
       inkscape:vp_y="0 : 1000 : 0"
       inkscape:vp_z="1052.3622 : 372.04724 : 1"
       inkscape:persp3d-origin="526.18109 : 248.03149 : 1"
       id="perspective3757" />
  </defs>
  <sodipodi:namedview
     id="base"
     pagecolor="#ffffff"
     bordercolor="#666666"
     borderopacity="1.0"
     inkscape:pageopacity="0.0"
     inkscape:pageshadow="2"
     inkscape:zoom="0.65314286"
     inkscape:cx="526.18109"
     inkscape:cy="372.04724"
     inkscape:document-units="px"
     inkscape:current-layer="layer1"
     showgrid="false"
     inkscape:window-width="1024"
     inkscape:window-height="708"
     inkscape:window-x="-4"
     inkscape:window-y="-4"
     inkscape:window-maximized="1"
     inkscape:snap-bbox="true"
     showguides="true"
     inkscape:guide-bbox="true">
    <sodipodi:guide
       orientation="1,0"
       position="1232.806,465.86756"
       id="guide3876" />
    <sodipodi:guide
       orientation="0,1"
       position="99.518809,664.47943"
       id="guide4011" />
  </sodipodi:namedview>
  <metadata
     id="metadata7">
    <rdf:RDF>
      <cc:Work
         rdf:about="">
        <dc:format>image/svg+xml</dc:format>
        <dc:type
           rdf:resource="http://purl.org/dc/dcmitype/StillImage" />
        <dc:title />
      </cc:Work>
    </rdf:RDF>
  </metadata>
  <g
     inkscape:label="Ebene 1"
     inkscape:groupmode="layer"
     id="layer1"
     transform="translate(0,-308.2677)">
    <path
       style="fill:#000080;fill-opacity:1;stroke:none"
       d="m 965.12118,1054.3739 c -128.29966,0 -260.77172,-0.015 -389.07138,-0.015 -0.015,-0.6204 -0.0379,-267.99072 -0.0324,-271.21645 16.63795,11.84076 374.67628,261.13145 389.10378,271.23165 z"
       id="path3078"
       inkscape:connector-curvature="0"
       sodipodi:nodetypes="cccc" />
    <path
       style="fill:#ff0000;fill-opacity:1;stroke:none"
       d="m 1052.3559,310.29112 c 0.062,28.11156 0.044,7.19173 0.033,31.07717 -150.13297,105.7625 -297.64031,210.84134 -447.14993,315.91227 149.25152,0.25857 297.89803,-0.23011 447.14963,0.0285 0,16.32447 0.01,33.66574 0.01,49.99021 -148.60958,0.2586 -297.64046,-0.24451 -446.25005,0.014 148.60958,102.0409 297.63695,204.36429 446.24655,306.40513 0,13.0437 0,27.5929 0,40.6366 -14.0679,0 -29.5309,0.018 -43.5988,0.018 C 852.97314,944.10237 708.31344,839.13743 551.18355,730.88475 c -1.10749,113.76787 -2.8e-4,200.91007 -2.8e-4,323.48125 -16.32663,0 -33.7923,-0.01 -50.11893,-0.01 -0.25983,-107.73747 0.21812,-215.71514 -0.0417,-323.45258 L 43.330235,1054.2584 0.16133764,1054.3026 C 125.54702,964.99791 794.0271,493.62505 1052.3559,310.29112 z"
       id="path3084"
       inkscape:connector-curvature="0"
       sodipodi:nodetypes="cccccccccccccccc" />
    <path
       style="fill:#000080;fill-opacity:1;stroke:none"
       d="m 86.478814,1054.3283 c 2.948837,-2.0944 385.644536,-272.2319 389.578376,-275.00522 0.22971,95.43294 0.0164,172.21773 0.0164,275.03802 -159.59459,0.4329 -259.8344,-0.1302 -389.594766,-0.033 z"
       id="path3076"
       inkscape:connector-curvature="0"
       sodipodi:nodetypes="cccc" />
    <path
       style="fill:#000080;fill-opacity:1;stroke:none"
       d="m 684.207,732.29932 c 205.16237,0.0497 198.28231,-0.36419 368.1849,0.0166 0.5222,83.4598 0.305,151.00283 0.01,240.82315 C 931.81208,894.26479 804.79356,811.1736 684.207,732.29932 z"
       id="path3080"
       inkscape:connector-curvature="0"
       sodipodi:nodetypes="cccc" />
    <path
       style="fill:#000080;fill-opacity:1;stroke:none"
       d="m 1052.3982,372.30937 c 0,85.82425 -0.01,174.15401 -0.01,259.97826 -121.58639,0 -246.59463,0.008 -368.181,0.008 369.8752,-259.68013 1.10465,-1.05841 368.1879,-259.98607 z"
       id="path3082"
       inkscape:connector-curvature="0"
       sodipodi:nodetypes="cccc" />
    <rect
       style="fill:#000080;fill-opacity:1;stroke:none"
       id="rect3086"
       width="532.26019"
       height="367.72232"
       x="-0.0744102"
       y="310.27161" />
    <path
       style="fill:#ff0000;fill-opacity:1;stroke:none"
       d="m 532.09267,310.27704 c 172.23125,-0.0998 347.61127,-0.0364 520.25803,-0.0364 -20.8479,14.79203 -53.80276,38.03451 -74.65071,52.82657 -151.80226,-0.5085 -293.81011,-0.8675 -445.60852,0.004 -0.008,-15.3691 0.004,-37.42649 -0.0107,-52.80207 z"
       id="path3858"
       inkscape:connector-curvature="0"
       sodipodi:nodetypes="cccccc" />
    <path
       sodipodi:nodetypes="ccccc"
       inkscape:connector-curvature="0"
       id="path3866"
       d="m 532.00081,415.68985 c 172.23126,-0.0998 198.53753,-0.007 371.27027,-0.0338 -20.8479,14.79204 -53.8169,38.00206 -74.66485,52.79412 -151.80225,-0.5085 -144.67589,-1.02653 -296.4743,-0.15522 -0.12248,-1.85898 0.0201,-45.99603 -0.13112,-52.60509 z"
       style="fill:#ff0000;fill-opacity:1;stroke:none" />
    <path
       style="fill:#ff0000;fill-opacity:1;stroke:none"
       d="m 606.28673,625.6836 c -4.57475,3.33888 -64.54303,45.67053 -74.02582,52.31538 0.0622,-5.6704 0.0195,-48.39939 9.1e-4,-52.33551 24.58089,-0.0765 49.36826,0.29522 74.02491,0.0201 z"
       id="path3872"
       inkscape:connector-curvature="0"
       sodipodi:nodetypes="cccc" />
    <path
       sodipodi:nodetypes="ccccc"
       inkscape:connector-curvature="0"
       id="path3874"
       d="m 532.17849,519.39634 c 172.23126,-0.0998 52.11125,-0.18958 224.84399,-0.21638 -20.8479,14.79204 -55.12565,38.78731 -75.9736,53.57937 -5.71453,0.35592 -148.87039,0.33663 -148.87039,0.33663 0.30973,-6.1811 0.15122,-47.09055 0,-53.69962 z"
       style="fill:#ff0000;fill-opacity:1;stroke:none" />
    <path
       style="fill:#ff0000;fill-opacity:1;stroke:none"
       d="M -7.7918997e-4,738.94101 C 6.6481441,738.93685 273.71627,738.75031 446.36303,738.75031 c -20.8479,14.79204 -53.80276,38.03452 -74.65071,52.82658 -151.80226,-0.5085 -367.4926187,-0.002 -371.70409854,-0.002 0.01320756,-2.33054 -0.0109181,-47.28977 -0.00900065,-52.63349 z"
       id="path3880"
       inkscape:connector-curvature="0"
       sodipodi:nodetypes="ccccc" />
    <path
       sodipodi:nodetypes="ccccc"
       inkscape:connector-curvature="0"
       id="path3884"
       d="m 0.02246377,843.85768 c 6.69399953,0.33242 245.72678623,0.0153 297.87232623,-0.0115 -20.8479,14.79204 -53.81689,38.00206 -74.66485,52.79412 -4.85062,-0.0738 -217.8182286,0.0146 -223.20173557,-10e-4 -0.01776959,-5.31668 0.14547929,-46.17229 -0.0057407,-52.78136 z"
       style="fill:#ff0000;fill-opacity:1;stroke:none" />
    <path
       style="fill:#ff0000;fill-opacity:1;stroke:none"
       d="M 0.17967886,948.15984 C 172.41093,948.06004 145.99774,947.97026 150.42467,947.94346 c -3.57234,2.7515 -55.12565,38.78724 -75.973595,53.57934 -5.71453,0.3559 -74.44323904,0.2427 -74.44323904,0.2427 0.30973,-6.181 0.3230629,-46.99659 0.1718429,-53.60566 z"
       id="path3886"
       inkscape:connector-curvature="0"
       sodipodi:nodetypes="ccccc" />
    <path
       sodipodi:type="star"
       style="fill:#ffffff;fill-opacity:1;stroke:none"
       id="path3941"
       sodipodi:sides="5"
       sodipodi:cx="27.566893"
       sodipodi:cy="27.355291"
       sodipodi:r1="26.34882"
       sodipodi:r2="9.8434143"
       sodipodi:arg1="0.95054684"
       sodipodi:arg2="1.6215758"
       inkscape:flatsided="false"
       inkscape:rounded="0"
       inkscape:randomized="0"
       d="M 42.881833,48.796208 27.067264,37.186018 11.907946,48.546273 18.062923,29.917978 2.574191,19.011122 22.192745,19.108393 27.7795,1.0073294 33.749457,19.695741 52.690993,19.415525 36.762075,30.868328 z"
       transform="translate(0,312.2677)"
       inkscape:transform-center-x="-0.065699328"
       inkscape:transform-center-y="-2.4535226" />
    <path
       inkscape:transform-center-y="-2.4535226"
       inkscape:transform-center-x="-0.065699328"
       transform="translate(0,620.2677)"
       d="M 42.881833,48.796208 27.067264,37.186018 11.907946,48.546273 18.062923,29.917978 2.574191,19.011122 22.192745,19.108393 27.7795,1.0073294 33.749457,19.695741 52.690993,19.415525 36.762075,30.868328 z"
       inkscape:randomized="0"
       inkscape:rounded="0"
       inkscape:flatsided="false"
       sodipodi:arg2="1.6215758"
       sodipodi:arg1="0.95054684"
       sodipodi:r2="9.8434143"
       sodipodi:r1="26.34882"
       sodipodi:cy="27.355291"
       sodipodi:cx="27.566893"
       sodipodi:sides="5"
       id="path3943"
       style="fill:#ffffff;fill-opacity:1;stroke:none"
       sodipodi:type="star" />
    <path
       sodipodi:type="star"
       style="fill:#ffffff;fill-opacity:1;stroke:none"
       id="path3945"
       sodipodi:sides="5"
       sodipodi:cx="27.566893"
       sodipodi:cy="27.355291"
       sodipodi:r1="26.34882"
       sodipodi:r2="9.8434143"
       sodipodi:arg1="0.95054684"
       sodipodi:arg2="1.6215758"
       inkscape:flatsided="false"
       inkscape:rounded="0"
       inkscape:randomized="0"
       d="M 42.881833,48.796208 27.067264,37.186018 11.907946,48.546273 18.062923,29.917978 2.574191,19.011122 22.192745,19.108393 27.7795,1.0073294 33.749457,19.695741 52.690993,19.415525 36.762075,30.868328 z"
       transform="translate(0,458.2677)"
       inkscape:transform-center-x="-0.065699328"
       inkscape:transform-center-y="-2.4535226" />
    <path
       inkscape:transform-center-y="-2.4535226"
       inkscape:transform-center-x="-0.065699328"
       transform="translate(0,384.2677)"
       d="M 42.881833,48.796208 27.067264,37.186018 11.907946,48.546273 18.062923,29.917978 2.574191,19.011122 22.192745,19.108393 27.7795,1.0073294 33.749457,19.695741 52.690993,19.415525 36.762075,30.868328 z"
       inkscape:randomized="0"
       inkscape:rounded="0"
       inkscape:flatsided="false"
       sodipodi:arg2="1.6215758"
       sodipodi:arg1="0.95054684"
       sodipodi:r2="9.8434143"
       sodipodi:r1="26.34882"
       sodipodi:cy="27.355291"
       sodipodi:cx="27.566893"
       sodipodi:sides="5"
       id="path3947"
       style="fill:#ffffff;fill-opacity:1;stroke:none"
       sodipodi:type="star" />
    <path
       sodipodi:type="star"
       style="fill:#ffffff;fill-opacity:1;stroke:none"
       id="path3949"
       sodipodi:sides="5"
       sodipodi:cx="27.566893"
       sodipodi:cy="27.355291"
       sodipodi:r1="26.34882"
       sodipodi:r2="9.8434143"
       sodipodi:arg1="0.95054684"
       sodipodi:arg2="1.6215758"
       inkscape:flatsided="false"
       inkscape:rounded="0"
       inkscape:randomized="0"
       d="M 42.881833,48.796208 27.067264,37.186018 11.907946,48.546273 18.062923,29.917978 2.574191,19.011122 22.192745,19.108393 27.7795,1.0073294 33.749457,19.695741 52.690993,19.415525 36.762075,30.868328 z"
       transform="translate(0,536.2677)"
       inkscape:transform-center-x="-0.065699328"
       inkscape:transform-center-y="-2.4535226" />
    <path
       inkscape:transform-center-y="-2.4535226"
       inkscape:transform-center-x="-0.065699328"
       transform="translate(476,312.2677)"
       d="M 42.881833,48.796208 27.067264,37.186018 11.907946,48.546273 18.062923,29.917978 2.574191,19.011122 22.192745,19.108393 27.7795,1.0073294 33.749457,19.695741 52.690993,19.415525 36.762075,30.868328 z"
       inkscape:randomized="0"
       inkscape:rounded="0"
       inkscape:flatsided="false"
       sodipodi:arg2="1.6215758"
       sodipodi:arg1="0.95054684"
       sodipodi:r2="9.8434143"
       sodipodi:r1="26.34882"
       sodipodi:cy="27.355291"
       sodipodi:cx="27.566893"
       sodipodi:sides="5"
       id="path3951"
       style="fill:#ffffff;fill-opacity:1;stroke:none"
       sodipodi:type="star" />
    <path
       sodipodi:type="star"
       style="fill:#ffffff;fill-opacity:1;stroke:none"
       id="path3953"
       sodipodi:sides="5"
       sodipodi:cx="27.566893"
       sodipodi:cy="27.355291"
       sodipodi:r1="26.34882"
       sodipodi:r2="9.8434143"
       sodipodi:arg1="0.95054684"
       sodipodi:arg2="1.6215758"
       inkscape:flatsided="false"
       inkscape:rounded="0"
       inkscape:randomized="0"
       d="M 42.881833,48.796208 27.067264,37.186018 11.907946,48.546273 18.062923,29.917978 2.574191,19.011122 22.192745,19.108393 27.7795,1.0073294 33.749457,19.695741 52.690993,19.415525 36.762075,30.868328 z"
       transform="translate(476,620.2677)"
       inkscape:transform-center-x="-0.065699328"
       inkscape:transform-center-y="-2.4535226" />
    <path
       inkscape:transform-center-y="-2.4535226"
       inkscape:transform-center-x="-0.065699328"
       transform="translate(476,458.2677)"
       d="M 42.881833,48.796208 27.067264,37.186018 11.907946,48.546273 18.062923,29.917978 2.574191,19.011122 22.192745,19.108393 27.7795,1.0073294 33.749457,19.695741 52.690993,19.415525 36.762075,30.868328 z"
       inkscape:randomized="0"
       inkscape:rounded="0"
       inkscape:flatsided="false"
       sodipodi:arg2="1.6215758"
       sodipodi:arg1="0.95054684"
       sodipodi:r2="9.8434143"
       sodipodi:r1="26.34882"
       sodipodi:cy="27.355291"
       sodipodi:cx="27.566893"
       sodipodi:sides="5"
       id="path3955"
       style="fill:#ffffff;fill-opacity:1;stroke:none"
       sodipodi:type="star" />
    <path
       sodipodi:type="star"
       style="fill:#ffffff;fill-opacity:1;stroke:none"
       id="path3957"
       sodipodi:sides="5"
       sodipodi:cx="27.566893"
       sodipodi:cy="27.355291"
       sodipodi:r1="26.34882"
       sodipodi:r2="9.8434143"
       sodipodi:arg1="0.95054684"
       sodipodi:arg2="1.6215758"
       inkscape:flatsided="false"
       inkscape:rounded="0"
       inkscape:randomized="0"
       d="M 42.881833,48.796208 27.067264,37.186018 11.907946,48.546273 18.062923,29.917978 2.574191,19.011122 22.192745,19.108393 27.7795,1.0073294 33.749457,19.695741 52.690993,19.415525 36.762075,30.868328 z"
       transform="translate(476,384.2677)"
       inkscape:transform-center-x="-0.065699328"
       inkscape:transform-center-y="-2.4535226" />
    <path
       inkscape:transform-center-y="-2.4535226"
       inkscape:transform-center-x="-0.065699328"
       transform="translate(476,536.2677)"
       d="M 42.881833,48.796208 27.067264,37.186018 11.907946,48.546273 18.062923,29.917978 2.574191,19.011122 22.192745,19.108393 27.7795,1.0073294 33.749457,19.695741 52.690993,19.415525 36.762075,30.868328 z"
       inkscape:randomized="0"
       inkscape:rounded="0"
       inkscape:flatsided="false"
       sodipodi:arg2="1.6215758"
       sodipodi:arg1="0.95054684"
       sodipodi:r2="9.8434143"
       sodipodi:r1="26.34882"
       sodipodi:cy="27.355291"
       sodipodi:cx="27.566893"
       sodipodi:sides="5"
       id="path3959"
       style="fill:#ffffff;fill-opacity:1;stroke:none"
       sodipodi:type="star" />
    <path
       sodipodi:type="star"
       style="fill:#ffffff;fill-opacity:1;stroke:none"
       id="path3961"
       sodipodi:sides="5"
       sodipodi:cx="27.566893"
       sodipodi:cy="27.355291"
       sodipodi:r1="26.34882"
       sodipodi:r2="9.8434143"
       sodipodi:arg1="0.95054684"
       sodipodi:arg2="1.6215758"
       inkscape:flatsided="false"
       inkscape:rounded="0"
       inkscape:randomized="0"
       d="M 42.881833,48.796208 27.067264,37.186018 11.907946,48.546273 18.062923,29.917978 2.574191,19.011122 22.192745,19.108393 27.7795,1.0073294 33.749457,19.695741 52.690993,19.415525 36.762075,30.868328 z"
       transform="translate(190,312.2677)"
       inkscape:transform-center-x="-0.065699328"
       inkscape:transform-center-y="-2.4535226" />
    <path
       inkscape:transform-center-y="-2.4535226"
       inkscape:transform-center-x="-0.065699328"
       transform="translate(190,620.2677)"
       d="M 42.881833,48.796208 27.067264,37.186018 11.907946,48.546273 18.062923,29.917978 2.574191,19.011122 22.192745,19.108393 27.7795,1.0073294 33.749457,19.695741 52.690993,19.415525 36.762075,30.868328 z"
       inkscape:randomized="0"
       inkscape:rounded="0"
       inkscape:flatsided="false"
       sodipodi:arg2="1.6215758"
       sodipodi:arg1="0.95054684"
       sodipodi:r2="9.8434143"
       sodipodi:r1="26.34882"
       sodipodi:cy="27.355291"
       sodipodi:cx="27.566893"
       sodipodi:sides="5"
       id="path3963"
       style="fill:#ffffff;fill-opacity:1;stroke:none"
       sodipodi:type="star" />
    <path
       sodipodi:type="star"
       style="fill:#ffffff;fill-opacity:1;stroke:none"
       id="path3965"
       sodipodi:sides="5"
       sodipodi:cx="27.566893"
       sodipodi:cy="27.355291"
       sodipodi:r1="26.34882"
       sodipodi:r2="9.8434143"
       sodipodi:arg1="0.95054684"
       sodipodi:arg2="1.6215758"
       inkscape:flatsided="false"
       inkscape:rounded="0"
       inkscape:randomized="0"
       d="M 42.881833,48.796208 27.067264,37.186018 11.907946,48.546273 18.062923,29.917978 2.574191,19.011122 22.192745,19.108393 27.7795,1.0073294 33.749457,19.695741 52.690993,19.415525 36.762075,30.868328 z"
       transform="translate(190,458.2677)"
       inkscape:transform-center-x="-0.065699328"
       inkscape:transform-center-y="-2.4535226" />
    <path
       inkscape:transform-center-y="-2.4535226"
       inkscape:transform-center-x="-0.065699328"
       transform="translate(190,384.2677)"
       d="M 42.881833,48.796208 27.067264,37.186018 11.907946,48.546273 18.062923,29.917978 2.574191,19.011122 22.192745,19.108393 27.7795,1.0073294 33.749457,19.695741 52.690993,19.415525 36.762075,30.868328 z"
       inkscape:randomized="0"
       inkscape:rounded="0"
       inkscape:flatsided="false"
       sodipodi:arg2="1.6215758"
       sodipodi:arg1="0.95054684"
       sodipodi:r2="9.8434143"
       sodipodi:r1="26.34882"
       sodipodi:cy="27.355291"
       sodipodi:cx="27.566893"
       sodipodi:sides="5"
       id="path3967"
       style="fill:#ffffff;fill-opacity:1;stroke:none"
       sodipodi:type="star" />
    <path
       sodipodi:type="star"
       style="fill:#ffffff;fill-opacity:1;stroke:none"
       id="path3969"
       sodipodi:sides="5"
       sodipodi:cx="27.566893"
       sodipodi:cy="27.355291"
       sodipodi:r1="26.34882"
       sodipodi:r2="9.8434143"
       sodipodi:arg1="0.95054684"
       sodipodi:arg2="1.6215758"
       inkscape:flatsided="false"
       inkscape:rounded="0"
       inkscape:randomized="0"
       d="M 42.881833,48.796208 27.067264,37.186018 11.907946,48.546273 18.062923,29.917978 2.574191,19.011122 22.192745,19.108393 27.7795,1.0073294 33.749457,19.695741 52.690993,19.415525 36.762075,30.868328 z"
       transform="translate(190,536.2677)"
       inkscape:transform-center-x="-0.065699328"
       inkscape:transform-center-y="-2.4535226" />
    <path
       inkscape:transform-center-y="-2.4535226"
       inkscape:transform-center-x="-0.065699328"
       transform="translate(288,312.2677)"
       d="M 42.881833,48.796208 27.067264,37.186018 11.907946,48.546273 18.062923,29.917978 2.574191,19.011122 22.192745,19.108393 27.7795,1.0073294 33.749457,19.695741 52.690993,19.415525 36.762075,30.868328 z"
       inkscape:randomized="0"
       inkscape:rounded="0"
       inkscape:flatsided="false"
       sodipodi:arg2="1.6215758"
       sodipodi:arg1="0.95054684"
       sodipodi:r2="9.8434143"
       sodipodi:r1="26.34882"
       sodipodi:cy="27.355291"
       sodipodi:cx="27.566893"
       sodipodi:sides="5"
       id="path3971"
       style="fill:#ffffff;fill-opacity:1;stroke:none"
       sodipodi:type="star" />
    <path
       sodipodi:type="star"
       style="fill:#ffffff;fill-opacity:1;stroke:none"
       id="path3973"
       sodipodi:sides="5"
       sodipodi:cx="27.566893"
       sodipodi:cy="27.355291"
       sodipodi:r1="26.34882"
       sodipodi:r2="9.8434143"
       sodipodi:arg1="0.95054684"
       sodipodi:arg2="1.6215758"
       inkscape:flatsided="false"
       inkscape:rounded="0"
       inkscape:randomized="0"
       d="M 42.881833,48.796208 27.067264,37.186018 11.907946,48.546273 18.062923,29.917978 2.574191,19.011122 22.192745,19.108393 27.7795,1.0073294 33.749457,19.695741 52.690993,19.415525 36.762075,30.868328 z"
       transform="translate(288,620.2677)"
       inkscape:transform-center-x="-0.065699328"
       inkscape:transform-center-y="-2.4535226" />
    <path
       inkscape:transform-center-y="-2.4535226"
       inkscape:transform-center-x="-0.065699328"
       transform="translate(288,458.2677)"
       d="M 42.881833,48.796208 27.067264,37.186018 11.907946,48.546273 18.062923,29.917978 2.574191,19.011122 22.192745,19.108393 27.7795,1.0073294 33.749457,19.695741 52.690993,19.415525 36.762075,30.868328 z"
       inkscape:randomized="0"
       inkscape:rounded="0"
       inkscape:flatsided="false"
       sodipodi:arg2="1.6215758"
       sodipodi:arg1="0.95054684"
       sodipodi:r2="9.8434143"
       sodipodi:r1="26.34882"
       sodipodi:cy="27.355291"
       sodipodi:cx="27.566893"
       sodipodi:sides="5"
       id="path3975"
       style="fill:#ffffff;fill-opacity:1;stroke:none"
       sodipodi:type="star" />
    <path
       sodipodi:type="star"
       style="fill:#ffffff;fill-opacity:1;stroke:none"
       id="path3977"
       sodipodi:sides="5"
       sodipodi:cx="27.566893"
       sodipodi:cy="27.355291"
       sodipodi:r1="26.34882"
       sodipodi:r2="9.8434143"
       sodipodi:arg1="0.95054684"
       sodipodi:arg2="1.6215758"
       inkscape:flatsided="false"
       inkscape:rounded="0"
       inkscape:randomized="0"
       d="M 42.881833,48.796208 27.067264,37.186018 11.907946,48.546273 18.062923,29.917978 2.574191,19.011122 22.192745,19.108393 27.7795,1.0073294 33.749457,19.695741 52.690993,19.415525 36.762075,30.868328 z"
       transform="translate(288,384.2677)"
       inkscape:transform-center-x="-0.065699328"
       inkscape:transform-center-y="-2.4535226" />
    <path
       inkscape:transform-center-y="-2.4535226"
       inkscape:transform-center-x="-0.065699328"
       transform="translate(288,536.2677)"
       d="M 42.881833,48.796208 27.067264,37.186018 11.907946,48.546273 18.062923,29.917978 2.574191,19.011122 22.192745,19.108393 27.7795,1.0073294 33.749457,19.695741 52.690993,19.415525 36.762075,30.868328 z"
       inkscape:randomized="0"
       inkscape:rounded="0"
       inkscape:flatsided="false"
       sodipodi:arg2="1.6215758"
       sodipodi:arg1="0.95054684"
       sodipodi:r2="9.8434143"
       sodipodi:r1="26.34882"
       sodipodi:cy="27.355291"
       sodipodi:cx="27.566893"
       sodipodi:sides="5"
       id="path3979"
       style="fill:#ffffff;fill-opacity:1;stroke:none"
       sodipodi:type="star" />
    <path
       sodipodi:type="star"
       style="fill:#ffffff;fill-opacity:1;stroke:none"
       id="path3981"
       sodipodi:sides="5"
       sodipodi:cx="27.566893"
       sodipodi:cy="27.355291"
       sodipodi:r1="26.34882"
       sodipodi:r2="9.8434143"
       sodipodi:arg1="0.95054684"
       sodipodi:arg2="1.6215758"
       inkscape:flatsided="false"
       inkscape:rounded="0"
       inkscape:randomized="0"
       d="M 42.881833,48.796208 27.067264,37.186018 11.907946,48.546273 18.062923,29.917978 2.574191,19.011122 22.192745,19.108393 27.7795,1.0073294 33.749457,19.695741 52.690993,19.415525 36.762075,30.868328 z"
       transform="translate(388,312.2677)"
       inkscape:transform-center-x="-0.065699328"
       inkscape:transform-center-y="-2.4535226" />
    <path
       inkscape:transform-center-y="-2.4535226"
       inkscape:transform-center-x="-0.065699328"
       transform="translate(388,620.2677)"
       d="M 42.881833,48.796208 27.067264,37.186018 11.907946,48.546273 18.062923,29.917978 2.574191,19.011122 22.192745,19.108393 27.7795,1.0073294 33.749457,19.695741 52.690993,19.415525 36.762075,30.868328 z"
       inkscape:randomized="0"
       inkscape:rounded="0"
       inkscape:flatsided="false"
       sodipodi:arg2="1.6215758"
       sodipodi:arg1="0.95054684"
       sodipodi:r2="9.8434143"
       sodipodi:r1="26.34882"
       sodipodi:cy="27.355291"
       sodipodi:cx="27.566893"
       sodipodi:sides="5"
       id="path3983"
       style="fill:#ffffff;fill-opacity:1;stroke:none"
       sodipodi:type="star" />
    <path
       sodipodi:type="star"
       style="fill:#ffffff;fill-opacity:1;stroke:none"
       id="path3985"
       sodipodi:sides="5"
       sodipodi:cx="27.566893"
       sodipodi:cy="27.355291"
       sodipodi:r1="26.34882"
       sodipodi:r2="9.8434143"
       sodipodi:arg1="0.95054684"
       sodipodi:arg2="1.6215758"
       inkscape:flatsided="false"
       inkscape:rounded="0"
       inkscape:randomized="0"
       d="M 42.881833,48.796208 27.067264,37.186018 11.907946,48.546273 18.062923,29.917978 2.574191,19.011122 22.192745,19.108393 27.7795,1.0073294 33.749457,19.695741 52.690993,19.415525 36.762075,30.868328 z"
       transform="translate(388,458.2677)"
       inkscape:transform-center-x="-0.065699328"
       inkscape:transform-center-y="-2.4535226" />
    <path
       inkscape:transform-center-y="-2.4535226"
       inkscape:transform-center-x="-0.065699328"
       transform="translate(388,384.2677)"
       d="M 42.881833,48.796208 27.067264,37.186018 11.907946,48.546273 18.062923,29.917978 2.574191,19.011122 22.192745,19.108393 27.7795,1.0073294 33.749457,19.695741 52.690993,19.415525 36.762075,30.868328 z"
       inkscape:randomized="0"
       inkscape:rounded="0"
       inkscape:flatsided="false"
       sodipodi:arg2="1.6215758"
       sodipodi:arg1="0.95054684"
       sodipodi:r2="9.8434143"
       sodipodi:r1="26.34882"
       sodipodi:cy="27.355291"
       sodipodi:cx="27.566893"
       sodipodi:sides="5"
       id="path3987"
       style="fill:#ffffff;fill-opacity:1;stroke:none"
       sodipodi:type="star" />
    <path
       sodipodi:type="star"
       style="fill:#ffffff;fill-opacity:1;stroke:none"
       id="path3989"
       sodipodi:sides="5"
       sodipodi:cx="27.566893"
       sodipodi:cy="27.355291"
       sodipodi:r1="26.34882"
       sodipodi:r2="9.8434143"
       sodipodi:arg1="0.95054684"
       sodipodi:arg2="1.6215758"
       inkscape:flatsided="false"
       inkscape:rounded="0"
       inkscape:randomized="0"
       d="M 42.881833,48.796208 27.067264,37.186018 11.907946,48.546273 18.062923,29.917978 2.574191,19.011122 22.192745,19.108393 27.7795,1.0073294 33.749457,19.695741 52.690993,19.415525 36.762075,30.868328 z"
       transform="translate(388,536.2677)"
       inkscape:transform-center-x="-0.065699328"
       inkscape:transform-center-y="-2.4535226" />
    <path
       sodipodi:type="star"
       style="fill:#ffffff;fill-opacity:1;stroke:none"
       id="path4001"
       sodipodi:sides="5"
       sodipodi:cx="27.566893"
       sodipodi:cy="27.355291"
       sodipodi:r1="26.34882"
       sodipodi:r2="9.8434143"
       sodipodi:arg1="0.95054684"
       sodipodi:arg2="1.6215758"
       inkscape:flatsided="false"
       inkscape:rounded="0"
       inkscape:randomized="0"
       d="M 42.881833,48.796208 27.067264,37.186018 11.907946,48.546273 18.062923,29.917978 2.574191,19.011122 22.192745,19.108393 27.7795,1.0073294 33.749457,19.695741 52.690993,19.415525 36.762075,30.868328 z"
       transform="translate(96,312.2677)"
       inkscape:transform-center-x="-0.065699328"
       inkscape:transform-center-y="-2.4535226" />
    <path
       inkscape:transform-center-y="-2.4535226"
       inkscape:transform-center-x="-0.065699328"
       transform="translate(96,620.2677)"
       d="M 42.881833,48.796208 27.067264,37.186018 11.907946,48.546273 18.062923,29.917978 2.574191,19.011122 22.192745,19.108393 27.7795,1.0073294 33.749457,19.695741 52.690993,19.415525 36.762075,30.868328 z"
       inkscape:randomized="0"
       inkscape:rounded="0"
       inkscape:flatsided="false"
       sodipodi:arg2="1.6215758"
       sodipodi:arg1="0.95054684"
       sodipodi:r2="9.8434143"
       sodipodi:r1="26.34882"
       sodipodi:cy="27.355291"
       sodipodi:cx="27.566893"
       sodipodi:sides="5"
       id="path4003"
       style="fill:#ffffff;fill-opacity:1;stroke:none"
       sodipodi:type="star" />
    <path
       sodipodi:type="star"
       style="fill:#ffffff;fill-opacity:1;stroke:none"
       id="path4005"
       sodipodi:sides="5"
       sodipodi:cx="27.566893"
       sodipodi:cy="27.355291"
       sodipodi:r1="26.34882"
       sodipodi:r2="9.8434143"
       sodipodi:arg1="0.95054684"
       sodipodi:arg2="1.6215758"
       inkscape:flatsided="false"
       inkscape:rounded="0"
       inkscape:randomized="0"
       d="M 42.881833,48.796208 27.067264,37.186018 11.907946,48.546273 18.062923,29.917978 2.574191,19.011122 22.192745,19.108393 27.7795,1.0073294 33.749457,19.695741 52.690993,19.415525 36.762075,30.868328 z"
       transform="translate(96,458.2677)"
       inkscape:transform-center-x="-0.065699328"
       inkscape:transform-center-y="-2.4535226" />
    <path
       inkscape:transform-center-y="-2.4535226"
       inkscape:transform-center-x="-0.065699328"
       transform="translate(96,384.2677)"
       d="M 42.881833,48.796208 27.067264,37.186018 11.907946,48.546273 18.062923,29.917978 2.574191,19.011122 22.192745,19.108393 27.7795,1.0073294 33.749457,19.695741 52.690993,19.415525 36.762075,30.868328 z"
       inkscape:randomized="0"
       inkscape:rounded="0"
       inkscape:flatsided="false"
       sodipodi:arg2="1.6215758"
       sodipodi:arg1="0.95054684"
       sodipodi:r2="9.8434143"
       sodipodi:r1="26.34882"
       sodipodi:cy="27.355291"
       sodipodi:cx="27.566893"
       sodipodi:sides="5"
       id="path4007"
       style="fill:#ffffff;fill-opacity:1;stroke:none"
       sodipodi:type="star" />
    <path
       sodipodi:type="star"
       style="fill:#ffffff;fill-opacity:1;stroke:none"
       id="path4009"
       sodipodi:sides="5"
       sodipodi:cx="27.566893"
       sodipodi:cy="27.355291"
       sodipodi:r1="26.34882"
       sodipodi:r2="9.8434143"
       sodipodi:arg1="0.95054684"
       sodipodi:arg2="1.6215758"
       inkscape:flatsided="false"
       inkscape:rounded="0"
       inkscape:randomized="0"
       d="M 42.881833,48.796208 27.067264,37.186018 11.907946,48.546273 18.062923,29.917978 2.574191,19.011122 22.192745,19.108393 27.7795,1.0073294 33.749457,19.695741 52.690993,19.415525 36.762075,30.868328 z"
       transform="translate(96,536.2677)"
       inkscape:transform-center-x="-0.065699328"
       inkscape:transform-center-y="-2.4535226" />
    <path
       inkscape:transform-center-y="-2.4535226"
       inkscape:transform-center-x="-0.065699328"
       transform="translate(48,354.2677)"
       d="M 42.881833,48.796208 27.067264,37.186018 11.907946,48.546273 18.062923,29.917978 2.574191,19.011122 22.192745,19.108393 27.7795,1.0073294 33.749457,19.695741 52.690993,19.415525 36.762075,30.868328 z"
       inkscape:randomized="0"
       inkscape:rounded="0"
       inkscape:flatsided="false"
       sodipodi:arg2="1.6215758"
       sodipodi:arg1="0.95054684"
       sodipodi:r2="9.8434143"
       sodipodi:r1="26.34882"
       sodipodi:cy="27.355291"
       sodipodi:cx="27.566893"
       sodipodi:sides="5"
       id="path4013"
       style="fill:#ffffff;fill-opacity:1;stroke:none"
       sodipodi:type="star" />
    <path
       inkscape:transform-center-y="-2.4535226"
       inkscape:transform-center-x="-0.065699328"
       transform="translate(48,500.2677)"
       d="M 42.881833,48.796208 27.067264,37.186018 11.907946,48.546273 18.062923,29.917978 2.574191,19.011122 22.192745,19.108393 27.7795,1.0073294 33.749457,19.695741 52.690993,19.415525 36.762075,30.868328 z"
       inkscape:randomized="0"
       inkscape:rounded="0"
       inkscape:flatsided="false"
       sodipodi:arg2="1.6215758"
       sodipodi:arg1="0.95054684"
       sodipodi:r2="9.8434143"
       sodipodi:r1="26.34882"
       sodipodi:cy="27.355291"
       sodipodi:cx="27.566893"
       sodipodi:sides="5"
       id="path4015"
       style="fill:#ffffff;fill-opacity:1;stroke:none"
       sodipodi:type="star" />
    <path
       sodipodi:type="star"
       style="fill:#ffffff;fill-opacity:1;stroke:none"
       id="path4017"
       sodipodi:sides="5"
       sodipodi:cx="27.566893"
       sodipodi:cy="27.355291"
       sodipodi:r1="26.34882"
       sodipodi:r2="9.8434143"
       sodipodi:arg1="0.95054684"
       sodipodi:arg2="1.6215758"
       inkscape:flatsided="false"
       inkscape:rounded="0"
       inkscape:randomized="0"
       d="M 42.881833,48.796208 27.067264,37.186018 11.907946,48.546273 18.062923,29.917978 2.574191,19.011122 22.192745,19.108393 27.7795,1.0073294 33.749457,19.695741 52.690993,19.415525 36.762075,30.868328 z"
       transform="translate(48,426.2677)"
       inkscape:transform-center-x="-0.065699328"
       inkscape:transform-center-y="-2.4535226" />
    <path
       inkscape:transform-center-y="-2.4535226"
       inkscape:transform-center-x="-0.065699328"
       transform="translate(48,578.2677)"
       d="M 42.881833,48.796208 27.067264,37.186018 11.907946,48.546273 18.062923,29.917978 2.574191,19.011122 22.192745,19.108393 27.7795,1.0073294 33.749457,19.695741 52.690993,19.415525 36.762075,30.868328 z"
       inkscape:randomized="0"
       inkscape:rounded="0"
       inkscape:flatsided="false"
       sodipodi:arg2="1.6215758"
       sodipodi:arg1="0.95054684"
       sodipodi:r2="9.8434143"
       sodipodi:r1="26.34882"
       sodipodi:cy="27.355291"
       sodipodi:cx="27.566893"
       sodipodi:sides="5"
       id="path4019"
       style="fill:#ffffff;fill-opacity:1;stroke:none"
       sodipodi:type="star" />
    <path
       inkscape:transform-center-y="-2.4535226"
       inkscape:transform-center-x="-0.065699328"
       transform="translate(238,354.2677)"
       d="M 42.881833,48.796208 27.067264,37.186018 11.907946,48.546273 18.062923,29.917978 2.574191,19.011122 22.192745,19.108393 27.7795,1.0073294 33.749457,19.695741 52.690993,19.415525 36.762075,30.868328 z"
       inkscape:randomized="0"
       inkscape:rounded="0"
       inkscape:flatsided="false"
       sodipodi:arg2="1.6215758"
       sodipodi:arg1="0.95054684"
       sodipodi:r2="9.8434143"
       sodipodi:r1="26.34882"
       sodipodi:cy="27.355291"
       sodipodi:cx="27.566893"
       sodipodi:sides="5"
       id="path4021"
       style="fill:#ffffff;fill-opacity:1;stroke:none"
       sodipodi:type="star" />
    <path
       inkscape:transform-center-y="-2.4535226"
       inkscape:transform-center-x="-0.065699328"
       transform="translate(238,500.2677)"
       d="M 42.881833,48.796208 27.067264,37.186018 11.907946,48.546273 18.062923,29.917978 2.574191,19.011122 22.192745,19.108393 27.7795,1.0073294 33.749457,19.695741 52.690993,19.415525 36.762075,30.868328 z"
       inkscape:randomized="0"
       inkscape:rounded="0"
       inkscape:flatsided="false"
       sodipodi:arg2="1.6215758"
       sodipodi:arg1="0.95054684"
       sodipodi:r2="9.8434143"
       sodipodi:r1="26.34882"
       sodipodi:cy="27.355291"
       sodipodi:cx="27.566893"
       sodipodi:sides="5"
       id="path4023"
       style="fill:#ffffff;fill-opacity:1;stroke:none"
       sodipodi:type="star" />
    <path
       sodipodi:type="star"
       style="fill:#ffffff;fill-opacity:1;stroke:none"
       id="path4025"
       sodipodi:sides="5"
       sodipodi:cx="27.566893"
       sodipodi:cy="27.355291"
       sodipodi:r1="26.34882"
       sodipodi:r2="9.8434143"
       sodipodi:arg1="0.95054684"
       sodipodi:arg2="1.6215758"
       inkscape:flatsided="false"
       inkscape:rounded="0"
       inkscape:randomized="0"
       d="M 42.881833,48.796208 27.067264,37.186018 11.907946,48.546273 18.062923,29.917978 2.574191,19.011122 22.192745,19.108393 27.7795,1.0073294 33.749457,19.695741 52.690993,19.415525 36.762075,30.868328 z"
       transform="translate(238,426.2677)"
       inkscape:transform-center-x="-0.065699328"
       inkscape:transform-center-y="-2.4535226" />
    <path
       inkscape:transform-center-y="-2.4535226"
       inkscape:transform-center-x="-0.065699328"
       transform="translate(238,578.2677)"
       d="M 42.881833,48.796208 27.067264,37.186018 11.907946,48.546273 18.062923,29.917978 2.574191,19.011122 22.192745,19.108393 27.7795,1.0073294 33.749457,19.695741 52.690993,19.415525 36.762075,30.868328 z"
       inkscape:randomized="0"
       inkscape:rounded="0"
       inkscape:flatsided="false"
       sodipodi:arg2="1.6215758"
       sodipodi:arg1="0.95054684"
       sodipodi:r2="9.8434143"
       sodipodi:r1="26.34882"
       sodipodi:cy="27.355291"
       sodipodi:cx="27.566893"
       sodipodi:sides="5"
       id="path4027"
       style="fill:#ffffff;fill-opacity:1;stroke:none"
       sodipodi:type="star" />
    <path
       sodipodi:type="star"
       style="fill:#ffffff;fill-opacity:1;stroke:none"
       id="path4029"
       sodipodi:sides="5"
       sodipodi:cx="27.566893"
       sodipodi:cy="27.355291"
       sodipodi:r1="26.34882"
       sodipodi:r2="9.8434143"
       sodipodi:arg1="0.95054684"
       sodipodi:arg2="1.6215758"
       inkscape:flatsided="false"
       inkscape:rounded="0"
       inkscape:randomized="0"
       d="M 42.881833,48.796208 27.067264,37.186018 11.907946,48.546273 18.062923,29.917978 2.574191,19.011122 22.192745,19.108393 27.7795,1.0073294 33.749457,19.695741 52.690993,19.415525 36.762075,30.868328 z"
       transform="translate(336,354.2677)"
       inkscape:transform-center-x="-0.065699328"
       inkscape:transform-center-y="-2.4535226" />
    <path
       sodipodi:type="star"
       style="fill:#ffffff;fill-opacity:1;stroke:none"
       id="path4031"
       sodipodi:sides="5"
       sodipodi:cx="27.566893"
       sodipodi:cy="27.355291"
       sodipodi:r1="26.34882"
       sodipodi:r2="9.8434143"
       sodipodi:arg1="0.95054684"
       sodipodi:arg2="1.6215758"
       inkscape:flatsided="false"
       inkscape:rounded="0"
       inkscape:randomized="0"
       d="M 42.881833,48.796208 27.067264,37.186018 11.907946,48.546273 18.062923,29.917978 2.574191,19.011122 22.192745,19.108393 27.7795,1.0073294 33.749457,19.695741 52.690993,19.415525 36.762075,30.868328 z"
       transform="translate(336,500.2677)"
       inkscape:transform-center-x="-0.065699328"
       inkscape:transform-center-y="-2.4535226" />
    <path
       inkscape:transform-center-y="-2.4535226"
       inkscape:transform-center-x="-0.065699328"
       transform="translate(336,426.2677)"
       d="M 42.881833,48.796208 27.067264,37.186018 11.907946,48.546273 18.062923,29.917978 2.574191,19.011122 22.192745,19.108393 27.7795,1.0073294 33.749457,19.695741 52.690993,19.415525 36.762075,30.868328 z"
       inkscape:randomized="0"
       inkscape:rounded="0"
       inkscape:flatsided="false"
       sodipodi:arg2="1.6215758"
       sodipodi:arg1="0.95054684"
       sodipodi:r2="9.8434143"
       sodipodi:r1="26.34882"
       sodipodi:cy="27.355291"
       sodipodi:cx="27.566893"
       sodipodi:sides="5"
       id="path4033"
       style="fill:#ffffff;fill-opacity:1;stroke:none"
       sodipodi:type="star" />
    <path
       sodipodi:type="star"
       style="fill:#ffffff;fill-opacity:1;stroke:none"
       id="path4035"
       sodipodi:sides="5"
       sodipodi:cx="27.566893"
       sodipodi:cy="27.355291"
       sodipodi:r1="26.34882"
       sodipodi:r2="9.8434143"
       sodipodi:arg1="0.95054684"
       sodipodi:arg2="1.6215758"
       inkscape:flatsided="false"
       inkscape:rounded="0"
       inkscape:randomized="0"
       d="M 42.881833,48.796208 27.067264,37.186018 11.907946,48.546273 18.062923,29.917978 2.574191,19.011122 22.192745,19.108393 27.7795,1.0073294 33.749457,19.695741 52.690993,19.415525 36.762075,30.868328 z"
       transform="translate(336,578.2677)"
       inkscape:transform-center-x="-0.065699328"
       inkscape:transform-center-y="-2.4535226" />
    <path
       inkscape:transform-center-y="-2.4535226"
       inkscape:transform-center-x="-0.065699328"
       transform="translate(436,354.2677)"
       d="M 42.881833,48.796208 27.067264,37.186018 11.907946,48.546273 18.062923,29.917978 2.574191,19.011122 22.192745,19.108393 27.7795,1.0073294 33.749457,19.695741 52.690993,19.415525 36.762075,30.868328 z"
       inkscape:randomized="0"
       inkscape:rounded="0"
       inkscape:flatsided="false"
       sodipodi:arg2="1.6215758"
       sodipodi:arg1="0.95054684"
       sodipodi:r2="9.8434143"
       sodipodi:r1="26.34882"
       sodipodi:cy="27.355291"
       sodipodi:cx="27.566893"
       sodipodi:sides="5"
       id="path4037"
       style="fill:#ffffff;fill-opacity:1;stroke:none"
       sodipodi:type="star" />
    <path
       inkscape:transform-center-y="-2.4535226"
       inkscape:transform-center-x="-0.065699328"
       transform="translate(436,500.2677)"
       d="M 42.881833,48.796208 27.067264,37.186018 11.907946,48.546273 18.062923,29.917978 2.574191,19.011122 22.192745,19.108393 27.7795,1.0073294 33.749457,19.695741 52.690993,19.415525 36.762075,30.868328 z"
       inkscape:randomized="0"
       inkscape:rounded="0"
       inkscape:flatsided="false"
       sodipodi:arg2="1.6215758"
       sodipodi:arg1="0.95054684"
       sodipodi:r2="9.8434143"
       sodipodi:r1="26.34882"
       sodipodi:cy="27.355291"
       sodipodi:cx="27.566893"
       sodipodi:sides="5"
       id="path4039"
       style="fill:#ffffff;fill-opacity:1;stroke:none"
       sodipodi:type="star" />
    <path
       sodipodi:type="star"
       style="fill:#ffffff;fill-opacity:1;stroke:none"
       id="path4041"
       sodipodi:sides="5"
       sodipodi:cx="27.566893"
       sodipodi:cy="27.355291"
       sodipodi:r1="26.34882"
       sodipodi:r2="9.8434143"
       sodipodi:arg1="0.95054684"
       sodipodi:arg2="1.6215758"
       inkscape:flatsided="false"
       inkscape:rounded="0"
       inkscape:randomized="0"
       d="M 42.881833,48.796208 27.067264,37.186018 11.907946,48.546273 18.062923,29.917978 2.574191,19.011122 22.192745,19.108393 27.7795,1.0073294 33.749457,19.695741 52.690993,19.415525 36.762075,30.868328 z"
       transform="translate(436,426.2677)"
       inkscape:transform-center-x="-0.065699328"
       inkscape:transform-center-y="-2.4535226" />
    <path
       inkscape:transform-center-y="-2.4535226"
       inkscape:transform-center-x="-0.065699328"
       transform="translate(436,578.2677)"
       d="M 42.881833,48.796208 27.067264,37.186018 11.907946,48.546273 18.062923,29.917978 2.574191,19.011122 22.192745,19.108393 27.7795,1.0073294 33.749457,19.695741 52.690993,19.415525 36.762075,30.868328 z"
       inkscape:randomized="0"
       inkscape:rounded="0"
       inkscape:flatsided="false"
       sodipodi:arg2="1.6215758"
       sodipodi:arg1="0.95054684"
       sodipodi:r2="9.8434143"
       sodipodi:r1="26.34882"
       sodipodi:cy="27.355291"
       sodipodi:cx="27.566893"
       sodipodi:sides="5"
       id="path4043"
       style="fill:#ffffff;fill-opacity:1;stroke:none"
       sodipodi:type="star" />
    <path
       inkscape:transform-center-y="-2.4535226"
       inkscape:transform-center-x="-0.065699328"
       transform="translate(144,354.2677)"
       d="M 42.881833,48.796208 27.067264,37.186018 11.907946,48.546273 18.062923,29.917978 2.574191,19.011122 22.192745,19.108393 27.7795,1.0073294 33.749457,19.695741 52.690993,19.415525 36.762075,30.868328 z"
       inkscape:randomized="0"
       inkscape:rounded="0"
       inkscape:flatsided="false"
       sodipodi:arg2="1.6215758"
       sodipodi:arg1="0.95054684"
       sodipodi:r2="9.8434143"
       sodipodi:r1="26.34882"
       sodipodi:cy="27.355291"
       sodipodi:cx="27.566893"
       sodipodi:sides="5"
       id="path4045"
       style="fill:#ffffff;fill-opacity:1;stroke:none"
       sodipodi:type="star" />
    <path
       inkscape:transform-center-y="-2.4535226"
       inkscape:transform-center-x="-0.065699328"
       transform="translate(144,500.2677)"
       d="M 42.881833,48.796208 27.067264,37.186018 11.907946,48.546273 18.062923,29.917978 2.574191,19.011122 22.192745,19.108393 27.7795,1.0073294 33.749457,19.695741 52.690993,19.415525 36.762075,30.868328 z"
       inkscape:randomized="0"
       inkscape:rounded="0"
       inkscape:flatsided="false"
       sodipodi:arg2="1.6215758"
       sodipodi:arg1="0.95054684"
       sodipodi:r2="9.8434143"
       sodipodi:r1="26.34882"
       sodipodi:cy="27.355291"
       sodipodi:cx="27.566893"
       sodipodi:sides="5"
       id="path4047"
       style="fill:#ffffff;fill-opacity:1;stroke:none"
       sodipodi:type="star" />
    <path
       sodipodi:type="star"
       style="fill:#ffffff;fill-opacity:1;stroke:none"
       id="path4049"
       sodipodi:sides="5"
       sodipodi:cx="27.566893"
       sodipodi:cy="27.355291"
       sodipodi:r1="26.34882"
       sodipodi:r2="9.8434143"
       sodipodi:arg1="0.95054684"
       sodipodi:arg2="1.6215758"
       inkscape:flatsided="false"
       inkscape:rounded="0"
       inkscape:randomized="0"
       d="M 42.881833,48.796208 27.067264,37.186018 11.907946,48.546273 18.062923,29.917978 2.574191,19.011122 22.192745,19.108393 27.7795,1.0073294 33.749457,19.695741 52.690993,19.415525 36.762075,30.868328 z"
       transform="translate(144,426.2677)"
       inkscape:transform-center-x="-0.065699328"
       inkscape:transform-center-y="-2.4535226" />
    <path
       inkscape:transform-center-y="-2.4535226"
       inkscape:transform-center-x="-0.065699328"
       transform="translate(144,578.2677)"
       d="M 42.881833,48.796208 27.067264,37.186018 11.907946,48.546273 18.062923,29.917978 2.574191,19.011122 22.192745,19.108393 27.7795,1.0073294 33.749457,19.695741 52.690993,19.415525 36.762075,30.868328 z"
       inkscape:randomized="0"
       inkscape:rounded="0"
       inkscape:flatsided="false"
       sodipodi:arg2="1.6215758"
       sodipodi:arg1="0.95054684"
       sodipodi:r2="9.8434143"
       sodipodi:r1="26.34882"
       sodipodi:cy="27.355291"
       sodipodi:cx="27.566893"
       sodipodi:sides="5"
       id="path4051"
       style="fill:#ffffff;fill-opacity:1;stroke:none"
       sodipodi:type="star" />
  </g>
</svg>
