<?xml version="1.0" encoding="UTF-8" standalone="yes"?>
<svg xmlns:svg="http://www.w3.org/2000/svg" xmlns="http://www.w3.org/2000/svg" version="1.1" width="575px" height="575px" viewBox="-1 -1 174 174">
  <g transform="translate(-562.63,-543.45)">
    <circle cx="648.8" cy="629.5" r="85" style="fill:#FFFFFF; stroke:#000000; stroke-width:0.5;"></circle>
    <path d="M 652.23,626.15 651.33,625.25 647.73,628.85 648.63,629.75 652.23,626.15 z M 647.73,630.95 646.83,630.05 643.53,633.95 644.43,634.85 647.73,630.95 z M 643.23,636.05 642.33,635.15 639.03,638.75 639.93,639.65 643.23,636.05 z M 638.73,640.85 637.83,639.95 634.53,643.85 635.43,644.75 638.73,640.85 z M 634.23,645.95 633.33,645.05 630.03,648.65 630.93,649.55 634.23,645.95 z M 629.73,650.75 628.83,650.15 625.53,653.75 626.43,654.65 629.73,650.75 z M 625.23,655.85 624.33,654.95 621.03,658.85 621.93,659.75 625.23,655.85 z M 620.73,660.95 619.83,660.05 616.53,663.65 617.43,664.55 620.73,660.95 z M 616.23,665.75 615.33,664.85 612.03,668.75 612.93,669.65 616.23,665.75 z M 611.73,670.85 610.83,669.95 607.53,673.55 608.43,674.45 611.73,670.85 z M 655.23,619.55 654.33,618.65 650.73,621.95 651.33,622.85 655.23,619.55 z M 660.33,615.35 659.43,614.45 655.53,617.75 656.43,618.65 660.33,615.35 z M 650.13,624.05 649.23,623.15 645.63,626.45 646.53,627.35 650.13,624.05 z M 645.03,628.55 644.43,627.65 640.53,630.95 641.43,631.85 645.03,628.55 z M 640.23,632.75 639.33,631.85 635.73,635.15 636.33,636.05 640.23,632.75 z M 635.13,637.25 634.23,636.35 630.63,639.65 631.53,640.55 635.13,637.25 z M 630.03,641.75 629.43,640.85 625.53,644.15 626.43,645.05 630.03,641.75 z M 625.23,645.95 624.33,645.05 620.43,648.35 621.33,649.25 625.23,645.95 z M 620.13,650.45 619.23,649.55 615.63,652.85 616.23,653.75 620.13,650.45 z M 615.03,654.95 614.13,654.05 610.53,657.35 611.43,658.25 615.03,654.95 z M 609.93,659.45 609.33,658.25 605.43,661.55 606.33,662.75 609.93,659.45 z M 605.13,663.65 604.23,662.75 600.63,666.05 601.23,666.95 605.13,663.65 z M 648.33,621.95 647.73,621.05 643.53,623.75 644.13,624.95 648.33,621.95 z M 642.93,625.85 642.33,624.65 638.13,627.65 638.73,628.55 642.93,625.85 z M 637.53,629.45 636.63,628.55 632.73,631.25 633.33,632.45 637.53,629.45 z M 632.13,633.35 631.23,632.45 627.33,635.15 627.93,636.35 632.13,633.35 z M 626.43,637.25 625.83,636.05 621.93,639.05 622.53,639.95 626.43,637.25 z M 621.03,640.85 620.43,639.95 616.23,642.65 617.13,643.85 621.03,640.85 z M 615.63,644.75 615.03,643.85 610.83,646.55 611.73,647.75 615.63,644.75 z M 610.23,648.65 609.63,647.45 605.43,650.45 606.03,651.35 610.23,648.65 z M 604.83,652.55 603.93,651.35 600.03,654.35 600.63,655.25 604.83,652.55 z M 599.43,656.15 598.53,655.25 594.63,657.95 595.23,659.15 599.43,656.15 z M 652.53,616.55 651.93,615.35 647.43,617.75 648.03,618.95 652.53,616.55 z M 658.53,613.55 657.93,612.35 653.73,614.75 654.33,615.65 658.53,613.55 z M 646.83,619.85 646.23,618.65 641.73,621.05 642.33,621.95 646.83,619.85 z M 640.83,622.85 640.23,621.65 636.03,624.05 636.63,625.25 640.83,622.85 z M 635.13,626.15 634.53,624.95 630.03,627.35 630.63,628.25 635.13,626.15 z M 629.13,629.15 628.53,627.95 624.33,630.35 624.93,631.55 629.13,629.15 z M 623.43,632.45 622.83,631.25 618.33,633.65 618.93,634.55 623.43,632.45 z M 617.43,635.45 616.83,634.25 612.63,636.65 613.23,637.85 617.43,635.45 z M 611.73,638.75 611.13,637.55 606.63,639.95 607.23,640.85 611.73,638.75 z M 605.73,641.75 605.43,640.55 600.93,642.95 601.53,644.15 605.73,641.75 z M 600.03,644.75 599.43,643.85 595.23,646.25 595.83,647.15 600.03,644.75 z M 594.33,648.05 593.73,646.85 589.23,649.25 589.83,650.45 594.33,648.05 z M 657.03,621.65 658.23,622.25 655.23,626.45 654.33,625.55 657.03,621.65 z M 660.93,616.25 662.13,616.85 659.13,621.05 658.23,620.15 660.93,616.25 z M 653.13,627.05 654.33,627.95 651.33,631.85 650.43,631.25 653.13,627.05 z M 649.23,632.45 650.43,633.35 647.43,637.55 646.53,636.65 649.23,632.45 z M 645.63,638.15 646.53,638.75 643.53,642.95 642.63,642.05 645.63,638.15 z M 641.73,643.55 642.63,644.15 639.63,648.35 638.73,647.45 641.73,643.55 z M 637.83,648.95 638.73,649.85 635.73,653.75 634.83,653.15 637.83,648.95 z M 633.93,654.35 634.83,655.25 631.83,659.45 630.93,658.55 633.93,654.35 z M 630.03,660.05 630.93,660.65 627.93,664.85 627.03,663.95 630.03,660.05 z M 626.13,665.45 627.03,666.05 624.03,670.25 623.13,669.65 626.13,665.45 z M 622.23,670.85 623.13,671.75 620.13,675.65 619.23,675.05 622.23,670.85 z M 618.33,676.25 619.23,677.15 616.53,681.35 615.33,680.45 618.33,676.25 z M 655.53,628.85 656.43,629.45 654.03,633.95 652.83,633.05 655.53,628.85 z M 652.23,634.55 653.13,635.15 650.73,639.65 649.53,639.05 652.23,634.55 z M 648.93,640.55 649.83,641.15 647.43,645.65 646.53,645.05 648.93,640.55 z M 645.63,646.55 646.83,647.15 644.13,651.35 643.23,650.75 645.63,646.55 z M 642.33,652.25 643.53,652.85 640.83,657.35 639.93,656.75 642.33,652.25 z M 639.03,658.25 640.23,658.85 637.53,663.35 636.63,662.45 639.03,658.25 z M 635.73,663.95 636.93,664.85 634.53,669.05 633.33,668.45 635.73,663.95 z M 632.43,669.95 633.63,670.55 631.23,675.05 630.03,674.45 632.43,669.95 z M 629.13,675.95 630.33,676.55 627.93,680.75 626.73,680.15 629.13,675.95 z M 625.83,681.65 627.03,682.25 624.63,686.75 623.43,686.15 625.83,681.65 z M 660.33,624.05 661.53,624.65 659.43,629.15 658.23,628.85 660.33,624.05 z M 663.03,617.75 664.23,618.05 662.13,622.85 661.23,622.25 663.03,617.75 z M 657.63,630.35 658.83,630.95 656.73,635.45 655.83,634.85 657.63,630.35 z M 654.93,636.65 656.13,636.95 654.33,641.75 653.13,641.15 654.93,636.65 z M 652.53,642.65 653.73,643.25 651.63,648.05 650.43,647.45 652.53,642.65 z M 649.83,648.95 651.03,649.55 648.93,654.05 648.03,653.75 649.83,648.95 z M 647.13,655.25 648.33,655.85 646.53,660.35 645.33,660.05 647.13,655.25 z M 644.73,661.55 645.93,661.85 643.83,666.65 642.63,666.05 644.73,661.55 z M 642.03,667.85 643.23,668.15 641.13,672.95 639.93,672.35 642.03,667.85 z M 639.33,673.85 640.53,674.45 638.73,679.25 637.53,678.65 639.33,673.85 z M 636.93,680.15 637.83,680.75 636.03,685.25 634.83,684.95 636.93,680.15 z M 634.23,686.45 635.43,686.75 633.33,691.55 632.13,690.95 634.23,686.45 z M 675.03,589.85 678.03,587.75 681.63,589.55 682.23,588.95 682.53,588.65 683.13,588.35 683.73,587.75 684.03,587.45 684.63,587.15 685.23,586.85 685.83,586.55 686.43,586.25 687.03,585.95 687.63,585.95 688.23,585.65 688.83,585.35 691.83,585.35 692.43,585.65 693.03,585.65 693.63,585.95 694.23,586.25 694.83,586.85 695.43,587.15 695.73,587.75 696.03,588.35 696.63,588.95 696.93,589.55 696.93,589.85 697.23,590.45 697.53,591.05 705.03,622.85 705.63,624.65 706.53,625.85 707.73,626.75 709.23,627.35 710.43,627.65 711.93,627.95 714.93,627.95 714.93,631.25 712.53,631.25 710.43,630.95 708.33,630.65 706.53,629.75 705.03,628.85 703.53,627.65 702.63,626.15 702.03,624.35 694.23,592.25 693.93,591.65 693.93,591.05 693.03,590.15 693.03,589.85 692.73,589.85 692.73,589.55 692.43,589.55 692.13,589.25 691.83,589.25 691.53,588.95 689.13,588.95 688.53,589.25 688.23,589.25 687.63,589.55 687.33,589.55 687.03,589.85 686.43,590.15 686.13,590.45 685.53,590.75 685.23,591.05 684.93,591.35 684.63,591.65 684.33,591.95 686.73,595.85 684.63,599.15 675.03,589.85 z M 678.03,602.15 672.33,596.75 674.73,593.15 681.63,599.75 678.03,602.15 z M 671.43,598.25 676.53,603.35 665.73,610.85 664.83,609.95 671.43,598.25 z M 674.13,590.45 662.73,610.25 665.43,613.25 684.03,599.75 674.13,590.45" id="path12" style="fill:#000000;fill-rule:evenodd"></path>
    <path d="M 648.63,546.45 652.77,546.75 657.2,547.04 661.33,547.63 665.17,548.22 669.31,549.11 676.99,551.47 680.83,553.24 684.37,554.72 687.91,556.49 695,560.63 698.25,562.99 701.21,565.65 704.16,568.01 707.11,570.97 709.77,573.62 712.43,576.87 715.09,579.83 717.16,583.08 719.52,586.62 721.59,589.87 723.36,593.41 727.79,604.93 728.97,608.77 729.86,612.61 730.45,616.75 731.04,620.88 731.33,625.32 731.63,629.45 731.33,633.59 731.04,638.02 730.45,642.15 729.86,645.99 728.97,650.13 727.79,653.97 724.84,661.65 723.36,665.19 721.59,668.73 719.52,672.28 717.16,675.82 715.09,679.07 712.43,682.03 709.77,684.98 707.11,687.93 704.16,690.59 698.25,695.91 695,697.98 691.46,700.34 687.91,702.41 684.37,704.18 680.83,705.66 673.15,708.61 669.31,709.79 665.17,710.68 661.33,711.27 657.2,711.86 652.77,712.15 648.63,712.45 644.49,712.15 640.06,711.86 635.93,711.27 632.09,710.68 627.95,709.79 624.11,708.61 616.43,705.66 612.89,704.18 609.35,702.41 605.8,700.34 602.26,697.98 599.01,695.91 596.05,693.25 593.1,690.59 590.15,687.93 587.49,684.98 584.83,682.03 582.17,679.07 580.1,675.82 577.74,672.28 575.67,668.73 573.9,665.19 572.42,661.65 570.95,657.81 569.47,653.97 568.29,650.13 567.4,645.99 566.81,642.15 566.22,638.02 565.93,633.59 565.63,629.45 565.93,625.31 566.22,620.88 566.81,616.75 567.4,612.61 568.29,608.77 569.47,604.93 570.95,601.09 573.9,593.41 575.67,589.87 577.74,586.62 580.1,583.08 582.17,579.83 584.83,576.87 587.49,573.62 590.15,570.97 593.1,568.01 596.05,565.65 599.01,562.99 602.26,560.63 609.35,556.49 612.89,554.72 616.43,553.24 620.27,551.47 627.95,549.11 632.09,548.22 635.93,547.63 640.06,547.04 644.49,546.75 648.63,546.45 z M 699.43,670.51 607.57,578.65 608.16,578.06 608.75,577.76 609.35,577.17 609.94,576.88 610.53,576.58 611.12,575.99 611.41,575.7 612,575.1 613.19,574.51 614.07,573.92 615.25,573.33 616.14,572.74 617.32,572.15 618.21,571.56 619.39,570.97 620.27,570.38 622.34,569.79 624.11,568.9 625.89,568.31 627.66,567.42 629.73,566.83 631.5,566.24 633.57,565.95 635.34,565.36 641.84,564.47 643.31,564.18 653.36,564.18 654.54,564.47 655.72,564.47 656.9,564.77 658.08,564.77 659.26,565.06 660.44,565.06 661.92,565.36 664.28,565.95 665.17,566.24 666.35,566.54 667.53,566.83 668.72,567.13 669.9,567.72 671.08,568.02 672.85,568.9 674.62,569.49 681.71,573.04 683.48,574.22 685.26,575.1 686.14,575.99 687.03,576.58 687.91,577.17 688.8,578.06 689.69,578.65 690.87,579.54 691.75,580.13 692.64,581.01 694.12,582.49 695.3,583.97 696.78,585.15 697.96,586.62 699.14,588.1 700.62,589.87 701.8,591.35 702.98,592.83 703.57,594.01 704.16,594.89 704.75,596.08 705.93,597.85 706.52,599.03 707.11,600.21 707.7,601.1 708.3,602.87 709.18,604.94 709.77,606.71 710.66,608.48 711.25,610.55 711.84,612.32 712.14,614.39 712.73,616.16 713.02,617.64 713.02,618.82 713.32,620 713.32,621.18 713.61,622.36 713.61,623.55 713.91,624.73 713.91,634.77 713.61,636.25 713.61,637.43 713.32,638.61 713.32,639.79 713.02,640.97 712.73,642.15 712.43,643.34 712.14,644.52 711.84,645.7 711.54,646.88 711.25,648.06 710.95,649.24 710.66,650.43 710.07,651.31 709.77,652.49 709.48,653.67 708.89,654.86 705.34,661.94 704.16,663.42 703.27,665.19 702.09,666.97 700.91,668.44 700.91,668.74 700.62,669.03 700.32,669.33 700.03,669.62 699.73,669.92 699.73,670.22 699.43,670.51 z M 597.82,588.4 689.68,680.26 688.8,680.85 687.91,681.73 687.03,682.32 686.14,682.92 684.37,684.1 683.48,684.69 682.6,685.28 680.23,686.46 679.35,687.05 678.17,687.64 677.28,688.23 676.1,688.82 675.21,689.12 674.03,689.71 671.96,690.6 670.19,691.19 668.42,691.78 666.35,692.37 664.58,692.96 662.51,693.25 660.44,693.84 658.67,694.14 657.19,694.14 656.01,694.43 654.83,694.43 653.65,694.73 652.47,694.73 643.61,694.73 642.43,694.43 641.24,694.43 640.06,694.14 638.59,694.14 637.4,693.84 636.22,693.55 635.04,693.25 633.86,693.25 632.68,692.96 630.32,692.37 629.13,691.78 627.36,691.19 625.59,690.6 623.52,689.71 621.75,689.12 619.98,688.23 618.2,687.35 616.43,686.46 613.77,684.69 612.89,684.1 611.71,683.51 610.82,682.62 609.05,681.44 608.16,680.55 606.98,679.96 605.5,678.48 604.03,677.3 602.85,675.83 601.37,674.35 600.19,673.17 598.71,671.69 597.53,670.21 596.35,668.44 595.46,667.56 594.87,666.67 594.28,665.49 593.1,663.72 592.21,662.53 591.62,661.65 589.26,656.92 588.67,655.15 587.78,653.38 587.19,651.31 586.6,649.54 585.71,647.77 585.42,645.7 585.12,644.52 584.83,643.34 584.53,642.15 584.24,640.97 583.94,639.79 583.94,638.61 583.65,637.43 583.65,636.25 583.35,634.77 583.35,624.73 583.65,623.54 583.65,622.36 583.94,621.18 583.94,620 584.24,618.82 584.24,617.64 584.53,616.16 584.83,614.98 585.12,613.8 585.42,612.62 585.71,611.73 586.01,610.55 586.3,609.37 586.9,608.19 587.19,607 588.08,605.23 588.67,603.16 589.55,601.39 590.44,599.92 591.33,598.14 592.21,596.37 593.39,594.6 594.28,592.83 594.87,592.24 595.17,591.64 595.76,591.35 596.05,590.76 596.35,590.17 596.94,589.58 597.23,588.99 597.82,588.4" id="path14" style="fill:#CC0000;fill-rule:evenodd"></path>
  </g>
</svg>