
<svg xmlns="http://www.w3.org/2000/svg" height="525" width="600" version="1.1" viewBox="0 0 600 525">
  <path d="M597.6,499.6,313.8,8c-2.9-5-8.2-8-13.9-8s-11,3.1-13.9,8l-283.8,491.6c-2.9,5-2.9,11.1,0,16,2.9,5,8.2,8,13.9,8h567.6c5.7,0,11-3.1,13.9-8,2.9-5,2.9-11.1,0-16z"></path>
  <polygon points="43.875,491.5,299.88,48.2,555.88,491.5" fill="#f6bd16" transform="matrix(1,0,0,0.99591458,0.125,2.0332437)"></polygon>
  <polygon fill-rule="evenodd" transform="matrix(0.28721876,0,0,0.28721876,-2.71996,0.46888916)" points="1156.1,638.84,1162.1,644.07,1167.9,649.55,1173.4,655.29,1178.7,661.3,1183.6,667.57,1188.2,674.1,1192.6,680.88,1196.6,687.8,1200.3,694.98,1203.5,702.3,1206.5,709.87,1209.1,717.57,1211.4,725.41,1213.2,733.37,1214.8,741.6,1215.8,749.82,1216.4,758.31,1216.6,766.8,1216.4,775.28,1215.8,783.64,1214.8,791.99,1213.2,800.09,1211.4,808.18,1209.1,816.02,1206.5,823.72,1203.5,831.29,1200.3,838.6,1196.6,845.78,1192.6,852.71,1188.2,859.49,1183.6,865.89,1178.7,872.29,1173.4,878.3,1167.9,884.04,1162.1,889.52,1156.1,894.75,1149.9,899.71,1143.3,904.28,1136.7,908.59,1129.6,912.63,1122.6,916.29,1115.1,919.68,1107.7,922.69,1100,925.3,1092,927.52,1084.1,929.34,1076,930.78,1067.6,931.83,1059.3,932.48,1050.6,932.74,1042.2,932.48,1033.8,931.83,1025.4,930.78,1017.3,929.34,1009.2,927.52,1001.4,925.3,993.71,922.69,986.27,919.68,978.83,916.29,971.65,912.63,964.73,908.59,958.07,904.28,951.54,899.71,945.27,894.75,939.27,889.52,933.39,884.04,927.91,878.3,922.69,872.29,917.73,865.89,913.16,859.49,908.85,852.71,904.8,845.78,901.14,838.6,897.88,831.29,894.88,823.72,892.27,816.02,890.05,808.18,888.09,800.09,886.65,791.99,885.61,783.64,884.95,775.28,884.69,766.8,884.95,758.31,885.61,749.82,886.65,741.6,888.09,733.37,890.05,725.41,892.27,717.57,894.88,709.87,897.88,702.3,901.14,694.98,904.8,687.8,908.85,680.88,913.16,674.1,917.73,667.57,922.69,661.3,927.91,655.29,933.39,649.55,939.27,644.07,945.27,638.84,951.54,633.88,958.07,629.18,964.73,624.87,971.65,620.96,978.83,617.3,986.27,613.91,993.71,610.9,1001.4,608.29,1009.2,606.07,1017.3,604.24,1025.4,602.81,1033.8,601.63,1042.2,601.11,1050.6,600.85,1059.3,601.11,1067.6,601.63,1076,602.81,1084.1,604.24,1092,606.07,1100,608.29,1107.7,610.9,1115.1,613.91,1122.6,617.3,1129.6,620.96,1136.7,624.87,1143.3,629.18,1149.9,633.88" fill="#000000"></polygon>
  <polygon fill-rule="evenodd" transform="matrix(0.28721876,0,0,0.28721876,-2.71996,0.46888916)" points="1246.1,1018.4,1257.1,1027.8,1267.6,1037.8,1277.6,1048.4,1287.1,1059.4,1296.1,1070.8,1304.6,1082.6,1312.4,1094.9,1319.7,1107.6,1326.4,1120.6,1332.5,1133.9,1337.9,1147.6,1342.7,1161.8,1346.8,1176.1,1350.2,1190.7,1352.8,1205.5,1354.7,1220.6,1355.9,1235.9,1356.3,1251.4,1355.9,1267,1354.7,1282.3,1352.8,1297.4,1350.2,1312.3,1346.8,1326.9,1342.7,1341.1,1337.9,1355.2,1332.5,1369,1326.4,1382.3,1319.7,1395.3,1312.4,1408,1304.6,1420.3,1296.1,1432.1,1287.1,1443.6,1277.6,1454.6,1267.6,1465,1257.1,1475.1,1246.1,1484.6,1234.6,1493.6,1222.8,1502,1210.6,1510,1197.9,1517.1,1184.9,1523.9,1171.4,1529.9,1157.7,1535.4,1143.7,1540.1,1129.4,1544.3,1114.8,1547.6,1099.9,1550.3,1084.8,1552.3,1069.4,1553.4,1054,1553.8,1038.5,1553.4,1023.1,1552.3,1008.1,1550.3,993.19,1547.6,978.57,1544.3,964.21,1540.1,950.24,1535.4,936.53,1529.9,923.08,1523.9,910.02,1517.1,897.36,1510,885.22,1502,873.34,1493.6,861.84,1484.6,850.88,1475.1,840.43,1465,830.38,1454.6,820.85,1443.6,811.84,1432.1,803.48,1420.3,795.52,1408,788.21,1395.3,781.55,1382.3,775.54,1369,770.06,1355.2,765.36,1341.1,761.18,1326.9,757.79,1312.3,755.18,1297.4,753.22,1282.3,752.04,1267,751.65,1251.4,752.04,1235.9,753.22,1220.6,755.18,1205.5,757.79,1190.7,761.18,1176.1,765.36,1161.8,770.06,1147.6,775.54,1133.9,781.55,1120.6,788.21,1107.6,795.52,1094.9,803.48,1082.6,811.84,1070.8,820.85,1059.4,830.38,1048.4,840.43,1037.8,850.88,1027.8,861.84,1018.4,873.34,1009.4,885.22,1000.9,897.36,993.06,910.02,985.75,923.08,979.09,936.53,972.95,950.24,967.6,964.21,962.77,978.57,958.72,993.19,955.33,1008.1,952.59,1023.1,950.76,1038.5,949.58,1054,949.19,1069.4,949.58,1084.8,950.76,1099.9,952.59,1114.8,955.33,1129.4,958.72,1143.7,962.77,1157.7,967.6,1171.4,972.95,1184.9,979.09,1197.9,985.75,1210.6,993.06,1222.8,1000.9,1234.6,1009.4" fill="#000000"></polygon>
  <ellipse fill-rule="evenodd" rx="116.62" ry="116.66" transform="matrix(0.28721876,0,0,0.28721876,-2.71996,0.46888916)" cy="766.73" cx="1050.7" fill="#f6bd16"></ellipse>
  <ellipse fill-rule="evenodd" rx="254.91" ry="254.98" transform="matrix(0.28721876,0,0,0.28721876,-2.71996,0.46888916)" cy="1249.9" cx="1057.1" fill="#f6bd16"></ellipse>
  <path stroke-linejoin="round" style="enable-background:accumulate;color:#000000;" d="m244.37,327.2,37.266-12.661-11.467,38.7m11.467-38.461c-46.156,39.776-38.247,71.361-0.47778,98.422" stroke-dashoffset="0" stroke="#000000" stroke-linecap="round" stroke-miterlimit="4" stroke-dasharray="none" stroke-width="6" fill="none"></path>
  <path stroke-linejoin="round" style="enable-background:accumulate;color:#000000;" d="m286.97,221.17,5.2481,17.954-17.954-5.8005m17.368-35.121c-13.378,9.8977-20.916,25.957,0.0335,39.816" stroke-dashoffset="0" stroke="#000000" stroke-linecap="round" stroke-miterlimit="4" stroke-dasharray="none" stroke-width="4" fill="none"></path>
</svg>