<?xml version="1.0" encoding="UTF-8" standalone="yes"?>
<svg xmlns="http://www.w3.org/2000/svg" xmlns:xlink="http://www.w3.org/1999/xlink" width="685pt" height="600pt" viewBox="0 0 685 600" version="1.1">
  <g id="surface1">
    <path style="fill-rule:evenodd;fill:rgb(0.784314%,1.960784%,1.960784%);fill-opacity:1;stroke-width:0.127844;stroke-linecap:butt;stroke-linejoin:miter;stroke:rgb(0.784314%,1.960784%,1.960784%);stroke-opacity:1;stroke-miterlimit:2.613;" d="M 197.46208 164.743687 L 104.122664 2.943062 L 103.544526 2.079583 L 102.826095 1.430844 L 102.036387 0.856698 L 101.099599 0.423828 L 100.165073 0.137885 L 99.158139 0.0644219 L 98.153467 0.137885 L 97.146533 0.423828 L 96.283285 0.856698 L 95.420036 1.430844 L 94.77062 2.079583 L 94.197007 2.943062 L 0.857591 164.743687 L 0.423139 165.67724 L 0.134635 166.615312 L 0.0644891 167.622328 L 0.134635 168.627083 L 0.423139 169.634099 L 0.857591 170.497578 L 1.431204 171.361057 L 2.076095 172.009797 L 2.939343 172.583943 L 3.802591 173.013422 L 4.810657 173.302755 L 5.817591 173.372828 L 192.50208 173.372828 L 193.509015 173.302755 L 194.442409 173.013422 L 195.376934 172.583943 L 196.170036 172.009797 L 196.888467 171.361057 L 197.46208 170.497578 L 197.896533 169.634099 L 198.181642 168.627083 L 198.255182 167.622328 L 198.181642 166.615312 L 197.896533 165.67724 Z M 197.46208 164.743687" transform="matrix(3.452621,0,0,3.456221,0,0)"></path>
    <path style="fill-rule:evenodd;fill:rgb(92.156863%,74.901961%,16.862745%);fill-opacity:1;stroke-width:0.127844;stroke-linecap:butt;stroke-linejoin:miter;stroke:rgb(0.784314%,1.960784%,1.960784%);stroke-opacity:1;stroke-miterlimit:2.613;" d="M 99.158139 18.114979 L 181.856861 161.509031 L 16.458285 161.509031 Z M 99.158139 18.114979" transform="matrix(3.452621,0,0,3.456221,0,0)"></path>
    <path style="stroke:none;fill-rule:evenodd;fill:rgb(0.784314%,1.960784%,1.960784%);fill-opacity:1;" d="M 280.058594 358.871094 C 280.558594 355.902344 285.023438 354.644531 289.742188 355.386719 C 294.707031 356.386719 298.183594 359.371094 297.6875 362.113281 C 296.945312 364.839844 292.722656 366.324219 287.757812 365.339844 C 283.039062 364.597656 279.558594 361.613281 280.058594 358.871094 M 219.21875 447.855469 C 219.21875 447.855469 232.140625 457.050781 252.992188 445.613281 C 252.992188 445.613281 266.152344 435.921875 293.464844 449.097656 C 293.464844 449.097656 298.425781 452.082031 307.113281 451.082031 C 311.589844 450.097656 317.296875 448.355469 321.515625 446.113281 C 321.515625 446.113281 328.960938 441.644531 339.144531 441.644531 C 342.625 441.390625 345.605469 441.644531 348.085938 442.886719 C 351.308594 443.875 354.789062 445.613281 358.011719 448.097656 C 358.011719 448.097656 371.175781 457.308594 391.785156 445.871094 C 391.785156 445.871094 404.691406 436.664062 430.761719 448.597656 C 440.199219 447.355469 446.648438 446.371094 446.648438 446.371094 C 446.648438 446.371094 470.992188 444.871094 473.714844 437.417969 C 476.453125 429.96875 472.476562 422 472.476562 422 L 462.050781 422 L 449.144531 406.597656 L 448.386719 424.742188 L 432.5 425.984375 L 423.570312 405.355469 L 417.113281 425.984375 L 398.984375 425.984375 L 391.285156 407.097656 L 387.320312 424 L 363.230469 424 L 356.773438 408.097656 L 350.070312 422 L 332.199219 422 L 326.238281 407.839844 L 317.792969 421.015625 L 302.890625 421.015625 L 295.945312 410.082031 L 287.503906 421.757812 L 264.414062 421.015625 L 281.300781 409.324219 L 298.425781 401.628906 L 313.074219 409.324219 L 311.589844 394.917969 L 324.496094 389.9375 L 342.382812 400.128906 L 341.140625 382.242188 L 351.566406 375.773438 L 370.675781 383.484375 L 372.660156 367.578125 L 386.078125 360.113281 L 397.746094 366.582031 L 396.503906 351.164062 L 408.167969 344.710938 L 424.800781 353.902344 L 421.332031 338 L 430.761719 330.289062 L 445.421875 338.742188 L 441.941406 324.324219 C 441.441406 323.824219 441.441406 322.839844 441.441406 322.839844 L 441.941406 324.324219 C 442.441406 324.824219 443.679688 324.082031 446.648438 316.371094 C 451.867188 303.695312 440.199219 300.964844 440.199219 300.964844 L 415.871094 297.726562 L 413.632812 309.417969 L 345.105469 348.679688 C 345.105469 348.679688 320.773438 359.128906 313.074219 352.660156 C 305.375 346.449219 277.578125 346.695312 270.375 349.921875 C 263.414062 353.402344 225.679688 381.5 225.679688 381.5 C 225.679688 381.5 215.496094 373.046875 202.832031 378.515625 L 160.632812 451.082031 C 161.375 451.339844 162.371094 451.582031 163.613281 451.582031 C 167.835938 450.839844 176.761719 449.097656 182.480469 445.871094 C 182.480469 445.871094 201.105469 434.9375 219.21875 447.855469"></path>
    <path style="stroke:none;fill-rule:evenodd;fill:rgb(0.784314%,1.960784%,1.960784%);fill-opacity:1;" d="M 507.984375 488.371094 C 507.730469 488.117188 498.300781 481.164062 480.417969 488.117188 C 480.417969 488.117188 462.292969 503.535156 436.234375 489.855469 C 436.234375 489.855469 415.613281 477.921875 403.449219 487.871094 C 403.449219 487.871094 376.140625 503.035156 360.007812 489.113281 C 360.007812 489.113281 358.769531 488.613281 357.027344 488.117188 C 357.027344 488.117188 356.773438 488.117188 356.273438 487.871094 C 352.550781 486.628906 346.347656 484.890625 340.386719 485.132812 C 337.417969 485.386719 333.9375 486.132812 330.214844 487.617188 C 329.960938 487.871094 329.460938 488.117188 328.960938 488.371094 C 328.960938 488.371094 328.71875 488.371094 328.476562 488.613281 C 324.496094 491.355469 307.867188 501.535156 285.265625 489.613281 C 285.265625 489.613281 264.65625 477.679688 252.25 487.617188 C 252.25 487.617188 225.179688 502.777344 208.792969 488.859375 C 208.792969 488.859375 189.183594 480.164062 178.003906 488.117188 C 178.003906 488.117188 160.632812 496.566406 150.691406 494.582031 L 149.707031 505.773438 C 159.136719 509 178.261719 499.550781 178.261719 499.550781 C 189.683594 491.84375 209.050781 500.550781 209.050781 500.550781 C 225.4375 514.46875 252.746094 499.308594 252.746094 499.308594 C 264.914062 489.359375 285.519531 501.292969 285.519531 501.292969 C 308.109375 512.972656 324.753906 503.035156 328.71875 500.050781 C 329.21875 500.050781 329.460938 499.792969 329.460938 499.792969 C 329.71875 499.550781 330.214844 499.308594 330.703125 499.050781 C 334.425781 497.808594 337.660156 497.066406 340.640625 496.566406 C 346.84375 496.324219 352.804688 498.066406 356.527344 499.308594 C 357.027344 499.550781 357.269531 499.792969 357.269531 499.792969 L 357.269531 499.550781 C 359.011719 500.308594 360.25 500.792969 360.25 500.792969 C 376.394531 514.710938 403.707031 499.550781 403.707031 499.550781 C 416.113281 489.613281 436.722656 501.535156 436.722656 501.535156 C 462.546875 514.96875 480.675781 499.792969 480.675781 499.792969 C 498.800781 492.597656 508.226562 500.050781 508.226562 500.050781 Z M 507.984375 488.371094"></path>
    <path style="stroke:none;fill-rule:evenodd;fill:rgb(0.784314%,1.960784%,1.960784%);fill-opacity:1;" d="M 507.984375 459.777344 C 507.730469 459.535156 498.300781 452.324219 480.417969 459.535156 C 480.417969 459.535156 462.292969 474.695312 436.234375 461.03125 C 436.234375 461.03125 415.613281 449.097656 403.449219 459.292969 C 403.449219 459.292969 376.140625 474.453125 360.007812 460.277344 C 360.007812 460.277344 358.769531 459.777344 357.027344 459.292969 L 357.027344 459.535156 C 357.027344 459.535156 356.773438 459.292969 356.273438 459.035156 C 352.550781 457.792969 346.347656 456.050781 340.386719 456.308594 C 337.417969 456.550781 333.9375 457.304688 330.214844 458.792969 C 329.960938 459.035156 329.460938 459.292969 328.960938 459.535156 C 328.960938 459.535156 328.71875 459.777344 328.476562 459.777344 C 324.496094 462.773438 307.867188 472.710938 285.265625 460.777344 C 285.265625 460.777344 264.65625 449.097656 252.25 459.035156 C 252.25 459.035156 225.179688 474.195312 208.792969 460.035156 C 208.792969 460.035156 189.183594 451.339844 178.003906 459.292969 C 178.003906 459.292969 160.632812 467.742188 150.691406 465.746094 L 149.707031 476.9375 C 159.136719 480.164062 178.261719 470.726562 178.261719 470.726562 C 189.683594 463.015625 209.050781 471.710938 209.050781 471.710938 C 225.4375 485.632812 252.746094 470.46875 252.746094 470.46875 C 264.914062 460.535156 285.519531 472.453125 285.519531 472.453125 C 308.109375 484.144531 324.753906 474.195312 328.71875 471.46875 C 329.21875 471.210938 329.460938 470.96875 329.460938 470.96875 C 329.71875 470.726562 330.214844 470.726562 330.703125 470.46875 C 334.425781 468.984375 337.660156 468.242188 340.640625 467.742188 C 346.84375 467.742188 352.804688 469.226562 356.527344 470.46875 C 357.027344 470.726562 357.269531 470.96875 357.269531 470.96875 L 357.269531 470.726562 C 359.011719 471.46875 360.25 471.96875 360.25 471.96875 C 376.394531 485.886719 403.707031 470.726562 403.707031 470.726562 C 416.113281 460.777344 436.722656 472.710938 436.722656 472.710938 C 462.546875 486.132812 480.675781 470.96875 480.675781 470.96875 C 498.800781 463.761719 508.226562 471.210938 508.226562 471.210938 Z M 507.984375 459.777344"></path>
  </g>
</svg>