<?xml version="1.0" encoding="UTF-8" standalone="yes"?>
<svg xmlns:svg="http://www.w3.org/2000/svg" xmlns="http://www.w3.org/2000/svg" version="1.1" width="600" height="525" id="svg3069" viewBox="0 0 600 525">
  <defs id="defs3073"></defs>
  <path d="M 597.6,499.6 313.8,8 C 310.9,3 305.6,0 299.9,0 294.2,0 288.9,3.1 286,8 L 2.2,499.6 c -2.9,5 -2.9,11.1 0,16 2.9,5 8.2,8 13.9,8 h 567.6 c 5.7,0 11,-3.1 13.9,-8 2.9,-5 2.9,-11.1 0,-16 z" id="sign_border"></path>
  <polygon points="43.875,491.5 299.875,48.2 555.875,491.5" transform="matrix(1,0,0,0.99591458,0.125,2.0332437)" id="polygon7" style="fill:#f6bd16;fill-opacity:1;stroke:none;overflow:visible"></polygon>
  <g transform="translate(668.93985,0)" id="g4345">
    <g transform="matrix(1.079838,0,0,1.079838,6.9109,-9.025744)" id="g2853">
      <path d="m -345.00568,132.20711 c 0,0 27.77441,44.72019 -19.62085,66.69676 -18.55697,8.60463 -43.42358,15.09235 -21.44701,57.45682" id="path1936" style="fill:none;stroke:#000000;stroke-width:8.20333099;stroke-linecap:butt;stroke-linejoin:miter;stroke-miterlimit:4;stroke-opacity:1;stroke-dasharray:none"></path>
      <path d="m -362.7458,165.56913 c 2.11822,22.50613 48.29592,16.04838 50.04303,43.15881 1.72926,26.83348 -33.48118,29.47642 -55.07381,27.53691 -67.57545,-6.06982 -50.68029,28.89325 -13.61138,22.00902" id="path1940" style="fill:none;stroke:#000000;stroke-width:8.20333099;stroke-linecap:butt;stroke-linejoin:miter;stroke-miterlimit:4;stroke-opacity:1;stroke-dasharray:none"></path>
    </g>
    <g transform="matrix(1.079838,0,0,1.079838,6.9109,-9.025744)" id="g1961" style="fill:#000000;stroke:none">
      <path d="m -322.5,276.78125 0,14.75 -64.0625,0 0,-14.5 -26.21875,0 0,14.5 -31.34375,0 0,110.8125 88,0 c 2.61035,2.88082 5.907,6.52113 7.6875,11.28125 4.90635,13.11697 22.91432,17.71944 38.84375,17.21875 43.9276,-1.38073 28.00556,2.8286 50.5,6.65625 16.08419,2.74698 14.68901,11.9111 59.90625,7.75 11.54211,-1.06872 18.33541,-8.237 17.5,-15.8125 -2.05041,-18.75855 -21.62537,-9.07375 -21.65625,-28.84375 -0.0232,-14.91847 -5.23367,-19.52926 -16.09375,-19.40625 -30.98545,0.35097 -34.85584,2.97688 -36.34375,-21.65625 -0.009,0.0115 -0.0225,0.0197 -0.0312,0.0312 l 0,-68.03125 -0.625,0 C -256.91912,281.31466 -259.72501,281 -265.5625,281 l -26.75,0 c -4.1925,0.22459 -5.03125,-4.21875 -5.03125,-4.21875 l -25.15625,0 z M -433.71875,303 l 157.28125,0 0,87.90625 -157.28125,0 0,-87.90625 z" id="rect1934" style="fill:#000000;fill-opacity:1;stroke:none"></path>
      <path d="m -414.125,310.40625 0,12.1875 -12.15625,0 0,10.0625 12.15625,0 0,12.15625 10.0625,0 0,-12.15625 12.1875,0 0,-10.0625 -12.1875,0 0,-12.1875 -10.0625,0 z" id="rect1944" style="fill:#000000;fill-opacity:1;stroke:none"></path>
      <rect width="34.421135" height="10.061563" x="-317.99832" y="322.58246" id="rect1942" style="fill:#000000;fill-opacity:1;stroke:none"></rect>
    </g>
  </g>
</svg>