<?xml version="1.0" encoding="UTF-8" standalone="yes"?>
<svg xmlns:svg="http://www.w3.org/2000/svg" xmlns="http://www.w3.org/2000/svg" version="1.1" width="400" height="400" viewBox="0 0 609 609" id="svg2">
  <defs></defs>
  <g style="fill-opacity:1;fill-rule:nonzero;stroke:none">
    <path d="M 0.495,0.51 605.91,1 605.91,607.9 0.495,607.9 z" style="fill:#008855;"></path>
    <path d="M 255.67,56.17 256.16,91.15 C 356.65,55.19 492.12,125.14 494.09,264.05 L 438.92,263.56 C 440.89,175.88 349.26,106.91 255.67,149.77 L 255.67,234.01 C 208.7,269.64 212.97,360.94 255.17,392.63 L 255.17,552.72 C 255.17,552.72 507.39,554.2 506.9,554.2 506.41,554.2 507.39,56.17 507.39,56.17 z" style="fill:#ffffff;"></path>
    <path d="M 279.31,229.08 C 347.95,254.53 331.36,386.88 279.8,397.06 L 384.24,396.57 C 438.43,384.91 448.77,250.59 382.76,228.59 z" style="fill:#008855;"></path>
    <path d="M 256.16,90.66 255.67,149.77 C 210.84,173.09 194.58,205.76 186.7,246.32 L 219.71,246.81 160.59,314.3 100.49,247.8 131.53,246.32 C 133.99,197.06 176.85,114.79 256.16,90.66 z" style="fill:#ffffff;"></path>
  </g>
</svg>