<?xml version="1.0" encoding="UTF-8" standalone="yes"?>
<svg xmlns="http://www.w3.org/2000/svg" xmlns:xlink="http://www.w3.org/1999/xlink" width="685pt" height="600pt" viewBox="0 0 685 600" version="1.1">
  <g id="surface1">
    <path style="fill-rule:evenodd;fill:rgb(0.784314%,1.960784%,1.960784%);fill-opacity:1;stroke-width:0.127844;stroke-linecap:butt;stroke-linejoin:miter;stroke:rgb(0.784314%,1.960784%,1.960784%);stroke-opacity:1;stroke-miterlimit:2.613;" d="M 197.46208 164.743687 L 104.11927 2.938542 L 103.544526 2.076193 L 102.826095 1.430844 L 102.032993 0.853307 L 101.099599 0.423828 L 100.165073 0.134495 L 99.158139 0.0644219 L 98.150073 0.134495 L 97.146533 0.423828 L 96.283285 0.853307 L 95.420036 1.430844 L 94.77062 2.076193 L 94.197007 2.938542 L 0.853066 164.743687 L 0.423139 165.67724 L 0.134635 166.610792 L 0.0644891 167.618937 L 0.134635 168.627083 L 0.423139 169.630708 L 0.853066 170.494188 L 1.42781 171.356536 L 2.076095 172.005276 L 2.939343 172.579422 L 3.802591 173.013422 L 4.810657 173.302755 L 5.814197 173.372828 L 192.50208 173.372828 L 193.50562 173.302755 L 194.442409 173.013422 L 195.376934 172.579422 L 196.170036 172.005276 L 196.888467 171.356536 L 197.46208 170.494188 L 197.892007 169.630708 L 198.181642 168.627083 L 198.251788 167.618937 L 198.181642 166.610792 L 197.892007 165.67724 Z M 197.46208 164.743687" transform="matrix(3.452621,0,0,3.456221,0,0)"></path>
    <path style="fill-rule:evenodd;fill:rgb(92.156863%,74.901961%,16.862745%);fill-opacity:1;stroke-width:0.127844;stroke-linecap:butt;stroke-linejoin:miter;stroke:rgb(0.784314%,1.960784%,1.960784%);stroke-opacity:1;stroke-miterlimit:2.613;" d="M 99.158139 18.110458 L 181.856861 161.505641 L 16.458285 161.505641 Z M 99.158139 18.110458" transform="matrix(3.452621,0,0,3.456221,0,0)"></path>
    <path style="fill-rule:evenodd;fill:rgb(0.784314%,1.960784%,1.960784%);fill-opacity:1;stroke-width:0.215738;stroke-linecap:butt;stroke-linejoin:miter;stroke:rgb(0.784314%,1.960784%,1.960784%);stroke-opacity:1;stroke-miterlimit:2.613;" d="M 128.583248 98.903401 L 115.486314 84.36101 L 112.657847 86.935625 L 125.720839 101.478016 Z M 128.583248 98.903401" transform="matrix(3.452621,0,0,3.456221,0,0)"></path>
    <path style="fill-rule:evenodd;fill:rgb(0.784314%,1.960784%,1.960784%);fill-opacity:1;stroke-width:0.215738;stroke-linecap:butt;stroke-linejoin:miter;stroke:rgb(0.784314%,1.960784%,1.960784%);stroke-opacity:1;stroke-miterlimit:2.613;" d="M 101.044161 79.208391 L 91.900292 82.583193 L 93.208175 86.173865 L 102.388248 82.762896 Z M 101.044161 79.208391" transform="matrix(3.452621,0,0,3.456221,0,0)"></path>
    <path style="fill-rule:evenodd;fill:rgb(0.784314%,1.960784%,1.960784%);fill-opacity:1;stroke-width:0.215738;stroke-linecap:butt;stroke-linejoin:miter;stroke:rgb(0.784314%,1.960784%,1.960784%);stroke-opacity:1;stroke-miterlimit:2.613;" d="M 96.001569 104.490021 L 97.778978 108.626583 L 86.458321 113.559943 L 84.680912 109.42338 Z M 96.001569 104.490021" transform="matrix(3.452621,0,0,3.456221,0,0)"></path>
    <path style="fill-rule:evenodd;fill:rgb(0.784314%,1.960784%,1.960784%);fill-opacity:1;stroke-width:0.215738;stroke-linecap:butt;stroke-linejoin:miter;stroke:rgb(0.784314%,1.960784%,1.960784%);stroke-opacity:1;stroke-miterlimit:2.613;" d="M 118.423394 117.438818 L 114.615146 119.833729 L 101.51708 98.868365 L 105.325328 96.474583 Z M 118.423394 117.438818" transform="matrix(3.452621,0,0,3.456221,0,0)"></path>
    <path style="fill-rule:evenodd;fill:rgb(0.784314%,1.960784%,1.960784%);fill-opacity:1;stroke-width:0.215738;stroke-linecap:butt;stroke-linejoin:miter;stroke:rgb(0.784314%,1.960784%,1.960784%);stroke-opacity:1;stroke-miterlimit:2.613;" d="M 129.056168 100.173755 L 128.946423 99.595089 L 128.692993 99.087625 L 128.259672 98.650234 L 127.751679 98.360901 L 127.133942 98.286307 L 126.552409 98.360901 L 126.009343 98.650234 L 125.611095 99.087625 L 125.318066 99.595089 L 125.24792 100.173755 L 125.318066 100.790849 L 125.611095 101.298312 L 126.009343 101.732313 L 126.552409 102.025036 L 127.133942 102.09963 L 127.751679 102.025036 L 128.259672 101.732313 L 128.692993 101.298312 L 128.946423 100.790849 Z M 129.056168 100.173755" transform="matrix(3.452621,0,0,3.456221,0,0)"></path>
    <path style="fill-rule:evenodd;fill:rgb(0.784314%,1.960784%,1.960784%);fill-opacity:1;stroke-width:0.215738;stroke-linecap:butt;stroke-linejoin:miter;stroke:rgb(0.784314%,1.960784%,1.960784%);stroke-opacity:1;stroke-miterlimit:2.613;" d="M 103.622591 80.986208 L 103.54792 80.404151 L 103.259416 79.860521 L 102.856642 79.427651 L 102.313577 79.173354 L 101.732044 79.063724 L 101.118832 79.173354 L 100.610839 79.427651 L 100.172993 79.860521 L 99.919562 80.404151 L 99.809818 80.986208 L 99.919562 81.568266 L 100.172993 82.110766 L 100.610839 82.544766 L 101.118832 82.797932 L 101.732044 82.907562 L 102.313577 82.797932 L 102.856642 82.544766 L 103.259416 82.110766 L 103.54792 81.568266 Z M 103.622591 80.986208" transform="matrix(3.452621,0,0,3.456221,0,0)"></path>
    <path style="fill-rule:evenodd;fill:rgb(0.784314%,1.960784%,1.960784%);fill-opacity:1;stroke-width:0.215738;stroke-linecap:butt;stroke-linejoin:miter;stroke:rgb(0.784314%,1.960784%,1.960784%);stroke-opacity:1;stroke-miterlimit:2.613;" d="M 94.477591 84.396047 L 94.368978 83.778953 L 94.114416 83.27149 L 93.681095 82.83749 L 93.134635 82.583193 L 92.551971 82.474693 L 91.973832 82.583193 L 91.427372 82.83749 L 90.994051 83.27149 L 90.739489 83.778953 L 90.630876 84.396047 L 90.739489 84.974714 L 90.994051 85.520604 L 91.427372 85.919568 L 91.973832 86.208901 L 92.551971 86.282365 L 93.134635 86.208901 L 93.681095 85.919568 L 94.114416 85.520604 L 94.368978 84.974714 Z M 94.477591 84.396047" transform="matrix(3.452621,0,0,3.456221,0,0)"></path>
    <path style="fill-rule:evenodd;fill:rgb(0.784314%,1.960784%,1.960784%);fill-opacity:1;stroke-width:0.215738;stroke-linecap:butt;stroke-linejoin:miter;stroke:rgb(0.784314%,1.960784%,1.960784%);stroke-opacity:1;stroke-miterlimit:2.613;" d="M 115.993175 85.665271 L 115.884562 85.048177 L 115.63 84.540714 L 115.196679 84.106714 L 114.653613 83.853547 L 114.07208 83.743917 L 113.489416 83.853547 L 112.94635 84.106714 L 112.548102 84.540714 L 112.255073 85.048177 L 112.184927 85.665271 L 112.255073 86.243938 L 112.548102 86.790958 L 112.94635 87.188792 L 113.489416 87.478125 L 114.07208 87.552719 L 114.653613 87.478125 L 115.196679 87.188792 L 115.63 86.790958 L 115.884562 86.243938 Z M 115.993175 85.665271" transform="matrix(3.452621,0,0,3.456221,0,0)"></path>
    <path style="fill-rule:evenodd;fill:rgb(0.784314%,1.960784%,1.960784%);fill-opacity:1;stroke-width:0.215738;stroke-linecap:butt;stroke-linejoin:miter;stroke:rgb(0.784314%,1.960784%,1.960784%);stroke-opacity:1;stroke-miterlimit:2.613;" d="M 113.165839 83.05675 L 113.091168 82.474693 L 112.802664 81.931062 L 112.399891 81.528708 L 111.856825 81.239375 L 111.278686 81.130875 L 110.697153 81.239375 L 110.154088 81.528708 L 109.716241 81.931062 L 109.46281 82.474693 L 109.353066 83.05675 L 109.46281 83.634286 L 109.716241 84.176786 L 110.154088 84.615307 L 110.697153 84.868474 L 111.278686 84.974714 L 111.856825 84.868474 L 112.399891 84.615307 L 112.802664 84.176786 L 113.091168 83.634286 Z M 113.165839 83.05675" transform="matrix(3.452621,0,0,3.456221,0,0)"></path>
    <path style="fill-rule:evenodd;fill:rgb(0.784314%,1.960784%,1.960784%);fill-opacity:1;stroke-width:0.215738;stroke-linecap:butt;stroke-linejoin:miter;stroke:rgb(0.784314%,1.960784%,1.960784%);stroke-opacity:1;stroke-miterlimit:2.613;" d="M 99.158139 106.556042 L 99.048394 105.868875 L 98.723686 105.251781 L 98.212299 104.743188 L 97.599088 104.419948 L 96.90781 104.310318 L 96.219927 104.419948 L 95.568248 104.743188 L 95.095328 105.251781 L 94.767226 105.868875 L 94.657482 106.556042 L 94.767226 107.247729 L 95.095328 107.899859 L 95.568248 108.372286 L 96.219927 108.696656 L 96.90781 108.806286 L 97.599088 108.696656 L 98.212299 108.372286 L 98.723686 107.899859 L 99.048394 107.247729 Z M 99.158139 106.556042" transform="matrix(3.452621,0,0,3.456221,0,0)"></path>
    <path style="fill-rule:evenodd;fill:rgb(0.784314%,1.960784%,1.960784%);fill-opacity:1;stroke-width:0.215738;stroke-linecap:butt;stroke-linejoin:miter;stroke:rgb(0.784314%,1.960784%,1.960784%);stroke-opacity:1;stroke-miterlimit:2.613;" d="M 102.34865 94.622172 L 102.243431 93.935005 L 101.950401 93.317911 L 101.442409 92.810448 L 100.829197 92.486078 L 100.099453 92.376448 L 99.411569 92.486078 L 98.794964 92.810448 L 98.286971 93.317911 L 97.997336 93.935005 L 97.888723 94.622172 L 97.997336 95.313859 L 98.286971 95.96599 L 98.794964 96.439547 L 99.411569 96.762786 L 100.099453 96.872417 L 100.829197 96.762786 L 101.442409 96.439547 L 101.950401 95.96599 L 102.243431 95.313859 Z M 102.34865 94.622172" transform="matrix(3.452621,0,0,3.456221,0,0)"></path>
    <path style="fill-rule:evenodd;fill:rgb(0.784314%,1.960784%,1.960784%);fill-opacity:1;stroke-width:0.215738;stroke-linecap:butt;stroke-linejoin:miter;stroke:rgb(0.784314%,1.960784%,1.960784%);stroke-opacity:1;stroke-miterlimit:2.613;" d="M 105.653431 97.673734 L 105.544818 96.982047 L 105.255182 96.364953 L 104.74719 95.85749 L 104.130584 95.53312 L 103.404234 95.42349 L 102.71635 95.53312 L 102.095219 95.85749 L 101.587226 96.364953 L 101.298723 96.982047 L 101.188978 97.673734 L 101.298723 98.360901 L 101.587226 99.013031 L 102.095219 99.485458 L 102.71635 99.809828 L 103.404234 99.919458 L 104.130584 99.809828 L 104.74719 99.485458 L 105.255182 99.013031 L 105.544818 98.360901 Z M 105.653431 97.673734" transform="matrix(3.452621,0,0,3.456221,0,0)"></path>
    <path style="fill-rule:evenodd;fill:rgb(0.784314%,1.960784%,1.960784%);fill-opacity:1;stroke-width:0.215738;stroke-linecap:butt;stroke-linejoin:miter;stroke:rgb(0.784314%,1.960784%,1.960784%);stroke-opacity:1;stroke-miterlimit:2.613;" d="M 118.786569 118.634578 L 118.641752 117.947411 L 118.353248 117.329188 L 117.845255 116.821724 L 117.22865 116.497354 L 116.536241 116.387724 L 115.814416 116.497354 L 115.196679 116.821724 L 114.688686 117.329188 L 114.395657 117.947411 L 114.290438 118.634578 L 114.395657 119.326266 L 114.688686 119.978396 L 115.196679 120.450823 L 115.814416 120.775193 L 116.536241 120.884823 L 117.22865 120.775193 L 117.845255 120.450823 L 118.353248 119.978396 L 118.641752 119.326266 Z M 118.786569 118.634578" transform="matrix(3.452621,0,0,3.456221,0,0)"></path>
    <path style="fill-rule:evenodd;fill:rgb(0.784314%,1.960784%,1.960784%);fill-opacity:1;stroke-width:0.215738;stroke-linecap:butt;stroke-linejoin:miter;stroke:rgb(0.784314%,1.960784%,1.960784%);stroke-opacity:1;stroke-miterlimit:2.613;" d="M 87.802409 111.489401 L 87.692664 110.802234 L 87.364562 110.150104 L 86.891642 109.677677 L 86.239964 109.348786 L 85.55208 109.243677 L 84.860803 109.348786 L 84.244197 109.677677 L 83.736204 110.150104 L 83.411496 110.802234 L 83.302883 111.489401 L 83.411496 112.181089 L 83.736204 112.794792 L 84.244197 113.306776 L 84.860803 113.630016 L 85.55208 113.739646 L 86.239964 113.630016 L 86.891642 113.306776 L 87.364562 112.794792 L 87.692664 112.181089 Z M 87.802409 111.489401" transform="matrix(3.452621,0,0,3.456221,0,0)"></path>
    <path style="fill-rule:evenodd;fill:rgb(0.784314%,1.960784%,1.960784%);fill-opacity:1;stroke-width:0.215738;stroke-linecap:butt;stroke-linejoin:miter;stroke:rgb(0.784314%,1.960784%,1.960784%);stroke-opacity:1;stroke-miterlimit:2.613;" d="M 121.255255 79.063724 L 121.181715 78.231891 L 120.89208 77.46674 L 120.458759 76.778443 L 119.876095 76.161349 L 119.149745 75.728479 L 118.388321 75.474182 L 117.556752 75.364552 L 116.720657 75.474182 L 115.958102 75.728479 L 115.231752 76.161349 L 114.653613 76.778443 L 114.216898 77.46674 L 113.927263 78.231891 L 113.852591 79.063724 L 113.927263 79.900078 L 114.216898 80.696875 L 114.653613 81.384042 L 115.231752 81.966099 L 115.958102 82.400099 L 116.720657 82.692823 L 117.556752 82.762896 L 118.388321 82.692823 L 119.149745 82.400099 L 119.876095 81.966099 L 120.458759 81.384042 L 120.89208 80.696875 L 121.181715 79.900078 Z M 121.255255 79.063724" transform="matrix(3.452621,0,0,3.456221,0,0)"></path>
    <path style="fill-rule:evenodd;fill:rgb(0.784314%,1.960784%,1.960784%);fill-opacity:1;stroke-width:0.215738;stroke-linecap:butt;stroke-linejoin:miter;stroke:rgb(0.784314%,1.960784%,1.960784%);stroke-opacity:1;stroke-miterlimit:2.613;" d="M 132.829343 91.614688 L 132.904015 92.048687 L 132.904015 92.521115 L 132.72073 93.462578 L 132.540839 93.860411 L 132.286277 94.262766 L 131.997774 94.622172 L 131.599526 94.88099 L 131.161679 95.095729 L 130.728358 95.204229 L 129.782518 95.275432 L 128.876277 95.204229 L 127.931569 95.059562 L 123.938905 90.563594 L 128.329818 91.68476 L 129.454416 91.868984 L 130.580146 91.904021 L 131.704745 91.794391 Z M 132.829343 91.614688" transform="matrix(3.452621,0,0,3.456221,0,0)"></path>
    <path style="fill-rule:evenodd;fill:rgb(0.784314%,1.960784%,1.960784%);fill-opacity:1;stroke-width:0.215738;stroke-linecap:butt;stroke-linejoin:miter;stroke:rgb(0.784314%,1.960784%,1.960784%);stroke-opacity:1;stroke-miterlimit:2.613;" d="M 98.794964 89.653776 L 95.603321 93.103172 L 94.622409 92.810448 L 93.642628 92.486078 L 91.790547 91.68476 L 89.942993 90.852927 L 88.055839 90.126203 L 87.076058 89.838 L 86.095146 89.583703 L 85.079161 89.439036 L 84.09938 89.329406 L 83.083394 89.290979 L 82.067409 89.364443 L 81.052555 89.509109 L 80.071642 89.72837 L 78.110949 90.310427 L 77.204708 90.70826 L 76.298467 91.177297 L 74.446387 92.048687 L 73.505073 92.446521 L 72.560365 92.739245 L 71.579453 92.993542 L 70.564599 93.138208 L 70.056606 93.173245 L 69.548613 93.103172 L 69.075693 92.918948 L 68.642372 92.665781 L 67.844745 92.048687 L 67.481569 91.68476 L 67.228139 91.251891 L 67.009781 90.778333 L 66.829891 90.310427 L 66.790292 89.798443 L 66.829891 89.290979 L 67.844745 89.509109 L 68.86073 89.61874 L 69.403796 89.61874 L 69.911788 89.548667 L 70.927774 89.329406 L 71.907555 89.001646 L 72.888467 88.637719 L 74.810693 87.840922 L 76.736314 87.009089 L 77.677628 86.571698 L 78.657409 86.243938 L 79.673394 85.994161 L 80.68938 85.774901 L 82.759818 85.630234 L 84.860803 85.630234 L 85.876788 85.739865 L 86.931241 85.919568 L 87.947226 86.138828 L 88.923613 86.462068 L 89.903394 86.825995 L 90.849234 87.258865 L 92.736387 88.095219 L 94.692555 88.856979 L 95.673467 89.18474 L 96.72792 89.364443 Z M 98.794964 89.653776" transform="matrix(3.452621,0,0,3.456221,0,0)"></path>
    <path style="fill-rule:evenodd;fill:rgb(0.784314%,1.960784%,1.960784%);fill-opacity:1;stroke-width:0.215738;stroke-linecap:butt;stroke-linejoin:miter;stroke:rgb(0.784314%,1.960784%,1.960784%);stroke-opacity:1;stroke-miterlimit:2.613;" d="M 163.271569 144.388635 L 168.78708 153.927594 L 29.529197 153.927594 L 54.130073 111.274661 L 82.759818 118.419839 L 98.286971 144.388635 Z M 163.271569 144.388635" transform="matrix(3.452621,0,0,3.456221,0,0)"></path>
    <path style="fill-rule:evenodd;fill:rgb(0.784314%,1.960784%,1.960784%);fill-opacity:1;stroke-width:0.215738;stroke-linecap:butt;stroke-linejoin:miter;stroke:rgb(0.784314%,1.960784%,1.960784%);stroke-opacity:1;stroke-miterlimit:2.613;" d="M 102.278504 95.204229 L 99.048394 107.138099 L 94.732153 105.978505 L 97.958869 94.044635 Z M 102.278504 95.204229" transform="matrix(3.452621,0,0,3.456221,0,0)"></path>
    <path style="fill-rule:evenodd;fill:rgb(0.784314%,1.960784%,1.960784%);fill-opacity:1;stroke-width:0.215738;stroke-linecap:butt;stroke-linejoin:miter;stroke:rgb(0.784314%,1.960784%,1.960784%);stroke-opacity:1;stroke-miterlimit:2.613;" d="M 114.688686 88.821943 L 115.376569 84.25138 L 112.583175 81.638339 L 108.08365 82.692823 L 98.470255 93.103172 L 105.071898 99.192734 Z M 114.688686 88.821943" transform="matrix(3.452621,0,0,3.456221,0,0)"></path>
    <path style="fill-rule:evenodd;fill:rgb(0.784314%,1.960784%,1.960784%);fill-opacity:1;stroke-width:0.215738;stroke-linecap:butt;stroke-linejoin:miter;stroke:rgb(0.784314%,1.960784%,1.960784%);stroke-opacity:1;stroke-miterlimit:2.613;" d="M 111.676934 81.204339 L 102.134818 79.09876 L 101.298723 82.83749 L 110.877044 84.938547 Z M 111.676934 81.204339" transform="matrix(3.452621,0,0,3.456221,0,0)"></path>
  </g>
</svg>