<?xml version="1.0" encoding="UTF-8" standalone="yes"?>
<svg xmlns="http://www.w3.org/2000/svg" xmlns:xlink="http://www.w3.org/1999/xlink" width="685pt" height="600pt" viewBox="0 0 685 600" version="1.1">
  <g id="surface1">
    <path style="fill-rule:evenodd;fill:rgb(0.784314%,1.960784%,1.960784%);fill-opacity:1;stroke-width:0.127844;stroke-linecap:butt;stroke-linejoin:miter;stroke:rgb(0.784314%,1.960784%,1.960784%);stroke-opacity:1;stroke-miterlimit:2.613;" d="M 197.46208 164.743687 L 104.122664 2.943062 L 103.544526 2.079583 L 102.826095 1.430844 L 102.036387 0.856698 L 101.099599 0.423828 L 100.165073 0.137885 L 99.158139 0.0644219 L 98.153467 0.137885 L 97.146533 0.423828 L 96.283285 0.856698 L 95.420036 1.430844 L 94.77062 2.079583 L 94.197007 2.943062 L 0.857591 164.743687 L 0.423139 165.67724 L 0.134635 166.615312 L 0.0644891 167.622328 L 0.134635 168.627083 L 0.423139 169.634099 L 0.857591 170.497578 L 1.431204 171.361057 L 2.076095 172.009797 L 2.939343 172.583943 L 3.802591 173.013422 L 4.810657 173.302755 L 5.817591 173.372828 L 192.50208 173.372828 L 193.509015 173.302755 L 194.442409 173.013422 L 195.376934 172.583943 L 196.170036 172.009797 L 196.888467 171.361057 L 197.46208 170.497578 L 197.896533 169.634099 L 198.181642 168.627083 L 198.255182 167.622328 L 198.181642 166.615312 L 197.896533 165.67724 Z M 197.46208 164.743687" transform="matrix(3.452621,0,0,3.456221,0,0)"></path>
    <path style="fill-rule:evenodd;fill:rgb(92.156863%,74.901961%,16.862745%);fill-opacity:1;stroke-width:0.127844;stroke-linecap:butt;stroke-linejoin:miter;stroke:rgb(0.784314%,1.960784%,1.960784%);stroke-opacity:1;stroke-miterlimit:2.613;" d="M 99.158139 18.114979 L 181.856861 161.509031 L 16.458285 161.509031 Z M 99.158139 18.114979" transform="matrix(3.452621,0,0,3.456221,0,0)"></path>
    <path style="stroke:none;fill-rule:evenodd;fill:rgb(0.784314%,1.960784%,1.960784%);fill-opacity:1;" d="M 418.582031 488.859375 C 409.140625 487.871094 401.210938 483.148438 392.269531 480.664062 C 383.824219 478.421875 375.625 478.421875 367.441406 479.164062 C 357.5 479.921875 349.554688 484.632812 340.117188 487.371094 C 331.929688 489.855469 323.242188 489.359375 314.800781 487.871094 C 314.058594 493.839844 318.523438 499.308594 323.984375 499.550781 C 335.410156 500.050781 346.078125 496.566406 356.757812 492.097656 C 361.476562 490.601562 366.199219 489.359375 371.40625 488.859375 C 383.570312 487.871094 394.496094 492.097656 405.675781 496.566406 C 412.378906 499.050781 419.578125 500.550781 426.78125 500.308594 C 433.726562 500.308594 440.929688 499.050781 447.886719 496.566406 C 458.8125 492.097656 469.980469 487.871094 482.144531 488.859375 C 487.109375 489.359375 491.828125 490.601562 496.792969 492.097656 C 507.21875 496.566406 517.898438 500.050781 529.320312 499.550781 C 535.027344 499.308594 539.246094 493.839844 538.507812 487.871094 C 530.304688 489.359375 521.621094 489.855469 513.179688 487.371094 C 503.738281 484.632812 495.792969 479.921875 486.125 479.164062 C 477.667969 478.421875 469.480469 478.421875 461.28125 480.664062 C 452.097656 483.148438 444.152344 487.871094 434.726562 488.859375 C 431.988281 489.359375 429.261719 489.613281 426.78125 489.613281 C 426.78125 489.613281 421.320312 489.359375 418.582031 488.859375"></path>
    <path style="stroke:none;fill-rule:evenodd;fill:rgb(0.784314%,1.960784%,1.960784%);fill-opacity:1;" d="M 418.582031 511.242188 C 409.140625 509.988281 401.210938 505.261719 392.269531 503.035156 C 383.824219 500.550781 375.625 500.550781 367.441406 501.292969 C 357.5 502.292969 349.554688 507.003906 340.117188 509.742188 C 331.929688 511.984375 323.242188 511.730469 314.800781 509.988281 C 314.058594 515.953125 318.523438 521.421875 323.984375 521.921875 C 335.410156 522.421875 346.078125 518.695312 356.757812 514.46875 C 361.476562 512.726562 366.199219 511.730469 371.40625 511.242188 C 383.570312 509.988281 394.496094 514.46875 405.675781 518.695312 C 412.378906 521.421875 419.578125 522.664062 426.78125 522.664062 C 433.726562 522.664062 440.929688 521.421875 447.886719 518.695312 C 458.8125 514.46875 469.980469 509.988281 482.144531 511.242188 C 487.109375 511.730469 491.828125 512.726562 496.792969 514.46875 C 507.21875 518.695312 517.898438 522.421875 529.320312 521.921875 C 535.027344 521.421875 539.246094 515.953125 538.507812 509.988281 C 530.304688 511.730469 521.621094 511.984375 513.179688 509.742188 C 503.738281 507.003906 495.792969 502.292969 486.125 501.292969 C 477.667969 500.550781 469.480469 500.550781 461.28125 503.035156 C 452.097656 505.261719 444.152344 509.988281 434.726562 511.242188 C 431.988281 511.730469 429.261719 511.984375 426.78125 511.730469 C 426.78125 511.730469 421.320312 511.730469 418.582031 511.242188"></path>
    <path style="stroke:none;fill-rule:evenodd;fill:rgb(0.784314%,1.960784%,1.960784%);fill-opacity:1;" d="M 288.472656 453.066406 L 161.105469 453.066406 L 220.703125 329.046875 L 288.472656 329.046875 Z M 288.472656 453.066406"></path>
    <path style="stroke:none;fill-rule:evenodd;fill:rgb(0.784314%,1.960784%,1.960784%);fill-opacity:1;" d="M 286.992188 463.015625 L 306.601562 463.015625 L 306.601562 319.113281 L 286.992188 319.113281 Z M 286.992188 463.015625"></path>
    <path style="fill:none;stroke-width:2.99636;stroke-linecap:butt;stroke-linejoin:miter;stroke:rgb(0.784314%,1.960784%,1.960784%);stroke-opacity:1;stroke-miterlimit:2.613;" d="M 90.744015 115.700557 C 104.696277 115.700557 115.986387 127.063672 115.986387 140.94263 M 91.177336 121.524521 C 101.388102 121.524521 109.587263 129.724182 109.587263 139.935615 M 91.177336 126.990208 C 98.294891 126.990208 104.11927 132.744099 104.11927 139.935615" transform="matrix(3.452621,0,0,3.456221,0,0)"></path>
  </g>
</svg>