<?xml version="1.0" encoding="UTF-8" standalone="yes"?>
<svg xmlns="http://www.w3.org/2000/svg" xmlns:xlink="http://www.w3.org/1999/xlink" width="685pt" height="600pt" viewBox="0 0 685 600" version="1.1">
  <g id="surface1">
    <path style="fill-rule:evenodd;fill:rgb(0.784314%,1.960784%,1.960784%);fill-opacity:1;stroke-width:0.127844;stroke-linecap:butt;stroke-linejoin:miter;stroke:rgb(0.784314%,1.960784%,1.960784%);stroke-opacity:1;stroke-miterlimit:2.613;" d="M 197.46208 164.743687 L 104.11927 2.943062 L 103.544526 2.079583 L 102.826095 1.430844 L 102.032993 0.856698 L 101.099599 0.423828 L 100.165073 0.137885 L 99.158139 0.0644219 L 98.150073 0.137885 L 97.146533 0.423828 L 96.283285 0.856698 L 95.420036 1.430844 L 94.77062 2.079583 L 94.197007 2.943062 L 0.853066 164.743687 L 0.423139 165.67724 L 0.134635 166.615312 L 0.0644891 167.622328 L 0.134635 168.627083 L 0.423139 169.634099 L 0.853066 170.497578 L 1.42781 171.361057 L 2.076095 172.009797 L 2.939343 172.583943 L 3.802591 173.013422 L 4.810657 173.302755 L 5.814197 173.372828 L 192.50208 173.372828 L 193.50562 173.302755 L 194.442409 173.013422 L 195.376934 172.583943 L 196.170036 172.009797 L 196.888467 171.361057 L 197.46208 170.497578 L 197.892007 169.634099 L 198.181642 168.627083 L 198.251788 167.622328 L 198.181642 166.615312 L 197.892007 165.67724 Z M 197.46208 164.743687" transform="matrix(3.452621,0,0,3.456221,0,0)"></path>
    <path style="fill-rule:evenodd;fill:rgb(92.156863%,74.901961%,16.862745%);fill-opacity:1;stroke-width:0.127844;stroke-linecap:butt;stroke-linejoin:miter;stroke:rgb(0.784314%,1.960784%,1.960784%);stroke-opacity:1;stroke-miterlimit:2.613;" d="M 99.158139 18.114979 L 181.856861 161.509031 L 16.458285 161.509031 Z M 99.158139 18.114979" transform="matrix(3.452621,0,0,3.456221,0,0)"></path>
    <path style="fill-rule:evenodd;fill:rgb(0.784314%,1.960784%,1.960784%);fill-opacity:1;stroke-width:0.027966;stroke-linecap:butt;stroke-linejoin:miter;stroke:rgb(0.784314%,1.960784%,1.960784%);stroke-opacity:1;stroke-miterlimit:2.613;" d="M 83.122993 143.965937 L 83.481642 153.935505 L 29.529197 153.935505 L 51.591241 115.71299 L 54.349562 112.451208 L 57.759562 112.411651 L 61.204635 112.231948 L 68.024635 111.904188 L 74.849161 111.689448 L 78.259161 111.649891 L 79.963029 111.689448 L 81.669161 111.869151 L 82.103613 111.942615 L 82.286898 112.012687 L 82.466788 112.161875 L 82.650073 112.556318 L 82.759818 112.958672 L 82.978175 114.661896 L 83.083394 116.36851 L 83.083394 118.071734 L 83.013248 121.478182 L 82.868431 124.888021 L 82.759818 126.591245 L 82.720219 127.462635 L 82.685146 127.900026 L 82.794891 128.297859 L 82.903504 129.130823 L 82.903504 130.001083 L 82.759818 131.704307 L 82.540328 133.412052 L 82.251825 135.079109 L 81.923723 136.747297 L 81.524343 138.415484 L 82.032336 138.994151 L 82.14208 139.864411 L 82.286898 140.700766 L 82.540328 141.532599 L 82.978175 142.294359 Z M 83.122993 143.965937" transform="matrix(3.452621,0,0,3.456221,0,0)"></path>
    <path style="fill-rule:evenodd;fill:rgb(0.784314%,1.960784%,1.960784%);fill-opacity:1;stroke-width:0.027966;stroke-linecap:butt;stroke-linejoin:miter;stroke:rgb(0.784314%,1.960784%,1.960784%);stroke-opacity:1;stroke-miterlimit:2.613;" d="M 87.275182 117.997141 L 87.619124 117.708938 L 87.837482 117.380047 L 87.947226 117.055677 L 88.020766 116.657844 L 87.982299 116.295047 L 87.872555 115.896083 L 87.727737 115.568323 L 87.50938 115.243953 L 86.966314 114.696932 L 86.641606 114.517229 L 86.239964 114.407599 L 85.880182 114.442635 L 85.517007 114.552266 L 85.333723 114.626859 L 85.153832 114.587302 L 84.751058 114.661896 L 84.462555 114.915063 L 84.282664 115.243953 L 84.207993 115.641786 L 84.207993 116.005714 L 84.317737 116.762953 L 84.680912 117.454641 L 84.900401 117.77901 L 85.153832 118.036698 L 85.443467 118.290995 L 85.806642 118.431141 L 86.169818 118.505734 L 86.568066 118.396104 Z M 87.275182 117.997141" transform="matrix(3.452621,0,0,3.456221,0,0)"></path>
    <path style="fill-rule:evenodd;fill:rgb(0.784314%,1.960784%,1.960784%);fill-opacity:1;stroke-width:0.027966;stroke-linecap:butt;stroke-linejoin:miter;stroke:rgb(0.784314%,1.960784%,1.960784%);stroke-opacity:1;stroke-miterlimit:2.613;" d="M 86.493394 123.7985 L 86.239964 123.90813 L 85.950328 123.946557 L 85.661825 123.90813 L 85.407263 123.763464 L 85.188905 123.58376 L 84.970547 123.3645 L 84.715985 122.896594 L 84.607372 122.60274 L 84.572299 122.314536 L 84.607372 122.025203 L 84.645839 121.732479 L 84.970547 121.263443 L 85.368796 120.864479 L 85.880182 120.571755 L 86.278431 120.173922 L 86.388175 120.102719 L 86.532993 120.064292 L 86.821496 120.173922 L 87.294416 120.462125 L 88.165584 121.223885 L 88.997153 122.06024 L 89.653358 122.747406 L 89.579818 122.966667 L 89.470073 123.184797 L 89.141971 123.58376 L 88.743723 123.90813 L 88.310401 124.161297 L 87.837482 124.310484 L 87.329489 124.310484 L 87.076058 124.270927 L 86.856569 124.12626 L 86.67781 124.01663 Z M 86.493394 123.7985" transform="matrix(3.452621,0,0,3.456221,0,0)"></path>
    <path style="fill-rule:evenodd;fill:rgb(0.784314%,1.960784%,1.960784%);fill-opacity:1;stroke-width:0.027966;stroke-linecap:butt;stroke-linejoin:miter;stroke:rgb(0.784314%,1.960784%,1.960784%);stroke-opacity:1;stroke-miterlimit:2.613;" d="M 87.149599 128.334026 L 86.966314 128.005135 L 86.67781 127.790396 L 86.493394 127.716932 L 86.278431 127.716932 L 85.915255 127.825432 L 85.587153 128.005135 L 85.29865 128.259432 L 85.044088 128.552156 L 84.865328 128.84149 L 84.865328 129.27549 L 84.790657 129.673323 L 84.537226 130.474641 L 84.317737 131.306474 L 84.282664 131.704307 L 84.282664 131.923568 L 84.35281 132.106661 L 84.751058 132.829995 L 85.044088 133.157755 L 85.368796 133.412052 L 85.735365 133.556719 L 86.169818 133.591755 L 86.568066 133.521682 L 86.966314 133.372495 L 87.657591 132.903458 L 88.275328 132.321401 L 88.563832 132.068234 L 88.818394 131.704307 L 88.997153 131.344901 L 89.071825 130.942547 L 88.997153 130.509677 L 88.891934 130.110714 L 88.673577 129.747917 L 88.419015 129.419026 L 87.802409 128.84149 Z M 87.149599 128.334026" transform="matrix(3.452621,0,0,3.456221,0,0)"></path>
    <path style="fill-rule:evenodd;fill:rgb(0.784314%,1.960784%,1.960784%);fill-opacity:1;stroke-width:0.027966;stroke-linecap:butt;stroke-linejoin:miter;stroke:rgb(0.784314%,1.960784%,1.960784%);stroke-opacity:1;stroke-miterlimit:2.613;" d="M 123.688869 79.047901 L 125.068029 82.747073 L 115.669599 86.302708 L 114.251971 82.638573 Z M 123.688869 79.047901" transform="matrix(3.452621,0,0,3.456221,0,0)"></path>
    <path style="fill-rule:evenodd;fill:rgb(0.784314%,1.960784%,1.960784%);fill-opacity:1;stroke-width:0.027966;stroke-linecap:butt;stroke-linejoin:miter;stroke:rgb(0.784314%,1.960784%,1.960784%);stroke-opacity:1;stroke-miterlimit:2.613;" d="M 95.060255 64.400401 L 91.102664 64.400401 L 91.138869 74.481859 L 95.060255 74.481859 Z M 95.060255 64.400401" transform="matrix(3.452621,0,0,3.456221,0,0)"></path>
    <path style="fill-rule:evenodd;fill:rgb(0.784314%,1.960784%,1.960784%);fill-opacity:1;stroke-width:0.027966;stroke-linecap:butt;stroke-linejoin:miter;stroke:rgb(0.784314%,1.960784%,1.960784%);stroke-opacity:1;stroke-miterlimit:2.613;" d="M 87.872555 101.462193 L 89.36146 105.849661 L 77.314453 109.946667 L 75.825547 105.560328 Z M 87.872555 101.462193" transform="matrix(3.452621,0,0,3.456221,0,0)"></path>
    <path style="fill-rule:evenodd;fill:rgb(0.784314%,1.960784%,1.960784%);fill-opacity:1;stroke-width:0.027966;stroke-linecap:butt;stroke-linejoin:miter;stroke:rgb(0.784314%,1.960784%,1.960784%);stroke-opacity:1;stroke-miterlimit:2.613;" d="M 126.337445 80.900312 L 126.262774 80.283219 L 125.97427 79.739589 L 125.536423 79.302198 L 124.993358 79.012865 L 124.376752 78.904365 L 123.759015 79.012865 L 123.215949 79.302198 L 122.779234 79.739589 L 122.489599 80.283219 L 122.416058 80.900312 L 122.489599 81.517406 L 122.779234 82.059906 L 123.215949 82.493906 L 123.759015 82.747073 L 124.376752 82.856703 L 124.993358 82.747073 L 125.536423 82.493906 L 125.97427 82.059906 L 126.262774 81.517406 Z M 126.337445 80.900312" transform="matrix(3.452621,0,0,3.456221,0,0)"></path>
    <path style="fill-rule:evenodd;fill:rgb(0.784314%,1.960784%,1.960784%);fill-opacity:1;stroke-width:0.027966;stroke-linecap:butt;stroke-linejoin:miter;stroke:rgb(0.784314%,1.960784%,1.960784%);stroke-opacity:1;stroke-miterlimit:2.613;" d="M 116.939015 84.454818 L 116.82927 83.837724 L 116.540766 83.290703 L 116.10292 82.856703 L 115.559854 82.603536 L 114.943248 82.493906 L 114.360584 82.603536 L 113.817518 82.856703 L 113.384197 83.290703 L 113.091168 83.837724 L 112.985949 84.454818 L 113.091168 85.067391 L 113.384197 85.614411 L 113.817518 86.048411 L 114.360584 86.337745 L 114.943248 86.447375 L 115.559854 86.337745 L 116.10292 86.048411 L 116.540766 85.614411 L 116.82927 85.067391 Z M 116.939015 84.454818" transform="matrix(3.452621,0,0,3.456221,0,0)"></path>
    <path style="fill-rule:evenodd;fill:rgb(0.784314%,1.960784%,1.960784%);fill-opacity:1;stroke-width:0.027966;stroke-linecap:butt;stroke-linejoin:miter;stroke:rgb(0.784314%,1.960784%,1.960784%);stroke-opacity:1;stroke-miterlimit:2.613;" d="M 95.060255 74.478469 L 94.985584 73.864766 L 94.69708 73.317745 L 94.259234 72.884875 L 93.716168 72.595542 L 93.099562 72.485911 L 92.481825 72.595542 L 91.938759 72.884875 L 91.502044 73.317745 L 91.247482 73.864766 L 91.137737 74.478469 L 91.247482 75.095562 L 91.502044 75.642583 L 91.938759 76.075453 L 92.481825 76.32975 L 93.099562 76.43938 L 93.716168 76.32975 L 94.259234 76.075453 L 94.69708 75.642583 L 94.985584 75.095562 Z M 95.060255 74.478469" transform="matrix(3.452621,0,0,3.456221,0,0)"></path>
    <path style="fill-rule:evenodd;fill:rgb(0.784314%,1.960784%,1.960784%);fill-opacity:1;stroke-width:0.027966;stroke-linecap:butt;stroke-linejoin:miter;stroke:rgb(0.784314%,1.960784%,1.960784%);stroke-opacity:1;stroke-miterlimit:2.613;" d="M 95.060255 64.400401 L 94.950511 63.783307 L 94.69708 63.239677 L 94.259234 62.802286 L 93.681095 62.512953 L 93.099562 62.43949 L 92.481825 62.512953 L 91.938759 62.802286 L 91.502044 63.239677 L 91.212409 63.783307 L 91.102664 64.400401 L 91.212409 65.012974 L 91.502044 65.559995 L 91.938759 65.993995 L 92.481825 66.283328 L 93.099562 66.356792 L 93.681095 66.283328 L 94.259234 65.993995 L 94.69708 65.559995 L 94.950511 65.012974 Z M 95.060255 64.400401" transform="matrix(3.452621,0,0,3.456221,0,0)"></path>
    <path style="fill-rule:evenodd;fill:rgb(0.784314%,1.960784%,1.960784%);fill-opacity:1;stroke-width:0.027966;stroke-linecap:butt;stroke-linejoin:miter;stroke:rgb(0.784314%,1.960784%,1.960784%);stroke-opacity:1;stroke-miterlimit:2.613;" d="M 108.048577 79.701161 L 107.938832 79.087458 L 107.685401 78.540437 L 107.25208 78.107568 L 106.669416 77.818234 L 106.091277 77.743641 L 105.470146 77.818234 L 104.92708 78.107568 L 104.493759 78.540437 L 104.20073 79.087458 L 104.095511 79.701161 L 104.20073 80.318255 L 104.493759 80.860755 L 104.92708 81.298146 L 105.470146 81.587479 L 106.091277 81.662073 L 106.669416 81.587479 L 107.25208 81.298146 L 107.685401 80.860755 L 107.938832 80.318255 Z M 108.048577 79.701161" transform="matrix(3.452621,0,0,3.456221,0,0)"></path>
    <path style="fill-rule:evenodd;fill:rgb(0.784314%,1.960784%,1.960784%);fill-opacity:1;stroke-width:0.027966;stroke-linecap:butt;stroke-linejoin:miter;stroke:rgb(0.784314%,1.960784%,1.960784%);stroke-opacity:1;stroke-miterlimit:2.613;" d="M 104.563905 77.888307 L 104.454161 77.271214 L 104.165657 76.727583 L 103.732336 76.294714 L 103.184745 76.00199 L 102.568139 75.930786 L 101.99 76.00199 L 101.407336 76.294714 L 100.974015 76.727583 L 100.720584 77.271214 L 100.610839 77.888307 L 100.720584 78.505401 L 100.974015 79.047901 L 101.407336 79.481901 L 101.99 79.774625 L 102.568139 79.849219 L 103.184745 79.774625 L 103.732336 79.481901 L 104.165657 79.047901 L 104.454161 78.505401 Z M 104.563905 77.888307" transform="matrix(3.452621,0,0,3.456221,0,0)"></path>
    <path style="fill-rule:evenodd;fill:rgb(0.784314%,1.960784%,1.960784%);fill-opacity:1;stroke-width:0.027966;stroke-linecap:butt;stroke-linejoin:miter;stroke:rgb(0.784314%,1.960784%,1.960784%);stroke-opacity:1;stroke-miterlimit:2.613;" d="M 101.552153 108.423146 L 95.313686 119.520661 L 91.28708 117.271547 L 97.524416 106.137865 Z M 101.552153 108.423146" transform="matrix(3.452621,0,0,3.456221,0,0)"></path>
    <path style="fill-rule:evenodd;fill:rgb(0.784314%,1.960784%,1.960784%);fill-opacity:1;stroke-width:0.027966;stroke-linecap:butt;stroke-linejoin:miter;stroke:rgb(0.784314%,1.960784%,1.960784%);stroke-opacity:1;stroke-miterlimit:2.613;" d="M 101.845182 107.298589 L 101.735438 106.575255 L 101.407336 105.923125 L 100.900474 105.415661 L 100.247664 105.087901 L 99.559781 104.978271 L 98.833431 105.087901 L 98.181752 105.415661 L 97.669234 105.923125 L 97.345657 106.575255 L 97.235912 107.298589 L 97.345657 107.990276 L 97.669234 108.642406 L 98.181752 109.14987 L 98.833431 109.47424 L 99.559781 109.58387 L 100.247664 109.47424 L 100.900474 109.14987 L 101.407336 108.642406 L 101.735438 107.990276 Z M 101.845182 107.298589" transform="matrix(3.452621,0,0,3.456221,0,0)"></path>
    <path style="fill-rule:evenodd;fill:rgb(0.784314%,1.960784%,1.960784%);fill-opacity:1;stroke-width:0.027966;stroke-linecap:butt;stroke-linejoin:miter;stroke:rgb(0.784314%,1.960784%,1.960784%);stroke-opacity:1;stroke-miterlimit:2.613;" d="M 90.923905 103.67288 L 90.814161 102.947286 L 90.486058 102.294026 L 89.978066 101.786563 L 89.325255 101.462193 L 88.638504 101.352563 L 87.912153 101.462193 L 87.259343 101.786563 L 86.75135 102.294026 L 86.423248 102.947286 L 86.313504 103.67288 L 86.423248 104.361177 L 86.75135 105.013307 L 87.259343 105.520771 L 87.912153 105.849661 L 88.638504 105.993198 L 89.325255 105.849661 L 89.978066 105.520771 L 90.486058 105.013307 L 90.814161 104.361177 Z M 90.923905 103.67288" transform="matrix(3.452621,0,0,3.456221,0,0)"></path>
    <path style="fill-rule:evenodd;fill:rgb(0.784314%,1.960784%,1.960784%);fill-opacity:1;stroke-width:0.027966;stroke-linecap:butt;stroke-linejoin:miter;stroke:rgb(0.784314%,1.960784%,1.960784%);stroke-opacity:1;stroke-miterlimit:2.613;" d="M 96.982482 92.430698 L 96.837664 91.705104 L 96.509562 91.091401 L 96.001569 90.54438 L 95.348759 90.22001 L 94.662007 90.11038 L 93.935657 90.22001 L 93.282847 90.54438 L 92.77146 91.091401 L 92.446752 91.705104 L 92.337007 92.430698 L 92.446752 93.157422 L 92.77146 93.810682 L 93.282847 94.318146 L 93.935657 94.642516 L 94.662007 94.751016 L 95.348759 94.642516 L 96.001569 94.318146 L 96.509562 93.810682 L 96.837664 93.157422 Z M 96.982482 92.430698" transform="matrix(3.452621,0,0,3.456221,0,0)"></path>
    <path style="fill-rule:evenodd;fill:rgb(0.784314%,1.960784%,1.960784%);fill-opacity:1;stroke-width:0.027966;stroke-linecap:butt;stroke-linejoin:miter;stroke:rgb(0.784314%,1.960784%,1.960784%);stroke-opacity:1;stroke-miterlimit:2.613;" d="M 101.083759 94.571313 L 100.974015 93.845719 L 100.645912 93.192458 L 100.13792 92.684995 L 99.486241 92.360625 L 98.759891 92.247604 L 98.032409 92.360625 L 97.415803 92.684995 L 96.872737 93.192458 L 96.544635 93.845719 L 96.439416 94.571313 L 96.544635 95.294646 L 96.872737 95.91174 L 97.415803 96.45876 L 98.032409 96.78313 L 98.759891 96.89163 L 99.486241 96.78313 L 100.13792 96.45876 L 100.645912 95.91174 L 100.974015 95.294646 Z M 101.083759 94.571313" transform="matrix(3.452621,0,0,3.456221,0,0)"></path>
    <path style="fill-rule:evenodd;fill:rgb(0.784314%,1.960784%,1.960784%);fill-opacity:1;stroke-width:0.027966;stroke-linecap:butt;stroke-linejoin:miter;stroke:rgb(0.784314%,1.960784%,1.960784%);stroke-opacity:1;stroke-miterlimit:2.613;" d="M 95.603321 118.396104 L 95.493577 117.673901 L 95.17 117.020641 L 94.662007 116.509786 L 94.005803 116.185417 L 93.31792 116.075786 L 92.591569 116.185417 L 91.938759 116.509786 L 91.430766 117.020641 L 91.102664 117.673901 L 90.994051 118.396104 L 91.102664 119.122828 L 91.430766 119.739922 L 91.938759 120.282422 L 92.591569 120.606792 L 93.31792 120.716422 L 94.005803 120.606792 L 94.662007 120.282422 L 95.17 119.739922 L 95.493577 119.122828 Z M 95.603321 118.396104" transform="matrix(3.452621,0,0,3.456221,0,0)"></path>
    <path style="fill-rule:evenodd;fill:rgb(0.784314%,1.960784%,1.960784%);fill-opacity:1;stroke-width:0.027966;stroke-linecap:butt;stroke-linejoin:miter;stroke:rgb(0.784314%,1.960784%,1.960784%);stroke-opacity:1;stroke-miterlimit:2.613;" d="M 78.876898 107.735979 L 78.767153 107.044292 L 78.439051 106.392161 L 77.931058 105.884698 L 77.27938 105.560328 L 76.551898 105.450698 L 75.825547 105.560328 L 75.212336 105.884698 L 74.704343 106.392161 L 74.341168 107.044292 L 74.232555 107.735979 L 74.341168 108.462703 L 74.704343 109.114833 L 75.212336 109.622297 L 75.825547 109.946667 L 76.551898 110.056297 L 77.27938 109.946667 L 77.931058 109.622297 L 78.439051 109.114833 L 78.767153 108.462703 Z M 78.876898 107.735979" transform="matrix(3.452621,0,0,3.456221,0,0)"></path>
    <path style="fill-rule:evenodd;fill:rgb(0.784314%,1.960784%,1.960784%);fill-opacity:1;stroke-width:0.027966;stroke-linecap:butt;stroke-linejoin:miter;stroke:rgb(0.784314%,1.960784%,1.960784%);stroke-opacity:1;stroke-miterlimit:2.613;" d="M 111.568321 72.231615 L 111.458577 71.361354 L 111.168942 70.564557 L 110.732226 69.837833 L 110.119015 69.22074 L 109.392664 68.78674 L 108.591642 68.497406 L 107.720474 68.387776 L 106.887774 68.497406 L 106.091277 68.78674 L 105.364927 69.22074 L 104.74719 69.837833 L 104.310474 70.564557 L 104.020839 71.361354 L 103.912226 72.231615 L 104.020839 73.064578 L 104.310474 73.864766 L 104.74719 74.586969 L 105.364927 75.205193 L 106.091277 75.67762 L 106.887774 75.930786 L 107.720474 76.040417 L 108.591642 75.930786 L 109.392664 75.67762 L 110.119015 75.205193 L 110.732226 74.586969 L 111.168942 73.864766 L 111.458577 73.064578 Z M 111.568321 72.231615" transform="matrix(3.452621,0,0,3.456221,0,0)"></path>
    <path style="fill-rule:evenodd;fill:rgb(0.784314%,1.960784%,1.960784%);fill-opacity:1;stroke-width:0.027966;stroke-linecap:butt;stroke-linejoin:miter;stroke:rgb(0.784314%,1.960784%,1.960784%);stroke-opacity:1;stroke-miterlimit:2.613;" d="M 96.692847 93.521349 L 92.626642 91.345698 L 86.568066 102.548323 L 90.669343 104.75901 Z M 96.692847 93.521349" transform="matrix(3.452621,0,0,3.456221,0,0)"></path>
    <path style="fill-rule:evenodd;fill:rgb(0.784314%,1.960784%,1.960784%);fill-opacity:1;stroke-width:0.027966;stroke-linecap:butt;stroke-linejoin:miter;stroke:rgb(0.784314%,1.960784%,1.960784%);stroke-opacity:1;stroke-miterlimit:2.613;" d="M 101.083759 94.427776 L 96.439416 94.715979 L 97.235912 107.408219 L 101.845182 107.153922 Z M 101.083759 94.427776" transform="matrix(3.452621,0,0,3.456221,0,0)"></path>
    <path style="fill-rule:evenodd;fill:rgb(0.784314%,1.960784%,1.960784%);fill-opacity:1;stroke-width:0.027966;stroke-linecap:butt;stroke-linejoin:miter;stroke:rgb(0.784314%,1.960784%,1.960784%);stroke-opacity:1;stroke-miterlimit:2.613;" d="M 106.997518 77.962901 L 107.540584 82.677 L 100.829197 95.622406 L 92.591569 91.380734 L 99.30635 78.430807 L 103.477774 76.150047 Z M 106.997518 77.962901" transform="matrix(3.452621,0,0,3.456221,0,0)"></path>
    <path style="fill-rule:evenodd;fill:rgb(0.784314%,1.960784%,1.960784%);fill-opacity:1;stroke-width:0.027966;stroke-linecap:butt;stroke-linejoin:miter;stroke:rgb(0.784314%,1.960784%,1.960784%);stroke-opacity:1;stroke-miterlimit:2.613;" d="M 115.887956 82.712036 L 114.037007 86.193078 L 105.146569 81.442813 L 106.997518 77.962901 Z M 115.887956 82.712036" transform="matrix(3.452621,0,0,3.456221,0,0)"></path>
    <path style="fill-rule:evenodd;fill:rgb(0.784314%,1.960784%,1.960784%);fill-opacity:1;stroke-width:0.027966;stroke-linecap:butt;stroke-linejoin:miter;stroke:rgb(0.784314%,1.960784%,1.960784%);stroke-opacity:1;stroke-miterlimit:2.613;" d="M 103.259416 76.040417 L 93.790839 72.630578 L 92.446752 76.32975 L 101.915328 79.739589 Z M 103.259416 76.040417" transform="matrix(3.452621,0,0,3.456221,0,0)"></path>
  </g>
</svg>