<?xml version="1.0" encoding="UTF-8" standalone="yes"?>
<svg xmlns:svg="http://www.w3.org/2000/svg" xmlns="http://www.w3.org/2000/svg" version="1.1" width="400px" height="400px" viewBox="0 0 200 200">
  <rect width="200" height="200" style="fill:#ffffff;"></rect>
  <rect x="5" y="5" width="190" height="190" style="fill:#008855"></rect>
  <g style="fill:#ffffff; stroke:none;">
    <path d="m29.772 21.893-7.5945 7.5905 22.091 22.095h-22.08l10.065 10.065h29.682v-29.69l-10.081-10.061v22.091z"></path>
    <path d="m22.178 169.95 7.5905 7.5945 22.095-22.091v22.08l10.065-10.065v-29.682h-29.69l-10.061 10.081h22.091z"></path>
    <path d="m177.73 29.488-7.5905-7.5945-22.095 22.091v-22.08l-10.065 10.065v29.682h29.69l10.061-10.081h-22.091z"></path>
    <path d="m170.13 177.54 7.5945-7.5906-22.092-22.095h22.08l-10.065-10.065h-29.682v29.69l10.081 10.061v-22.091z"></path>
    <path d="m123.14 81.435h-12.701c-5.3996-0.15904-8.4884 3.0501-9.195 7.4104l-0.0738 19.594c0.0102 1.56 0.89469 2.9826 2.8087 2.975 1.9009-9e-3 2.7718-1.4266 2.7859-2.975v-17.981c4e-3 -0.26065 0.72981-0.47672 1.0558-0.48059 0.32944-0.0027 0.98013 0.21232 0.98365 0.48059v51.712c0.0101 1.779 1.6195 3.4194 3.8036 3.4129 2.1793-3e-3 3.7294-1.6377 3.7387-3.4129l0.0135-29.91c0.12117-0.25958 0.6984-0.40194 0.96202-0.39867 0.25936-5e-3 0.86657 0.13421 0.97838 0.39867l0.017 29.91c4e-3 1.779 1.4664 3.4194 3.6506 3.4129 2.1793-3e-3 3.8716-1.6377 3.8764-3.4129v-51.712c4e-3 -0.26065 0.66946-0.47672 0.99072-0.48059 0.32943-0.0027 1.005 0.21232 1.0086 0.48059v17.981c0.0102 1.56 0.76809 2.9826 2.6819 2.975 1.9009-9e-3 2.8973-1.4266 2.9066-2.975l-0.0748-19.594c-0.70659-4.3604-3.7957-7.5694-9.1905-7.4104"></path>
    <path d="m124.28 72.7c0-3.8268-3.1062-6.9282-6.933-6.9282-3.8282 0-6.9293 3.1012-6.9293 6.9282 0 3.8279 3.1012 6.9341 6.9293 6.9341 3.8268 0 6.933-3.1062 6.933-6.9341"></path>
    <path d="m107.03 61.505c0-3.8268-3.1062-6.9282-6.933-6.9282-3.8282 0-6.9293 3.1012-6.9293 6.9282 0 3.8279 3.1012 6.9341 6.9293 6.9341 3.8268 0 6.933-3.1062 6.933-6.9341"></path>
    <path d="m88.632 81.435h-12.701c-5.3996-0.15904-8.4884 3.0501-9.195 7.4104l-0.07382 19.594c0.01017 1.56 0.89469 2.9826 2.8087 2.975 1.901-9e-3 2.7718-1.4266 2.7859-2.975v-17.981c0.0033-0.26065 0.72981-0.47672 1.0558-0.48059 0.32943-0.0027 0.98012 0.21232 0.98365 0.48059v51.712c0.01016 1.779 1.6195 3.4194 3.8036 3.4129 2.1793-3e-3 3.7293-1.6377 3.7387-3.4129l0.01355-29.91c0.12118-0.25958 0.69841-0.40194 0.96202-0.39867 0.25935-5e-3 0.86657 0.13421 0.97837 0.39867l0.01693 29.91c0.0033 1.779 1.4664 3.4194 3.6506 3.4129 2.1793-3e-3 3.8716-1.6377 3.8764-3.4129v-51.712c0.0033-0.26065 0.66944-0.47672 0.99071-0.48059 0.32943-0.0027 1.005 0.21232 1.0086 0.48059v17.981c0.01017 1.56 0.76809 2.9826 2.6819 2.975 1.9009-9e-3 2.8973-1.4266 2.9066-2.975l-0.0748-19.594c-0.7066-4.3604-3.7957-7.5694-9.1905-7.4104"></path>
    <path d="m89.781 72.7c0-3.8268-3.1062-6.9282-6.933-6.9282-3.8282 0-6.9293 3.1012-6.9293 6.9282 0 3.8279 3.1012 6.9341 6.9293 6.9341 3.8268 0 6.933-3.1062 6.933-6.9341"></path>
  </g>
</svg>