<?xml version="1.0" encoding="UTF-8" standalone="yes"?>
<svg xmlns:svg="http://www.w3.org/2000/svg" xmlns="http://www.w3.org/2000/svg" height="200" width="200" version="1.0" id="svg22" viewBox="0 0 200 200">
  <defs id="defs26"></defs>
  <path fill="#a92121" d="m5.4189,5.423,189.16,0,0,189.15-189.16,0,0-189.15z" fill-rule="evenodd" id="path6" style="fill:#9b2423;fill-opacity:1"></path>
  <path style="color:#000000;enable-background:accumulate;" d="M46.688,28.062l-12.688,144.22h7.562l1.469-16.53h50.625l1.469,16.53h7.565l-12.69-144.22h-7.562l1.031,11.563h-30.25l1.031-11.563h-7.562zm5.968,18.032h31.375l1.375,15.781h-34.125l1.375-15.781zm-1.937,22.25h35.25l1.406,15.812h-38.063l1.407-15.812zm-1.969,22.281h39.188l1.374,15.535h-41.937l1.375-15.535zm-1.938,21.965h43.063l1.281,14.75h-45.625l1.281-14.75zm-1.874,21.16h46.812l1.344,15.59h-49.5l1.344-15.59z" fill="#ffffff" id="path8"></path>
  <path id="path14553-3-5" style="display:inline;fill:#ffffff;fill-opacity:1;stroke:none;stroke-width:0.135485px;stroke-linecap:butt;stroke-linejoin:miter;stroke-opacity:1" d="m 148.98468,51.353762 c -1.67226,6.313288 -2.17756,13.862444 -0.95842,20.330533 2.45705,9.211801 8.02983,16.351235 14.99455,22.274947 1.22904,1.105905 2.61801,1.865497 3.99857,2.578816 V 77.394059 c -4.13972,-0.656524 -7.24274,-4.363172 -9.47685,-7.631888 -3.76382,-5.795834 -6.16522,-12.132857 -8.55779,-18.408409 z m -23.87127,8.341748 c -0.95267,0.0028 -1.96716,0.03649 -2.98177,0.07035 5.50202,4.211279 7.21791,10.545249 9.02933,16.520578 1.88866,6.567199 4.24165,12.863982 7.95938,18.295246 6.97248,9.252866 17.53949,13.335326 27.89897,10.361576 -9.16472,-3.81327 -14.80599,-12.741074 -19.02571,-20.41283 -3.82527,-6.046977 -4.90635,-13.689448 -9.9998,-18.657056 -3.72752,-3.535181 -7.96479,-6.186686 -12.8804,-6.177724 z m 1.48317,27.682922 c -0.64347,11.821175 3.3476,21.652498 10.51745,29.863958 7.59087,8.86726 19.71901,13.38135 29.90512,16.64919 v -19.144 c -6.5164,-0.12768 -12.45036,-2.29298 -17.45852,-5.30854 -9.89941,-6.0052 -16.92981,-12.896224 -22.96422,-22.060608 z m -13.71885,36.785858 c 9.23852,2.20011 13.55622,8.14502 18.71017,14.34471 4.12277,5.26391 9.59132,8.39406 15.61698,9.45797 7.50471,1.26311 14.64825,0.094 19.81444,-5.43712 -12.01741,-2.13538 -19.07107,-9.52512 -27.26798,-16.27027 -9.59544,-6.42339 -17.04756,-9.5145 -26.87361,-2.09529 z m 13.67939,19.04638 c 1.08898,6.06195 2.9963,11.75792 6.44195,16.38342 9.47931,11.17395 21.79075,10.96794 34.02025,11.18634 v -19.144 c -7.76116,1.81984 -17.27123,2.68549 -24.46284,0.92932 -6.55861,-1.3462 -11.49791,-5.23486 -15.99936,-9.35509 z"></path>
</svg>