<?xml version="1.0" encoding="UTF-8" standalone="yes"?>
<svg xmlns="http://www.w3.org/2000/svg" xmlns:xlink="http://www.w3.org/1999/xlink" width="685pt" height="600pt" viewBox="0 0 685 600" version="1.1">
  <g id="surface1">
    <path style="fill-rule:evenodd;fill:rgb(0.784314%,1.960784%,1.960784%);fill-opacity:1;stroke-width:0.127844;stroke-linecap:butt;stroke-linejoin:miter;stroke:rgb(0.784314%,1.960784%,1.960784%);stroke-opacity:1;stroke-miterlimit:2.613;" d="M 197.46208 164.743687 L 104.11927 2.943062 L 103.544526 2.079583 L 102.826095 1.430844 L 102.032993 0.856698 L 101.099599 0.423828 L 100.165073 0.137885 L 99.158139 0.0644219 L 98.150073 0.137885 L 97.146533 0.423828 L 96.283285 0.856698 L 95.420036 1.430844 L 94.77062 2.079583 L 94.197007 2.943062 L 0.853066 164.743687 L 0.423139 165.67724 L 0.134635 166.615312 L 0.0644891 167.622328 L 0.134635 168.627083 L 0.423139 169.634099 L 0.853066 170.497578 L 1.42781 171.361057 L 2.076095 172.009797 L 2.939343 172.583943 L 3.802591 173.013422 L 4.810657 173.302755 L 5.814197 173.372828 L 192.50208 173.372828 L 193.50562 173.302755 L 194.442409 173.013422 L 195.376934 172.583943 L 196.170036 172.009797 L 196.888467 171.361057 L 197.46208 170.497578 L 197.892007 169.634099 L 198.181642 168.627083 L 198.251788 167.622328 L 198.181642 166.615312 L 197.892007 165.67724 Z M 197.46208 164.743687" transform="matrix(3.452621,0,0,3.456221,0,0)"></path>
    <path style="fill-rule:evenodd;fill:rgb(92.156863%,74.901961%,16.862745%);fill-opacity:1;stroke-width:0.127844;stroke-linecap:butt;stroke-linejoin:miter;stroke:rgb(0.784314%,1.960784%,1.960784%);stroke-opacity:1;stroke-miterlimit:2.613;" d="M 99.158139 18.114979 L 181.856861 161.509031 L 16.458285 161.509031 Z M 99.158139 18.114979" transform="matrix(3.452621,0,0,3.456221,0,0)"></path>
    <path style="fill-rule:evenodd;fill:rgb(0.784314%,1.960784%,1.960784%);fill-opacity:1;stroke-width:0.027966;stroke-linecap:butt;stroke-linejoin:miter;stroke:rgb(0.784314%,1.960784%,1.960784%);stroke-opacity:1;stroke-miterlimit:2.613;" d="M 88.505 147.474104 L 88.541204 147.149734 L 88.505 146.821974 L 88.361314 146.532641 L 88.141825 146.31451 L 87.560292 146.025177 L 86.907482 145.840953 L 85.638066 145.735844 L 84.36865 145.735844 L 81.790219 145.915547 L 79.216314 146.278344 L 74.134124 147.076271 L 71.555693 147.474104 L 69.016861 147.763438 L 66.439562 147.981568 L 63.864526 148.056161 L 62.556642 147.981568 L 61.287226 147.763438 L 60.669489 147.622161 L 60.052883 147.364474 L 59.509818 147.076271 L 58.962226 146.712344 L 58.493832 146.278344 L 58.055985 145.77088 L 57.732409 145.223859 L 57.547993 144.611286 L 57.43938 143.958026 L 57.474453 143.302505 L 57.622664 142.685411 L 57.837628 142.071708 L 58.130657 141.489651 L 58.493832 140.947151 L 58.89208 140.438557 L 59.325401 139.96613 L 60.306314 139.134297 L 61.322299 138.334109 L 60.524672 138.442609 L 59.763248 138.696906 L 58.235876 139.278964 L 55.263723 140.583224 L 52.287044 141.853578 L 49.275292 143.013172 L 47.712847 143.520635 L 46.153796 143.958026 L 44.556277 144.282396 L 42.958759 144.536693 L 41.326168 144.611286 L 39.72865 144.536693 L 38.892555 144.427063 L 38.13 144.247359 L 36.607153 143.665302 L 32.798905 150.301885 L 69.087007 150.301885 L 70.360949 150.231812 L 71.591898 150.122182 L 74.060584 149.724349 L 76.494197 149.180719 L 81.283358 147.876458 L 83.716971 147.219807 L 84.911715 146.966641 L 86.181131 146.860401 L 86.798869 146.821974 L 87.415474 146.896568 L 87.998139 147.111307 Z M 88.505 147.474104" transform="matrix(3.452621,0,0,3.456221,0,0)"></path>
    <path style="fill-rule:evenodd;fill:rgb(0.784314%,1.960784%,1.960784%);fill-opacity:1;stroke-width:0.027966;stroke-linecap:butt;stroke-linejoin:miter;stroke:rgb(0.784314%,1.960784%,1.960784%);stroke-opacity:1;stroke-miterlimit:2.613;" d="M 63.24792 139.024667 L 63.028431 138.477646 L 62.884745 138.224479 L 62.665255 138.00974 L 62.12219 137.680849 L 61.540657 137.536182 L 60.959124 137.462719 L 60.341387 137.501146 L 59.145511 137.680849 L 57.982445 138.00974 L 56.856715 138.442609 L 54.607518 139.314 L 52.43073 140.255464 L 50.251679 141.165281 L 48.040949 141.927042 L 45.860766 142.579172 L 44.736168 142.833469 L 43.650036 143.013172 L 42.525438 143.122802 L 41.434781 143.197396 L 40.345255 143.157839 L 39.294197 143.052729 L 38.314416 142.833469 L 37.298431 142.435635 L 38.204672 140.912115 L 39.075839 141.126854 L 39.98208 141.271521 L 40.853248 141.344984 L 41.762883 141.344984 L 43.575365 141.235354 L 45.392372 140.947151 L 47.134708 140.513151 L 48.872518 140.001167 L 50.579781 139.42363 L 52.287044 138.731943 L 55.587299 137.318052 L 57.294562 136.630885 L 59.001825 136.013792 L 59.872993 135.759495 L 60.744161 135.614828 L 61.650401 135.614828 L 62.083723 135.724458 L 62.521569 135.904161 L 62.884745 136.157328 L 63.208321 136.486219 L 63.42781 136.884052 L 63.611095 137.283016 L 63.646168 137.755443 L 63.571496 138.189443 Z M 63.24792 139.024667" transform="matrix(3.452621,0,0,3.456221,0,0)"></path>
    <path style="fill-rule:evenodd;fill:rgb(0.784314%,1.960784%,1.960784%);fill-opacity:1;stroke-width:0.027966;stroke-linecap:butt;stroke-linejoin:miter;stroke:rgb(0.784314%,1.960784%,1.960784%);stroke-opacity:1;stroke-miterlimit:2.613;" d="M 89.560584 145.77088 L 89.70427 145.223859 L 89.774416 144.719786 L 89.70427 144.173896 L 89.450839 143.704859 L 89.048066 143.340932 L 88.576277 143.087766 L 88.071679 142.938578 L 87.525219 142.833469 L 86.474161 142.723839 L 85.384635 142.685411 L 83.244051 142.798432 L 81.103467 143.013172 L 78.958358 143.302505 L 74.67719 143.919599 L 70.431095 144.501656 L 68.290511 144.681359 L 67.200985 144.755953 L 66.114854 144.719786 L 63.97427 144.536693 L 62.919818 144.35699 L 61.903832 144.029229 L 61.395839 143.774932 L 60.959124 143.485599 L 60.594818 143.052729 L 60.380985 142.579172 L 60.341387 142.036672 L 60.416058 141.489651 L 60.594818 140.982188 L 60.852774 140.513151 L 60.087956 141.200318 L 59.509818 141.997115 L 59.071971 142.798432 L 58.927153 143.196266 L 58.89208 143.595229 L 58.852482 143.958026 L 58.927153 144.317432 L 59.036898 144.646323 L 59.216788 144.974083 L 59.470219 145.263417 L 59.763248 145.55275 L 60.524672 146.025177 L 60.92292 146.20488 L 61.357372 146.349547 L 62.376752 146.532641 L 63.462883 146.602714 L 64.587482 146.642271 L 66.91135 146.532641 L 69.271423 146.31451 L 71.590766 146.060214 L 73.950839 145.66125 L 78.743394 144.89949 L 81.173613 144.571729 L 83.677372 144.35699 L 84.950182 144.282396 L 86.290876 144.35699 L 86.982153 144.427063 L 87.743577 144.571729 L 88.141825 144.719786 L 88.614745 144.934526 L 89.087664 145.263417 L 89.302628 145.481547 Z M 89.560584 145.77088" transform="matrix(3.452621,0,0,3.456221,0,0)"></path>
    <path style="fill-rule:evenodd;fill:rgb(0.784314%,1.960784%,1.960784%);fill-opacity:1;stroke-width:0.027966;stroke-linecap:butt;stroke-linejoin:miter;stroke:rgb(0.784314%,1.960784%,1.960784%);stroke-opacity:1;stroke-miterlimit:2.613;" d="M 167.040219 152.916057 L 131.876715 91.942448 L 131.657226 92.306375 L 131.51354 92.704208 L 131.294051 93.575599 L 130.78719 95.243786 L 130.602774 96.115177 L 130.494161 96.982047 L 130.459088 97.856828 L 130.459088 98.763255 L 130.602774 100.501516 L 130.857336 102.244297 L 131.075693 103.985948 L 131.220511 105.724208 L 131.220511 107.465859 L 131.075693 109.208641 L 130.930876 110.080031 L 130.747591 110.950292 L 130.169453 112.583443 L 129.443102 114.212073 L 128.681679 115.775151 L 126.974416 118.857229 L 126.141715 120.38075 L 125.376898 121.977734 L 125.017117 122.774531 L 124.763686 123.607495 L 124.360912 125.314109 L 124.107482 127.05237 L 124.036204 128.794021 L 124.036204 130.571839 L 123.962664 131.009229 L 123.77938 131.408193 L 123.564416 131.77099 L 123.274781 132.095359 L 120.771022 134.598771 L 120.114818 135.252031 L 119.861387 135.614828 L 119.681496 136.013792 L 119.606825 136.411625 L 119.646423 136.849016 L 119.751642 137.283016 L 119.899854 137.720406 L 120.259635 138.517203 L 120.407847 138.916167 L 120.513066 139.349036 L 120.513066 139.786427 L 120.477993 140.255464 L 120.189489 141.05226 L 119.826314 141.888615 L 119.571752 142.723839 L 119.318321 143.555672 L 119.098832 143.919599 L 118.810328 144.282396 L 118.520693 144.571729 L 118.157518 144.826026 L 117.321423 145.188823 L 116.48646 145.44312 L 115.615292 145.626214 L 112.13062 146.025177 L 105.161277 146.677307 L 101.681131 147.040104 L 98.19646 147.509141 L 91.263321 148.673255 L 77.400438 150.883943 L 63.536423 152.916057 Z M 167.040219 152.916057" transform="matrix(3.452621,0,0,3.456221,0,0)"></path>
    <path style="fill-rule:evenodd;fill:rgb(0.784314%,1.960784%,1.960784%);fill-opacity:1;stroke-width:0.027966;stroke-linecap:butt;stroke-linejoin:miter;stroke:rgb(0.784314%,1.960784%,1.960784%);stroke-opacity:1;stroke-miterlimit:2.613;" d="M 109.770547 115.735594 L 108.06781 114.938797 L 105.48938 114.938797 L 103.783248 115.735594 L 103.783248 126.94726 L 109.770547 126.94726 Z M 109.770547 115.735594" transform="matrix(3.452621,0,0,3.456221,0,0)"></path>
    <path style="fill-rule:evenodd;fill:rgb(0.784314%,1.960784%,1.960784%);fill-opacity:1;stroke-width:0.027966;stroke-linecap:butt;stroke-linejoin:miter;stroke:rgb(0.784314%,1.960784%,1.960784%);stroke-opacity:1;stroke-miterlimit:2.613;" d="M 109.263686 111.419328 L 109.153942 110.767198 L 108.938978 110.188531 L 108.54073 109.677677 L 108.032737 109.278714 L 107.416131 109.028937 L 106.758796 108.954344 L 106.14219 109.028937 L 105.528978 109.278714 L 105.017591 109.677677 L 104.618212 110.188531 L 104.399854 110.767198 L 104.290109 111.419328 L 104.399854 112.036422 L 104.618212 112.653516 L 105.017591 113.162109 L 105.528978 113.559943 L 106.14219 113.81424 L 106.758796 113.887703 L 107.416131 113.81424 L 108.032737 113.559943 L 108.54073 113.162109 L 108.938978 112.653516 L 109.153942 112.036422 Z M 109.263686 111.419328" transform="matrix(3.452621,0,0,3.456221,0,0)"></path>
    <path style="fill-rule:evenodd;fill:rgb(0.784314%,1.960784%,1.960784%);fill-opacity:1;stroke-width:0.027966;stroke-linecap:butt;stroke-linejoin:miter;stroke:rgb(0.784314%,1.960784%,1.960784%);stroke-opacity:1;stroke-miterlimit:2.613;" d="M 104.439453 143.302505 L 104.329708 142.723839 L 104.001606 142.251411 L 103.528686 141.927042 L 102.950547 141.817411 L 102.369015 141.927042 L 101.896095 142.251411 L 101.571387 142.723839 L 101.427701 143.302505 L 101.571387 143.884562 L 101.896095 144.35699 L 102.369015 144.681359 L 102.950547 144.79099 L 103.528686 144.681359 L 104.001606 144.35699 L 104.329708 143.884562 Z M 104.439453 143.302505" transform="matrix(3.452621,0,0,3.456221,0,0)"></path>
    <path style="fill-rule:evenodd;fill:rgb(0.784314%,1.960784%,1.960784%);fill-opacity:1;stroke-width:0.027966;stroke-linecap:butt;stroke-linejoin:miter;stroke:rgb(0.784314%,1.960784%,1.960784%);stroke-opacity:1;stroke-miterlimit:2.613;" d="M 112.13062 143.302505 L 111.985803 142.723839 L 111.662226 142.251411 L 111.189307 141.927042 L 110.606642 141.817411 L 110.025109 141.927042 L 109.55219 142.251411 L 109.228613 142.723839 L 109.118869 143.302505 L 109.228613 143.884562 L 109.55219 144.35699 L 110.025109 144.681359 L 110.606642 144.79099 L 111.189307 144.681359 L 111.662226 144.35699 L 111.985803 143.884562 Z M 112.13062 143.302505" transform="matrix(3.452621,0,0,3.456221,0,0)"></path>
    <path style="fill-rule:evenodd;fill:rgb(0.784314%,1.960784%,1.960784%);fill-opacity:1;stroke-width:0.027966;stroke-linecap:butt;stroke-linejoin:miter;stroke:rgb(0.784314%,1.960784%,1.960784%);stroke-opacity:1;stroke-miterlimit:2.613;" d="M 109.770547 126.94726 L 109.665328 126.365203 L 109.337226 125.891646 L 108.864307 125.568406 L 108.282774 125.458776 L 107.704635 125.568406 L 107.231715 125.891646 L 106.903613 126.365203 L 106.758796 126.94726 L 106.903613 127.524797 L 107.231715 128.03226 L 107.704635 128.361151 L 108.282774 128.470781 L 108.864307 128.361151 L 109.337226 128.03226 L 109.665328 127.524797 Z M 109.770547 126.94726" transform="matrix(3.452621,0,0,3.456221,0,0)"></path>
    <path style="fill-rule:evenodd;fill:rgb(0.784314%,1.960784%,1.960784%);fill-opacity:1;stroke-width:0.027966;stroke-linecap:butt;stroke-linejoin:miter;stroke:rgb(0.784314%,1.960784%,1.960784%);stroke-opacity:1;stroke-miterlimit:2.613;" d="M 106.758796 126.94726 L 106.650182 126.365203 L 106.325474 125.891646 L 105.852555 125.568406 L 105.271022 125.458776 L 104.692883 125.568406 L 104.219964 125.891646 L 103.891861 126.365203 L 103.783248 126.94726 L 103.891861 127.524797 L 104.219964 128.03226 L 104.692883 128.361151 L 105.271022 128.470781 L 105.852555 128.361151 L 106.325474 128.03226 L 106.650182 127.524797 Z M 106.758796 126.94726" transform="matrix(3.452621,0,0,3.456221,0,0)"></path>
    <path style="fill-rule:evenodd;fill:rgb(0.784314%,1.960784%,1.960784%);fill-opacity:1;stroke-width:0.027966;stroke-linecap:butt;stroke-linejoin:miter;stroke:rgb(0.784314%,1.960784%,1.960784%);stroke-opacity:1;stroke-miterlimit:2.613;" d="M 106.758796 116.208021 L 106.68865 115.735594 L 106.39562 115.302724 L 105.997372 115.048427 L 105.48938 114.938797 L 105.017591 115.048427 L 104.583139 115.302724 L 104.329708 115.735594 L 104.219964 116.208021 L 104.329708 116.716615 L 104.583139 117.114448 L 105.017591 117.403781 L 105.48938 117.478375 L 105.997372 117.403781 L 106.39562 117.114448 L 106.68865 116.716615 Z M 106.758796 116.208021" transform="matrix(3.452621,0,0,3.456221,0,0)"></path>
    <path style="fill-rule:evenodd;fill:rgb(0.784314%,1.960784%,1.960784%);fill-opacity:1;stroke-width:0.027966;stroke-linecap:butt;stroke-linejoin:miter;stroke:rgb(0.784314%,1.960784%,1.960784%);stroke-opacity:1;stroke-miterlimit:2.613;" d="M 109.337226 116.208021 L 109.228613 115.735594 L 108.974051 115.302724 L 108.54073 115.048427 L 108.06781 114.938797 L 107.559818 115.048427 L 107.161569 115.302724 L 106.86854 115.735594 L 106.758796 116.208021 L 106.86854 116.716615 L 107.161569 117.114448 L 107.559818 117.403781 L 108.06781 117.478375 L 108.54073 117.403781 L 108.974051 117.114448 L 109.228613 116.716615 Z M 109.337226 116.208021" transform="matrix(3.452621,0,0,3.456221,0,0)"></path>
    <path style="fill-rule:evenodd;fill:rgb(0.784314%,1.960784%,1.960784%);fill-opacity:1;stroke-width:0.027966;stroke-linecap:butt;stroke-linejoin:miter;stroke:rgb(0.784314%,1.960784%,1.960784%);stroke-opacity:1;stroke-miterlimit:2.613;" d="M 97.540255 106.993432 L 97.435036 106.489359 L 97.17708 106.091526 L 96.743759 105.798802 L 96.270839 105.689172 L 95.762847 105.798802 L 95.364599 106.091526 L 95.076095 106.489359 L 95.001423 106.993432 L 95.076095 107.465859 L 95.364599 107.90438 L 95.762847 108.157547 L 96.270839 108.263786 L 96.743759 108.157547 L 97.17708 107.90438 L 97.435036 107.465859 Z M 97.540255 106.993432" transform="matrix(3.452621,0,0,3.456221,0,0)"></path>
    <path style="fill-rule:evenodd;fill:rgb(0.784314%,1.960784%,1.960784%);fill-opacity:1;stroke-width:0.027966;stroke-linecap:butt;stroke-linejoin:miter;stroke:rgb(0.784314%,1.960784%,1.960784%);stroke-opacity:1;stroke-miterlimit:2.613;" d="M 118.555766 106.993432 L 118.482226 106.489359 L 118.192591 106.091526 L 117.794343 105.798802 L 117.28635 105.689172 L 116.814562 105.798802 L 116.376715 106.091526 L 116.122153 106.489359 L 116.01354 106.993432 L 116.122153 107.465859 L 116.376715 107.90438 L 116.814562 108.157547 L 117.28635 108.263786 L 117.794343 108.157547 L 118.192591 107.90438 L 118.482226 107.465859 Z M 118.555766 106.993432" transform="matrix(3.452621,0,0,3.456221,0,0)"></path>
    <path style="fill-rule:evenodd;fill:rgb(0.784314%,1.960784%,1.960784%);fill-opacity:1;stroke-width:0.027966;stroke-linecap:butt;stroke-linejoin:miter;stroke:rgb(0.784314%,1.960784%,1.960784%);stroke-opacity:1;stroke-miterlimit:2.613;" d="M 106.758796 127.162 L 103.783248 126.728 L 101.462774 143.087766 L 104.439453 143.520635 Z M 106.758796 127.162" transform="matrix(3.452621,0,0,3.456221,0,0)"></path>
    <path style="fill-rule:evenodd;fill:rgb(0.784314%,1.960784%,1.960784%);fill-opacity:1;stroke-width:0.027966;stroke-linecap:butt;stroke-linejoin:miter;stroke:rgb(0.784314%,1.960784%,1.960784%);stroke-opacity:1;stroke-miterlimit:2.613;" d="M 109.770547 126.728 L 106.798394 127.162 L 109.118869 143.520635 L 112.095547 143.087766 Z M 109.770547 126.728" transform="matrix(3.452621,0,0,3.456221,0,0)"></path>
    <path style="fill-rule:evenodd;fill:rgb(0.784314%,1.960784%,1.960784%);fill-opacity:1;stroke-width:0.027966;stroke-linecap:butt;stroke-linejoin:miter;stroke:rgb(0.784314%,1.960784%,1.960784%);stroke-opacity:1;stroke-miterlimit:2.613;" d="M 106.39562 115.302724 L 104.583139 117.114448 L 95.364599 107.90438 L 97.17708 106.091526 Z M 106.39562 115.302724" transform="matrix(3.452621,0,0,3.456221,0,0)"></path>
    <path style="fill-rule:evenodd;fill:rgb(0.784314%,1.960784%,1.960784%);fill-opacity:1;stroke-width:0.027966;stroke-linecap:butt;stroke-linejoin:miter;stroke:rgb(0.784314%,1.960784%,1.960784%);stroke-opacity:1;stroke-miterlimit:2.613;" d="M 118.192591 107.90438 L 116.376715 106.091526 L 107.161569 115.302724 L 108.974051 117.114448 Z M 118.192591 107.90438" transform="matrix(3.452621,0,0,3.456221,0,0)"></path>
  </g>
</svg>