<?xml version="1.0" encoding="UTF-8" standalone="yes"?>
<svg xmlns="http://www.w3.org/2000/svg" height="525" width="600" version="1.1" viewBox="0 0 600 525">
  <path d="M597.6,499.6,313.8,8c-2.9-5-8.2-8-13.9-8s-11,3.1-13.9,8l-283.8,491.6c-2.9,5-2.9,11.1,0,16,2.9,5,8.2,8,13.9,8h567.6c5.7,0,11-3.1,13.9-8,2.9-5,2.9-11.1,0-16z"></path>
  <polygon points="43.875,491.5,299.88,48.2,555.88,491.5" fill="#F9A800" transform="matrix(1,0,0,0.99591458,0.125,2.0332437)"></polygon>
  <g transform="translate(607.44624,0)" fill="#000000">
    <path d="m-367.48,461.24c-0.48572-0.78407-0.74746-7.9941-0.58167-16.022l0.30146-14.597,61.004-0.48181,61.004-0.4818-0.52985,16.022-0.52985,16.022-59.893,0.4819c-32.941,0.26505-60.29-0.15961-60.776-0.94368z"></path>
    <path d="m-397.87,437.69c-4.3432-5.5085-4.7959-9.6688-1.5074-13.853,2.3873-3.0376,21.22-18.706,28.444-23.664,2.2892-1.5713,7.3126-5.765,11.163-9.3192l7.0008-6.4622,0.35467-23.505c0.39309-26.051,0.6125-25.93-9.887-5.4547-1.997,3.8943-5.9098,9.5466-8.6952,12.561l-5.0643,5.48-27.006-1.1874c-45.062-1.9812-48.592-2.8421-50.904-12.415-0.93188-3.8583-0.13035-5.995,3.6719-9.7883l4.864-4.8526,29.672,1.2052,29.672,1.2052,12.828-21.149c7.0554-11.632,14.065-22.639,15.577-24.461,2.5202-3.0361,23.574-12.859,41.29-19.263,3.9999-1.4461,11.298-4.4387,16.217-6.6504l8.9449-4.0212-7.1123-4.3175c-3.9118-2.3746-8.3493-4.8905-9.8612-5.5908-1.5119-0.70026-4.9727-2.8096-7.6908-4.6874-5.5136-3.8091-2.3602-4.7127-34.005,9.7441-13.566,6.1975-18.858,6.5417-23.41,1.5228-4.2828-4.7213-1.9921-12.502,4.6558-15.814,10.744-5.3532,32.692-15.06,40.505-17.915,9.6639-3.5308,9.6271-3.5446,42.635,15.947l16.275,9.6106,8.9226,21.843c8.3876,20.533,10.928,32.467,7.3779,34.656-2.3471,1.4472-18.613,29.929-18.613,32.592,0,1.2825,6.1992,8.9116,13.776,16.954,7.5768,8.042,14.244,16.396,14.816,18.565,1.4539,5.5114-2.1465,11.329-7.9031,12.771-4.3812,1.097-6.8221-0.82953-24.74-19.527-10.934-11.409-20.324-22.512-20.868-24.673-0.95138-3.7817,3.0496-12.406,13.352-28.782l4.3437-6.9042-5.0931,1.219c-2.8012,0.67042-7.567,2.5051-10.591,4.0771-3.0237,1.572-11.683,5.3645-19.242,8.4277l-13.744,5.5696-0.44817,13.712c-0.24648,7.5416-0.93889,21.282-1.5387,30.534l-1.0905,16.821-14.77,11.517c-8.1234,6.3342-16.09,12.796-17.703,14.36-1.6133,1.5637-6.6442,5.6712-11.18,9.1278-4.5356,3.4566-8.5214,6.9079-8.8574,7.6695-1.5086,3.4199-11.198,1.1777-14.833-3.4324z"></path>
    <path d="m-247.5,292.33c-12.272-6.3892-12.738-25.464-1.8575-33.464,8.6391-7.5671,22.353-4.3968,28.615,4.5787,5.8864,7.1945,5.1507,18.053-1.1022,24.772-6.1228,7.4108-17.564,9.8434-25.656,4.114z"></path>
  </g>
</svg>