
<svg xmlns="http://www.w3.org/2000/svg" version="1.1" width="600" height="525" id="svg3069" viewBox="0 0 600 525">
  <defs id="defs3073"></defs>
  <g id="layer2">
    <path d="M 597.6,499.6 313.8,8 C 310.9,3 305.6,0 299.9,0 294.2,0 288.9,3.1 286,8 L 2.2,499.6 c -2.9,5 -2.9,11.1 0,16 2.9,5 8.2,8 13.9,8 h 567.6 c 5.7,0 11,-3.1 13.9,-8 2.9,-5 2.9,-11.1 0,-16 z" id="sign_border"></path>
    <polygon points="299.875,48.2 555.875,491.5 43.875,491.5" transform="matrix(1,0,0,0.99591458,0.125,2.0332437)" id="polygon7" style="fill:#f6bd16;fill-opacity:1;stroke:none;overflow:visible"></polygon>
    <path d="m 300.42187,118.40625 c -5.41456,0 -9.78125,4.36669 -9.78125,9.78125 0,3.29611 1.63074,6.19138 4.125,7.96875 l 0,10.71875 c -3.87628,2.12308 -6.5,6.23741 -6.5,10.96875 0,4.73134 2.62372,8.84567 6.5,10.96875 l 0,15.53125 c 0,4.3007 10.02409,15.28781 9,20 -3,10 -13.01018,4.99085 -15.46875,-3.59375 -0.51738,-0.69291 -1.10607,-4.72513 -1.53125,-4.40625 -4,3 -5.31429,12.94111 -3,19 0.66197,1.73303 3,6 6,8 -1.15579,6.35137 -12.22341,20.71895 -28.40625,49.8125 L 235.29687,320 l -46.53125,17.34375 0,54 22,12 1,3 5,3 39.125,-12.3125 39.875,-14.6875 0,-60 7,6 1,-102 55,141 -56,-39 0,57 c -26.83342,8.33688 -52.88936,18.69317 -79,29 l 5,3 5,-1 45,25 0,4 5,2 75.625,-25.90625 0.375,-53.09375 6,3 -0.5625,28.125 0,25.53125 L 290,450 c -0.35611,1.17523 2.80982,3.11569 5.76562,4.34375 1.33009,0.55263 4.63966,-0.7312 6,0 5.32284,2.86112 12.2029,7.77971 13,8 0.7971,0.22015 16.98895,-4.99647 38.09375,-12.59375 l 38.375,-13.8125 -0.0312,-23.1875 -0.0312,-23.1875 -25.40635,-18.21875 -35.375,-89.90625 c -15.40661,-39.10551 -20.82503,-50.91085 -19.625,-56.09375 0.36822,-1.59035 6.8435,-6.72208 8,-8 5.29724,-10.85581 2.34249,-19.31686 -5,-25 -1.75732,-1.36018 -8.20276,-5.36393 -8,-8 l 0,-15.03125 c 4.41839,-1.92775 7.5,-6.34013 7.5,-11.46875 0,-5.12862 -3.08161,-9.541 -7.5,-11.46875 l 0,-9.96875 c 2.69214,-1.74762 4.46875,-4.77002 4.46875,-8.21875 0,-5.41456 -4.39794,-9.78125 -9.8125,-9.78125 z m -5.65625,107.9375 c 0.62889,0 1.35717,23.21606 0.875,48.71875 l 0.125,47.28125 -22.9375,-15.5 -14.75,5.59375 -14.75,5.59375 8.375,-14.96875 c 4.60647,-8.23067 15.85002,-28.31567 25,-44.65625 9.14999,-16.34058 17.43357,-32.0625 18.0625,-32.0625 z" id="path3592" style="fill:#000000;stroke:none"></path>
  </g>
</svg>