
<svg xmlns="http://www.w3.org/2000/svg" height="525" width="600" version="1.1" viewBox="0 0 600 525">
  <path d="M597.6,499.6,313.8,8c-2.9-5-8.2-8-13.9-8s-11,3.1-13.9,8l-283.8,491.6c-2.9,5-2.9,11.1,0,16,2.9,5,8.2,8,13.9,8h567.6c5.7,0,11-3.1,13.9-8,2.9-5,2.9-11.1,0-16z"></path>
  <polygon points="43.875,491.5,299.88,48.2,555.88,491.5" fill="#f6bd16" transform="matrix(1,0,0,0.99591458,0.125,2.0332437)"></polygon>
  <path d="m115,460,0-20,370,0,0,20z" fill="#000000"></path>
  <path d="m179.89,433.9c-9.543-5.5583-5.3709-13.228,16.744-30.78,11.895-9.4411,29.163-20.768,38.372-25.172l16.744-8.0062-24.264-0.002c-21.79-0.002-26.45,0.99377-45.697,9.7652-24.515,11.172-30.542,11.937-34.582,4.3882-5.0195-9.379,0.0218-14.399,27.067-26.951l26.363-12.236,28.634,1.752c18.544,1.1347,29.261,0.73722,30.413-1.128,0.97893-1.5839,6.1258-13.033,11.437-25.443l9.6575-22.563-15.192-10.537c-13.807-9.5764-15.968-12.559-23.706-32.721-10.344-26.952-10.082-33.63,1.3175-33.63,7.6227,0,8.7891,1.5054,16.744,21.612,7.9594,20.117,9.8053,22.498,26.69,34.423,17.337,12.245,18.818,12.751,33.488,11.445,25.787-2.2952,29.343-4.7774,36.15-25.23,3.314-9.9585,7.7781-19.561,9.9203-21.339,5.9183-4.9118,15.326-0.70592,15.326,6.8519,0,7.0503-12.757,42.779-17.176,48.105-1.5105,1.8206-11.176,5.4816-21.478,8.1356l-18.732,4.8254-13.865,32.33-13.865,32.33-33.577,16.744c-18.468,9.2093-42.285,23.337-52.928,31.395-20.419,15.46-22.234,16.164-30.006,11.637z" fill="#000000"></path>
  <path fill="#000000" d="m302.14,280.02c-3.8473-5.303-4.8076-12.845-1.4868-18.644,2.4395-4.5804,6.4453-8.3268,11.155-10.489,6.0541-2.3429,13.533-0.4091,17.481,4.8074,4.4521,4.9721,7.3975,11.964,5.7639,18.67-1.4681,5.6576-6.7576,9.7453-12.414,10.628-5.4455,1.2588-11.581,1.7261-16.604-1.1809-1.5602-0.95147-2.9022-2.258-3.8956-3.7918z"></path>
</svg>