
<svg xmlns="http://www.w3.org/2000/svg" height="525" width="600" version="1.1" viewBox="0 0 600 525">
  <path d="M597.6,499.6,313.8,8c-2.9-5-8.2-8-13.9-8s-11,3.1-13.9,8l-283.8,491.6c-2.9,5-2.9,11.1,0,16,2.9,5,8.2,8,13.9,8h567.6c5.7,0,11-3.1,13.9-8,2.9-5,2.9-11.1,0-16z"></path>
  <polygon points="43.875,491.5,299.88,48.2,555.88,491.5" fill="#f6bd16" transform="matrix(1,0,0,0.99591458,0.125,2.0332437)"></polygon>
  <path style="enable-background:accumulate;color:#000000;" d="m447,350,0,70-30,0c-4.886,7.1636-7.8772,15.129-30,15h-125c-10,0-10-15,0-15h60v-5h-80c-10,0-10-20,0-20h80v-3.3247h-95c-12.41-1.68-10-18.84,0-18.68h95v-4.4175h-85c-10-0.42-10-18.58,0-18.58h85v-5h-25c-10.336-2.0356-16.988-10.118-15-19h100c15.458-0.37412,29.078,6.6653,35,24zm-294,90,125,0,0,15-125,0zm0-110,125,0,0,15-125,0zm55-85,20,0,0,50,15,0-25,30-25-30,15,0z" fill-rule="nonzero" fill="#000000"></path>
</svg>