<?xml version="1.0" encoding="UTF-8" standalone="yes"?>
<svg xmlns="http://www.w3.org/2000/svg" xmlns:xlink="http://www.w3.org/1999/xlink" width="685pt" height="600pt" viewBox="0 0 685 600" version="1.1">
  <g id="surface1">
    <path style="fill-rule:evenodd;fill:rgb(0.784314%,1.960784%,1.960784%);fill-opacity:1;stroke-width:0.127844;stroke-linecap:butt;stroke-linejoin:miter;stroke:rgb(0.784314%,1.960784%,1.960784%);stroke-opacity:1;stroke-miterlimit:2.613;" d="M 197.46208 164.743687 L 104.122664 2.938542 L 103.544526 2.076193 L 102.826095 1.427453 L 102.036387 0.853307 L 101.099599 0.423828 L 100.165073 0.134495 L 99.158139 0.0644219 L 98.153467 0.134495 L 97.146533 0.423828 L 96.283285 0.853307 L 95.420036 1.427453 L 94.77062 2.076193 L 94.197007 2.938542 L 0.857591 164.743687 L 0.423139 165.67724 L 0.134635 166.610792 L 0.0644891 167.618937 L 0.134635 168.627083 L 0.423139 169.630708 L 0.857591 170.494188 L 1.431204 171.356536 L 2.076095 172.005276 L 2.939343 172.579422 L 3.802591 173.013422 L 4.810657 173.302755 L 5.817591 173.372828 L 192.50208 173.372828 L 193.509015 173.302755 L 194.442409 173.013422 L 195.376934 172.579422 L 196.170036 172.005276 L 196.888467 171.356536 L 197.46208 170.494188 L 197.896533 169.630708 L 198.181642 168.627083 L 198.255182 167.618937 L 198.181642 166.610792 L 197.896533 165.67724 Z M 197.46208 164.743687" transform="matrix(3.452621,0,0,3.456221,0,0)"></path>
    <path style="fill-rule:evenodd;fill:rgb(92.156863%,74.901961%,16.862745%);fill-opacity:1;stroke-width:0.127844;stroke-linecap:butt;stroke-linejoin:miter;stroke:rgb(0.784314%,1.960784%,1.960784%);stroke-opacity:1;stroke-miterlimit:2.613;" d="M 99.158139 18.110458 L 181.856861 161.505641 L 16.458285 161.505641 Z M 99.158139 18.110458" transform="matrix(3.452621,0,0,3.456221,0,0)"></path>
    <path style="fill-rule:evenodd;fill:rgb(0.784314%,1.960784%,1.960784%);fill-opacity:1;stroke-width:0.141827;stroke-linecap:butt;stroke-linejoin:miter;stroke:rgb(0.784314%,1.960784%,1.960784%);stroke-opacity:1;stroke-miterlimit:2.613;" d="M 123.747701 76.70837 L 123.747701 77.46674 L 123.673029 78.231891 L 123.458066 78.954094 L 123.129964 79.645781 L 122.658175 80.224448 L 122.36854 80.477615 L 122.005365 80.587245 L 121.243942 80.587245 L 120.517591 80.517172 L 119.755036 80.334078 L 119.028686 80.114818 L 118.341934 79.825484 L 117.649526 79.536151 L 116.306569 78.810557 L 115.00208 78.01376 L 113.62292 77.395536 L 112.896569 77.177406 L 112.134015 77.067776 L 111.372591 77.03274 L 110.646241 77.107333 L 109.884818 77.287036 L 109.157336 77.505167 L 107.779307 78.12226 L 106.473686 78.845594 L 105.165803 79.645781 L 104.439453 79.900078 L 104.076277 80.005188 L 103.896387 80.079781 L 103.861314 80.079781 L 103.751569 80.114818 L 103.606752 80.114818 L 103.423467 80.154375 L 103.133832 80.154375 L 102.700511 80.189411 L 104.368175 78.591297 L 104.985912 77.90413 L 105.458832 77.107333 L 106.255328 75.399589 L 106.583431 75.219885 L 106.837993 75.076349 L 107.344854 74.782495 L 108.395912 74.275031 L 108.938978 74.095328 L 109.485438 73.950661 L 110.611168 73.767568 L 111.770839 73.767568 L 112.931642 73.876068 L 113.513175 73.985698 L 114.059635 74.130365 L 115.145766 74.567755 L 117.10646 75.763516 L 118.122445 76.345573 L 119.173504 76.818 L 119.755036 76.962667 L 120.298102 77.067776 L 121.462299 77.107333 L 122.623102 76.997703 Z M 123.747701 76.70837" transform="matrix(3.452621,0,0,3.456221,0,0)"></path>
    <path style="fill-rule:evenodd;fill:rgb(0.784314%,1.960784%,1.960784%);fill-opacity:1;stroke-width:0.141827;stroke-linecap:butt;stroke-linejoin:miter;stroke:rgb(0.784314%,1.960784%,1.960784%);stroke-opacity:1;stroke-miterlimit:2.613;" d="M 94.423285 74.130365 L 91.919526 73.114307 L 90.650109 72.681438 L 89.34562 72.427141 L 88.001533 72.392104 L 86.657445 72.462177 L 85.352956 72.681438 L 84.696752 72.861141 L 84.080146 73.114307 L 82.919343 73.731401 L 81.759672 74.458125 L 80.595474 75.111385 L 80.017336 75.439146 L 79.399599 75.693443 L 78.74792 75.908182 L 78.091715 76.016682 L 77.438905 76.091276 L 76.751022 76.126312 L 75.443139 75.981646 L 74.13865 75.653885 L 74.099051 76.306016 L 74.173723 76.997703 L 74.317409 77.649833 L 74.501825 78.266927 L 74.825401 78.845594 L 75.228175 79.392615 L 75.481606 79.607354 L 75.771241 79.755411 L 76.094818 79.860521 L 76.42292 79.900078 L 77.07573 79.900078 L 77.767007 79.825484 L 79.071496 79.501115 L 80.305839 79.063724 L 81.505109 78.486187 L 83.825584 77.14237 L 85.059927 76.59874 L 85.677664 76.380609 L 86.329343 76.200906 L 86.985547 76.091276 L 87.638358 76.016682 L 88.326241 76.016682 L 88.982445 76.091276 L 90.286934 76.415646 L 91.521277 76.923109 Z M 94.423285 74.130365" transform="matrix(3.452621,0,0,3.456221,0,0)"></path>
    <path style="fill-rule:evenodd;fill:rgb(0.784314%,1.960784%,1.960784%);fill-opacity:1;stroke-width:0.141827;stroke-linecap:butt;stroke-linejoin:miter;stroke:rgb(0.784314%,1.960784%,1.960784%);stroke-opacity:1;stroke-miterlimit:2.613;" d="M 142.254927 134.27101 L 141.603248 132.709062 L 141.348686 131.876099 L 141.275146 131.478266 L 141.313613 131.259005 L 141.458431 131.114339 L 143.055949 130.532281 L 143.853577 130.317542 L 144.68854 130.134448 L 145.122993 130.099411 L 145.524635 130.209042 L 145.704526 130.317542 L 145.849343 130.462208 L 145.994161 130.861172 L 146.357336 132.494323 L 146.54062 132.892156 L 146.645839 133.036823 L 146.865328 133.146453 L 147.263577 133.106896 L 147.665219 132.927193 L 147.954854 132.602823 L 148.173212 132.275062 L 148.49792 131.478266 L 148.681204 130.641911 L 148.826022 129.810078 L 149.005912 128.1385 L 149.334015 124.767089 L 149.477701 123.930734 L 149.552372 123.497865 L 149.622518 123.313641 L 149.805803 123.243568 L 150.020766 123.313641 L 150.205182 123.458307 L 150.493686 123.751031 L 151.040146 124.404292 L 152.056131 125.743589 L 152.962372 127.162 L 154.739781 130.064375 L 156.447044 133.001786 L 159.747299 138.911646 L 162.97854 144.861063 L 166.138504 150.845516 L 166.681569 152.8765 L 166.86146 153.239297 L 30.368686 153.239297 L 48.840839 121.610417 L 49.821752 120.016823 L 50.837737 118.528339 L 51.962336 117.076021 L 53.161606 115.700557 L 53.524781 115.805667 L 53.884562 115.950333 L 54.540766 116.387724 L 55.083832 116.896318 L 55.591825 117.473854 L 56.063613 118.090948 L 56.426788 118.747599 L 57.114672 120.088026 L 57.770876 116.423891 L 58.313942 116.642021 L 58.821934 116.931354 L 59.802847 117.583484 L 60.672883 118.345245 L 61.03719 118.782635 L 61.400365 119.251672 L 61.688869 119.759135 L 61.943431 120.306156 L 62.12219 120.848656 L 62.231934 121.430714 L 62.306606 122.00938 L 62.306606 122.591437 L 62.196861 123.168974 L 62.052044 123.423271 L 61.872153 123.642531 L 61.360766 123.930734 L 60.817701 124.149995 L 60.599343 124.329698 L 60.489599 124.583995 L 60.56427 124.876719 L 60.709088 125.129885 L 60.927445 125.345755 L 61.215949 125.419219 L 61.76354 125.274552 L 62.271533 124.986349 L 62.743321 124.657458 L 64.555803 123.133938 L 66.263066 121.57538 L 67.169307 120.81362 L 67.602628 120.450823 L 68.11062 120.196526 L 68.40365 120.123063 L 68.693285 120.123063 L 68.986314 120.231562 L 69.201277 120.411266 L 69.489781 120.919859 L 69.673066 121.46688 L 69.892555 122.626474 L 69.962701 123.787198 L 70.001168 126.110906 L 69.962701 128.46626 L 69.962701 129.626984 L 70.001168 130.209042 L 70.107518 130.786578 L 70.181058 131.040875 L 70.360949 131.294042 L 70.763723 131.732563 L 71.595292 132.529359 L 73.520912 133.83362 L 73.447372 134.849677 L 73.482445 135.829568 L 73.520912 136.337031 L 73.66573 136.845625 L 73.810547 137.025328 L 74.028905 137.133828 L 74.282336 137.025328 L 74.462226 136.880661 L 75.333394 136.372068 L 76.244161 135.904161 L 78.056642 135.067807 L 78.165255 137.895589 L 78.239927 139.345646 L 78.310073 140.036203 L 78.419818 140.762927 L 78.493358 140.762927 L 78.528431 140.689464 L 78.638175 140.544797 L 78.962883 140.365094 L 79.326058 140.2905 L 79.654161 140.2905 L 80.017336 140.365094 L 80.345438 140.470203 L 80.525328 140.579833 L 80.633942 140.689464 L 80.813832 141.017224 L 82.665912 143.192875 L 84.481788 145.403562 L 85.243212 146.602714 L 85.497774 147.255974 L 85.642591 147.583734 L 85.896022 147.873068 L 86.439088 148.305937 L 87.055693 148.634828 L 88.399781 149.177328 L 89.743869 149.611328 L 91.158102 149.939089 L 122.115109 149.939089 L 126.504891 147.981568 L 129.736131 147.29101 L 131.298577 146.85701 L 132.095073 146.567677 L 132.274964 146.494214 L 132.384708 146.30999 L 132.638139 145.98562 L 133.654124 144.681359 L 134.598832 143.337542 L 135.036679 142.650375 L 135.286715 142.321484 L 135.614818 142.068318 L 136.013066 141.923651 L 136.411314 141.849057 L 136.809562 141.849057 L 137.212336 141.888615 L 136.630803 141.306557 L 136.052664 140.654427 L 135.614818 139.96613 L 135.325182 139.165943 L 135.181496 138.334109 L 135.141898 137.497755 L 135.251642 136.665922 L 135.434927 135.829568 L 139.173029 135.067807 L 142.547956 136.990292 Z M 142.254927 134.27101" transform="matrix(3.452621,0,0,3.456221,0,0)"></path>
    <path style="fill-rule:evenodd;fill:rgb(0.784314%,1.960784%,1.960784%);fill-opacity:1;stroke-width:0.141827;stroke-linecap:butt;stroke-linejoin:miter;stroke:rgb(0.784314%,1.960784%,1.960784%);stroke-opacity:1;stroke-miterlimit:2.613;" d="M 64.955182 120.306156 L 64.630474 120.450823 L 64.227701 120.450823 L 63.904124 120.306156 L 63.79438 120.196526 L 63.759307 119.978396 L 63.904124 119.654026 L 64.084015 119.326266 L 64.555803 118.708042 Z M 64.955182 120.306156" transform="matrix(3.452621,0,0,3.456221,0,0)"></path>
    <path style="fill-rule:evenodd;fill:rgb(0.784314%,1.960784%,1.960784%);fill-opacity:1;stroke-width:0.141827;stroke-linecap:butt;stroke-linejoin:miter;stroke:rgb(0.784314%,1.960784%,1.960784%);stroke-opacity:1;stroke-miterlimit:2.613;" d="M 60.599343 110.005437 L 60.419453 110.439437 L 60.344781 110.547938 L 60.236168 110.584104 L 59.981606 110.584104 L 59.513212 110.404401 L 59.075365 110.150104 L 58.677117 109.822344 L 58.532299 109.642641 L 58.532299 109.388344 L 58.751788 109.243677 L 58.966752 109.169083 L 59.43854 109.025547 L 60.747555 109.388344 Z M 60.599343 110.005437" transform="matrix(3.452621,0,0,3.456221,0,0)"></path>
    <path style="fill-rule:evenodd;fill:rgb(0.784314%,1.960784%,1.960784%);fill-opacity:1;stroke-width:0.141827;stroke-linecap:butt;stroke-linejoin:miter;stroke:rgb(0.784314%,1.960784%,1.960784%);stroke-opacity:1;stroke-miterlimit:2.613;" d="M 86.912007 131.223969 L 86.841861 130.934635 L 86.692518 130.681469 L 86.513759 130.462208 L 86.22073 130.352578 L 85.931095 130.352578 L 85.642591 130.423781 L 85.134599 130.751542 L 83.61062 132.095359 L 86.29427 132.165432 Z M 86.912007 131.223969" transform="matrix(3.452621,0,0,3.456221,0,0)"></path>
    <path style="fill-rule:evenodd;fill:rgb(0.784314%,1.960784%,1.960784%);fill-opacity:1;stroke-width:0.141827;stroke-linecap:butt;stroke-linejoin:miter;stroke:rgb(0.784314%,1.960784%,1.960784%);stroke-opacity:1;stroke-miterlimit:2.613;" d="M 83.900255 136.990292 L 85.423102 137.243458 L 86.912007 137.388125 L 87.673431 137.388125 L 88.036606 137.353089 L 88.219891 137.278495 L 88.399781 137.173385 L 88.833102 136.556292 L 89.235876 135.939198 L 89.599051 135.252031 L 89.814015 134.525307 L 89.853613 134.16138 L 89.743869 133.798583 L 89.560584 133.470823 L 89.306022 133.18149 L 88.982445 133.001786 L 88.61927 132.892156 L 88.219891 132.852599 L 87.856715 132.852599 L 87.095292 132.962229 L 86.368942 133.106896 L 86.368942 135.322104 Z M 83.900255 136.990292" transform="matrix(3.452621,0,0,3.456221,0,0)"></path>
    <path style="fill-rule:evenodd;fill:rgb(0.784314%,1.960784%,1.960784%);fill-opacity:1;stroke-width:0.141827;stroke-linecap:butt;stroke-linejoin:miter;stroke:rgb(0.784314%,1.960784%,1.960784%);stroke-opacity:1;stroke-miterlimit:2.613;" d="M 94.896204 122.044417 L 84.481788 128.938687 L 84.118613 127.993833 Z M 94.896204 122.044417" transform="matrix(3.452621,0,0,3.456221,0,0)"></path>
    <path style="fill-rule:evenodd;fill:rgb(0.784314%,1.960784%,1.960784%);fill-opacity:1;stroke-width:0.141827;stroke-linecap:butt;stroke-linejoin:miter;stroke:rgb(0.784314%,1.960784%,1.960784%);stroke-opacity:1;stroke-miterlimit:2.613;" d="M 70.872336 102.025036 L 70.544234 92.848875 L 69.60292 102.025036 Z M 70.872336 102.025036" transform="matrix(3.452621,0,0,3.456221,0,0)"></path>
    <path style="fill-rule:evenodd;fill:rgb(0.784314%,1.960784%,1.960784%);fill-opacity:1;stroke-width:0.141827;stroke-linecap:butt;stroke-linejoin:miter;stroke:rgb(0.784314%,1.960784%,1.960784%);stroke-opacity:1;stroke-miterlimit:2.613;" d="M 64.845438 107.720156 L 60.38438 103.473964 L 64.482263 107.720156 Z M 64.845438 107.720156" transform="matrix(3.452621,0,0,3.456221,0,0)"></path>
    <path style="fill-rule:evenodd;fill:rgb(0.784314%,1.960784%,1.960784%);fill-opacity:1;stroke-width:0.141827;stroke-linecap:butt;stroke-linejoin:miter;stroke:rgb(0.784314%,1.960784%,1.960784%);stroke-opacity:1;stroke-miterlimit:2.613;" d="M 63.904124 113.267219 L 55.48208 111.962958 L 63.649562 114.173646 Z M 63.904124 113.267219" transform="matrix(3.452621,0,0,3.456221,0,0)"></path>
    <path style="fill-rule:evenodd;fill:rgb(0.784314%,1.960784%,1.960784%);fill-opacity:1;stroke-width:0.141827;stroke-linecap:butt;stroke-linejoin:miter;stroke:rgb(0.784314%,1.960784%,1.960784%);stroke-opacity:1;stroke-miterlimit:2.613;" d="M 84.551934 117.982448 L 79.469745 116.712094 L 76.244161 129.770521 L 81.321825 131.040875 Z M 84.551934 117.982448" transform="matrix(3.452621,0,0,3.456221,0,0)"></path>
    <path style="fill-rule:evenodd;fill:rgb(0.784314%,1.960784%,1.960784%);fill-opacity:1;stroke-width:0.141827;stroke-linecap:butt;stroke-linejoin:miter;stroke:rgb(0.784314%,1.960784%,1.960784%);stroke-opacity:1;stroke-miterlimit:2.613;" d="M 84.626606 117.368745 L 84.551934 116.677057 L 84.298504 116.024927 L 83.865182 115.482427 L 83.317591 115.083464 L 82.700985 114.829167 L 82.013102 114.720667 L 81.321825 114.829167 L 80.705219 115.083464 L 80.162153 115.482427 L 79.727701 116.024927 L 79.469745 116.677057 L 79.399599 117.368745 L 79.469745 118.020875 L 79.727701 118.673005 L 80.162153 119.216635 L 80.705219 119.61899 L 81.321825 119.908323 L 82.013102 119.978396 L 82.700985 119.908323 L 83.317591 119.61899 L 83.865182 119.216635 L 84.298504 118.673005 L 84.551934 118.020875 Z M 84.626606 117.368745" transform="matrix(3.452621,0,0,3.456221,0,0)"></path>
    <path style="fill-rule:evenodd;fill:rgb(0.784314%,1.960784%,1.960784%);fill-opacity:1;stroke-width:0.141827;stroke-linecap:butt;stroke-linejoin:miter;stroke:rgb(0.784314%,1.960784%,1.960784%);stroke-opacity:1;stroke-miterlimit:2.613;" d="M 79.797847 104.817781 L 79.727701 104.126094 L 79.434672 103.513521 L 79.036423 102.9665 L 78.493358 102.5325 L 77.837153 102.279333 L 77.185474 102.20474 L 76.497591 102.279333 L 75.880985 102.5325 L 75.333394 102.9665 L 74.900073 103.513521 L 74.646642 104.126094 L 74.536898 104.817781 L 74.646642 105.504948 L 74.900073 106.123172 L 75.333394 106.669062 L 75.880985 107.103062 L 76.497591 107.357359 L 77.185474 107.427432 L 77.837153 107.357359 L 78.493358 107.103062 L 79.036423 106.669062 L 79.434672 106.123172 L 79.727701 105.504948 Z M 79.797847 104.817781" transform="matrix(3.452621,0,0,3.456221,0,0)"></path>
    <path style="fill-rule:evenodd;fill:rgb(0.784314%,1.960784%,1.960784%);fill-opacity:1;stroke-width:0.141827;stroke-linecap:butt;stroke-linejoin:miter;stroke:rgb(0.784314%,1.960784%,1.960784%);stroke-opacity:1;stroke-miterlimit:2.613;" d="M 81.396496 130.388745 L 81.321825 129.697057 L 81.033321 129.083354 L 80.633942 128.540854 L 80.087482 128.1385 L 79.434672 127.849167 L 78.782993 127.774573 L 78.091715 127.849167 L 77.478504 128.1385 L 76.930912 128.540854 L 76.497591 129.083354 L 76.244161 129.697057 L 76.134416 130.388745 L 76.244161 131.075911 L 76.497591 131.693005 L 76.930912 132.240026 L 77.478504 132.672896 L 78.091715 132.927193 L 78.782993 133.036823 L 79.434672 132.927193 L 80.087482 132.672896 L 80.633942 132.240026 L 81.033321 131.693005 L 81.321825 131.075911 Z M 81.396496 130.388745" transform="matrix(3.452621,0,0,3.456221,0,0)"></path>
    <path style="fill-rule:evenodd;fill:rgb(0.784314%,1.960784%,1.960784%);fill-opacity:1;stroke-width:0.141827;stroke-linecap:butt;stroke-linejoin:miter;stroke:rgb(0.784314%,1.960784%,1.960784%);stroke-opacity:1;stroke-miterlimit:2.613;" d="M 75.661496 112.470422 L 75.551752 111.489401 L 75.263248 110.50951 L 74.790328 109.642641 L 74.173723 108.88088 L 73.411168 108.22762 L 72.504927 107.755193 L 71.560219 107.465859 L 70.579307 107.392396 L 69.564453 107.465859 L 68.623139 107.755193 L 67.751971 108.22762 L 66.950949 108.88088 L 66.333212 109.642641 L 65.861423 110.50951 L 65.571788 111.489401 L 65.462044 112.470422 L 65.571788 113.450312 L 65.861423 114.426812 L 66.333212 115.298203 L 66.950949 116.059964 L 67.751971 116.712094 L 68.623139 117.185651 L 69.564453 117.473854 L 70.579307 117.583484 L 71.560219 117.473854 L 72.504927 117.185651 L 73.411168 116.712094 L 74.173723 116.059964 L 74.790328 115.298203 L 75.263248 114.426812 L 75.551752 113.450312 Z M 75.661496 112.470422" transform="matrix(3.452621,0,0,3.456221,0,0)"></path>
    <path style="fill-rule:evenodd;fill:rgb(0.784314%,1.960784%,1.960784%);fill-opacity:1;stroke-width:0.141827;stroke-linecap:butt;stroke-linejoin:miter;stroke:rgb(0.784314%,1.960784%,1.960784%);stroke-opacity:1;stroke-miterlimit:2.613;" d="M 92.75562 91.14226 L 93.153869 90.27087 L 93.372226 89.29437 L 93.407299 88.349516 L 93.263613 87.368495 L 92.935511 86.462068 L 92.427518 85.630234 L 91.774708 84.90351 L 90.978212 84.325974 L 90.107044 83.92362 L 89.161204 83.669323 L 88.181423 83.634286 L 87.240109 83.778953 L 86.29427 84.14175 L 85.458175 84.615307 L 84.771423 85.302474 L 84.188759 86.064234 L 75.079964 101.442979 L 74.681715 102.31437 L 74.427153 103.259224 L 74.39208 104.235724 L 74.536898 105.216745 L 74.900073 106.122042 L 75.372993 106.958396 L 76.059745 107.681729 L 76.822299 108.262656 L 77.731934 108.66162 L 78.673248 108.915917 L 79.654161 108.954344 L 80.595474 108.806286 L 81.505109 108.44349 L 82.33781 107.934896 L 83.064161 107.282766 L 83.645693 106.521005 Z M 92.75562 91.14226" transform="matrix(3.452621,0,0,3.456221,0,0)"></path>
    <path style="fill-rule:evenodd;fill:rgb(0.784314%,1.960784%,1.960784%);fill-opacity:1;stroke-width:0.141827;stroke-linecap:butt;stroke-linejoin:miter;stroke:rgb(0.784314%,1.960784%,1.960784%);stroke-opacity:1;stroke-miterlimit:2.613;" d="M 110.899672 60.892234 L 105.31062 58.282583 L 98.052774 73.622901 L 103.641825 76.270979 Z M 110.899672 60.892234" transform="matrix(3.452621,0,0,3.456221,0,0)"></path>
    <path style="fill-rule:evenodd;fill:rgb(0.784314%,1.960784%,1.960784%);fill-opacity:1;stroke-width:0.141827;stroke-linecap:butt;stroke-linejoin:miter;stroke:rgb(0.784314%,1.960784%,1.960784%);stroke-opacity:1;stroke-miterlimit:2.613;" d="M 111.189307 59.587974 L 111.084088 58.786656 L 110.755985 58.024896 L 110.283066 57.411193 L 109.630255 56.900339 L 108.903905 56.611005 L 108.107409 56.501375 L 107.306387 56.611005 L 106.544964 56.900339 L 105.927226 57.411193 L 105.419234 58.024896 L 105.13073 58.786656 L 105.020985 59.587974 L 105.13073 60.384771 L 105.419234 61.110365 L 105.927226 61.763625 L 106.544964 62.271089 L 107.306387 62.560422 L 108.107409 62.670052 L 108.903905 62.560422 L 109.630255 62.271089 L 110.283066 61.763625 L 110.755985 61.110365 L 111.084088 60.384771 Z M 111.189307 59.587974" transform="matrix(3.452621,0,0,3.456221,0,0)"></path>
    <path style="fill-rule:evenodd;fill:rgb(0.784314%,1.960784%,1.960784%);fill-opacity:1;stroke-width:0.141827;stroke-linecap:butt;stroke-linejoin:miter;stroke:rgb(0.784314%,1.960784%,1.960784%);stroke-opacity:1;stroke-miterlimit:2.613;" d="M 103.969927 74.966719 L 103.861314 74.165401 L 103.533212 73.408161 L 103.060292 72.75151 L 102.407482 72.279083 L 101.646058 71.954714 L 100.849562 71.845083 L 100.04854 71.954714 L 99.32219 72.279083 L 98.66938 72.75151 L 98.19646 73.408161 L 97.872883 74.165401 L 97.763139 74.966719 L 97.872883 75.763516 L 98.19646 76.49024 L 98.66938 77.14237 L 99.32219 77.614797 L 100.04854 77.939167 L 100.849562 78.048797 L 101.646058 77.939167 L 102.407482 77.614797 L 103.060292 77.14237 L 103.533212 76.49024 L 103.861314 75.763516 Z M 103.969927 74.966719" transform="matrix(3.452621,0,0,3.456221,0,0)"></path>
    <path style="fill-rule:evenodd;fill:rgb(0.784314%,1.960784%,1.960784%);fill-opacity:1;stroke-width:0.141827;stroke-linecap:butt;stroke-linejoin:miter;stroke:rgb(0.784314%,1.960784%,1.960784%);stroke-opacity:1;stroke-miterlimit:2.613;" d="M 91.701168 86.716365 L 91.594818 85.919568 L 91.301788 85.192844 L 90.794927 84.540714 L 90.17719 84.071677 L 89.415766 83.743917 L 88.61927 83.634286 L 87.818248 83.743917 L 87.091898 84.071677 L 86.439088 84.540714 L 85.931095 85.192844 L 85.642591 85.919568 L 85.532847 86.716365 L 85.642591 87.513161 L 85.931095 88.279443 L 86.439088 88.931573 L 87.091898 89.399479 L 87.818248 89.72837 L 88.61927 89.838 L 89.415766 89.72837 L 90.17719 89.399479 L 90.794927 88.931573 L 91.301788 88.279443 L 91.594818 87.513161 Z M 91.701168 86.716365" transform="matrix(3.452621,0,0,3.456221,0,0)"></path>
    <path style="fill-rule:evenodd;fill:rgb(0.784314%,1.960784%,1.960784%);fill-opacity:1;stroke-width:0.141827;stroke-linecap:butt;stroke-linejoin:miter;stroke:rgb(0.784314%,1.960784%,1.960784%);stroke-opacity:1;stroke-miterlimit:2.613;" d="M 79.619088 103.872927 L 74.716788 105.759245 L 79.544416 118.310208 L 84.443321 116.423891 Z M 79.619088 103.872927" transform="matrix(3.452621,0,0,3.456221,0,0)"></path>
    <path style="fill-rule:evenodd;fill:rgb(0.784314%,1.960784%,1.960784%);fill-opacity:1;stroke-width:0.141827;stroke-linecap:butt;stroke-linejoin:miter;stroke:rgb(0.784314%,1.960784%,1.960784%);stroke-opacity:1;stroke-miterlimit:2.613;" d="M 102.990146 77.177406 L 98.708978 72.716474 L 86.474161 84.505677 L 90.759854 88.966609 Z M 102.990146 77.177406" transform="matrix(3.452621,0,0,3.456221,0,0)"></path>
  </g>
</svg>