
<svg xmlns="http://www.w3.org/2000/svg" height="525" width="600" version="1.1" viewBox="0 0 600 525">
  <path d="M597.6,499.6,313.8,8c-2.9-5-8.2-8-13.9-8s-11,3.1-13.9,8l-283.8,491.6c-2.9,5-2.9,11.1,0,16,2.9,5,8.2,8,13.9,8h567.6c5.7,0,11-3.1,13.9-8,2.9-5,2.9-11.1,0-16z"></path>
  <polygon points="43.875,491.5,299.88,48.2,555.88,491.5" transform="matrix(1,0,0,0.99591458,0.125,2.0332437)" fill="#f6bd16"></polygon>
  <rect height="25" width="250" y="437" x="175" fill="#000000"></rect>
  <path stroke-linejoin="miter" d="M242.68,415c56.86-81.3-60.68-104.16-2.68-185" stroke="#000000" stroke-linecap="butt" stroke-miterlimit="4" stroke-dasharray="none" stroke-width="16" fill="none"></path>
  <path stroke-linejoin="miter" d="m303.78,414.51c56.86-81.3-60.561-103.43-2.561-184.27" stroke="#000000" stroke-linecap="butt" stroke-miterlimit="4" stroke-dasharray="none" stroke-width="16" fill="none"></path>
  <path stroke-linejoin="miter" d="M365,415c56.86-81.3-59.23-104.65-1.22-185.49" stroke="#000000" stroke-linecap="butt" stroke-miterlimit="4" stroke-dasharray="none" stroke-width="16" fill="none"></path>
</svg>