<?xml version="1.0" encoding="UTF-8" standalone="yes"?>
<svg xmlns="http://www.w3.org/2000/svg" xmlns:xlink="http://www.w3.org/1999/xlink" width="688pt" height="600pt" viewBox="0 0 688 600" version="1.1">
  <g id="surface1">
    <path style="stroke:none;fill-rule:evenodd;fill:rgb(92.156863%,74.901961%,16.862745%);fill-opacity:1;" d="M 630.152344 559.800781 L 343.632812 62.90625 L 57.109375 559.800781 Z M 630.152344 559.800781"></path>
    <path style="stroke:none;fill-rule:evenodd;fill:rgb(0.784314%,1.960784%,1.960784%);fill-opacity:1;" d="M 667.554688 600.992188 C 678.527344 600.992188 687.261719 592.257812 687.261719 581.515625 C 687.261719 577.527344 686.015625 573.785156 684.011719 570.53125 L 359.847656 8.734375 C 356.351562 3.242188 350.121094 0 343.632812 0 C 337.144531 0 330.910156 3.242188 327.171875 8.734375 L 3.25 570.53125 C 1.257812 573.785156 0 577.527344 0 581.515625 C 0 592.257812 8.738281 600.992188 19.710938 600.992188 Z M 630.152344 559.800781 L 343.632812 62.90625 L 57.109375 559.800781 Z M 630.152344 559.800781"></path>
    <path style="stroke:none;fill-rule:evenodd;fill:rgb(0.784314%,1.960784%,1.960784%);fill-opacity:1;" d="M 250.179688 284.34375 L 209.972656 426 L 270.0625 392.589844 L 256.925781 487.25 L 244.179688 469.605469 L 254.308594 530.109375 L 290.328125 477.484375 L 271.566406 489.503906 L 307.964844 356.105469 L 241.863281 392.957031 L 290.328125 284.34375 Z M 545.207031 518.039062 L 410.941406 435.277344 L 459.125 432.96875 L 411.46875 412.328125 L 482.761719 383.84375 L 406.320312 377.25 L 448.246094 342.761719 L 395.972656 351.984375 L 439.023438 287.625 L 366.171875 309.449219 L 405.199219 229.585938 L 340.339844 266.914062 L 360.96875 187.050781 L 308.386719 232.367188 L 306.191406 187.214844 L 285.925781 262.84375 L 319.695312 255.4375 L 308.765625 309.449219 L 351.800781 289.929688 L 329.992188 346.773438 L 383.386719 330.6875 L 348.371094 379.558594 L 390.839844 397.949219 L 356.960938 416.339844 L 396.570312 453.085938 L 346.664062 443.914062 L 367.296875 471.476562 L 329.285156 470.242188 L 353.519531 530.109375 L 357.542969 489.285156 L 441.324219 521.472656 L 389.699219 470.363281 Z M 545.207031 518.039062"></path>
  </g>
</svg>