<?xml version="1.0" encoding="UTF-8" standalone="yes"?>
<svg xmlns="http://www.w3.org/2000/svg" xmlns:xlink="http://www.w3.org/1999/xlink" width="685pt" height="600pt" viewBox="0 0 685 600" version="1.1">
  <g id="surface1">
    <path style="fill-rule:evenodd;fill:rgb(0.784314%,1.960784%,1.960784%);fill-opacity:1;stroke-width:0.127844;stroke-linecap:butt;stroke-linejoin:miter;stroke:rgb(0.784314%,1.960784%,1.960784%);stroke-opacity:1;stroke-miterlimit:2.613;" d="M 197.46208 164.743687 L 104.122664 2.943062 L 103.544526 2.079583 L 102.826095 1.430844 L 102.036387 0.856698 L 101.099599 0.423828 L 100.165073 0.137885 L 99.158139 0.0644219 L 98.153467 0.137885 L 97.146533 0.423828 L 96.283285 0.856698 L 95.420036 1.430844 L 94.77062 2.079583 L 94.197007 2.943062 L 0.857591 164.743687 L 0.423139 165.67724 L 0.134635 166.615312 L 0.0644891 167.622328 L 0.134635 168.627083 L 0.423139 169.634099 L 0.857591 170.497578 L 1.431204 171.361057 L 2.076095 172.009797 L 2.939343 172.583943 L 3.802591 173.013422 L 4.810657 173.302755 L 5.817591 173.372828 L 192.50208 173.372828 L 193.509015 173.302755 L 194.442409 173.013422 L 195.376934 172.583943 L 196.170036 172.009797 L 196.888467 171.361057 L 197.46208 170.497578 L 197.896533 169.634099 L 198.181642 168.627083 L 198.255182 167.622328 L 198.181642 166.615312 L 197.896533 165.67724 Z M 197.46208 164.743687" transform="matrix(3.452621,0,0,3.456221,0,0)"></path>
    <path style="fill-rule:evenodd;fill:rgb(92.156863%,74.901961%,16.862745%);fill-opacity:1;stroke-width:0.127844;stroke-linecap:butt;stroke-linejoin:miter;stroke:rgb(0.784314%,1.960784%,1.960784%);stroke-opacity:1;stroke-miterlimit:2.613;" d="M 99.158139 18.114979 L 181.856861 161.509031 L 16.458285 161.509031 Z M 99.158139 18.114979" transform="matrix(3.452621,0,0,3.456221,0,0)"></path>
    <path style="stroke:none;fill-rule:evenodd;fill:rgb(0.784314%,1.960784%,1.960784%);fill-opacity:1;" d="M 284.253906 527.644531 L 114.671875 527.890625 L 187.175781 393.675781 L 284.011719 393.675781 Z M 284.253906 527.644531"></path>
    <path style="stroke:none;fill-rule:evenodd;fill:rgb(0.784314%,1.960784%,1.960784%);fill-opacity:1;" d="M 295.675781 376.515625 C 290.46875 388.210938 276.066406 393.175781 263.902344 387.453125 C 251.480469 381.742188 246.019531 367.824219 251.480469 355.902344 C 256.941406 344.210938 271.101562 339.242188 283.253906 344.964844 C 295.675781 350.675781 301.136719 364.597656 295.675781 376.515625"></path>
    <path style="stroke:none;fill-rule:evenodd;fill:rgb(0.784314%,1.960784%,1.960784%);fill-opacity:1;" d="M 418.324219 434.4375 C 412.863281 446.113281 398.714844 451.082031 386.292969 445.613281 C 374.144531 439.902344 368.679688 425.726562 373.886719 414.050781 C 379.347656 402.371094 393.753906 397.402344 405.917969 402.871094 C 418.082031 408.582031 423.789062 422.757812 418.324219 434.4375"></path>
    <path style="stroke:none;fill-rule:evenodd;fill:rgb(0.784314%,1.960784%,1.960784%);fill-opacity:1;" d="M 448.375 444.628906 L 224.167969 341.226562 C 224.167969 341.226562 239.074219 304.191406 245.277344 302.207031 C 251.480469 300.222656 286.25 311.902344 286.25 311.902344 C 286.25 311.902344 316.785156 287.789062 320.503906 286.304688 C 324.484375 284.804688 401.195312 318.613281 405.675781 324.824219 C 410.140625 331.03125 415.84375 372.046875 415.84375 372.046875 C 415.84375 372.046875 455.820312 398.390625 461.28125 405.097656 C 466.5 412.066406 448.375 444.628906 448.375 444.628906"></path>
    <path style="stroke:none;fill-rule:evenodd;fill:rgb(92.156863%,74.901961%,16.862745%);fill-opacity:1;" d="M 348.058594 340.484375 L 306.101562 321.097656 C 306.101562 321.097656 327.464844 298.480469 330.929688 297.984375 C 334.167969 297.726562 361.722656 310.902344 361.722656 310.902344 Z M 348.058594 340.484375"></path>
    <path style="stroke:none;fill-rule:evenodd;fill:rgb(92.156863%,74.901961%,16.862745%);fill-opacity:1;" d="M 354.277344 343.222656 L 405.675781 367.324219 C 405.675781 367.324219 401.9375 330.789062 398.957031 328.546875 C 395.992188 326.5625 367.925781 313.386719 367.925781 313.386719 Z M 354.277344 343.222656"></path>
    <path style="stroke:none;fill-rule:evenodd;fill:rgb(0.784314%,1.960784%,1.960784%);fill-opacity:1;" d="M 401.453125 488.371094 C 391.511719 487.128906 383.070312 482.148438 373.644531 479.664062 C 364.945312 476.9375 356.003906 476.9375 347.316406 477.921875 C 336.890625 478.679688 328.707031 483.648438 318.523438 486.628906 C 309.835938 489.113281 300.640625 488.613281 291.953125 487.128906 C 290.957031 493.339844 295.675781 499.050781 301.394531 499.550781 C 313.558594 500.050781 324.726562 496.324219 336.148438 491.597656 C 341.113281 489.855469 346.078125 488.613281 351.539062 488.371094 C 364.445312 487.128906 376.125 491.597656 387.792969 496.324219 C 394.992188 499.050781 402.4375 500.308594 409.882812 500.308594 C 417.582031 500.308594 425.042969 499.050781 432.230469 496.324219 C 443.894531 491.597656 455.574219 487.128906 468.484375 488.371094 C 473.945312 488.613281 478.90625 489.855469 483.871094 491.597656 C 495.308594 496.324219 506.476562 500.050781 518.640625 499.550781 C 524.34375 499.050781 529.066406 493.339844 528.082031 487.128906 C 519.382812 488.613281 510.199219 489.113281 501.511719 486.628906 C 491.570312 483.648438 483.128906 478.679688 472.703125 477.921875 C 464.019531 476.9375 455.332031 476.9375 446.390625 479.664062 C 436.949219 482.148438 428.507812 487.128906 418.582031 488.371094 C 415.601562 488.859375 412.863281 488.859375 409.882812 488.859375 C 409.882812 488.859375 404.421875 488.859375 401.453125 488.371094"></path>
    <path style="stroke:none;fill-rule:evenodd;fill:rgb(0.784314%,1.960784%,1.960784%);fill-opacity:1;" d="M 401.453125 511.730469 C 391.511719 510.488281 383.070312 505.519531 373.644531 503.035156 C 364.945312 500.550781 356.003906 500.550781 347.316406 501.292969 C 336.890625 502.292969 328.707031 507.261719 318.523438 510.242188 C 309.835938 512.726562 300.640625 512.226562 291.953125 510.488281 C 290.957031 516.953125 295.675781 522.664062 301.394531 523.164062 C 313.558594 523.40625 324.726562 519.679688 336.148438 515.210938 C 341.113281 513.46875 346.078125 512.226562 351.539062 511.730469 C 364.445312 510.488281 376.125 515.210938 387.792969 519.679688 C 394.992188 522.664062 402.4375 523.90625 409.882812 523.90625 C 417.582031 523.90625 425.042969 522.664062 432.230469 519.679688 C 443.894531 515.210938 455.574219 510.488281 468.484375 511.730469 C 473.945312 512.226562 478.90625 513.46875 483.871094 515.210938 C 495.308594 519.679688 506.476562 523.40625 518.640625 523.164062 C 524.34375 522.664062 529.066406 516.953125 528.082031 510.488281 C 519.382812 512.226562 510.199219 512.726562 501.511719 510.242188 C 491.570312 507.261719 483.128906 502.292969 472.703125 501.292969 C 464.019531 500.550781 455.332031 500.550781 446.390625 503.035156 C 436.949219 505.519531 428.507812 510.488281 418.582031 511.730469 C 415.601562 512.226562 412.863281 512.472656 409.882812 512.472656 C 409.882812 512.472656 404.421875 512.226562 401.453125 511.730469"></path>
  </g>
</svg>