<?xml version="1.0" encoding="UTF-8" standalone="yes"?>
<svg xmlns="http://www.w3.org/2000/svg" xmlns:xlink="http://www.w3.org/1999/xlink" width="685pt" height="600pt" viewBox="0 0 685 600" version="1.1">
  <g id="surface1">
    <path style="fill-rule:evenodd;fill:rgb(0.784314%,1.960784%,1.960784%);fill-opacity:1;stroke-width:0.127844;stroke-linecap:butt;stroke-linejoin:miter;stroke:rgb(0.784314%,1.960784%,1.960784%);stroke-opacity:1;stroke-miterlimit:2.613;" d="M 197.46208 164.743687 L 104.11927 2.943062 L 103.544526 2.079583 L 102.826095 1.430844 L 102.032993 0.856698 L 101.099599 0.423828 L 100.165073 0.137885 L 99.158139 0.0644219 L 98.150073 0.137885 L 97.146533 0.423828 L 96.283285 0.856698 L 95.420036 1.430844 L 94.77062 2.079583 L 94.197007 2.943062 L 0.853066 164.743687 L 0.423139 165.67724 L 0.134635 166.615312 L 0.0644891 167.622328 L 0.134635 168.627083 L 0.423139 169.634099 L 0.853066 170.497578 L 1.42781 171.361057 L 2.076095 172.009797 L 2.939343 172.583943 L 3.802591 173.013422 L 4.810657 173.302755 L 5.814197 173.372828 L 192.50208 173.372828 L 193.50562 173.302755 L 194.442409 173.013422 L 195.376934 172.583943 L 196.170036 172.009797 L 196.888467 171.361057 L 197.46208 170.497578 L 197.892007 169.634099 L 198.181642 168.627083 L 198.251788 167.622328 L 198.181642 166.615312 L 197.892007 165.67724 Z M 197.46208 164.743687" transform="matrix(3.452621,0,0,3.456221,0,0)"></path>
    <path style="fill-rule:evenodd;fill:rgb(92.156863%,74.901961%,16.862745%);fill-opacity:1;stroke-width:0.127844;stroke-linecap:butt;stroke-linejoin:miter;stroke:rgb(0.784314%,1.960784%,1.960784%);stroke-opacity:1;stroke-miterlimit:2.613;" d="M 99.158139 18.114979 L 181.856861 161.509031 L 16.458285 161.509031 Z M 99.158139 18.114979" transform="matrix(3.452621,0,0,3.456221,0,0)"></path>
    <path style="fill-rule:evenodd;fill:rgb(0.784314%,1.960784%,1.960784%);fill-opacity:1;stroke-width:0.215738;stroke-linecap:butt;stroke-linejoin:miter;stroke:rgb(0.784314%,1.960784%,1.960784%);stroke-opacity:1;stroke-miterlimit:2.613;" d="M 162.981934 143.887953 L 35.294745 143.887953 L 29.529197 153.935505 L 168.78708 153.935505 Z M 162.981934 143.887953" transform="matrix(3.452621,0,0,3.456221,0,0)"></path>
    <path style="fill-rule:evenodd;fill:rgb(0.784314%,1.960784%,1.960784%);fill-opacity:1;stroke-width:0.215738;stroke-linecap:butt;stroke-linejoin:miter;stroke:rgb(0.784314%,1.960784%,1.960784%);stroke-opacity:1;stroke-miterlimit:2.613;" d="M 104.493759 91.958271 L 104.090985 92.142495 L 103.802482 92.247604 L 103.54792 92.357234 L 103.404234 92.430698 L 103.184745 92.501901 L 103.041058 92.575365 L 102.458394 92.829661 L 101.26365 93.227495 L 100.06438 93.516828 L 99.446642 93.661495 L 98.830036 93.696531 L 97.56062 93.696531 L 96.290073 93.591422 L 95.05573 93.372161 L 93.860985 93.044401 L 92.696788 92.575365 L 91.575584 92.028344 L 89.325255 90.872141 L 88.16219 90.364677 L 86.966314 89.962323 L 85.767044 89.67299 L 84.497628 89.493286 L 83.263285 89.419823 L 81.993869 89.454859 L 80.759526 89.56449 L 79.490109 89.78262 L 78.294234 90.146547 L 77.134562 90.65401 L 74.919307 91.778568 L 73.794708 92.357234 L 72.633905 92.899734 L 71.434635 93.263661 L 70.200292 93.481792 L 68.930876 93.556385 L 67.701058 93.481792 L 66.466715 93.302089 L 65.232372 93.044401 L 65.197299 93.626458 L 65.232372 94.208516 L 65.340985 94.787182 L 65.485803 95.333073 L 65.704161 95.876703 L 65.993796 96.384167 L 66.356971 96.818167 L 66.790292 97.251036 L 67.263212 97.544891 L 67.844745 97.689557 L 69.005547 97.689557 L 70.165219 97.579927 L 71.290949 97.360667 L 72.415547 97.036297 L 73.505073 96.638464 L 74.591204 96.201073 L 75.645657 95.692479 L 77.712701 94.642516 L 78.767153 94.170089 L 79.891752 93.845719 L 81.012956 93.556385 L 82.177153 93.446755 L 83.337956 93.408328 L 84.497628 93.556385 L 85.622226 93.810682 L 86.747956 94.133922 L 87.837482 94.532885 L 88.88854 95.005313 L 93.099562 97.071333 L 94.185693 97.43526 L 95.310292 97.724594 L 96.434891 97.907687 L 97.599088 98.017318 Z M 104.493759 91.958271" transform="matrix(3.452621,0,0,3.456221,0,0)"></path>
    <path style="fill-rule:evenodd;fill:rgb(0.784314%,1.960784%,1.960784%);fill-opacity:1;stroke-width:0.215738;stroke-linecap:butt;stroke-linejoin:miter;stroke:rgb(0.784314%,1.960784%,1.960784%);stroke-opacity:1;stroke-miterlimit:2.613;" d="M 72.778723 141.931563 L 71.907555 142.801823 L 53.693358 134.896016 Z M 72.778723 141.931563" transform="matrix(3.452621,0,0,3.456221,0,0)"></path>
    <path style="fill-rule:evenodd;fill:rgb(0.784314%,1.960784%,1.960784%);fill-opacity:1;stroke-width:0.215738;stroke-linecap:butt;stroke-linejoin:miter;stroke:rgb(0.784314%,1.960784%,1.960784%);stroke-opacity:1;stroke-miterlimit:2.613;" d="M 73.176971 140.735802 L 61.677555 128.477563 L 72.525292 140.735802 Z M 73.176971 140.735802" transform="matrix(3.452621,0,0,3.456221,0,0)"></path>
    <path style="fill-rule:evenodd;fill:rgb(0.784314%,1.960784%,1.960784%);fill-opacity:1;stroke-width:0.215738;stroke-linecap:butt;stroke-linejoin:miter;stroke:rgb(0.784314%,1.960784%,1.960784%);stroke-opacity:1;stroke-miterlimit:2.613;" d="M 93.388066 134.970609 L 85.47854 140.009078 L 85.259051 139.286875 Z M 93.388066 134.970609" transform="matrix(3.452621,0,0,3.456221,0,0)"></path>
    <path style="fill-rule:evenodd;fill:rgb(0.784314%,1.960784%,1.960784%);fill-opacity:1;stroke-width:0.215738;stroke-linecap:butt;stroke-linejoin:miter;stroke:rgb(0.784314%,1.960784%,1.960784%);stroke-opacity:1;stroke-miterlimit:2.613;" d="M 106.779161 139.939005 L 85.47854 142.219766 L 84.935474 140.805875 Z M 106.779161 139.939005" transform="matrix(3.452621,0,0,3.456221,0,0)"></path>
    <path style="fill-rule:evenodd;fill:rgb(0.784314%,1.960784%,1.960784%);fill-opacity:1;stroke-width:0.215738;stroke-linecap:butt;stroke-linejoin:miter;stroke:rgb(0.784314%,1.960784%,1.960784%);stroke-opacity:1;stroke-miterlimit:2.613;" d="M 114.615146 128.548766 L 114.07208 134.208849 L 85.115365 131.595807 L 85.622226 125.939115 Z M 114.615146 128.548766" transform="matrix(3.452621,0,0,3.456221,0,0)"></path>
    <path style="fill-rule:evenodd;fill:rgb(0.784314%,1.960784%,1.960784%);fill-opacity:1;stroke-width:0.215738;stroke-linecap:butt;stroke-linejoin:miter;stroke:rgb(0.784314%,1.960784%,1.960784%);stroke-opacity:1;stroke-miterlimit:2.613;" d="M 88.200657 128.766896 L 88.090912 128.005135 L 87.802409 127.353005 L 87.364562 126.735911 L 86.786423 126.301911 L 86.095146 126.013708 L 85.368796 125.904078 L 84.607372 126.013708 L 83.919489 126.301911 L 83.337956 126.735911 L 82.903504 127.353005 L 82.610474 128.005135 L 82.501861 128.766896 L 82.610474 129.49362 L 82.903504 130.180786 L 83.337956 130.762844 L 83.919489 131.23188 L 84.607372 131.486177 L 85.368796 131.595807 L 86.095146 131.486177 L 86.786423 131.23188 L 87.364562 130.762844 L 87.802409 130.180786 L 88.090912 129.49362 Z M 88.200657 128.766896" transform="matrix(3.452621,0,0,3.456221,0,0)"></path>
    <path style="fill-rule:evenodd;fill:rgb(0.784314%,1.960784%,1.960784%);fill-opacity:1;stroke-width:0.215738;stroke-linecap:butt;stroke-linejoin:miter;stroke:rgb(0.784314%,1.960784%,1.960784%);stroke-opacity:1;stroke-miterlimit:2.613;" d="M 117.192445 131.379938 L 117.083832 130.654344 L 116.790803 129.966047 L 116.357482 129.38399 L 115.774818 128.911563 L 115.086934 128.622229 L 114.360584 128.548766 L 113.599161 128.622229 L 112.911277 128.911563 L 112.329745 129.38399 L 111.896423 129.966047 L 111.603394 130.654344 L 111.49365 131.379938 L 111.603394 132.141698 L 111.896423 132.794958 L 112.329745 133.407531 L 112.911277 133.844922 L 113.599161 134.134255 L 114.360584 134.243885 L 115.086934 134.134255 L 115.774818 133.844922 L 116.357482 133.407531 L 116.790803 132.794958 L 117.083832 132.141698 Z M 117.192445 131.379938" transform="matrix(3.452621,0,0,3.456221,0,0)"></path>
    <path style="fill-rule:evenodd;fill:rgb(0.784314%,1.960784%,1.960784%);fill-opacity:1;stroke-width:0.215738;stroke-linecap:butt;stroke-linejoin:miter;stroke:rgb(0.784314%,1.960784%,1.960784%);stroke-opacity:1;stroke-miterlimit:2.613;" d="M 84.680912 137.798391 L 84.572299 136.70887 L 84.244197 135.692813 L 83.736204 134.751349 L 83.048321 133.919516 L 82.212226 133.227828 L 81.270912 132.720365 L 80.21646 132.395995 L 79.126934 132.286365 L 78.075876 132.395995 L 77.024818 132.720365 L 76.080109 133.227828 L 75.247409 133.919516 L 74.556131 134.751349 L 74.048139 135.692813 L 73.720036 136.70887 L 73.611423 137.798391 L 73.720036 138.884521 L 74.048139 139.899448 L 74.556131 140.880469 L 75.247409 141.712302 L 76.080109 142.40399 L 77.024818 142.911453 L 78.075876 143.200786 L 79.126934 143.310417 L 80.21646 143.200786 L 81.270912 142.911453 L 82.212226 142.40399 L 83.048321 141.712302 L 83.736204 140.880469 L 84.244197 139.899448 L 84.572299 138.884521 Z M 84.680912 137.798391" transform="matrix(3.452621,0,0,3.456221,0,0)"></path>
    <path style="fill-rule:evenodd;fill:rgb(0.784314%,1.960784%,1.960784%);fill-opacity:1;stroke-width:0.215738;stroke-linecap:butt;stroke-linejoin:miter;stroke:rgb(0.784314%,1.960784%,1.960784%);stroke-opacity:1;stroke-miterlimit:2.613;" d="M 90.267701 106.719922 L 80.86927 123.618797 L 80.469891 124.56026 L 80.21646 125.614745 L 80.21646 126.665839 L 80.399745 127.716932 L 80.797993 128.696823 L 81.376131 129.568214 L 82.103613 130.325453 L 82.97365 130.942547 L 83.919489 131.34151 L 84.970547 131.559641 L 86.021606 131.595807 L 87.076058 131.416104 L 88.055839 131.017141 L 88.923613 130.435083 L 89.689562 129.71288 L 90.306168 128.84149 L 99.701204 111.939224 L 100.099453 110.962724 L 100.357409 109.946667 L 100.357409 108.895573 L 100.172993 107.845609 L 99.774745 106.864589 L 99.193212 105.993198 L 98.470255 105.232568 L 97.599088 104.614344 L 96.65438 104.21651 L 95.603321 103.962214 L 94.548869 103.962214 L 93.49781 104.141917 L 92.516898 104.544271 L 91.64573 105.122938 L 90.884307 105.849661 Z M 90.267701 106.719922" transform="matrix(3.452621,0,0,3.456221,0,0)"></path>
    <path style="fill-rule:evenodd;fill:rgb(0.784314%,1.960784%,1.960784%);fill-opacity:1;stroke-width:0.215738;stroke-linecap:butt;stroke-linejoin:miter;stroke:rgb(0.784314%,1.960784%,1.960784%);stroke-opacity:1;stroke-miterlimit:2.613;" d="M 119.004927 79.411828 L 112.837737 76.87225 L 105.833321 93.880755 L 112.040109 96.419203 Z M 119.004927 79.411828" transform="matrix(3.452621,0,0,3.456221,0,0)"></path>
    <path style="fill-rule:evenodd;fill:rgb(0.784314%,1.960784%,1.960784%);fill-opacity:1;stroke-width:0.215738;stroke-linecap:butt;stroke-linejoin:miter;stroke:rgb(0.784314%,1.960784%,1.960784%);stroke-opacity:1;stroke-miterlimit:2.613;" d="M 119.259489 78.142604 L 119.189343 77.380844 L 118.931387 76.692547 L 118.533139 76.037026 L 118.025146 75.493396 L 117.372336 75.095562 L 116.685584 74.880823 L 115.919635 74.766672 L 115.196679 74.880823 L 114.470328 75.095562 L 113.852591 75.493396 L 113.310657 76.037026 L 112.911277 76.692547 L 112.657847 77.380844 L 112.583175 78.142604 L 112.657847 78.868198 L 112.911277 79.591531 L 113.310657 80.208625 L 113.852591 80.751125 L 114.470328 81.150089 L 115.196679 81.404385 L 115.919635 81.477849 L 116.685584 81.404385 L 117.372336 81.150089 L 118.025146 80.751125 L 118.533139 80.208625 L 118.931387 79.591531 L 119.189343 78.868198 Z M 119.259489 78.142604" transform="matrix(3.452621,0,0,3.456221,0,0)"></path>
    <path style="fill-rule:evenodd;fill:rgb(0.784314%,1.960784%,1.960784%);fill-opacity:1;stroke-width:0.215738;stroke-linecap:butt;stroke-linejoin:miter;stroke:rgb(0.784314%,1.960784%,1.960784%);stroke-opacity:1;stroke-miterlimit:2.613;" d="M 112.294672 95.149979 L 112.184927 94.388219 L 111.966569 93.696531 L 111.568321 93.044401 L 111.025255 92.540328 L 110.369051 92.142495 L 109.681168 91.888198 L 108.919745 91.813604 L 108.193394 91.888198 L 107.465912 92.142495 L 106.849307 92.540328 L 106.306241 93.044401 L 105.907993 93.696531 L 105.688504 94.388219 L 105.579891 95.149979 L 105.688504 95.876703 L 105.907993 96.598906 L 106.306241 97.216 L 106.849307 97.763021 L 107.465912 98.161984 L 108.193394 98.415151 L 108.919745 98.486354 L 109.681168 98.415151 L 110.369051 98.161984 L 111.025255 97.763021 L 111.568321 97.216 L 111.966569 96.598906 L 112.184927 95.876703 Z M 112.294672 95.149979" transform="matrix(3.452621,0,0,3.456221,0,0)"></path>
    <path style="fill-rule:evenodd;fill:rgb(0.784314%,1.960784%,1.960784%);fill-opacity:1;stroke-width:0.215738;stroke-linecap:butt;stroke-linejoin:miter;stroke:rgb(0.784314%,1.960784%,1.960784%);stroke-opacity:1;stroke-miterlimit:2.613;" d="M 106.739562 92.646568 L 92.915146 104.75901 L 97.306058 109.802 L 111.130474 97.65 Z M 106.739562 92.646568" transform="matrix(3.452621,0,0,3.456221,0,0)"></path>
    <path style="fill-rule:evenodd;fill:rgb(0.784314%,1.960784%,1.960784%);fill-opacity:1;stroke-width:0.215738;stroke-linecap:butt;stroke-linejoin:miter;stroke:rgb(0.784314%,1.960784%,1.960784%);stroke-opacity:1;stroke-miterlimit:2.613;" d="M 98.470255 107.298589 L 98.360511 106.536828 L 98.10708 105.849661 L 97.743905 105.196401 L 97.196314 104.688937 L 96.544635 104.291104 L 95.856752 104.036807 L 95.095328 103.962214 L 94.368978 104.036807 L 93.642628 104.291104 L 93.024891 104.688937 L 92.481825 105.196401 L 92.083577 105.849661 L 91.865219 106.536828 L 91.755474 107.298589 L 91.865219 108.025312 L 92.083577 108.747516 L 92.481825 109.364609 L 93.024891 109.91163 L 93.642628 110.310594 L 94.368978 110.56376 L 95.095328 110.633833 L 95.856752 110.56376 L 96.544635 110.310594 L 97.196314 109.91163 L 97.743905 109.364609 L 98.10708 108.747516 L 98.360511 108.025312 Z M 98.470255 107.298589" transform="matrix(3.452621,0,0,3.456221,0,0)"></path>
    <path style="fill-rule:evenodd;fill:rgb(0.784314%,1.960784%,1.960784%);fill-opacity:1;stroke-width:0.215738;stroke-linecap:butt;stroke-linejoin:miter;stroke:rgb(0.784314%,1.960784%,1.960784%);stroke-opacity:1;stroke-miterlimit:2.613;" d="M 133.013759 92.755068 L 131.997774 93.009365 L 130.978394 93.154031 L 129.927336 93.263661 L 128.876277 93.263661 L 127.821825 93.192458 L 126.805839 92.974328 L 125.826058 92.684995 L 124.849672 92.287161 L 121.110438 90.399714 L 120.130657 90.00188 L 119.149745 89.67299 L 118.134891 89.454859 L 117.118905 89.275156 L 115.521387 93.154031 L 116.864343 93.302089 L 118.169964 93.556385 L 119.442774 93.954219 L 120.71219 94.423255 L 123.067737 95.692479 L 124.30208 96.236109 L 125.571496 96.708536 L 126.880511 97.071333 L 128.185 97.32563 L 129.529088 97.43526 L 130.180766 97.43526 L 130.543942 97.400224 L 130.873175 97.32563 L 131.451314 97.00126 L 131.923102 96.528833 L 132.32135 95.981813 L 132.610985 95.404276 L 132.829343 94.751016 L 132.974161 94.098885 L 133.048832 93.408328 Z M 133.013759 92.755068" transform="matrix(3.452621,0,0,3.456221,0,0)"></path>
  </g>
</svg>