<?xml version="1.0" encoding="UTF-8" standalone="yes"?>
<svg xmlns="http://www.w3.org/2000/svg" xmlns:xlink="http://www.w3.org/1999/xlink" width="685pt" height="600pt" viewBox="0 0 685 600" version="1.1">
  <g id="surface1">
    <path style="fill-rule:evenodd;fill:rgb(0.784314%,1.960784%,1.960784%);fill-opacity:1;stroke-width:0.127844;stroke-linecap:butt;stroke-linejoin:miter;stroke:rgb(0.784314%,1.960784%,1.960784%);stroke-opacity:1;stroke-miterlimit:2.613;" d="M 197.46208 164.743687 L 104.11927 2.943062 L 103.544526 2.079583 L 102.826095 1.430844 L 102.032993 0.856698 L 101.099599 0.423828 L 100.165073 0.137885 L 99.158139 0.0644219 L 98.150073 0.137885 L 97.146533 0.423828 L 96.283285 0.856698 L 95.420036 1.430844 L 94.77062 2.079583 L 94.197007 2.943062 L 0.853066 164.743687 L 0.423139 165.67724 L 0.134635 166.615312 L 0.0644891 167.622328 L 0.134635 168.627083 L 0.423139 169.634099 L 0.853066 170.497578 L 1.42781 171.361057 L 2.076095 172.009797 L 2.939343 172.583943 L 3.802591 173.013422 L 4.810657 173.302755 L 5.814197 173.372828 L 192.50208 173.372828 L 193.50562 173.302755 L 194.442409 173.013422 L 195.376934 172.583943 L 196.170036 172.009797 L 196.888467 171.361057 L 197.46208 170.497578 L 197.892007 169.634099 L 198.181642 168.627083 L 198.251788 167.622328 L 198.181642 166.615312 L 197.892007 165.67724 Z M 197.46208 164.743687" transform="matrix(3.452621,0,0,3.456221,0,0)"></path>
    <path style="fill-rule:evenodd;fill:rgb(92.156863%,74.901961%,16.862745%);fill-opacity:1;stroke-width:0.127844;stroke-linecap:butt;stroke-linejoin:miter;stroke:rgb(0.784314%,1.960784%,1.960784%);stroke-opacity:1;stroke-miterlimit:2.613;" d="M 99.158139 18.114979 L 181.856861 161.509031 L 16.458285 161.509031 Z M 99.158139 18.114979" transform="matrix(3.452621,0,0,3.456221,0,0)"></path>
    <path style="fill-rule:evenodd;fill:rgb(0.784314%,1.960784%,1.960784%);fill-opacity:1;stroke-width:0.027966;stroke-linecap:butt;stroke-linejoin:miter;stroke:rgb(0.784314%,1.960784%,1.960784%);stroke-opacity:1;stroke-miterlimit:2.613;" d="M 64.805839 142.661677 L 63.282993 143.240344 L 61.723942 143.638177 L 60.92292 143.747807 L 60.126423 143.81788 L 59.329927 143.81788 L 58.528905 143.747807 L 56.931387 143.49351 L 55.407409 143.021083 L 53.884562 142.478583 L 52.395657 141.899917 L 49.455182 140.665729 L 46.516971 139.321911 L 45.102737 138.560151 L 43.720182 137.763354 L 42.38062 136.891964 L 41.071606 135.9505 L 42.161131 134.064182 L 43.360401 135.009036 L 44.630949 135.84087 L 47.388139 137.220854 L 50.14646 138.525115 L 51.524489 139.142208 L 52.973796 139.684708 L 55.880328 140.630693 L 58.782336 141.497562 L 61.759015 142.224286 L 63.282993 142.51362 Z M 64.805839 142.661677" transform="matrix(3.452621,0,0,3.456221,0,0)"></path>
    <path style="fill-rule:evenodd;fill:rgb(0.784314%,1.960784%,1.960784%);fill-opacity:1;stroke-width:0.027966;stroke-linecap:butt;stroke-linejoin:miter;stroke:rgb(0.784314%,1.960784%,1.960784%);stroke-opacity:1;stroke-miterlimit:2.613;" d="M 164.755949 151.071557 L 164.719745 150.564094 L 164.646204 150.05663 L 164.466314 149.548036 L 164.138212 149.115167 L 163.739964 148.786276 L 163.267044 148.5365 L 162.759051 148.423479 L 162.251058 148.388443 L 161.744197 148.461906 L 161.236204 148.571536 L 160.220219 148.86087 L 159.239307 149.18863 L 158.259526 149.548036 L 156.298832 150.309797 L 155.321314 150.564094 L 154.301934 150.782224 L 153.252007 150.891854 L 152.200949 150.891854 L 151.181569 150.782224 L 150.165584 150.564094 L 149.149599 150.309797 L 148.134745 150.020464 L 146.212518 149.29487 L 145.231606 148.935464 L 144.212226 148.641609 L 143.197372 148.461906 L 142.146314 148.388443 L 141.130328 148.353406 L 140.07927 148.353406 L 139.059891 148.498073 L 138.045036 148.75124 L 136.048139 149.333297 L 134.087445 150.091667 L 133.111058 150.384391 L 132.095073 150.638688 L 131.075693 150.782224 L 130.024635 150.856818 L 128.974708 150.856818 L 127.954197 150.70876 L 126.939343 150.494021 L 125.923358 150.204688 L 124.001131 149.477964 L 122.005365 148.86087 L 120.98938 148.641609 L 119.97 148.461906 L 118.918942 148.353406 L 117.869015 148.353406 L 116.849635 148.461906 L 115.798577 148.606573 L 114.782591 148.86087 L 113.80281 149.150203 L 111.840985 149.876927 L 110.861204 150.204688 L 109.845219 150.494021 L 108.829234 150.673724 L 107.81438 150.747187 L 106.763321 150.747187 L 105.708869 150.638688 L 104.692883 150.419427 L 103.711971 150.130094 L 101.755803 149.438406 L 99.793978 148.75124 L 98.779124 148.498073 L 97.724672 148.31837 L 96.708686 148.20874 L 95.657628 148.20874 L 94.641642 148.278812 L 93.58719 148.461906 L 92.572336 148.681167 L 91.591423 148.9705 L 89.63073 149.62263 L 88.649818 150.020464 L 87.633832 150.309797 L 86.657445 150.564094 L 85.602993 150.70876 L 83.53708 150.70876 L 82.481496 150.602521 L 81.466642 150.384391 L 79.505949 149.697224 L 77.544124 148.9705 L 76.567737 148.681167 L 75.552883 148.498073 L 74.497299 148.388443 L 73.482445 148.353406 L 72.431387 148.353406 L 71.376934 148.423479 L 70.360949 148.571536 L 69.344964 148.786276 L 68.330109 149.079 L 67.38427 149.477964 L 65.423577 150.204688 L 64.407591 150.494021 L 63.392737 150.673724 L 61.322299 150.747187 L 60.271241 150.70876 L 59.255255 150.529057 L 58.23927 150.27476 L 57.259489 149.950391 L 55.298796 149.18863 L 54.317883 148.86087 L 53.301898 148.606573 L 52.287044 148.423479 L 51.271058 148.353406 L 49.165547 148.353406 L 48.149562 148.496943 L 47.134708 148.716203 L 46.118723 149.005536 L 45.13781 149.333297 L 43.21219 150.091667 L 42.197336 150.384391 L 41.18135 150.564094 L 40.130292 150.637557 L 39.075839 150.637557 L 38.059854 150.529057 L 37.045 150.349354 L 37.080073 150.891854 L 37.153613 151.399318 L 37.333504 151.872875 L 37.661606 152.305745 L 38.094927 152.595078 L 38.567847 152.778172 L 39.622299 152.884411 L 40.638285 152.884411 L 41.689343 152.778172 L 42.704197 152.595078 L 43.685109 152.270708 L 45.645803 151.508948 L 46.587117 151.181187 L 47.606496 150.926891 L 48.622482 150.747187 L 49.67354 150.637557 L 50.689526 150.602521 L 51.743978 150.672594 L 52.758832 150.856818 L 53.774818 151.111115 L 55.735511 151.798281 L 57.657737 152.525005 L 58.673723 152.778172 L 59.688577 152.884411 L 61.794088 152.922839 L 63.864526 152.849375 L 64.880511 152.743135 L 65.896496 152.489969 L 67.85719 151.798281 L 68.798504 151.434354 L 69.779416 151.111115 L 70.79427 150.856818 L 71.810255 150.70876 L 72.864708 150.602521 L 73.915766 150.602521 L 74.935146 150.747187 L 75.951131 150.961927 L 76.930912 151.216224 L 77.907299 151.618578 L 79.869124 152.305745 L 80.848905 152.595078 L 81.864891 152.778172 L 83.935328 152.884411 L 86.040839 152.884411 L 87.055693 152.814339 L 88.106752 152.669672 L 89.087664 152.415375 L 90.067445 152.052578 L 91.989672 151.290818 L 93.005657 151.001484 L 93.985438 150.782224 L 95.041022 150.637557 L 96.055876 150.602521 L 97.106934 150.672594 L 98.12292 150.81726 L 99.137774 151.036521 L 100.158285 151.325854 L 102.07938 152.087615 L 103.060292 152.375818 L 104.076277 152.630115 L 105.091131 152.813208 L 106.107117 152.884411 L 108.212628 152.922839 L 109.228613 152.884411 L 110.283066 152.704708 L 111.259453 152.450411 L 112.243759 152.126042 L 114.201058 151.399318 L 115.180839 151.071557 L 116.196825 150.856818 L 117.21281 150.70876 L 118.267263 150.673724 L 119.318321 150.70876 L 120.333175 150.856818 L 121.349161 151.071557 L 122.330073 151.399318 L 124.255693 152.161078 L 125.270547 152.450411 L 126.25146 152.704708 L 127.302518 152.849375 L 128.317372 152.884411 L 130.422883 152.922839 L 131.478467 152.922839 L 132.493321 152.884411 L 133.509307 152.743135 L 134.525292 152.450411 L 136.446387 151.723688 L 137.427299 151.364281 L 138.443285 151.071557 L 139.462664 150.891854 L 140.477518 150.747187 L 141.528577 150.70876 L 142.544562 150.782224 L 143.560547 150.926891 L 144.575401 151.216224 L 146.536095 151.907911 L 147.517007 152.270708 L 148.49792 152.525005 L 149.512774 152.704708 L 150.568358 152.813208 L 152.63427 152.922839 L 153.688723 152.922839 L 154.739781 152.884411 L 155.755766 152.743135 L 156.77062 152.525005 L 158.697372 151.763245 L 159.673759 151.399318 L 160.65354 151.071557 L 161.67292 150.856818 L 162.688905 150.782224 L 163.739964 150.891854 Z M 164.755949 151.071557" transform="matrix(3.452621,0,0,3.456221,0,0)"></path>
    <path style="fill-rule:evenodd;fill:rgb(0.784314%,1.960784%,1.960784%);fill-opacity:1;stroke-width:0.027966;stroke-linecap:butt;stroke-linejoin:miter;stroke:rgb(0.784314%,1.960784%,1.960784%);stroke-opacity:1;stroke-miterlimit:2.613;" d="M 163.122226 146.465958 L 162.868796 145.888422 L 162.650438 145.451031 L 162.470547 145.161698 L 162.360803 144.907401 L 162.177518 144.583031 L 162.032701 144.329865 L 161.814343 144.075568 L 161.454562 143.92751 L 161.056314 143.81788 L 160.583394 143.782844 L 160.110474 143.857438 L 159.603613 143.965937 L 158.587628 144.255271 L 157.606715 144.584161 L 156.626934 144.942438 L 154.704708 145.704198 L 153.688723 145.958495 L 152.669343 146.177755 L 151.618285 146.286255 L 150.603431 146.286255 L 149.548978 146.177755 L 148.532993 145.958495 L 147.517007 145.704198 L 146.537226 145.415995 L 144.575401 144.689271 L 143.599015 144.329865 L 142.583029 144.037141 L 141.568175 143.857438 L 140.548796 143.782844 L 139.497737 143.747807 L 138.443285 143.747807 L 137.427299 143.892474 L 136.411314 144.145641 L 134.415547 144.727698 L 132.454854 145.486068 L 131.478467 145.778792 L 130.459088 146.033089 L 129.443102 146.177755 L 128.392044 146.286255 L 127.376058 146.251219 L 126.321606 146.103161 L 125.306752 145.888422 L 124.325839 145.595698 L 122.365146 144.872365 L 120.372774 144.255271 L 119.356788 144.037141 L 118.337409 143.857438 L 117.28635 143.747807 L 116.271496 143.747807 L 115.215912 143.857438 L 114.201058 144.002104 L 113.185073 144.255271 L 112.169088 144.544604 L 109.228613 145.634125 L 108.251095 145.888422 L 107.196642 146.068125 L 106.181788 146.142719 L 105.13073 146.142719 L 104.076277 146.033089 L 103.060292 145.813828 L 102.07938 145.524495 L 100.118686 144.833937 L 98.161387 144.145641 L 97.146533 143.892474 L 96.126022 143.712771 L 95.076095 143.603141 L 94.025036 143.603141 L 93.005657 143.673214 L 91.989672 143.857438 L 90.938613 144.075568 L 89.958832 144.364901 L 87.998139 145.052068 L 87.017226 145.415995 L 86.040839 145.704198 L 85.02146 145.958495 L 83.970401 146.142719 L 81.899964 146.103161 L 80.883978 145.998052 L 79.869124 145.778792 L 77.872226 145.091625 L 75.951131 144.364901 L 74.935146 144.075568 L 73.915766 143.892474 L 72.864708 143.782844 L 71.848723 143.747807 L 70.79427 143.747807 L 69.743212 143.81788 L 68.728358 143.965937 L 67.712372 144.180677 L 66.732591 144.474531 L 65.751679 144.872365 L 63.790985 145.595698 L 62.810073 145.888422 L 61.759015 146.068125 L 59.688577 146.141589 L 58.63865 146.103161 L 57.622664 145.923458 L 56.606679 145.669161 L 55.626898 145.341401 L 53.701277 144.583031 L 52.685292 144.255271 L 51.70438 144.000974 L 50.654453 143.81788 L 49.638467 143.747807 L 47.532956 143.782844 L 46.516971 143.892474 L 45.502117 144.110604 L 44.486131 144.399937 L 43.505219 144.727698 L 41.579599 145.486068 L 40.563613 145.778792 L 39.548759 145.958495 L 38.494307 146.033089 L 37.478321 146.033089 L 36.427263 145.923458 L 35.411277 145.743755 L 35.44635 146.286255 L 35.521022 146.794849 L 35.73938 147.267276 L 36.029015 147.700146 L 36.462336 147.989479 L 36.970328 148.169182 L 37.989708 148.278812 L 39.040766 148.278812 L 40.056752 148.169182 L 41.071606 147.989479 L 42.087591 147.665109 L 44.013212 146.903349 L 44.994124 146.575589 L 45.973905 146.321292 L 46.989891 146.141589 L 48.040949 146.033089 L 49.095401 146.033089 L 50.111387 146.068125 L 51.126241 146.251219 L 52.142226 146.505516 L 54.10292 147.192682 L 56.025146 147.919406 L 57.041131 148.169182 L 58.055985 148.278812 L 60.161496 148.31837 L 62.231934 148.243776 L 63.24792 148.134146 L 64.262774 147.879849 L 66.224599 147.227719 L 67.20438 146.829885 L 68.180766 146.505516 L 69.161679 146.251219 L 70.216131 146.103161 L 71.232117 145.998052 L 72.283175 145.998052 L 73.298029 146.141589 L 74.317409 146.357458 L 75.333394 146.610625 L 76.274708 147.009589 L 78.235401 147.700146 L 79.216314 148.029036 L 80.232299 148.169182 L 82.33781 148.278812 L 84.403723 148.278812 L 85.458175 148.20874 L 86.474161 148.064073 L 87.455073 147.809776 L 88.434854 147.446979 L 90.35708 146.685219 L 91.373066 146.395885 L 92.38792 146.177755 L 93.403905 146.033089 L 94.458358 145.998052 L 95.474343 146.068125 L 96.490328 146.212792 L 97.505182 146.430922 L 98.521168 146.720255 L 100.446788 147.482016 L 101.427701 147.809776 L 102.442555 148.064073 L 103.45854 148.20874 L 104.509599 148.278812 L 106.580036 148.31837 L 107.594891 148.278812 L 108.650474 148.099109 L 109.630255 147.844812 L 110.646241 147.520443 L 112.568467 146.794849 L 113.548248 146.465958 L 114.564234 146.251219 L 115.580219 146.103161 L 116.634672 146.068125 L 117.684599 146.103161 L 118.700584 146.251219 L 119.716569 146.505516 L 120.69635 146.829885 L 122.658175 147.556609 L 123.637956 147.844812 L 124.653942 148.099109 L 125.669927 148.243776 L 126.684781 148.278812 L 128.790292 148.31724 L 129.844745 148.31724 L 130.86073 148.278812 L 131.876715 148.134146 L 132.892701 147.879849 L 134.813796 147.118089 L 135.794708 146.755292 L 136.810693 146.505516 L 137.825547 146.286255 L 138.844927 146.141589 L 139.895985 146.141589 L 140.911971 146.176625 L 141.926825 146.321292 L 142.94281 146.610625 L 144.903504 147.302312 L 145.884416 147.665109 L 146.865328 147.919406 L 147.880182 148.099109 L 148.931241 148.20874 L 151.001679 148.31724 L 152.052737 148.31724 L 153.10719 148.278812 L 154.123175 148.134146 L 155.138029 147.919406 L 157.06365 147.157646 L 158.040036 146.794849 L 159.020949 146.505516 L 160.036934 146.251219 L 161.091387 146.212792 L 162.107372 146.286255 Z M 163.122226 146.465958" transform="matrix(3.452621,0,0,3.456221,0,0)"></path>
    <path style="fill-rule:evenodd;fill:rgb(0.784314%,1.960784%,1.960784%);fill-opacity:1;stroke-width:0.027966;stroke-linecap:butt;stroke-linejoin:miter;stroke:rgb(0.784314%,1.960784%,1.960784%);stroke-opacity:1;stroke-miterlimit:2.613;" d="M 45.935438 142.552047 L 45.13781 142.73175 L 44.33792 142.95101 L 42.849015 143.49351 L 40.638285 142.005026 L 39.513686 141.243266 L 38.966095 140.883859 L 38.458102 140.481505 L 39.583832 138.525115 L 40.345255 139.107172 L 41.146277 139.576208 L 42.704197 140.630693 L 44.302847 141.607193 Z M 45.935438 142.552047" transform="matrix(3.452621,0,0,3.456221,0,0)"></path>
    <path style="fill-rule:evenodd;fill:rgb(0.784314%,1.960784%,1.960784%);fill-opacity:1;stroke-width:0.027966;stroke-linecap:butt;stroke-linejoin:miter;stroke:rgb(0.784314%,1.960784%,1.960784%);stroke-opacity:1;stroke-miterlimit:2.613;" d="M 129.552847 108.025312 L 129.806277 108.133813 L 130.094781 108.208406 L 130.38781 108.169979 L 130.602774 108.098776 L 130.78719 107.954109 L 130.895803 107.735979 L 131.04062 107.228516 L 131.223905 106.719922 L 131.368723 106.247495 L 131.693431 105.341068 L 132.130146 103.419714 L 132.349635 101.427156 L 132.384708 99.466245 L 132.274964 97.509854 L 131.981934 95.552333 L 131.583686 93.591422 L 131.005547 91.705104 L 130.352737 89.857214 L 129.516642 88.044359 L 128.607007 86.302708 L 127.555949 84.634521 L 126.356679 83.036406 L 125.087263 81.517406 L 123.708102 80.103516 L 122.259927 78.794734 L 120.69635 77.598974 L 119.063759 76.474417 L 117.356496 75.497917 L 115.544015 74.626526 L 113.731533 73.899802 L 111.840985 73.322266 L 109.919891 72.884875 L 107.958066 72.630578 L 105.962299 72.520948 L 104.005 72.595542 L 102.044307 72.848708 L 101.064526 73.067969 L 100.118686 73.357302 L 99.177372 73.681672 L 98.267737 74.044469 L 96.563869 75.02549 L 96.16562 75.313693 L 95.837518 75.67762 L 95.474343 76.619083 L 73.697409 104.434641 L 73.298029 104.544271 L 72.974453 104.833604 L 72.754964 105.196401 L 72.719891 105.633792 L 72.864708 106.032755 L 73.154343 106.357125 L 77.763613 109.69237 L 64.119088 118.326031 L 67.165912 110.02126 L 67.239453 109.512667 L 67.165912 108.966776 L 66.950949 108.49774 L 66.587774 108.133813 L 66.149927 107.880646 L 61.868759 106.322089 L 61.360766 106.212458 L 60.852774 106.287052 L 60.380985 106.501792 L 59.981606 106.864589 L 59.728175 107.337016 L 54.93562 120.611312 L 62.341679 123.294427 L 63.356533 120.501682 L 78.997956 110.598797 L 85.638066 115.423656 L 86.040839 115.60675 L 86.474161 115.60675 L 86.872409 115.458693 L 87.162044 115.134323 Z M 127.740365 99.466245 L 127.810511 98.923745 L 127.775438 98.380115 L 127.555949 97.32563 L 127.232372 96.274536 L 126.794526 95.259609 L 126.25146 94.318146 L 125.669927 93.376682 L 125.05219 92.466865 L 124.400511 91.633901 L 122.946679 90.00188 L 121.349161 88.478359 L 119.606825 87.172969 L 118.665511 86.590911 L 117.68573 86.123005 L 80.919051 109.36913 L 86.657445 113.536208 Z M 116.524927 85.177021 L 115.470474 83.618464 L 114.309672 82.169536 L 113.001788 80.825719 L 112.313905 80.212016 L 111.587555 79.629958 L 110.826131 79.122495 L 110.028504 78.650068 L 109.192409 78.251104 L 108.286168 77.927865 L 107.416131 77.708604 L 106.470292 77.563937 L 105.528978 77.563937 L 104.618212 77.673568 L 75.623029 105.525292 L 79.689234 108.49774 Z M 102.841934 77.380844 L 102.263796 76.946844 L 101.571387 76.65751 L 100.880109 76.512844 L 100.118686 76.43938 L 98.66938 76.474417 L 97.943029 76.54901 L 97.216679 76.692547 L 77.872226 101.39212 Z M 129.478175 106.575255 L 93.806679 112.594745 L 128.247226 100.810063 L 128.501788 101.064359 L 128.716752 101.39212 L 129.044854 102.079286 L 129.263212 102.80601 L 129.408029 103.56438 L 129.516642 105.087901 L 129.552847 105.849661 Z M 129.478175 106.575255" transform="matrix(3.452621,0,0,3.456221,0,0)"></path>
    <path style="fill-rule:evenodd;fill:rgb(0.784314%,1.960784%,1.960784%);fill-opacity:1;stroke-width:0.027966;stroke-linecap:butt;stroke-linejoin:miter;stroke:rgb(0.784314%,1.960784%,1.960784%);stroke-opacity:1;stroke-miterlimit:2.613;" d="M 68.981788 102.403656 L 68.873175 101.571823 L 68.545073 100.770505 L 68.002007 100.083339 L 67.349197 99.575875 L 66.548175 99.251505 L 65.716606 99.141875 L 64.880511 99.251505 L 64.084015 99.575875 L 63.42781 100.083339 L 62.884745 100.770505 L 62.556642 101.571823 L 62.450292 102.403656 L 62.556642 103.24001 L 62.884745 104.036807 L 63.42781 104.688937 L 64.084015 105.196401 L 64.880511 105.525292 L 65.716606 105.669958 L 66.548175 105.525292 L 67.349197 105.196401 L 68.002007 104.688937 L 68.545073 104.036807 L 68.873175 103.24001 Z M 68.981788 102.403656" transform="matrix(3.452621,0,0,3.456221,0,0)"></path>
    <path style="fill-rule:evenodd;fill:rgb(0.784314%,1.960784%,1.960784%);fill-opacity:1;stroke-width:0.027966;stroke-linecap:butt;stroke-linejoin:miter;stroke:rgb(0.784314%,1.960784%,1.960784%);stroke-opacity:1;stroke-miterlimit:2.613;" d="M 60.196569 133.520552 L 60.126423 132.903458 L 59.83792 132.360958 L 59.400073 131.923568 L 58.857007 131.634234 L 58.23927 131.564161 L 57.622664 131.634234 L 57.079599 131.923568 L 56.641752 132.360958 L 56.348723 132.903458 L 56.278577 133.520552 L 56.348723 134.138776 L 56.641752 134.681276 L 57.079599 135.115276 L 57.622664 135.408 L 58.23927 135.478073 L 58.857007 135.408 L 59.400073 135.115276 L 59.83792 134.681276 L 60.126423 134.138776 Z M 60.196569 133.520552" transform="matrix(3.452621,0,0,3.456221,0,0)"></path>
    <path style="fill-rule:evenodd;fill:rgb(0.784314%,1.960784%,1.960784%);fill-opacity:1;stroke-width:0.027966;stroke-linecap:butt;stroke-linejoin:miter;stroke:rgb(0.784314%,1.960784%,1.960784%);stroke-opacity:1;stroke-miterlimit:2.613;" d="M 62.450292 122.60274 L 62.376752 121.990167 L 62.087117 121.446536 L 61.650401 121.009146 L 61.107336 120.719813 L 60.489599 120.646349 L 59.872993 120.719813 L 59.329927 121.009146 L 58.89208 121.446536 L 58.603577 121.990167 L 58.493832 122.60274 L 58.603577 123.219833 L 58.89208 123.763464 L 59.329927 124.200854 L 59.872993 124.490188 L 60.489599 124.598687 L 61.107336 124.490188 L 61.650401 124.200854 L 62.087117 123.763464 L 62.376752 123.219833 Z M 62.450292 122.60274" transform="matrix(3.452621,0,0,3.456221,0,0)"></path>
    <path style="fill-rule:evenodd;fill:rgb(0.784314%,1.960784%,1.960784%);fill-opacity:1;stroke-width:0.027966;stroke-linecap:butt;stroke-linejoin:miter;stroke:rgb(0.784314%,1.960784%,1.960784%);stroke-opacity:1;stroke-miterlimit:2.613;" d="M 58.747263 121.263443 L 58.63865 120.646349 L 58.384088 120.102719 L 57.950766 119.665328 L 57.369234 119.375995 L 56.786569 119.305922 L 56.169964 119.375995 L 55.626898 119.665328 L 55.189051 120.102719 L 54.899416 120.646349 L 54.790803 121.263443 L 54.899416 121.880536 L 55.189051 122.423036 L 55.626898 122.860427 L 56.169964 123.14976 L 56.786569 123.259391 L 57.369234 123.14976 L 57.950766 122.860427 L 58.384088 122.423036 L 58.63865 121.880536 Z M 58.747263 121.263443" transform="matrix(3.452621,0,0,3.456221,0,0)"></path>
    <path style="fill-rule:evenodd;fill:rgb(0.784314%,1.960784%,1.960784%);fill-opacity:1;stroke-width:0.027966;stroke-linecap:butt;stroke-linejoin:miter;stroke:rgb(0.784314%,1.960784%,1.960784%);stroke-opacity:1;stroke-miterlimit:2.613;" d="M 65.169015 123.836927 L 65.060401 123.259391 L 64.770766 122.71237 L 64.337445 122.243333 L 63.790985 121.990167 L 63.173248 121.880536 L 62.556642 121.990167 L 62.013577 122.243333 L 61.57573 122.71237 L 61.287226 123.259391 L 61.215949 123.836927 L 61.287226 124.455151 L 61.57573 124.997651 L 62.013577 125.435042 L 62.556642 125.724375 L 63.173248 125.829484 L 63.790985 125.724375 L 64.337445 125.435042 L 64.770766 124.997651 L 65.060401 124.455151 Z M 65.169015 123.836927" transform="matrix(3.452621,0,0,3.456221,0,0)"></path>
    <path style="fill-rule:evenodd;fill:rgb(0.784314%,1.960784%,1.960784%);fill-opacity:1;stroke-width:0.027966;stroke-linecap:butt;stroke-linejoin:miter;stroke:rgb(0.784314%,1.960784%,1.960784%);stroke-opacity:1;stroke-miterlimit:2.613;" d="M 72.536606 126.665839 L 72.426861 126.048745 L 72.138358 125.505115 L 71.705036 125.072245 L 71.157445 124.817948 L 70.540839 124.708318 L 69.923102 124.817948 L 69.380036 125.072245 L 68.946715 125.505115 L 68.653686 126.048745 L 68.58354 126.665839 L 68.653686 127.282932 L 68.946715 127.825432 L 69.380036 128.262823 L 69.923102 128.552156 L 70.540839 128.661786 L 71.157445 128.552156 L 71.705036 128.262823 L 72.138358 127.825432 L 72.426861 127.282932 Z M 72.536606 126.665839" transform="matrix(3.452621,0,0,3.456221,0,0)"></path>
    <path style="fill-rule:evenodd;fill:rgb(0.784314%,1.960784%,1.960784%);fill-opacity:1;stroke-width:0.027966;stroke-linecap:butt;stroke-linejoin:miter;stroke:rgb(0.784314%,1.960784%,1.960784%);stroke-opacity:1;stroke-miterlimit:2.613;" d="M 82.263139 110.45413 L 82.192993 109.946667 L 81.974635 109.47763 L 81.575255 109.079797 L 81.103467 108.860536 L 80.595474 108.787073 L 80.087482 108.860536 L 79.614562 109.079797 L 79.251387 109.47763 L 78.997956 109.946667 L 78.92781 110.45413 L 78.997956 110.962724 L 79.251387 111.435151 L 79.614562 111.797948 L 80.087482 112.052245 L 80.595474 112.122318 L 81.103467 112.052245 L 81.575255 111.797948 L 81.974635 111.435151 L 82.192993 110.962724 Z M 82.263139 110.45413" transform="matrix(3.452621,0,0,3.456221,0,0)"></path>
    <path style="fill-rule:evenodd;fill:rgb(0.784314%,1.960784%,1.960784%);fill-opacity:1;stroke-width:0.027966;stroke-linecap:butt;stroke-linejoin:miter;stroke:rgb(0.784314%,1.960784%,1.960784%);stroke-opacity:1;stroke-miterlimit:2.613;" d="M 64.955182 124.743354 L 61.430912 122.966667 L 56.498066 132.615255 L 59.981606 134.426979 Z M 64.955182 124.743354" transform="matrix(3.452621,0,0,3.456221,0,0)"></path>
    <path style="fill-rule:evenodd;fill:rgb(0.784314%,1.960784%,1.960784%);fill-opacity:1;stroke-width:0.027966;stroke-linecap:butt;stroke-linejoin:miter;stroke:rgb(0.784314%,1.960784%,1.960784%);stroke-opacity:1;stroke-miterlimit:2.613;" d="M 72.321642 127.572266 L 68.798504 125.794448 L 63.864526 135.443036 L 67.349197 137.255891 Z M 72.321642 127.572266" transform="matrix(3.452621,0,0,3.456221,0,0)"></path>
    <path style="fill-rule:evenodd;fill:rgb(0.784314%,1.960784%,1.960784%);fill-opacity:1;stroke-width:0.027966;stroke-linecap:butt;stroke-linejoin:miter;stroke:rgb(0.784314%,1.960784%,1.960784%);stroke-opacity:1;stroke-miterlimit:2.613;" d="M 63.934672 122.025203 L 57.51292 119.450589 L 56.025146 123.114724 L 62.450292 125.689339 Z M 63.934672 122.025203" transform="matrix(3.452621,0,0,3.456221,0,0)"></path>
    <path style="fill-rule:evenodd;fill:rgb(0.784314%,1.960784%,1.960784%);fill-opacity:1;stroke-width:0.027966;stroke-linecap:butt;stroke-linejoin:miter;stroke:rgb(0.784314%,1.960784%,1.960784%);stroke-opacity:1;stroke-miterlimit:2.613;" d="M 80.813832 108.787073 L 61.540657 106.247495 L 61.067737 109.548833 L 80.375985 112.122318 Z M 80.813832 108.787073" transform="matrix(3.452621,0,0,3.456221,0,0)"></path>
    <path style="fill-rule:evenodd;fill:rgb(0.784314%,1.960784%,1.960784%);fill-opacity:1;stroke-width:0.027966;stroke-linecap:butt;stroke-linejoin:miter;stroke:rgb(0.784314%,1.960784%,1.960784%);stroke-opacity:1;stroke-miterlimit:2.613;" d="M 71.302263 124.852984 L 61.215949 120.791016 L 59.728175 124.455151 L 69.817883 128.51712 Z M 71.302263 124.852984" transform="matrix(3.452621,0,0,3.456221,0,0)"></path>
    <path style="fill-rule:evenodd;fill:rgb(0.784314%,1.960784%,1.960784%);fill-opacity:1;stroke-width:0.027966;stroke-linecap:butt;stroke-linejoin:miter;stroke:rgb(0.784314%,1.960784%,1.960784%);stroke-opacity:1;stroke-miterlimit:2.613;" d="M 67.564161 136.349464 L 67.494015 135.73237 L 67.20438 135.18874 L 66.767664 134.75587 L 66.224599 134.462016 L 65.606861 134.353516 L 64.990255 134.462016 L 64.44719 134.75587 L 64.009343 135.18874 L 63.720839 135.73237 L 63.646168 136.349464 L 63.720839 136.966557 L 64.009343 137.509057 L 64.44719 137.943057 L 64.990255 138.235781 L 65.606861 138.305854 L 66.224599 138.235781 L 66.767664 137.943057 L 67.20438 137.509057 L 67.494015 136.966557 Z M 67.564161 136.349464" transform="matrix(3.452621,0,0,3.456221,0,0)"></path>
    <path style="fill-rule:evenodd;fill:rgb(0.784314%,1.960784%,1.960784%);fill-opacity:1;stroke-width:0.027966;stroke-linecap:butt;stroke-linejoin:miter;stroke:rgb(0.784314%,1.960784%,1.960784%);stroke-opacity:1;stroke-miterlimit:2.613;" d="M 86.439088 140.301802 L 83.099234 138.634745 L 79.689234 137.184687 L 76.169489 135.9505 L 72.576204 134.935573 L 68.946715 134.138776 L 59.583358 132.431031 L 50.181533 131.017141 L 43.794854 132.033198 L 44.954526 132.794958 L 46.153796 133.520552 L 48.657555 134.825943 L 51.196387 135.985536 L 53.774818 137.076188 L 56.388321 138.091115 L 59.036898 138.962505 L 61.723942 139.759302 L 64.44719 140.376396 L 67.200985 140.845432 L 69.997774 141.243266 L 72.754964 141.53712 L 75.551752 141.751859 L 78.345146 141.825323 L 81.13854 141.790286 L 82.556168 141.642229 L 83.935328 141.462526 L 84.62208 141.317859 L 85.274891 141.063562 L 85.892628 140.735802 Z M 86.439088 140.301802" transform="matrix(3.452621,0,0,3.456221,0,0)"></path>
  </g>
</svg>