<?xml version="1.0" encoding="UTF-8" standalone="yes"?>
<svg xmlns="http://www.w3.org/2000/svg" height="525" width="600" version="1.1" viewBox="0 0 600 525">
  <defs></defs>
  <path d="M597.6,499.6,313.8,8c-2.9-5-8.2-8-13.9-8s-11,3.1-13.9,8l-283.8,491.6c-2.9,5-2.9,11.1,0,16,2.9,5,8.2,8,13.9,8h567.6c5.7,0,11-3.1,13.9-8,2.9-5,2.9-11.1,0-16z"></path>
  <polygon points="555.88,491.5,43.875,491.5,299.88,48.2" fill="#f6bd16" transform="matrix(1,0,0,0.99591458,0.125,2.0332437)"></polygon>
  <g transform="matrix(1.050601,0,0,1.050601,953.67081,113.37476)" stroke-dashoffset="0" stroke="#000000" stroke-linecap="square" stroke-miterlimit="4" stroke-dasharray="none" fill="#000000">
    <path d="m-622,105.22-12.5,77.531-52.281-58.594,31.375,71.969-75.656-21.031,65.344,43.594-75.031,23.219,78.531,1.3438-50.562,60.062,66.781-41.281-10.062,77.875,33.844-70.875,33.656,70.969-9.8438-77.906,66.656,41.5-50.375-60.25,78.5-1.125-74.938-23.406,65.438-43.406-75.719,20.812,31.594-71.875-52.438,58.438l-12.31-77.54zm0.5,82.219c21.27,0,38.531,17.261,38.531,38.531s-17.261,38.562-38.531,38.562c-21.27-0.00001-38.531-17.292-38.531-38.562s17.261-38.531,38.531-38.531z" stroke-width="1.24129677"></path>
    <path d="m-283.77,72.153c0,22.281-18.063,40.344-40.344,40.344s-40.344-18.063-40.344-40.344,18.063-40.344,40.344-40.344,40.344,18.063,40.344,40.344z" transform="matrix(0.779473,0,0,0.779473,-369.313,168.9978)" stroke-width="1.08170712"></path>
  </g>
</svg>