<?xml version="1.0" encoding="UTF-8" standalone="yes"?>
<svg xmlns="http://www.w3.org/2000/svg" xmlns:xlink="http://www.w3.org/1999/xlink" width="685pt" height="600pt" viewBox="0 0 685 600" version="1.1">
  <g id="surface1">
    <path style="fill-rule:evenodd;fill:rgb(0.784314%,1.960784%,1.960784%);fill-opacity:1;stroke-width:0.127844;stroke-linecap:butt;stroke-linejoin:miter;stroke:rgb(0.784314%,1.960784%,1.960784%);stroke-opacity:1;stroke-miterlimit:2.613;" d="M 197.46208 164.743687 L 104.122664 2.938542 L 103.544526 2.076193 L 102.826095 1.427453 L 102.036387 0.853307 L 101.099599 0.423828 L 100.165073 0.134495 L 99.158139 0.0644219 L 98.153467 0.134495 L 97.146533 0.423828 L 96.283285 0.853307 L 95.420036 1.427453 L 94.77062 2.076193 L 94.197007 2.938542 L 0.857591 164.743687 L 0.423139 165.67724 L 0.134635 166.610792 L 0.0644891 167.618937 L 0.134635 168.627083 L 0.423139 169.630708 L 0.857591 170.494188 L 1.431204 171.356536 L 2.076095 172.005276 L 2.939343 172.579422 L 3.802591 173.013422 L 4.810657 173.302755 L 5.817591 173.372828 L 192.50208 173.372828 L 193.509015 173.302755 L 194.442409 173.013422 L 195.376934 172.579422 L 196.170036 172.005276 L 196.888467 171.356536 L 197.46208 170.494188 L 197.896533 169.630708 L 198.181642 168.627083 L 198.255182 167.618937 L 198.181642 166.610792 L 197.896533 165.67724 Z M 197.46208 164.743687" transform="matrix(3.452621,0,0,3.456221,0,0)"></path>
    <path style="fill-rule:evenodd;fill:rgb(92.156863%,74.901961%,16.862745%);fill-opacity:1;stroke-width:0.127844;stroke-linecap:butt;stroke-linejoin:miter;stroke:rgb(0.784314%,1.960784%,1.960784%);stroke-opacity:1;stroke-miterlimit:2.613;" d="M 99.158139 18.110458 L 181.856861 161.505641 L 16.458285 161.505641 Z M 99.158139 18.110458" transform="matrix(3.452621,0,0,3.456221,0,0)"></path>
    <path style="fill-rule:evenodd;fill:rgb(0.784314%,1.960784%,1.960784%);fill-opacity:1;stroke-width:0.027966;stroke-linecap:butt;stroke-linejoin:miter;stroke:rgb(0.784314%,1.960784%,1.960784%);stroke-opacity:1;stroke-miterlimit:2.613;" d="M 155.763686 138.766979 L 42.517518 138.766979 L 34.025328 151.497646 L 164.255876 151.497646 Z M 155.763686 138.766979" transform="matrix(3.452621,0,0,3.456221,0,0)"></path>
    <path style="fill-rule:evenodd;fill:rgb(0.784314%,1.960784%,1.960784%);fill-opacity:1;stroke-width:0.027966;stroke-linecap:butt;stroke-linejoin:miter;stroke:rgb(0.784314%,1.960784%,1.960784%);stroke-opacity:1;stroke-miterlimit:2.613;" d="M 114.470328 93.751911 L 112.837737 102.567536 L 109.388139 101.915406 L 111.025255 93.138208 Z M 114.470328 93.751911" transform="matrix(3.452621,0,0,3.456221,0,0)"></path>
    <path style="fill-rule:evenodd;fill:rgb(0.784314%,1.960784%,1.960784%);fill-opacity:1;stroke-width:0.027966;stroke-linecap:butt;stroke-linejoin:miter;stroke:rgb(0.784314%,1.960784%,1.960784%);stroke-opacity:1;stroke-miterlimit:2.613;" d="M 98.93865 69.634396 L 95.458504 69.993802 L 96.434891 78.919057 L 99.919562 78.521224 Z M 98.93865 69.634396" transform="matrix(3.452621,0,0,3.456221,0,0)"></path>
    <path style="fill-rule:evenodd;fill:rgb(0.784314%,1.960784%,1.960784%);fill-opacity:1;stroke-width:0.027966;stroke-linecap:butt;stroke-linejoin:miter;stroke:rgb(0.784314%,1.960784%,1.960784%);stroke-opacity:1;stroke-miterlimit:2.613;" d="M 104.454161 101.080182 L 102.060146 97.743807 L 92.880073 104.384911 L 95.275219 107.720156 Z M 104.454161 101.080182" transform="matrix(3.452621,0,0,3.456221,0,0)"></path>
    <path style="fill-rule:evenodd;fill:rgb(0.784314%,1.960784%,1.960784%);fill-opacity:1;stroke-width:0.027966;stroke-linecap:butt;stroke-linejoin:miter;stroke:rgb(0.784314%,1.960784%,1.960784%);stroke-opacity:1;stroke-miterlimit:2.613;" d="M 96.111314 106.302875 L 92.043978 105.798802 L 90.669343 117.040984 L 94.732153 117.548448 Z M 96.111314 106.302875" transform="matrix(3.452621,0,0,3.456221,0,0)"></path>
    <path style="fill-rule:evenodd;fill:rgb(0.784314%,1.960784%,1.960784%);fill-opacity:1;stroke-width:0.027966;stroke-linecap:butt;stroke-linejoin:miter;stroke:rgb(0.784314%,1.960784%,1.960784%);stroke-opacity:1;stroke-miterlimit:2.613;" d="M 92.37208 91.868984 L 85.950328 101.188682 L 82.575401 98.868365 L 88.997153 89.548667 Z M 92.37208 91.868984" transform="matrix(3.452621,0,0,3.456221,0,0)"></path>
    <path style="fill-rule:evenodd;fill:rgb(0.784314%,1.960784%,1.960784%);fill-opacity:1;stroke-width:0.027966;stroke-linecap:butt;stroke-linejoin:miter;stroke:rgb(0.784314%,1.960784%,1.960784%);stroke-opacity:1;stroke-miterlimit:2.613;" d="M 112.87281 102.243167 L 112.763066 101.697276 L 112.509635 101.223719 L 112.14646 100.825885 L 111.638467 100.571589 L 111.095401 100.501516 L 110.552336 100.571589 L 110.079416 100.825885 L 109.681168 101.223719 L 109.427737 101.697276 L 109.353066 102.243167 L 109.427737 102.786797 L 109.681168 103.29426 L 110.079416 103.658187 L 110.552336 103.911354 L 111.095401 104.017594 L 111.638467 103.911354 L 112.14646 103.658187 L 112.509635 103.29426 L 112.763066 102.786797 Z M 112.87281 102.243167" transform="matrix(3.452621,0,0,3.456221,0,0)"></path>
    <path style="fill-rule:evenodd;fill:rgb(0.784314%,1.960784%,1.960784%);fill-opacity:1;stroke-width:0.027966;stroke-linecap:butt;stroke-linejoin:miter;stroke:rgb(0.784314%,1.960784%,1.960784%);stroke-opacity:1;stroke-miterlimit:2.613;" d="M 114.505401 93.462578 L 114.435255 92.918948 L 114.180693 92.411484 L 113.779051 92.048687 L 113.310657 91.794391 L 112.763066 91.68476 L 112.22 91.794391 L 111.712007 92.048687 L 111.348832 92.411484 L 111.095401 92.918948 L 111.025255 93.462578 L 111.095401 94.009599 L 111.348832 94.478635 L 111.712007 94.876469 L 112.22 95.095729 L 112.763066 95.204229 L 113.310657 95.095729 L 113.779051 94.876469 L 114.180693 94.478635 L 114.435255 94.009599 Z M 114.505401 93.462578" transform="matrix(3.452621,0,0,3.456221,0,0)"></path>
    <path style="fill-rule:evenodd;fill:rgb(0.784314%,1.960784%,1.960784%);fill-opacity:1;stroke-width:0.027966;stroke-linecap:butt;stroke-linejoin:miter;stroke:rgb(0.784314%,1.960784%,1.960784%);stroke-opacity:1;stroke-miterlimit:2.613;" d="M 99.919562 78.735964 L 99.844891 78.193464 L 99.59146 77.68487 L 99.193212 77.322073 L 98.720292 77.067776 L 98.177226 76.958146 L 97.634161 77.067776 L 97.126168 77.322073 L 96.762993 77.68487 L 96.509562 78.193464 L 96.399818 78.735964 L 96.509562 79.282984 L 96.762993 79.752021 L 97.126168 80.154375 L 97.634161 80.404151 L 98.177226 80.477615 L 98.720292 80.404151 L 99.193212 80.154375 L 99.59146 79.752021 L 99.844891 79.282984 Z M 99.919562 78.735964" transform="matrix(3.452621,0,0,3.456221,0,0)"></path>
    <path style="fill-rule:evenodd;fill:rgb(0.784314%,1.960784%,1.960784%);fill-opacity:1;stroke-width:0.027966;stroke-linecap:butt;stroke-linejoin:miter;stroke:rgb(0.784314%,1.960784%,1.960784%);stroke-opacity:1;stroke-miterlimit:2.613;" d="M 98.93865 69.814099 L 98.868504 69.271599 L 98.615073 68.798042 L 98.216825 68.400208 L 97.743905 68.145911 L 97.196314 68.071318 L 96.65438 68.145911 L 96.18146 68.400208 L 95.783212 68.798042 L 95.52865 69.271599 L 95.458504 69.814099 L 95.52865 70.356599 L 95.783212 70.830156 L 96.18146 71.22799 L 96.65438 71.482286 L 97.196314 71.55575 L 97.743905 71.482286 L 98.216825 71.22799 L 98.615073 70.830156 L 98.868504 70.356599 Z M 98.93865 69.814099" transform="matrix(3.452621,0,0,3.456221,0,0)"></path>
    <path style="fill-rule:evenodd;fill:rgb(0.784314%,1.960784%,1.960784%);fill-opacity:1;stroke-width:0.027966;stroke-linecap:butt;stroke-linejoin:miter;stroke:rgb(0.784314%,1.960784%,1.960784%);stroke-opacity:1;stroke-miterlimit:2.613;" d="M 96.146387 106.051969 L 96.036642 105.396448 L 95.748139 104.852818 L 95.275219 104.383781 L 94.732153 104.091057 L 94.075949 103.982557 L 93.462737 104.091057 L 92.880073 104.383781 L 92.408285 104.852818 L 92.11865 105.396448 L 92.008905 106.051969 L 92.11865 106.704099 L 92.408285 107.247729 L 92.880073 107.720156 L 93.462737 108.00949 L 94.075949 108.11912 L 94.732153 108.00949 L 95.275219 107.720156 L 95.748139 107.247729 L 96.036642 106.704099 Z M 96.146387 106.051969" transform="matrix(3.452621,0,0,3.456221,0,0)"></path>
    <path style="fill-rule:evenodd;fill:rgb(0.784314%,1.960784%,1.960784%);fill-opacity:1;stroke-width:0.027966;stroke-linecap:butt;stroke-linejoin:miter;stroke:rgb(0.784314%,1.960784%,1.960784%);stroke-opacity:1;stroke-miterlimit:2.613;" d="M 92.736387 90.70826 L 92.661715 90.05274 L 92.373212 89.474073 L 91.900292 89.036682 L 91.322153 88.747349 L 90.704416 88.637719 L 90.052737 88.747349 L 89.470073 89.036682 L 89.033358 89.474073 L 88.743723 90.05274 L 88.633978 90.70826 L 88.743723 91.321964 L 89.033358 91.904021 L 89.470073 92.376448 L 90.052737 92.665781 L 90.704416 92.775411 L 91.322153 92.665781 L 91.900292 92.376448 L 92.373212 91.904021 L 92.661715 91.321964 Z M 92.736387 90.70826" transform="matrix(3.452621,0,0,3.456221,0,0)"></path>
    <path style="fill-rule:evenodd;fill:rgb(0.784314%,1.960784%,1.960784%);fill-opacity:1;stroke-width:0.027966;stroke-linecap:butt;stroke-linejoin:miter;stroke:rgb(0.784314%,1.960784%,1.960784%);stroke-opacity:1;stroke-miterlimit:2.613;" d="M 101.478613 97.888474 L 101.407336 97.27138 L 101.079234 96.692714 L 100.645912 96.220286 L 100.06438 95.930953 L 99.446642 95.821323 L 98.794964 95.930953 L 98.216825 96.220286 L 97.778978 96.692714 L 97.489343 97.27138 L 97.38073 97.888474 L 97.489343 98.540604 L 97.778978 99.122661 L 98.216825 99.556661 L 98.794964 99.849385 L 99.446642 99.959016 L 100.06438 99.849385 L 100.645912 99.556661 L 101.079234 99.122661 L 101.407336 98.540604 Z M 101.478613 97.888474" transform="matrix(3.452621,0,0,3.456221,0,0)"></path>
    <path style="fill-rule:evenodd;fill:rgb(0.784314%,1.960784%,1.960784%);fill-opacity:1;stroke-width:0.027966;stroke-linecap:butt;stroke-linejoin:miter;stroke:rgb(0.784314%,1.960784%,1.960784%);stroke-opacity:1;stroke-miterlimit:2.613;" d="M 105.325328 99.411995 L 105.216715 98.794901 L 104.92708 98.216234 L 104.454161 97.743807 L 103.912226 97.454474 L 103.259416 97.344844 L 102.603212 97.454474 L 102.060146 97.743807 L 101.591752 98.216234 L 101.298723 98.794901 L 101.188978 99.411995 L 101.298723 100.064125 L 101.591752 100.646182 L 102.060146 101.080182 L 102.603212 101.372906 L 103.259416 101.482536 L 103.912226 101.372906 L 104.454161 101.080182 L 104.92708 100.646182 L 105.216715 100.064125 Z M 105.325328 99.411995" transform="matrix(3.452621,0,0,3.456221,0,0)"></path>
    <path style="fill-rule:evenodd;fill:rgb(0.784314%,1.960784%,1.960784%);fill-opacity:1;stroke-width:0.027966;stroke-linecap:butt;stroke-linejoin:miter;stroke:rgb(0.784314%,1.960784%,1.960784%);stroke-opacity:1;stroke-miterlimit:2.613;" d="M 94.767226 117.294151 L 94.657482 116.642021 L 94.368978 116.099521 L 93.896058 115.627094 L 93.352993 115.33776 L 92.696788 115.22813 L 92.083577 115.33776 L 91.502044 115.627094 L 91.029124 116.099521 L 90.739489 116.642021 L 90.630876 117.294151 L 90.739489 117.911245 L 91.029124 118.493302 L 91.502044 118.962339 L 92.083577 119.251672 L 92.696788 119.361302 L 93.352993 119.251672 L 93.896058 118.962339 L 94.368978 118.493302 L 94.657482 117.911245 Z M 94.767226 117.294151" transform="matrix(3.452621,0,0,3.456221,0,0)"></path>
    <path style="fill-rule:evenodd;fill:rgb(0.784314%,1.960784%,1.960784%);fill-opacity:1;stroke-width:0.027966;stroke-linecap:butt;stroke-linejoin:miter;stroke:rgb(0.784314%,1.960784%,1.960784%);stroke-opacity:1;stroke-miterlimit:2.613;" d="M 86.313504 100.029089 L 86.239964 99.411995 L 85.950328 98.833328 L 85.47854 98.360901 L 84.895876 98.071568 L 84.27927 97.961938 L 83.62646 98.071568 L 83.048321 98.360901 L 82.610474 98.833328 L 82.321971 99.411995 L 82.212226 100.029089 L 82.321971 100.681219 L 82.610474 101.223719 L 83.048321 101.697276 L 83.62646 101.985479 L 84.27927 102.09963 L 84.895876 101.985479 L 85.47854 101.697276 L 85.950328 101.223719 L 86.239964 100.681219 Z M 86.313504 100.029089" transform="matrix(3.452621,0,0,3.456221,0,0)"></path>
    <path style="fill-rule:evenodd;fill:rgb(0.784314%,1.960784%,1.960784%);fill-opacity:1;stroke-width:0.027966;stroke-linecap:butt;stroke-linejoin:miter;stroke:rgb(0.784314%,1.960784%,1.960784%);stroke-opacity:1;stroke-miterlimit:2.613;" d="M 79.235547 129.337651 L 75.645657 129.337651 L 75.645657 94.876469 L 79.235547 94.876469 L 73.068358 88.060182 L 66.935109 94.876469 L 70.528394 94.876469 L 70.528394 129.337651 L 66.935109 129.337651 L 73.068358 136.193495 Z M 79.235547 129.337651" transform="matrix(3.452621,0,0,3.456221,0,0)"></path>
    <path style="fill-rule:evenodd;fill:rgb(0.784314%,1.960784%,1.960784%);fill-opacity:1;stroke-width:0.027966;stroke-linecap:butt;stroke-linejoin:miter;stroke:rgb(0.784314%,1.960784%,1.960784%);stroke-opacity:1;stroke-miterlimit:2.613;" d="M 125.97427 83.126823 L 124.739927 83.161859 L 123.505584 83.415026 L 122.344781 83.81399 L 120.528905 84.57575 L 119.114672 85.083214 L 117.626898 85.412104 L 116.10292 85.520604 L 114.580073 85.412104 L 113.091168 85.083214 L 111.676934 84.57575 L 109.861058 83.81399 L 108.591642 83.37999 L 107.25208 83.161859 L 105.907993 83.161859 L 104.563905 83.37999 L 103.259416 83.81399 L 101.478613 84.57575 L 100.029307 85.083214 L 98.540401 85.412104 L 97.017555 85.520604 L 95.52865 85.412104 L 94.040876 85.083214 L 92.591569 84.57575 L 90.774562 83.81399 L 89.505146 83.37999 L 88.16219 83.161859 L 86.821496 83.161859 L 85.47854 83.37999 L 84.209124 83.81399 L 82.392117 84.57575 L 80.94281 85.122771 L 79.419964 85.412104 L 77.857518 85.520604 L 76.298467 85.375938 L 74.774489 85.048177 L 73.321788 84.505677 L 71.977701 83.778953 L 73.39646 81.313969 L 74.591204 81.966099 L 75.900219 82.438526 L 77.239781 82.653266 L 78.618942 82.653266 L 79.963029 82.438526 L 81.270912 82.001135 L 83.083394 81.204339 L 84.497628 80.696875 L 85.985401 80.404151 L 87.50938 80.297911 L 88.997153 80.404151 L 90.486058 80.696875 L 91.938759 81.204339 L 93.716168 82.001135 L 95.020657 82.438526 L 96.364745 82.653266 L 97.708832 82.653266 L 99.048394 82.438526 L 100.352883 82.001135 L 102.134818 81.204339 L 103.584124 80.696875 L 105.071898 80.404151 L 106.559672 80.297911 L 108.08365 80.404151 L 109.571423 80.696875 L 110.985657 81.204339 L 112.802664 82.001135 L 114.07208 82.438526 L 115.415036 82.653266 L 116.790803 82.653266 L 118.134891 82.438526 L 119.404307 82.001135 L 121.220182 81.204339 L 122.779234 80.657318 L 124.376752 80.369115 Z M 125.97427 83.126823" transform="matrix(3.452621,0,0,3.456221,0,0)"></path>
    <path style="fill-rule:evenodd;fill:rgb(0.784314%,1.960784%,1.960784%);fill-opacity:1;stroke-width:0.027966;stroke-linecap:butt;stroke-linejoin:miter;stroke:rgb(0.784314%,1.960784%,1.960784%);stroke-opacity:1;stroke-miterlimit:2.613;" d="M 99.266752 77.357109 L 97.052628 80.079781 L 97.923796 80.771469 L 98.794964 80.587245 L 99.59146 80.297911 L 101.407336 79.536151 L 101.770511 79.388094 Z M 99.266752 77.357109" transform="matrix(3.452621,0,0,3.456221,0,0)"></path>
    <path style="fill-rule:evenodd;fill:rgb(0.784314%,1.960784%,1.960784%);fill-opacity:1;stroke-width:0.027966;stroke-linecap:butt;stroke-linejoin:miter;stroke:rgb(0.784314%,1.960784%,1.960784%);stroke-opacity:1;stroke-miterlimit:2.613;" d="M 112.474562 79.825484 L 112.583175 79.09876 L 112.583175 78.337 L 112.364818 77.614797 L 112.040109 76.958146 L 111.533248 76.380609 L 110.950584 75.943219 L 110.259307 75.618849 L 109.53635 75.474182 L 108.771533 75.474182 L 108.048577 75.653885 L 107.357299 75.981646 L 106.779161 76.450682 L 106.341314 77.067776 L 106.013212 77.719906 L 105.833321 78.481667 L 107.357299 78.481667 L 108.845073 78.665891 L 110.298905 78.99026 L 111.712007 79.536151 Z M 112.474562 79.825484" transform="matrix(3.452621,0,0,3.456221,0,0)"></path>
    <path style="fill-rule:evenodd;fill:rgb(0.784314%,1.960784%,1.960784%);fill-opacity:1;stroke-width:0.027966;stroke-linecap:butt;stroke-linejoin:miter;stroke:rgb(0.784314%,1.960784%,1.960784%);stroke-opacity:1;stroke-miterlimit:2.613;" d="M 110.732226 86.173865 L 109.138102 85.485568 L 108.118723 85.157807 L 107.102737 84.974714 L 106.05281 84.974714 L 105.001752 85.157807 L 104.020839 85.485568 L 102.204964 86.282365 L 101.770511 86.462068 L 97.524416 97.126714 L 105.181642 100.173755 L 109.064562 90.3805 L 111.240219 94.298932 L 114.290438 92.591188 Z M 110.732226 86.173865" transform="matrix(3.452621,0,0,3.456221,0,0)"></path>
    <path style="fill-rule:evenodd;fill:rgb(0.784314%,1.960784%,1.960784%);fill-opacity:1;stroke-width:0.027966;stroke-linecap:butt;stroke-linejoin:miter;stroke:rgb(0.784314%,1.960784%,1.960784%);stroke-opacity:1;stroke-miterlimit:2.613;" d="M 100.755657 96.29488 L 98.142153 99.485458 L 89.396533 92.301854 L 92.008905 89.111276 Z M 100.755657 96.29488" transform="matrix(3.452621,0,0,3.456221,0,0)"></path>
  </g>
</svg>