<?xml version="1.0" encoding="UTF-8" standalone="yes"?>
<svg xmlns:svg="http://www.w3.org/2000/svg" xmlns="http://www.w3.org/2000/svg" width="400px" height="400px" viewBox="0 0 609 609" version="1.1">
  <g transform="translate(-85.219,-234.12)" style="fill-opacity:1; fill-rule:nonzero; stroke:none;">
    <path style="fill:#008855;" d="M 691.13,234.63 85.714,235.12 85.714,842.02 691.13,842.02 z"></path>
    <path style="fill:#ffffff;" d="M 435.96,290.29 435.47,325.27 C 334.98,289.31 199.51,359.26 197.54,498.17 L 252.71,497.68 C 250.74,410 342.36,341.03 435.96,383.89 L 435.96,468.13 C 482.92,503.76 478.65,595.06 436.45,626.75 L 436.45,786.84 C 436.45,786.84 184.24,788.32 184.73,788.32 185.22,788.32 184.24,290.29 184.24,290.29 z"></path>
    <path style="fill:#008855;" d="M 412.32,463.2 C 343.68,488.65 360.26,621 411.82,631.18 L 307.39,630.69 C 253.2,619.03 242.86,484.71 308.87,462.71 z"></path>
    <path style="fill:#ffffff;" d="M 435.47,324.78 435.96,383.89 C 480.79,407.21 497.04,439.88 504.93,480.44 L 471.92,480.93 531.03,548.42 591.13,481.92 560.1,480.44 C 557.64,431.18 514.78,348.91 435.47,324.78 z"></path>
  </g>
</svg>