<?xml version="1.0" encoding="UTF-8" standalone="yes"?>
<svg xmlns="http://www.w3.org/2000/svg" xmlns:xlink="http://www.w3.org/1999/xlink" width="685pt" height="600pt" viewBox="0 0 685 600" version="1.1">
  <g id="surface1">
    <path style="fill-rule:evenodd;fill:rgb(0.784314%,1.960784%,1.960784%);fill-opacity:1;stroke-width:0.127844;stroke-linecap:butt;stroke-linejoin:miter;stroke:rgb(0.784314%,1.960784%,1.960784%);stroke-opacity:1;stroke-miterlimit:2.613;" d="M 197.46208 164.743687 L 104.122664 2.938542 L 103.544526 2.076193 L 102.826095 1.430844 L 102.036387 0.853307 L 101.099599 0.423828 L 100.165073 0.134495 L 99.158139 0.0644219 L 98.153467 0.134495 L 97.146533 0.423828 L 96.283285 0.853307 L 95.420036 1.430844 L 94.77062 2.076193 L 94.197007 2.938542 L 0.857591 164.743687 L 0.423139 165.67724 L 0.134635 166.610792 L 0.0644891 167.618937 L 0.134635 168.627083 L 0.423139 169.630708 L 0.857591 170.494188 L 1.431204 171.356536 L 2.076095 172.005276 L 2.939343 172.579422 L 3.802591 173.013422 L 4.810657 173.302755 L 5.817591 173.372828 L 192.50208 173.372828 L 193.509015 173.302755 L 194.442409 173.013422 L 195.376934 172.579422 L 196.170036 172.005276 L 196.888467 171.356536 L 197.46208 170.494188 L 197.896533 169.630708 L 198.181642 168.627083 L 198.255182 167.618937 L 198.181642 166.610792 L 197.896533 165.67724 Z M 197.46208 164.743687" transform="matrix(3.452621,0,0,3.456221,0,0)"></path>
    <path style="fill-rule:evenodd;fill:rgb(92.156863%,74.901961%,16.862745%);fill-opacity:1;stroke-width:0.127844;stroke-linecap:butt;stroke-linejoin:miter;stroke:rgb(0.784314%,1.960784%,1.960784%);stroke-opacity:1;stroke-miterlimit:2.613;" d="M 99.158139 18.110458 L 181.856861 161.505641 L 16.458285 161.505641 Z M 99.158139 18.110458" transform="matrix(3.452621,0,0,3.456221,0,0)"></path>
    <path style="fill-rule:evenodd;fill:rgb(0.784314%,1.960784%,1.960784%);fill-opacity:1;stroke-width:0.027966;stroke-linecap:butt;stroke-linejoin:miter;stroke:rgb(0.784314%,1.960784%,1.960784%);stroke-opacity:1;stroke-miterlimit:2.613;" d="M 105.544818 89.873036 L 104.458686 87.805885 L 103.259416 85.774901 L 101.99 83.81738 L 100.610839 81.892635 L 99.087993 80.114818 L 97.45427 78.411594 L 96.583102 77.649833 L 95.676861 76.923109 L 94.69708 76.235943 L 93.716168 75.618849 L 92.665109 75.075219 L 91.610657 74.567755 L 90.489453 74.165401 L 89.36146 73.841031 L 88.200657 73.622901 L 87.040985 73.443198 L 85.880182 73.368604 L 84.715985 73.368604 L 83.521241 73.478234 L 82.357044 73.622901 L 81.235839 73.841031 L 80.071642 74.165401 L 77.860912 74.931682 L 75.720328 75.873146 L 78.622336 70.865193 L 79.748066 70.505786 L 80.907737 70.211932 L 82.067409 69.997193 L 83.266679 69.814099 L 84.462555 69.739505 L 85.661825 69.739505 L 86.856569 69.814099 L 88.055839 69.958766 L 90.376314 70.431193 L 91.540511 70.723917 L 92.701314 71.083323 L 93.790839 71.520714 L 94.876971 72.029307 L 95.89635 72.64188 L 96.872737 73.333568 L 97.817445 74.095328 L 98.650146 74.931682 L 99.486241 75.798552 L 100.247664 76.743406 L 100.938942 77.68487 L 101.591752 78.700927 L 102.208358 79.752021 L 102.751423 80.806505 L 103.732336 82.982156 L 104.563905 85.232401 L 105.181642 87.517682 L 105.435073 88.712312 L 105.544818 89.29437 Z M 105.544818 89.873036" transform="matrix(3.452621,0,0,3.456221,0,0)"></path>
    <path style="fill-rule:evenodd;fill:rgb(0.784314%,1.960784%,1.960784%);fill-opacity:1;stroke-width:0.027966;stroke-linecap:butt;stroke-linejoin:miter;stroke:rgb(0.784314%,1.960784%,1.960784%);stroke-opacity:1;stroke-miterlimit:2.613;" d="M 98.868504 100.391885 L 98.833431 99.704719 L 98.723686 99.013031 L 98.395584 97.673734 L 97.997336 96.364953 L 97.489343 95.095729 L 96.947409 93.864932 L 96.294599 92.630745 L 95.568248 91.470021 L 94.767226 90.345464 L 93.900584 89.29437 L 92.954745 88.314479 L 91.938759 87.408052 L 90.849234 86.571698 L 89.689562 85.844974 L 88.455219 85.232401 L 87.184672 84.68538 L 85.915255 84.25138 L 85.223978 84.106714 L 84.572299 83.997083 L 83.193139 83.92362 L 81.813978 83.997083 L 80.474416 84.176786 L 79.130328 84.505677 L 77.822445 84.938547 L 76.551898 85.447141 L 75.32208 86.029198 L 74.12281 86.681328 L 72.926934 87.368495 L 70.638139 88.896536 L 68.427409 90.49013 L 66.286825 92.193354 L 73.216569 80.224448 L 75.865146 78.735964 L 77.208102 78.083833 L 78.622336 77.46674 L 80.071642 76.962667 L 81.525474 76.525276 L 83.013248 76.235943 L 84.537226 76.052849 L 86.060073 76.016682 L 87.584051 76.161349 L 89.071825 76.49024 L 90.489453 76.962667 L 91.903686 77.614797 L 93.208175 78.376557 L 94.442518 79.282984 L 95.603321 80.259484 L 96.692847 81.313969 L 97.708832 82.438526 L 98.685219 83.634286 L 99.594854 84.830047 L 100.430949 86.099271 L 101.26365 87.408052 L 102.025073 88.712312 L 102.751423 90.05613 L 103.079526 90.743297 L 103.334088 91.434984 L 103.512847 92.193354 L 103.587518 92.955115 L 103.54792 93.720266 L 103.442701 94.482026 L 103.224343 95.204229 L 102.931314 95.895917 L 102.571533 96.583083 L 102.134818 97.236344 L 101.192372 98.395938 L 100.067774 99.450422 Z M 98.868504 100.391885" transform="matrix(3.452621,0,0,3.456221,0,0)"></path>
    <path style="fill-rule:evenodd;fill:rgb(0.784314%,1.960784%,1.960784%);fill-opacity:1;stroke-width:0.027966;stroke-linecap:butt;stroke-linejoin:miter;stroke:rgb(0.784314%,1.960784%,1.960784%);stroke-opacity:1;stroke-miterlimit:2.613;" d="M 90.524526 106.341302 L 91.793942 105.255172 L 92.919672 104.056021 L 93.899453 102.712203 L 94.298832 102.025036 L 94.662007 101.263276 L 94.985584 100.501516 L 95.17 99.704719 L 95.313686 98.868365 L 95.278613 98.033141 L 95.17 97.236344 L 94.950511 96.439547 L 94.662007 95.64162 L 94.298832 94.916026 L 93.49781 93.465969 L 92.626642 92.048687 L 91.650255 90.743297 L 90.489453 89.548667 L 89.872847 89.001646 L 89.216642 88.494182 L 88.528759 88.025146 L 87.802409 87.661219 L 87.040985 87.298422 L 86.278431 87.044125 L 85.47854 86.825995 L 84.645839 86.681328 L 83.809745 86.571698 L 83.013248 86.571698 L 82.177153 86.611255 L 81.341058 86.716365 L 79.748066 87.118719 L 78.18562 87.661219 L 76.701241 88.349516 L 75.247409 89.111276 L 73.833175 89.981536 L 72.455146 90.887964 L 69.766971 92.848875 L 67.193066 94.916026 L 64.689307 97.056641 L 62.22062 99.267328 L 53.07562 115.153536 L 57.719964 110.802234 L 62.438978 106.521005 L 64.832993 104.419948 L 67.30281 102.387833 L 69.802044 100.466479 L 72.455146 98.650234 L 73.794708 97.853437 L 75.212336 97.091677 L 76.626569 96.40338 L 78.114343 95.85749 L 79.673394 95.493562 L 80.474416 95.388453 L 81.270912 95.313859 L 82.067409 95.353417 L 82.829964 95.458526 L 83.629854 95.677786 L 84.35281 95.930953 L 85.079161 96.259844 L 85.771569 96.657677 L 86.423248 97.126714 L 87.005912 97.673734 L 87.547847 98.251271 L 88.055839 98.868365 L 88.490292 99.560052 L 88.853467 100.247219 L 89.509672 101.697276 L 89.978066 103.220797 L 90.341241 104.782745 Z M 90.524526 106.341302" transform="matrix(3.452621,0,0,3.456221,0,0)"></path>
    <path style="fill-rule:evenodd;fill:rgb(0.784314%,1.960784%,1.960784%);fill-opacity:1;stroke-width:0.027966;stroke-linecap:butt;stroke-linejoin:miter;stroke:rgb(0.784314%,1.960784%,1.960784%);stroke-opacity:1;stroke-miterlimit:2.613;" d="M 83.630985 110.946901 L 84.357336 110.404401 L 85.044088 109.751141 L 85.626752 109.060583 L 86.134745 108.263786 L 86.568066 107.465859 L 86.896168 106.595599 L 87.114526 105.689172 L 87.184672 104.743188 L 87.076058 103.837891 L 86.856569 102.931464 L 86.532993 102.060073 L 86.095146 101.263276 L 85.626752 100.466479 L 85.079161 99.704719 L 84.427482 99.052589 L 83.666058 98.543995 L 82.829964 98.181198 L 81.923723 97.998104 L 80.982409 97.961938 L 80.071642 98.071568 L 79.165401 98.290828 L 78.294234 98.580161 L 76.626569 99.305755 L 74.993978 100.212182 L 73.431533 101.153646 L 71.907555 102.20474 L 70.419781 103.29426 L 67.516642 105.614578 L 64.72438 108.00949 L 61.966058 110.439437 L 59.243942 112.942849 L 53.837044 117.985839 L 51.188467 120.560453 L 48.505949 123.063865 L 31.849672 151.935036 L 40.26719 151.935036 L 40.92 149.939089 L 41.684818 147.946531 L 42.517518 145.98562 L 43.423759 144.064266 L 45.384453 140.2905 L 47.525036 136.626365 L 49.810438 133.036823 L 52.204453 129.555781 L 54.708212 126.110906 L 57.361314 122.806177 L 60.118504 119.579432 L 63.056715 116.497354 L 64.544489 115.00887 L 66.10354 113.559943 L 67.736131 112.181089 L 69.403796 110.837271 L 71.146131 109.642641 L 72.962007 108.55199 L 73.903321 108.084083 L 74.884234 107.645562 L 75.865146 107.282766 L 76.915073 107.068026 L 77.970657 106.919969 L 79.020584 106.993432 L 80.071642 107.247729 L 81.052555 107.680599 L 81.958796 108.298823 L 82.360438 108.66162 L 82.685146 109.060583 L 82.97365 109.497974 L 83.231606 109.96588 Z M 83.630985 110.946901" transform="matrix(3.452621,0,0,3.456221,0,0)"></path>
    <path style="fill-rule:evenodd;fill:rgb(0.784314%,1.960784%,1.960784%);fill-opacity:1;stroke-width:0.027966;stroke-linecap:butt;stroke-linejoin:miter;stroke:rgb(0.784314%,1.960784%,1.960784%);stroke-opacity:1;stroke-miterlimit:2.613;" d="M 156.673321 145.115359 L 154.930985 145.258896 L 153.223723 145.513193 L 151.520985 145.87599 L 149.813723 146.31451 L 148.146058 146.821974 L 146.513467 147.364474 L 143.247153 148.560234 L 139.981971 149.794422 L 136.67719 150.955146 L 135.044599 151.497646 L 134.213029 151.716906 L 133.44708 151.860443 L 132.649453 151.9 L 131.814489 151.935036 L 42.989307 151.935036 L 43.571971 150.266849 L 44.22365 148.598661 L 44.951131 146.966641 L 45.672956 145.368526 L 47.310073 142.216375 L 49.084088 139.130906 L 50.935036 136.118901 L 52.89573 133.146453 L 54.962774 130.244078 L 57.103358 127.415167 L 59.317482 124.622422 L 61.602883 121.939307 L 64.036496 119.290099 L 66.540255 116.786687 L 67.844745 115.590927 L 69.150365 114.391776 L 70.528394 113.306776 L 71.982226 112.216125 L 73.47 111.274661 L 75.029051 110.439437 L 75.865146 110.07551 L 76.701241 109.825734 L 77.567883 109.642641 L 78.439051 109.568047 L 76.626569 110.911865 L 74.849161 112.325755 L 73.216569 113.849276 L 72.415547 114.646073 L 71.692591 115.517464 L 71.001314 116.387724 L 70.384708 117.329188 L 69.802044 118.310208 L 69.33365 119.326266 L 68.935401 120.376229 L 68.607299 121.46688 L 68.427409 122.591437 L 68.38781 123.715995 L 68.427409 124.841682 L 68.642372 125.927813 L 68.935401 127.017333 L 69.33365 128.068427 L 69.841642 129.083354 L 70.419781 130.064375 L 71.040912 130.970802 L 71.762737 131.876099 L 72.490219 132.712453 L 73.286715 133.50925 L 74.993978 134.997734 L 76.80646 136.337031 L 78.692482 137.572349 L 80.654307 138.696906 L 82.650073 139.712964 L 84.715985 140.654427 L 86.786423 141.489651 L 88.891934 142.251411 L 91.032518 142.974745 L 93.208175 143.591839 L 95.383832 144.134339 L 97.599088 144.606766 L 99.814343 145.005729 L 102.060146 145.33349 L 104.275401 145.55275 L 106.524599 145.66125 L 108.774927 145.622823 L 111.025255 145.44312 L 112.149854 145.258896 L 113.23938 145.044156 L 114.365109 145.87599 L 115.559854 146.63775 L 116.794197 147.29101 L 118.098686 147.873068 L 119.407701 148.345495 L 120.747263 148.743328 L 122.126423 149.032661 L 123.505584 149.286958 L 124.923212 149.431625 L 126.302372 149.540125 L 127.716606 149.576292 L 129.130839 149.540125 L 131.927628 149.325385 L 134.684818 148.923031 L 137.438613 148.380531 L 140.161861 147.618771 L 142.810438 146.74738 L 145.532555 146.060214 L 148.290876 145.478156 L 149.670036 145.258896 L 151.083139 145.079193 L 152.462299 145.005729 L 153.876533 145.005729 Z M 156.673321 145.115359" transform="matrix(3.452621,0,0,3.456221,0,0)"></path>
    <path style="fill-rule:evenodd;fill:rgb(0.784314%,1.960784%,1.960784%);fill-opacity:1;stroke-width:0.027966;stroke-linecap:butt;stroke-linejoin:miter;stroke:rgb(0.784314%,1.960784%,1.960784%);stroke-opacity:1;stroke-miterlimit:2.613;" d="M 166.47 151.935036 L 139.290693 151.935036 L 142.192701 150.700849 L 145.095839 149.540125 L 148.036314 148.415568 L 149.525219 147.908104 L 151.048066 147.544177 L 154.169562 147.219807 L 157.291058 147.036714 L 163.567993 146.931604 Z M 166.47 151.935036" transform="matrix(3.452621,0,0,3.456221,0,0)"></path>
    <path style="fill-rule:evenodd;fill:rgb(0.784314%,1.960784%,1.960784%);fill-opacity:1;stroke-width:0.027966;stroke-linecap:butt;stroke-linejoin:miter;stroke:rgb(0.784314%,1.960784%,1.960784%);stroke-opacity:1;stroke-miterlimit:2.613;" d="M 156.673321 145.115359 L 155.657336 144.208932 L 154.532737 143.412135 L 153.258796 142.795042 L 151.954307 142.396078 L 150.61135 142.141781 L 149.23219 142.068318 L 147.853029 142.141781 L 146.473869 142.321484 L 143.755146 142.795042 L 141.068102 143.412135 L 138.384453 143.954635 L 135.626131 144.388635 L 134.283175 144.536693 L 132.904015 144.646323 L 131.524854 144.681359 L 130.145693 144.646323 L 128.771058 144.536693 L 127.388504 144.353599 L 124.669781 143.809969 L 123.360766 143.447172 L 122.021204 143.048208 L 120.747263 142.575781 L 119.477847 142.033281 L 118.243504 141.380021 L 117.083832 140.654427 L 115.997701 139.783036 L 114.981715 138.841573 L 114.180693 139.239406 L 113.34573 139.493703 L 112.477956 139.712964 L 111.606788 139.892667 L 109.825985 140.110797 L 108.048577 140.18087 L 106.306241 140.145833 L 104.528832 140.036203 L 102.751423 139.8565 L 101.009088 139.63837 L 99.266752 139.310609 L 97.524416 138.951203 L 95.783212 138.512682 L 94.079343 138.044776 L 92.411679 137.497755 L 90.739489 136.880661 L 89.106898 136.228531 L 87.474307 135.505198 L 85.915255 134.669974 L 84.35281 133.798583 L 82.868431 132.817563 L 81.450803 131.767599 L 80.111241 130.606875 L 78.911971 129.337651 L 77.786241 127.92376 L 77.317847 127.197036 L 76.88 126.40024 L 76.516825 125.603443 L 76.193248 124.767089 L 75.938686 123.930734 L 75.755401 123.063865 L 75.610584 122.192474 L 75.575511 121.287177 L 75.610584 120.415786 L 75.68073 119.544396 L 75.830073 118.637969 L 76.045036 117.802745 L 76.591496 116.099521 L 77.35292 114.501406 L 78.224088 112.977885 L 76.661642 114.212073 L 75.173869 115.590927 L 73.794708 117.040984 L 73.176971 117.837781 L 72.633905 118.673005 L 72.127044 119.544396 L 71.692591 120.450823 L 71.364489 121.430714 L 71.146131 122.407214 L 71.040912 123.388234 L 71.040912 124.404292 L 71.184599 125.384182 L 71.474234 126.360682 L 71.837409 127.306667 L 72.305803 128.176927 L 72.853394 129.048318 L 73.47 129.845115 L 74.12281 130.606875 L 74.814088 131.333599 L 76.336934 132.672896 L 77.931058 133.908214 L 79.603248 134.997734 L 81.341058 136.012661 L 83.122993 136.954125 L 84.935474 137.825516 L 86.786423 138.587276 L 88.673577 139.310609 L 90.559599 139.96613 L 92.481825 140.579833 L 94.442518 141.126854 L 96.399818 141.59476 L 98.360511 142.033281 L 100.322336 142.361042 L 102.318102 142.650375 L 104.313869 142.868505 L 106.344708 142.973615 L 108.341606 143.013172 L 110.372445 142.868505 L 111.348832 142.758875 L 112.329745 142.575781 L 113.310657 142.286448 L 114.255365 141.962078 L 114.580073 142.575781 L 114.943248 143.157839 L 115.451241 143.665302 L 115.997701 144.099302 L 117.192445 144.826026 L 118.462993 145.44312 L 119.805949 145.915547 L 121.150036 146.31451 L 122.489599 146.673917 L 123.868759 146.966641 L 126.62708 147.439068 L 128.040182 147.544177 L 129.458942 147.544177 L 130.836971 147.439068 L 132.251204 147.255974 L 135.009526 146.786937 L 137.766715 146.169844 L 140.489964 145.513193 L 145.930803 144.208932 L 148.724197 143.700339 L 150.103358 143.517245 L 151.520985 143.412135 L 152.900146 143.447172 L 153.623102 143.517245 L 154.279307 143.700339 L 154.966058 143.919599 L 155.583796 144.247359 L 156.161934 144.646323 Z M 156.673321 145.115359" transform="matrix(3.452621,0,0,3.456221,0,0)"></path>
    <path style="fill-rule:evenodd;fill:rgb(0.784314%,1.960784%,1.960784%);fill-opacity:1;stroke-width:0.027966;stroke-linecap:butt;stroke-linejoin:miter;stroke:rgb(0.784314%,1.960784%,1.960784%);stroke-opacity:1;stroke-miterlimit:2.613;" d="M 137.841387 140.07576 L 136.822007 136.735995 L 128.259672 139.384073 L 129.314124 142.758875 Z M 137.841387 140.07576" transform="matrix(3.452621,0,0,3.456221,0,0)"></path>
    <path style="fill-rule:evenodd;fill:rgb(0.784314%,1.960784%,1.960784%);fill-opacity:1;stroke-width:0.027966;stroke-linecap:butt;stroke-linejoin:miter;stroke:rgb(0.784314%,1.960784%,1.960784%);stroke-opacity:1;stroke-miterlimit:2.613;" d="M 126.372518 128.46626 L 123.833686 130.896208 L 117.665365 124.404292 L 120.204197 121.974344 Z M 126.372518 128.46626" transform="matrix(3.452621,0,0,3.456221,0,0)"></path>
    <path style="fill-rule:evenodd;fill:rgb(0.784314%,1.960784%,1.960784%);fill-opacity:1;stroke-width:0.027966;stroke-linecap:butt;stroke-linejoin:miter;stroke:rgb(0.784314%,1.960784%,1.960784%);stroke-opacity:1;stroke-miterlimit:2.613;" d="M 126.775292 118.493302 L 127.934964 121.79012 L 119.517445 124.841682 L 118.318175 121.540344 Z M 126.775292 118.493302" transform="matrix(3.452621,0,0,3.456221,0,0)"></path>
    <path style="fill-rule:evenodd;fill:rgb(0.784314%,1.960784%,1.960784%);fill-opacity:1;stroke-width:0.027966;stroke-linecap:butt;stroke-linejoin:miter;stroke:rgb(0.784314%,1.960784%,1.960784%);stroke-opacity:1;stroke-miterlimit:2.613;" d="M 111.86135 113.993943 L 110.73562 117.946281 L 99.849416 114.865333 L 100.974015 110.876828 Z M 111.86135 113.993943" transform="matrix(3.452621,0,0,3.456221,0,0)"></path>
    <path style="fill-rule:evenodd;fill:rgb(0.784314%,1.960784%,1.960784%);fill-opacity:1;stroke-width:0.027966;stroke-linecap:butt;stroke-linejoin:miter;stroke:rgb(0.784314%,1.960784%,1.960784%);stroke-opacity:1;stroke-miterlimit:2.613;" d="M 111.712007 130.172875 L 108.302007 132.493193 L 101.954927 123.098901 L 105.364927 120.81362 Z M 111.712007 130.172875" transform="matrix(3.452621,0,0,3.456221,0,0)"></path>
    <path style="fill-rule:evenodd;fill:rgb(0.784314%,1.960784%,1.960784%);fill-opacity:1;stroke-width:0.027966;stroke-linecap:butt;stroke-linejoin:miter;stroke:rgb(0.784314%,1.960784%,1.960784%);stroke-opacity:1;stroke-miterlimit:2.613;" d="M 139.07573 138.404182 L 139.001058 137.860552 L 138.747628 137.388125 L 138.34938 136.990292 L 137.87646 136.735995 L 137.333394 136.665922 L 136.786934 136.735995 L 136.317409 136.990292 L 135.915766 137.388125 L 135.661204 137.860552 L 135.591058 138.404182 L 135.661204 138.951203 L 135.915766 139.458667 L 136.317409 139.821464 L 136.786934 140.07576 L 137.333394 140.18087 L 137.87646 140.07576 L 138.34938 139.821464 L 138.747628 139.458667 L 139.001058 138.951203 Z M 139.07573 138.404182" transform="matrix(3.452621,0,0,3.456221,0,0)"></path>
    <path style="fill-rule:evenodd;fill:rgb(0.784314%,1.960784%,1.960784%);fill-opacity:1;stroke-width:0.027966;stroke-linecap:butt;stroke-linejoin:miter;stroke:rgb(0.784314%,1.960784%,1.960784%);stroke-opacity:1;stroke-miterlimit:2.613;" d="M 130.543942 141.05226 L 130.438723 140.544797 L 130.185292 140.036203 L 129.822117 139.63837 L 129.314124 139.42363 L 128.771058 139.310609 L 128.224599 139.42363 L 127.751679 139.63837 L 127.353431 140.036203 L 127.098869 140.544797 L 127.025328 141.05226 L 127.098869 141.59476 L 127.353431 142.103354 L 127.751679 142.466151 L 128.224599 142.720448 L 128.771058 142.830078 L 129.314124 142.720448 L 129.822117 142.466151 L 130.185292 142.103354 L 130.438723 141.59476 Z M 130.543942 141.05226" transform="matrix(3.452621,0,0,3.456221,0,0)"></path>
    <path style="fill-rule:evenodd;fill:rgb(0.784314%,1.960784%,1.960784%);fill-opacity:1;stroke-width:0.027966;stroke-linecap:butt;stroke-linejoin:miter;stroke:rgb(0.784314%,1.960784%,1.960784%);stroke-opacity:1;stroke-miterlimit:2.613;" d="M 120.677117 123.205141 L 120.603577 122.66151 L 120.349015 122.157438 L 119.950766 121.79012 L 119.477847 121.536953 L 118.934781 121.430714 L 118.391715 121.536953 L 117.884854 121.79012 L 117.520547 122.157438 L 117.267117 122.66151 L 117.192445 123.205141 L 117.267117 123.751031 L 117.520547 124.224589 L 117.884854 124.622422 L 118.391715 124.876719 L 118.934781 124.946792 L 119.477847 124.876719 L 119.950766 124.622422 L 120.349015 124.224589 L 120.603577 123.751031 Z M 120.677117 123.205141" transform="matrix(3.452621,0,0,3.456221,0,0)"></path>
    <path style="fill-rule:evenodd;fill:rgb(0.784314%,1.960784%,1.960784%);fill-opacity:1;stroke-width:0.027966;stroke-linecap:butt;stroke-linejoin:miter;stroke:rgb(0.784314%,1.960784%,1.960784%);stroke-opacity:1;stroke-miterlimit:2.613;" d="M 129.095766 120.16149 L 129.024489 119.61899 L 128.771058 119.107005 L 128.368285 118.747599 L 127.896496 118.493302 L 127.353431 118.419839 L 126.810365 118.493302 L 126.337445 118.747599 L 125.939197 119.107005 L 125.684635 119.61899 L 125.611095 120.16149 L 125.684635 120.70512 L 125.939197 121.177547 L 126.337445 121.57538 L 126.810365 121.829677 L 127.353431 121.904271 L 127.896496 121.829677 L 128.368285 121.57538 L 128.771058 121.177547 L 129.024489 120.70512 Z M 129.095766 120.16149" transform="matrix(3.452621,0,0,3.456221,0,0)"></path>
    <path style="fill-rule:evenodd;fill:rgb(0.784314%,1.960784%,1.960784%);fill-opacity:1;stroke-width:0.027966;stroke-linecap:butt;stroke-linejoin:miter;stroke:rgb(0.784314%,1.960784%,1.960784%);stroke-opacity:1;stroke-miterlimit:2.613;" d="M 126.372518 133.146453 L 126.262774 132.602823 L 126.048942 132.095359 L 125.649562 131.732563 L 125.138175 131.478266 L 124.634708 131.403672 L 124.087117 131.478266 L 123.579124 131.732563 L 123.215949 132.095359 L 122.962518 132.602823 L 122.852774 133.146453 L 122.962518 133.688953 L 123.215949 134.16138 L 123.579124 134.560344 L 124.087117 134.81351 L 124.634708 134.888104 L 125.138175 134.81351 L 125.649562 134.560344 L 126.048942 134.16138 L 126.262774 133.688953 Z M 126.372518 133.146453" transform="matrix(3.452621,0,0,3.456221,0,0)"></path>
    <path style="fill-rule:evenodd;fill:rgb(0.784314%,1.960784%,1.960784%);fill-opacity:1;stroke-width:0.027966;stroke-linecap:butt;stroke-linejoin:miter;stroke:rgb(0.784314%,1.960784%,1.960784%);stroke-opacity:1;stroke-miterlimit:2.613;" d="M 126.880511 129.665411 L 126.775292 129.118391 L 126.52073 128.650484 L 126.154161 128.24813 L 125.649562 127.997224 L 125.103102 127.92376 L 124.560036 127.997224 L 124.087117 128.24813 L 123.688869 128.650484 L 123.435438 129.118391 L 123.360766 129.665411 L 123.435438 130.209042 L 123.688869 130.716505 L 124.087117 131.079302 L 124.560036 131.333599 L 125.103102 131.438708 L 125.649562 131.333599 L 126.154161 131.079302 L 126.52073 130.716505 L 126.775292 130.209042 Z M 126.880511 129.665411" transform="matrix(3.452621,0,0,3.456221,0,0)"></path>
    <path style="fill-rule:evenodd;fill:rgb(0.784314%,1.960784%,1.960784%);fill-opacity:1;stroke-width:0.027966;stroke-linecap:butt;stroke-linejoin:miter;stroke:rgb(0.784314%,1.960784%,1.960784%);stroke-opacity:1;stroke-miterlimit:2.613;" d="M 102.896241 120.051859 L 92.376606 124.189552 L 93.860985 127.997224 L 104.419088 123.860661 Z M 102.896241 120.051859" transform="matrix(3.452621,0,0,3.456221,0,0)"></path>
    <path style="fill-rule:evenodd;fill:rgb(0.784314%,1.960784%,1.960784%);fill-opacity:1;stroke-width:0.027966;stroke-linecap:butt;stroke-linejoin:miter;stroke:rgb(0.784314%,1.960784%,1.960784%);stroke-opacity:1;stroke-miterlimit:2.613;" d="M 108.521496 127.126964 L 112.657847 127.38013 L 113.384197 116.099521 L 109.247847 115.845224 Z M 108.521496 127.126964" transform="matrix(3.452621,0,0,3.456221,0,0)"></path>
    <path style="fill-rule:evenodd;fill:rgb(0.784314%,1.960784%,1.960784%);fill-opacity:1;stroke-width:0.027966;stroke-linecap:butt;stroke-linejoin:miter;stroke:rgb(0.784314%,1.960784%,1.960784%);stroke-opacity:1;stroke-miterlimit:2.613;" d="M 105.728102 121.939307 L 105.618358 121.322214 L 105.329854 120.740156 L 104.856934 120.306156 L 104.313869 119.978396 L 103.657664 119.908323 L 103.044453 119.978396 L 102.46292 120.306156 L 101.99 120.740156 L 101.700365 121.322214 L 101.591752 121.939307 L 101.700365 122.591437 L 101.99 123.168974 L 102.46292 123.607495 L 103.044453 123.895698 L 103.657664 124.005328 L 104.313869 123.895698 L 104.856934 123.607495 L 105.329854 123.168974 L 105.618358 122.591437 Z M 105.728102 121.939307" transform="matrix(3.452621,0,0,3.456221,0,0)"></path>
    <path style="fill-rule:evenodd;fill:rgb(0.784314%,1.960784%,1.960784%);fill-opacity:1;stroke-width:0.027966;stroke-linecap:butt;stroke-linejoin:miter;stroke:rgb(0.784314%,1.960784%,1.960784%);stroke-opacity:1;stroke-miterlimit:2.613;" d="M 113.384197 115.954854 L 113.274453 115.33776 L 112.985949 114.755703 L 112.513029 114.286667 L 111.966569 113.993943 L 111.313759 113.884312 L 110.66208 113.993943 L 110.119015 114.286667 L 109.646095 114.755703 L 109.35646 115.33776 L 109.247847 115.954854 L 109.35646 116.606984 L 109.646095 117.185651 L 110.119015 117.623042 L 110.66208 117.911245 L 111.313759 118.020875 L 111.966569 117.911245 L 112.513029 117.623042 L 112.985949 117.185651 L 113.274453 116.606984 Z M 113.384197 115.954854" transform="matrix(3.452621,0,0,3.456221,0,0)"></path>
    <path style="fill-rule:evenodd;fill:rgb(0.784314%,1.960784%,1.960784%);fill-opacity:1;stroke-width:0.027966;stroke-linecap:butt;stroke-linejoin:miter;stroke:rgb(0.784314%,1.960784%,1.960784%);stroke-opacity:1;stroke-miterlimit:2.613;" d="M 112.657847 127.2705 L 112.548102 126.61837 L 112.259599 126.036312 L 111.786679 125.603443 L 111.243613 125.309589 L 110.591934 125.201089 L 109.934599 125.309589 L 109.392664 125.603443 L 108.919745 126.036312 L 108.630109 126.61837 L 108.521496 127.2705 L 108.630109 127.888724 L 108.919745 128.46626 L 109.392664 128.938687 L 109.934599 129.228021 L 110.591934 129.337651 L 111.243613 129.228021 L 111.786679 128.938687 L 112.259599 128.46626 L 112.548102 127.888724 Z M 112.657847 127.2705" transform="matrix(3.452621,0,0,3.456221,0,0)"></path>
    <path style="fill-rule:evenodd;fill:rgb(0.784314%,1.960784%,1.960784%);fill-opacity:1;stroke-width:0.027966;stroke-linecap:butt;stroke-linejoin:miter;stroke:rgb(0.784314%,1.960784%,1.960784%);stroke-opacity:1;stroke-miterlimit:2.613;" d="M 112.079708 131.333599 L 111.966569 130.716505 L 111.676934 130.134448 L 111.20854 129.665411 L 110.627007 129.372688 L 110.00927 129.263057 L 109.35646 129.372688 L 108.774927 129.665411 L 108.341606 130.134448 L 108.048577 130.716505 L 107.938832 131.333599 L 108.048577 131.985729 L 108.341606 132.564396 L 108.774927 133.001786 L 109.35646 133.29112 L 110.00927 133.39962 L 110.627007 133.29112 L 111.20854 133.001786 L 111.676934 132.564396 L 111.966569 131.985729 Z M 112.079708 131.333599" transform="matrix(3.452621,0,0,3.456221,0,0)"></path>
    <path style="fill-rule:evenodd;fill:rgb(0.784314%,1.960784%,1.960784%);fill-opacity:1;stroke-width:0.027966;stroke-linecap:butt;stroke-linejoin:miter;stroke:rgb(0.784314%,1.960784%,1.960784%);stroke-opacity:1;stroke-miterlimit:2.613;" d="M 95.17 126.110906 L 95.095328 125.454255 L 94.805693 124.876719 L 94.333905 124.442719 L 93.751241 124.149995 L 93.134635 124.040365 L 92.481825 124.149995 L 91.903686 124.442719 L 91.465839 124.876719 L 91.177336 125.454255 L 91.067591 126.110906 L 91.177336 126.728 L 91.465839 127.306667 L 91.903686 127.779094 L 92.481825 128.068427 L 93.134635 128.141891 L 93.751241 128.068427 L 94.333905 127.779094 L 94.805693 127.306667 L 95.095328 126.728 Z M 95.17 126.110906" transform="matrix(3.452621,0,0,3.456221,0,0)"></path>
    <path style="fill-rule:evenodd;fill:rgb(0.784314%,1.960784%,1.960784%);fill-opacity:1;stroke-width:0.027966;stroke-linecap:butt;stroke-linejoin:miter;stroke:rgb(0.784314%,1.960784%,1.960784%);stroke-opacity:1;stroke-miterlimit:2.613;" d="M 102.46292 112.868255 L 102.388248 112.216125 L 102.099745 111.673625 L 101.626825 111.201198 L 101.048686 110.911865 L 100.430949 110.802234 L 99.774745 110.911865 L 99.196606 111.201198 L 98.759891 111.673625 L 98.470255 112.216125 L 98.360511 112.868255 L 98.470255 113.524906 L 98.759891 114.067406 L 99.196606 114.540964 L 99.774745 114.829167 L 100.430949 114.938797 L 101.048686 114.829167 L 101.626825 114.540964 L 102.099745 114.067406 L 102.388248 113.524906 Z M 102.46292 112.868255" transform="matrix(3.452621,0,0,3.456221,0,0)"></path>
    <path style="fill-rule:evenodd;fill:rgb(0.784314%,1.960784%,1.960784%);fill-opacity:1;stroke-width:0.027966;stroke-linecap:butt;stroke-linejoin:miter;stroke:rgb(0.784314%,1.960784%,1.960784%);stroke-opacity:1;stroke-miterlimit:2.613;" d="M 134.790036 132.349656 L 134.684818 131.587896 L 134.431387 130.861172 L 134.028613 130.244078 L 133.52062 129.700448 L 132.868942 129.302615 L 132.142591 129.048318 L 131.380036 128.938687 L 130.618613 129.048318 L 129.93073 129.302615 L 129.274526 129.700448 L 128.73146 130.244078 L 128.333212 130.861172 L 128.079781 131.587896 L 128.005109 132.349656 L 128.079781 133.111417 L 128.333212 133.83701 L 128.73146 134.450714 L 129.274526 134.997734 L 129.93073 135.395568 L 130.618613 135.649865 L 131.380036 135.759495 L 132.142591 135.649865 L 132.868942 135.395568 L 133.52062 134.997734 L 134.028613 134.450714 L 134.431387 133.83701 L 134.684818 133.111417 Z M 134.790036 132.349656" transform="matrix(3.452621,0,0,3.456221,0,0)"></path>
    <path style="fill-rule:evenodd;fill:rgb(0.784314%,1.960784%,1.960784%);fill-opacity:1;stroke-width:0.027966;stroke-linecap:butt;stroke-linejoin:miter;stroke:rgb(0.784314%,1.960784%,1.960784%);stroke-opacity:1;stroke-miterlimit:2.613;" d="M 126.845438 129.919708 L 123.723942 127.087406 L 110.880438 125.239516 L 109.720766 133.364583 L 124.560036 135.540234 L 126.337445 133.39962 Z M 126.845438 129.919708" transform="matrix(3.452621,0,0,3.456221,0,0)"></path>
    <path style="fill-rule:evenodd;fill:rgb(0.784314%,1.960784%,1.960784%);fill-opacity:1;stroke-width:0.027966;stroke-linecap:butt;stroke-linejoin:miter;stroke:rgb(0.784314%,1.960784%,1.960784%);stroke-opacity:1;stroke-miterlimit:2.613;" d="M 130.330109 140.255464 L 127.243686 141.888615 L 123.072263 133.94325 L 126.154161 132.31349 Z M 130.330109 140.255464" transform="matrix(3.452621,0,0,3.456221,0,0)"></path>
  </g>
</svg>