<?xml version="1.0" encoding="UTF-8" standalone="yes"?>
<svg xmlns="http://www.w3.org/2000/svg" xmlns:xlink="http://www.w3.org/1999/xlink" width="685pt" height="600pt" viewBox="0 0 685 600" version="1.1">
  <g id="surface1">
    <path style="fill-rule:evenodd;fill:rgb(0.784314%,1.960784%,1.960784%);fill-opacity:1;stroke-width:0.127844;stroke-linecap:butt;stroke-linejoin:miter;stroke:rgb(0.784314%,1.960784%,1.960784%);stroke-opacity:1;stroke-miterlimit:2.613;" d="M 197.46208 164.743687 L 104.122664 2.938542 L 103.544526 2.076193 L 102.826095 1.430844 L 102.036387 0.853307 L 101.099599 0.423828 L 100.165073 0.134495 L 99.158139 0.0644219 L 98.153467 0.134495 L 97.146533 0.423828 L 96.283285 0.853307 L 95.420036 1.430844 L 94.77062 2.076193 L 94.197007 2.938542 L 0.857591 164.743687 L 0.423139 165.67724 L 0.134635 166.610792 L 0.0644891 167.618937 L 0.134635 168.627083 L 0.423139 169.630708 L 0.857591 170.494188 L 1.431204 171.356536 L 2.076095 172.005276 L 2.939343 172.579422 L 3.802591 173.013422 L 4.810657 173.302755 L 5.817591 173.372828 L 192.50208 173.372828 L 193.509015 173.302755 L 194.442409 173.013422 L 195.376934 172.579422 L 196.170036 172.005276 L 196.888467 171.356536 L 197.46208 170.494188 L 197.896533 169.630708 L 198.181642 168.627083 L 198.255182 167.618937 L 198.181642 166.610792 L 197.896533 165.67724 Z M 197.46208 164.743687" transform="matrix(3.452621,0,0,3.456221,0,0)"></path>
    <path style="fill-rule:evenodd;fill:rgb(92.156863%,74.901961%,16.862745%);fill-opacity:1;stroke-width:0.127844;stroke-linecap:butt;stroke-linejoin:miter;stroke:rgb(0.784314%,1.960784%,1.960784%);stroke-opacity:1;stroke-miterlimit:2.613;" d="M 99.158139 18.110458 L 181.856861 161.505641 L 16.458285 161.505641 Z M 99.158139 18.110458" transform="matrix(3.452621,0,0,3.456221,0,0)"></path>
    <path style="fill-rule:evenodd;fill:rgb(0.784314%,1.960784%,1.960784%);fill-opacity:1;stroke-width:0.027966;stroke-linecap:butt;stroke-linejoin:miter;stroke:rgb(0.784314%,1.960784%,1.960784%);stroke-opacity:1;stroke-miterlimit:2.613;" d="M 167.032299 152.938661 L 31.251168 152.938661 L 52.88781 115.419135 L 57.646423 115.454172 L 62.364307 115.563802 L 67.083321 115.748026 L 69.443394 115.927729 L 70.642664 115.997802 L 71.841934 115.962766 L 74.200876 115.857656 L 76.559818 115.783062 L 78.919891 115.892693 L 80.119161 115.997802 L 81.278832 116.180896 L 82.407956 116.509786 L 83.494088 116.982214 L 85.599599 118.033307 L 86.724197 118.466177 L 87.853321 118.830104 L 89.012993 119.118307 L 90.17719 119.337568 L 90.17719 128.372453 L 92.282701 128.372453 L 92.282701 102.790188 L 96.240292 100.943427 L 102.083905 100.943427 L 106.005292 102.790188 L 106.005292 128.372453 L 108.145876 128.372453 L 108.145876 119.482234 L 109.271606 119.227937 L 110.396204 118.868531 L 112.575255 118.033307 L 113.665912 117.595917 L 114.755438 117.23199 L 115.880036 116.942656 L 117.040839 116.724526 L 118.165438 116.544823 L 119.329635 116.435193 L 121.688577 116.36512 L 124.013577 116.435193 L 126.334051 116.36512 L 130.981788 116.072396 L 131.564453 115.962766 L 132.107518 115.818099 L 133.26719 115.598839 L 135.591058 115.275599 L 140.204854 114.767005 L 142.525328 114.513839 L 143.689526 114.439245 L 144.849197 114.478802 Z M 167.032299 152.938661" transform="matrix(3.452621,0,0,3.456221,0,0)"></path>
    <path style="fill-rule:evenodd;fill:rgb(0.784314%,1.960784%,1.960784%);fill-opacity:1;stroke-width:0.027966;stroke-linecap:butt;stroke-linejoin:miter;stroke:rgb(0.784314%,1.960784%,1.960784%);stroke-opacity:1;stroke-miterlimit:2.613;" d="M 104.806022 92.848875 L 104.697409 91.762745 L 104.368175 90.70826 L 103.861314 89.72837 L 103.138358 88.856979 L 102.302263 88.169813 L 101.32135 87.622792 L 100.266898 87.298422 L 99.142299 87.188792 L 98.052774 87.298422 L 97.001715 87.622792 L 96.020803 88.169813 L 95.149635 88.856979 L 94.458358 89.72837 L 93.915292 90.70826 L 93.58719 91.762745 L 93.478577 92.848875 L 93.58719 93.974563 L 93.915292 95.024526 L 94.458358 96.005547 L 95.149635 96.876937 L 96.020803 97.567495 L 97.001715 98.111125 L 98.052774 98.438885 L 99.142299 98.548516 L 100.266898 98.438885 L 101.32135 98.111125 L 102.302263 97.567495 L 103.138358 96.876937 L 103.861314 96.005547 L 104.368175 95.024526 L 104.697409 93.974563 Z M 104.806022 92.848875" transform="matrix(3.452621,0,0,3.456221,0,0)"></path>
    <path style="fill-rule:evenodd;fill:rgb(0.784314%,1.960784%,1.960784%);fill-opacity:1;stroke-width:0.027966;stroke-linecap:butt;stroke-linejoin:miter;stroke:rgb(0.784314%,1.960784%,1.960784%);stroke-opacity:1;stroke-miterlimit:2.613;" d="M 99.142299 103.845802 L 99.032555 103.084042 L 98.744051 102.392354 L 98.306204 101.77526 L 97.688467 101.306224 L 97.001715 101.0135 L 96.240292 100.943427 L 95.474343 101.0135 L 94.78646 101.306224 L 94.169854 101.77526 L 93.696934 102.392354 L 93.407299 103.084042 L 93.333759 103.845802 L 93.407299 104.607563 L 93.696934 105.294729 L 94.169854 105.911823 L 94.78646 106.38425 L 95.474343 106.673583 L 96.240292 106.783214 L 97.001715 106.673583 L 97.688467 106.38425 L 98.306204 105.911823 L 98.744051 105.294729 L 99.032555 104.607563 Z M 99.142299 103.845802" transform="matrix(3.452621,0,0,3.456221,0,0)"></path>
    <path style="fill-rule:evenodd;fill:rgb(0.784314%,1.960784%,1.960784%);fill-opacity:1;stroke-width:0.027966;stroke-linecap:butt;stroke-linejoin:miter;stroke:rgb(0.784314%,1.960784%,1.960784%);stroke-opacity:1;stroke-miterlimit:2.613;" d="M 104.985912 103.845802 L 104.880693 103.084042 L 104.587664 102.392354 L 104.114745 101.77526 L 103.536606 101.306224 L 102.810255 101.0135 L 102.083905 100.943427 L 101.32135 101.0135 L 100.595 101.306224 L 100.013467 101.77526 L 99.540547 102.392354 L 99.252044 103.084042 L 99.142299 103.845802 L 99.252044 104.607563 L 99.540547 105.294729 L 100.013467 105.911823 L 100.595 106.38425 L 101.32135 106.673583 L 102.083905 106.783214 L 102.810255 106.673583 L 103.536606 106.38425 L 104.114745 105.911823 L 104.587664 105.294729 L 104.880693 104.607563 Z M 104.985912 103.845802" transform="matrix(3.452621,0,0,3.456221,0,0)"></path>
    <path style="fill-rule:evenodd;fill:rgb(0.784314%,1.960784%,1.960784%);fill-opacity:1;stroke-width:0.027966;stroke-linecap:butt;stroke-linejoin:miter;stroke:rgb(0.784314%,1.960784%,1.960784%);stroke-opacity:1;stroke-miterlimit:2.613;" d="M 78.048723 82.727859 L 77.938978 81.966099 L 77.650474 81.274411 L 77.177555 80.657318 L 76.559818 80.224448 L 75.873066 79.931724 L 75.107117 79.822094 L 74.384161 79.931724 L 73.65781 80.224448 L 73.076277 80.657318 L 72.603358 81.274411 L 72.313723 81.966099 L 72.205109 82.727859 L 72.313723 83.48962 L 72.603358 84.176786 L 73.076277 84.79501 L 73.65781 85.267437 L 74.384161 85.556771 L 75.107117 85.665271 L 75.873066 85.556771 L 76.559818 85.267437 L 77.177555 84.79501 L 77.650474 84.176786 L 77.938978 83.48962 Z M 78.048723 82.727859" transform="matrix(3.452621,0,0,3.456221,0,0)"></path>
    <path style="fill-rule:evenodd;fill:rgb(0.784314%,1.960784%,1.960784%);fill-opacity:1;stroke-width:0.027966;stroke-linecap:butt;stroke-linejoin:miter;stroke:rgb(0.784314%,1.960784%,1.960784%);stroke-opacity:1;stroke-miterlimit:2.613;" d="M 126.079489 82.727859 L 126.009343 81.966099 L 125.716314 81.274411 L 125.24792 80.657318 L 124.630182 80.224448 L 123.938905 79.931724 L 123.177482 79.822094 L 122.416058 79.931724 L 121.72365 80.224448 L 121.107044 80.657318 L 120.634124 81.274411 L 120.34562 81.966099 L 120.270949 82.727859 L 120.34562 83.48962 L 120.634124 84.176786 L 121.107044 84.79501 L 121.72365 85.267437 L 122.416058 85.556771 L 123.177482 85.665271 L 123.938905 85.556771 L 124.630182 85.267437 L 125.24792 84.79501 L 125.716314 84.176786 L 126.009343 83.48962 Z M 126.079489 82.727859" transform="matrix(3.452621,0,0,3.456221,0,0)"></path>
    <path style="fill-rule:evenodd;fill:rgb(0.784314%,1.960784%,1.960784%);fill-opacity:1;stroke-width:0.027966;stroke-linecap:butt;stroke-linejoin:miter;stroke:rgb(0.784314%,1.960784%,1.960784%);stroke-opacity:1;stroke-miterlimit:2.613;" d="M 98.306204 101.77526 L 77.177555 80.657318 L 73.076277 84.79501 L 94.169854 105.911823 Z M 98.306204 101.77526" transform="matrix(3.452621,0,0,3.456221,0,0)"></path>
    <path style="fill-rule:evenodd;fill:rgb(0.784314%,1.960784%,1.960784%);fill-opacity:1;stroke-width:0.027966;stroke-linecap:butt;stroke-linejoin:miter;stroke:rgb(0.784314%,1.960784%,1.960784%);stroke-opacity:1;stroke-miterlimit:2.613;" d="M 125.24792 84.79501 L 121.107044 80.657318 L 100.013467 101.77526 L 104.114745 105.911823 Z M 125.24792 84.79501" transform="matrix(3.452621,0,0,3.456221,0,0)"></path>
  </g>
</svg>