<?xml version="1.0" encoding="UTF-8" standalone="yes"?>
<svg xmlns="http://www.w3.org/2000/svg" xmlns:xlink="http://www.w3.org/1999/xlink" width="685pt" height="600pt" viewBox="0 0 685 600" version="1.1">
  <g id="surface1">
    <path style="fill-rule:evenodd;fill:rgb(0.784314%,1.960784%,1.960784%);fill-opacity:1;stroke-width:0.127844;stroke-linecap:butt;stroke-linejoin:miter;stroke:rgb(0.784314%,1.960784%,1.960784%);stroke-opacity:1;stroke-miterlimit:2.613;" d="M 197.46208 164.743687 L 104.122664 2.943062 L 103.544526 2.079583 L 102.826095 1.430844 L 102.036387 0.856698 L 101.099599 0.423828 L 100.165073 0.137885 L 99.158139 0.0644219 L 98.153467 0.137885 L 97.146533 0.423828 L 96.283285 0.856698 L 95.420036 1.430844 L 94.77062 2.079583 L 94.197007 2.943062 L 0.857591 164.743687 L 0.423139 165.67724 L 0.134635 166.615312 L 0.0644891 167.622328 L 0.134635 168.627083 L 0.423139 169.634099 L 0.857591 170.497578 L 1.431204 171.361057 L 2.076095 172.009797 L 2.939343 172.583943 L 3.802591 173.013422 L 4.810657 173.302755 L 5.817591 173.372828 L 192.50208 173.372828 L 193.509015 173.302755 L 194.442409 173.013422 L 195.376934 172.583943 L 196.170036 172.009797 L 196.888467 171.361057 L 197.46208 170.497578 L 197.896533 169.634099 L 198.181642 168.627083 L 198.255182 167.622328 L 198.181642 166.615312 L 197.896533 165.67724 Z M 197.46208 164.743687" transform="matrix(3.452621,0,0,3.456221,0,0)"></path>
    <path style="fill-rule:evenodd;fill:rgb(92.156863%,74.901961%,16.862745%);fill-opacity:1;stroke-width:0.127844;stroke-linecap:butt;stroke-linejoin:miter;stroke:rgb(0.784314%,1.960784%,1.960784%);stroke-opacity:1;stroke-miterlimit:2.613;" d="M 99.158139 18.114979 L 181.856861 161.509031 L 16.458285 161.509031 Z M 99.158139 18.114979" transform="matrix(3.452621,0,0,3.456221,0,0)"></path>
    <path style="fill-rule:evenodd;fill:rgb(0.784314%,1.960784%,1.960784%);fill-opacity:1;stroke-width:0.027966;stroke-linecap:butt;stroke-linejoin:miter;stroke:rgb(0.784314%,1.960784%,1.960784%);stroke-opacity:1;stroke-miterlimit:2.613;" d="M 161.497555 147.474104 L 161.642372 147.658328 L 161.750985 147.876458 L 161.86073 148.380531 L 161.930876 149.396589 L 161.895803 149.904052 L 161.78719 150.416036 L 161.532628 150.883943 L 161.204526 151.24787 L 160.771204 151.537203 L 160.298285 151.720297 L 159.356971 152.11926 L 158.412263 152.447021 L 157.43135 152.736354 L 156.454964 152.951094 L 155.435584 153.099151 L 153.403613 153.20426 L 151.372774 153.20426 L 150.356788 153.169224 L 149.341934 153.059594 L 148.325949 152.916057 L 147.345036 152.736354 L 146.330182 152.482057 L 145.384343 152.154297 L 141.576095 150.70424 L 139.653869 150.048719 L 137.693175 149.544646 L 136.67719 149.360422 L 135.661204 149.216885 L 134.64635 149.107255 L 133.630365 149.107255 L 132.610985 149.142292 L 131.634599 149.251922 L 129.602628 149.614719 L 127.641934 150.122182 L 126.70062 150.451073 L 125.755912 150.848906 L 123.833686 151.537203 L 121.872993 152.11926 L 119.911168 152.587167 L 117.880328 152.841464 L 116.864343 152.916057 L 115.849489 152.916057 L 114.833504 152.841464 L 113.817518 152.696797 L 111.821752 152.262797 L 109.861058 151.720297 L 107.938832 151.063646 L 106.05281 150.301885 L 105.110365 149.978646 L 104.130584 149.724349 L 102.134818 149.325385 L 100.102847 149.107255 L 99.087993 149.107255 L 98.067482 149.142292 L 97.052628 149.251922 L 96.036642 149.435016 L 94.079343 149.904052 L 92.11865 150.521146 L 88.345474 151.974594 L 87.364562 152.298964 L 86.384781 152.587167 L 84.392409 152.989521 L 82.357044 153.169224 L 80.326204 153.20426 L 79.310219 153.169224 L 78.294234 153.060724 L 77.314453 152.881021 L 76.298467 152.696797 L 75.317555 152.407464 L 74.376241 152.11926 L 70.564599 150.665812 L 68.642372 150.013682 L 66.646606 149.505089 L 65.665693 149.325385 L 64.649708 149.181849 L 63.634854 149.107255 L 62.618869 149.107255 L 60.588029 149.290349 L 58.591131 149.614719 L 56.630438 150.16174 L 54.743285 150.920109 L 52.82219 151.610667 L 50.861496 152.189333 L 48.904197 152.626724 L 46.872226 152.916057 L 44.837993 152.989521 L 44.33 152.916057 L 43.85708 152.806427 L 43.388686 152.587167 L 42.950839 152.298964 L 42.552591 151.974594 L 42.227883 151.610667 L 41.934854 151.173276 L 41.719891 150.740406 L 41.536606 150.231812 L 41.426861 149.759385 L 41.391788 148.743328 L 43.314015 149.037182 L 45.239635 149.216885 L 47.161861 149.180719 L 48.141642 149.072219 L 49.084088 148.927552 L 50.935036 148.420089 L 52.787117 147.763438 L 56.377007 146.42301 L 58.263029 145.915547 L 59.208869 145.77088 L 60.153577 145.66125 L 62.110876 145.517714 L 64.033102 145.517714 L 65.958723 145.626214 L 67.844745 145.950583 L 69.731898 146.459177 L 71.54438 147.076271 L 75.173869 148.420089 L 77.024818 148.962589 L 77.966131 149.142292 L 78.947044 149.251922 L 80.872664 149.396589 L 81.813978 149.396589 L 82.794891 149.325385 L 84.715985 149.072219 L 85.661825 148.852958 L 86.568066 148.599792 L 88.419015 147.981568 L 90.196423 147.294401 L 92.008905 146.642271 L 93.860985 146.09525 L 94.802299 145.88051 L 95.783212 145.697417 L 97.708832 145.517714 L 99.629927 145.517714 L 101.552153 145.626214 L 103.477774 145.805917 L 105.364927 146.239917 L 107.177409 146.861531 L 108.989891 147.548698 L 110.805766 148.235865 L 112.657847 148.782885 L 114.545 149.107255 L 115.521387 149.180719 L 116.466095 149.180719 L 118.388321 149.107255 L 120.313942 148.887995 L 121.255255 148.599792 L 122.161496 148.310458 L 123.978504 147.658328 L 125.790985 146.966641 L 127.606861 146.349547 L 129.494015 145.88051 L 131.415109 145.626214 L 133.337336 145.517714 L 135.262956 145.517714 L 137.185182 145.697417 L 139.072336 146.025177 L 140.958358 146.567677 L 142.775365 147.219807 L 144.552774 147.911495 L 146.403723 148.563625 L 148.251277 149.037182 L 149.197117 149.181849 L 150.176898 149.290349 L 152.099124 149.396589 L 154.02135 149.435016 L 155.001131 149.325385 L 155.946971 149.142292 L 157.794526 148.634828 L 159.645474 148.091198 Z M 161.497555 147.474104" transform="matrix(3.452621,0,0,3.456221,0,0)"></path>
    <path style="fill-rule:evenodd;fill:rgb(0.784314%,1.960784%,1.960784%);fill-opacity:1;stroke-width:0.027966;stroke-linecap:butt;stroke-linejoin:miter;stroke:rgb(0.784314%,1.960784%,1.960784%);stroke-opacity:1;stroke-miterlimit:2.613;" d="M 161.497555 139.493703 L 159.646606 140.110797 L 157.794526 140.692854 L 155.946971 141.165281 L 155.001131 141.380021 L 154.02135 141.489651 L 152.099124 141.454615 L 150.176898 141.344984 L 149.197117 141.235354 L 148.251277 141.091818 L 146.403723 140.583224 L 144.552774 139.96613 L 142.775365 139.278964 L 140.958358 138.626833 L 139.072336 138.079813 L 137.185182 137.715885 L 135.262956 137.572349 L 133.337336 137.572349 L 131.415109 137.680849 L 129.494015 137.935146 L 127.606861 138.407573 L 125.790985 139.024667 L 123.978504 139.712964 L 122.161496 140.330057 L 121.255255 140.653297 L 120.313942 140.912115 L 118.388321 141.165281 L 116.466095 141.235354 L 115.521387 141.200318 L 114.545 141.165281 L 112.657847 140.837521 L 110.805766 140.255464 L 108.989891 139.603333 L 107.177409 138.915036 L 105.364927 138.297943 L 103.477774 137.825516 L 101.552153 137.645813 L 99.629927 137.536182 L 97.708832 137.572349 L 95.783212 137.755443 L 94.802299 137.935146 L 93.860985 138.114849 L 92.008905 138.696906 L 90.196423 139.349036 L 88.419015 140.040724 L 86.568066 140.654427 L 85.661825 140.912115 L 84.715985 141.126854 L 82.794891 141.380021 L 81.813978 141.419578 L 80.872664 141.419578 L 78.947044 141.309948 L 77.966131 141.165281 L 77.024818 140.982188 L 75.173869 140.474724 L 71.54438 139.130906 L 69.731898 138.477646 L 67.845876 137.970182 L 65.958723 137.680849 L 64.033102 137.536182 L 62.110876 137.572349 L 60.153577 137.717016 L 59.208869 137.825516 L 58.263029 137.970182 L 56.377007 138.477646 L 52.787117 139.821464 L 50.935036 140.474724 L 49.084088 140.947151 L 48.141642 141.126854 L 47.161861 141.200318 L 45.239635 141.236484 L 43.314015 141.091818 L 41.391788 140.762927 L 41.426861 141.778984 L 41.536606 142.286448 L 41.719891 142.758875 L 41.934854 143.232432 L 42.227883 143.630266 L 42.552591 144.029229 L 42.950839 144.353599 L 43.388686 144.646323 L 43.85708 144.826026 L 44.33 144.974083 L 44.837993 145.00912 L 46.872226 144.974083 L 48.904197 144.681359 L 50.861496 144.247359 L 52.82219 143.630266 L 54.743285 142.938578 L 56.630438 142.216375 L 58.591131 141.673875 L 60.588029 141.309948 L 62.618869 141.165281 L 63.634854 141.165281 L 64.649708 141.236484 L 65.665693 141.344984 L 66.646606 141.564245 L 68.642372 142.071708 L 70.564599 142.685411 L 74.376241 144.137729 L 75.317555 144.46662 L 76.298467 144.719786 L 77.314453 144.935656 L 78.294234 145.079193 L 79.310219 145.188823 L 80.326204 145.223859 L 82.357044 145.223859 L 84.392409 145.00912 L 86.384781 144.646323 L 87.364562 144.353599 L 88.345474 144.029229 L 90.231496 143.267469 L 92.11865 142.579172 L 94.079343 141.962078 L 96.036642 141.489651 L 97.052628 141.309948 L 98.067482 141.200318 L 99.087993 141.126854 L 100.102847 141.165281 L 102.134818 141.344984 L 104.130584 141.743948 L 105.111496 142.033281 L 106.05281 142.361042 L 107.938832 143.087766 L 109.861058 143.739896 L 111.821752 144.317432 L 113.817518 144.719786 L 114.833504 144.864453 L 115.849489 144.974083 L 116.864343 144.974083 L 117.880328 144.89949 L 119.912299 144.611286 L 121.872993 144.173896 L 123.833686 143.595229 L 125.755912 142.903542 L 126.70062 142.505708 L 127.641934 142.176818 L 129.602628 141.673875 L 131.634599 141.309948 L 132.610985 141.200318 L 133.630365 141.126854 L 134.64635 141.165281 L 135.661204 141.236484 L 136.67719 141.380021 L 137.693175 141.599281 L 139.653869 142.106745 L 141.576095 142.758875 L 145.384343 144.212323 L 146.330182 144.501656 L 147.345036 144.755953 L 148.325949 144.974083 L 149.341934 145.11875 L 150.356788 145.188823 L 151.372774 145.223859 L 153.403613 145.223859 L 155.435584 145.153786 L 156.454964 145.00912 L 157.43135 144.79099 L 158.412263 144.501656 L 159.356971 144.137729 L 160.298285 143.774932 L 160.771204 143.556802 L 161.204526 143.302505 L 161.532628 142.903542 L 161.78719 142.435635 L 161.895803 141.962078 L 161.930876 141.454615 L 161.86073 140.438557 L 161.750985 139.931094 L 161.642372 139.712964 Z M 161.497555 139.493703" transform="matrix(3.452621,0,0,3.456221,0,0)"></path>
    <path style="fill-rule:evenodd;fill:rgb(0.784314%,1.960784%,1.960784%);fill-opacity:1;stroke-width:0.027966;stroke-linecap:butt;stroke-linejoin:miter;stroke:rgb(0.784314%,1.960784%,1.960784%);stroke-opacity:1;stroke-miterlimit:2.613;" d="M 82.357044 125.748109 L 59.099124 125.748109 L 58.337701 122.739495 L 58.372774 122.411734 L 58.591131 122.11901 L 58.919234 122.048937 L 79.891752 122.048937 L 80.434818 122.157438 L 80.907737 122.446771 L 81.196241 122.919198 Z M 97.45427 73.841031 L 101.99 89.986057 L 100.029307 89.986057 L 91.755474 73.333568 L 92.043978 73.079271 L 92.37208 72.899568 L 93.099562 72.681438 L 93.860985 72.681438 L 94.622409 72.791068 L 95.348759 72.970771 L 96.076241 73.223938 Z M 105.470146 73.661328 L 105.470146 89.986057 L 103.477774 89.986057 L 98.868504 73.661328 L 99.559781 73.079271 L 100.357409 72.646401 L 101.228577 72.357068 L 102.134818 72.282474 L 103.041058 72.427141 L 103.912226 72.716474 L 104.712117 73.153865 Z M 113.529015 73.770958 L 108.884672 89.986057 L 106.887774 89.986057 L 106.887774 73.661328 L 107.650328 73.153865 L 108.446825 72.716474 L 109.317993 72.392104 L 109.755839 72.31751 L 110.224234 72.282474 L 110.697153 72.31751 L 111.130474 72.427141 L 112.001642 72.756031 L 112.802664 73.223938 Z M 120.603577 73.333568 L 112.329745 89.986057 L 110.372445 89.986057 L 114.978321 73.805995 L 116.357482 73.188901 L 117.048759 72.934604 L 117.775109 72.754901 L 118.536533 72.681438 L 119.262883 72.716474 L 119.985839 72.899568 L 120.313942 73.079271 Z M 107.575657 95.169193 L 107.465912 94.591656 L 107.212482 94.083062 L 106.814234 93.685229 L 106.306241 93.430932 L 105.724708 93.321302 L 105.146569 93.430932 L 104.638577 93.685229 L 104.240328 94.083062 L 103.982372 94.591656 L 103.876022 95.169193 L 103.982372 95.75125 L 104.240328 96.259844 L 104.638577 96.657677 L 105.146569 96.911974 L 105.724708 97.021604 L 106.306241 96.911974 L 106.814234 96.657677 L 107.212482 96.259844 L 107.465912 95.75125 Z M 111.603394 91.399948 L 108.376679 97.926901 L 108.122117 97.673734 L 107.794015 97.564104 L 107.430839 97.529068 L 104.892007 97.961938 L 104.528832 98.146161 L 104.240328 98.435495 L 100.720584 91.399948 Z M 121.728175 74.239995 L 108.845073 100.142109 L 109.861058 106.196635 L 109.861058 106.560563 L 109.716241 106.923359 L 109.46281 107.247729 L 105.618358 110.368234 L 108.954818 114.03237 L 109.173175 114.431333 L 109.247847 114.868724 L 109.138102 115.267687 L 108.884672 115.627094 L 108.486423 115.845224 L 108.048577 115.919818 L 107.650328 115.810187 L 107.287153 115.555891 L 107.032591 115.22813 L 106.887774 115.665521 L 106.634343 115.989891 L 106.271168 116.208021 L 105.833321 116.282615 L 105.435073 116.169594 L 105.071898 115.88026 L 100.974015 111.349255 L 100.755657 110.950292 L 100.680985 110.512901 L 100.829197 110.080031 L 101.079234 109.716104 L 105.364927 106.271229 L 104.563905 101.700667 L 91.395693 125.676906 L 104.165657 125.676906 L 107.177409 134.853068 L 105.544818 134.200938 L 103.837555 133.72851 L 102.099745 133.39962 L 100.322336 133.219917 L 98.540401 133.219917 L 96.762993 133.39962 L 95.020657 133.72851 L 93.31792 134.200938 L 91.64573 134.778474 L 89.978066 135.431734 L 88.345474 136.087255 L 86.638212 136.594719 L 84.900401 136.993682 L 83.158066 137.212943 L 81.376131 137.283016 L 79.598723 137.247979 L 77.821314 137.063755 L 76.080109 136.700958 L 74.411314 136.192365 L 72.74365 135.579792 L 69.403796 134.345604 L 67.701058 133.83701 L 65.958723 133.439177 L 64.216387 133.219917 L 62.438978 133.18488 L 60.658175 133.364583 L 58.919234 133.653917 L 57.211971 134.091307 L 56.341934 134.345604 L 55.544307 134.668844 L 53.872117 135.325495 L 52.204453 135.904161 L 44.693175 126.036312 L 57.61135 126.036312 L 54.962774 122.157438 L 54.708212 121.614937 L 54.634672 120.993323 L 54.743285 120.38075 L 55.036314 119.833729 L 55.470766 119.399729 L 56.267263 119.036932 L 57.103358 118.927302 L 87.802409 118.927302 L 90.486058 124.368125 L 103.657664 100.431443 L 90.595803 74.169922 L 90.450985 73.950661 L 90.376314 73.696365 L 90.411387 73.188901 L 90.779088 71.884641 L 91.282555 70.614286 L 91.938759 69.415135 L 92.701314 68.255542 L 93.532883 67.204448 L 94.478723 66.188391 L 95.493577 65.248057 L 96.544635 64.411703 L 97.669234 63.614906 L 98.868504 62.962776 L 100.102847 62.345682 L 101.372263 61.872125 L 102.677883 61.474292 L 104.020839 61.184958 L 105.4 61.036901 L 106.779161 61.001865 L 108.123248 61.149922 L 109.46281 61.404219 L 110.805766 61.763625 L 112.076314 62.236052 L 113.310657 62.818109 L 114.505401 63.505276 L 115.669599 64.232 L 116.720657 65.103391 L 117.735511 66.005297 L 118.716423 66.985187 L 119.552518 68.040802 L 120.349015 69.161969 L 121.001825 70.36112 L 121.583358 71.630344 L 121.946533 72.934604 L 122.016679 73.263495 L 122.016679 73.626292 L 121.946533 73.950661 Z M 121.728175 74.239995" transform="matrix(3.452621,0,0,3.456221,0,0)"></path>
  </g>
</svg>