<?xml version="1.0" encoding="UTF-8" standalone="yes"?>
<svg xmlns:svg="http://www.w3.org/2000/svg" xmlns="http://www.w3.org/2000/svg" height="400px" width="400px" viewBox="0 0 200 200" version="1.1">
  <g style="stroke:none;">
    <rect style="fill:#ffffff; stroke:none; fill-rule:nonzero;" y="0" x="0" height="200" width="200"></rect>
    <rect style="fill:#008855; stroke:none; fill-rule:nonzero;" y="5" x="5" height="190" width="190"></rect>
    <g style="fill:#ffffff;">
      <path d="m 75.71,24.69 c -0.55298,-6.64e-4 -1.1006,0.0081 -1.65625,0.03125 -17.13808,0.382983 -32.76608,11.784423 -42.40625,27.1875 15.85273,26.677122 52.702598,33.588636 74.874996,12.65625 4.60586,-3.60243 8.56785,-7.981331 11.78125,-13.1875 C 108.6554,36.059066 92.854194,24.708073 75.711864,24.6875 z m 16.75,12.125 c 5.622669,3.50124 10.539136,8.535054 14.218746,14.375 -2.35144,3.80968 -5.2546,7.051378 -8.624996,9.6875 -16.22493,15.317535 -43.18082,10.240067 -54.78125,-9.28125 3.663992,-5.854336 8.493522,-10.913643 14.06,-14.47 a 19.69,19.69 0 0 0 -2.03,9.19 19.69,19.69 0 1 0 39.34,0 19.69,19.69 0 0 0 -2.19,-9.5 z m -18.12,0.38 a 9.22,9.22 0 0 1 9.875,9.22 9.22,9.22 0 0 1 -18.44,0 9.22,9.22 0 0 1 8.56,-9.22 z"></path>
      <path d="m 146.69,53.96 0,16.89 16.55,0 0,-16.89 16.55,0 0,-16.55 -16.55,0 0,-16.55 -16.55,0 0,16.55 -16.89,0 0,16.55 16.89,0"></path>
      <path d="m 105.29,133.68 c 0,7.72 -5.42,14.13 -10.23,14.13 -4.81,0 -12.94,1.14 -12.94,8.47502 l 0,22.65 -14.14,0 0,-22.65 c 0,-7.23 -9.43,-8.48 -14.74,-8.48 -5.32,0 -8.73,-6.08 -8.73,-14.13 z"></path>
      <path d="m 26.81,67.09 a 2.60,2.60 0 0 1 -5.26,0 2.60,2.60 0 1 1 5.26,0 z m 10.23,12.25 a 2.60,2.60 0 0 1 -5.26,0 2.60,2.60 0 1 1 5.26,0 z m 15.05,0 a 2.60,2.60 0 0 1 -5.26,0 2.60,2.60 0 1 1 5.26,0 z m 51.24,0 a 2.60,2.60 0 0 1 -5.26,0 2.60,2.60 0 1 1 5.26,0 z m 14.83,0 a 2.60,2.60 0 0 1 -5.26,0 2.60,2.60 0 1 1 5.26,0 z m -6.37,10.18 a 2.60,2.60 0 0 1 -5.26,0 2.60,2.60 0 1 1 5.26,0 z m -12.85,0 a 2.60,2.60 0 0 1 -5.26,0 2.60,2.60 0 1 1 5.26,0 z m -10.19,0 a 2.60,2.60 0 0 1 -5.26,0 2.60,2.60 0 1 1 5.26,0 z m -11.02,0 a 2.60,2.60 0 0 1 -5.26,0 2.60,2.60 0 1 1 5.26,0 z m -11.23,0 a 2.60,2.60 0 0 1 -5.26,0 2.60,2.60 0 1 1 5.26,0 z m -10.08,0 a 2.60,2.60 0 0 1 -5.26,0 2.60,2.60 0 1 1 5.26,0 z m -12.93,0 a 2.60,2.60 0 0 1 -5.26,0 2.60,2.60 0 1 1 5.26,0 z m 4.36,9.32 a 2.60,2.60 0 0 1 -5.26,0 2.60,2.60 0 1 1 5.26,0 z m 11.52,0 a 2.60,2.60 0 0 1 -5.26,0 2.60,2.60 0 1 1 5.26,0 z m 9.36,0 a 2.60,2.60 0 0 1 -5.26,0 2.60,2.60 0 1 1 5.26,0 z m 9.073194,0 a 2.60,2.60 0 0 1 -5.26,0 2.60,2.60 0 1 1 5.26,0 z m 8.79,0 a 2.60,2.60 0 0 1 -5.26,0 2.60,2.60 0 1 1 5.26,0 z m 9.54,0 a 2.60,2.60 0 0 1 -5.26,0 2.60,2.60 0 1 1 5.26,0 z m 11.38,0 a 2.60,2.60 0 0 1 -5.26,0 2.60,2.60 0 1 1 5.26,0 z m -3.10,8.65 a 2.60,2.60 0 0 1 -5.26,0 2.60,2.60 0 1 1 5.26,0 z m -10.48,0 a 2.60,2.60 0 0 1 -5.26,0 2.60,2.60 0 1 1 5.26,0 z m -8.42518,0 a 2.60,2.60 0 0 1 -5.26,0 2.60,2.60 0 1 1 5.26,0 z m -7.78,0 a 2.60,2.60 0 0 1 -5.26,0 2.60,2.60 0 1 1 5.26,0 z m -7.92,0 a 2.60,2.60 0 0 1 -5.26,0 2.60,2.60 0 1 1 5.26,0 z m -8.57,0 a 2.60,2.60 0 0 1 -5.26,0 2.60,2.60 0 1 1 5.26,0 z m -10.33,0 a 2.60,2.60 0 0 1 -5.26,0 2.60,2.60 0 1 1 5.26,0 z m 1.87,7.26 a 2.60,2.60 0 0 1 -5.26,0 2.60,2.60 0 1 1 5.26,0 z m 9.54,0 a 2.60,2.60 0 0 1 -5.26,0 2.60,2.60 0 1 1 5.26,0 z m 8.21,0 a 2.60,2.60 0 0 1 -5.26,0 2.60,2.60 0 1 1 5.26,0 z m 7.27,0 a 2.60,2.60 0 0 1 -5.26,0 2.60,2.60 0 1 1 5.26,0 z m 7.13,0 a 2.60,2.60 0 0 1 -5.26,0 2.60,2.60 0 1 1 5.26,0 z m 8.00,0 a 2.60,2.60 0 0 1 -5.26,0 2.60,2.60 0 1 1 5.26,0 z m 9.61,0 a 2.60,2.60 0 0 1 -5.26,0 2.60,2.60 0 1 1 5.26,0 z m -1.26,7.26 a 2.60,2.60 0 0 1 -5.26,0 2.60,2.60 0 1 1 5.26,0 z m -8.86,0 a 2.60,2.60 0 0 1 -5.26,0 2.60,2.60 0 1 1 5.26,0 z m -7.74,0 a 2.60,2.60 0 0 1 -5.26,0 2.60,2.60 0 1 1 5.26,0 z m -6.91,0 a 2.60,2.60 0 0 1 -5.26,0 2.60,2.60 0 1 1 5.26,0 z m -7.20,0 a 2.60,2.60 0 0 1 -5.26,0 2.60,2.60 0 1 1 5.26,0 z m -7.633041,0 a 2.60,2.60 0 0 1 -5.26,0 2.60,2.60 0 1 1 5.26,0 z m -8.93,0 a 2.60,2.60 0 0 1 -5.26,0 2.60,2.60 0 1 1 5.26,0 z m 0.61,6.65 a 2.60,2.60 0 0 1 -5.26,0 2.60,2.60 0 1 1 5.26,0 z m 8.57,0 a 2.60,2.60 0 0 1 -5.26,0 2.60,2.60 0 1 1 5.26,0 z m 7.31,0 a 2.60,2.60 0 0 1 -5.26,0 2.60,2.60 0 1 1 5.26,0 z m 7.24,0 a 2.60,2.60 0 0 1 -5.26,0 2.60,2.60 0 1 1 5.26,0 z m 7.20,0 a 2.60,2.60 0 0 1 -5.26,0 2.60,2.60 0 1 1 5.26,0 z m 7.38,0 a 2.60,2.60 0 0 1 -5.26,0 2.60,2.60 0 1 1 5.26,0 z m 8.32,0 a 2.60,2.60 0 0 1 -5.26,0 2.60,2.60 0 1 1 5.26,0 z m 27.90,-61.57 a 2.60,2.60 0 0 1 -5.26,0 2.60,2.60 0 1 1 5.26,0 z"></path>
    </g>
  </g>
</svg>