<?xml version="1.0" encoding="UTF-8" standalone="yes"?>
<svg xmlns="http://www.w3.org/2000/svg" xmlns:xlink="http://www.w3.org/1999/xlink" width="685pt" height="600pt" viewBox="0 0 685 600" version="1.1">
  <g id="surface1">
    <path style="fill-rule:evenodd;fill:rgb(0.784314%,1.960784%,1.960784%);fill-opacity:1;stroke-width:0.127844;stroke-linecap:butt;stroke-linejoin:miter;stroke:rgb(0.784314%,1.960784%,1.960784%);stroke-opacity:1;stroke-miterlimit:2.613;" d="M 197.46208 164.743687 L 104.11927 2.943062 L 103.544526 2.079583 L 102.826095 1.430844 L 102.032993 0.856698 L 101.099599 0.423828 L 100.165073 0.137885 L 99.158139 0.0644219 L 98.150073 0.137885 L 97.146533 0.423828 L 96.283285 0.856698 L 95.420036 1.430844 L 94.77062 2.079583 L 94.197007 2.943062 L 0.853066 164.743687 L 0.423139 165.67724 L 0.134635 166.615312 L 0.0644891 167.622328 L 0.134635 168.627083 L 0.423139 169.634099 L 0.853066 170.497578 L 1.42781 171.361057 L 2.076095 172.009797 L 2.939343 172.583943 L 3.802591 173.013422 L 4.810657 173.302755 L 5.814197 173.372828 L 192.50208 173.372828 L 193.50562 173.302755 L 194.442409 173.013422 L 195.376934 172.583943 L 196.170036 172.009797 L 196.888467 171.361057 L 197.46208 170.497578 L 197.892007 169.634099 L 198.181642 168.627083 L 198.251788 167.622328 L 198.181642 166.615312 L 197.892007 165.67724 Z M 197.46208 164.743687" transform="matrix(3.452621,0,0,3.456221,0,0)"></path>
    <path style="fill-rule:evenodd;fill:rgb(92.156863%,74.901961%,16.862745%);fill-opacity:1;stroke-width:0.127844;stroke-linecap:butt;stroke-linejoin:miter;stroke:rgb(0.784314%,1.960784%,1.960784%);stroke-opacity:1;stroke-miterlimit:2.613;" d="M 99.158139 18.114979 L 181.856861 161.509031 L 16.458285 161.509031 Z M 99.158139 18.114979" transform="matrix(3.452621,0,0,3.456221,0,0)"></path>
    <path style="stroke:none;fill-rule:evenodd;fill:rgb(0.784314%,1.960784%,1.960784%);fill-opacity:1;" d="M 355.761719 352.160156 C 359.980469 349.179688 367.925781 352.417969 379.105469 364.839844 C 390.03125 377.273438 398.957031 392.679688 411.125 397.902344 C 423.300781 402.871094 430.003906 402.871094 441.171875 404.613281 C 452.339844 406.597656 461.78125 408.839844 486.109375 419.773438 C 510.199219 430.710938 527.582031 436.664062 525.84375 444.371094 C 524.84375 449.597656 521.363281 450.339844 519.882812 450.839844 C 518.382812 451.582031 491.828125 450.582031 492.570312 454.066406 C 493.554688 457.050781 511.4375 460.277344 513.675781 459.777344 C 515.660156 459.535156 518.140625 460.277344 517.640625 461.519531 C 516.902344 463.015625 504.234375 468.242188 476.683594 473.210938 C 449.117188 478.179688 427.765625 480.90625 425.027344 483.648438 C 422.304688 486.375 422.304688 485.386719 420.066406 488.859375 C 417.839844 492.597656 407.160156 507.261719 395.492188 515.210938 C 383.570312 523.164062 376.125 526.148438 372.148438 522.921875 C 368.425781 519.9375 370.90625 515.210938 373.386719 510.984375 C 375.625 506.761719 383.328125 492.097656 385.550781 484.632812 C 387.792969 477.179688 388.53125 470.726562 388.53125 470.726562 C 388.53125 470.726562 386.550781 474.453125 385.550781 476.4375 C 384.8125 478.679688 383.570312 481.164062 383.570312 481.164062 C 383.570312 481.164062 354.761719 482.148438 326.210938 477.179688 C 296.175781 471.96875 285.992188 466.988281 284.253906 467.484375 C 282.769531 467.984375 275.070312 471.46875 275.070312 471.46875 C 275.070312 471.46875 267.867188 467.242188 263.644531 465.003906 C 259.425781 463.015625 256.941406 461.277344 256.941406 461.277344 C 256.941406 461.277344 260.921875 462.019531 261.40625 461.03125 C 261.664062 459.777344 259.179688 457.550781 251.480469 455.808594 C 243.535156 454.308594 239.316406 456.550781 237.332031 459.292969 C 235.09375 461.773438 231.371094 467.484375 223.425781 473.710938 C 215.484375 479.921875 206.542969 486.375 203.5625 487.128906 C 200.582031 487.871094 198.34375 484.390625 200.582031 482.40625 C 203.0625 480.164062 213.988281 470.726562 212.746094 455.066406 C 211.503906 439.40625 201.578125 422.757812 193.136719 413.808594 C 184.695312 404.613281 181.957031 402.113281 183.695312 399.632812 C 185.691406 397.160156 200.082031 405.355469 208.027344 411.324219 C 215.984375 417.277344 229.875 432.4375 242.539062 431.953125 C 253.21875 431.453125 272.089844 428.46875 303.378906 421.015625 C 334.410156 413.808594 350.796875 408.839844 350.796875 408.839844 L 341.613281 407.339844 C 341.613281 407.339844 352.78125 401.628906 357.257812 392.921875 C 361.964844 384.226562 359.980469 371.050781 356.5 365.339844 C 353.035156 359.371094 351.539062 355.144531 355.761719 352.160156"></path>
    <path style="stroke:none;fill-rule:evenodd;fill:rgb(92.156863%,74.901961%,16.862745%);fill-opacity:1;" d="M 490.585938 442.632812 C 497.535156 444.128906 497.777344 437.664062 491.570312 436.175781 C 485.125 434.679688 483.628906 441.390625 490.585938 442.632812"></path>
    <path style="stroke:none;fill-rule:evenodd;fill:rgb(0.784314%,1.960784%,1.960784%);fill-opacity:1;" d="M 498.53125 450.097656 L 499.515625 455.808594 L 503.738281 449.839844 L 504.976562 455.566406 L 508.699219 449.597656 L 509.941406 455.308594 L 513.917969 449.339844 L 514.917969 455.066406 L 518.882812 448.839844 L 519.625 454.808594 L 522.863281 448.839844 Z M 498.53125 450.097656"></path>
    <path style="stroke:none;fill-rule:evenodd;fill:rgb(0.784314%,1.960784%,1.960784%);fill-opacity:1;" d="M 516.902344 461.519531 L 516.402344 456.308594 L 514.660156 460.535156 L 511.195312 455.566406 L 509.941406 459.777344 L 506.476562 454.808594 L 504.976562 459.035156 L 501.753906 454.066406 L 500.515625 458.292969 L 497.289062 453.324219 L 496.792969 457.792969 Z M 516.902344 461.519531"></path>
    <path style="stroke:none;fill-rule:evenodd;fill:rgb(0.784314%,1.960784%,1.960784%);fill-opacity:1;" d="M 337.632812 301.710938 C 328.949219 299.96875 321.746094 293.5 313.546875 290.273438 C 306.101562 287.046875 298.65625 287.046875 290.957031 288.03125 C 282.015625 289.289062 275.070312 295.742188 266.382812 299.46875 C 258.925781 302.707031 250.980469 302.207031 243.535156 299.96875 C 242.792969 308.175781 246.761719 315.628906 251.722656 316.128906 C 262.160156 316.628906 271.84375 311.902344 281.273438 305.933594 C 285.75 303.695312 289.972656 302.207031 294.679688 301.710938 C 305.601562 299.96875 315.785156 305.933594 325.726562 311.902344 C 331.929688 315.386719 338.375 317.113281 344.835938 317.113281 C 351.296875 317.113281 357.742188 315.386719 363.960938 311.902344 C 374.128906 305.933594 384.070312 299.96875 395.234375 301.710938 C 399.714844 302.207031 404.175781 303.695312 408.398438 305.933594 C 418.082031 311.902344 427.765625 316.628906 438.191406 316.128906 C 443.15625 315.628906 447.132812 308.175781 446.390625 299.96875 C 438.691406 302.207031 430.988281 302.707031 423.300781 299.46875 C 414.859375 295.742188 407.65625 289.289062 398.714844 288.03125 C 391.269531 287.046875 383.570312 287.046875 376.125 290.273438 C 367.925781 293.5 360.722656 299.96875 352.28125 301.710938 C 349.800781 302.207031 347.316406 302.453125 344.835938 302.453125 C 344.835938 302.453125 340.117188 302.207031 337.632812 301.710938"></path>
  </g>
</svg>