<?xml version="1.0" encoding="UTF-8" standalone="yes"?>
<svg xmlns:svg="http://www.w3.org/2000/svg" xmlns="http://www.w3.org/2000/svg" width="607.8418" height="531.36584" id="svg3785" version="1.1" viewBox="0 0 608 531">
  <defs id="defs3"></defs>
  <g id="layer3" style="display:inline" transform="translate(-73.77379,-269.05022)">
    <path style="fill:#000000;fill-opacity:1;stroke:#000000;stroke-width:1px;stroke-linecap:butt;stroke-linejoin:miter;stroke-opacity:1" d="m 391.5493,277.11067 c -5.63381,-10.86519 -23.74246,-9.25553 -28.37023,0 L 75.855131,775.50102 c -4.694836,7.04226 1.676727,24.94969 11.871227,24.14486 l 578.470822,0.20121 c 9.72502,1.27432 18.444,-13.95037 13.48089,-22.13279 z" id="path4316"></path>
    <path style="fill:#f6bd16;fill-opacity:1;stroke:#000000;stroke-width:1px;stroke-linecap:butt;stroke-linejoin:miter;stroke-opacity:1" d="m 377.23681,325.45499 -252.78755,439.0039 505.23195,-0.91506 z" id="path3806"></path>
    <path style="fill:#000000" d="m 425.85718,737.85232 c 0,-0.24115 8.68698,-11.82865 19.30441,-25.75 23.40354,-30.68624 37.59102,-49.39057 55.98704,-73.81155 7.6647,-10.175 14.27447,-18.86729 14.68837,-19.31619 0.41391,-0.4489 1.95405,1.234 3.42254,3.73979 l 2.66998,4.55598 -9.78634,12.76021 c -5.38248,7.01812 -12.48626,16.36021 -15.78617,20.76021 -3.29991,4.4 -6.24469,8.225 -6.54397,8.5 -0.29928,0.275 -5.24089,6.8 -10.98134,14.5 -5.74046,7.7 -10.69057,14.225 -11.00025,14.5 -0.53856,0.47825 -19.51379,25.31599 -26.92905,35.24892 -3.51111,4.70324 -3.60054,4.74893 -9.29522,4.75 -3.1625,5.9e-4 -5.75,-0.19622 -5.75,-0.43737 z m -25.83319,-13.31155 c -0.49696,-0.9625 -1.22637,-3.53445 -1.62092,-5.71544 -1.03625,-5.72826 -2.68925,-8.44353 -9.97036,-16.37763 -8.68527,-9.46417 -11.35153,-13.70279 -12.53065,-19.92029 -0.69995,-3.69079 -3.66413,-9.68012 -10.13413,-20.47664 -5.02965,-8.393 -9.66718,-15.81895 -10.30561,-16.50211 -0.63843,-0.68316 -3.90277,-1.5287 -7.25409,-1.87899 -4.97082,-0.51955 -7.63679,-0.15823 -14.47217,1.96144 -16.16353,5.01236 -21.32902,6.05599 -29.87888,6.03668 -12.68333,-0.0286 -17.74358,-1.02745 -18.64779,-3.68074 -0.41165,-1.20796 -0.64035,-2.59064 -0.50822,-3.07263 0.13213,-0.48199 -0.67871,-1.52001 -1.80187,-2.3067 -2.21266,-1.54981 -2.61977,-4.36907 -1.05353,-7.29563 1.11751,-2.08808 6.67594,-4.31924 15.51141,-6.22628 5.95257,-1.2848 5.86541,-1.29899 -11.02781,-1.79504 l -17.02781,-0.5 -5.01102,-3.21874 c -2.75606,-1.7703 -6.01951,-4.5828 -7.25212,-6.25 -1.23262,-1.66719 -2.86594,-3.03126 -3.62962,-3.03126 -1.62527,0 -5.00729,-5.28066 -5.95383,-9.29626 -0.52716,-2.23644 -0.10008,-3.3553 2.13323,-5.58861 2.39663,-2.39662 4.09764,-2.95975 12.00285,-3.97355 5.75653,-0.73824 13.43972,-2.71018 20.48831,-5.25844 18.53513,-6.70097 22.14433,-7.83278 25.05994,-7.85855 1.53016,-0.0135 4.29416,-0.65636 6.14221,-1.42853 2.72051,-1.1367 3.758,-2.46745 5.45058,-6.99126 1.14976,-3.07303 2.29816,-8.37182 2.55198,-11.77508 0.33705,-4.51909 0.94063,-6.47657 2.23821,-7.25874 2.00489,-1.20853 12.06796,-5.05431 26.7681,-10.22989 20.89287,-7.35591 26.88791,-12.22306 31.98692,-25.96901 1.60607,-4.32964 3.23492,-8.32208 3.61968,-8.87208 0.38475,-0.55 1.2691,-2.8 1.9652,-5 2.93385,-9.27223 7.66626,-15.22874 10.13653,-12.75847 0.50975,0.50975 1.06391,6.0705 1.23147,12.35724 0.44653,16.75287 2.787,19.46671 10.17405,11.79705 2.17412,-2.25729 8.74321,-7.65965 14.59797,-12.00523 5.85476,-4.34558 10.90314,-8.5737 11.21861,-9.39582 0.79315,-2.0669 4.30846,-1.88121 4.83172,0.25523 0.61573,2.51403 -0.80633,22.72655 -2.58556,36.75 -0.83738,6.6 -1.54214,14.35094 -1.56615,17.22432 -0.0405,4.84548 0.18037,5.34016 3.04553,6.82179 2.92055,1.51028 10.83398,9.12492 27.91083,26.85702 8.09172,8.4022 21.60611,20.71743 24.53092,22.35423 1.73096,0.9687 1.72632,1.11272 -0.11287,3.50254 -1.05493,1.37077 -6.64296,8.73556 -12.41785,16.3662 -5.77488,7.63065 -10.74792,14.0989 -11.05119,14.3739 -0.30326,0.275 -5.25326,6.8 -11,14.5 -5.74673,7.7 -10.69673,14.225 -11,14.5 -0.30326,0.275 -5.25335,6.8 -11.0002,14.5 -5.74685,7.7 -10.89881,14.50285 -11.44881,15.11744 -0.55,0.61459 -5.5,7.21592 -11,14.66962 -5.5,7.45371 -10.32167,13.58836 -10.71482,13.63257 -0.39315,0.0442 -1.12141,-0.70713 -1.61837,-1.66963 z m -58.51257,-140.75 c 1.97451,-0.825 5.59755,-1.5 8.05122,-1.5 3.10368,0 4.34631,-0.38037 4.08361,-1.25 -0.64299,-2.12856 -10.89121,-6.75 -14.96838,-6.75 -4.17201,0 -4.57304,0.98825 -3.19569,7.875 0.7143,3.57152 1.11323,3.67904 6.02924,1.625 z m 85.62989,136.79874 c -2.93295,-0.56769 -7.28413,-5.84135 -7.28413,-8.82841 0,-3.64914 1.88121,-6.96894 4.9895,-8.80506 3.4488,-2.03725 5.2938,-2.08725 8.86547,-0.24027 7.07466,3.65845 6.44909,14.87895 -0.97381,17.46658 -1.74878,0.60963 -3.22496,1.04714 -3.28038,0.97224 -0.0554,-0.0749 -1.09792,-0.32919 -2.31665,-0.56508 z m 28.71587,-40.00818 c -6.84679,-2.51752 -7.7417,-11.57005 -1.63296,-16.51832 5.71034,-4.62556 14.63296,0.29031 14.63296,8.06194 0,6.42135 -6.69334,10.7753 -13,8.45638 z m 31.28413,-39.06581 c -3.18469,-0.51008 -7.28413,-5.80114 -7.28413,-9.40148 0,-3.75809 5.66646,-9.82327 9.17749,-9.82327 4.9893,0 9.75447,4.87811 9.76847,10 0.0165,6.02882 -5.30993,10.24212 -11.66183,9.22475 z M 694.09552,231.60369 c 0.95609,-0.25029 2.75609,-0.25937 4,-0.0202 1.24391,0.23919 0.46166,0.44398 -1.73834,0.45508 -2.2,0.0111 -3.21775,-0.18461 -2.26166,-0.4349 z" id="path3802"></path>
  </g>
</svg>