<?xml version="1.0" encoding="UTF-8" standalone="yes"?>
<svg xmlns:svg="http://www.w3.org/2000/svg" xmlns="http://www.w3.org/2000/svg" height="400px" width="400px" viewBox="0 0 200 200" version="1.1">
  <rect style="fill:#ffffff; stroke:none; fill-rule:nonzero;" y="0" x="0" height="200" width="200"></rect>
  <path style="fill:#008855; stroke:none; fill-rule:nonzero;" d="M 5,100 5,5 100,5 195,5 195,100 195,195 100,195 5,195 z M 29,169.5 45.279,169.55 62,169.71 62,179 67,179 67.06,161.46 67,144 64.724,143.6 62.104,143.09 62.104,153.91 62.104,164.73 45.492,164.73 29,165 29,143.08 45.099,142.8 61.319,142.8 58,138.58 43.648,138.57 28.88,138.72 28.88,127.71 28.88,116.7 45.492,116.7 62.104,116.7 62,129 67,124 67,108 67,92 62,96.64 62.104,103.51 62.104,111.48 45.492,111.48 28.88,111.48 28.88,100.52 C 28.88,94.493 28.55,89.512 29,89.512 32,90 32,85 29,85 28.456,85 28.88,80.551 28.88,74.423 L 28.88,63.462 45.492,63.462 62.104,63.462 62.104,69.878 62.104,76.294 64.699,73.478 C 68.205,69.675 68.131,64.975 64.505,61.17 L 61.715,58.242 45.298,58.242 28.88,58.242 28.88,47.802 28.88,37.363 45.429,37.363 61.978,37.363 62,46 67,41 67,32 C 67,22.18 67,22 67,22 L 62,22 C 62,22 62.104,22 62.104,26.923 L 62.104,32.143 45.492,32.143 28.88,32.143 28.88,26.923 C 28.88,21.819 29,22 29,22 L 24,22 24,179 29.029,179 z M 91.82,118.67 114.8,95.572 118,100 135.28,100 116.61,81.209 97.945,62.418 103.9,62.418 109.86,62.418 109.86,67.117 C 109.86,71.25 110.38,72.318 114.14,75.99 116.49,78.286 118.83,80.165 119.33,80.165 119.84,80.165 120.25,74.617 120.25,67.837 120.25,50.852 120.87,51.456 103.37,51.456 L 89.445,51.456 73.613,67.376 57.781,83.297 46.786,83.297 C 38.013,83.297 35.408,83.646 33.893,85.024 31.445,87.253 31.493,89.056 34.071,91.648 35.928,93.516 37.532,93.736 49.259,93.736 L 62.371,93.736 71.539,84.716 80.707,75.695 89.575,84.611 C 94.452,89.515 98.443,94.013 98.443,94.606 98.443,95.199 90.04,104.01 79.771,114.19 69.501,124.37 60.819,133.59 60.477,134.67 59.523,137.69 62.698,141.76 66.013,141.76 68.307,141.76 73.143,137.43 91.82,118.67 z M 172.58,65.29 172.68,21.706 130.37,21.704 88.06,21.703 88.06,35.863 88,49 95,49 95.105,38.668 95,27.967 130.66,27.967 165.93,27.967 165.93,65.027 165.93,102.09 111.64,102 105,109 138.44,109.15 172.49,108.87 172.58,65.29 z M 95.328,94.383 88.06,86.019 88.249,102 z M 79.407,59.05 C 82.569,56.166 83.218,52.511 81.291,48.429 78.374,42.248 71.608,40.825 66.336,45.285 60.965,49.829 62.205,58.09 68.675,60.87 72.547,62.534 76.28,61.901 79.407,59.05 z"></path>
</svg>