<?xml version="1.0" encoding="UTF-8" standalone="yes"?>
<svg xmlns="http://www.w3.org/2000/svg" xmlns:xlink="http://www.w3.org/1999/xlink" width="685pt" height="600pt" viewBox="0 0 685 600" version="1.1">
  <g id="surface1">
    <path style="fill-rule:evenodd;fill:rgb(0.784314%,1.960784%,1.960784%);fill-opacity:1;stroke-width:0.127844;stroke-linecap:butt;stroke-linejoin:miter;stroke:rgb(0.784314%,1.960784%,1.960784%);stroke-opacity:1;stroke-miterlimit:2.613;" d="M 197.47792 164.770813 L 104.122664 2.943062 L 103.54792 2.111229 L 102.848723 1.41163 L 102.032993 0.837484 L 101.118832 0.408005 L 100.158285 0.153708 L 99.158139 0.0644219 L 98.157993 0.153708 L 97.197445 0.408005 L 96.283285 0.837484 L 95.466423 1.41163 L 94.763832 2.111229 L 94.177774 2.943062 L 0.837226 164.770813 L 0.408431 165.673849 L 0.150474 166.645828 L 0.0644891 167.646062 L 0.150474 168.634995 L 0.408431 169.606974 L 0.837226 170.50549 L 1.411971 171.333932 L 2.111168 172.036922 L 2.926898 172.607677 L 3.845584 173.037156 L 4.802737 173.294844 L 5.802883 173.38074 L 192.513394 173.38074 L 193.497701 173.294844 L 194.474088 173.037156 L 195.372409 172.607677 L 196.200584 172.036922 L 196.904307 171.333932 L 197.47792 170.50549 L 197.904453 169.606974 L 198.161277 168.634995 L 198.247263 167.646062 L 198.161277 166.645828 L 197.904453 165.673849 Z M 197.47792 164.770813" transform="matrix(3.452621,0,0,3.456221,0,0)"></path>
    <path style="fill-rule:evenodd;fill:rgb(92.156863%,74.901961%,16.862745%);fill-opacity:1;stroke-width:0.127844;stroke-linecap:butt;stroke-linejoin:miter;stroke:rgb(0.784314%,1.960784%,1.960784%);stroke-opacity:1;stroke-miterlimit:2.613;" d="M 99.158139 18.114979 L 181.861387 161.489818 L 16.454891 161.489818 Z M 99.158139 18.114979" transform="matrix(3.452621,0,0,3.456221,0,0)"></path>
    <path style="stroke:none;fill-rule:evenodd;fill:rgb(0.784314%,1.960784%,1.960784%);fill-opacity:1;" d="M 588.648438 535.234375 L 388.628906 535.234375 L 388.628906 343.386719 L 332.320312 343.386719 L 425.285156 252.1875 L 532.773438 438.015625 Z M 588.648438 535.234375"></path>
    <path style="stroke:none;fill-rule:evenodd;fill:rgb(0.784314%,1.960784%,1.960784%);fill-opacity:1;" d="M 248.121094 368.203125 L 248.121094 371.035156 L 245.304688 372.628906 L 242.484375 371.035156 L 242.5 364.960938 L 234.90625 360.574219 L 234.90625 369.308594 L 240.164062 372.375 L 240.136719 375.613281 L 237.359375 377.246094 L 234.90625 375.828125 L 234.90625 378.785156 L 232.097656 380.378906 L 229.28125 378.785156 L 229.28125 375.828125 L 226.824219 377.246094 L 224.046875 375.613281 L 224.019531 372.375 L 229.28125 369.347656 L 229.28125 360.558594 L 221.714844 364.949219 L 221.699219 371.023438 L 218.882812 372.628906 L 216.0625 371.023438 L 216.0625 368.203125 L 213.515625 369.671875 L 210.722656 368.039062 L 210.707031 364.800781 L 213.257812 363.328125 L 210.800781 361.910156 L 210.832031 358.667969 L 213.621094 357.035156 L 218.882812 360.074219 L 226.460938 355.6875 L 218.894531 351.3125 L 213.648438 354.363281 L 210.855469 352.730469 L 210.828125 349.488281 L 213.285156 348.070312 L 210.707031 346.585938 L 210.722656 343.347656 L 213.511719 341.699219 L 216.089844 343.199219 L 216.089844 340.363281 L 218.910156 338.769531 L 221.726562 340.363281 L 221.742188 346.453125 L 229.28125 350.8125 L 229.28125 342.0625 L 224.019531 339.039062 L 224.046875 335.800781 L 226.824219 334.152344 L 229.28125 335.570312 L 229.28125 332.601562 L 232.097656 330.992188 L 234.90625 332.601562 L 234.90625 335.570312 L 237.359375 334.152344 L 240.136719 335.800781 L 240.164062 339.039062 L 234.90625 342.089844 L 234.90625 350.8125 L 242.472656 346.4375 L 242.457031 340.363281 L 245.277344 338.769531 L 248.09375 340.363281 L 248.09375 343.183594 L 250.671875 341.699219 L 253.464844 343.332031 L 253.492188 346.574219 L 250.902344 348.070312 L 253.355469 349.476562 L 253.328125 352.730469 L 250.535156 354.363281 L 245.261719 351.324219 L 237.710938 355.6875 L 245.289062 360.074219 L 250.5625 357.035156 L 253.355469 358.667969 L 253.382812 361.910156 L 250.929688 363.328125 L 253.492188 364.800781 L 253.464844 368.039062 L 250.671875 369.6875 Z M 248.121094 368.203125"></path>
    <path style="stroke:none;fill-rule:evenodd;fill:rgb(0.784314%,1.960784%,1.960784%);fill-opacity:1;" d="M 303.269531 372.601562 L 303.269531 373.859375 L 302.027344 374.558594 L 300.789062 373.859375 L 300.800781 371.171875 L 297.445312 369.242188 L 297.445312 373.101562 L 299.761719 374.4375 L 299.75 375.871094 L 298.523438 376.597656 L 297.441406 375.964844 L 297.441406 377.273438 L 296.203125 377.976562 L 294.976562 377.273438 L 294.976562 375.964844 L 293.882812 376.597656 L 292.65625 375.871094 L 292.640625 374.4375 L 294.976562 373.117188 L 294.976562 369.242188 L 291.628906 371.15625 L 291.628906 373.84375 L 290.375 374.558594 L 289.136719 373.84375 L 289.136719 372.601562 L 288.015625 373.25 L 286.789062 372.535156 L 286.773438 371.105469 L 287.90625 370.457031 L 286.828125 369.820312 L 286.828125 368.402344 L 288.070312 367.675781 L 290.375 369.023438 L 293.734375 367.09375 L 290.390625 365.164062 L 288.070312 366.5 L 286.84375 365.785156 L 286.828125 364.355469 L 287.921875 363.734375 L 286.773438 363.070312 L 286.789062 361.640625 L 288.015625 360.925781 L 289.148438 361.574219 L 289.148438 360.332031 L 290.390625 359.628906 L 291.628906 360.332031 L 291.644531 363.015625 L 294.976562 364.933594 L 294.976562 361.085938 L 292.640625 359.75 L 292.65625 358.320312 L 293.882812 357.601562 L 294.976562 358.222656 L 294.976562 356.902344 L 296.203125 356.199219 L 297.445312 356.902344 L 297.445312 358.222656 L 298.523438 357.601562 L 299.75 358.320312 L 299.761719 359.75 L 297.445312 361.101562 L 297.445312 364.933594 L 300.789062 363.003906 L 300.773438 360.332031 L 302.015625 359.628906 L 303.257812 360.332031 L 303.257812 361.574219 L 304.402344 360.925781 L 305.628906 361.640625 L 305.644531 363.070312 L 304.496094 363.71875 L 305.578125 364.355469 L 305.578125 365.769531 L 304.335938 366.5 L 302.015625 365.164062 L 298.683594 367.09375 L 302.027344 369.023438 L 304.347656 367.675781 L 305.578125 368.402344 L 305.589844 369.820312 L 304.511719 370.457031 L 305.644531 371.105469 L 305.628906 372.535156 L 304.402344 373.25 Z M 303.269531 372.601562"></path>
    <path style="stroke:none;fill-rule:evenodd;fill:rgb(0.784314%,1.960784%,1.960784%);fill-opacity:1;" d="M 280.8125 359.832031 L 280.8125 361.085938 L 279.574219 361.789062 L 278.332031 361.085938 L 278.347656 358.398438 L 274.988281 356.46875 L 274.988281 360.332031 L 277.320312 361.679688 L 277.308594 363.097656 L 276.082031 363.828125 L 274.988281 363.207031 L 274.988281 364.503906 L 273.746094 365.203125 L 272.519531 364.503906 L 272.519531 363.207031 L 271.425781 363.828125 L 270.199219 363.097656 L 270.199219 361.679688 L 272.519531 360.34375 L 272.519531 356.46875 L 269.175781 358.386719 L 269.175781 361.085938 L 267.933594 361.789062 L 266.695312 361.085938 L 266.695312 359.832031 L 265.5625 360.480469 L 264.332031 359.761719 L 264.320312 358.332031 L 265.453125 357.683594 L 264.375 357.0625 L 264.375 355.632812 L 265.613281 354.902344 L 267.921875 356.253906 L 271.277344 354.324219 L 267.933594 352.390625 L 265.628906 353.726562 L 264.386719 353.011719 L 264.375 351.582031 L 265.464844 350.960938 L 264.320312 350.300781 L 264.332031 348.867188 L 265.558594 348.152344 L 266.707031 348.8125 L 266.707031 347.558594 L 267.949219 346.855469 L 269.175781 347.558594 L 269.1875 350.246094 L 272.519531 352.175781 L 272.519531 348.316406 L 270.199219 346.976562 L 270.199219 345.546875 L 271.425781 344.832031 L 272.519531 345.453125 L 272.519531 344.128906 L 273.746094 343.425781 L 274.988281 344.128906 L 274.988281 345.453125 L 276.082031 344.832031 L 277.308594 345.546875 L 277.320312 346.976562 L 274.988281 348.328125 L 274.988281 352.175781 L 278.332031 350.230469 L 278.320312 347.558594 L 279.574219 346.855469 L 280.800781 347.558594 L 280.800781 348.800781 L 281.945312 348.152344 L 283.175781 348.867188 L 283.1875 350.300781 L 282.042969 350.960938 L 283.121094 351.582031 L 283.121094 353.011719 L 281.894531 353.726562 L 279.558594 352.390625 L 276.230469 354.324219 L 279.574219 356.253906 L 281.894531 354.917969 L 283.121094 355.632812 L 283.132812 357.0625 L 282.054688 357.683594 L 283.1875 358.332031 L 283.175781 359.761719 L 281.949219 360.480469 Z M 280.8125 359.832031"></path>
    <path style="stroke:none;fill-rule:evenodd;fill:rgb(0.784314%,1.960784%,1.960784%);fill-opacity:1;" d="M 291.292969 336.433594 L 291.292969 337.839844 L 289.890625 338.632812 L 288.5 337.839844 L 288.5 334.828125 L 284.738281 332.640625 L 284.738281 336.988281 L 287.339844 338.5 L 287.339844 340.105469 L 285.953125 340.917969 L 284.738281 340.214844 L 284.738281 341.6875 L 283.351562 342.46875 L 281.945312 341.6875 L 281.945312 340.214844 L 280.734375 340.917969 L 279.359375 340.105469 L 279.34375 338.5 L 281.945312 337 L 281.945312 332.640625 L 278.199219 334.8125 L 278.199219 337.839844 L 276.792969 338.621094 L 275.40625 337.839844 L 275.40625 336.433594 L 274.136719 337.164062 L 272.75 336.351562 L 272.75 334.746094 L 274.003906 334.015625 L 272.804688 333.316406 L 272.804688 331.707031 L 274.191406 330.898438 L 276.796875 332.410156 L 280.558594 330.238281 L 276.808594 328.0625 L 274.207031 329.574219 L 272.828125 328.765625 L 272.800781 327.160156 L 274.03125 326.457031 L 272.75 325.714844 L 272.75 324.109375 L 274.136719 323.296875 L 275.417969 324.039062 L 275.417969 322.636719 L 276.808594 321.839844 L 278.210938 322.636719 L 278.210938 325.660156 L 281.945312 327.820312 L 281.945312 323.472656 L 279.34375 321.988281 L 279.359375 320.367188 L 280.734375 319.558594 L 281.949219 320.261719 L 281.949219 318.789062 L 283.351562 317.992188 L 284.738281 318.789062 L 284.738281 320.261719 L 285.953125 319.558594 L 287.34375 320.367188 L 287.34375 321.988281 L 284.738281 323.5 L 284.738281 327.820312 L 288.488281 325.648438 L 288.488281 322.636719 L 289.878906 321.839844 L 291.28125 322.636719 L 291.28125 324.039062 L 292.546875 323.296875 L 293.9375 324.109375 L 293.949219 325.714844 L 292.667969 326.457031 L 293.882812 327.160156 L 293.871094 328.75 L 292.492188 329.574219 L 289.878906 328.0625 L 286.128906 330.238281 L 289.890625 332.410156 L 292.492188 330.898438 L 293.882812 331.707031 L 293.898438 333.316406 L 292.683594 334.015625 L 293.949219 334.746094 L 293.9375 336.351562 L 292.546875 337.164062 Z M 291.292969 336.433594"></path>
    <path style="stroke:none;fill-rule:evenodd;fill:rgb(0.784314%,1.960784%,1.960784%);fill-opacity:1;" d="M 282.285156 395.363281 L 282.285156 397.390625 L 280.261719 398.539062 L 278.25 397.390625 L 278.265625 393.042969 L 272.816406 389.898438 L 272.816406 396.160156 L 276.59375 398.347656 L 276.578125 400.671875 L 274.570312 401.84375 L 272.816406 400.832031 L 272.816406 402.953125 L 270.808594 404.085938 L 268.785156 402.953125 L 268.785156 400.832031 L 267.042969 401.84375 L 265.046875 400.671875 L 265.019531 398.347656 L 268.785156 396.1875 L 268.785156 389.882812 L 263.375 393.03125 L 263.359375 397.375 L 261.339844 398.539062 L 259.328125 397.375 L 259.328125 395.363281 L 257.507812 396.417969 L 255.5 395.242188 L 255.484375 392.921875 L 257.320312 391.867188 L 255.566406 390.855469 L 255.578125 388.535156 L 257.574219 387.359375 L 261.339844 389.546875 L 266.773438 386.402344 L 261.351562 383.269531 L 257.589844 385.457031 L 255.59375 384.265625 L 255.578125 381.957031 L 257.332031 380.945312 L 255.484375 379.878906 L 255.5 377.558594 L 257.507812 376.382812 L 259.34375 377.449219 L 259.34375 375.425781 L 261.363281 374.277344 L 263.375 375.425781 L 263.386719 379.785156 L 268.785156 382.902344 L 268.785156 376.640625 L 265.019531 374.464844 L 265.046875 372.15625 L 267.042969 370.984375 L 268.785156 371.996094 L 268.785156 369.863281 L 270.808594 368.714844 L 272.816406 369.863281 L 272.816406 371.996094 L 274.570312 370.984375 L 276.578125 372.15625 L 276.59375 374.464844 L 272.816406 376.652344 L 272.816406 382.902344 L 278.253906 379.773438 L 278.238281 375.425781 L 280.246094 374.277344 L 282.269531 375.425781 L 282.269531 377.449219 L 284.117188 376.371094 L 286.113281 377.558594 L 286.128906 379.867188 L 284.28125 380.945312 L 286.035156 381.957031 L 286.019531 384.265625 L 284.023438 385.441406 L 280.246094 383.269531 L 274.839844 386.402344 L 280.261719 389.53125 L 284.039062 387.359375 L 286.035156 388.546875 L 286.046875 390.855469 L 284.292969 391.867188 L 286.128906 392.921875 L 286.113281 395.242188 L 284.117188 396.417969 Z M 282.285156 395.363281"></path>
    <path style="stroke:none;fill-rule:evenodd;fill:rgb(0.784314%,1.960784%,1.960784%);fill-opacity:1;" d="M 321.4375 349.125 L 321.4375 350.800781 L 319.765625 351.742188 L 318.105469 350.800781 L 318.105469 347.195312 L 313.601562 344.589844 L 313.601562 349.773438 L 316.714844 351.59375 L 316.703125 353.511719 L 315.058594 354.484375 L 313.601562 353.648438 L 313.601562 355.402344 L 311.929688 356.347656 L 310.253906 355.402344 L 310.253906 353.648438 L 308.800781 354.484375 L 307.152344 353.511719 L 307.140625 351.59375 L 310.253906 349.800781 L 310.253906 344.589844 L 305.765625 347.179688 L 305.765625 350.800781 L 304.089844 351.742188 L 302.417969 350.800781 L 302.417969 349.109375 L 300.894531 349.988281 L 299.25 349.015625 L 299.234375 347.097656 L 300.746094 346.222656 L 299.289062 345.386719 L 299.304688 343.453125 L 300.960938 342.480469 L 304.078125 344.292969 L 308.597656 341.699219 L 304.089844 339.09375 L 300.976562 340.902344 L 299.332031 339.929688 L 299.304688 338.011719 L 300.761719 337.164062 L 299.234375 336.285156 L 299.25 334.367188 L 300.894531 333.382812 L 302.433594 334.273438 L 302.433594 332.601562 L 304.105469 331.640625 L 305.777344 332.601562 L 305.777344 336.21875 L 310.253906 338.796875 L 310.253906 333.597656 L 307.140625 331.804688 L 307.152344 329.886719 L 308.796875 328.914062 L 310.253906 329.75 L 310.253906 327.980469 L 311.925781 327.039062 L 313.601562 327.980469 L 313.601562 329.75 L 315.054688 328.914062 L 316.703125 329.886719 L 316.714844 331.804688 L 313.601562 333.625 L 313.601562 338.796875 L 318.089844 336.203125 L 318.089844 332.601562 L 319.75 331.640625 L 321.421875 332.601562 L 321.421875 334.273438 L 322.960938 333.382812 L 324.605469 334.367188 L 324.621094 336.285156 L 323.09375 337.164062 L 324.550781 338.011719 L 324.539062 339.929688 L 322.878906 340.902344 L 319.75 339.105469 L 315.273438 341.699219 L 319.765625 344.292969 L 322.894531 342.480469 L 324.550781 343.46875 L 324.566406 345.386719 L 323.109375 346.222656 L 324.621094 347.097656 L 324.605469 349.015625 L 322.960938 350.003906 Z M 321.4375 349.125"></path>
    <path style="stroke:none;fill-rule:evenodd;fill:rgb(0.784314%,1.960784%,1.960784%);fill-opacity:1;" d="M 262.5 329.453125 L 262.5 331.128906 L 260.828125 332.085938 L 259.167969 331.128906 L 259.167969 327.523438 L 254.664062 324.917969 L 254.664062 330.117188 L 257.777344 331.925781 L 257.765625 333.839844 L 256.121094 334.828125 L 254.664062 333.976562 L 254.664062 335.730469 L 252.992188 336.675781 L 251.316406 335.730469 L 251.316406 333.976562 L 249.863281 334.828125 L 248.214844 333.839844 L 248.203125 331.925781 L 251.316406 330.128906 L 251.316406 324.917969 L 246.828125 327.511719 L 246.8125 331.128906 L 245.140625 332.074219 L 243.480469 331.128906 L 243.480469 329.453125 L 241.957031 330.332031 L 240.300781 329.359375 L 240.285156 327.429688 L 241.808594 326.550781 L 240.351562 325.714844 L 240.367188 323.796875 L 242.023438 322.824219 L 245.140625 324.632812 L 249.644531 322.027344 L 245.152344 319.421875 L 242.039062 321.230469 L 240.378906 320.261719 L 240.367188 318.34375 L 241.824219 317.503906 L 240.285156 316.613281 L 240.300781 314.699219 L 241.957031 313.726562 L 243.496094 314.601562 L 243.496094 312.929688 L 245.167969 311.984375 L 246.828125 312.929688 L 246.839844 316.546875 L 251.316406 319.125 L 251.316406 313.929688 L 248.203125 312.144531 L 248.214844 310.214844 L 249.863281 309.242188 L 251.316406 310.082031 L 251.316406 308.3125 L 252.992188 307.367188 L 254.664062 308.3125 L 254.664062 310.082031 L 256.121094 309.242188 L 257.765625 310.214844 L 257.777344 312.144531 L 254.664062 313.953125 L 254.664062 319.125 L 259.15625 316.535156 L 259.15625 312.929688 L 260.8125 311.984375 L 262.484375 312.929688 L 262.484375 314.601562 L 264.023438 313.726562 L 265.667969 314.699219 L 265.683594 316.613281 L 264.160156 317.503906 L 265.601562 318.34375 L 265.585938 320.261719 L 263.929688 321.230469 L 260.8125 319.4375 L 256.320312 322.027344 L 260.828125 324.621094 L 263.957031 322.824219 L 265.601562 323.796875 L 265.628906 325.726562 L 264.171875 326.550781 L 265.683594 327.429688 L 265.667969 329.359375 L 264.023438 330.332031 Z M 262.5 329.453125"></path>
    <path style="stroke:none;fill-rule:evenodd;fill:rgb(0.784314%,1.960784%,1.960784%);fill-opacity:1;" d="M 312.953125 313.929688 L 312.953125 315.75 L 311.132812 316.777344 L 309.324219 315.75 L 309.339844 311.835938 L 304.457031 309.027344 L 304.457031 314.644531 L 307.84375 316.613281 L 307.8125 318.695312 L 306.035156 319.746094 L 304.457031 318.84375 L 304.457031 320.746094 L 302.636719 321.773438 L 300.828125 320.746094 L 300.828125 318.84375 L 299.265625 319.746094 L 297.46875 318.695312 L 297.457031 316.613281 L 300.828125 314.671875 L 300.828125 309.011719 L 295.972656 311.835938 L 295.957031 315.75 L 294.152344 316.777344 L 292.332031 315.75 L 292.332031 313.929688 L 290.699219 314.875 L 288.90625 313.820312 L 288.890625 311.742188 L 290.523438 310.78125 L 288.957031 309.878906 L 288.972656 307.796875 L 290.765625 306.746094 L 294.136719 308.703125 L 299.019531 305.882812 L 294.152344 303.074219 L 290.78125 305.03125 L 288.984375 303.976562 L 288.972656 301.898438 L 290.550781 300.980469 L 288.890625 300.023438 L 288.90625 297.941406 L 290.699219 296.890625 L 292.359375 297.847656 L 292.359375 296.027344 L 294.164062 295 L 295.972656 296.027344 L 295.984375 299.941406 L 300.828125 302.75 L 300.828125 297.121094 L 297.457031 295.175781 L 297.46875 293.097656 L 299.265625 292.042969 L 300.828125 292.949219 L 300.828125 291.03125 L 302.636719 290.003906 L 304.457031 291.03125 L 304.457031 292.949219 L 306.035156 292.042969 L 307.8125 293.097656 L 307.84375 295.175781 L 304.457031 297.132812 L 304.457031 302.75 L 309.324219 299.941406 L 309.3125 296.027344 L 311.117188 295 L 312.925781 296.027344 L 312.925781 297.847656 L 314.585938 296.890625 L 316.378906 297.941406 L 316.394531 300.023438 L 314.734375 300.980469 L 316.3125 301.898438 L 316.296875 303.976562 L 314.503906 305.03125 L 311.117188 303.074219 L 306.265625 305.882812 L 311.132812 308.703125 L 314.519531 306.746094 L 316.3125 307.796875 L 316.324219 309.878906 L 314.746094 310.796875 L 316.394531 311.742188 L 316.378906 313.820312 L 314.585938 314.886719 Z M 312.953125 313.929688"></path>
    <path style="stroke:none;fill-rule:evenodd;fill:rgb(0.784314%,1.960784%,1.960784%);fill-opacity:1;" d="M 361.640625 306.136719 L 361.640625 307.703125 L 360.074219 308.59375 L 358.511719 307.703125 L 358.527344 304.328125 L 354.289062 301.886719 L 354.289062 306.746094 L 357.230469 308.445312 L 357.203125 310.242188 L 355.652344 311.160156 L 354.289062 310.378906 L 354.289062 312.011719 L 352.738281 312.914062 L 351.175781 312.011719 L 351.175781 310.378906 L 349.8125 311.160156 L 348.261719 310.242188 L 348.246094 308.445312 L 351.175781 306.773438 L 351.175781 301.871094 L 346.964844 304.316406 L 346.953125 307.703125 L 345.386719 308.59375 L 343.824219 307.703125 L 343.824219 306.125 L 342.40625 306.949219 L 340.855469 306.03125 L 340.828125 304.234375 L 342.257812 303.410156 L 340.894531 302.628906 L 340.910156 300.832031 L 342.460938 299.914062 L 345.386719 301.613281 L 349.609375 299.171875 L 345.386719 296.726562 L 342.472656 298.429688 L 340.921875 297.511719 L 340.910156 295.714844 L 342.273438 294.933594 L 340.828125 294.09375 L 340.855469 292.300781 L 342.40625 291.382812 L 343.835938 292.21875 L 343.835938 290.640625 L 345.402344 289.746094 L 346.964844 290.640625 L 346.980469 294.027344 L 351.175781 296.457031 L 351.175781 291.585938 L 348.246094 289.910156 L 348.261719 288.101562 L 349.8125 287.183594 L 351.175781 287.980469 L 351.175781 286.320312 L 352.738281 285.425781 L 354.289062 286.320312 L 354.289062 287.980469 L 355.652344 287.183594 L 357.203125 288.101562 L 357.230469 289.910156 L 354.289062 291.597656 L 354.289062 296.457031 L 358.5 294.015625 L 358.5 290.640625 L 360.0625 289.746094 L 361.628906 290.640625 L 361.628906 292.21875 L 363.058594 291.382812 L 364.609375 292.300781 L 364.621094 294.09375 L 363.191406 294.917969 L 364.554688 295.714844 L 364.539062 297.511719 L 362.988281 298.429688 L 360.050781 296.742188 L 355.855469 299.171875 L 360.0625 301.601562 L 363.003906 299.914062 L 364.554688 300.832031 L 364.566406 302.628906 L 363.207031 303.425781 L 364.621094 304.234375 L 364.609375 306.03125 L 363.058594 306.949219 Z M 361.640625 306.136719"></path>
    <path style="stroke:none;fill-rule:evenodd;fill:rgb(0.784314%,1.960784%,1.960784%);fill-opacity:1;" d="M 339.078125 325.226562 L 339.078125 326.589844 L 337.726562 327.363281 L 336.378906 326.589844 L 336.378906 323.675781 L 332.738281 321.554688 L 332.738281 325.769531 L 335.261719 327.238281 L 335.246094 328.792969 L 333.910156 329.574219 L 332.738281 328.902344 L 332.738281 330.316406 L 331.390625 331.074219 L 330.027344 330.316406 L 330.027344 328.902344 L 328.855469 329.574219 L 327.519531 328.792969 L 327.503906 327.238281 L 330.027344 325.78125 L 330.027344 321.554688 L 326.398438 323.660156 L 326.386719 326.589844 L 325.035156 327.363281 L 323.6875 326.589844 L 323.6875 325.226562 L 322.460938 325.945312 L 321.113281 325.148438 L 321.097656 323.59375 L 322.339844 322.878906 L 321.164062 322.203125 L 321.164062 320.652344 L 322.5 319.855469 L 325.035156 321.328125 L 328.679688 319.21875 L 325.035156 317.113281 L 322.515625 318.574219 L 321.179688 317.789062 L 321.164062 316.238281 L 322.339844 315.546875 L 321.097656 314.832031 L 321.113281 313.28125 L 322.460938 312.496094 L 323.703125 313.210938 L 323.703125 311.847656 L 325.050781 311.078125 L 326.398438 311.847656 L 326.398438 314.777344 L 330.027344 316.871094 L 330.027344 312.671875 L 327.503906 311.214844 L 327.519531 309.660156 L 328.851562 308.878906 L 330.027344 309.539062 L 330.027344 308.109375 L 331.390625 307.351562 L 332.738281 308.109375 L 332.738281 309.539062 L 333.910156 308.878906 L 335.246094 309.660156 L 335.261719 311.214844 L 332.738281 312.6875 L 332.738281 316.871094 L 336.367188 314.765625 L 336.367188 311.847656 L 337.714844 311.078125 L 339.0625 311.847656 L 339.0625 313.210938 L 340.316406 312.496094 L 341.652344 313.28125 L 341.667969 314.832031 L 340.425781 315.546875 L 341.597656 316.238281 L 341.585938 317.789062 L 340.238281 318.574219 L 337.714844 317.113281 L 334.085938 319.21875 L 337.726562 321.328125 L 340.261719 319.855469 L 341.597656 320.652344 L 341.613281 322.203125 L 340.4375 322.878906 L 341.667969 323.59375 L 341.652344 325.148438 L 340.316406 325.945312 Z M 339.078125 325.226562"></path>
    <path style="stroke:none;fill-rule:evenodd;fill:rgb(0.784314%,1.960784%,1.960784%);fill-opacity:1;" d="M 382.492188 283.941406 L 382.492188 285.683594 L 380.765625 286.65625 L 379.039062 285.683594 L 379.050781 281.957031 L 374.386719 279.269531 L 374.386719 284.632812 L 377.621094 286.496094 L 377.59375 288.480469 L 375.894531 289.492188 L 374.386719 288.628906 L 374.386719 290.4375 L 372.660156 291.410156 L 370.945312 290.4375 L 370.945312 288.628906 L 369.449219 289.492188 L 367.734375 288.480469 L 367.722656 286.496094 L 370.945312 284.644531 L 370.945312 279.269531 L 366.304688 281.945312 L 366.292969 285.683594 L 364.566406 286.65625 L 362.851562 285.683594 L 362.851562 283.941406 L 361.273438 284.847656 L 359.574219 283.847656 L 359.546875 281.863281 L 361.125 280.957031 L 359.628906 280.082031 L 359.628906 278.109375 L 361.34375 277.097656 L 364.566406 278.972656 L 369.21875 276.273438 L 364.578125 273.601562 L 361.371094 275.464844 L 359.65625 274.464844 L 359.640625 272.480469 L 361.140625 271.601562 L 359.546875 270.699219 L 359.574219 268.714844 L 361.273438 267.699219 L 362.867188 268.617188 L 362.867188 266.890625 L 364.578125 265.90625 L 366.304688 266.890625 L 366.304688 270.617188 L 370.945312 273.289062 L 370.945312 267.917969 L 367.722656 266.082031 L 367.734375 264.082031 L 369.449219 263.082031 L 370.945312 263.949219 L 370.945312 262.113281 L 372.660156 261.140625 L 374.382812 262.113281 L 374.382812 263.949219 L 375.894531 263.082031 L 377.59375 264.082031 L 377.621094 266.082031 L 374.386719 267.945312 L 374.386719 273.289062 L 379.023438 270.605469 L 379.011719 266.878906 L 380.75 265.90625 L 382.476562 266.878906 L 382.476562 268.617188 L 384.054688 267.699219 L 385.753906 268.714844 L 385.78125 270.699219 L 384.191406 271.601562 L 385.6875 272.480469 L 385.6875 274.464844 L 383.976562 275.464844 L 380.738281 273.601562 L 376.113281 276.273438 L 380.75 278.960938 L 383.988281 277.097656 L 385.6875 278.109375 L 385.703125 280.082031 L 384.21875 280.957031 L 385.78125 281.863281 L 385.753906 283.847656 L 384.054688 284.847656 Z M 382.492188 283.941406"></path>
    <path style="stroke:none;fill-rule:evenodd;fill:rgb(0.784314%,1.960784%,1.960784%);fill-opacity:1;" d="M 247.933594 400.710938 L 247.933594 402.117188 L 246.542969 402.925781 L 245.140625 402.117188 L 245.140625 399.105469 L 241.378906 396.917969 L 241.378906 401.265625 L 243.996094 402.789062 L 243.980469 404.398438 L 242.59375 405.207031 L 241.378906 404.503906 L 241.378906 405.976562 L 239.976562 406.773438 L 238.574219 405.976562 L 238.574219 404.503906 L 237.359375 405.207031 L 235.96875 404.398438 L 235.957031 402.789062 L 238.574219 401.277344 L 238.574219 396.917969 L 234.824219 399.089844 L 234.808594 402.117188 L 233.40625 402.925781 L 232.019531 402.117188 L 232.019531 400.710938 L 230.75 401.441406 L 229.359375 400.644531 L 229.347656 399.023438 L 230.613281 398.292969 L 229.402344 397.59375 L 229.414062 395.972656 L 230.789062 395.175781 L 233.40625 396.675781 L 237.183594 394.5 L 233.421875 392.328125 L 230.804688 393.839844 L 229.429688 393.03125 L 229.414062 391.421875 L 230.628906 390.722656 L 229.347656 389.976562 L 229.359375 388.359375 L 230.75 387.546875 L 232.03125 388.289062 L 232.03125 386.886719 L 233.421875 386.089844 L 234.824219 386.886719 L 234.835938 389.910156 L 238.574219 392.070312 L 238.574219 387.722656 L 235.957031 386.226562 L 235.96875 384.617188 L 237.359375 383.808594 L 238.574219 384.511719 L 238.574219 383.027344 L 239.976562 382.230469 L 241.378906 383.027344 L 241.378906 384.511719 L 242.59375 383.808594 L 243.980469 384.617188 L 243.996094 386.226562 L 241.378906 387.75 L 241.378906 392.070312 L 245.140625 389.898438 L 245.128906 386.886719 L 246.53125 386.089844 L 247.917969 386.886719 L 247.917969 388.289062 L 249.199219 387.546875 L 250.589844 388.359375 L 250.605469 389.976562 L 249.324219 390.722656 L 250.535156 391.421875 L 250.523438 393.03125 L 249.148438 393.839844 L 246.515625 392.328125 L 242.765625 394.5 L 246.542969 396.675781 L 249.160156 395.175781 L 250.535156 395.984375 L 250.550781 397.59375 L 249.335938 398.292969 L 250.605469 399.023438 L 250.589844 400.644531 L 249.199219 401.453125 Z M 247.933594 400.710938"></path>
    <path style="stroke:none;fill-rule:evenodd;fill:rgb(0.784314%,1.960784%,1.960784%);fill-opacity:1;" d="M 280.828125 306.757812 L 280.828125 308.027344 L 279.574219 308.742188 L 278.320312 308.027344 L 278.320312 305.3125 L 274.933594 303.34375 L 274.933594 307.257812 L 277.28125 308.621094 L 277.265625 310.066406 L 276.027344 310.808594 L 274.933594 310.175781 L 274.933594 311.496094 L 273.679688 312.214844 L 272.410156 311.496094 L 272.410156 310.175781 L 271.320312 310.808594 L 270.078125 310.066406 L 270.066406 308.621094 L 272.410156 307.273438 L 272.410156 303.34375 L 269.039062 305.300781 L 269.027344 308.027344 L 267.769531 308.742188 L 266.515625 308.027344 L 266.515625 306.757812 L 265.371094 307.421875 L 264.128906 306.691406 L 264.117188 305.246094 L 265.25 304.585938 L 264.171875 303.949219 L 264.171875 302.507812 L 265.410156 301.777344 L 267.757812 303.140625 L 271.15625 301.167969 L 267.785156 299.210938 L 265.425781 300.574219 L 264.183594 299.847656 L 264.167969 298.402344 L 265.261719 297.765625 L 264.117188 297.105469 L 264.128906 295.660156 L 265.371094 294.917969 L 266.53125 295.59375 L 266.53125 294.324219 L 267.785156 293.609375 L 269.039062 294.324219 L 269.039062 297.050781 L 272.410156 298.996094 L 272.410156 295.082031 L 270.0625 293.730469 L 270.078125 292.285156 L 271.320312 291.558594 L 272.410156 292.191406 L 272.410156 290.855469 L 273.679688 290.140625 L 274.933594 290.855469 L 274.933594 292.191406 L 276.027344 291.558594 L 277.265625 292.285156 L 277.28125 293.730469 L 274.933594 295.09375 L 274.933594 298.996094 L 278.320312 297.039062 L 278.304688 294.324219 L 279.558594 293.609375 L 280.828125 294.324219 L 280.828125 295.59375 L 281.972656 294.917969 L 283.214844 295.660156 L 283.226562 297.105469 L 282.066406 297.765625 L 283.171875 298.402344 L 283.160156 299.847656 L 281.917969 300.574219 L 279.558594 299.226562 L 276.1875 301.167969 L 279.574219 303.128906 L 281.933594 301.777344 L 283.171875 302.507812 L 283.1875 303.949219 L 282.082031 304.585938 L 283.226562 305.246094 L 283.214844 306.691406 L 281.972656 307.421875 Z M 280.828125 306.757812"></path>
    <path style="stroke:none;fill-rule:evenodd;fill:rgb(0.784314%,1.960784%,1.960784%);fill-opacity:1;" d="M 335.015625 294.015625 L 335.015625 295.285156 L 333.761719 296 L 332.496094 295.285156 L 332.496094 292.570312 L 329.109375 290.597656 L 329.109375 294.515625 L 331.46875 295.878906 L 331.457031 297.320312 L 330.203125 298.050781 L 329.109375 297.429688 L 329.109375 298.738281 L 327.855469 299.453125 L 326.601562 298.738281 L 326.601562 297.429688 L 325.507812 298.050781 L 324.253906 297.320312 L 324.253906 295.878906 L 326.601562 294.527344 L 326.601562 290.597656 L 323.214844 292.554688 L 323.214844 295.285156 L 321.949219 296 L 320.707031 295.285156 L 320.707031 294.015625 L 319.5625 294.675781 L 318.320312 293.945312 L 318.308594 292.503906 L 319.441406 291.828125 L 318.347656 291.207031 L 318.359375 289.761719 L 319.601562 289.019531 L 321.949219 290.382812 L 325.347656 288.425781 L 321.960938 286.46875 L 319.617188 287.832031 L 318.375 287.101562 L 318.359375 285.65625 L 319.453125 285.023438 L 318.308594 284.359375 L 318.320312 282.902344 L 319.5625 282.175781 L 320.707031 282.835938 L 320.707031 281.578125 L 321.960938 280.863281 L 323.230469 281.578125 L 323.230469 284.308594 L 326.601562 286.25 L 326.601562 282.335938 L 324.253906 280.984375 L 324.253906 279.527344 L 325.507812 278.796875 L 326.601562 279.433594 L 326.601562 278.109375 L 327.855469 277.394531 L 329.109375 278.109375 L 329.109375 279.433594 L 330.203125 278.796875 L 331.457031 279.527344 L 331.46875 280.984375 L 329.109375 282.347656 L 329.109375 286.25 L 332.496094 284.292969 L 332.496094 281.578125 L 333.75 280.863281 L 335.003906 281.578125 L 335.003906 282.835938 L 336.152344 282.175781 L 337.40625 282.902344 L 337.417969 284.347656 L 336.257812 285.023438 L 337.351562 285.65625 L 337.335938 287.101562 L 336.109375 287.832031 L 333.734375 286.480469 L 330.378906 288.425781 L 333.761719 290.382812 L 336.109375 289.019531 L 337.351562 289.761719 L 337.363281 291.207031 L 336.273438 291.839844 L 337.417969 292.503906 L 337.40625 293.945312 L 336.152344 294.675781 Z M 335.015625 294.015625"></path>
    <path style="stroke:none;fill-rule:evenodd;fill:rgb(0.784314%,1.960784%,1.960784%);fill-opacity:1;" d="M 382.492188 253.996094 L 382.492188 255.0625 L 381.4375 255.660156 L 380.386719 255.0625 L 380.386719 252.796875 L 377.554688 251.148438 L 377.554688 254.417969 L 379.523438 255.5625 L 379.523438 256.765625 L 378.472656 257.371094 L 377.554688 256.847656 L 377.554688 257.953125 L 376.515625 258.546875 L 375.464844 257.953125 L 375.464844 256.847656 L 374.546875 257.371094 L 373.507812 256.765625 L 373.496094 255.5625 L 375.464844 254.429688 L 375.464844 251.148438 L 372.632812 252.78125 L 372.632812 255.050781 L 371.578125 255.660156 L 370.527344 255.050781 L 370.527344 253.996094 L 369.582031 254.550781 L 368.53125 253.945312 L 368.53125 252.730469 L 369.476562 252.175781 L 368.574219 251.648438 L 368.574219 250.445312 L 369.609375 249.824219 L 371.578125 250.972656 L 374.414062 249.328125 L 371.578125 247.691406 L 369.625 248.839844 L 368.585938 248.21875 L 368.585938 247.019531 L 369.488281 246.492188 L 368.53125 245.925781 L 368.53125 244.722656 L 369.582031 244.113281 L 370.542969 244.667969 L 370.542969 243.617188 L 371.59375 243.007812 L 372.632812 243.617188 L 372.644531 245.882812 L 375.464844 247.503906 L 375.464844 244.25 L 373.496094 243.117188 L 373.507812 241.902344 L 374.546875 241.292969 L 375.464844 241.820312 L 375.464844 240.699219 L 376.515625 240.105469 L 377.554688 240.699219 L 377.554688 241.820312 L 378.472656 241.292969 L 379.523438 241.902344 L 379.523438 243.117188 L 377.554688 244.25 L 377.554688 247.503906 L 380.386719 245.871094 L 380.386719 243.601562 L 381.425781 243.007812 L 382.476562 243.601562 L 382.476562 244.667969 L 383.449219 244.113281 L 384.488281 244.722656 L 384.5 245.925781 L 383.53125 246.492188 L 384.449219 247.019531 L 384.433594 248.21875 L 383.394531 248.828125 L 381.425781 247.707031 L 378.605469 249.328125 L 381.441406 250.960938 L 383.410156 249.824219 L 384.445312 250.445312 L 384.445312 251.648438 L 383.542969 252.175781 L 384.5 252.730469 L 384.488281 253.945312 L 383.449219 254.550781 Z M 382.492188 253.996094"></path>
    <path style="stroke:none;fill-rule:evenodd;fill:rgb(0.784314%,1.960784%,1.960784%);fill-opacity:1;" d="M 403.421875 265.5 L 403.421875 266.554688 L 402.371094 267.148438 L 401.320312 266.554688 L 401.320312 264.285156 L 398.488281 262.652344 L 398.488281 265.90625 L 400.457031 267.054688 L 400.441406 268.269531 L 399.402344 268.875 L 398.484375 268.335938 L 398.484375 269.441406 L 397.433594 270.050781 L 396.382812 269.441406 L 396.382812 268.335938 L 395.464844 268.875 L 394.425781 268.269531 L 394.425781 267.054688 L 396.382812 265.917969 L 396.382812 262.652344 L 393.5625 264.273438 L 393.5625 266.554688 L 392.496094 267.148438 L 391.445312 266.554688 L 391.445312 265.5 L 390.503906 266.039062 L 389.449219 265.433594 L 389.449219 264.21875 L 390.40625 263.679688 L 389.492188 263.152344 L 389.492188 261.9375 L 390.542969 261.316406 L 392.496094 262.460938 L 395.332031 260.828125 L 392.511719 259.195312 L 390.542969 260.328125 L 389.515625 259.722656 L 389.503906 258.507812 L 390.421875 257.980469 L 389.449219 257.425781 L 389.449219 256.210938 L 390.5 255.605469 L 391.460938 256.15625 L 391.460938 255.105469 L 392.511719 254.511719 L 393.5625 255.105469 L 393.578125 257.371094 L 396.382812 259.007812 L 396.382812 255.738281 L 394.425781 254.605469 L 394.425781 253.402344 L 395.464844 252.78125 L 396.382812 253.308594 L 396.382812 252.203125 L 397.433594 251.609375 L 398.484375 252.203125 L 398.484375 253.308594 L 399.402344 252.78125 L 400.441406 253.402344 L 400.457031 254.605469 L 398.488281 255.753906 L 398.488281 259.007812 L 401.304688 257.371094 L 401.304688 255.105469 L 402.355469 254.511719 L 403.394531 255.105469 L 403.394531 256.15625 L 404.367188 255.605469 L 405.40625 256.210938 L 405.417969 257.425781 L 404.460938 257.980469 L 405.363281 258.507812 L 405.363281 259.707031 L 404.3125 260.328125 L 402.34375 259.195312 L 399.539062 260.828125 L 402.359375 262.460938 L 404.328125 261.316406 L 405.363281 261.9375 L 405.378906 263.152344 L 404.460938 263.679688 L 405.417969 264.230469 L 405.40625 265.433594 L 404.367188 266.039062 Z M 403.421875 265.5"></path>
    <path style="stroke:none;fill-rule:evenodd;fill:rgb(0.784314%,1.960784%,1.960784%);fill-opacity:1;" d="M 421.0625 244.859375 L 421.0625 245.9375 L 418.863281 247.179688 L 416.667969 245.9375 L 416.679688 241.199219 L 410.746094 237.769531 L 410.746094 244.601562 L 414.859375 246.976562 L 414.832031 249.515625 L 412.660156 250.785156 L 410.746094 249.691406 L 410.746094 251.984375 L 408.546875 253.242188 L 406.363281 251.984375 L 406.363281 249.691406 L 404.449219 250.785156 L 402.261719 249.515625 L 402.25 246.976562 L 406.363281 244.628906 L 406.363281 237.769531 L 400.453125 241.183594 L 400.441406 245.9375 L 398.242188 247.179688 L 396.042969 245.9375 L 396.042969 243.722656 L 394.046875 244.882812 L 391.878906 243.601562 L 391.847656 241.0625 L 393.84375 239.917969 L 391.945312 238.808594 L 391.957031 236.285156 L 394.140625 235 L 398.230469 237.390625 L 404.164062 233.960938 L 398.257812 230.546875 L 394.15625 232.921875 L 391.984375 231.640625 L 391.972656 229.117188 L 393.871094 228.007812 L 391.847656 226.847656 L 391.878906 224.324219 L 394.046875 223.039062 L 396.058594 224.203125 L 396.058594 222 L 398.257812 220.757812 L 400.453125 222 L 400.46875 226.753906 L 406.363281 230.15625 L 406.363281 223.324219 L 402.25 220.960938 L 402.261719 218.4375 L 404.449219 217.152344 L 405.378906 217.695312 L 410.746094 226.996094 L 410.746094 230.15625 L 412.121094 229.359375 L 414.304688 233.164062 L 412.945312 233.960938 L 415.683594 235.542969 Z M 421.0625 244.859375"></path>
    <path style="stroke:none;fill-rule:evenodd;fill:rgb(0.784314%,1.960784%,1.960784%);fill-opacity:1;" d="M 307.949219 417.613281 L 307.949219 419.410156 L 306.15625 420.4375 L 304.363281 419.410156 L 304.363281 415.550781 L 299.535156 412.742188 L 299.535156 418.316406 L 302.878906 420.273438 L 302.863281 422.328125 L 301.085938 423.378906 L 299.535156 422.476562 L 299.535156 424.351562 L 297.738281 425.378906 L 295.945312 424.351562 L 295.945312 422.476562 L 294.394531 423.378906 L 292.613281 422.328125 L 292.601562 420.273438 L 295.945312 418.34375 L 295.945312 412.742188 L 291.132812 415.535156 L 291.117188 419.410156 L 289.324219 420.4375 L 287.542969 419.410156 L 287.542969 417.613281 L 285.910156 418.546875 L 284.132812 417.507812 L 284.117188 415.453125 L 285.75 414.507812 L 284.183594 413.605469 L 284.199219 411.539062 L 285.980469 410.5 L 289.308594 412.445312 L 294.152344 409.648438 L 289.335938 406.867188 L 285.992188 408.796875 L 284.210938 407.746094 L 284.199219 405.691406 L 285.761719 404.789062 L 284.117188 403.84375 L 284.132812 401.777344 L 285.910156 400.726562 L 287.554688 401.683594 L 287.554688 399.886719 L 289.351562 398.863281 L 291.128906 399.886719 L 291.144531 403.761719 L 295.945312 406.542969 L 295.945312 400.96875 L 292.601562 399.039062 L 292.613281 396.972656 L 294.394531 395.933594 L 295.945312 396.835938 L 295.945312 394.933594 L 297.738281 393.90625 L 299.535156 394.933594 L 299.535156 396.835938 L 301.085938 395.933594 L 302.863281 396.972656 L 302.878906 399.039062 L 299.535156 400.980469 L 299.535156 406.53125 L 304.347656 403.75 L 304.347656 399.886719 L 306.140625 398.863281 L 307.921875 399.886719 L 307.921875 401.683594 L 309.566406 400.726562 L 311.347656 401.777344 L 311.363281 403.84375 L 309.714844 404.789062 L 311.28125 405.691406 L 311.265625 407.746094 L 309.488281 408.796875 L 306.128906 406.867188 L 301.328125 409.648438 L 306.140625 412.429688 L 309.5 410.5 L 311.28125 411.550781 L 311.292969 413.605469 L 309.730469 414.507812 L 311.363281 415.453125 L 311.347656 417.519531 L 309.566406 418.546875 Z M 307.949219 417.613281"></path>
    <path style="stroke:none;fill-rule:evenodd;fill:rgb(0.784314%,1.960784%,1.960784%);fill-opacity:1;" d="M 400.859375 213.101562 L 400.859375 214.195312 L 399.78125 214.804688 L 398.6875 214.195312 L 398.703125 211.847656 L 395.761719 210.160156 L 395.761719 213.535156 L 397.800781 214.710938 L 397.785156 215.953125 L 396.707031 216.585938 L 395.761719 216.046875 L 395.761719 217.179688 L 394.695312 217.800781 L 393.605469 217.179688 L 393.605469 216.046875 L 392.660156 216.585938 L 391.582031 215.953125 L 391.582031 214.710938 L 393.605469 213.550781 L 393.605469 210.160156 L 390.675781 211.847656 L 390.675781 214.195312 L 389.597656 214.804688 L 388.519531 214.195312 L 388.519531 213.101562 L 387.523438 213.671875 L 386.457031 213.035156 L 386.441406 211.792969 L 387.425781 211.226562 L 386.484375 210.671875 L 386.496094 209.429688 L 387.574219 208.796875 L 389.585938 209.972656 L 392.523438 208.285156 L 389.597656 206.597656 L 387.574219 207.769531 L 386.511719 207.136719 L 386.496094 205.894531 L 387.441406 205.339844 L 386.441406 204.773438 L 386.457031 203.519531 L 387.523438 202.898438 L 388.519531 203.464844 L 388.519531 202.371094 L 389.597656 201.761719 L 390.691406 202.371094 L 390.691406 204.71875 L 393.605469 206.40625 L 393.605469 203.03125 L 391.582031 201.855469 L 391.582031 200.613281 L 392.660156 199.980469 L 393.605469 200.519531 L 393.605469 199.375 L 394.507812 198.859375 L 394.722656 199.226562 L 395.359375 200.332031 L 395.492188 200.5625 L 395.679688 200.898438 L 396.640625 202.53125 L 395.761719 203.046875 L 395.761719 206.394531 L 398.09375 205.058594 L 399.175781 206.945312 L 396.855469 208.285156 L 399.78125 209.972656 L 400.632812 209.472656 L 401.667969 211.265625 L 401.804688 211.496094 L 401.914062 211.671875 L 402.601562 212.875 L 402.75 213.144531 L 401.84375 213.671875 Z M 400.859375 213.101562"></path>
    <path style="stroke:none;fill-rule:evenodd;fill:rgb(92.156863%,74.901961%,16.862745%);fill-opacity:1;" d="M 483.640625 385.96875 L 411.691406 385.96875 L 411.691406 457.996094 L 483.640625 457.996094 Z M 483.640625 385.96875"></path>
    <path style="stroke:none;fill-rule:evenodd;fill:rgb(0.784314%,1.960784%,1.960784%);fill-opacity:1;" d="M 192.476562 443.980469 L 191.734375 444.386719 L 191.003906 444.859375 L 190.34375 445.425781 L 189.792969 446.0625 L 189.277344 446.75 L 170.628906 476.652344 L 135.441406 474.816406 L 134.5625 474.816406 L 133.714844 474.925781 L 132.878906 475.140625 L 132.054688 475.453125 L 131.285156 475.855469 L 130.597656 476.355469 L 129.964844 476.949219 L 129.371094 477.585938 L 128.886719 478.300781 L 128.496094 479.070312 L 128.199219 479.90625 L 127.980469 480.730469 L 127.914062 481.609375 L 127.914062 482.457031 L 128.007812 483.335938 L 128.222656 484.160156 L 128.546875 484.984375 L 128.9375 485.738281 L 129.453125 486.457031 L 130.046875 487.089844 L 130.679688 487.644531 L 131.394531 488.15625 L 132.164062 488.546875 L 133 488.84375 L 133.820312 489.0625 L 134.699219 489.140625 L 174.078125 491.222656 L 174.941406 491.222656 L 175.765625 491.113281 L 176.589844 490.898438 L 177.382812 490.601562 L 178.125 490.207031 L 178.855469 489.722656 L 179.488281 489.167969 L 180.039062 488.546875 L 180.527344 487.859375 L 193.960938 466.351562 L 193.960938 499.765625 L 165.972656 522.476562 L 165.328125 523.070312 L 164.746094 523.730469 L 164.261719 524.445312 L 163.898438 525.214844 L 163.601562 526.011719 L 163.382812 526.863281 L 163.304688 527.714844 L 163.332031 528.605469 L 163.4375 529.457031 L 163.65625 530.304688 L 163.980469 531.101562 L 164.398438 531.871094 L 164.910156 532.5625 L 165.488281 533.207031 L 166.121094 533.761719 L 166.878906 534.25 L 167.648438 534.640625 L 168.441406 534.9375 L 169.292969 535.125 L 170.140625 535.234375 L 171.019531 535.207031 L 171.882812 535.097656 L 172.730469 534.882812 L 173.527344 534.53125 L 174.269531 534.140625 L 174.984375 533.625 L 205.652344 508.785156 L 206.3125 508.148438 L 206.90625 507.460938 L 207.40625 506.679688 L 207.785156 505.855469 L 208.066406 505.003906 L 208.230469 504.101562 L 208.308594 503.195312 L 208.308594 468.402344 L 241.097656 454 L 229.765625 473.613281 L 229.445312 474.261719 L 229.175781 474.953125 L 229.023438 475.667969 L 228.929688 476.382812 L 228.929688 477.113281 L 229.023438 477.828125 L 229.175781 478.542969 L 229.417969 479.230469 L 229.738281 479.878906 L 230.132812 480.488281 L 230.617188 481.054688 L 251.886719 503.882812 L 252.4375 504.425781 L 253.046875 504.871094 L 253.691406 505.246094 L 254.40625 505.542969 L 255.121094 505.761719 L 255.878906 505.855469 L 256.644531 505.882812 L 257.386719 505.828125 L 258.128906 505.667969 L 258.859375 505.4375 L 259.519531 505.085938 L 260.152344 504.695312 L 260.746094 504.207031 L 261.273438 503.65625 L 261.730469 503.035156 L 262.09375 502.371094 L 262.390625 501.683594 L 262.605469 500.957031 L 262.714844 500.210938 L 262.742188 499.441406 L 262.6875 498.699219 L 262.527344 497.957031 L 262.285156 497.230469 L 261.945312 496.539062 L 261.542969 495.90625 L 261.058594 495.3125 L 242.972656 475.882812 L 256.242188 452.878906 L 256.566406 452.21875 L 256.835938 451.515625 L 256.984375 450.800781 L 257.0625 450.082031 L 257.0625 449.339844 L 256.984375 448.585938 L 256.808594 447.898438 L 256.566406 447.207031 L 245.007812 420.894531 L 244.667969 420.179688 L 244.210938 419.546875 L 243.683594 418.949219 L 243.066406 418.425781 L 242.402344 417.964844 L 215.390625 402.371094 L 214.757812 402.046875 L 214.054688 401.777344 L 213.367188 401.628906 L 212.652344 401.546875 L 211.910156 401.519531 L 211.183594 401.628906 L 210.496094 401.777344 L 209.804688 402.019531 L 181.078125 414.210938 L 180.417969 414.5625 L 179.785156 414.996094 L 179.191406 415.46875 L 178.691406 416.035156 L 178.234375 416.640625 L 177.871094 417.304688 L 177.601562 417.992188 L 177.382812 418.746094 L 177.277344 419.492188 L 177.277344 420.261719 L 177.332031 421.003906 L 177.519531 421.757812 L 177.761719 422.472656 L 178.097656 423.136719 L 178.53125 423.769531 L 179.015625 424.363281 L 179.570312 424.863281 L 180.175781 425.324219 L 180.851562 425.6875 L 181.539062 425.957031 L 182.28125 426.171875 L 183.023438 426.28125 L 183.777344 426.28125 L 184.546875 426.199219 L 185.289062 426.039062 L 185.988281 425.796875 L 211.828125 414.804688 L 232.15625 426.539062 Z M 192.476562 443.980469"></path>
    <path style="stroke:none;fill-rule:evenodd;fill:rgb(0.784314%,1.960784%,1.960784%);fill-opacity:1;" d="M 278.117188 427.566406 L 278.0625 426.472656 L 277.941406 425.378906 L 277.699219 424.3125 L 277.347656 423.273438 L 276.957031 422.257812 L 276.445312 421.273438 L 275.863281 420.339844 L 275.191406 419.492188 L 274.449219 418.667969 L 273.625 417.925781 L 272.777344 417.25 L 271.84375 416.667969 L 270.886719 416.15625 L 269.863281 415.765625 L 268.8125 415.414062 L 267.746094 415.171875 L 266.652344 415.050781 L 265.5625 414.996094 L 264.46875 415.050781 L 263.375 415.171875 L 262.308594 415.414062 L 261.273438 415.765625 L 260.261719 416.15625 L 259.277344 416.667969 L 258.371094 417.25 L 257.496094 417.925781 L 256.699219 418.667969 L 255.957031 419.492188 L 255.285156 420.339844 L 254.703125 421.273438 L 254.191406 422.257812 L 253.773438 423.273438 L 253.449219 424.3125 L 253.207031 425.378906 L 253.046875 426.472656 L 253.015625 427.566406 L 253.046875 428.644531 L 253.207031 429.738281 L 253.449219 430.804688 L 253.773438 431.84375 L 254.191406 432.855469 L 254.703125 433.84375 L 255.285156 434.773438 L 255.957031 435.625 L 256.699219 436.449219 L 257.496094 437.203125 L 258.371094 437.867188 L 259.277344 438.445312 L 260.261719 438.945312 L 261.273438 439.351562 L 262.308594 439.703125 L 263.375 439.929688 L 264.46875 440.082031 L 265.5625 440.121094 L 266.652344 440.082031 L 267.746094 439.929688 L 268.8125 439.703125 L 269.863281 439.351562 L 270.886719 438.945312 L 271.84375 438.445312 L 272.777344 437.867188 L 273.625 437.203125 L 274.449219 436.449219 L 275.191406 435.625 L 275.863281 434.773438 L 276.445312 433.84375 L 276.957031 432.855469 L 277.347656 431.84375 L 277.699219 430.804688 L 277.941406 429.738281 L 278.0625 428.644531 Z M 278.117188 427.566406"></path>
  </g>
</svg>