<?xml version="1.0" encoding="UTF-8" standalone="yes"?>
<svg xmlns="http://www.w3.org/2000/svg" xmlns:xlink="http://www.w3.org/1999/xlink" width="685pt" height="600pt" viewBox="0 0 685 600" version="1.1">
  <g id="surface1">
    <path style="fill-rule:evenodd;fill:rgb(0.784314%,1.960784%,1.960784%);fill-opacity:1;stroke-width:0.127844;stroke-linecap:butt;stroke-linejoin:miter;stroke:rgb(0.784314%,1.960784%,1.960784%);stroke-opacity:1;stroke-miterlimit:2.613;" d="M 197.46208 164.743687 L 104.122664 2.943062 L 103.544526 2.079583 L 102.826095 1.430844 L 102.036387 0.856698 L 101.099599 0.423828 L 100.165073 0.137885 L 99.158139 0.0644219 L 98.153467 0.137885 L 97.146533 0.423828 L 96.283285 0.856698 L 95.420036 1.430844 L 94.77062 2.079583 L 94.197007 2.943062 L 0.857591 164.743687 L 0.423139 165.67724 L 0.134635 166.615312 L 0.0644891 167.622328 L 0.134635 168.627083 L 0.423139 169.634099 L 0.857591 170.497578 L 1.431204 171.361057 L 2.076095 172.009797 L 2.939343 172.583943 L 3.802591 173.013422 L 4.810657 173.302755 L 5.817591 173.372828 L 192.50208 173.372828 L 193.509015 173.302755 L 194.442409 173.013422 L 195.376934 172.583943 L 196.170036 172.009797 L 196.888467 171.361057 L 197.46208 170.497578 L 197.896533 169.634099 L 198.181642 168.627083 L 198.255182 167.622328 L 198.181642 166.615312 L 197.896533 165.67724 Z M 197.46208 164.743687" transform="matrix(3.452621,0,0,3.456221,0,0)"></path>
    <path style="fill-rule:evenodd;fill:rgb(92.156863%,74.901961%,16.862745%);fill-opacity:1;stroke-width:0.127844;stroke-linecap:butt;stroke-linejoin:miter;stroke:rgb(0.784314%,1.960784%,1.960784%);stroke-opacity:1;stroke-miterlimit:2.613;" d="M 99.158139 18.114979 L 181.856861 161.509031 L 16.458285 161.509031 Z M 99.158139 18.114979" transform="matrix(3.452621,0,0,3.456221,0,0)"></path>
    <path style="stroke:none;fill-rule:evenodd;fill:rgb(0.784314%,1.960784%,1.960784%);fill-opacity:1;" d="M 433.941406 407.570312 L 352.886719 425.5 L 337.851562 413.847656 L 326.195312 413.847656 L 252.289062 395.417969 L 250.523438 396.917969 L 311.039062 414.847656 L 240.878906 427.753906 L 242.511719 429.265625 L 337.851562 446.425781 L 287.734375 498.066406 L 287.734375 498.820312 L 289.484375 498.820312 L 354.007812 456.078125 L 479.917969 505.964844 L 380.5625 448.558594 L 536.539062 475.382812 L 393.46875 437.40625 L 517.128906 423.742188 L 475.914062 413.089844 L 509.980469 407.570312 L 446.835938 414.089844 L 497.828125 421.988281 L 398.484375 426 L 451.855469 403.4375 L 365.28125 403.4375 L 365.28125 405.070312 Z M 433.941406 407.570312"></path>
    <path style="stroke:none;fill-rule:evenodd;fill:rgb(0.784314%,1.960784%,1.960784%);fill-opacity:1;" d="M 436.574219 361.949219 L 391.714844 283.738281 L 376.433594 292.515625 L 421.277344 370.726562 Z M 436.574219 361.949219"></path>
    <path style="stroke:none;fill-rule:evenodd;fill:rgb(0.784314%,1.960784%,1.960784%);fill-opacity:1;" d="M 379.066406 264.691406 L 371.675781 280.730469 L 330.835938 261.800781 L 338.226562 245.761719 Z M 379.066406 264.691406"></path>
    <path style="stroke:none;fill-rule:evenodd;fill:rgb(0.784314%,1.960784%,1.960784%);fill-opacity:1;" d="M 333.710938 245.003906 L 288.746094 249.027344 L 290.363281 266.566406 L 335.21875 262.554688 Z M 333.710938 245.003906"></path>
    <path style="stroke:none;fill-rule:evenodd;fill:rgb(0.784314%,1.960784%,1.960784%);fill-opacity:1;" d="M 286.613281 348.042969 L 274.582031 364.960938 L 228.109375 331.992188 L 240.136719 315.074219 Z M 286.613281 348.042969"></path>
    <path style="stroke:none;fill-rule:evenodd;fill:rgb(0.784314%,1.960784%,1.960784%);fill-opacity:1;" d="M 330.203125 323.472656 L 310.039062 327.980469 L 334.71875 439.417969 L 355.019531 434.894531 Z M 330.203125 323.472656"></path>
    <path style="stroke:none;fill-rule:evenodd;fill:rgb(0.784314%,1.960784%,1.960784%);fill-opacity:1;" d="M 437.828125 366.335938 L 437.449219 364.082031 L 436.574219 361.949219 L 435.199219 360.074219 L 433.308594 358.695312 L 431.179688 357.820312 L 428.925781 357.5625 L 426.671875 357.820312 L 424.542969 358.695312 L 422.65625 360.074219 L 421.277344 361.949219 L 420.402344 364.082031 L 420.160156 366.335938 L 420.402344 368.59375 L 421.277344 370.726562 L 422.65625 372.601562 L 424.542969 373.992188 L 426.671875 374.871094 L 428.925781 375.234375 L 431.179688 374.871094 L 433.308594 373.992188 L 435.199219 372.601562 L 436.574219 370.726562 L 437.449219 368.59375 Z M 437.828125 366.335938"></path>
    <path style="stroke:none;fill-rule:evenodd;fill:rgb(0.784314%,1.960784%,1.960784%);fill-opacity:1;" d="M 343.246094 253.78125 L 342.988281 251.527344 L 342.113281 249.394531 L 340.722656 247.515625 L 338.847656 246.140625 L 336.71875 245.261719 L 334.464844 244.882812 L 332.210938 245.261719 L 330.082031 246.140625 L 328.207031 247.515625 L 326.832031 249.394531 L 325.941406 251.527344 L 325.699219 253.78125 L 325.941406 256.035156 L 326.832031 258.167969 L 328.207031 260.046875 L 330.082031 261.4375 L 332.210938 262.3125 L 334.464844 262.554688 L 336.71875 262.3125 L 338.847656 261.4375 L 340.722656 260.046875 L 342.113281 258.167969 L 342.988281 256.035156 Z M 343.246094 253.78125"></path>
    <path style="stroke:none;fill-rule:evenodd;fill:rgb(0.784314%,1.960784%,1.960784%);fill-opacity:1;" d="M 298.386719 257.789062 L 298.007812 255.535156 L 297.132812 253.402344 L 295.757812 251.527344 L 294.003906 250.148438 L 291.875 249.273438 L 289.621094 249.015625 L 287.234375 249.273438 L 285.101562 250.148438 L 283.347656 251.527344 L 281.972656 253.402344 L 281.097656 255.535156 L 280.71875 257.789062 L 281.097656 260.046875 L 281.972656 262.179688 L 283.347656 264.054688 L 285.101562 265.433594 L 287.234375 266.324219 L 289.621094 266.566406 L 291.875 266.324219 L 294.003906 265.433594 L 295.757812 264.054688 L 297.132812 262.179688 L 298.007812 260.046875 Z M 298.386719 257.789062"></path>
    <path style="stroke:none;fill-rule:evenodd;fill:rgb(0.784314%,1.960784%,1.960784%);fill-opacity:1;" d="M 392.847656 288.128906 L 392.59375 285.75 L 391.714844 283.617188 L 390.21875 281.863281 L 388.464844 280.484375 L 386.335938 279.609375 L 384.082031 279.230469 L 381.695312 279.609375 L 379.5625 280.484375 L 377.8125 281.863281 L 376.433594 283.617188 L 375.558594 285.75 L 375.179688 288.128906 L 375.558594 290.382812 L 376.433594 292.515625 L 377.8125 294.269531 L 379.5625 295.769531 L 381.695312 296.644531 L 384.082031 296.902344 L 386.335938 296.644531 L 388.464844 295.769531 L 390.21875 294.269531 L 391.714844 292.515625 L 392.59375 290.382812 Z M 392.847656 288.128906"></path>
    <path style="stroke:none;fill-rule:evenodd;fill:rgb(0.784314%,1.960784%,1.960784%);fill-opacity:1;" d="M 384.203125 272.710938 L 383.949219 270.453125 L 383.070312 268.320312 L 381.695312 266.445312 L 379.820312 265.066406 L 377.691406 264.191406 L 375.425781 263.8125 L 373.183594 264.191406 L 371.054688 265.066406 L 369.167969 266.445312 L 367.789062 268.320312 L 366.914062 270.453125 L 366.671875 272.710938 L 366.914062 274.964844 L 367.789062 277.097656 L 369.167969 278.972656 L 371.054688 280.363281 L 373.183594 281.226562 L 375.425781 281.484375 L 377.691406 281.226562 L 379.820312 280.363281 L 381.695312 278.972656 L 383.070312 277.097656 L 383.949219 274.964844 Z M 384.203125 272.710938"></path>
    <path style="stroke:none;fill-rule:evenodd;fill:rgb(0.784314%,1.960784%,1.960784%);fill-opacity:1;" d="M 318.925781 312.941406 L 289.484375 361.828125 L 271.695312 351.175781 L 301.136719 302.289062 Z M 318.925781 312.941406"></path>
    <path style="stroke:none;fill-rule:evenodd;fill:rgb(0.784314%,1.960784%,1.960784%);fill-opacity:1;" d="M 290.996094 356.5625 L 290.617188 353.808594 L 289.621094 351.296875 L 287.988281 349.164062 L 285.738281 347.542969 L 283.226562 346.53125 L 280.597656 346.152344 L 277.96875 346.53125 L 275.460938 347.542969 L 273.328125 349.164062 L 271.574219 351.296875 L 270.578125 353.808594 L 270.199219 356.5625 L 270.578125 359.195312 L 271.574219 361.707031 L 273.328125 363.828125 L 275.460938 365.460938 L 277.96875 366.59375 L 280.597656 366.835938 L 283.226562 366.59375 L 285.738281 365.460938 L 287.988281 363.828125 L 289.621094 361.707031 L 290.617188 359.195312 Z M 290.996094 356.5625"></path>
    <path style="stroke:none;fill-rule:evenodd;fill:rgb(0.784314%,1.960784%,1.960784%);fill-opacity:1;" d="M 320.316406 307.554688 L 320.0625 304.921875 L 318.925781 302.410156 L 317.308594 300.292969 L 315.179688 298.65625 L 312.667969 297.523438 L 310.039062 297.28125 L 307.289062 297.523438 L 304.78125 298.65625 L 302.648438 300.292969 L 301.015625 302.410156 L 300.019531 304.921875 L 299.640625 307.554688 L 300.019531 310.308594 L 301.015625 312.820312 L 302.648438 314.953125 L 304.78125 316.574219 L 307.289062 317.585938 L 310.039062 317.964844 L 312.667969 317.585938 L 315.179688 316.574219 L 317.308594 314.953125 L 318.925781 312.820312 L 320.0625 310.308594 Z M 320.316406 307.554688"></path>
    <path style="stroke:none;fill-rule:evenodd;fill:rgb(0.784314%,1.960784%,1.960784%);fill-opacity:1;" d="M 330.457031 325.726562 L 330.082031 322.972656 L 329.082031 320.460938 L 327.453125 318.328125 L 325.320312 316.707031 L 322.8125 315.710938 L 320.0625 315.332031 L 317.429688 315.710938 L 314.921875 316.707031 L 312.792969 318.328125 L 311.160156 320.460938 L 310.160156 322.972656 L 309.785156 325.726562 L 310.160156 328.359375 L 311.160156 330.871094 L 312.792969 333.003906 L 314.921875 334.625 L 317.429688 335.757812 L 320.0625 336.136719 L 322.8125 335.757812 L 325.320312 334.625 L 327.453125 333.003906 L 329.082031 330.871094 L 330.082031 328.359375 Z M 330.457031 325.726562"></path>
    <path style="stroke:none;fill-rule:evenodd;fill:rgb(0.784314%,1.960784%,1.960784%);fill-opacity:1;" d="M 355.261719 437.164062 L 354.882812 434.394531 L 353.765625 431.898438 L 352.132812 429.765625 L 350 428.132812 L 347.492188 427.132812 L 344.863281 426.753906 L 342.113281 427.132812 L 339.601562 428.132812 L 337.472656 429.765625 L 335.839844 431.898438 L 334.84375 434.394531 L 334.464844 437.164062 L 334.84375 439.796875 L 335.839844 442.292969 L 337.472656 444.425781 L 339.601562 446.183594 L 342.113281 447.179688 L 344.863281 447.558594 L 347.492188 447.179688 L 350 446.183594 L 352.132812 444.425781 L 353.765625 442.292969 L 354.882812 439.796875 Z M 355.261719 437.164062"></path>
    <path style="stroke:none;fill-rule:evenodd;fill:rgb(0.784314%,1.960784%,1.960784%);fill-opacity:1;" d="M 244.386719 323.472656 L 244.144531 320.839844 L 243.011719 318.328125 L 241.378906 316.210938 L 239.261719 314.574219 L 236.753906 313.441406 L 234.121094 313.0625 L 231.359375 313.441406 L 228.863281 314.574219 L 226.730469 316.210938 L 225.101562 318.328125 L 224.101562 320.839844 L 223.722656 323.472656 L 224.101562 326.226562 L 225.101562 328.738281 L 226.730469 330.871094 L 228.863281 332.492188 L 231.359375 333.503906 L 234.121094 333.882812 L 236.753906 333.503906 L 239.261719 332.492188 L 241.378906 330.871094 L 243.011719 328.738281 L 244.144531 326.226562 Z M 244.386719 323.472656"></path>
    <path style="stroke:none;fill-rule:evenodd;fill:rgb(0.784314%,1.960784%,1.960784%);fill-opacity:1;" d="M 425.796875 264.191406 L 425.417969 260.800781 L 424.421875 257.546875 L 422.910156 254.660156 L 420.78125 252.027344 L 418.148438 249.894531 L 415.15625 248.394531 L 412.011719 247.394531 L 408.628906 247.015625 L 405.378906 247.394531 L 402.113281 248.394531 L 399.105469 249.894531 L 396.613281 252.027344 L 394.46875 254.660156 L 392.847656 257.546875 L 391.851562 260.800781 L 391.59375 264.191406 L 391.851562 267.445312 L 392.847656 270.710938 L 394.46875 273.707031 L 396.613281 276.21875 L 399.105469 278.351562 L 402.113281 279.972656 L 405.378906 280.984375 L 408.628906 281.242188 L 412.011719 280.984375 L 415.15625 279.972656 L 418.148438 278.351562 L 420.78125 276.21875 L 422.910156 273.707031 L 424.421875 270.710938 L 425.417969 267.445312 Z M 425.796875 264.191406"></path>
    <path style="stroke:none;fill-rule:evenodd;fill:rgb(0.784314%,1.960784%,1.960784%);fill-opacity:1;" d="M 383.070312 268.320312 L 361.898438 266.566406 L 304.902344 298.523438 L 325.199219 334.757812 L 382.195312 302.789062 L 391.714844 283.738281 Z M 383.070312 268.320312"></path>
  </g>
</svg>