<?xml version="1.0" encoding="UTF-8" standalone="yes"?>
<svg xmlns="http://www.w3.org/2000/svg" xmlns:xlink="http://www.w3.org/1999/xlink" width="685pt" height="600pt" viewBox="0 0 685 600" version="1.1">
  <g id="surface1">
    <path style="fill-rule:evenodd;fill:rgb(0.784314%,1.960784%,1.960784%);fill-opacity:1;stroke-width:0.127844;stroke-linecap:butt;stroke-linejoin:miter;stroke:rgb(0.784314%,1.960784%,1.960784%);stroke-opacity:1;stroke-miterlimit:2.613;" d="M 197.46208 164.743687 L 104.122664 2.938542 L 103.544526 2.076193 L 102.826095 1.427453 L 102.036387 0.853307 L 101.099599 0.423828 L 100.165073 0.134495 L 99.158139 0.0644219 L 98.153467 0.134495 L 97.146533 0.423828 L 96.283285 0.853307 L 95.420036 1.427453 L 94.77062 2.076193 L 94.197007 2.938542 L 0.857591 164.743687 L 0.423139 165.67724 L 0.134635 166.610792 L 0.0644891 167.618937 L 0.134635 168.627083 L 0.423139 169.630708 L 0.857591 170.494188 L 1.431204 171.356536 L 2.076095 172.005276 L 2.939343 172.579422 L 3.802591 173.013422 L 4.810657 173.302755 L 5.817591 173.372828 L 192.50208 173.372828 L 193.509015 173.302755 L 194.442409 173.013422 L 195.376934 172.579422 L 196.170036 172.005276 L 196.888467 171.356536 L 197.46208 170.494188 L 197.896533 169.630708 L 198.181642 168.627083 L 198.255182 167.618937 L 198.181642 166.610792 L 197.896533 165.67724 Z M 197.46208 164.743687" transform="matrix(3.452621,0,0,3.456221,0,0)"></path>
    <path style="fill-rule:evenodd;fill:rgb(92.156863%,74.901961%,16.862745%);fill-opacity:1;stroke-width:0.127844;stroke-linecap:butt;stroke-linejoin:miter;stroke:rgb(0.784314%,1.960784%,1.960784%);stroke-opacity:1;stroke-miterlimit:2.613;" d="M 99.158139 18.110458 L 181.856861 161.505641 L 16.458285 161.505641 Z M 99.158139 18.110458" transform="matrix(3.452621,0,0,3.456221,0,0)"></path>
    <path style="fill-rule:evenodd;fill:rgb(0.784314%,1.960784%,1.960784%);fill-opacity:1;stroke-width:0.215738;stroke-linecap:butt;stroke-linejoin:miter;stroke:rgb(0.784314%,1.960784%,1.960784%);stroke-opacity:1;stroke-miterlimit:2.613;" d="M 137.623029 148.857479 L 136.423759 149.040573 L 135.224489 149.18524 L 133.99354 149.255313 L 132.79427 149.255313 L 131.559927 149.145682 L 130.365182 149.001016 L 129.165912 148.712813 L 128.005109 148.348885 L 123.430912 146.645661 L 122.271241 146.317901 L 121.075365 146.028568 L 119.876095 145.883901 L 118.641752 145.775401 L 116.212664 145.740365 L 115.016788 145.775401 L 113.782445 145.918937 L 112.583175 146.098641 L 111.388431 146.392495 L 110.224234 146.755292 L 109.103029 147.154255 L 106.814234 148.060682 L 105.653431 148.458516 L 104.493759 148.821313 L 103.294489 149.075609 L 102.099745 149.255313 L 100.900474 149.399979 L 99.666131 149.439536 L 97.235912 149.255313 L 96.036642 149.075609 L 94.841898 148.786276 L 93.681095 148.458516 L 92.516898 148.024516 L 90.271095 147.154255 L 89.106898 146.755292 L 87.947226 146.392495 L 86.75135 146.099771 L 85.55208 145.920068 L 84.317737 145.775401 L 83.122993 145.704198 L 80.68938 145.775401 L 79.455036 145.883901 L 78.259161 146.028568 L 77.059891 146.317901 L 75.900219 146.645661 L 71.329416 148.348885 L 70.165219 148.712813 L 68.970474 149.001016 L 67.771204 149.145682 L 66.536861 149.255313 L 65.340985 149.255313 L 64.106642 149.18524 L 62.911898 149.040573 L 61.712628 148.857479 L 61.677555 149.509609 L 61.751095 150.126703 L 61.966058 150.743797 L 62.294161 151.321333 L 62.692409 151.829927 L 63.165328 152.267318 L 63.743467 152.591688 L 64.361204 152.809818 L 64.97781 152.884411 L 65.63062 152.884411 L 66.938504 152.809818 L 68.244124 152.630115 L 69.51354 152.411984 L 70.782956 152.083094 L 72.017299 151.720297 L 74.485985 150.888464 L 75.68073 150.416036 L 76.915073 149.982036 L 78.149416 149.654276 L 79.455036 149.399979 L 80.724453 149.220276 L 82.032336 149.145682 L 83.337956 149.18524 L 84.607372 149.364943 L 85.915255 149.584203 L 87.149599 149.907443 L 88.419015 150.27137 L 89.653358 150.70876 L 92.083577 151.615187 L 93.278321 152.083094 L 94.512664 152.447021 L 95.783212 152.736354 L 97.091095 152.954484 L 98.360511 153.064115 L 100.974015 153.064115 L 102.278504 152.954484 L 103.54792 152.736354 L 104.817336 152.447021 L 106.05281 152.048057 L 107.287153 151.615187 L 109.716241 150.70876 L 112.184927 149.907443 L 113.454343 149.584203 L 114.723759 149.364943 L 116.032774 149.220276 L 117.30219 149.145682 L 118.606679 149.220276 L 119.915693 149.399979 L 121.185109 149.654276 L 122.416058 149.982036 L 123.650401 150.416036 L 124.884745 150.888464 L 127.318358 151.720297 L 128.587774 152.083094 L 129.85719 152.411984 L 131.126606 152.630115 L 132.396022 152.809818 L 133.700511 152.884411 L 134.353321 152.884411 L 135.009526 152.809818 L 135.626131 152.591688 L 136.169197 152.267318 L 136.67719 151.829927 L 137.075438 151.322464 L 137.368467 150.743797 L 137.583431 150.126703 L 137.658102 149.509609 Z M 137.623029 148.857479" transform="matrix(3.452621,0,0,3.456221,0,0)"></path>
    <path style="fill-rule:evenodd;fill:rgb(0.784314%,1.960784%,1.960784%);fill-opacity:1;stroke-width:0.215738;stroke-linecap:butt;stroke-linejoin:miter;stroke:rgb(0.784314%,1.960784%,1.960784%);stroke-opacity:1;stroke-miterlimit:2.613;" d="M 92.556496 102.653432 L 93.173102 95.149979 L 93.134635 94.567922 L 92.919672 94.060458 L 92.556496 93.626458 L 92.083577 93.337125 L 91.540511 93.189068 L 90.958978 93.228625 L 90.450985 93.443365 L 90.013139 93.806161 L 89.724635 94.278589 L 89.579818 94.822219 L 89.360328 97.505333 L 48.033029 97.505333 L 48.033029 99.973708 L 89.146496 99.973708 L 88.96208 102.365229 L 88.997153 102.947286 L 89.216642 103.45475 L 89.579818 103.88875 L 90.052737 104.181474 L 90.595803 104.32162 L 91.177336 104.286583 L 91.685328 104.071844 L 92.11865 103.709047 L 92.408285 103.23549 Z M 92.556496 102.653432" transform="matrix(3.452621,0,0,3.456221,0,0)"></path>
    <path style="fill-rule:evenodd;fill:rgb(0.784314%,1.960784%,1.960784%);fill-opacity:1;stroke-width:0.215738;stroke-linecap:butt;stroke-linejoin:miter;stroke:rgb(0.784314%,1.960784%,1.960784%);stroke-opacity:1;stroke-miterlimit:2.613;" d="M 121.583358 93.044401 L 90.814161 95.763682 L 91.322153 101.748135 L 122.09135 99.063891 Z M 121.583358 93.044401" transform="matrix(3.452621,0,0,3.456221,0,0)"></path>
    <path style="fill-rule:evenodd;fill:rgb(0.784314%,1.960784%,1.960784%);fill-opacity:1;stroke-width:0.215738;stroke-linecap:butt;stroke-linejoin:miter;stroke:rgb(0.784314%,1.960784%,1.960784%);stroke-opacity:1;stroke-miterlimit:2.613;" d="M 124.849672 96.056406 L 124.775 95.259609 L 124.450292 94.532885 L 123.978504 93.915792 L 123.360766 93.443365 L 122.634416 93.154031 L 121.83792 93.044401 L 121.075365 93.154031 L 120.349015 93.443365 L 119.697336 93.915792 L 119.224416 94.532885 L 118.934781 95.259609 L 118.826168 96.056406 L 118.934781 96.853203 L 119.224416 97.579927 L 119.697336 98.197021 L 120.349015 98.666057 L 121.075365 98.958781 L 121.83792 99.063891 L 122.634416 98.958781 L 123.360766 98.666057 L 123.978504 98.197021 L 124.450292 97.579927 L 124.775 96.853203 Z M 124.849672 96.056406" transform="matrix(3.452621,0,0,3.456221,0,0)"></path>
    <path style="fill-rule:evenodd;fill:rgb(0.784314%,1.960784%,1.960784%);fill-opacity:1;stroke-width:0.215738;stroke-linecap:butt;stroke-linejoin:miter;stroke:rgb(0.784314%,1.960784%,1.960784%);stroke-opacity:1;stroke-miterlimit:2.613;" d="M 127.934964 84.669557 L 127.861423 83.6535 L 127.571788 82.673609 L 127.169015 81.767182 L 126.552409 80.895792 L 125.864526 80.208625 L 124.993358 79.591531 L 124.087117 79.157531 L 123.107336 78.904365 L 122.09135 78.829771 L 121.075365 78.904365 L 120.060511 79.157531 L 119.15427 79.591531 L 118.318175 80.208625 L 117.591825 80.895792 L 117.013686 81.767182 L 116.575839 82.673609 L 116.322409 83.6535 L 116.212664 84.669557 L 116.322409 85.685615 L 116.575839 86.700542 L 117.013686 87.606969 L 117.591825 88.438802 L 118.318175 89.165526 L 119.15427 89.744193 L 120.060511 90.181583 L 121.075365 90.43475 L 122.09135 90.54438 L 123.107336 90.43475 L 124.087117 90.181583 L 124.993358 89.744193 L 125.864526 89.165526 L 126.552409 88.438802 L 127.169015 87.606969 L 127.571788 86.700542 L 127.861423 85.685615 Z M 127.934964 84.669557" transform="matrix(3.452621,0,0,3.456221,0,0)"></path>
    <path style="fill-rule:evenodd;fill:rgb(0.784314%,1.960784%,1.960784%);fill-opacity:1;stroke-width:0.215738;stroke-linecap:butt;stroke-linejoin:miter;stroke:rgb(0.784314%,1.960784%,1.960784%);stroke-opacity:1;stroke-miterlimit:2.613;" d="M 127.786752 98.739521 L 127.677007 97.614964 L 127.353431 96.56387 L 126.845438 95.583979 L 126.119088 94.712589 L 125.24792 93.989255 L 124.267007 93.443365 L 123.180876 93.118995 L 122.09135 93.009365 L 120.966752 93.118995 L 119.876095 93.443365 L 118.899708 93.989255 L 118.025146 94.712589 L 117.337263 95.583979 L 116.794197 96.56387 L 116.466095 97.614964 L 116.357482 98.739521 L 116.357482 119.267495 L 116.466095 120.388661 L 116.794197 121.478182 L 117.337263 122.454682 L 118.025146 123.326073 L 118.899708 124.01663 L 119.876095 124.56026 L 120.966752 124.888021 L 122.09135 124.99426 L 123.180876 124.888021 L 124.267007 124.56026 L 125.24792 124.01663 L 126.119088 123.326073 L 126.845438 122.454682 L 127.353431 121.478182 L 127.677007 120.388661 L 127.786752 119.267495 Z M 127.786752 98.739521" transform="matrix(3.452621,0,0,3.456221,0,0)"></path>
    <path style="fill-rule:evenodd;fill:rgb(0.784314%,1.960784%,1.960784%);fill-opacity:1;stroke-width:0.215738;stroke-linecap:butt;stroke-linejoin:miter;stroke:rgb(0.784314%,1.960784%,1.960784%);stroke-opacity:1;stroke-miterlimit:2.613;" d="M 61.712628 141.204839 L 61.677555 141.856969 L 61.751095 142.509099 L 61.966058 143.126193 L 62.294161 143.70825 L 62.69354 144.216844 L 63.165328 144.649714 L 63.743467 144.978604 L 64.361204 145.196734 L 64.97781 145.266807 L 65.63062 145.231771 L 66.939635 145.196734 L 68.244124 145.013641 L 69.51354 144.79438 L 70.782956 144.47001 L 72.017299 144.107214 L 74.485985 143.235823 L 75.68073 142.763396 L 76.915073 142.364432 L 78.150547 142.005026 L 79.455036 141.786896 L 80.724453 141.602672 L 82.032336 141.532599 L 83.337956 141.567635 L 84.607372 141.712302 L 85.915255 141.966599 L 87.149599 142.259323 L 88.419015 142.658286 L 89.653358 143.05612 L 92.083577 143.962547 L 93.279453 144.431583 L 94.513796 144.833937 L 95.783212 145.122141 L 97.091095 145.301844 L 98.360511 145.44651 L 100.974015 145.44651 L 102.278504 145.33801 L 103.54792 145.122141 L 104.818467 144.833937 L 106.05281 144.431583 L 107.287153 143.962547 L 109.716241 143.05612 L 112.184927 142.259323 L 113.454343 141.966599 L 114.723759 141.712302 L 116.032774 141.567635 L 117.30219 141.532599 L 118.606679 141.602672 L 119.915693 141.786896 L 121.185109 142.005026 L 122.416058 142.364432 L 123.650401 142.763396 L 124.884745 143.235823 L 127.318358 144.107214 L 128.587774 144.47001 L 129.85719 144.759344 L 131.126606 145.013641 L 132.396022 145.158307 L 133.700511 145.231771 L 134.353321 145.231771 L 135.009526 145.158307 L 135.626131 144.978604 L 136.169197 144.649714 L 136.67719 144.216844 L 137.075438 143.70825 L 137.368467 143.126193 L 137.583431 142.509099 L 137.658102 141.856969 L 137.618504 141.204839 L 136.278942 141.458005 L 134.899781 141.567635 L 133.52062 141.642229 L 132.142591 141.602672 L 130.798504 141.422969 L 129.458942 141.169802 L 128.114854 140.770839 L 126.845438 140.298411 L 124.267007 139.317391 L 122.962518 138.884521 L 121.618431 138.520594 L 120.275474 138.305854 L 118.899708 138.157797 L 117.517153 138.087724 L 116.142518 138.087724 L 101.228577 135.438516 L 106.091277 117.271547 L 99.231679 115.419135 L 94.189088 134.204328 L 71.802336 130.25199 L 70.349635 129.892583 L 68.930876 129.38399 L 67.556241 128.731859 L 66.321898 127.931672 L 65.122628 126.955172 L 64.071569 125.904078 L 63.634854 125.540151 L 63.126861 125.322021 L 62.583796 125.286984 L 62.04073 125.431651 L 61.532737 125.719854 L 61.204635 126.153854 L 60.986277 126.700875 L 60.951204 127.243375 L 61.094891 127.787005 L 61.38792 128.259432 L 62.728613 129.638286 L 64.216387 130.834047 L 65.813905 131.848974 L 67.516642 132.720365 L 69.33365 133.337458 L 71.184599 133.771458 L 107.395766 140.188781 L 106.016606 140.697375 L 104.603504 141.169802 L 103.184745 141.494172 L 101.735438 141.677266 L 100.247664 141.786896 L 98.794964 141.751859 L 97.345657 141.642229 L 95.891825 141.422969 L 94.442518 141.060172 L 93.064489 140.591135 L 90.341241 139.571687 L 88.96208 139.064224 L 87.547847 138.66526 L 86.095146 138.375927 L 84.645839 138.157797 L 83.193139 138.087724 L 81.704234 138.087724 L 80.254927 138.197354 L 78.767153 138.340891 L 77.35292 138.595188 L 75.935292 139.029188 L 73.176971 140.044115 L 70.419781 141.025135 L 69.005547 141.349505 L 67.556241 141.567635 L 66.067336 141.642229 L 64.614635 141.602672 L 63.165328 141.458005 Z M 61.712628 141.204839" transform="matrix(3.452621,0,0,3.456221,0,0)"></path>
    <path style="fill-rule:evenodd;fill:rgb(0.784314%,1.960784%,1.960784%);fill-opacity:1;stroke-width:0.215738;stroke-linecap:butt;stroke-linejoin:miter;stroke:rgb(0.784314%,1.960784%,1.960784%);stroke-opacity:1;stroke-miterlimit:2.613;" d="M 106.196496 116.330083 L 106.12635 115.563802 L 105.833321 114.802042 L 105.435073 114.114875 L 104.856934 113.572375 L 104.20073 113.133854 L 103.442701 112.880687 L 102.641679 112.774448 L 101.845182 112.880687 L 101.118832 113.133854 L 100.427555 113.572375 L 99.884489 114.114875 L 99.451168 114.802042 L 99.196606 115.563802 L 99.087993 116.330083 L 99.196606 117.12688 L 99.451168 117.888641 L 99.884489 118.540771 L 100.427555 119.118307 L 101.118832 119.555698 L 101.845182 119.809995 L 102.641679 119.880068 L 103.442701 119.809995 L 104.20073 119.555698 L 104.856934 119.118307 L 105.435073 118.540771 L 105.833321 117.888641 L 106.12635 117.12688 Z M 106.196496 116.330083" transform="matrix(3.452621,0,0,3.456221,0,0)"></path>
    <path style="fill-rule:evenodd;fill:rgb(0.784314%,1.960784%,1.960784%);fill-opacity:1;stroke-width:0.215738;stroke-linecap:butt;stroke-linejoin:miter;stroke:rgb(0.784314%,1.960784%,1.960784%);stroke-opacity:1;stroke-miterlimit:2.613;" d="M 125.068029 121.368552 L 124.993358 120.571755 L 124.739927 119.809995 L 124.30208 119.157865 L 123.723942 118.575807 L 123.072263 118.176844 L 122.309708 117.888641 L 121.509818 117.814047 L 120.747263 117.888641 L 119.985839 118.176844 L 119.297956 118.575807 L 118.751496 119.157865 L 118.318175 119.809995 L 118.063613 120.571755 L 117.955 121.368552 L 118.063613 122.165349 L 118.318175 122.892073 L 118.751496 123.57924 L 119.297956 124.161297 L 119.985839 124.56026 L 120.747263 124.814557 L 121.509818 124.923057 L 122.309708 124.814557 L 123.072263 124.56026 L 123.723942 124.161297 L 124.30208 123.57924 L 124.739927 122.892073 L 124.993358 122.165349 Z M 125.068029 121.368552" transform="matrix(3.452621,0,0,3.456221,0,0)"></path>
    <path style="fill-rule:evenodd;fill:rgb(0.784314%,1.960784%,1.960784%);fill-opacity:1;stroke-width:0.215738;stroke-linecap:butt;stroke-linejoin:miter;stroke:rgb(0.784314%,1.960784%,1.960784%);stroke-opacity:1;stroke-miterlimit:2.613;" d="M 122.454526 117.923677 L 103.54792 112.919115 L 101.735438 119.771568 L 120.603577 124.814557 Z M 122.454526 117.923677" transform="matrix(3.452621,0,0,3.456221,0,0)"></path>
  </g>
</svg>