
<svg xmlns="http://www.w3.org/2000/svg" height="525" width="600" version="1.1" viewBox="0 0 600 525">
  <path d="M597.6,499.6,313.8,8c-2.9-5-8.2-8-13.9-8s-11,3.1-13.9,8l-283.8,491.6c-2.9,5-2.9,11.1,0,16,2.9,5,8.2,8,13.9,8h567.6c5.7,0,11-3.1,13.9-8,2.9-5,2.9-11.1,0-16z"></path>
  <polygon points="43.875,491.5,299.88,48.2,555.88,491.5" fill="#f6bd16" transform="matrix(1,0,0,0.99591458,0.125,2.0332437)"></polygon>
  <path fill="#000000" d="m345.02,240.62-4.8116,12.679c34.689,8.0763,60.567,39.199,60.567,76.335,0.00001,35.106-23.109,64.846-54.943,74.807,13.958-10.549,23.559-26.517,25.716-44.767,0.11587-0.9804,0.22034-1.9654,0.29259-2.9585,0.006-0.076,0.0273-0.15153,0.0325-0.22757,0.0154-0.20598,0.0191-0.41172,0.0325-0.6177,0.0396-0.66094,0.0776-1.3171,0.0975-1.9832,0.0235-0.67185,0.0296-1.3446,0.0325-2.0157,0.005-1.1259-0.045-2.2592-0.0975-3.3811-0.0503-1.0734-0.1252-2.1508-0.22757-3.2186-0.004-0.043,0.004-0.0871,0-0.13004-0.003-0.0323,0.003-0.0652,0-0.0975-0.0648-0.65271-0.14343-1.3007-0.22757-1.9506-1.0329-13.315-4.9742-26.616-12.094-38.948-25.473-44.12-81.923-59.284-126.04-33.811-36.781,21.236-53.448,64.043-43.207,103.25l13.394-2.1782c-10.35-34.08,3.6663-72.039,35.827-90.607,30.249-17.464,67.327-12.448,91.875,9.8507-10.332-4.259-21.279-5.7115-31.893-4.584-0.23796,0.0237-0.47734,0.0387-0.71523,0.065-0.33573,0.0394-0.67287,0.0856-1.0078,0.13004-1.0618,0.13405-2.1274,0.30071-3.186,0.48766-2.1046,0.37164-4.1936,0.84674-6.2746,1.4305l-0.0975-0.2926c-1.9471,0.67469-3.8816,1.4388-5.7869,2.2432-0.11876,0.0458-0.23899,0.0835-0.35761,0.13005-3.0306,1.1902-6.0355,2.6143-8.9404,4.2914-1.1128,0.64245-2.1579,1.3518-3.2186,2.0482-12.588,7.7678-23.495,18.648-31.405,32.348-25.473,44.12-10.342,100.6,33.779,126.08,36.781,21.236,82.154,14.235,110.99-14.24l-8.5828-10.501c-24.339,26.004-64.234,32.872-96.394,14.305-30.153-17.409-44.365-51.884-37.485-84.202,1.1108,8.2692,3.8294,16.453,8.2577,24.123,3.0697,5.3169,6.774,10.044,10.956,14.142,0.16266,0.16092,0.32336,0.32841,0.48766,0.48766l-0.22757,0.26008c2.0238,1.7524,4.1347,3.4331,6.3071,5.0066,0.095,0.0688,0.19736,0.12663,0.29259,0.19506,0.0123,0.009,0.0202,0.0233,0.0325,0.0325,2.0357,1.5228,4.1968,2.9106,6.4046,4.1939,0.59737,0.3472,1.179,0.71157,1.7881,1.0403,13.455,7.6555,29.004,12.029,45.58,12.029,50.946,0,92.298-41.32,92.298-92.265,0-42.471-28.739-78.278-67.817-89.014zm-39.078,60.957c27.777-0.00001,50.326,22.517,50.326,50.294,0,8.6803-2.2039,16.862-6.0795,23.993-0.357,0.65683-0.72039,1.2793-1.1054,1.9181-0.033,0.0547-0.0644,0.10799-0.0975,0.16255-0.0207,0.0332-0.0443,0.0644-0.065,0.0975-0.28811,0.47152-0.60726,0.93682-0.91029,1.398-0.11958,0.18197-0.23576,0.37236-0.35762,0.55268-0.18906,0.27334-0.39152,0.54421-0.58519,0.81276-14.913,20.679-43.38,27.13-65.932,14.11-21.8-12.586-30.624-39.077-21.75-61.835,0.61204-1.5695,1.3313-3.1206,2.1132-4.649,0.29655-0.57964,0.62152-1.1505,0.94281-1.7231,0.10229-0.18229,0.18778-0.37114,0.2926-0.55268,0.13498-0.23381,0.28447-0.4519,0.42264-0.68272,0.35419-0.57889,0.69444-1.1576,1.0728-1.7231,0.069-0.10207,0.1578-0.19104,0.22757-0.29259,0.0271-0.0399,0.0378-0.0903,0.065-0.13004,0.44117-0.63824,0.89599-1.2692,1.3654-1.8856,0.3994-0.52908,0.81371-1.046,1.2354-1.5605,0.0347-0.042,0.0627-0.0881,0.0975-0.13004,0.25861-0.31347,0.54592-0.6025,0.81277-0.9103,0.27936-0.31983,0.52551-0.66269,0.81276-0.97532,0.48899-0.53579,1.0134-1.0439,1.528-1.5605,1.3188-1.3177,2.7035-2.5732,4.1614-3.7387,0.40581-0.3251,0.8174-0.66131,1.2354-0.97531,8.4074-6.3013,18.86-10.013,30.17-10.013z"></path>
</svg>