<?xml version="1.0" encoding="UTF-8" standalone="yes"?>
<svg xmlns:svg="http://www.w3.org/2000/svg" xmlns="http://www.w3.org/2000/svg" width="146.3374mm" height="146.3374mm" viewBox="0 0 146.3374 146.3374" version="1.1" id="svg949">
  <defs id="defs943"></defs>
  <g id="layer1" transform="translate(-32.286654,-76.042605)">
    <g id="g911" transform="matrix(0.37962855,0.40050158,-0.40050158,0.37962855,128.3401,54.334493)" style="stroke-width:1.81214333">
      <circle r="132.41096" cy="148.37587" cx="96.252052" id="path898" style="opacity:1;fill:#004488;fill-opacity:1;stroke:none;stroke-width:0.90607166;stroke-linecap:round;stroke-linejoin:round;stroke-miterlimit:4;stroke-dasharray:none;stroke-opacity:1"></circle>
      <path id="path849" transform="scale(0.26458333)" d="m 392.67578,548.22656 -5.66016,0.6875 0.88868,7.33008 a 101.58284,101.58284 0 0 0 -17.4336,3.9082 l -2.60937,-6.89843 -5.33203,2.01757 2.58789,6.84375 a 101.58284,101.58284 0 0 0 -16.37305,8.10157 l -4.36914,-6.32618 -4.69336,3.24024 4.21875,6.10742 a 101.58284,101.58284 0 0 0 -6.58984,5.02539 l -2.08789,-2.07812 -4.03711,-1 1.07422,3.97851 1.87304,1.86328 a 101.58284,101.58284 0 0 0 -4.24023,3.96094 l -5.20508,-4.97266 -3.93945,4.12305 5.26562,5.0293 a 101.58284,101.58284 0 0 0 -7.12695,8.73242 l 6.34766,4.83203 a 93.544869,93.544869 0 0 1 14.57226,-16.06054 l 39.26953,39.0664 a 35.996117,35.996117 0 0 0 -12.23047,19.7461 h 70.09375 a 35.996117,35.996117 0 0 0 -35.04101,-27.95899 35.996117,35.996117 0 0 0 -19.36719,5.72266 l -39.51367,-39.30664 a 93.544869,93.544869 0 0 1 58.49414,-20.71289 93.544869,93.544869 0 0 1 77.27148,40.98437 l 6.77344,-4.46289 a 101.58284,101.58284 0 0 0 -7.68555,-9.80859 l 5.00586,-4.88672 -3.98242,-4.08008 L 474,585.75195 a 101.58284,101.58284 0 0 0 -13.5332,-11.5332 l 4.08984,-6.02539 -4.71875,-3.20313 -4.06055,5.98047 a 101.58284,101.58284 0 0 0 -16.04687,-8.25 l 2.67383,-7.40039 -5.36328,-1.9375 -2.67579,7.40821 a 101.58284,101.58284 0 0 0 -17.57617,-4.34961 l 0.94336,-7.32813 -5.65625,-0.72656 -0.94531,7.3457 a 101.58284,101.58284 0 0 0 -9.61914,-0.54101 101.58284,101.58284 0 0 0 -7.94141,0.41015 z" style="opacity:1;fill:#ffffff;fill-opacity:1;stroke:none;stroke-width:13.69809151;stroke-miterlimit:4;stroke-dasharray:none;stroke-opacity:1"></path>
      <path id="path897" transform="scale(0.26458333)" d="m 466.55078,424.42188 v 42.18359 c 3.7544,7.49252 19.24243,12.99942 37.52149,13.00586 17.96013,-0.01 33.14108,-5.31948 37.26757,-12.55078 v -41.48828 a 43.317565,16.2222 0 0 1 -36.49023,7.51367 43.317565,16.2222 0 0 1 -38.29883,-8.66406 z" style="fill:#ffffff;fill-rule:evenodd;stroke:none;stroke-width:1.36980915;stroke-linecap:butt;stroke-linejoin:miter;stroke-miterlimit:4;stroke-dasharray:none;stroke-opacity:1"></path>
      <path id="path923" d="m 103.89453,38.917969 a 1.3826383,1.3826383 0 0 0 -1.07226,0.458984 c 0,0 -1.42992,1.550993 -3.32227,3.367188 -1.892355,1.816194 -4.287546,3.898664 -5.917969,4.832031 -2.924251,1.674046 -7.011336,4.512114 -8.267578,5.21875 -0.738142,0.415205 -1.379068,1.033368 -2.351562,1.921875 -0.972495,0.888507 -2.112676,1.97962 -3.205079,3.042969 -2.184804,2.126698 -4.179687,4.144531 -4.179687,4.144531 -0.0358,0.03358 -6.693524,6.277847 -13.658203,13.267578 -2.401835,2.410474 -4.422353,4.05481 -6.041016,6.003906 -1.618662,1.949097 -2.75239,4.243332 -3.158203,7.513672 -0.167354,1.34866 0.08425,2.528133 0.681641,3.394531 0.561345,0.814126 1.353232,1.265811 2.089844,1.527344 -0.963909,0.913615 -1.548034,1.358813 -4.1875,4.3125 -2.091128,2.340072 -4.370191,5.949272 -5.103516,9.767582 -0.366663,1.90915 -0.33209,3.90497 0.451172,5.74023 0.783261,1.83526 2.327802,3.43229 4.634765,4.51172 4.022435,1.88209 9.732303,0.81585 14.275391,-2.14258 2.423339,-1.57806 4.443651,-3.56753 5.988281,-5.28516 0.07114,0.17233 0.04108,0.19465 0.158203,0.38477 0.361773,0.58725 0.990468,1.28791 1.988282,1.87109 1.995627,1.16638 5.359074,1.8735 11.208984,0.98829 1.868705,-0.28278 3.756742,-1.39866 5.78125,-2.83204 2.024508,-1.43337 4.126596,-3.22359 6.044922,-4.98046 1.14548,-1.04908 1.121664,-1.1217 2.074219,-2.0625 -0.06412,0.71997 -0.04177,1.45691 0.330078,2.17968 l -0.13086,-0.39062 c 0.223406,1.25666 0.795253,2.82973 1.990231,4.22656 1.19499,1.39683 3.05858,2.56719 5.56641,2.83399 5.165,0.54946 9.625,-3.31641 9.625,-3.31641 a 1.3826383,1.3826383 0 0 0 0.0957,-0.0859 l 3.47461,-3.41601 0.004,-0.002 c 0.53034,-0.49051 1.26803,-1.02367 2.01562,-1.32226 0.74895,-0.29914 1.45027,-0.37911 2.15821,-0.12305 0.74009,0.26769 1.45234,0.89149 1.9414,1.57422 0.40889,0.5708 0.51524,1.05218 0.57032,1.25391 -0.0241,0.0205 -0.0242,0.023 -0.0508,0.0449 -0.31983,0.26321 -0.79113,0.57981 -1.23437,1.11132 -0.22162,0.26576 -0.47153,0.61258 -0.55469,1.15235 -0.0832,0.53977 0.14434,1.21456 0.50196,1.60937 0.71522,0.78963 1.57554,1.00687 2.95507,1.29883 1.7629,0.37309 4.18523,0.42341 6.44336,0.30274 1.12907,-0.0603 2.2019,-0.16817 3.11719,-0.32422 0.91529,-0.15606 1.60619,-0.2596 2.3418,-0.75 0.62045,-0.41363 1.16578,-0.89741 1.34375,-1.67969 0.17796,-0.78228 -0.15189,-1.39095 -0.32617,-1.70898 -0.34858,-0.63606 -0.48932,-0.57624 -0.29102,-1.27149 1.01235,-3.54933 1.3873,-6.14231 4.25195,-8.337889 3.57355,-2.738906 7.78606,-4.194535 10.82227,-6.435547 1.47069,-1.08551 2.80826,-2.347711 3.44726,-4.101563 0.639,-1.753852 0.43154,-3.857137 -0.73437,-6.158203 -1.16266,-2.294647 -3.35679,-3.203268 -5.14258,-3.542969 1.6922,-1.566976 3.50787,-3.243866 5.11914,-4.765625 2.51339,-2.373755 7.41992,-8.078125 7.41992,-8.078125 a 1.3826383,1.3826383 0 1 0 -2.09179,-1.80664 c 0,0 -5.03236,5.802695 -7.22657,7.875 -2.33794,2.208056 -7.50781,6.986328 -7.50781,6.986328 a 1.3826383,1.3826383 0 0 0 1.14453,2.382812 c 0,0 1.1414,-0.165917 2.47852,0.06055 1.33712,0.226464 2.64541,0.76813 3.33984,2.138672 0.93893,1.853088 0.95402,2.998923 0.60352,3.960938 -0.3505,0.962014 -1.21679,1.882851 -2.49219,2.824218 -2.45597,1.812745 -6.85453,3.39388 -10.86133,6.464844 -3.63587,2.786679 -4.26784,6.405299 -5.22851,9.773439 -0.41235,1.44568 0.14512,2.5936 0.42578,3.12109 -0.0347,0.0269 0.0276,-0.0386 -0.0273,-0.002 0.0983,-0.0655 -0.50612,0.19568 -1.27148,0.32617 -0.76537,0.13049 -1.75725,0.23319 -2.80273,0.28906 -2.09097,0.11174 -4.45734,0.0197 -5.72266,-0.24805 -0.50764,-0.10743 -0.39328,-0.0949 -0.64258,-0.19531 0.0706,-0.0584 0.0863,-0.076 0.16016,-0.13672 0.20105,-0.16546 0.41029,-0.33981 0.62695,-0.58789 0.21666,-0.24807 0.52045,-0.59827 0.54102,-1.25976 0.0362,-1.16517 -0.45294,-2.1582 -1.19727,-3.19727 -0.74433,-1.03907 -1.81715,-2.04423 -3.25,-2.5625 -1.46502,-0.52989 -2.93397,-0.32063 -4.12305,0.1543 -1.18907,0.47492 -2.15529,1.20065 -2.87304,1.86523 a 1.3826383,1.3826383 0 0 0 -0.0293,0.0273 l -3.42969,3.37304 c -0.0355,0.0269 -4.05517,3.06885 -7.5664,2.69532 -1.83806,-0.19554 -2.95915,-0.94957 -3.75586,-1.88086 -0.79672,-0.9313 -1.22269,-2.09026 -1.36914,-2.91407 a 1.3826383,1.3826383 0 0 0 -0.13282,-0.39062 c -0.0634,-0.12326 -0.12921,-0.55662 -0.002,-1.1836 0.12726,-0.62697 0.41161,-1.3944 0.74219,-2.10937 0.66116,-1.42995 1.46875,-2.626951 1.46875,-2.626951 a 1.3826383,1.3826383 0 0 0 -2.16407,-1.710937 c 0,0 -3.046186,3.323108 -6.777339,6.740228 -1.865576,1.70856 -3.900576,3.43571 -5.773437,4.76172 -1.872862,1.32601 -3.641182,2.21074 -4.597656,2.35547 -5.476642,0.82873 -8.171149,0.0778 -9.400391,-0.64062 -0.614621,-0.35923 -0.889653,-0.70692 -1.029297,-0.9336 -0.04568,-0.0741 -0.02012,-0.0363 -0.03711,-0.0664 l 0.68164,-2.9961 a 1.3826383,1.3826383 0 0 0 -2.492187,-1.08008 c 0,0 -3.538905,5.16323 -8.16211,8.17383 -3.856994,2.51165 -8.974616,3.18252 -11.59375,1.95703 -1.812385,-0.84801 -2.754435,-1.90055 -3.263672,-3.09375 -0.509236,-1.19319 -0.572608,-2.60558 -0.279296,-4.13281 0.586623,-3.05445 2.658738,-6.43949 4.451172,-8.445309 3.845536,-4.303335 5.982421,-6.167969 5.982421,-6.167969 A 1.3826383,1.3826383 0 0 0 58.23836,91.189336 c 0,0 -0.993633,0.104842 -1.753906,-0.140625 -0.380136,-0.122733 -0.640525,-0.292284 -0.806641,-0.533203 -0.166115,-0.240919 -0.319408,-0.627927 -0.21289,-1.486328 0.352016,-2.836807 1.170724,-4.437868 2.541015,-6.087891 1.370292,-1.650023 3.373708,-3.308077 5.873047,-5.816406 6.942483,-6.967456 13.628906,-13.240234 13.628906,-13.240234 a 1.3826383,1.3826383 0 0 0 0.03711,-0.03711 c 0,0 1.981492,-2.003811 4.142578,-4.107422 1.080543,-1.051805 2.206014,-2.128526 3.140625,-2.982422 0.934611,-0.853895 1.842166,-1.551843 1.84375,-1.552734 1.702662,-0.957746 5.573445,-3.679213 8.283203,-5.230469 2.110624,-1.208267 4.501498,-3.35567 6.458983,-5.234375 1.95749,-1.878704 3.44141,-3.488281 3.44141,-3.488281 a 1.3826383,1.3826383 0 0 0 -0.96094,-2.333984 z" style="color:#000000;font-style:normal;font-variant:normal;font-weight:normal;font-stretch:normal;font-size:medium;line-height:normal;font-family:sans-serif;font-variant-ligatures:normal;font-variant-position:normal;font-variant-caps:normal;font-variant-numeric:normal;font-variant-alternates:normal;font-feature-settings:normal;text-indent:0;text-align:start;text-decoration:none;text-decoration-line:none;text-decoration-style:solid;text-decoration-color:#000000;letter-spacing:normal;word-spacing:normal;text-transform:none;writing-mode:lr-tb;direction:ltr;text-orientation:mixed;dominant-baseline:auto;baseline-shift:baseline;text-anchor:start;white-space:normal;shape-padding:0;clip-rule:nonzero;display:inline;overflow:visible;visibility:visible;opacity:1;isolation:auto;mix-blend-mode:normal;color-interpolation:sRGB;color-interpolation-filters:linearRGB;solid-color:#000000;solid-opacity:1;vector-effect:none;fill:#ffffff;fill-opacity:1;fill-rule:evenodd;stroke:none;stroke-width:5.01057673;stroke-linecap:round;stroke-linejoin:round;stroke-miterlimit:4;stroke-dasharray:none;stroke-dashoffset:0;stroke-opacity:1;color-rendering:auto;image-rendering:auto;shape-rendering:auto;text-rendering:auto;enable-background:accumulate"></path>
      <path id="path830" d="m 80.830078,48.083984 c -1.090035,-0.116789 -1.848105,0.373226 -2.552734,0.875 -0.70463,0.501775 -1.35806,1.126132 -1.945313,1.744141 -0.315759,0.332296 -0.295446,0.357343 -0.560547,0.666016 -0.06014,-0.123396 -0.106557,-0.246602 -0.171875,-0.367188 -0.204392,-0.37734 -0.380643,-0.726656 -0.820312,-1.103515 -0.608683,-0.521728 -1.025787,-0.436272 -1.394531,-0.429688 -0.368744,0.0066 -0.729754,0.06365 -1.136719,0.150391 -0.81393,0.173475 -1.790583,0.482023 -2.888672,0.919921 -2.196179,0.875797 -4.856165,2.26277 -7.242187,4.128907 -2.780264,2.174477 -6.264522,5.266442 -9.236329,8.154297 -1.485903,1.443927 -2.840676,2.83437 -3.917968,4.042968 -1.077293,1.208599 -1.86192,2.154174 -2.310547,3.085938 -0.832611,1.729269 -0.243258,3.463952 0.501953,4.423828 0.147358,0.189806 0.175828,0.135552 0.328125,0.289062 -0.772643,0.740277 -2.445082,2.331601 -5.123047,4.994141 -3.231648,3.213035 -6.656337,6.673476 -7.986328,8.560547 -0.933773,1.324893 -3.414791,4.936681 -5.228516,8.667969 -0.906862,1.865643 -1.657997,3.752451 -1.939453,5.517581 -0.140728,0.88256 -0.168134,1.74481 0.0332,2.58398 0.201337,0.83918 0.682911,1.66505 1.439453,2.21289 0.778047,0.56341 1.649408,0.73669 2.515625,0.74414 -1.369079,1.64501 -2.494933,3.12739 -4.152343,4.89258 -5.637384,6.00399 -10.230365,13.08058 -12.160157,17.53906 -2.030104,4.69024 -1.672542,8.78111 0.611329,11.3086 2.28387,2.52748 6.166918,3.193 10.279296,1.9414 4.05985,-1.23561 9.081481,-5.49517 13.414063,-9.45898 1.660391,-1.51906 1.726624,-1.68851 2.984375,-2.93555 0.07993,0.58189 0.05651,0.96882 0.480469,2.04688 0.658955,1.67563 1.99502,3.71549 4.486328,4.46289 2.529674,0.7589 5.331966,-0.0699 8.21289,-1.6836 2.880924,-1.61367 5.911333,-4.08906 8.917969,-7.0957 4.153877,-4.15388 9.330078,-12.05078 9.330078,-12.05078 a 1.3826383,1.3826383 0 1 0 -2.30664,-1.52344 c 0,0 -5.268993,7.90962 -8.978516,11.61914 -2.883656,2.88366 -5.770027,5.21348 -8.314453,6.63867 -2.544426,1.4252 -4.67309,1.86722 -6.066406,1.44922 -1.431684,-0.4295 -2.221783,-1.5942 -2.707032,-2.82812 -0.415271,-1.05598 -0.455913,-1.74774 -0.480468,-2.00391 l 2.404297,-3.98437 a 1.3826383,1.3826383 0 0 0 -2.19336,-1.65821 c 0,0 -3.394996,3.62518 -7.636719,7.50586 -4.241722,3.88068 -9.517239,7.9909 -12.351562,8.85352 -3.406686,1.03682 -6.029896,0.39418 -7.423828,-1.14844 -1.393933,-1.54262 -1.887118,-4.28437 -0.125,-8.35547 1.709186,-3.94881 6.237447,-10.99362 11.638672,-16.74609 6.163282,-6.56408 10.785156,-13.22266 10.785156,-13.22266 l -0.002,-0.002 c 5.7e-5,-9e-5 0.01563,-0.0176 0.01563,-0.0176 a 1.3826383,1.3826383 0 0 0 -2.283203,-1.556639 c 0,0 -0.01362,0.01946 -0.01367,0.01953 -2.1e-5,3e-5 -0.0058,0.0078 -0.0059,0.0078 -0.0055,0.0082 -1.298034,1.916669 -2.96875,3.453129 -0.837145,0.76987 -1.765359,1.41744 -2.523437,1.68945 -0.758078,0.27202 -1.20227,0.2645 -1.761719,-0.14062 -0.191513,-0.13868 -0.290059,-0.27944 -0.371094,-0.61719 -0.08103,-0.33775 -0.09476,-0.86256 0.0078,-1.50586 0.205153,-1.2866 0.852917,-3.009171 1.695312,-4.74219 1.684791,-3.466038 4.107061,-7.013475 5.001953,-8.283203 0.897369,-1.273241 4.468272,-5.004324 7.675782,-8.193359 3.207509,-3.189035 6.140625,-5.986328 6.140625,-5.986329 a 1.3826383,1.3826383 0 0 0 -0.273438,-2.205078 c 0,0 -0.483691,-0.291817 -0.83789,-0.748046 -0.354199,-0.45623 -0.564757,-0.761991 -0.195313,-1.529297 0.1524,-0.316524 0.8715,-1.310736 1.882813,-2.445313 1.011313,-1.134577 2.329488,-2.489641 3.78125,-3.90039 2.903523,-2.8215 6.353476,-5.878414 9.013671,-7.958985 2.119658,-1.657809 4.591435,-2.952256 6.5625,-3.738281 0.985533,-0.393013 1.852864,-0.659719 2.441407,-0.785156 0.153189,-0.03265 0.211277,-0.03084 0.318359,-0.04492 0.01791,0.02912 0.008,0.0089 0.02539,0.04102 0.133685,0.246804 0.284818,0.576922 0.417969,0.896485 0.266301,0.639124 0.46289,1.222656 0.46289,1.222656 a 1.3826383,1.3826383 0 0 0 2.423828,0.382812 c 0,0 0.833853,-1.127594 1.863282,-2.210937 0.514714,-0.541672 1.079814,-1.065276 1.544921,-1.396484 0.465108,-0.331208 0.828968,-0.360192 0.654297,-0.378907 1.388118,0.148727 2.158203,0.857422 2.158203,0.857422 a 1.3832503,1.3832503 0 1 0 1.863282,-2.044922 c 0,0 -1.453225,-1.318928 -3.726563,-1.5625 z" style="color:#000000;font-style:normal;font-variant:normal;font-weight:normal;font-stretch:normal;font-size:medium;line-height:normal;font-family:sans-serif;font-variant-ligatures:normal;font-variant-position:normal;font-variant-caps:normal;font-variant-numeric:normal;font-variant-alternates:normal;font-feature-settings:normal;text-indent:0;text-align:start;text-decoration:none;text-decoration-line:none;text-decoration-style:solid;text-decoration-color:#000000;letter-spacing:normal;word-spacing:normal;text-transform:none;writing-mode:lr-tb;direction:ltr;text-orientation:mixed;dominant-baseline:auto;baseline-shift:baseline;text-anchor:start;white-space:normal;shape-padding:0;clip-rule:nonzero;display:inline;overflow:visible;visibility:visible;opacity:1;isolation:auto;mix-blend-mode:normal;color-interpolation:sRGB;color-interpolation-filters:linearRGB;solid-color:#000000;solid-opacity:1;vector-effect:none;fill:#ffffff;fill-opacity:1;fill-rule:evenodd;stroke:none;stroke-width:5.01057673;stroke-linecap:round;stroke-linejoin:round;stroke-miterlimit:4;stroke-dasharray:none;stroke-dashoffset:0;stroke-opacity:1;color-rendering:auto;image-rendering:auto;shape-rendering:auto;text-rendering:auto;enable-background:accumulate"></path>
      <path id="path832" d="m 128.28176,49.655502 1.9288,1.569193 c 0,0 -4.15743,4.213929 -5.23625,12.811815 -0.9129,7.275492 0.49598,12.229936 0.49598,12.229936 l 2.74609,-7.126763 2.09226,0.392298 -4.24991,14.384295 -10.74267,-10.96522 1.36183,-1.49656 6.17707,5.465784 c 0,0 -1.06424,-5.590203 -0.47654,-12.749047 0.71178,-8.670341 5.90334,-14.515731 5.90334,-14.515731 z" style="fill:#ffffff;fill-rule:evenodd;stroke:none;stroke-width:0.47946289px;stroke-linecap:butt;stroke-linejoin:miter;stroke-opacity:1"></path>
      <path id="path834" d="m 78.780822,77.208903 c 0,0 5.8467,-6.840428 11.835616,-8.183219 6.522666,-1.462465 14.933222,1.109589 14.933222,1.109589 l -4.94692,-7.304794 1.24828,-1.386985 9.70891,12.205477 -14.424659,2.589041 -0.416094,-2.311644 6.796233,-1.895546 c 0,0 -6.831865,-1.218751 -11.280822,-0.601028 -6.088994,0.845437 -11.696917,7.489725 -11.696917,7.489725 z" style="fill:#ffffff;fill-rule:evenodd;stroke:none;stroke-width:0.47946289px;stroke-linecap:butt;stroke-linejoin:miter;stroke-opacity:1"></path>
      <path id="path836" d="m 107.81507,79.56678 c 0,0 8.75254,1.636883 14.93321,7.535958 6.91554,6.600462 8.09076,9.015412 8.09076,9.015412 l 0.1387,-8.414383 1.71061,-0.231166 1.34076,15.488019 -13.54624,-6.102746 0.87843,-1.895546 7.25856,2.40411 c 0,0 -4.46582,-5.457621 -9.01541,-9.29281 C 114.01028,83.357877 107.5839,82.15582 107.5839,82.15582 Z" style="fill:#ffffff;fill-rule:evenodd;stroke:none;stroke-width:0.47946289px;stroke-linecap:butt;stroke-linejoin:miter;stroke-opacity:1"></path>
      <path id="path838" transform="scale(0.26458333)" d="m 320.82031,463.21094 -32.50195,33.04687 H 534 l 31.80273,-33.04687 h -16.71679 a 45.303288,23.538507 0 0 1 -45.24219,22.91211 45.303288,23.538507 0 0 1 -45.25977,-22.91211 z" style="fill:#ffffff;fill-rule:evenodd;stroke:none;stroke-width:1.81214321px;stroke-linecap:butt;stroke-linejoin:miter;stroke-opacity:1"></path>
      <path id="rect835" transform="scale(0.26458333)" d="m 275.38867,512.33398 v 22.63477 393.94141 h 22.63477 216.01172 13.24609 V 512.33398 h -1.66797 -20.96875 -206.62109 z m 22.63477,22.63477 h 206.62109 v 122.9707 H 298.02344 Z" style="opacity:1;fill:#ffffff;fill-opacity:1;stroke:none;stroke-width:0.68490458;stroke-linecap:round;stroke-linejoin:round;stroke-miterlimit:4;stroke-dasharray:none;stroke-opacity:1"></path>
      <path id="path850" d="m 143.22945,135.55479 8.58468,-9.23154 0.3328,110.19354 -8.91748,9.25718 z" style="fill:#ffffff;fill-rule:evenodd;stroke:none;stroke-width:0.47946289px;stroke-linecap:butt;stroke-linejoin:miter;stroke-opacity:1"></path>
    </g>
  </g>
</svg>