<?xml version="1.0" encoding="UTF-8" standalone="no"?>
<!-- Created with Inkscape (http://www.inkscape.org/) -->

<svg
   width="500"
   height="500"
   viewBox="0 0 132.29166 132.29167"
   version="1.1"
   id="svg5"
   inkscape:version="1.1 (c4e8f9ed74, 2021-05-24)"
   sodipodi:docname="phone-warning$.svg"
   xmlns:inkscape="http://www.inkscape.org/namespaces/inkscape"
   xmlns:sodipodi="http://sodipodi.sourceforge.net/DTD/sodipodi-0.dtd"
   xmlns="http://www.w3.org/2000/svg"
   xmlns:svg="http://www.w3.org/2000/svg">
  <sodipodi:namedview
     id="namedview7"
     pagecolor="#ffffff"
     bordercolor="#666666"
     borderopacity="1.0"
     inkscape:pageshadow="2"
     inkscape:pageopacity="0.0"
     inkscape:pagecheckerboard="0"
     inkscape:document-units="mm"
     showgrid="false"
     units="px"
     width="400px"
     inkscape:zoom="1.2953002"
     inkscape:cx="116.18928"
     inkscape:cy="284.10402"
     inkscape:window-width="1920"
     inkscape:window-height="1015"
     inkscape:window-x="0"
     inkscape:window-y="0"
     inkscape:window-maximized="1"
     inkscape:current-layer="layer1" />
  <defs
     id="defs2">
    <marker
       viewBox="0 0 10 10"
       refY="5"
       refX="0"
       orient="auto"
       markerWidth="4"
       markerUnits="strokeWidth"
       markerHeight="3"
       id="ArrowEnd">
      <path
         id="path1612"
         d="M 0 0 L 10 5 L 0 10 z" />
    </marker>
    <marker
       viewBox="0 0 10 10"
       refY="5"
       refX="10"
       orient="auto"
       markerWidth="4"
       markerUnits="strokeWidth"
       markerHeight="3"
       id="ArrowStart">
      <path
         id="path1614"
         d="M 10 0 L 0 5 L 10 10 z" />
    </marker>
  </defs>
  <g
     inkscape:label="Calque 1"
     inkscape:groupmode="layer"
     id="layer1">
    <path
       style="color:#000000;solid-color:#000000;fill:#ffffff;fill-opacity:1;stroke:none;stroke-width:0.940175"
       d="M 66.458631,8.6108521 C 63.976644,8.4935633 61.628143,9.7769868 60.38605,11.929009 L 31.005579,62.817821 1.6251079,113.70664 c -2.51462987,4.35455 0.7301117,9.97445 5.7585725,9.97467 H 66.144622 124.90741 c 5.02847,-2.4e-4 8.27321,-5.62013 5.75857,-9.97467 L 101.28551,62.817821 71.903195,11.929009 C 70.772981,9.9707527 68.718924,8.7183079 66.460464,8.6108521 h -0.0019 z"
       id="path4583" />
    <path
       style="color:#000000;solid-color:#000000;fill:#000000;fill-opacity:1;stroke:none;stroke-width:0.940175"
       d="m 66.370499,10.489366 c -1.782816,-0.08425 -3.463464,0.834012 -4.355662,2.379818 L 32.634366,63.757996 3.2538954,114.64682 c -1.8360021,3.17937 0.4583824,7.15398 4.1297946,7.15413 h 58.760941 58.762789 c 3.67141,-1.6e-4 5.96578,-3.97477 4.12978,-7.15413 L 99.65673,63.757996 70.274426,12.869184 c -0.811475,-1.405995 -2.282397,-2.302667 -3.903927,-2.379818 z"
       id="path4577" />
    <path
       style="fill:#ffcc00;fill-opacity:1;stroke:none;stroke-width:0.940175"
       id="path4573"
       d="M 124.9075,117.03183 H 66.145544 7.3835862 L 36.764565,66.142481 66.145544,15.253134 95.526522,66.14248 Z" />
    <path
       d="m 72.340324,53.83816 c -0.65489,-2.155269 -2.933281,-3.371729 -5.088547,-2.71684 l -18.661795,5.670487 c -2.155265,0.654889 -3.371728,2.93328 -2.716838,5.088548 l 14.078419,46.332625 c 0.65471,2.15468 2.933104,3.37114 5.08837,2.71626 l 18.662385,-5.67067 c 2.154675,-0.65471 3.371135,-2.93311 2.716242,-5.08839 z m -15.015386,3.584793 3.515926,-1.068334 c 0.213027,-0.06473 0.413432,-0.02976 0.478154,0.183238 0.06473,0.213026 -0.08298,0.353768 -0.295372,0.418304 l -3.515927,1.068333 c -0.213026,0.06473 -0.413453,0.02977 -0.478182,-0.183255 -0.06473,-0.213026 0.08253,-0.353606 0.295401,-0.418286 z m 16.854328,49.149657 c -1.180192,0.35861 -2.427238,-0.30719 -2.785854,-1.48741 -0.358604,-1.18018 0.307211,-2.42724 1.487402,-2.78584 1.180191,-0.35861 2.427244,0.30721 2.785849,1.48739 0.358615,1.18022 -0.307207,2.42725 -1.487397,2.78586 z m 9.427246,-9.169702 -22.858015,6.945532 -12.24608,-40.302327 22.858015,-6.945532 z"
       id="path913"
       style="stroke-width:0.628683" />
    <path
       style="fill:none;stroke:#000000;stroke-width:3.96875;stroke-linecap:butt;stroke-linejoin:miter;stroke-miterlimit:4;stroke-dasharray:none;stroke-opacity:1"
       d="M 47.556372,106.0664 84.735294,56.401632"
       id="path4814"
       sodipodi:nodetypes="cc" />
  </g>
</svg>
