<?xml version="1.0" encoding="UTF-8" standalone="yes"?>
<svg width="52.917mm" height="52.917mm" viewBox="0 0 52.917 52.917" version="1.1" id="svg30598" xmlns="http://www.w3.org/2000/svg" xmlns:svg="http://www.w3.org/2000/svg">
  <defs id="defs30595"/>
  <g id="layer1" transform="translate(-78.16259,-129.09654)">
    <rect style="fill:#ffffff;fill-opacity:1;stroke:none;stroke-width:2.01819" id="rect70551" width="52.917" height="52.917" x="78.16259" y="129.09654"/>
    <path id="rect30345" style="display:inline;fill:#000000;stroke-width:2.4;stroke-linecap:round" d="m 117.85052,136.2376 -32.39596,11.48612 5.93711,16.74471 4.90978,-1.74098 c 0.66142,2.11299 2.61869,3.55143 4.83278,3.55172 2.79723,5e-5 5.06485,-2.26757 5.0648,-5.0648 -1.9e-4,-0.64008 -0.1217,-1.27432 -0.35812,-1.86914 l 17.94671,-6.36292 z m -0.89866,1.7787 5.01727,14.15004 -16.81861,5.96346 c -0.28267,-0.3682 -0.61461,-0.6958 -0.98651,-0.97359 l 16.39487,-5.81308 -4.18321,-11.79876 -20.55688,7.28896 3.43286,9.68055 c -1.9216,0.76935 -3.18167,2.63059 -3.18223,4.70049 0.001,0.0445 0.003,0.0889 0.005,0.13332 l -3.78478,1.34204 -5.01727,-14.15056 z m -10.20402,5.97586 0.3085,0.86971 c 0.74869,-0.22459 1.64882,-0.42725 2.08618,-0.34519 l 0.0424,1.50326 c -0.60942,-0.04 -0.99876,0.0908 -1.63349,0.23823 l 0.73174,2.06396 c 0.8654,0.0163 1.52953,0.15072 1.99213,0.40359 0.46131,0.24926 0.78458,0.63523 0.96996,1.15808 0.2137,0.60271 0.20164,1.15481 -0.0367,1.65623 -0.23961,0.49777 -0.68904,0.90852 -1.34772,1.23196 l 0.4191,1.18132 -0.76378,0.27078 -0.34985,-0.9865 c -0.70924,0.24723 -1.93139,0.30974 -2.65875,0.19585 v -1.28726 c 0.74409,-0.0104 1.50375,0.0618 2.22467,-0.13332 l -0.78187,-2.20503 c -0.92801,-0.0269 -1.60717,-0.17009 -2.03708,-0.43047 -0.42772,-0.26525 -0.73602,-0.66311 -0.92398,-1.19321 -0.20211,-0.57005 -0.18036,-1.12322 0.0651,-1.65984 0.24419,-0.54029 0.62008,-1.10882 1.23507,-1.40044 l -0.30541,-0.86092 z m 0.0475,2.5585 c -0.61547,0.50997 -0.22772,1.51035 0.55087,1.55443 z m 2.0283,3.29644 0.67851,1.91358 c 0.51663,-0.96411 0.32292,-1.8152 -0.67851,-1.91358 z m -7.52719,7.82381 c 0.32636,0 0.63122,0.0346 0.91415,0.10439 0.16716,0.0412 0.13326,0.03 0.28526,0.0956 l -0.22583,0.87333 c -0.0256,-0.007 -0.05,0.004 -0.13229,-0.0134 -1.24579,-0.2704 -2.60553,0.18925 -2.94452,1.35494 h 3.25768 v 0.66199 h -3.38274 c -0.0303,0.31194 -0.0322,0.60336 -0.006,0.87435 h 3.38842 v 0.66147 h -3.29747 c 0.27285,1.15326 0.93603,1.73012 1.98954,1.73012 0.49644,0 1.01183,-0.13721 1.54616,-0.41134 v 0.72346 c -0.50401,0.23318 -1.03835,0.34985 -1.603,0.34985 -1.61816,0 -2.58262,-0.79715 -2.89336,-2.39158 h -0.524 v -0.66198 h 0.4501 c -0.0152,-0.0977 -0.0227,-0.21885 -0.0227,-0.36379 0,-0.15126 0.0114,-0.32151 0.0341,-0.51056 h -0.46147 v -0.66199 h 0.58084 c 0.19327,-0.75624 0.55707,-1.34659 1.09141,-1.77198 0.53812,-0.42854 1.18993,-0.64286 1.95543,-0.64286 z m 15.71635,0.015 c -3.02397,-1.5e-4 -5.4755,2.45115 -5.47563,5.47512 -1.5e-4,3.02417 2.45146,5.47578 5.47563,5.47563 3.02397,-1.4e-4 5.47526,-2.45166 5.47512,-5.47563 -1.4e-4,-3.02377 -2.45135,-5.47498 -5.47512,-5.47512 z m 0.84774,1.84948 c 0.41107,3e-5 0.82151,0.0635 1.18494,0.17725 v 0.89917 c -1.19966,-0.36288 -2.32423,-0.0949 -2.34146,1.02216 v 0.95601 h 1.46348 v 0.79582 h -1.46348 v 2.07326 h 1.94717 v 0.88093 h -4.44831 v -0.88093 h 1.19424 v -2.07326 h -0.71417 v -0.79582 h 0.69764 v -1.00149 c 0.006,-1.48381 1.24671,-2.0532 2.47995,-2.0531 z m -10.80992,6.48489 c -2.4445,-9e-5 -4.42618,1.98159 -4.42609,4.42609 -9e-5,2.4445 1.98159,4.42618 4.42609,4.42609 2.4445,9e-5 4.42618,-1.98159 4.42608,-4.42609 1e-4,-2.4445 -1.98158,-4.42618 -4.42608,-4.42609 z m -2.12855,1.91463 h 0.9896 l 0.99219,1.89909 c 0.0837,0.14287 0.15404,0.40792 0.21084,0.53847 h 0.0176 c 0.0389,-0.10345 0.11253,-0.37594 0.22014,-0.56069 l 0.9896,-1.87687 h 0.94723 l -1.49086,2.55228 h 0.95033 v 0.51367 h -1.27538 v 0.63614 h 1.27538 v 0.51366 h -1.27538 v 1.0821 h -0.86403 v -1.0821 h -1.14515 V 171.637 h 1.14515 v -0.63614 h -1.14515 v -0.51367 h 0.94258 z"/>
  </g>
</svg>