<?xml version="1.0" encoding="UTF-8" standalone="yes"?>
<svg width="52.917mm" height="52.917mm" viewBox="0 0 52.917 52.917" version="1.1" id="svg2552" xmlns="http://www.w3.org/2000/svg" xmlns:svg="http://www.w3.org/2000/svg">
  <defs id="defs2549"/>
  <g id="layer1" transform="translate(-89.512924,-90.644356)">
    <rect style="fill:#ffffff;fill-opacity:1;stroke:none;stroke-width:2.01819" id="rect70551" width="52.917" height="52.917" x="89.512924" y="90.644356"/>
    <path id="rect2312" style="display:inline;fill:#000000;stroke-width:0.499187" d="m 98.31488,107.74477 c -0.93879,0 -1.694471,0.75568 -1.694471,1.69447 v 11.96154 c 0,0.93879 0.755681,1.69499 1.694471,1.69499 h 1.343587 a 4.8439283,4.8439283 0 0 1 4.832783,-4.6607 4.8439283,4.8439283 0 0 1 4.83329,4.6607 h 12.99766 a 4.8439283,4.8439283 0 0 1 4.8333,-4.6607 4.8439283,4.8439283 0 0 1 4.83278,4.6607 h 1.63969 c 0.93879,0 1.69447,-0.7562 1.69447,-1.69499 v -11.96154 c 0,-0.93879 -0.75568,-1.69447 -1.69447,-1.69447 z m 0.201538,2.16628 h 6.970632 c 0.22383,0 0.40411,0.17976 0.40411,0.40359 v 4.92011 c 0,0.22383 -0.18028,0.40411 -0.40411,0.40411 h -6.970632 c -0.223831,0 -0.40411,-0.18028 -0.40411,-0.40411 v -4.92011 c 0,-0.22383 0.180279,-0.40359 0.40411,-0.40359 z m 9.216492,0 h 6.97063 c 0.22383,0 0.40411,0.17976 0.40411,0.40359 v 4.92011 c 0,0.22383 -0.18028,0.40411 -0.40411,0.40411 h -6.97063 c -0.22383,0 -0.40411,-0.18028 -0.40411,-0.40411 v -4.92011 c 0,-0.22383 0.18028,-0.40359 0.40411,-0.40359 z m 9.21649,0 h 6.97064 c 0.22383,0 0.40411,0.17976 0.40411,0.40359 v 4.92011 c 0,0.22383 -0.18028,0.40411 -0.40411,0.40411 h -6.97064 c -0.22383,0 -0.40411,-0.18028 -0.40411,-0.40411 v -4.92011 c 0,-0.22383 0.18028,-0.40359 0.40411,-0.40359 z m 9.21649,0 h 6.97064 c 0.22383,0 0.40411,0.17976 0.40411,0.40359 v 4.92011 c 0,0.22383 -0.18028,0.40411 -0.40411,0.40411 h -6.97064 c -0.22383,0 -0.40411,-0.18028 -0.40411,-0.40411 v -4.92011 c 0,-0.22383 0.18028,-0.40359 0.40411,-0.40359 z m -21.67464,10.18594 a 3.1821427,3.1821427 0 0 0 -3.18172,3.18172 3.1821427,3.1821427 0 0 0 3.18172,3.18223 3.1821427,3.1821427 0 0 0 3.18223,-3.18223 3.1821427,3.1821427 0 0 0 -3.18223,-3.18172 z m 22.66425,0 a 3.1821427,3.1821427 0 0 0 -3.18224,3.18172 3.1821427,3.1821427 0 0 0 3.18224,3.18223 3.1821427,3.1821427 0 0 0 3.18223,-3.18223 3.1821427,3.1821427 0 0 0 -3.18223,-3.18172 z"/>
  </g>
</svg>