<?xml version="1.0" encoding="UTF-8" standalone="yes"?>
<svg width="52.917mm" height="52.917mm" viewBox="0 0 52.917 52.917" version="1.1" id="svg2655" xmlns="http://www.w3.org/2000/svg" xmlns:svg="http://www.w3.org/2000/svg">
  <defs id="defs2652"/>
  <g id="layer1" transform="translate(-78.751175,-122.21892)">
    <rect style="fill:#ffffff;fill-opacity:1;stroke:none;stroke-width:2.01819" id="rect70551" width="52.917" height="52.917" x="78.751175" y="122.21892"/>
    <path id="path540" style="color:#000000;display:inline;fill:#000000;-inkscape-stroke:none" d="m 95.482367,132.196 c -0.46294,4.18327 -3.84032,7.4722 -8.06308,7.80159 v 1.20458 c 4.874,-0.33699 8.79782,-4.17048 9.27127,-9.00617 z m 3.33881,0 c -0.48202,6.02174 -5.34138,10.7943 -11.40189,11.13679 v 1.20199 c 6.71096,-0.34678 12.11548,-5.66591 12.603893,-12.33878 z m 3.332623,0 c -0.20709,3.30284 -1.44779,6.32225 -3.402903,8.73952 h -2.09238 v 2.12958 c -2.52021,2.11486 -5.72579,3.44044 -9.23923,3.59617 v 1.19837 c 3.45427,-0.14275 6.63833,-1.33905 9.23923,-3.27525 v 2.87218 c -2.70653,1.65686 -5.86007,2.65696 -9.23923,2.77864 v 1.19889 c 3.34941,-0.1139 6.49298,-1.0435 9.23923,-2.59467 v 7.57576 H 118.1368 v -15.47967 h -13.66377 c 1.43783,-2.61578 2.31452,-5.58269 2.466,-8.73952 h -1.20147 c -0.16176,3.18366 -1.10479,6.15878 -2.64015,8.73952 h -2.84737 c 1.79227,-2.48787 2.91641,-5.4888 3.10627,-8.73952 z m -3.334173,10.67428 h 17.156583 v 11.61015 H 98.819627 Z m -2.07171,14.53503 -4.80022,5.72369 v 2.02985 h 11.167283 8.71781 11.16728 V 163.129 l -4.80023,-5.72369 h -6.36705 -8.71781 z"/>
  </g>
</svg>