<?xml version="1.0" encoding="UTF-8" standalone="yes"?>
<svg width="52.917mm" height="52.917mm" viewBox="0 0 52.917 52.917" version="1.1" id="svg5158" xmlns="http://www.w3.org/2000/svg" xmlns:svg="http://www.w3.org/2000/svg">
  <defs id="defs5155"/>
  <g id="layer1" transform="translate(-123.93432,-78.850883)">
    <rect style="fill:#ffffff;fill-opacity:1;stroke:none;stroke-width:2.01819" id="rect70551" width="52.917" height="52.917" x="123.93432" y="78.850883"/>
    <path id="path968" style="fill:#000000;stroke-width:3.94633" d="m 155.55529,91.475605 1.11053,2.418457 h 6.63112 l 0.22841,-1.170988 z m 1.30276,3.341399 -1.27176,1.380794 h 0.99529 c -0.0155,0.12764 -0.0235,0.255893 -0.0243,0.384472 -1.7e-4,1.857259 1.50534,3.363063 3.36259,3.363103 1.71496,-7.2e-4 3.36434,-1.497978 3.36207,-3.362586 V 94.81752 Z m -1.69499,6.018756 c -0.97573,0.0206 -1.51381,0.75042 -2.10064,1.8004 l -5.21881,12.25765 h 3.57136 l 3.47783,-7.45432 v 7.53546 h 11.67422 v -12.27832 c 0.008,-0.87951 -1.06141,-1.84446 -1.98076,-1.8309 h -2.61069 l -1.42937,3.73931 h -0.39068 l -1.66088,-3.76928 z m -19.57813,2.31975 c -0.26963,0 -0.48679,0.21716 -0.48679,0.48679 v 5.17127 c 0,0.26963 0.21716,0.48679 0.48679,0.48679 h 2.93522 v 4.3496 h -1.04955 l -0.60719,2.69389 h -3.1719 c -0.77539,0 -1.3994,0.624 -1.3994,1.3994 0,0.77539 0.62401,1.39992 1.3994,1.39992 h 33.40261 c 0.7754,0 1.3994,-0.62453 1.3994,-1.39992 0,-0.7754 -0.624,-1.3994 -1.3994,-1.3994 h -25.1225 l -0.6072,-2.69389 h -1.04954 v -4.3496 h 2.93573 c 0.26963,0 0.48628,-0.21716 0.48628,-0.48679 v -5.17127 c 0,-0.26963 -0.21665,-0.48679 -0.48628,-0.48679 z m 3.83233,0.94301 c 1.14249,-7e-5 2.06867,0.92611 2.0686,2.0686 8e-5,1.14249 -0.92611,2.06868 -2.0686,2.06861 -1.14229,-2.1e-4 -2.06817,-0.92632 -2.06809,-2.06861 -7e-5,-1.14229 0.9258,-2.06839 2.06809,-2.0686 z"/>
  </g>
</svg>