<?xml version="1.0" encoding="UTF-8" standalone="yes"?>
<svg width="52.917mm" height="52.917mm" viewBox="0 0 52.917 52.917" version="1.1" id="svg8393" xmlns="http://www.w3.org/2000/svg" xmlns:svg="http://www.w3.org/2000/svg">
  <defs id="defs8390"/>
  <g id="layer1" transform="translate(-90.207779,-73.344513)">
    <rect style="fill:#ffffff;fill-opacity:1;stroke:none;stroke-width:2.01819" id="rect70551-3" width="52.917" height="52.917" x="90.207779" y="73.344513"/>
    <path id="rect7389" style="fill:#000000;fill-opacity:1;stroke:none;stroke-width:0.499999" d="m 110.85593,80.564885 v 10.767298 c -0.18773,0.0801 -0.35622,0.21224 -0.48059,0.39378 l -1.85208,2.70319 -1.41594,-2.85771 c -0.007,-0.0138 -0.0161,-0.0254 -0.0269,-0.0356 -0.30763,-0.51357 -0.86895,-0.85628 -1.5136,-0.85628 l -7.781964,-5.2e-4 c -0.95092,0 -1.72153,0.74512 -1.76216,1.68569 -6e-5,0.001 5e-5,0.002 0,0.003 -9.8e-4,0.0195 -0.002,0.0392 -0.002,0.0589 v 0.016 0.18293 11.025167 c 0,0.63195 0.50855,1.14101 1.1405,1.14101 h 0.0915 c 0.63195,0 1.1405,-0.50906 1.1405,-1.14101 v -8.879047 c -0.005,-0.42328 0.6599,-0.39578 0.6599,-0.005 v 22.894207 c 0,0.70305 0.56613,1.26917 1.269184,1.26917 h 0.12919 c 0.70306,0 1.26917,-0.56612 1.26917,-1.26917 v -12.88707 c -0.009,-0.34686 0.82239,-0.35194 0.81701,0.0108 v 12.87673 c 0,0.70305 0.56611,1.26918 1.26917,1.26918 h 0.12919 c 0.70305,0 1.26866,-0.56613 1.26866,-1.26918 V 94.768693 c -0.006,-0.35109 0.46714,-0.37267 0.59531,-0.0636 l 1.14928,2.90163 c 0.52305,1.32025 1.75401,1.26055 2.51251,-0.0667 l 2.90577,-4.44934 c 0.34764,-0.50743 0.21907,-1.19594 -0.28836,-1.54358 l -0.1602,-0.10955 c -0.12638,-0.0866 -0.26384,-0.14359 -0.40462,-0.1726 v -5.70973 l 6.22442,-2.409148 -6.49572,-2.57556 z m -8.7111,4.302058 a 2.4735661,2.4735661 0 0 0 -2.473754,2.47324 2.4735661,2.4735661 0 0 0 2.473754,2.47375 2.4735661,2.4735661 0 0 0 2.47376,-2.47375 2.4735661,2.4735661 0 0 0 -2.47376,-2.47324 z m 30.28756,0.12196 a 2.4334962,2.4334962 0 0 0 -2.43344,2.43344 2.4334962,2.4334962 0 0 0 2.43344,2.43396 2.4334962,2.4334962 0 0 0 2.43344,-2.43396 2.4334962,2.4334962 0 0 0 -2.43344,-2.43344 z m -11.16883,0.0176 a 2.4334962,2.4334962 0 0 0 -2.43344,2.43344 2.4334962,2.4334962 0 0 0 2.43344,2.43396 2.4334962,2.4334962 0 0 0 2.43345,-2.43396 2.4334962,2.4334962 0 0 0 -2.43345,-2.43344 z m 10.76679,5.57227 c -1.35683,0 -2.44895,1.09215 -2.44895,2.44894 v 2.30116 l -3.90519,4.808487 c -0.4713,0.58034 -0.38345,1.42674 0.19689,1.89807 0.58035,0.47133 1.42675,0.38398 1.89808,-0.19637 l 1.81022,-2.228797 v 0.604607 1.78594 12.08505 3.53984 c 0,0.77454 0.62382,1.39784 1.39837,1.39784 0.77454,0 1.39784,-0.6233 1.39784,-1.39784 v -5.67563 l 2.26033,5.02502 c 0.31774,0.70637 1.14209,1.01899 1.84847,0.70125 0.70637,-0.31774 1.01899,-1.14209 0.70125,-1.84847 l -3.81734,-8.63513 1.73271,-3.48557 V 93.027713 c 0,-1.35679 -1.09213,-2.44894 -2.44895,-2.44894 z m -11.16883,0.0176 c -1.35683,0 -2.44894,1.09215 -2.44894,2.44894 v 2.30116 l -3.90519,4.808487 c -0.47131,0.58034 -0.38345,1.42674 0.19688,1.89807 0.58035,0.47133 1.42675,0.38398 1.89808,-0.19637 l 1.81023,-2.228797 v 0.604607 1.78594 12.08505 3.53984 c 0,0.77454 0.62381,1.39784 1.39836,1.39784 0.77454,0 1.39785,-0.6233 1.39785,-1.39784 v -5.67563 l 2.26032,5.02502 c 0.31774,0.70637 1.14209,1.01899 1.84847,0.70125 0.70637,-0.31774 1.01899,-1.14209 0.70125,-1.84847 l -3.81734,-8.63513 1.73271,-3.48557 V 93.045313 c 0,-1.35679 -1.09213,-2.44894 -2.44894,-2.44894 z"/>
  </g>
</svg>