<?xml version="1.0" encoding="UTF-8" standalone="yes"?>
<svg width="52.917mm" height="52.917mm" viewBox="0 0 52.917 52.917" version="1.1" id="svg15454" xmlns="http://www.w3.org/2000/svg" xmlns:svg="http://www.w3.org/2000/svg">
  <defs id="defs15451"/>
  <g id="layer1" transform="translate(-142.69006,-68.015785)">
    <rect style="fill:#ffffff;fill-opacity:1;stroke:none;stroke-width:2.01819" id="rect70551" width="52.917" height="52.917" x="142.69006" y="68.015785"/>
    <path id="path15294" style="display:inline;fill:#000000;fill-opacity:1;stroke-width:0.799999;stroke-linecap:round" d="m 169.14891,75.224033 a 3.1114285,3.1114285 0 0 0 -3.11144,3.11143 3.1114285,3.1114285 0 0 0 3.11144,3.11144 3.1114285,3.1114285 0 0 0 3.11092,-3.11144 3.1114285,3.1114285 0 0 0 -3.11092,-3.11143 z m -0.82062,7.39748 0.003,0.0481 c -0.56643,0.009 -1.25361,0.0126 -2.03812,0.002 -1.44299,0.0395 -2.65774,1.12045 -3.3507,2.38384 -1.50448,2.8199 -2.75421,5.42467 -2.91197,9.34155 -0.0216,0.53708 0.34429,1.11532 0.79995,1.40043 0.73657,0.40649 1.32358,0.11261 1.38028,0.32814 0.21602,0.82102 -0.18744,2.91844 0.6196,7.071917 0.56249,2.78424 1.53895,6.86995 2.44636,8.95191 0.30258,0.57796 0.33167,1.22521 1.30638,1.52187 0.71784,0.21848 1.87292,-0.20466 1.97766,-1.83813 0.0205,-0.22944 0.0326,-0.45383 0.0398,-0.64492 v -10.41849 c 0,-0.30361 0.24416,-0.54777 0.54777,-0.54777 0.30361,0 0.54829,0.24416 0.54829,0.54777 v 10.42986 c 0.007,0.18871 0.0195,0.40843 0.0398,0.63355 0.10474,1.63347 1.26033,2.05661 1.97817,1.83813 0.97471,-0.29666 1.00329,-0.94391 1.30587,-1.52187 0.90741,-2.08196 1.88387,-6.16767 2.44636,-8.95191 0.80704,-4.153477 0.40358,-6.250897 0.6196,-7.071917 0.0567,-0.21553 0.64371,0.0783 1.38028,-0.32814 0.45566,-0.28511 0.82155,-0.86335 0.79995,-1.40043 -0.15776,-3.91689 -1.40749,-6.52165 -2.91197,-9.34155 -0.69296,-1.26339 -1.90771,-2.34434 -3.3507,-2.38384 -0.7845,0.0105 -1.4717,0.007 -2.03812,-0.002 l 0.003,-0.0481 c 0,0 -0.32229,0.0154 -0.81959,0.03 -0.49765,-0.0146 -0.8201,-0.03 -0.8201,-0.03 z"/>
  </g>
</svg>