<?xml version="1.0" encoding="UTF-8" standalone="yes"?>
<svg width="52.917mm" height="52.917mm" viewBox="0 0 52.917 52.917" version="1.1" id="svg6261" xmlns="http://www.w3.org/2000/svg" xmlns:svg="http://www.w3.org/2000/svg">
  <defs id="defs6258"/>
  <g id="layer1" transform="translate(-103.62956,-139.07684)">
    <rect style="fill:#ffffff;fill-opacity:1;stroke:none;stroke-width:2.01819" id="rect70551" width="52.917" height="52.917" x="103.62956" y="139.07684"/>
    <path id="rect1831" style="display:inline;fill:#000000;fill-opacity:1;stroke-width:1.2;stroke-linecap:round" d="m 124.02287,148.9192 c -1.56225,9e-5 -2.82868,1.26653 -2.82877,2.82877 9e-5,1.56224 1.26652,2.82868 2.82877,2.82877 1.56223,-9e-5 2.82867,-1.26653 2.82876,-2.82877 -9e-5,-1.56225 -1.26653,-2.82868 -2.82876,-2.82877 z m -0.61392,6.75101 c -0.14452,-7.6e-4 -0.28894,0.0142 -0.43305,0.0439 -1.71856,0.3545 -2.62824,1.27965 -2.25878,3.62045 l 2.29805,8.60154 c 0.35348,1.90144 1.41539,3.03052 3.56258,3.01429 l 6.98717,0.0305 0.32608,9.5498 c 0.0719,0.96632 0.89976,1.68708 1.85673,1.61593 0.95698,-0.0712 1.66969,-0.90644 1.59784,-1.87276 l 0.22376,-9.48107 h 1.17667 c 0.79667,0.009 1.01064,-0.74025 0.5674,-1.38338 l -5.31285,-8.71523 c -1.78125,-2.30491 -4.62453,-2.13244 -6.91431,-0.80563 -0.95236,-2.83879 -2.31317,-4.21114 -3.67729,-4.21835 z m -2.27221,16.49253 v 2.00453 h 11.17606 v -2.00453 z"/>
  </g>
</svg>