<?xml version="1.0" encoding="UTF-8" standalone="yes"?>
<svg width="52.917mm" height="52.917mm" viewBox="0 0 52.917 52.917" version="1.1" id="svg7028" xmlns="http://www.w3.org/2000/svg" xmlns:svg="http://www.w3.org/2000/svg">
  <defs id="defs7025"/>
  <g id="layer1" transform="translate(-92.907219,-85.552925)">
    <rect style="fill:#ffffff;fill-opacity:1;stroke:none;stroke-width:2.01819" id="rect70551" width="52.917" height="52.917" x="92.907219" y="85.552925"/>
    <path id="rect9435" style="display:inline;fill:#000000;stroke-width:1.4" d="m 113.86242,93.424713 c -1.97206,1.3e-4 -3.57071,1.59877 -3.57084,3.57084 1.3e-4,1.97207 1.59878,3.570707 3.57084,3.570837 1.97227,1.6e-4 3.57123,-1.598567 3.57136,-3.570837 -1.3e-4,-1.97227 -1.59909,-3.571 -3.57136,-3.57084 z m 19.26963,0 c -1.97207,1.3e-4 -3.57071,1.59877 -3.57084,3.57084 1.3e-4,1.97207 1.59877,3.570707 3.57084,3.570837 1.97227,1.6e-4 3.57123,-1.598567 3.57136,-3.570837 -1.3e-4,-1.97227 -1.59909,-3.571 -3.57136,-3.57084 z m -21.6731,8.132837 c -1.52336,0.006 -2.93495,0.97088 -3.44423,2.5001 l -2.41019,7.23677 c -0.37249,1.1185 -0.17671,2.28409 0.18605,2.83316 0.0276,0.0668 1.49447,1.89834 1.49447,1.89834 l 4.76715,5.75933 -1.87637,6.00584 c -0.3753,1.11706 0.22188,2.3186 1.33893,2.69389 1.11706,0.3753 2.35147,-0.21136 2.6939,-1.33893 l 1.88153,-6.19653 c 0.60033,-1.97384 0.86166,-2.33757 -0.68833,-4.14496 l -3.23132,-4.42764 c 0.24524,-0.58914 0.41352,-1.06664 0.66042,-1.67018 l 3.79512,1.01957 c 0.26929,0.0723 0.53981,0.0803 0.79685,0.0362 -0.20663,-0.40221 -0.27125,-0.87928 -0.14418,-1.35237 l 0.5948,-2.21434 c -1.32452,-0.37814 -2.57203,-0.71431 -3.85403,-1.05882 l 0.92346,-2.77244 c 0.6391,-1.91905 -0.39142,-3.97817 -2.31046,-4.61729 -0.3898,-0.12981 -0.78525,-0.19105 -1.17357,-0.18965 z m 9.82214,2.70526 c -0.47524,0.13276 -0.84305,0.457 -1.04438,0.86558 -0.22831,0.22706 -0.40209,0.51548 -0.49196,0.85008 l -1.67535,6.23734 c -0.2713,1.0101 0.32368,2.04173 1.33377,2.31304 1.0101,0.27131 2.04173,-0.32367 2.31304,-1.33377 l 1.55443,-5.78621 3.16414,-0.88367 -1.58853,4.76922 c -0.3726,1.11846 -0.1767,2.28409 0.18605,2.83315 0.0277,0.0668 1.49447,1.89835 1.49447,1.89835 l 4.76715,5.75933 -1.87637,6.00584 c -0.37529,1.11706 0.22188,2.3186 1.33893,2.69389 1.11707,0.37529 2.35147,-0.21137 2.6939,-1.33893 l 1.88153,-6.19653 c 0.60028,-1.97387 0.86171,-2.33753 -0.68833,-4.14496 l -2.9573,-4.36576 c 0.9426,-2.58435 1.61635,-5.42719 2.4979,-8.07431 0.54292,-3.90274 -2.10115,-5.08048 -4.40546,-4.6636 -1.73438,0.40985 -5.27898,1.66274 -8.49763,2.56192 z m -15.17995,11.68973 -3.961,11.78997 c -0.37529,1.11706 0.22188,2.31863 1.33894,2.6939 1.11706,0.3753 2.3186,-0.22188 2.69389,-1.33894 l 3.13108,-9.32088 z m 19.24172,0 -3.961,11.78997 c -0.37529,1.11707 0.22188,2.31862 1.33894,2.6939 1.11706,0.3753 2.3186,-0.22188 2.69389,-1.33894 l 3.13108,-9.32088 z"/>
  </g>
</svg>