<?xml version="1.0" encoding="UTF-8" standalone="yes"?>
<svg width="52.917mm" height="52.917mm" viewBox="0 0 52.917 52.917" version="1.1" id="svg10267" xmlns="http://www.w3.org/2000/svg" xmlns:svg="http://www.w3.org/2000/svg">
  <defs id="defs10264"/>
  <g id="layer1" transform="translate(-289.77579,-36.335785)">
    <rect style="fill:#ffffff;fill-opacity:1;stroke:none;stroke-width:2.01819" id="rect70551" width="52.917" height="52.917" x="289.77579" y="36.335785"/>
    <path id="path10121" style="color:#000000;fill:#000000;stroke-width:0.782203;-inkscape-stroke:none" d="m 300.21977,46.154217 v 9.98802 l 20.24063,-9.98802 z m 18.45314,5.50354 c -0.87404,-1.02e-4 -1.58244,0.708816 -1.58233,1.582849 1.1e-4,0.873876 0.70845,1.581925 1.58233,1.581815 0.87371,-1.17e-4 1.58169,-0.708103 1.58181,-1.581815 10e-5,-0.873876 -0.70794,-1.582724 -1.58181,-1.582849 z m 0.41393,3.496944 c -0.78825,0 -1.42266,0.634928 -1.42266,1.423169 v 2.422074 l -2.65978,2.212268 c -0.23897,0.198765 -0.27169,0.551162 -0.0729,0.790133 l 0.0119,0.01395 c 0.19877,0.238979 0.55115,0.271642 0.79013,0.07286 l 1.93063,-1.605587 v 9.843844 c 0,0.508784 0.40951,0.91829 0.91829,0.91829 0.50878,0 0.91829,-0.409506 0.91829,-0.91829 v -3.44165 l 1.89033,1.492415 c 0.3993,0.315267 0.97509,0.24625 1.28984,-0.153479 0.31475,-0.399737 0.24584,-0.974577 -0.15348,-1.289844 l -3.02669,-2.389518 v -0.261999 l 1.00873,-1.60042 v -1.370975 -2.431893 -0.695565 l 0.77928,1.072803 0.20619,3.47524 c 0.0184,0.310292 0.28295,0.544949 0.59324,0.526583 l 0.0181,-5.17e-4 c 0.31029,-0.01838 0.54493,-0.282954 0.52658,-0.593246 l -0.21549,-3.642671 c -0.008,-0.128399 -0.0572,-0.24383 -0.13487,-0.33383 v -5.17e-4 c -0.01,-0.01635 -0.0202,-0.0319 -0.0315,-0.04754 -0.74575,-0.925118 -1.4288,-2.02026 -2.06085,-2.96261 -0.26041,-0.319468 -0.65708,-0.523482 -1.10329,-0.523482 z m 7.45587,11.043253 v 2.759522 h -5.79964 v 2.759521 h -5.70663 v 2.478919 h -6.03323 v 2.713012 h -6.08076 v 2.525424 l 0.047,-0.0935 h 7.475 L 332.2488,69.224156 v -3.026172 z m 5.70611,3.942912 -19.82824,9.199956 h 19.82824 z"/>
  </g>
</svg>