<?xml version="1.0" encoding="UTF-8" standalone="yes"?>
<svg width="52.917mm" height="52.917mm" viewBox="0 0 52.917 52.917" version="1.1" id="svg4026" xmlns="http://www.w3.org/2000/svg" xmlns:svg="http://www.w3.org/2000/svg">
  <defs id="defs4023"/>
  <g id="layer1" transform="translate(-125.15293,-236.03293)">
    <rect style="display:inline;fill:#ffffff;fill-opacity:1;stroke:none;stroke-width:2.01819" id="rect70551" width="52.917" height="52.917" x="125.15293" y="236.03293"/>
    <path id="rect3393" style="display:inline;fill:#000000;stroke-width:3.394;stroke-linecap:round" d="m 153.76142,243.17252 c -1.53026,1.5e-4 -2.77074,1.24063 -2.77089,2.77089 -1.4e-4,1.53044 1.24043,2.77125 2.77089,2.7714 1.53065,1.3e-4 2.77153,-1.24076 2.7714,-2.7714 -1.5e-4,-1.53046 -1.24095,-2.77102 -2.7714,-2.77089 z m -3.08043,6.78459 c -1.00495,0.14015 -1.99967,0.71934 -2.31563,1.61128 l -0.94154,4.01991 -2.57039,-0.50592 c -0.3442,-0.0678 -0.67587,0.15448 -0.74362,0.49868 l -0.003,0.014 c -0.0678,0.34422 0.15499,0.67588 0.49919,0.74363 l 0.71572,0.14107 -1.10277,6.78357 v 0.004 c -0.11141,0.75463 -0.0431,1.31067 0.29094,2.00608 l 1.90582,4.00285 -2.65358,12.4933 h 1.02267 l 5.17798,-24.37629 0.89969,0.17725 c 0.34421,0.0678 0.67587,-0.15447 0.74362,-0.49868 l 0.003,-0.014 c 0.0678,-0.34421 -0.15447,-0.67588 -0.49867,-0.74363 l -1.22008,-0.24029 0.16071,-0.84698 c 0.32378,0.23243 0.89108,0.4192 1.1622,0.45424 0.80505,0.0779 1.36162,0.60923 1.36168,1.36115 -0.0751,1.16043 -1.0658,1.43068 -2.02572,1.3224 l -0.49816,1.78026 v 1.53737 c -0.0224,0.10528 -0.0346,0.21444 -0.0346,0.3266 v 18.25108 c 0,0.85875 0.69156,1.55029 1.55029,1.55029 0.85875,0 1.54978,-0.69154 1.54978,-1.55029 v -13.75613 c 0.008,-0.53256 1.24841,-0.47842 1.25005,0 v 13.75575 c 0,0.85874 0.69155,1.55029 1.55029,1.55029 0.85875,0 1.54977,-0.69155 1.54977,-1.55029 V 264.6203 c 0.21059,0.18219 0.4854,0.29249 0.78704,0.29249 0.66599,0 1.20199,-0.536 1.20199,-1.20199 v -10.71304 c -0.001,-0.30015 0.0101,-0.49203 0,-0.78445 0,-1.25006 -1.00613,-2.2562 -2.25619,-2.2562 z m -4.37803,6.71536 0.82889,0.16329 -0.98444,4.20337 c -0.25006,0.73217 0.13485,1.52175 0.863,1.77043 0.25891,0.0884 0.52494,0.0948 0.77204,0.0351 l -1.02422,4.82244 -1.34566,-2.82566 h -0.002 c -0.28483,-0.59303 -0.29999,-0.76234 -0.20309,-1.42162 v -0.004 z"/>
  </g>
</svg>