<?xml version="1.0" encoding="UTF-8" standalone="yes"?>
<svg width="52.917mm" height="52.917mm" viewBox="0 0 52.917 52.917" version="1.1" id="svg3148" xmlns="http://www.w3.org/2000/svg" xmlns:svg="http://www.w3.org/2000/svg">
  <defs id="defs3145"/>
  <g id="layer1" transform="translate(-111.01008,-154.00435)">
    <rect style="display:inline;fill:#ffffff;fill-opacity:1;stroke:none;stroke-width:2.01819" id="rect70551" width="52.917" height="52.917" x="111.01008" y="154.00435"/>
    <path id="rect3119" d="m 137.85535,161.94694 c -1.48409,-2e-5 -2.68719,1.20308 -2.68717,2.68717 -2e-5,1.48409 1.20308,2.6872 2.68717,2.68718 1.4841,2e-5 2.6872,-1.20308 2.68718,-2.68718 2e-5,-1.48409 -1.20309,-2.68719 -2.68718,-2.68717 z m 1.21853,6.33811 c -0.99574,0.0101 -1.91376,0.64672 -2.24017,1.64848 l -1.16427,3.57239 c -3.68102,0.14452 -4.31766,4.59074 -4.47104,5.78983 l -1.91307,11.20707 c -0.24769,1.45107 0.66913,1.50016 1.50017,1.50016 h 5.4436 v 5.3573 c 0,0.89649 0.7215,1.6185 1.61799,1.6185 0.89648,0 1.6185,-0.72201 1.6185,-1.6185 v -5.3573 h 2.02055 c 0.83104,0 1.75254,-0.0186 1.49965,-1.50016 l -1.51153,-8.85683 c 0.1275,0.10622 0.27672,0.19137 0.44441,0.2465 0.71054,0.23359 1.48075,-0.14702 1.70378,-0.86093 l 1.77974,-5.69784 c 0.34748,-1.11239 0.55158,-1.5802 -0.39171,-2.33423 l -4.02302,-3.79357 -0.001,-0.002 c -0.59424,-0.54594 -1.16303,-0.92229 -1.91255,-0.91932 z m 1.94644,4.79046 1.8306,1.65669 -1.68311,5.12062 -0.67758,-4.84203 c -0.0442,-0.21101 -0.0255,-0.34311 0.0439,-0.55615 z"/>
  </g>
</svg>