<?xml version="1.0" encoding="UTF-8" standalone="yes"?>
<svg width="52.917mm" height="52.917mm" viewBox="0 0 52.917 52.917" version="1.1" id="svg6872" xmlns="http://www.w3.org/2000/svg" xmlns:svg="http://www.w3.org/2000/svg">
  <defs id="defs6869"/>
  <g id="layer1" transform="translate(-126.85007,-105.35293)">
    <rect style="fill:#ffffff;fill-opacity:1;stroke:none;stroke-width:2.01819" id="rect70551" width="52.917" height="52.917" x="126.85007" y="105.35293"/>
    <path id="path6742" style="color:#000000;fill:#000000;-inkscape-stroke:none" d="m 151.8766,114.11097 c -1.32287,0 -3.31976,1.32685 -4.17907,2.24689 l 0.0656,0.62736 1.44074,-0.0264 c -0.0211,0.13402 -0.0318,0.26948 -0.032,0.40515 9e-5,1.45465 1.17929,2.63385 2.63394,2.63394 1.45486,2e-4 2.63438,-1.17909 2.63447,-2.63394 -1.5e-4,-0.16826 -0.0164,-0.33612 -0.0486,-0.50127 l 0.73484,-0.0134 c -0.0732,-1.41494 -1.57405,-2.73834 -3.24993,-2.73834 z m 2.56109,5.5516 c -2.9494,2.39028 -6.00074,4.9672 -9.00721,7.44296 -0.23882,0.17717 -0.36138,0.4524 -0.3545,0.72864 h -2.10995 c -0.48527,-1e-5 -0.87874,0.39323 -0.87901,0.8785 -1e-5,0.48547 0.39354,0.87902 0.87901,0.87901 h 3.17345 l -2.62464,5.73454 c -0.68171,-0.21316 -1.40602,-0.32815 -2.15646,-0.32815 -3.99716,2e-5 -7.25794,3.26079 -7.25796,7.25796 2e-5,3.99715 3.2608,7.25586 7.25796,7.25588 3.99716,-2e-5 7.25587,-3.25872 7.25589,-7.25588 -1e-5,-2.62289 -1.40328,-4.92882 -3.49746,-6.20428 l 3.76307,-8.21758 h -1.47949 l 6.02237,-4.4602 2.86753,5.95416 h -5.56607 c -1.73656,0.0117 -2.86846,1.51188 -1.52446,3.31815 l 3.71451,4.86533 c 0.0569,0.039 0.0889,8.54522 0.0889,8.54522 4.9e-4,0.87137 0.70631,1.57772 1.57768,1.5782 0.87214,6e-4 1.57978,-0.70606 1.58027,-1.5782 v -7.62331 l 4.05453,-4.76973 1.16117,2.46703 c -2.02511,1.29002 -3.37394,3.55465 -3.37396,6.12521 2e-5,3.99716 3.25873,7.25586 7.25589,7.25588 3.99717,-2e-5 7.25794,-3.25872 7.25796,-7.25588 -2e-5,-3.99717 -3.26079,-7.25794 -7.25796,-7.25796 -0.80217,0 -1.57366,0.13344 -2.29598,0.37569 l -1.49655,-3.18069 c 1.13793,-1.04313 0.69806,-2.28116 0.12454,-3.49539 -1.43056,-2.86488 -2.99876,-5.95328 -4.39916,-8.77344 -0.65185,-1.0959 -1.66906,-1.06827 -2.75391,-0.26167 z m -0.96997,12.89327 h 3.18172 l -1.71876,2.44998 z m -12.10934,4.20026 c 0.49081,0 0.96588,0.0639 1.418,0.18345 l -2.21692,4.84364 c -0.20278,0.44109 -0.01,0.96305 0.4315,1.16582 0.44178,0.20287 0.96434,0.009 1.16634,-0.43357 l 2.22467,-4.8581 c 1.4926,0.98139 2.47426,2.67071 2.47426,4.59869 -1e-5,3.04707 -2.45077,5.49784 -5.49785,5.49785 -3.04708,-1e-5 -5.49784,-2.45078 -5.49786,-5.49785 2e-5,-3.04708 2.45078,-5.49992 5.49786,-5.49993 z m 23.90035,0 c 3.04709,1e-5 5.49785,2.45285 5.49786,5.49993 -10e-6,3.04707 -2.45077,5.49784 -5.49786,5.49785 -3.04708,-1e-5 -5.49784,-2.45078 -5.49785,-5.49785 0,-1.88177 0.93568,-3.5361 2.36833,-4.52686 l 2.26446,4.81159 c 0.20628,0.43988 0.7303,0.62898 1.16995,0.4222 0.4389,-0.20725 0.62674,-0.73101 0.41961,-1.16996 l -2.26704,-4.81831 c 0.4892,-0.1418 1.0063,-0.21859 1.54254,-0.21859 z"/>
  </g>
</svg>