<?xml version="1.0" encoding="UTF-8" standalone="yes"?>
<svg width="52.917mm" height="52.917mm" viewBox="0 0 52.917 52.917" version="1.1" id="svg4725" xmlns="http://www.w3.org/2000/svg" xmlns:svg="http://www.w3.org/2000/svg">
  <defs id="defs4722"/>
  <g id="layer1" transform="translate(-93.831825,-19.670532)">
    <rect style="fill:#ffffff;fill-opacity:1;stroke:none;stroke-width:2.01819" id="rect70551" width="52.917" height="52.917" x="93.831825" y="19.670532"/>
    <path id="path4319" style="fill:#000000;fill-opacity:1;stroke:none;stroke-width:0.264583px;stroke-linecap:butt;stroke-linejoin:miter;stroke-opacity:1" d="m 113.03406,27.814122 c -0.0187,10e-4 -0.041,0.0062 -0.0672,0.01602 -1.37537,3.34212 -2.05264,5.639055 -5.12527,7.021275 l -0.0305,-0.15193 c 0.292,-0.14077 0.583,-0.28138 0.86042,-0.4501 -0.0493,-2.132605 -1.26702,-3.511415 -2.29237,-4.062805 l -0.16485,0.01499 c 0.1741,0.41252 0.2754,0.78432 0.33331,1.25418 0.006,0.0635 -0.0897,0.08084 -0.10593,0.03514 -0.14832,-0.49166 -0.36508,-0.93551 -0.67955,-1.3472 l -0.17983,0.05994 c 0.80153,1.73797 1.21444,2.866025 1.00045,4.413695 -0.68569,-0.39973 -1.23649,-0.93369 -1.86603,-1.4733 -0.12438,-0.14155 -0.20423,-0.13848 -0.38137,-0.13849 h -0.50127 l -1.16943,-0.26665 c 0.76694,0.46677 1.87026,1.16763 2.16937,1.30896 1.75854,0.98674 3.05082,2.668338 4.37855,3.463358 0.29893,0.13753 0.90308,0.1729 1.27382,0.36173 0.42784,0.391 0.61139,0.65322 1.31,0.90796 0.13555,0.0537 0.34677,-0.003 0.52813,-0.0543 0.13838,-0.40391 0.11932,-0.69044 0,-1.05472 -0.56453,-0.0455 -0.90082,-0.19476 -1.21543,-0.47904 2.10399,-1.908258 3.70459,-4.279858 3.41531,-7.650183 l -0.11524,-0.10025 c -0.49095,0.7559 -0.92314,1.47778 -1.6056,2.08308 -0.0946,0.0742 -0.18681,-0.01227 -0.14572,-0.07287 0.64244,-0.8676 0.99373,-1.79447 1.12087,-2.9192 l -0.20568,0.01189 c -0.31354,0.65883 -0.65133,1.35112 -0.98754,1.99884 -0.0644,0.10643 -0.2317,0.03647 -0.17622,-0.05943 0.38852,-0.72834 0.64811,-1.52408 0.70952,-2.37918 0.008,-0.11065 0.0462,-0.29884 -0.0848,-0.29145 z m 20.93827,8.196915 c -0.0484,0.003 -0.10581,0.0154 -0.17364,0.0408 -3.55896,8.648218 -5.31137,14.592218 -13.26224,18.168908 l -0.0791,-0.39326 c 0.75557,-0.36428 1.50889,-0.72869 2.22674,-1.1653 -0.12762,-5.51836 -3.27871,-9.08521 -5.93194,-10.51202 l -0.42685,0.0388 c 0.45051,1.06744 0.71313,2.02946 0.863,3.24528 0.0166,0.1644 -0.2324,0.20862 -0.2744,0.0904 -0.3838,-1.27224 -0.94482,-2.42029 -1.75855,-3.48557 l -0.46561,0.15503 c 2.07409,4.49724 3.14272,7.41618 2.58899,11.421 -1.77432,-1.03434 -3.20012,-2.41688 -4.82917,-3.8132 -0.32185,-0.36629 -0.52811,-0.35759 -0.9865,-0.3576 h -1.29708 l -3.02617,-0.68988 c 1.98455,1.20784 4.83962,3.02169 5.61361,3.38739 4.55047,2.55335 7.89489,6.90451 11.33058,8.96173 0.77354,0.35589 2.3371,0.44723 3.29644,0.93586 1.10709,1.01178 1.58118,1.68953 3.38894,2.34869 0.35076,0.13895 0.89754,-0.008 1.36684,-0.14004 0.35807,-1.04518 0.30875,-1.78589 0,-2.72852 -1.46081,-0.1176 -2.33145,-0.50461 -3.14554,-1.24023 5.44436,-4.93789 9.58625,-11.07451 8.8377,-19.79569 l -0.29765,-0.25994 c -1.27041,1.95603 -2.38937,3.82407 -4.15531,5.39037 -0.24471,0.19201 -0.48303,-0.0313 -0.37672,-0.1881 1.66243,-2.24504 2.57213,-4.64418 2.90112,-7.55458 l -0.53279,0.031 c -0.81131,1.7048 -1.68489,3.49623 -2.55488,5.17229 -0.16656,0.27541 -0.59988,0.0944 -0.4563,-0.15399 1.00534,-1.88467 1.67664,-3.94302 1.83554,-6.1557 0.0203,-0.286348 0.11986,-0.773068 -0.2191,-0.753958 z"/>
  </g>
</svg>