<?xml version="1.0" encoding="UTF-8" standalone="yes"?>
<svg width="52.917mm" height="52.917mm" viewBox="0 0 52.917 52.917" version="1.1" id="svg14974" xmlns="http://www.w3.org/2000/svg" xmlns:svg="http://www.w3.org/2000/svg">
  <defs id="defs14971"/>
  <g id="layer1" transform="translate(-60.611027,-106.7269)">
    <rect style="fill:#ffffff;fill-opacity:1;stroke:none;stroke-width:2.01819" id="rect70551" width="52.917" height="52.917" x="60.611027" y="106.7269"/>
    <path id="path14882" style="stroke-width:0.609185" d="m 87.0099,116.03018 c -2.61359,0.0111 -5.22648,0.76972 -7.5029,2.27893 -4.46036,2.95711 -6.76621,8.22774 -5.96605,13.4674 a 4.8013101,4.8013101 0 0 0 -0.96996,4.64519 4.8013101,4.8013101 0 0 0 4.64984,3.32745 l -2.3766,-9.01444 a 4.8013101,4.8013101 0 0 0 -0.0522,0.0326 c -0.38378,-4.44936 1.67507,-8.81155 5.46685,-11.32541 4.23569,-2.80817 9.75608,-2.72843 13.91026,0.19895 3.6206,2.55139 5.5499,6.80671 5.1785,11.12387 a 4.8013101,4.8013101 0 0 0 -0.0532,-0.03 l -2.3766,9.01444 a 4.8013101,4.8013101 0 0 0 4.64985,-3.32745 4.8013101,4.8013101 0 0 0 -0.96945,-4.64623 c 0.77684,-5.09095 -1.37925,-10.24093 -5.64617,-13.24777 -2.30463,-1.62405 -4.99187,-2.45763 -7.68945,-2.49597 -0.0843,-0.001 -0.16839,-0.002 -0.2527,-0.002 z m 0.0563,12.48451 c -0.92215,-1e-5 -1.66968,0.74754 -1.66967,1.66966 -1e-5,0.92214 0.74753,1.66968 1.66967,1.66967 0.92213,1e-5 1.66967,-0.74753 1.66966,-1.66967 1e-5,-0.92212 -0.74752,-1.66967 -1.66966,-1.66966 z m -9.42113,1.73478 -1.45573,0.38395 2.3704,8.99067 1.45572,-0.38344 z m 18.84846,0 -2.3704,8.99118 1.45573,0.38344 2.37039,-8.99067 z m -11.3714,2.04432 c -0.56825,0.0739 -0.69023,0.4127 -0.84491,0.78961 l -2.04225,6.46679 c -0.12359,0.39138 0.0579,0.79509 0.40721,0.90537 0.34927,0.11028 0.73011,-0.11609 0.85369,-0.50746 l 1.68879,-5.34851 v 3.71709 l -1.59732,10.95385 c -0.0746,0.51126 0.2768,0.98274 0.78806,1.0573 l 0.0222,0.003 c 0.51127,0.0746 0.98325,-0.27679 1.05781,-0.78807 l 1.21802,-8.35349 c 0.008,-0.26827 0.77412,-0.27857 0.79323,0.008 l 1.21698,8.34574 c 0.0746,0.51128 0.54603,0.86264 1.0573,0.78807 l 0.0222,-0.003 c 0.51128,-0.0745 0.86314,-0.54604 0.78858,-1.05729 L 88.9544,138.31642 v -3.71709 l 1.68879,5.34851 c 0.12357,0.39138 0.50391,0.61773 0.85318,0.50746 0.34928,-0.11028 0.5313,-0.51399 0.40772,-0.90537 l -2.04225,-6.46679 c -0.15252,-0.4353 -0.45659,-0.7795 -0.84542,-0.7891 h -0.73019 -0.80977 -1.62368 z"/>
  </g>
</svg>