<?xml version="1.0" encoding="UTF-8" standalone="yes"?>
<svg width="52.917mm" height="52.917mm" viewBox="0 0 52.917 52.917" version="1.1" id="svg70418" xml:space="preserve" xmlns="http://www.w3.org/2000/svg" xmlns:svg="http://www.w3.org/2000/svg">
  <defs id="defs70415"/>
  <g id="layer1" transform="translate(-90.78009,-55.077522)">
    <rect style="fill:#ffffff;fill-opacity:1;stroke:none;stroke-width:2.01819" id="rect70551" width="52.917" height="52.917" x="90.78009" y="55.077522"/>
    <path id="rect74478" style="stroke-width:1.01549" d="m 127.46252,63.344307 c -1.53718,-1.3e-5 -2.78331,1.246119 -2.7833,2.783292 -1e-5,1.537174 1.24613,2.783306 2.7833,2.783293 1.53716,1.3e-5 2.7833,-1.246119 2.78329,-2.783293 1e-5,-1.537173 -1.24612,-2.783305 -2.78329,-2.783292 z m -20.45922,0.19327 c -1.53718,-1.3e-5 -2.7833,1.246123 -2.78329,2.783292 -1e-5,1.537172 1.24612,2.783306 2.78329,2.783293 1.53715,1.3e-5 2.7833,-1.246121 2.78329,-2.783293 1e-5,-1.537169 -1.24613,-2.783305 -2.78329,-2.783292 z m 17.2191,6.106604 c -0.94725,0.123271 -1.15136,0.687393 -1.40921,1.315681 l -3.40393,10.779704 c -0.20601,0.652417 0.0968,1.325637 0.67903,1.509469 0.58222,0.183836 1.21665,-0.193527 1.42265,-0.845943 l 2.81533,-8.915735 v 6.196004 l -2.66288,18.259867 c -0.12428,0.85227 0.46187,1.638394 1.31413,1.762683 l 0.0372,0.0052 c 0.85227,0.12429 1.6384,-0.461336 1.76269,-1.313615 l 2.03036,-13.924731 c 0.0126,-0.447186 1.29055,-0.46478 1.3224,0.0124 l 2.02882,13.912329 c 0.12429,0.852269 0.91041,1.437905 1.76268,1.313615 l 0.0372,-0.0052 c 0.85228,-0.124279 1.43842,-0.910413 1.31413,-1.762683 l -2.66288,-18.259867 v -6.196004 l 2.81533,8.915735 c 0.20599,0.652416 0.84044,1.029774 1.42265,0.845943 0.58224,-0.183832 0.88503,-0.857053 0.67903,-1.509469 L 132.1232,70.95986 c -0.25426,-0.725615 -0.76103,-1.29968 -1.40921,-1.315681 h -1.2175 -1.34979 -2.70681 z m -20.45921,0.193269 c -0.94725,0.123272 -1.15137,0.687396 -1.40922,1.315682 l -3.403927,10.779704 c -0.206008,0.652416 0.09681,1.325637 0.679028,1.509469 0.582219,0.183836 1.216649,-0.193529 1.422649,-0.845943 l 2.65152,-8.396387 1.01648,3.604948 c -0.0922,0.176996 -0.16662,0.389253 -0.23823,0.610815 l -3.70417,11.459766 c -0.18361,0.568029 0.38403,1.077453 0.86145,1.077453 h 2.6355 l 1.16168,7.269841 c 0.13168,0.824099 0.70159,1.504818 1.57303,1.504818 0.87144,0 1.44135,-0.680719 1.57303,-1.504818 l 1.16169,-7.269841 h 2.6355 c 0.47743,0 1.04505,-0.509424 0.86144,-1.077453 l -3.70416,-11.459766 c -0.0716,-0.221562 -0.146,-0.433819 -0.23823,-0.610815 l 1.01647,-3.604948 2.65152,8.396387 c 0.20599,0.652414 0.84045,1.029774 1.42265,0.845943 0.58224,-0.183832 0.88503,-0.857054 0.67903,-1.509469 L 111.664,71.153132 c -0.25426,-0.725613 -0.76104,-1.29968 -1.40922,-1.315682 h -1.2175 -1.34979 -2.70681 z"/>
  </g>
</svg>