<?xml version="1.0" encoding="UTF-8" standalone="yes"?>
<svg width="52.917mm" height="52.917mm" viewBox="0 0 52.917 52.917" version="1.1" id="svg11246" xmlns="http://www.w3.org/2000/svg" xmlns:svg="http://www.w3.org/2000/svg">
  <defs id="defs11243"/>
  <g id="layer1" transform="translate(-244.04208,-139.76514)">
    <rect style="fill:#ffffff;fill-opacity:1;stroke:none;stroke-width:2.01819" id="rect70551" width="52.917" height="52.917" x="244.04208" y="139.76514"/>
    <path id="path10094" style="color:#000000;display:inline;fill:#000000;-inkscape-stroke:none" d="m 266.67342,148.8632 c -1.1172,-1.3e-4 -2.02298,0.90542 -2.02314,2.02261 -1.3e-4,1.1174 0.90574,2.02327 2.02314,2.02314 1.1172,-1.6e-4 2.02274,-0.90594 2.02261,-2.02314 -1.6e-4,-1.11699 -0.90562,-2.02245 -2.02261,-2.02261 z m -0.87954,4.85035 c -0.45638,0.0103 -0.91334,0.21328 -1.26659,0.67283 l -2.61534,3.40185 c -0.0641,0.0833 -0.10586,0.17678 -0.12609,0.27286 -0.013,0.0427 -0.0218,0.0876 -0.0263,0.13384 l -0.49041,4.9537 c -0.0196,0.19802 0.0477,0.3834 0.17001,0.52038 l 1.20768,-0.60513 0.4315,-4.37079 c 10e-4,-0.002 0.003,-0.003 0.004,-0.005 l 0.91984,-1.19683 c -0.0458,1.68453 -0.2589,5.02347 -0.2589,5.02347 l 5.46736,-2.73833 -1.49913,-1.41232 -0.0284,-2.7528 c 0.0266,-1.05375 -0.86846,-1.86626 -1.79679,-1.89756 h -5.2e-4 c -0.0304,-0.001 -0.061,-0.001 -0.0915,-5.2e-4 z m 9.62112,3.37602 -23.79906,11.92227 v 1.11828 l 8.68371,-4.34961 v 11.46545 h -1.19115 l -0.0336,3.83801 h -7.45897 v 2.50011 h 9.93789 l 0.0331,-3.83801 h 7.71684 v -3.76928 h 7.50755 v -3.78737 h 12.57391 v -2.5001 h -12.8845 v -11.59929 h 12.88449 v -1.00046 z m 0.0858,1.0759 v 11.52385 h -1.18908 v 3.78736 h -7.50807 v 3.76928 h -5.50407 v -11.96671 z m -4.89635,2.92489 -1.35237,0.67748 0.85628,0.72502 c 0.28401,0.24836 0.71281,0.21942 0.96118,-0.0646 0.24836,-0.28401 0.21942,-0.7123 -0.0646,-0.96067 z m -2.60966,1.30741 -4.41936,2.21382 c -0.27576,3.187 -0.6381,6.36626 -0.97979,9.58753 -0.0725,0.68325 0.419,1.29178 1.10226,1.36426 0.68324,0.0725 1.29178,-0.41953 1.36426,-1.10278 l 1.11569,-10.51822 c 0.044,-0.02 0.0867,-0.0421 0.12867,-0.0656 l 3.17087,2.84376 -0.71623,4.09174 c -0.0993,0.56748 0.33581,1.11248 0.9033,1.21181 0.56748,0.0993 1.10421,-0.27743 1.20354,-0.84491 l 0.85421,-4.87929 c 0.0509,-0.29083 -0.0237,-0.57327 -0.18448,-0.79323 -0.0491,-0.0735 -0.10825,-0.14219 -0.17777,-0.20361 -1.17758,-1.04516 -2.22623,-1.91618 -3.36517,-2.90525 z"/>
  </g>
</svg>