<?xml version="1.0" encoding="UTF-8" standalone="yes"?>
<svg width="52.917mm" height="52.917mm" viewBox="0 0 52.917 52.917" version="1.1" id="svg70418" xml:space="preserve" xmlns="http://www.w3.org/2000/svg" xmlns:svg="http://www.w3.org/2000/svg">
  <defs id="defs70415"/>
  <g id="layer1" transform="translate(-125.36713,-53.323505)">
    <rect style="fill:#ffffff;fill-opacity:1;stroke:none;stroke-width:2.01819" id="rect70551" width="52.917" height="52.917" x="125.36713" y="53.323505"/>
    <path id="path1303-8" style="fill:#181818;stroke-width:2.26813" d="m 152.19098,65.334567 c -1.08681,-1e-6 -1.96784,0.881031 -1.96784,1.967839 0,1.086808 0.88103,1.967839 1.96784,1.967838 1.08681,10e-7 1.96784,-0.88103 1.96784,-1.967838 0,-1.086808 -0.88103,-1.96784 -1.96784,-1.967839 z m -6.31693,3.852995 c -1.08681,-10e-7 -1.96784,0.88103 -1.96784,1.967838 0,1.086808 0.88103,1.96784 1.96784,1.967839 1.08681,10e-7 1.96784,-0.881031 1.96784,-1.967839 0,-1.086808 -0.88103,-1.967839 -1.96784,-1.967838 z m 6.31693,0.777213 c -1.09018,0 -1.96784,0.877659 -1.96784,1.967839 v 3.581693 l 3.93568,-2.326473 v -1.25522 c 0,-1.09018 -0.87766,-1.967839 -1.96784,-1.967839 z m 11.56983,0.95343 c -1.50551,-0.0085 -2.96864,0.131709 -4.08553,0.858346 l -19.12132,11.1125 c -1.18657,-0.01418 -2.15719,-9.15e-4 -3.2153,0 h -0.004 v 5.17e-4 c -2.88417,0.314955 -5.06918,2.750024 -5.07101,5.651334 8.9e-4,2.724359 1.8923,5.162094 4.56706,5.67959 0.36608,0.02075 0.73819,0.0084 1.10598,0.0084 0.005,1.79e-4 0.0103,3.52e-4 0.0155,5.17e-4 h 5.2e-4 v -5.17e-4 h 3.70003 c 2.47138,0 4.27261,-1.650161 5.83634,-2.478401 l 0.0176,-0.0098 16.37678,-9.443868 1.81539,0.02325 v 0.0088 h 5.2e-4 c 3.14168,-10e-7 5.68854,-2.54685 5.68854,-5.688541 -1.7e-4,-3.122418 -2.51714,-5.661079 -5.63945,-5.688025 v -0.0031 c -0.62453,1.12e-4 -1.30315,-0.02714 -1.98748,-0.03101 z m 1.93787,2.177129 v 0.0062 h 5.2e-4 c 1.95443,10e-7 3.5388,1.584378 3.5388,3.538802 -2.8e-4,1.950393 -1.5786,3.532872 -3.52898,3.538285 v -0.0026 l -2.40141,-0.02325 -16.85943,9.720854 c -1.86552,0.993585 -3.39589,2.210717 -4.79506,2.210717 h -3.70003 v -0.0047 h -5.2e-4 c -1.95443,-1e-6 -3.5388,-1.584382 -3.5388,-3.538802 0.002,-1.774585 1.31744,-3.273539 3.07681,-3.505212 1.10518,0.0049 2.37148,0 3.63751,0 l 19.74608,-11.475269 c 0.58682,-0.410123 0.98058,-0.400718 1.37508,-0.453204 z m -19.82463,0.590144 c -1.09018,0 -1.96784,0.877659 -1.96784,1.967839 v 3.595129 l 3.93568,-2.326473 v -1.268656 c 0,-1.09018 -0.87765,-1.967839 -1.96784,-1.967839 z"/>
  </g>
</svg>