<?xml version="1.0" encoding="UTF-8" standalone="yes"?>
<svg width="52.917mm" height="52.917mm" viewBox="0 0 52.917 52.917" version="1.1" id="svg5010" xmlns="http://www.w3.org/2000/svg" xmlns:svg="http://www.w3.org/2000/svg">
  <defs id="defs5007"/>
  <g id="layer1" transform="translate(-112.1415,-122.32436)">
    <rect style="display:inline;fill:#ffffff;fill-opacity:1;stroke:none;stroke-width:2.01819" id="rect70551" width="52.917" height="52.917" x="112.1415" y="122.32436"/>
    <path id="rect4880" style="fill:#000000;stroke-width:1" d="m 136.53191,130.27443 c -0.92327,0 -1.64848,0.8 -1.64848,1.74408 v 9.46144 l -2.30838,2.31252 c -0.99107,0.81503 -0.69227,1.79306 0.71261,1.74097 l 1.59577,-0.0284 v 1.55236 c 0,0.94408 0.72521,1.74408 1.64848,1.74408 h 20.17396 c 0.92328,0 1.65055,-0.8 1.65055,-1.74408 v -15.03887 c 0,-0.94408 -0.72727,-1.74408 -1.65055,-1.74408 z m 0,0.80047 h 20.17396 c 0.4618,0 0.84956,0.39901 0.84956,0.94361 v 15.03887 c 0,0.5446 -0.38776,0.94361 -0.84956,0.94361 h -20.17396 c -0.46179,0 -0.84956,-0.39901 -0.84956,-0.94361 l -0.0248,-2.3275 -2.82516,0.0501 2.84996,-2.82515 v -9.93634 c 0,-0.5446 0.38777,-0.94361 0.84956,-0.94361 z m -8.94519,13.04209 a 2.9910796,2.9910796 0 0 0 -2.99103,2.99104 2.9910796,2.9910796 0 0 0 2.99103,2.99103 2.9910796,2.9910796 0 0 0 2.99103,-2.99103 2.9910796,2.9910796 0 0 0 -2.99103,-2.99104 z m -3.0763,7.13859 c -1.63438,0 -2.95021,1.31582 -2.95021,2.9502 v 1.0542 8.39587 2.1668 h -2.71663 v 1.46864 h 25.81083 v -1.46864 h -12.99352 v -2.1668 -7.94783 l 2.63757,3.90984 c 0.81823,1.08565 1.32032,1.5504 2.65048,0.6413 l 4.17184,-3.75378 c 0.60883,-0.53801 0.66617,-1.46132 0.12816,-2.07015 -0.53801,-0.60883 -1.46133,-0.66617 -2.07016,-0.12816 l -2.95176,2.60863 -3.79047,-5.04879 c -0.0399,-0.0532 -0.10071,-0.0847 -0.17828,-0.0982 -0.32817,-0.31785 -0.77571,-0.51314 -1.27072,-0.51314 h -2.27687 -1.37356 z"/>
  </g>
</svg>