<?xml version="1.0" encoding="UTF-8" standalone="yes"?>
<svg width="52.917mm" height="52.917mm" viewBox="0 0 52.917 52.917" version="1.1" id="svg4795" xmlns="http://www.w3.org/2000/svg" xmlns:svg="http://www.w3.org/2000/svg">
  <defs id="defs4792"/>
  <g id="layer1" transform="translate(-311.151,-82.980667)">
    <rect style="fill:#ffffff;fill-opacity:1;stroke:none;stroke-width:2.01819" id="rect70551" width="52.917" height="52.917" x="311.151" y="82.980667"/>
    <path id="rect1831" style="display:inline;fill:#000000;fill-opacity:1;stroke-width:1.2;stroke-linecap:round" d="m 333.79742,93.85718 c -1.56225,9e-5 -2.82868,1.26653 -2.82877,2.82877 9e-5,1.56224 1.26652,2.82868 2.82877,2.82877 1.56224,-9e-5 2.82868,-1.26653 2.82877,-2.82877 -9e-5,-1.56225 -1.26653,-2.82868 -2.82877,-2.82877 z m 0.49557,6.5009 c -0.0598,5e-4 -0.12076,0.003 -0.18241,0.007 v 5.2e-4 c -0.23084,-0.005 -0.46582,0.0123 -0.70229,0.0548 -1.89177,0.33995 -3.14132,2.13691 -2.80138,4.02869 l 1.43764,7.999 c 0.35348,1.90144 1.41539,3.03051 3.56258,3.01428 h 6.07456 l 0.59996,7.93802 c 0.0719,0.96632 0.89977,1.68707 1.85674,1.61592 0.95698,-0.0712 1.66968,-0.90643 1.59783,-1.87275 l -0.80305,-10.79831 c -0.0717,-0.96403 -0.8959,-1.68319 -1.85001,-1.61592 -0.13404,-0.0327 -0.2742,-0.0506 -0.41858,-0.0506 h -4.16771 c -0.37057,-3.29568 -0.43837,-10.35163 -4.20387,-10.3203 z m -1.34152,3.44578 c 0.49532,-0.008 0.99992,0.22711 1.30483,0.79065 l 0.045,0.0238 0.045,-0.0238 c 0.76037,-1.40511 2.76063,-0.76447 2.76883,0.5793 -0.0313,1.87967 -1.50279,3.35304 -2.67271,3.89743 -0.0171,0.005 -0.0512,0.0248 -0.14107,0.0248 -0.0898,0 -0.12447,-0.0198 -0.1416,-0.0248 -1.1699,-0.54439 -2.64085,-2.01776 -2.67219,-3.89743 0.005,-0.80489 0.7242,-1.35785 1.464,-1.36995 z m 1.00201,1.51516 v 0.84026 h -0.84026 v 0.69969 h 0.84026 v 0.84026 h 0.6997 v -0.84026 h 0.84026 v -0.69969 h -0.84026 v -0.84026 z m -4.4757,11.2913 v 1.70325 h 10.25106 v -1.70325 z"/>
  </g>
</svg>