<?xml version="1.0" encoding="UTF-8" standalone="yes"?>
<svg width="52.917mm" height="52.917mm" viewBox="0 0 52.917 52.917" version="1.1" id="svg325" xmlns="http://www.w3.org/2000/svg" xmlns:svg="http://www.w3.org/2000/svg">
  <defs id="defs322"/>
  <g id="layer1" transform="translate(-169.41248,-177.92859)">
    <rect style="fill:#ffffff;fill-opacity:1;stroke:none;stroke-width:2.01819" id="rect70551" width="52.917" height="52.917" x="169.41248" y="177.92859"/>
    <path id="rect8263" style="fill:#000000;stroke:#000000;stroke-width:0.352777" d="m 199.15443,187.90001 c -0.12173,0.001 -0.24571,0.0181 -0.36897,0.0512 l -18.35908,4.91907 c -0.78882,0.21136 -1.25368,1.01676 -1.04231,1.80559 l 0.13797,0.51469 c 0.005,0.0185 0.0105,0.0366 0.016,0.0548 l 0.30334,1.13171 c 0.0449,0.1674 0.21604,0.26603 0.38344,0.22117 l 0.31213,-0.0837 0.67902,2.53319 c 0.0448,0.16739 0.21552,0.26604 0.38293,0.22117 l 0.092,-0.0243 c 0.1674,-0.0449 0.26603,-0.21603 0.22117,-0.38344 l -0.67851,-2.53317 1.43609,-0.385 0.67851,2.53319 c 0.0449,0.16739 0.21655,0.26654 0.38396,0.22168 l 0.0915,-0.0248 c 0.1674,-0.0448 0.26603,-0.21603 0.22117,-0.38344 l -0.67903,-2.53317 1.43661,-0.385 0.67903,2.53319 c 0.0449,0.16739 0.21551,0.26654 0.38292,0.22168 l 0.092,-0.0248 c 0.1674,-0.0449 0.26603,-0.21603 0.22117,-0.38344 l -0.67851,-2.53317 1.43609,-0.385 0.67851,2.5337 c 0.0449,0.16741 0.21604,0.26604 0.38344,0.22118 l 0.092,-0.0248 c 0.16741,-0.0449 0.26603,-0.21604 0.22117,-0.38345 l -0.67903,-2.53317 1.43661,-0.38448 0.67903,2.53317 c 0.0449,0.16741 0.21552,0.26605 0.38292,0.22119 l 0.092,-0.0243 c 0.16741,-0.0449 0.26603,-0.21604 0.22117,-0.38344 l -0.67851,-2.53368 1.43609,-0.38448 0.67851,2.53317 c 0.0449,0.16741 0.21655,0.26604 0.38395,0.22118 l 0.0915,-0.0243 c 0.16741,-0.0449 0.26603,-0.21603 0.22118,-0.38344 l -0.67903,-2.53318 1.4366,-0.38498 0.67903,2.53317 c 0.0449,0.16741 0.21551,0.26654 0.38292,0.22169 l 0.092,-0.0248 c 0.1674,-0.0448 0.26552,-0.21602 0.22066,-0.38343 l -0.67852,-2.53319 1.43661,-0.38499 0.67851,2.53318 c 0.0448,0.1674 0.21603,0.26655 0.38344,0.22169 l 0.0915,-0.0243 c 0.16741,-0.0448 0.26655,-0.21655 0.22169,-0.38395 l -0.67903,-2.53319 1.43661,-0.38498 0.67902,2.53317 c 0.0448,0.16742 0.21553,0.26655 0.38293,0.2217 l 0.092,-0.0243 c 0.16742,-0.0449 0.26603,-0.21604 0.22118,-0.38345 l -0.67903,-2.53317 1.4366,-0.38499 0.67851,2.53318 c 0.0449,0.16739 0.21604,0.26655 0.38344,0.2217 l 0.092,-0.0248 c 0.1674,-0.0448 0.26602,-0.21604 0.22117,-0.38344 l -0.67903,-2.53318 0.39688,-0.10646 c 0.1674,-0.0448 0.26603,-0.21552 0.22117,-0.38291 l -0.30334,-1.13172 c -0.004,-0.0185 -0.008,-0.0372 -0.0124,-0.0558 l -0.13798,-0.5147 c -0.17833,-0.66556 -0.77973,-1.10071 -1.43712,-1.09348 z m -0.22944,20.38687 -7.37526,4.38578 -9.38082,2.882 c -1.62672,0.40962 -2.97916,1.2321 -3.32486,2.31149 l -0.90951,3.00963 h 18.67793 c 2.35033,-1.46026 4.8187,-2.50572 7.51169,-2.42982 l 0.0222,2.42982 h 7.95248 c 0.65748,-3.49579 3.38157,-9.09463 0.40876,-11.83751 -4.66636,1.72861 -9.66879,4.5187 -13.58263,-0.75138 z"/>
  </g>
</svg>