<?xml version="1.0" encoding="UTF-8" standalone="yes"?>
<svg width="52.917mm" height="52.917mm" viewBox="0 0 52.917 52.917" version="1.1" id="svg8284" xmlns="http://www.w3.org/2000/svg" xmlns:svg="http://www.w3.org/2000/svg">
  <defs id="defs8281"/>
  <g id="layer1" transform="translate(-144.38721,-120.62721)">
    <rect style="display:inline;fill:#ffffff;fill-opacity:1;stroke:none;stroke-width:2.01819" id="rect70551" width="52.917" height="52.917" x="144.38721" y="120.62721"/>
    <path id="rect8213" style="display:inline;fill:#000000;stroke-width:0.203109" d="M 179.26673 128.05156 L 176.37285 128.06397 C 175.59382 128.04087 175.2496 128.21015 174.71611 129.12643 L 173.47794 131.35782 L 176.01732 132.85644 L 178.15621 129.22307 C 178.56603 128.5371 178.69627 128.41131 179.26673 128.05156 z M 179.73544 128.38694 C 179.50331 128.37877 179.26071 128.4584 179.01352 128.64739 C 178.56737 129.06345 178.03504 129.97597 177.99394 130.22094 L 178.71483 131.47719 L 177.75727 131.92988 L 180.71471 131.97174 L 182.20919 129.35743 L 181.29503 130.00597 L 181.04595 129.48507 C 180.70525 128.84778 180.24614 128.40492 179.73544 128.38694 z M 160.95881 131.02709 C 160.79261 131.02709 160.65857 131.16112 160.65857 131.32733 C 160.65857 131.49353 160.79261 131.62706 160.95881 131.62706 C 161.15732 131.63406 161.12931 131.58915 161.07043 131.85081 L 159.70152 137.93468 L 159.41007 142.69821 L 158.15588 145.41846 C 157.80274 146.03334 157.77929 146.45089 157.77606 147.08916 L 157.69234 163.73982 C 158.12619 165.47628 158.98214 165.84384 160.40484 165.90868 L 160.40432 165.91644 L 160.68027 165.91592 C 161.11302 165.92492 161.59417 165.9167 162.12721 165.9123 L 162.53959 165.91127 C 162.59319 165.91075 162.64298 165.91151 162.69565 165.91127 C 162.74835 165.91151 162.79813 165.91075 162.85172 165.91127 L 163.26409 165.9123 C 163.79695 165.9173 164.27789 165.92522 164.71052 165.91592 L 164.98699 165.91644 L 164.98647 165.90868 C 166.40917 165.84388 167.26512 165.47628 167.69897 163.73982 L 167.61473 147.08916 C 167.61173 146.4509 167.58803 146.03334 167.23491 145.41846 L 165.98124 142.69821 L 165.68979 137.93468 L 164.31158 131.80792 C 164.26768 131.61601 164.30118 131.62177 164.4325 131.62706 C 164.59871 131.62706 164.73274 131.49353 164.73274 131.32733 C 164.73274 131.16112 164.59871 131.02709 164.4325 131.02709 L 160.95881 131.02709 z M 182.57816 132.1154 L 179.99847 133.59954 L 181.5529 136.16115 L 183.18174 136.14874 C 183.54479 136.13224 184.18817 135.58845 184.05766 134.74883 L 182.57816 132.1154 z M 174.32698 132.97736 L 171.41088 133.02387 L 172.16019 133.41248 L 171.89354 133.97213 C 171.26397 134.92867 171.04836 135.12551 171.55196 136.09397 C 171.91063 136.78372 172.49075 137.76879 173.16943 138.8292 C 172.9615 138.35226 173.09934 137.79423 173.45624 137.26289 L 174.84065 134.93331 L 175.69279 135.46041 L 174.32698 132.97736 z M 179.80934 135.48573 L 178.41614 138.08816 L 179.80934 140.62082 L 179.81502 139.57024 L 180.45633 139.57024 C 181.79375 139.65284 181.93734 139.6033 182.604 138.54601 C 183.02447 137.87914 183.53046 137.06863 184.10106 135.94979 C 183.78633 136.36409 183.0682 136.46803 182.57248 136.52546 L 179.83156 136.53115 L 179.80934 135.48573 z M 174.32905 136.54562 L 173.72237 137.47269 C 173.43566 137.9713 173.48602 139.29528 174.32233 139.54647 L 177.39553 139.54337 L 177.34024 136.56836 L 174.32905 136.54562 z M 164.28625 143.17881 C 164.28625 143.17881 165.27861 143.80246 165.81949 144.93529 C 166.23594 145.80753 166.51402 147.85759 166.51402 147.85759 L 165.32185 147.80488 C 165.32185 147.80488 165.26766 146.28284 165.08569 145.56419 C 164.8754 144.73351 164.28625 143.17932 164.28625 143.17932 L 164.28625 143.17881 z M 166.55175 161.25057 L 166.60187 163.82561 C 165.81239 164.65549 165.01489 164.81709 163.92659 164.75113 C 165.40356 163.95063 165.86937 162.70839 166.55175 161.25057 z "/>
  </g>
</svg>