<?xml version="1.0" encoding="UTF-8" standalone="yes"?>
<svg width="52.917mm" height="52.917mm" viewBox="0 0 52.917 52.917" version="1.1" id="svg4060" xmlns="http://www.w3.org/2000/svg" xmlns:svg="http://www.w3.org/2000/svg">
  <defs id="defs4057"/>
  <g id="layer1" transform="translate(-126.28436,-41.992928)">
    <rect style="fill:#ffffff;fill-opacity:1;stroke:none;stroke-width:2.01819" id="rect70551" width="52.917" height="52.917" x="126.28436" y="41.992928"/>
    <path id="rect3876" style="display:inline;fill:#000000;stroke-width:1.8" d="m 147.40399,54.178659 c -0.36237,0 -0.65371,0.29133 -0.65371,0.6537 v 3.32383 c 0,0.36237 0.29134,0.65423 0.65371,0.65423 h 10.6779 c 0.36237,0 0.65422,-0.29186 0.65422,-0.65423 v -3.32383 c 0,-0.36237 -0.29185,-0.6537 -0.65422,-0.6537 z m 0.37827,0.74776 h 2.66547 v 0.55552 h -0.9927 v 2.72748 h -0.67748 v -2.72748 h -0.99529 z m 3.7207,0 h 0.71624 l 1.34307,3.283 h -0.73691 l -0.293,-0.74569 h -1.34049 l -0.27698,0.74569 h -0.71882 z m 2.1854,0 h 0.79168 l 0.67231,1.05471 0.6594,-1.05471 h 0.78496 l -1.04386,1.59421 1.1467,1.68879 h -0.81701 l -0.74362,-1.13533 -0.74621,1.13533 h -0.81235 l 1.1467,-1.71307 z m 3.3383,0 h 0.67748 v 3.283 h -0.67748 z m -5.17385,0.76584 -0.45268,1.21801 h 0.91519 z m -7.05331,4.33565 c -1.34974,0 -2.08452,1.15462 -2.45308,2.45308 l -1.63763,5.76968 h -0.73019 c -1.05774,0 -1.90892,0.8517 -1.90892,1.90944 v 7.00061 c 0,1.05774 0.85118,1.90944 1.90892,1.90944 h 0.65733 c -0.0161,0.22312 -0.0264,0.47085 -0.0264,0.73691 v 1.23765 c 0,0.93042 0.11042,1.67948 0.24753,1.67948 h 2.86391 c 0.13712,0 0.24753,-0.74906 0.24753,-1.67948 v -1.23765 c 0,-0.26606 -0.0103,-0.51379 -0.0264,-0.73691 h 17.60151 c -0.0161,0.22312 -0.0264,0.47085 -0.0264,0.73691 v 1.23765 c 0,0.93042 0.11042,1.67948 0.24753,1.67948 h 2.86391 c 0.13711,0 0.24753,-0.74906 0.24753,-1.67948 v -1.23765 c 0,-0.26606 -0.0103,-0.51379 -0.0264,-0.73691 h 0.65681 c 1.05774,0 1.90945,-0.8517 1.90945,-1.90944 v -7.00061 c 0,-1.05774 -0.85171,-1.90944 -1.90945,-1.90944 h -0.72967 l -1.63763,-5.76968 c -0.36856,-1.29846 -1.10333,-2.45308 -2.45308,-2.45308 z m 0,1.08417 h 15.88688 c 0.76796,0 1.15921,0.63014 1.36891,1.36891 l 1.63763,5.76968 h -21.90047 l 1.63762,-5.76968 c 0.2097,-0.73877 0.60147,-1.36891 1.36943,-1.36891 z m -1.21957,8.91316 a 2.7251391,2.7251391 0 0 1 2.7249,2.72489 2.7251391,2.7251391 0 0 1 -2.7249,2.72542 2.7251391,2.7251391 0 0 1 -2.72489,-2.72542 2.7251391,2.7251391 0 0 1 2.72489,-2.72489 z m 18.32602,0 a 2.7251391,2.7251391 0 0 1 2.7249,2.72489 2.7251391,2.7251391 0 0 1 -2.7249,2.72542 2.7251391,2.7251391 0 0 1 -2.72542,-2.72542 2.7251391,2.7251391 0 0 1 2.72542,-2.72489 z"/>
  </g>
</svg>