<?xml version="1.0" encoding="UTF-8" standalone="yes"?>
<svg width="52.917mm" height="52.917mm" viewBox="0 0 52.917 52.917" version="1.1" id="svg8365" xmlns="http://www.w3.org/2000/svg" xmlns:svg="http://www.w3.org/2000/svg">
  <defs id="defs8362"/>
  <g id="layer1" transform="translate(-101.95864,-85.552925)">
    <rect style="fill:#ffffff;fill-opacity:1;stroke:none;stroke-width:2.01819" id="rect70551" width="52.917" height="52.917" x="101.95864" y="85.552925"/>
    <path id="path7962" style="color:#000000;fill:#000000;fill-opacity:1;stroke-linecap:round" d="m 143.46791,92.722944 -4.9997,4.9997 a 11.70499,11.70499 0 0 1 2.86546,5.212076 l 6.3345,-6.311756 v -3.90002 z m -15.61456,2.44946 c -4.8892,-0.0157 -9.26033,3.06863 -10.88461,7.680146 -0.15566,0.44265 0.0768,0.9277 0.51935,1.08366 0.44221,0.15619 0.92737,-0.0753 1.08417,-0.51728 1.38608,-3.935246 5.10321,-6.558756 9.27541,-6.545336 4.17219,0.0134 7.87385,2.65965 9.23457,6.603726 1.33067,3.85697 0.15808,7.01563 -1.87327,9.53172 -1.53132,1.71604 -2.06499,2.21618 -2.23242,2.41949 -0.60063,0.72938 -1.7935,2.14285 -2.17971,3.545 l -0.002,0.01 -0.002,0.0119 c -0.63709,2.55769 -0.96844,4.20395 -1.7911,5.00279 -0.41134,0.39942 -1.12481,0.78379 -1.83762,0.82528 -0.7128,0.0415 -1.47215,-0.12762 -2.77967,-0.5979 -0.44181,-0.15906 -0.92889,0.0703 -1.08779,0.51211 -0.15892,0.44225 0.0712,0.92953 0.51366,1.08779 1.43675,0.51677 2.39687,0.75643 3.45147,0.69505 1.0546,-0.0614 2.24548,-0.6415 2.9254,-1.30173 1.35984,-1.32046 1.60905,-3.22381 2.25413,-5.8136 l -0.004,0.0196 c 0.18699,-0.67888 1.29619,-2.23963 1.85156,-2.91403 0.14076,-0.17092 0.71274,-0.81847 0.83561,-0.95757 3.70094,-3.04472 5.13305,-8.08416 3.56464,-12.63024 -1.59457,-4.621866 -5.94683,-7.734696 -10.83603,-7.750426 z m 0.0656,4.54443 c -0.0853,-6.7e-4 -0.17109,1.9e-4 -0.25683,0.003 -2.74375,0.0797 -5.18744,1.771046 -6.22856,4.310846 -0.17801,0.43467 0.0303,0.93131 0.46509,1.10897 0.43352,0.17727 0.92875,-0.0296 1.10742,-0.4625 0.78793,-1.92215 2.6302,-3.1979 4.70669,-3.2582 2.07649,-0.0603 3.98891,1.10544 4.88704,2.97863 0.89813,1.87319 0.60878,4.09435 -0.73845,5.67562 -0.30387,0.35716 -0.26109,0.89293 0.0956,1.19735 0.35715,0.30386 0.89292,0.26108 1.19734,-0.0956 1.78015,-2.08938 2.16342,-5.03657 0.97668,-7.51168 -1.14964,-2.39777 -3.56754,-3.925306 -6.21202,-3.946006 z m -6.05338,14.608406 -12.69948,12.69948 v 4.27519 l 3.71295,-0.0124 14.22032,-14.16968 a 11.70499,11.70499 0 0 1 -1.418,-0.44906 11.70499,11.70499 0 0 1 -3.04839,-1.77716 11.70499,11.70499 0 0 1 -0.7674,-0.56637 z"/>
  </g>
</svg>