<?xml version="1.0" encoding="UTF-8" standalone="yes"?>
<svg width="52.917mm" height="52.917mm" viewBox="0 0 52.917 52.917" version="1.1" id="svg6770" xmlns="http://www.w3.org/2000/svg" xmlns:svg="http://www.w3.org/2000/svg">
  <defs id="defs6767"/>
  <g id="layer1" transform="translate(-47.702789,-106.60602)">
    <rect style="fill:#ffffff;fill-opacity:1;stroke:none;stroke-width:2.01819" id="rect70551" width="52.917" height="52.917" x="47.702789" y="106.60602"/>
    <path id="rect4471" style="stroke-width:2;stroke-linecap:round" d="m 66.062159,116.35519 c -0.18623,0.004 -0.370417,0.0325 -0.548287,0.0837 -0.51744,0.14907 -0.979236,0.49386 -1.264006,0.99633 -0.569539,1.00493 -0.228751,2.28799 0.763778,2.87889 l 0.306958,-0.51573 c -0.717799,-0.42735 -0.959153,-1.34183 -0.547254,-2.06861 0.41189,-0.72679 1.321293,-0.98794 2.056722,-0.59169 0.73543,0.39626 1.015027,1.29903 0.634587,2.04276 l 0.535368,0.27389 c 0.526039,-1.02837 0.130131,-2.29791 -0.886768,-2.84582 -0.333669,-0.17979 -0.695559,-0.26128 -1.051098,-0.25373 z m 13.937133,0 c -0.186229,0.004 -0.370417,0.0325 -0.548287,0.0837 -0.517439,0.14907 -0.979235,0.49386 -1.264005,0.99633 -0.56954,1.00494 -0.228751,2.28799 0.763778,2.87889 l 0.306958,-0.51573 c -0.7178,-0.42735 -0.959153,-1.34183 -0.547254,-2.06861 0.41189,-0.72679 1.321293,-0.98794 2.056722,-0.59169 0.735429,0.39626 1.015026,1.29903 0.634587,2.04276 l 0.535368,0.27389 c 0.526039,-1.02837 0.130131,-2.29791 -0.886768,-2.84582 -0.33367,-0.17979 -0.695559,-0.26128 -1.051099,-0.25373 z M 67.429,119.83922 c -0.203109,-5.2e-4 -0.40489,0.0283 -0.59893,0.0842 -0.517449,0.14907 -0.978719,0.49128 -1.263488,0.99374 -0.56955,1.00494 -0.230809,2.29005 0.76171,2.88096 l 0.308509,-0.51573 c -0.71781,-0.42735 -0.960704,-1.3413 -0.548804,-2.06809 0.411899,-0.72677 1.321293,-0.99001 2.056722,-0.59376 0.735429,0.39626 1.015016,1.29904 0.634586,2.04277 l 0.535368,0.27388 c 0.52604,-1.02837 0.130132,-2.29584 -0.886767,-2.84375 -0.31778,-0.17122 -0.660376,-0.25337 -0.998906,-0.25425 z m 13.937134,0 c -0.20311,-5.2e-4 -0.40489,0.0283 -0.59893,0.0842 -0.517449,0.14907 -0.978719,0.49128 -1.263489,0.99374 -0.569549,1.00494 -0.230808,2.29005 0.761711,2.88096 l 0.308508,-0.51573 c -0.717809,-0.42735 -0.960703,-1.3413 -0.548803,-2.06809 0.411899,-0.72677 1.321292,-0.99001 2.056722,-0.59376 0.735429,0.39626 1.015016,1.29904 0.634586,2.04277 l 0.535368,0.27388 c 0.526039,-1.02837 0.130131,-2.29584 -0.886768,-2.84375 -0.317779,-0.17122 -0.660375,-0.25337 -0.998905,-0.25425 z m -16.819128,0.78548 c -0.74028,0 -1.473302,0.36801 -1.751831,1.16169 v 0.002 l -2.52181,7.45329 -0.0021,0.006 c -0.13517,0.45356 -0.158089,0.92646 0.04134,1.32602 0.19947,0.39956 0.644803,0.66604 1.232483,0.67593 l 0.0098,-0.59996 c -0.433879,-0.007 -0.603996,-0.14158 -0.704866,-0.34365 -0.10088,-0.20207 -0.108397,-0.53009 -0.0021,-0.88677 l 2.513541,-7.43366 0.0021,-0.002 v -0.002 c 0.19564,-0.55168 0.621771,-0.75861 1.183391,-0.75861 z m 13.937133,0 c -0.740279,0 -1.473301,0.36801 -1.751831,1.16169 v 0.002 l -2.52181,7.45329 -0.0016,0.006 c -0.13517,0.45356 -0.158605,0.92646 0.04082,1.32602 0.19947,0.39956 0.644804,0.66604 1.232483,0.67593 l 0.01034,-0.59996 c -0.43388,-0.007 -0.603997,-0.14158 -0.704867,-0.34365 -0.10088,-0.20207 -0.108397,-0.53009 -0.0021,-0.88677 l 2.513542,-7.43366 0.0021,-0.002 v -0.002 c 0.19564,-0.55168 0.621771,-0.75861 1.18339,-0.75861 z m -9.810254,2.66599 a 1.9620063,1.9620063 0 0 0 -1.961637,1.96164 1.9620063,1.9620063 0 0 0 1.961637,1.96215 1.9620063,1.9620063 0 0 0 1.962155,-1.96215 1.9620063,1.9620063 0 0 0 -1.962155,-1.96164 z m 13.937134,0 a 1.9620063,1.9620063 0 0 0 -1.961637,1.96164 1.9620063,1.9620063 0 0 0 1.961637,1.96215 1.9620063,1.9620063 0 0 0 1.962154,-1.96215 1.9620063,1.9620063 0 0 0 -1.962154,-1.96164 z m -17.0248,0.85525 c -0.74028,0 -1.471751,0.37059 -1.750281,1.16427 l -0.0021,0.002 -2.519226,7.45278 -0.0021,0.006 c -0.13518,0.45357 -0.158596,0.92439 0.04082,1.32395 0.19947,0.39956 0.644794,0.6681 1.232483,0.678 l 0.0098,-0.59945 c -0.43387,-0.007 -0.603987,-0.14364 -0.704867,-0.34571 -0.10087,-0.20206 -0.109957,-0.53009 -0.0036,-0.88677 l 2.515608,-7.43572 v 0.004 c 0.19487,-0.55528 0.620668,-0.76378 1.183908,-0.76378 z m 13.937133,0 c -0.740279,0 -1.471751,0.37059 -1.75028,1.16427 l -0.0016,0.002 -2.519226,7.45278 -0.0021,0.006 c -0.13518,0.45357 -0.158595,0.92439 0.04082,1.32395 0.199469,0.39956 0.644793,0.6681 1.232482,0.678 l 0.0098,-0.59945 c -0.43387,-0.007 -0.603987,-0.14364 -0.704867,-0.34571 -0.100869,-0.20206 -0.110474,-0.53009 -0.0041,-0.88677 l 2.515609,-7.43572 v 0.004 c 0.19487,-0.55528 0.620668,-0.76378 1.183907,-0.76378 z m -13.407967,3.47627 c -0.349049,0.003 -0.550532,0.22522 -0.667142,0.52193 l -2.714047,8.59844 c -0.111049,0.35181 0.0828,0.72456 0.434599,0.83561 l 0.03256,0.0103 c 0.35182,0.11105 0.762799,-0.0828 0.873849,-0.4346 l 2.090828,-6.62389 -0.03824,7.94112 -0.268718,10.35647 c -0.0136,0.52414 0.422403,0.94672 0.946713,0.94672 0.524279,0 0.932795,-0.42258 0.946195,-0.94672 0.10534,3.42138 0.247207,-9.95668 0.268717,-10.26552 -0.0445,-0.50063 0.92402,-0.36089 0.88005,0 0.0218,0.35024 0.191137,7.23842 0.268717,10.26552 0.0134,0.52414 0.421896,0.94672 0.946196,0.94672 0.524309,0 0.960312,-0.42258 0.946712,-0.94672 l -0.268717,-10.35647 -0.06976,-7.9251 2.090828,6.62389 c 0.11105,0.3518 0.553551,0.52963 0.905371,0.41858 l 0.03256,-0.0103 c 0.3518,-0.11105 0.545649,-0.4838 0.434599,-0.83561 l -2.714046,-8.59844 c -0.11661,-0.29672 -0.318093,-0.51893 -0.667143,-0.52193 h -1.794217 -1.102258 z m 13.937134,0 c -0.34905,0.003 -0.550533,0.22522 -0.667143,0.52193 l -2.714046,8.59844 c -0.11105,0.35181 0.0828,0.72456 0.434599,0.83561 l 0.03256,0.0103 c 0.35182,0.11105 0.762799,-0.0828 0.873849,-0.4346 l 2.090828,-6.62389 -0.03772,7.94112 -0.268717,10.35647 c -0.0136,0.52414 0.422402,0.94672 0.946712,0.94672 0.524279,0 0.932795,-0.42258 0.946195,-0.94672 0.10534,3.42138 0.247208,-9.95668 0.268718,-10.26552 -0.0445,-0.50063 0.924019,-0.36089 0.88005,0 0.0218,0.35024 0.191137,7.23842 0.268717,10.26552 0.0134,0.52414 0.421896,0.94672 0.946195,0.94672 0.52431,0 0.960313,-0.42258 0.946713,-0.94672 l -0.268718,-10.35647 -0.07028,-7.9251 2.090829,6.62389 c 0.11105,0.3518 0.553551,0.52963 0.905371,0.41858 l 0.03307,-0.0103 c 0.351799,-0.11105 0.545649,-0.4838 0.434599,-0.83561 l -2.714047,-8.59844 c -0.11661,-0.29672 -0.318093,-0.51893 -0.667142,-0.52193 h -1.794206 -1.102258 z m -15.740124,10.16217 v 8.35556 0.004 c 0.008,0.25214 0.158106,0.43067 0.299206,0.55087 0.14109,0.1202 0.28806,0.19651 0.42168,0.24184 l 0.19327,-0.56844 c -0.0509,-0.0173 -0.157003,-0.0722 -0.226343,-0.13126 -0.068,-0.0579 -0.08508,-0.10437 -0.08578,-0.10852 v -8.34367 z m 13.937133,0 v 8.35556 0.004 c 0.008,0.25214 0.158107,0.43068 0.299207,0.55087 0.14109,0.1202 0.28806,0.19702 0.42168,0.24236 l 0.193269,-0.56844 c -0.0509,-0.0173 -0.157002,-0.0722 -0.226342,-0.13126 -0.068,-0.0579 -0.08508,-0.10489 -0.08578,-0.10904 v -8.34367 z m -14.704528,0.71469 -0.601514,5.1e-4 v 3.92948 l 0.0021,0.008 c 0.01,0.22857 0.121686,0.38622 0.241846,0.52348 0.12015,0.13725 0.258524,0.24822 0.408244,0.32401 l 0.271818,-0.53536 c -0.0555,-0.0281 -0.15722,-0.10597 -0.22686,-0.18552 -0.0696,-0.0795 -0.0962,-0.16527 -0.0956,-0.15193 z m 13.937133,0 -0.601513,5.1e-4 v 3.92948 l 0.0021,0.008 c 0.01,0.22857 0.121686,0.38622 0.241845,0.52348 0.12015,0.13725 0.258524,0.24822 0.408244,0.32401 l 0.271818,-0.53536 c -0.0555,-0.0281 -0.157219,-0.10597 -0.226859,-0.18552 -0.0696,-0.0795 -0.0962,-0.16528 -0.0956,-0.15193 z"/>
  </g>
</svg>