<?xml version="1.0" encoding="UTF-8" standalone="yes"?>
<svg width="52.917mm" height="52.917mm" viewBox="0 0 52.917 52.917" version="1.1" id="svg1220" xmlns="http://www.w3.org/2000/svg" xmlns:svg="http://www.w3.org/2000/svg">
  <defs id="defs1217"/>
  <g id="layer1" transform="translate(-243.00964,-111.88912)">
    <rect style="fill:#ffffff;fill-opacity:1;stroke:none;stroke-width:2.01819" id="rect70551" width="52.917" height="52.917" x="243.00964" y="111.88912"/>
    <path id="path966" style="display:inline;fill:#000000;fill-opacity:1;stroke:none;stroke-width:0.821571;stroke-opacity:1" d="m 263.58627,122.86123 c -1.39638,-2.7e-4 -2.52852,1.13163 -2.52853,2.52801 10e-6,1.39638 1.13215,2.52828 2.52853,2.52801 1.39618,-10e-6 2.52799,-1.13183 2.52801,-2.52801 -2e-5,-1.39617 -1.13184,-2.52799 -2.52801,-2.52801 z m -2.29651,5.16816 c -2.88931,-0.007 -4.20474,4.41116 -6.59081,8.91987 -0.51989,0.90199 -0.47185,1.97038 0.0336,2.79725 l 0.5271,12.70361 c 0.0318,0.76603 0.61721,1.3839 1.3839,1.3839 h 0.0253 c 0.76669,0 1.35211,-0.61787 1.38389,-1.3839 l 0.49041,-11.8184 c 0.36129,-0.22991 0.67438,-0.54812 0.90382,-0.94619 1.32259,-2.289 2.6273,-4.56722 3.94498,-6.85333 l 1.7508,2.05776 c 0.39462,0.4638 0.85525,0.79385 1.46296,0.92242 l 3.99097,1.19889 c 0.42009,0.1333 0.98238,-0.0773 1.1374,-0.48989 0.15503,-0.41256 -0.12746,-0.96946 -0.54002,-1.12448 l -4.16667,-1.79472 -3.00189,-3.70262 c -0.75387,-0.87012 -0.96351,-1.15946 -1.76268,-1.62005 -0.30084,-0.1734 -0.63348,-0.25375 -0.97307,-0.25012 z m 13.30979,9.91568 c -0.43473,0 -0.78445,0.32898 -0.78445,0.7369 v 0.9431 h -3.19309 v 8.96637 h 9.7901 v -8.96637 h -3.19205 v -0.9431 c 0,-0.40792 -0.35023,-0.7369 -0.78497,-0.7369 z m 0.34416,0.57464 h 1.14722 c 0.2717,0 0.49041,0.20549 0.49041,0.46043 v 0.64493 h -2.12752 v -0.64493 c 0,-0.25494 0.21817,-0.46043 0.48989,-0.46043 z m -5.46478,1.10536 c -0.58355,0 -1.05317,0.44101 -1.05317,0.98857 v 6.98923 c 0,0.54756 0.46962,0.98857 1.05317,0.98857 h 0.18552 v -8.96637 z m 11.89075,0 v 8.96637 h 0.185 c 0.58355,0 1.05368,-0.44101 1.05368,-0.98857 v -6.98923 c 0,-0.54756 -0.47013,-0.98857 -1.05368,-0.98857 z m -13.03228,10.12031 c -1.08871,0 -1.98438,0.89568 -1.98438,1.98437 0,1.08871 0.89567,1.98231 1.98438,1.98231 h 16.26825 v -1.19941 H 268.3374 c -0.44467,0 -0.78497,-0.33824 -0.78497,-0.7829 0,-0.44467 0.3403,-0.78548 0.78497,-0.78548 h 16.26825 v -1.19889 z m 1.93528,1.2144 c -0.42451,2e-4 -0.76851,0.34443 -0.76843,0.76894 2e-4,0.42431 0.34412,0.76823 0.76843,0.76843 0.42451,9e-5 0.76875,-0.34392 0.76894,-0.76843 9e-5,-0.42471 -0.34423,-0.76903 -0.76894,-0.76894 z m 2.53886,0 c -0.42451,2e-4 -0.76851,0.34443 -0.76843,0.76894 2e-4,0.42431 0.34412,0.76823 0.76843,0.76843 0.42451,9e-5 0.76875,-0.34392 0.76895,-0.76843 8e-5,-0.42471 -0.34424,-0.76903 -0.76895,-0.76894 z m 2.53887,0 c -0.42451,2e-4 -0.76852,0.34443 -0.76843,0.76894 2e-4,0.42431 0.34412,0.76823 0.76843,0.76843 0.42451,9e-5 0.76874,-0.34392 0.76894,-0.76843 8e-5,-0.42471 -0.34423,-0.76903 -0.76894,-0.76894 z m 2.53886,0 c -0.42451,2e-4 -0.76851,0.34443 -0.76843,0.76894 2e-4,0.42431 0.34412,0.76823 0.76843,0.76843 0.42451,9e-5 0.76875,-0.34392 0.76894,-0.76843 9e-5,-0.42471 -0.34423,-0.76903 -0.76894,-0.76894 z m 2.53938,0 c -0.42471,-9e-5 -0.76903,0.34423 -0.76895,0.76894 2e-4,0.42451 0.34444,0.76852 0.76895,0.76843 0.42431,-2e-4 0.76823,-0.34412 0.76843,-0.76843 8e-5,-0.42451 -0.34392,-0.76874 -0.76843,-0.76894 z m 2.53886,0 c -0.42471,-9e-5 -0.76903,0.34423 -0.76894,0.76894 1.9e-4,0.42451 0.34443,0.76852 0.76894,0.76843 0.42431,-2e-4 0.76823,-0.34412 0.76843,-0.76843 8e-5,-0.42451 -0.34392,-0.76874 -0.76843,-0.76894 z"/>
  </g>
</svg>