<?xml version="1.0" encoding="UTF-8" standalone="yes"?>
<svg width="52.917mm" height="52.917mm" viewBox="0 0 52.917 52.917" version="1.1" id="svg15969" xmlns="http://www.w3.org/2000/svg" xmlns:svg="http://www.w3.org/2000/svg">
  <defs id="defs15966"/>
  <g id="layer1" transform="translate(-120.83698,-104.66201)">
    <rect style="fill:#ffffff;fill-opacity:1;stroke:none;stroke-width:2.01819" id="rect70551-3" width="52.917" height="52.917" x="120.83698" y="104.66201"/>
    <path id="rect15576" style="display:inline;fill:#000000;fill-opacity:1;stroke-width:1.8" d="m 159.35753,109.46216 c -0.35749,0 -0.64544,0.28745 -0.64544,0.64492 v 3.47369 h -1.57045 v 4.21628 l 3.0949,3.10886 v 23.99543 c 0,0.8283 -0.63466,1.46296 -1.46296,1.46296 -0.8283,0 -1.46451,-0.63466 -1.46451,-1.46296 7.3e-4,-5.13378 -5.1e-4,-10.26752 -5.1e-4,-15.40061 0,-1.71892 -1.4561,-3.39723 -3.64578,-3.64784 v -13.18782 c 0,-0.69545 -0.55977,-1.25574 -1.25522,-1.25574 h -16.95762 c -0.69544,0 -1.25522,0.56029 -1.25522,1.25574 v 37.01117 h -4.89737 v 3.10266 h 29.26281 v -3.10266 h -4.89738 V 128.0848 c 0.78008,0.21017 1.6459,0.74117 1.6459,1.55287 -7.3e-4,5.08814 5.1e-4,10.17623 5.1e-4,15.26367 0,1.90171 1.56269,3.46284 3.46439,3.46284 1.90171,0 3.46336,-1.56113 3.46336,-3.46284 v -24.00163 l 3.05666,-3.07062 v -4.21576 h -1.57045 v -3.50625 c 0,-0.35747 -0.28795,-0.64492 -0.64544,-0.64492 -0.35748,0 -0.64492,0.28745 -0.64492,0.64492 v 3.50625 h -0.51625 v -0.0326 h -1.91409 v -3.47369 c 0,-0.35747 -0.28744,-0.64492 -0.64492,-0.64492 z m -22.02967,3.97495 h 13.20178 c 0.36683,0 0.66198,0.29568 0.66198,0.66249 v 8.07858 c 0,0.36683 -0.29515,0.66198 -0.66198,0.66198 h -13.20178 c -0.36683,0 -0.66197,-0.29515 -0.66197,-0.66198 v -8.07858 c 0,-0.36681 0.29514,-0.66249 0.66197,-0.66249 z m 9.93893,13.45655 -3.58944,7.66568 6.26628,-0.28991 -9.35343,10.44743 3.58944,-7.66568 -6.26577,0.29042 z"/>
  </g>
</svg>