<?xml version="1.0" encoding="UTF-8" standalone="yes"?>
<svg width="52.917mm" height="52.917mm" viewBox="0 0 52.917 52.917" version="1.1" id="svg1513" xmlns="http://www.w3.org/2000/svg" xmlns:svg="http://www.w3.org/2000/svg">
  <defs id="defs1510"/>
  <g id="layer1" transform="translate(-187.1544,-138.5415)">
    <rect style="fill:#ffffff;fill-opacity:1;stroke:none;stroke-width:2.01819" id="rect70551" width="52.917" height="52.917" x="187.1544" y="138.5415"/>
    <path id="rect364" style="fill:#1f0000;stroke-width:1.2;stroke-linecap:round" d="m 226.99668,146.10049 -3.2613,5.07928 h 1.50533 l -2.5404,3.88917 h 1.37975 l -2.60294,3.95169 h 4.23385 v 3.48145 h 1.28571 1.28519 v -3.48145 h 4.23437 l -2.60346,-3.95169 1.38028,-1e-5 -2.54042,-3.88916 h 1.50534 z m -19.79517,5.50044 a 2.483871,2.483871 0 0 0 -2.48409,2.48357 2.483871,2.483871 0 0 0 2.48409,2.48409 2.483871,2.483871 0 0 0 2.48357,-2.48409 2.483871,2.483871 0 0 0 -2.48357,-2.48357 z m -2.02004,5.82239 c -0.46304,-0.002 -0.82436,0.14912 -1.34823,0.41599 -3.1e-4,1.1e-4 -5.36143,2.93885 -5.36143,2.93885 -0.27758,0.14937 -0.43246,0.26626 -0.59015,0.57155 l -2.92282,5.1511 c -0.34475,0.61808 -0.12509,1.39312 0.493,1.73788 0.61807,0.34473 1.39312,0.12509 1.73787,-0.493 l 2.75487,-4.9382 1.77354,-0.89658 -1.70222,5.73763 c -0.47658,2.31024 -0.78357,4.39372 -1.24385,6.66574 -0.0442,0.41948 -0.17764,0.69774 -0.38344,1.06609 l -3.45147,6.17792 c -0.44263,0.71885 -0.22016,1.65388 0.49868,2.09651 0.71885,0.44263 1.65473,0.22069 2.09651,-0.49868 l 3.70468,-6.03736 c 0.36941,-0.60198 0.63487,-1.21524 0.85783,-1.89084 l 1.10898,-3.49074 c 0.0376,-0.21236 0.26674,-0.22648 0.42168,-0.006 l 2.27324,3.32022 0.61237,7.44864 c 0.0691,0.84136 0.80195,1.46335 1.64331,1.39423 0.84136,-0.0691 1.44814,-0.8014 1.39371,-1.64382 l -0.47129,-7.2962 c -0.0463,-0.71757 0.0162,-1.46095 -0.43356,-2.0743 l -2.34353,-4.30103 0.74983,-2.63652 0.0548,0.26509 0.032,0.32608 c 0.021,0.25459 0.0879,0.42194 0.21704,0.6289 l 2.79105,4.47415 c 0.35653,0.57148 1.06593,0.79786 1.65416,0.46974 0.0696,-0.0388 0.13349,-0.0839 0.19224,-0.13333 0.17351,-0.0956 0.32385,-0.23879 0.42788,-0.4253 l 1.82108,-3.26491 0.8909,-0.26613 c 0.21152,-0.0584 0.26792,-0.0112 0.22737,0.19016 -0.49796,2.87908 -1.02421,5.65922 -1.64228,8.51215 l -2.18384,4.78988 c -0.31646,0.63305 -0.12457,1.39313 0.49351,1.73788 0.61808,0.34475 1.39316,0.1246 1.73788,-0.49351 l 2.28978,-4.10569 c 0.23675,-0.42449 0.45887,-0.86003 0.59945,-1.32705 l 0.52503,-2.13475 c 0.0758,-0.42581 0.22037,-0.2887 0.41651,-0.0109 l 1.73117,2.46496 1.14721,4.81366 c 0.14987,0.69168 0.82709,1.12759 1.51877,0.97772 0.69168,-0.14987 1.10278,-0.82209 0.97823,-1.51877 l -0.80046,-4.4757 c -0.10005,-0.55962 -0.19561,-0.97737 -0.50746,-1.51774 l -1.93063,-3.66179 0.555,-3.49229 0.99632,1.00407 c 0.27655,0.26556 0.46981,0.36561 0.86868,0.39585 l 4.25452,0.44597 c 0.55783,0.0596 1.05505,-0.34186 1.11466,-0.89969 0.0596,-0.55784 -0.34133,-1.05453 -0.89917,-1.11415 l -3.9362,-0.42065 c -1.00509,-0.96172 -2.63945,-3.48247 -4.04368,-3.7796 -0.67651,-0.0788 -1.05117,0.0393 -1.61488,0.25475 -1.33538,0.51048 -2.58666,1.0712 -3.95429,1.69499 -0.23832,0.097 -0.36439,0.15527 -0.4873,0.41238 l -1.22732,2.20038 -1.90686,-3.12591 c -1.19102,-2.5347 -0.0739,-7.19675 -2.88044,-8.10752 -0.60694,-0.20602 -1.0284,-0.30088 -1.38855,-0.30282 z m 13.80019,2.20555 c -1.20381,2e-5 -2.17967,0.97592 -2.17971,2.17972 4e-5,1.20381 0.9759,2.17966 2.17972,2.17971 1.20381,-4e-5 2.17967,-0.9759 2.17971,-2.17971 -3e-5,-1.20381 -0.9759,-2.17969 -2.17972,-2.17972 z"/>
  </g>
</svg>