<?xml version="1.0" encoding="UTF-8" standalone="yes"?>
<svg width="52.917mm" height="52.917mm" viewBox="0 0 52.917 52.917" version="1.1" id="svg5852" xmlns="http://www.w3.org/2000/svg" xmlns:svg="http://www.w3.org/2000/svg">
  <defs id="defs5849"/>
  <g id="layer1" transform="translate(-104.2215,-162.49007)">
    <rect style="display:inline;fill:#ffffff;fill-opacity:1;stroke:none;stroke-width:2.01819" id="rect70551" width="52.917" height="52.917" x="104.2215" y="162.49007"/>
    <path id="rect3393" style="display:inline;fill:#000000;stroke-width:3.394;stroke-linecap:round" d="m 130.75829,169.62985 a 2.7711716,2.7711716 0 0 0 -2.77089,2.77089 2.7711716,2.7711716 0 0 0 2.77089,2.7714 2.7711716,2.7711716 0 0 0 2.77141,-2.7714 2.7711716,2.7711716 0 0 0 -2.77141,-2.77089 z m -3.59461,6.78459 c -1.25006,0 -2.2562,1.00614 -2.2562,2.2562 -0.0101,0.29242 10e-4,0.4843 0,0.78445 v 10.71304 c 0,0.66599 0.53601,1.20199 1.202,1.20199 0.30164,0 0.57644,-0.1103 0.78703,-0.29249 v 15.63936 c 0,0.85874 0.69103,1.55029 1.54978,1.55029 0.0191,0 0.0374,-0.002 0.0563,-0.003 0.0203,8.8e-4 0.0404,0.003 0.061,0.003 0.85874,0 1.54978,-0.69154 1.54978,-1.55029 v -13.75575 c 0.004,-0.24897 0.27694,-0.36812 0.56689,-0.37724 0.28976,0.009 0.56264,0.12842 0.56637,0.37724 v 13.75575 c 0,0.85875 0.69104,1.55029 1.54978,1.55029 0.0206,0 0.0406,-0.002 0.061,-0.003 0.0189,6.8e-4 0.0373,0.003 0.0563,0.003 0.85875,0 1.54978,-0.69155 1.54978,-1.55029 v -15.63936 c 0.21059,0.18219 0.48539,0.29249 0.78703,0.29249 0.66599,0 1.202,-0.536 1.202,-1.20199 v -10.71304 c -0.001,-0.30015 0.0101,-0.49203 0,-0.78445 0,-1.25006 -1.00615,-2.2562 -2.2562,-2.2562 h -1.12551 -4.78162 z m 1.48363,2.06758 c 0.74602,-0.0118 1.50549,0.33482 1.96474,1.16634 l 0.0677,0.0351 0.0682,-0.0351 c 1.14523,-2.07334 4.15748,-1.12809 4.16978,0.85472 -0.0472,2.77357 -2.26301,4.94728 -4.02508,5.75056 -0.0258,0.007 -0.0776,0.0367 -0.21291,0.0367 -0.13531,0 -0.18711,-0.0295 -0.21291,-0.0367 -1.76205,-0.80328 -3.97787,-2.97699 -4.02507,-5.75056 0.007,-1.18766 1.0913,-2.00339 2.20555,-2.02106 z m 2.47478,1.96732 v 1.36271 h -1.36219 v 0.92501 h 1.36219 v 1.3627 h 0.92501 v -1.3627 h 1.36271 v -0.92501 h -1.36271 v -1.36271 z"/>
  </g>
</svg>