<?xml version="1.0" encoding="UTF-8" standalone="yes"?>
<svg width="52.917mm" height="52.917mm" viewBox="0 0 52.917 52.917" version="1.1" id="svg7212" xmlns="http://www.w3.org/2000/svg" xmlns:svg="http://www.w3.org/2000/svg">
  <defs id="defs7209"/>
  <g id="layer1" transform="translate(-116.89634,-103.7673)">
    <rect style="fill:#ffffff;fill-opacity:1;stroke:none;stroke-width:2.01819" id="rect70551" width="52.917" height="52.917" x="116.89634" y="103.7673"/>
    <path id="rect6582" style="display:inline;fill:#000000;fill-opacity:1;stroke:none;stroke-width:1.8" d="m 152.88371,111.69324 v 4.62608 h -4.62607 v 3.98322 h 4.62607 v 4.62607 h 3.98322 v -4.62607 h 4.62608 v -3.98322 h -4.62608 v -4.62608 z m -22.89886,6.09369 c -0.95831,0 -1.73012,0.77128 -1.73012,1.72961 0,0.95833 0.77181,1.72961 1.73012,1.72961 h 0.13281 v 4.28036 c 0,0.0222 5e-4,0.0446 0.001,0.0667 h -1.35341 c -1.9658,0 -3.54862,1.58282 -3.54862,3.54862 v 13.26172 c 0,1.96581 1.58282,3.54862 3.54862,3.54862 h 7.71736 c 1.9658,0 3.54862,-1.58281 3.54862,-3.54862 v -13.26172 c 0,-1.9658 -1.58282,-3.54862 -3.54862,-3.54862 h -1.35341 c 5.8e-4,-0.022 5.2e-4,-0.0445 5.2e-4,-0.0667 v -4.28036 h 0.13333 c 0.95831,0 1.72961,-0.77128 1.72961,-1.72961 0,-0.95833 -0.7713,-1.72961 -1.72961,-1.72961 z m 19.14974,10.02419 a 5.0564518,5.0564518 0 0 0 -5.05602,5.05654 5.0564518,5.0564518 0 0 0 5.05602,5.05602 5.0564518,5.0564518 0 0 0 5.05654,-5.05602 5.0564518,5.0564518 0 0 0 -5.05654,-5.05654 z m 0,1.26401 a 3.7923388,3.7923388 0 0 1 3.79253,3.79253 3.7923388,3.7923388 0 0 1 -3.79253,3.79202 3.7923388,3.7923388 0 0 1 -3.79202,-3.79202 3.7923388,3.7923388 0 0 1 3.79202,-3.79253 z m -0.59841,0.91467 v 5.72161 h 1.19786 v -5.72161 z m -21.63951,1.32498 h 11.4546 c 0.15666,0 0.28267,0.12602 0.28267,0.28267 v 5.46685 c 0,0.15666 -0.12601,0.28267 -0.28267,0.28267 h -11.4546 c -0.15666,0 -0.28267,-0.12601 -0.28267,-0.28267 v -5.46685 c 0,-0.15665 0.12601,-0.28267 0.28267,-0.28267 z m 31.01568,8.39329 c -0.46102,-0.001 -0.93017,0.0988 -1.37563,0.31109 l -5.68647,2.71043 c -1.58386,0.75497 -2.25101,2.63811 -1.49604,4.22197 0.75497,1.58385 2.6376,2.251 4.22145,1.49603 l 5.68699,-2.71043 c 1.58386,-0.75497 2.25101,-2.63811 1.49604,-4.22196 -0.54264,-1.1384 -1.66818,-1.8035 -2.84634,-1.80713 z m -0.0331,1.15342 c 0.75452,0.002 1.47563,0.42798 1.82314,1.15703 0.4835,1.01434 0.0557,2.22022 -0.9586,2.70371 l -2.18643,1.04232 -1.74511,-3.66179 2.18643,-1.04232 c 0.28528,-0.13598 0.58532,-0.19986 0.88057,-0.19895 z"/>
  </g>
</svg>