<?xml version="1.0" encoding="UTF-8" standalone="yes"?>
<svg width="52.917mm" height="52.917mm" viewBox="0 0 52.917 52.917" version="1.1" id="svg28352" xmlns="http://www.w3.org/2000/svg" xmlns:svg="http://www.w3.org/2000/svg">
  <defs id="defs28349"/>
  <g id="layer1" transform="translate(-54.416359,-127.71995)">
    <rect style="fill:#ffffff;fill-opacity:1;stroke:none;stroke-width:2.01819" id="rect70551" width="52.917" height="52.917" x="54.416359" y="127.71995"/>
    <path id="rect28203" style="fill:#000000;stroke-width:1.5" d="m 89.707117,137.56992 -1.05834,7.6047 h 3.19412 v 7.84759 h 1.33842 v -7.84759 h 3.19412 l -1.05833,-7.6047 z m -26.538435,12.74134 c -0.288218,0.006 -0.56466,0.11547 -0.778764,0.30851 -0.491377,0.44361 -0.530687,1.20136 -0.08785,1.69343 0.469579,0.52006 0.738783,0.91348 0.740523,2.3456 v 7.31273 c 1.65e-4,0.002 3.37e-4,0.005 5.17e-4,0.007 v 8.80825 h 2.399853 v -3.83284 h 30.955216 v 3.83284 h 2.40037 v -12.2478 c 0.0046,-1.5528 0.05498,-2.52757 0.75344,-3.56774 0.368863,-0.54966 0.222965,-1.29419 -0.32607,-1.66398 -0.264078,-0.17761 -0.587891,-0.24304 -0.90021,-0.1819 -0.312573,0.061 -0.58808,0.24374 -0.76584,0.50798 -0.84463,1.25774 -1.07479,2.55028 -1.13792,3.82974 h -0.02377 v 1.06867 c -1.2e-4,0.0346 -4.5e-4,0.0693 -5.2e-4,0.10387 v 1.27124 c -0.45076,-0.46756 -0.98413,-0.92669 -1.71772,-0.96377 l -18.920293,-0.95653 c -1.232149,-0.10817 -2.565117,1.40798 -2.605525,2.44946 l -0.07855,2.7181 h 23.322086 v 0.51478 H 65.442961 v -1.69757 -7.31428 c -0.0023,-1.86052 -0.617926,-3.12978 -1.359606,-3.95118 -0.233278,-0.25793 -0.566977,-0.40197 -0.914673,-0.39481 z m 6.497794,6.82077 c -1.34821,6e-5 -2.441135,1.09299 -2.441194,2.4412 5.9e-5,1.34821 1.092984,2.44113 2.441194,2.44119 1.34821,-6e-5 2.441136,-1.09298 2.441195,-2.44119 -5.9e-5,-1.34821 -1.092985,-2.44114 -2.441195,-2.4412 z"/>
  </g>
</svg>