<?xml version="1.0" encoding="UTF-8" standalone="yes"?>
<svg width="52.917mm" height="52.917mm" viewBox="0 0 52.917 52.917" version="1.1" id="svg70418" xml:space="preserve" xmlns="http://www.w3.org/2000/svg" xmlns:svg="http://www.w3.org/2000/svg">
  <defs id="defs70415"/>
  <g id="layer1" transform="translate(-409.14267,-115.10972)" style="display:inline">
    <rect style="fill:#ffffff;fill-opacity:1;stroke:none;stroke-width:2.01819" id="rect70551" width="52.917" height="52.917" x="409.14267" y="115.10972"/>
    <path id="rect4469" style="display:inline;fill:#000000;fill-opacity:1;stroke:none;stroke-width:1.9;stroke-opacity:1" d="m 429.50679,123.58252 c -0.49487,-0.81745 -1.09129,-1.58997 -1.74364,-1.97618 -0.71146,-0.42123 -1.69722,-0.1093 -2.475,0.17124 -1.17775,0.42479 -2.77393,0.97102 -3.04937,2.19236 -0.4316,1.91369 -0.59756,6.20221 -0.006,9.37192 2.18595,9.41984 7.19408,18.02104 14.16833,23.85291 2.50027,2.03619 6.3456,3.94208 8.23258,4.47857 1.20428,0.3424 2.44756,-0.79797 3.38401,-1.62899 0.61842,-0.54881 1.36393,-1.26521 1.3344,-2.0915 -0.0619,-1.73169 -2.0335,-4.17366 -2.61042,-4.88852 -0.33472,-0.41472 -2.33991,-3.07463 -3.94409,-3.7339 -1.7427,-0.57431 -3.6402,2.65978 -4.11695,2.02528 -3.59623,-5.88012 -6.80945,-11.22517 -10.2298,-17.22225 -0.32908,-0.72223 3.41865,-0.84132 3.748,-2.64639 0.18854,-1.72409 -1.18804,-4.75744 -1.39208,-5.24977 -0.19782,-0.47737 -0.66458,-1.60352 -1.30041,-2.65478 z"/>
  </g>
</svg>