<?xml version="1.0" encoding="UTF-8" standalone="yes"?>
<svg width="52.917mm" height="52.917mm" viewBox="0 0 52.917 52.917" version="1.1" id="svg4778" xmlns="http://www.w3.org/2000/svg" xmlns:svg="http://www.w3.org/2000/svg">
  <defs id="defs4775"/>
  <g id="layer1" transform="translate(-70.591324,-81.948219)">
    <rect style="fill:#ffffff;fill-opacity:1;stroke:none;stroke-width:2.01819" id="rect70551" width="52.917" height="52.917" x="70.591324" y="81.948219"/>
    <path id="rect74478-6" style="stroke-width:0.51536" d="m 97.050088,87.73487 -2.08825,1.93477 -0.0165,2.18901 1.35702,-0.99839 0.016,3.63337 h 1.46399 l 0.016,-3.63337 1.35651,0.99839 -0.0165,-2.18901 z m -15.45849,2.85306 v 33.20831 h 2.71301 V 90.58793 Z m 28.203962,0.047 v 33.20831 h 2.7125 V 90.63495 Z m -22.931932,5.04362 v 1.12448 h 20.372912 v -1.12448 z m 16.961752,4.16202 a 0.47955731,0.47955731 0 0 0 -0.47955,0.47955 0.47955731,0.47955731 0 0 0 0.47955,0.47956 0.47955731,0.47955731 0 0 0 0.47956,-0.47956 0.47955731,0.47955731 0 0 0 -0.47956,-0.47955 z m 0,2.01331 a 0.47955731,0.47955731 0 0 0 -0.47955,0.47956 0.47955731,0.47955731 0 0 0 0.47955,0.47955 0.47955731,0.47955731 0 0 0 0.47956,-0.47955 0.47955731,0.47955731 0 0 0 -0.47956,-0.47956 z m 0,2.01331 a 0.47955731,0.47955731 0 0 0 -0.47955,0.47956 0.47955731,0.47955731 0 0 0 0.47955,0.47956 0.47955731,0.47955731 0 0 0 0.47956,-0.47956 0.47955731,0.47955731 0 0 0 -0.47956,-0.47956 z m -9.496572,2.94814 -3.09284,5.2e-4 v 0.49144 l -2.28668,-10e-4 v 10.35855 l 2.28668,-0.001 v 0.49196 h 3.09284 v -0.49196 h 5.40897 v 0.49196 h 3.092832 v -0.49196 l 2.28617,0.001 v -10.35857 l -2.28617,0.001 v -0.49196 h -3.092832 v 0.49196 h -5.40897 z m -2.63499,0.44391 h 2.17713 v 10.45311 h -2.17713 z m 8.501812,0 h 2.17713 v 10.45311 h -2.17713 z m -10.789012,0.49195 h 1.82935 v 2.07946 h -1.82935 z m 4.92219,0 h 5.40897 v 2.07946 h -5.40897 z m 8.501802,0 h 1.82883 v 2.07946 h -1.82883 z m -13.423992,2.52336 h 1.82935 v 1.98903 h -1.82935 z m 4.92219,0 h 5.40897 v 1.98903 h -5.40897 z m 8.501802,0 h 1.82883 v 1.98903 h -1.82883 z m -13.423992,2.43293 h 1.82935 v 1.98954 h -1.82935 z m 4.92219,0 h 5.40897 v 1.98954 h -5.40897 z m 8.501802,0 h 1.82883 v 1.98954 h -1.82883 z m -13.423992,2.43344 h 1.82935 v 2.07895 h -1.82935 z m 4.92219,0 h 5.40897 v 2.07895 h -5.40897 z m 8.501802,0 h 1.82883 v 2.07895 h -1.82883 z m -15.966982,4.86947 v 1.12448 h 20.372912 v -1.12448 z m 9.45472,2.30942 -0.016,3.63337 -1.35702,-0.99838 0.016,2.18901 2.08825,1.93476 2.08824,-1.93476 0.0165,-2.18901 -1.35651,0.99838 -0.016,-3.63337 z"/>
  </g>
</svg>