<?xml version="1.0" encoding="UTF-8" standalone="yes"?>
<svg width="52.917mm" height="52.917mm" viewBox="0 0 52.917 52.917" version="1.1" id="svg70418" xml:space="preserve" xmlns="http://www.w3.org/2000/svg" xmlns:svg="http://www.w3.org/2000/svg">
  <defs id="defs70415"/>
  <g id="layer1" transform="translate(-87.881485,-72.774986)" style="display:inline">
    <rect style="fill:#ffffff;fill-opacity:1;stroke:none;stroke-width:2.01819" id="rect70551" width="52.917" height="52.917" x="87.881485" y="72.774986"/>
    <path id="path3067" style="display:inline;fill:#000000;fill-opacity:1;stroke:none;stroke-width:1.3;stroke-dasharray:none;stroke-opacity:1" d="m 117.16927,83.635216 -5.72006,10.059335 -0.0641,0.0062 -2.79311,0.09353 -5.58571,0.281637 h -0.0139 c -0.80999,0.08113 -1.45073,0.365301 -1.95699,0.767395 -0.50625,0.402094 -0.88332,0.893832 -1.304309,1.420068 l -6.47661,8.134389 0.13436,0.32659 4.14858,10.1074 0.56069,-0.24443 c 2.203099,-0.95252 3.387289,-2.22948 4.300509,-3.41995 0.91263,-1.18966 1.56646,-2.24854 2.81069,-3.04684 8.4e-4,-5.4e-4 0.001,-0.001 0.002,-0.002 l 6.02754,-3.21014 6.32726,3.59772 10.3849,-18.917714 z m 12.10469,1.12448 -3.57188,1.984375 4.23334,2.513541 -7.34219,13.692188 12.83229,-7.47448 z m -11.55899,4.762499 a 0.82682288,0.82682288 0 0 1 0.82683,0.826823 0.82682288,0.82682288 0 0 1 -0.82683,0.826823 0.82682288,0.82682288 0 0 1 -0.82682,-0.826823 0.82682288,0.82682288 0 0 1 0.82682,-0.826823 z m 2.10013,1.141016 a 0.82682288,0.82682288 0 0 1 0.82683,0.826823 0.82682288,0.82682288 0 0 1 -0.82683,0.826823 0.82682288,0.82682288 0 0 1 -0.82682,-0.826823 0.82682288,0.82682288 0 0 1 0.82682,-0.826823 z m 2.06706,1.141016 a 0.82682288,0.82682288 0 0 1 0.82682,0.826823 0.82682288,0.82682288 0 0 1 -0.82682,0.826823 0.82682288,0.82682288 0 0 1 -0.82682,-0.826823 0.82682288,0.82682288 0 0 1 0.82682,-0.826823 z m 6.91224,2.348177 a 0.82682288,0.82682288 0 0 1 0.82682,0.826823 0.82682288,0.82682288 0 0 1 -0.82682,0.826823 0.82682288,0.82682288 0 0 1 -0.82682,-0.826823 0.82682288,0.82682288 0 0 1 0.82682,-0.826823 z m -18.04283,0.769462 -1.82624,3.21169 -3.18275,0.422713 c -0.49046,0.05715 -0.98876,0.11096 -1.47071,0.335897 -0.48195,0.224938 -0.91266,0.666324 -1.13068,1.288814 l -0.006,0.0139 -0.004,0.0134 c -0.16921,0.56571 -0.33454,1.25435 0.0103,1.92804 0.17232,0.33685 0.59691,0.62886 1.03507,0.63252 0.43816,0.004 0.86046,-0.17149 1.36891,-0.48627 l 4.45348,-2.482538 c 1.46807,-0.692883 2.40378,-0.09403 2.78897,0.785478 0.3854,0.87999 0.20024,2.0813 -1.35185,2.85926 l -0.006,0.004 -6.84609,3.64629 -0.0212,0.0119 c -1.48986,0.95488 -2.25064,2.20052 -3.11712,3.33003 -0.76834,1.00158 -1.722239,1.92364 -3.294889,2.72644 l -3.51968,-8.57053 6.036839,-7.579902 v -0.0021 c 0.42465,-0.530813 0.76139,-0.94858 1.11363,-1.228349 0.3521,-0.279654 0.71469,-0.449815 1.32808,-0.511596 h 0.002 l 5.53093,-0.27957 z m -2.57555,4.521171 -3.24993,1.812293 -0.0119,0.008 c -0.39029,0.24163 -0.62837,0.2917 -0.7028,0.29507 -0.0299,-0.0893 -0.0419,-0.60026 0.0682,-0.98805 0.12807,-0.35894 0.26182,-0.47888 0.50022,-0.590147 0.24142,-0.112675 0.62322,-0.176845 1.10123,-0.232544 h 0.004 z"/>
  </g>
</svg>