<?xml version="1.0" encoding="UTF-8" standalone="yes"?>
<svg width="52.917mm" height="52.917mm" viewBox="0 0 52.917 52.917" version="1.1" id="svg6949" xmlns="http://www.w3.org/2000/svg" xmlns:svg="http://www.w3.org/2000/svg">
  <defs id="defs6946"/>
  <g id="layer1" transform="translate(-92.341499,-55.570072)">
    <rect style="fill:#ffffff;fill-opacity:1;stroke:none;stroke-width:2.01819" id="rect70551" width="52.917" height="52.917" x="92.341499" y="55.570072"/>
    <path id="rect6751" style="display:inline;fill:#000000;stroke-width:1.2" d="m 128.58687,63.106597 c -0.0693,0 -0.12506,0.0553 -0.12506,0.12454 v 3.55895 h -3.55844 c -0.0692,0 -0.12505,0.0558 -0.12505,0.12506 v 3.13986 c 0,0.0692 0.0558,0.12506 0.12505,0.12506 h 3.55844 v 3.558444 c 0,0.0693 0.0558,0.12505 0.12506,0.12505 h 3.13986 c 0.0692,0 0.12506,-0.0558 0.12506,-0.12505 v -3.558444 h 3.55844 c 0.0692,0 0.12505,-0.0558 0.12505,-0.12506 v -3.13986 c 0,-0.0692 -0.0558,-0.12506 -0.12505,-0.12506 h -3.55844 v -3.55895 c 0,-0.0693 -0.0558,-0.12454 -0.12506,-0.12454 z m -12.80852,3.61476 a 5.3742852,5.3742852 0 0 0 -5.37383,5.37435 5.3742852,5.3742852 0 0 0 5.37383,5.374354 5.3742852,5.3742852 0 0 0 5.37435,-5.374354 5.3742852,5.3742852 0 0 0 -5.37435,-5.37435 z m -8.29717,12.368244 c -2.0861,0.38331 -3.47512,1.73362 -3.68659,3.54811 l -1.71566,15.70705 c -0.14134,1.29427 0.78726,2.450229 2.08152,2.591569 1.29427,0.14133 2.44972,-0.78674 2.59106,-2.081009 l 1.29243,-10.98744 c 0.0934,-0.95922 1.44471,-1.01692 1.49965,-0.0439 V 100.355 h 0.0243 12.42146 0.0243 V 87.823981 c 0.0549,-0.97296 1.40629,-0.91526 1.49965,0.0439 l 1.29243,10.98744 c 0.14134,1.294269 1.29679,2.222339 2.59106,2.081009 1.29426,-0.14134 2.22286,-1.297299 2.08152,-2.591569 l -1.71565,-15.70705 c -0.38374,-1.92588 -2.08659,-3.50668 -3.6866,-3.54811 h -4.19768 v 5.35368 c 0,2.00333 -1.44676,3.67663 -3.34966,4.03024 v 3.85042 a 2.2501147,2.2501147 0 0 1 1.50016,2.11976 2.2501147,2.2501147 0 0 1 -2.24999,2.24999 2.2501147,2.2501147 0 0 1 -2.25051,-2.24999 2.2501147,2.2501147 0 0 1 1.50017,-2.11976 v -3.85042 c -1.90266,-0.35381 -3.34915,-2.02709 -3.34915,-4.03024 v -5.35368 z m 5.59656,0 v 5.35368 c 0,1.508 1.19313,2.69906 2.70113,2.69906 1.508,0 2.69906,-1.19106 2.69906,-2.69906 v -5.35368 z"/>
  </g>
</svg>