<?xml version="1.0" encoding="UTF-8" standalone="yes"?>
<svg width="52.917mm" height="52.917mm" viewBox="0 0 52.917 52.917" version="1.1" id="svg6964" xmlns="http://www.w3.org/2000/svg" xmlns:svg="http://www.w3.org/2000/svg">
  <defs id="defs6961"/>
  <g id="layer1" transform="translate(-53.025368,-124.70279)">
    <rect style="fill:#ffffff;fill-opacity:1;stroke:none;stroke-width:2.01819" id="rect70551" width="52.917" height="52.917" x="53.025368" y="124.70279"/>
    <path id="path5654" style="display:inline;fill:#1f0000;stroke-width:1.21023;stroke-linecap:round" d="m 96.40816,132.69937 -5.071828,32.00858 c -0.06803,0.72277 -1.005407,1.34027 -1.478677,1.32737 L 83.61824,165.6586 c -1.01124,-0.12501 -2.23353,0.25122 -2.01744,1.4397 l 0.18293,1.00614 c 0.15656,0.86947 1.08947,1.21543 1.87896,1.21543 h 6.351028 c 1.103452,0.0295 2.262239,-0.61988 2.500106,-1.76165 l 0.255282,-1.264 5.248258,-33.34112 z m -28.87111,0.33125 c -3.63766,1e-5 -6.5866,3.62407 -6.58667,8.09459 5e-5,3.4944 1.77137,6.54194 4.32583,7.60522 0.78462,0.37692 1.56334,1.21067 1.57355,1.69292 -0.003,2.70378 0.009,5.40737 0,8.11114 l -0.68782,0.57619 v 10.51253 h 2.75022 v -10.51253 l -0.68781,-0.57619 c 0.016,-2.68496 0.003,-5.37298 0,-8.06411 0.007,-0.48517 1.00463,-1.44113 1.5043,-1.70946 2.48286,-1.27377 4.39503,-4.10937 4.39508,-7.63571 -7e-5,-4.47052 -2.94901,-8.09458 -6.58668,-8.09459 z m 0,1.52703 c 2.95132,2e-4 5.34379,2.94053 5.34386,6.56756 1.6e-4,3.62725 -2.39237,6.56788 -5.34386,6.56808 -2.95168,1.5e-4 -5.34453,-2.94058 -5.34437,-6.56808 7e-5,-3.62728 2.39285,-6.56771 5.34437,-6.56756 z m 13.49582,11.25875 c -4.78074,2e-5 -8.6563,3.87558 -8.65632,8.65632 2e-5,4.78074 3.87558,8.6563 8.65632,8.65632 4.780746,-2e-5 8.6563,-3.87558 8.65632,-8.65632 -2e-5,-4.78074 -3.875574,-8.6563 -8.65632,-8.65632 z m 0.47336,1.23713 c 1.63613,0.10114 3.19629,0.72604 4.449855,1.78232 l 0.0041,0.22169 -3.071125,-0.0667 -1.39734,-0.88728 z m -1.01803,0.003 0.0165,1.21337 -1.39733,0.88728 -3.07113,0.0661 0.006,-0.33022 c 1.2454,-1.07508 2.80468,-1.71924 4.44573,-1.83658 z m 3.29903,2.89905 h 0.0331 l 1.951814,0.0553 1.507918,2.12907 -0.809253,1.94045 h -1.031461 l -1.962668,-2.79414 z m -5.13406,0.0884 0.84233,1.17564 -1.46348,3.03805 -1.66346,0.31058 -1.53014,-2.32854 1.24178,-2.01797 z m 1.66295,1.7079 h 2.26239 l 1.97353,2.74971 -1.30845,1.97404 h -3.03806 l -1.28622,-1.97404 z m 7.684801,1.08676 0.473873,0.12816 c 0.12895,0.55912 0.194476,1.131 0.195337,1.7048 1.5e-5,1.02413 -0.205952,2.03779 -0.605648,2.9807 l -0.928625,-0.73329 0.07751,-2.62775 z m -13.757821,0.17518 1.25471,1.92857 v 2.36833 c 0,0 -0.86764,0.62611 -1.25677,0.85059 -0.55497,-1.07956 -0.84461,-2.27586 -0.84491,-3.48971 0.002,-0.53463 0.0599,-1.06757 0.17311,-1.59008 z m 5.65186,4.47105 h 3.53725 l 0.69866,0.97565 -1.64124,2.78329 h -2.26188 l -1.60817,-2.24017 z m 6.885881,0.34364 0.874882,0.64699 c -0.841258,1.46456 -2.144283,2.60894 -3.705203,3.25407 l -0.45165,-0.57464 1.33067,-2.01797 z m -10.877891,0.27699 1.94045,1.14205 1.28623,1.98489 -0.57464,0.65939 c -1.59768,-0.54961 -2.96799,-1.61351 -3.89641,-3.02514 0.35172,-0.1965 1.24437,-0.76119 1.24437,-0.76119 z"/>
  </g>
</svg>