<?xml version="1.0" encoding="UTF-8" standalone="yes"?>
<svg width="52.917mm" height="52.917mm" viewBox="0 0 52.917 52.917" version="1.1" id="svg1040" xmlns="http://www.w3.org/2000/svg" xmlns:svg="http://www.w3.org/2000/svg">
  <defs id="defs1037"/>
  <g id="layer1" transform="translate(-227.52296,-163.85551)">
    <rect style="fill:#ffffff;fill-opacity:1;stroke:none;stroke-width:2.01819" id="rect70551" width="52.917" height="52.917" x="227.52296" y="163.85551"/>
    <path id="path855" style="display:inline;stroke-width:0.348739;stroke-linecap:round" d="m 265.67894,172.91301 -5.76864,5.11339 h -5.92884 -15.41922 l 7.70961,6.88381 6.3407,5.66167 V 205.572 h -5.25498 c -0.59373,0 -1.07177,0.47804 -1.07177,1.07177 0,0.59373 0.47804,1.07125 1.07177,1.07125 h 13.24777 c 0.59373,0 1.07177,-0.47752 1.07177,-1.07125 0,-0.59373 -0.47804,-1.07177 -1.07177,-1.07177 h -5.25497 v -15.00012 l 6.3407,-5.66167 7.7096,-6.88381 h -7.19904 l 4.48551,-3.97599 z m -10.60039,12.20856 a 1.3992603,1.3992603 0 0 1 1.3994,1.3994 1.3992603,1.3992603 0 0 1 -1.3994,1.39888 1.3992603,1.3992603 0 0 1 -1.3994,-1.39888 1.3992603,1.3992603 0 0 1 1.3994,-1.3994 z"/>
  </g>
</svg>