<?xml version="1.0" encoding="UTF-8" standalone="yes"?>
<svg width="52.917mm" height="52.917mm" viewBox="0 0 52.917 52.917" version="1.1" id="svg5817" xmlns="http://www.w3.org/2000/svg" xmlns:svg="http://www.w3.org/2000/svg">
  <defs id="defs5814"/>
  <g id="layer1" transform="translate(-67.450066,-94.038643)">
    <rect style="fill:#ffffff;fill-opacity:1;stroke:none;stroke-width:2.01819" id="rect70551" width="52.917" height="52.917" x="67.450066" y="94.038643"/>
    <path id="path5699" style="fill:#000000;fill-opacity:1;stroke-width:1.2" d="m 102.19808,102.75186 v 3.70055 h -3.700033 v 3.1998 h 3.700033 v 3.70055 h 3.20032 v -3.70055 h 3.70003 v -3.1998 h -3.70003 v -3.70055 z m -8.88783,7.61866 c -2.14131,0.0103 -4.032389,1.18502 -4.915463,1.1901 -0.94813,-0.0452 -3.112998,-1.18043 -4.953186,-1.18959 -0.129422,-6.4e-4 -0.260686,0.004 -0.394291,0.0134 -3.645927,0.54728 -4.506667,3.38504 -4.299996,6.49986 0.406842,4.53935 1.818287,4.64597 2.274797,7.15047 0.511518,2.80628 0.204763,5.75855 0.450101,8.60051 0.145876,1.75466 1.097519,5.79759 2.475302,5.60017 1.7426,-0.42936 0.670359,-5.29547 1.79989,-7.87497 0.726046,-1.65807 0.875446,-3.44288 2.647383,-3.52227 1.646931,0.0669 1.92082,1.8642 2.646867,3.52227 1.129531,2.57949 0.0578,7.44561 1.800407,7.87497 1.377784,0.19742 2.32891,-3.84551 2.474784,-5.60017 0.245341,-2.84196 -0.06142,-5.79423 0.450102,-8.60051 0.456509,-2.5045 1.868473,-2.61112 2.275313,-7.15047 0.206671,-3.11482 -0.477799,-6.20008 -4.300512,-6.49986 -0.144753,-0.0104 -0.288744,-0.0146 -0.431498,-0.0139 z"/>
  </g>
</svg>