<?xml version="1.0" encoding="UTF-8" standalone="yes"?>
<svg width="52.917mm" height="52.917mm" viewBox="0 0 52.917 52.917" version="1.1" id="svg3951" xmlns="http://www.w3.org/2000/svg" xmlns:svg="http://www.w3.org/2000/svg">
  <defs id="defs3948"/>
  <g id="layer1" transform="translate(-135.70279,-52.315693)">
    <rect style="fill:#ffffff;fill-opacity:1;stroke:none;stroke-width:2.01819" id="rect70551" width="52.917" height="52.917" x="135.70279" y="52.315693"/>
    <path id="rect3876" style="display:inline;fill:#000000;stroke-width:1.8" d="m 156.82233,62.313128 c -0.36236,0 -0.65422,0.29134 -0.65422,0.653707 v 3.323828 c 0,0.36237 0.29186,0.654224 0.65422,0.654224 h 10.67791 c 0.36237,0 0.65423,-0.291854 0.65423,-0.654224 v -3.323828 c 0,-0.362367 -0.29186,-0.653707 -0.65423,-0.653707 z m 0.37828,0.747758 h 2.66547 v 0.555522 h -0.9927 v 2.727482 h -0.67748 v -2.727482 h -0.99529 z m 3.72019,0 h 0.71675 l 1.34307,3.283004 h -0.73742 l -0.29249,-0.745691 h -1.34049 l -0.27699,0.745691 h -0.71881 z m 2.18591,0 h 0.79116 l 0.67232,1.054716 0.6599,-1.054716 h 0.78497 l -1.04387,1.594218 1.14671,1.688786 h -0.81701 l -0.74362,-1.135331 -0.74621,1.135331 h -0.81235 l 1.1467,-1.713074 z m 3.3383,0 h 0.67748 v 3.283004 h -0.67748 z m -5.17436,0.765845 -0.45217,1.218014 h 0.91519 z m -9.28471,5.16506 c -0.68709,2.844254 -1.45054,5.67638 -2.24328,8.491988 -0.8175,0.267107 -1.63463,0.541223 -2.45204,0.820105 0.0626,2.96345 0.91489,5.638779 1.89601,8.336958 0.89336,-0.333478 1.94931,-0.626592 3.41012,-0.72657 2.70422,-0.18496 4.33698,0.493628 5.87717,1.134298 1.11428,0.463168 2.17429,0.904501 3.55947,0.887801 1.65855,-0.0202 3.09698,-0.600853 4.4602,-1.151351 1.36609,-0.55159 2.66476,-1.075489 4.16253,-1.087789 1.79445,-0.0147 3.12194,0.503113 4.43074,1.013891 0.007,0.0026 0.0134,0.0051 0.0202,0.0078 0.99302,-2.724666 1.86167,-5.422978 1.92495,-8.41499 -0.95089,-0.324421 -1.90073,-0.642982 -2.85202,-0.950847 l -2.24276,-8.361246 c -6.73269,-0.641778 -13.45675,-0.509518 -19.95124,-4.8e-5 z m 18.69189,1.582332 1.64951,6.194971 c -3.53341,-0.997567 -7.00524,-2.08713 -10.1754,-2.370176 -3.71143,0.374965 -7.54889,1.563675 -10.65224,2.524171 l 1.73116,-6.348966 c 5.87427,-0.498284 11.85713,-0.520451 17.44697,0 z m 0.25011,17.375683 c -1.49777,0.0123 -2.79696,0.5362 -4.16305,1.087789 -1.36322,0.5505 -2.80114,1.131151 -4.45968,1.151351 -1.38518,0.0167 -2.4457,-0.424631 -3.55999,-0.887801 -1.54019,-0.640669 -3.17243,-1.319257 -5.87665,-1.134297 -2.11265,0.144589 -3.3868,0.69192 -4.5315,1.18339 -1.28594,0.552329 -2.3836,1.023798 -4.59507,0.538468 l -0.44235,-0.113688 c 0.0977,0.745769 0.0954,1.645835 1.02268,1.773535 2.11554,0.29093 3.30081,-0.217662 4.66069,-0.801501 1.01969,-0.43773 2.15358,-0.924939 3.99666,-1.051099 2.31806,-0.15863 3.7695,0.444829 5.13871,1.014408 1.26751,0.52702 2.47338,1.028491 4.20542,1.007691 1.97499,-0.0237 3.55412,-0.66101 5.05034,-1.265039 1.22465,-0.49432 2.38869,-0.964101 3.56671,-0.974101 1.47535,-0.0121 2.65987,0.450475 3.82767,0.906405 1.60638,0.627069 3.18585,1.242893 5.47461,0.866614 0.60421,-0.15074 0.71229,-0.894603 0.77979,-1.737362 l -0.44855,0.106453 -5.2e-4,-5.16e-4 c -2.18815,0.525049 -3.68698,-0.0602 -5.21518,-0.656808 -1.3088,-0.510779 -2.63629,-1.028591 -4.43074,-1.013892 z m 0,3.516582 c -1.49777,0.0123 -2.79696,0.536189 -4.16305,1.087789 -1.36322,0.550489 -2.80114,1.131351 -4.45968,1.151351 -1.38518,0.0167 -2.4457,-0.424115 -3.55999,-0.887285 -1.54019,-0.640669 -3.17243,-1.319257 -5.87665,-1.134298 -2.11265,0.14459 -3.3868,0.691395 -4.5315,1.182874 -1.28594,0.552099 -2.3836,1.023291 -4.59507,0.537952 l -0.44235,-0.113688 c 0.0977,0.745779 0.0954,1.646362 1.02268,1.774051 2.11554,0.29094 3.30081,-0.217662 4.66069,-0.801501 1.01969,-0.43773 2.15358,-0.924929 3.99666,-1.051099 2.31806,-0.158629 3.7695,0.445049 5.13871,1.014409 1.26751,0.527019 2.47338,1.02849 4.20542,1.00769 1.97499,-0.0239 3.55412,-0.661516 5.05034,-1.265556 1.22465,-0.494319 2.38869,-0.9641 3.56671,-0.9741 1.47535,-0.0121 2.65987,0.450475 3.82767,0.906404 1.60638,0.62707 3.18585,1.24342 5.47461,0.867131 0.60421,-0.15073 0.71229,-0.89514 0.77979,-1.737879 l -0.44855,0.106454 h -5.2e-4 c -2.18815,0.525039 -3.68698,-0.0597 -5.21518,-0.656291 -1.3088,-0.510789 -2.63629,-1.029108 -4.43074,-1.014408 z"/>
  </g>
</svg>