<?xml version="1.0" encoding="UTF-8" standalone="yes"?>
<svg width="52.917mm" height="52.917mm" viewBox="0 0 52.917 52.917" version="1.1" id="svg7250" xmlns="http://www.w3.org/2000/svg" xmlns:svg="http://www.w3.org/2000/svg">
  <defs id="defs7247"/>
  <g id="layer1" transform="translate(-89.175339,-180.03049)">
    <rect style="fill:#ffffff;fill-opacity:1;stroke:none;stroke-width:2.01819" id="rect70551-3" width="52.917" height="52.917" x="89.175339" y="180.03049"/>
    <path id="path4012-8" style="display:inline;fill:#000000;fill-opacity:1;stroke:none;stroke-width:0.650646;stroke-opacity:1" d="m 107.28146,188.15092 c -0.70446,-0.002 -1.17009,0.16718 -1.59318,0.53846 l -5.2e-4,5.2e-4 c -0.4814,0.42246 -0.78723,1.10422 -0.77153,1.98128 h 0.001 c -1.3e-4,0.001 -4e-4,0.003 -5.2e-4,0.004 1.5e-4,0.23029 0.18674,0.41655 0.41703,0.41651 0.23028,4e-5 0.41688,-0.18622 0.41703,-0.41651 -1.1e-4,-0.006 -8e-5,-0.0126 -0.006,-0.35967 -0.006,-0.34703 0.2049,-0.74516 0.49403,-0.9989 0.28956,-0.2541 0.69356,-0.3675 1.09761,-0.34779 0.56172,0.0274 1.04701,0.41533 1.15445,0.87489 0.10744,0.45955 -0.0793,1.10121 -1.22783,1.7694 l -0.004,0.001 -0.004,0.003 c -0.36452,0.22383 -0.44353,0.63828 -0.43873,0.88677 0.0115,0.59846 0.0359,1.09119 0.0517,1.37563 -0.70341,0.19302 -4.33368,1.10337 -8.44807,2.25774 -1.09071,0.30599 -1.69555,1.12382 -1.64692,1.92701 0.0486,0.80321 0.79598,1.48558 1.85518,1.46555 2.39377,0.0323 5.59613,0.0333 8.82065,0.0258 3.2246,0.008 6.42784,0.007 8.82168,-0.0253 1.05921,0.02 1.80759,-0.66233 1.85622,-1.46554 0.0486,-0.80321 -0.55776,-1.62154 -1.64848,-1.92753 -4.34147,-1.21807 -8.47695,-2.26528 -8.77517,-2.34714 -0.012,-0.19625 -0.0386,-0.57338 -0.0527,-1.30122 -0.002,-0.11923 -0.003,-0.13247 0.0419,-0.16019 1.32657,-0.77536 1.81513,-1.80556 1.61178,-2.67528 -0.20383,-0.87183 -1.0926,-1.47439 -1.87895,-1.50017 -0.0491,-0.002 -0.0972,-0.002 -0.14418,-0.003 z m 19.08669,0.4868 c -1.53718,-3e-5 -2.7833,1.24611 -2.78329,2.78328 -1e-5,1.53717 1.24612,2.7833 2.78329,2.78329 1.53715,1e-5 2.7833,-1.24612 2.78329,-2.78329 1e-5,-1.53717 -1.24613,-2.78331 -2.78329,-2.78328 z m -18.91977,5.94692 c 0.3995,0.10971 4.51636,1.15431 8.80463,2.35748 0.8133,0.22816 1.06195,0.71487 1.04024,1.07332 -0.0217,0.35844 -0.26869,0.69556 -1.00665,0.68161 h -0.007 -0.007 c -0.85998,0.0117 -1.39936,0.0179 -8.8284,0.0181 -7.42904,2.1e-4 -7.95187,-0.007 -8.81806,-0.0186 h -0.007 -0.007 c -0.73795,0.014 -0.98598,-0.32318 -1.00769,-0.68162 -0.0217,-0.35842 0.22695,-0.84464 1.04025,-1.0728 4.28748,-1.20295 8.40201,-2.24683 8.80308,-2.35696 z m 15.67966,0.35295 c -0.94725,0.12326 -1.15137,0.68739 -1.40922,1.31567 l -3.40392,10.77971 c -0.20601,0.65241 0.0968,1.32564 0.67903,1.50947 0.58221,0.18384 1.21665,-0.19353 1.42265,-0.84595 l 2.65152,-8.39638 1.01647,3.60494 c -0.0922,0.177 -0.16662,0.38926 -0.23823,0.61082 l -3.70416,11.45977 c -0.18361,0.56802 0.38402,1.07745 0.86144,1.07745 h 2.6355 l 1.16169,7.26984 c 0.13168,0.8241 0.70159,1.50482 1.57303,1.50482 0.87144,0 1.44135,-0.68072 1.57303,-1.50482 l 1.16168,-7.26984 h 2.6355 c 0.47743,0 1.04506,-0.50943 0.86145,-1.07745 l -3.70417,-11.45977 c -0.0716,-0.22156 -0.146,-0.43382 -0.23823,-0.61082 l 1.01648,-3.60494 2.65152,8.39638 c 0.20599,0.65242 0.84045,1.02979 1.42265,0.84595 0.58224,-0.18383 0.88503,-0.85706 0.67903,-1.50947 l -3.40393,-10.77971 c -0.25426,-0.72561 -0.76104,-1.29968 -1.40922,-1.31567 h -1.21749 -1.34979 -2.70681 z"/>
  </g>
</svg>