<?xml version="1.0" encoding="UTF-8" standalone="yes"?>
<svg width="52.917mm" height="52.917mm" viewBox="0 0 52.917 52.917" version="1.1" id="svg2453" xmlns="http://www.w3.org/2000/svg" xmlns:svg="http://www.w3.org/2000/svg">
  <defs id="defs2450"/>
  <g id="layer1" transform="translate(-151.17578,-148.91293)">
    <rect style="display:inline;fill:#ffffff;fill-opacity:1;stroke:none;stroke-width:2.01819" id="rect70551" width="52.917" height="52.917" x="151.17578" y="148.91293"/>
    <path d="m 171.33044,164.31734 -2.62747,4.73457 5.38811,3.17925 4.53861,-7.70943 c 0.86959,-1.45552 1.14548,-1.72199 2.35592,-2.48533 l -6.13987,0.026 c -1.65299,-0.049 -2.38333,0.3107 -3.5153,2.25489 z m 9.11807,-1.01675 c -0.94666,0.8828 -2.07605,2.81905 -2.16324,3.33884 l 1.53024,2.66497 -2.03245,0.96123 6.27512,0.089 3.17116,-5.54736 -1.93977,1.37559 -0.52819,-1.10496 c -1.05152,-1.96685 -2.63449,-3.06053 -4.31287,-1.77731 z m 7.56374,7.35803 -5.47307,3.14978 3.29816,5.43483 3.45598,-0.0257 c 0.77033,-0.0351 2.13555,-1.18891 1.85863,-2.97045 z m -23.6953,1.92807 1.58975,0.82443 -0.56496,1.18767 c -1.33585,2.02961 -1.79322,2.44682 -0.72465,4.50175 0.76103,1.46353 1.99167,3.5536 3.43173,5.80362 -0.4412,-1.012 -0.14885,-2.19529 0.60853,-3.32271 l 2.93781,-4.94327 1.8078,1.11824 -2.89796,-5.26905 z m 17.81989,5.22335 -2.9557,5.52163 2.9557,5.37479 0.0128,-2.22979 h 1.36082 c 2.83781,0.17519 3.14246,0.0707 4.55701,-2.17274 0.89217,-1.41499 1.96594,-3.13534 3.17668,-5.50933 -0.66783,0.87909 -2.19148,1.09953 -3.2433,1.22138 l -5.81585,0.0128 z m -11.62749,2.24962 -1.28773,1.96664 c -0.60836,1.05798 -0.50116,3.8667 1.27334,4.39968 l 6.52038,-0.006 -0.11731,-6.31231 z" style="display:inline;fill:#000000;stroke-width:0.433431" id="path2322"/>
  </g>
</svg>