<?xml version="1.0" encoding="UTF-8" standalone="yes"?>
<svg width="52.917mm" height="52.917mm" viewBox="0 0 52.917 52.917" version="1.1" id="svg2535" xmlns="http://www.w3.org/2000/svg" xmlns:svg="http://www.w3.org/2000/svg">
  <defs id="defs2532"/>
  <g id="layer1" transform="translate(-138.46625,-143.20741)">
    <rect style="fill:#ffffff;fill-opacity:1;stroke:none;stroke-width:2.01819" id="rect70551" width="52.917" height="52.917" x="138.46625" y="143.20741"/>
    <path id="path1660" style="color:#000000;display:inline;fill:#000000;stroke:none;stroke-width:0.964999" d="m 173.4347,151.10682 a 9.8011274,9.8011274 0 0 0 -6.93032,2.87269 9.8011274,9.8011274 0 0 0 -2.49856,4.29018 l -0.89814,-0.89813 -1.64537,-1.64435 1.73271,-1.73323 0.37879,0.37828 0.64027,0.64027 a 11.008627,11.008627 0 0 1 0.89245,-1.22939 l -0.47232,-0.4718 -1.43971,-1.43919 -3.85351,3.85558 3.34656,3.34553 12.63386,12.62765 3.33571,3.33417 3.78788,-3.78944 -1.63866,-1.63814 -0.26923,-0.26923 a 11.008627,11.008627 0 0 1 -1.23869,0.88315 l 0.44752,0.44752 0.57723,0.57722 -1.66657,1.66708 -1.63401,-1.63297 -0.94257,-0.94258 a 9.8011274,9.8011274 0 0 0 4.28914,-2.50062 9.8011274,9.8011274 0 0 0 -0.003,-13.86066 9.8011274,9.8011274 0 0 0 -6.93136,-2.86959 z m -3.28145,6.6766 h 0.73329 v 4.72632 h -0.90382 v -3.40031 c -0.33016,0.30826 -0.71927,0.53649 -1.16737,0.6842 v -0.81907 c 0.23584,-0.0771 0.49186,-0.22259 0.76842,-0.43667 0.27657,-0.2162 0.46657,-0.46762 0.56948,-0.75447 z m 3.61166,0 c 0.45667,0 0.81348,0.16244 1.07074,0.48782 0.30659,0.38532 0.45992,1.02453 0.45992,1.9172 0,0.89053 -0.15429,1.53069 -0.46302,1.92029 -0.25512,0.32111 -0.61097,0.48163 -1.06764,0.48163 -0.4588,0 -0.82914,-0.1755 -1.11001,-0.52658 -0.28084,-0.35322 -0.42116,-0.98179 -0.42116,-1.88516 0,-0.88625 0.1543,-1.52397 0.46302,-1.91358 0.25513,-0.3211 0.61149,-0.48162 1.06815,-0.48162 z m 3.66283,0 c 0.45666,0 0.81345,0.16244 1.07073,0.48782 0.30659,0.38532 0.45992,1.02453 0.45992,1.9172 0,0.89053 -0.15429,1.53069 -0.46302,1.92029 -0.25514,0.32111 -0.61097,0.48163 -1.06763,0.48163 -0.45881,0 -0.82865,-0.1755 -1.1095,-0.52658 -0.28086,-0.35322 -0.42168,-0.98179 -0.42168,-1.88516 0,-0.88625 0.15481,-1.52397 0.46354,-1.91358 0.25514,-0.3211 0.61099,-0.48162 1.06764,-0.48162 z m -3.6835,0.74827 c -0.10113,0.004 -0.19194,0.0397 -0.27233,0.10594 -0.0858,0.0685 -0.15231,0.19225 -0.19947,0.37207 -0.0622,0.23333 -0.093,0.62644 -0.093,1.17874 0,0.5523 0.028,0.93233 0.0837,1.13998 0.0557,0.20551 0.12516,0.34233 0.20877,0.41083 0.0857,0.0685 0.18365,0.10283 0.293,0.10283 0.10934,0 0.20673,-0.0343 0.29249,-0.10283 0.0858,-0.0707 0.15229,-0.19588 0.19947,-0.37569 0.0622,-0.2312 0.093,-0.62282 0.093,-1.17512 0,-0.5523 -0.028,-0.93138 -0.0837,-1.13688 -0.0558,-0.20765 -0.12613,-0.34543 -0.21188,-0.41393 -0.0836,-0.0707 -0.18005,-0.10594 -0.28939,-0.10594 -0.007,0 -0.0139,-2.7e-4 -0.0207,0 z m 3.66283,0 c -0.10112,0.004 -0.19193,0.0397 -0.27234,0.10594 -0.0857,0.0685 -0.15179,0.19225 -0.19895,0.37207 -0.0622,0.23333 -0.0935,0.62644 -0.0935,1.17874 0,0.5523 0.028,0.93233 0.0837,1.13998 0.0558,0.20551 0.12516,0.34233 0.20877,0.41083 0.0858,0.0685 0.18367,0.10283 0.29301,0.10283 0.10935,0 0.20672,-0.0343 0.29248,-0.10283 0.0857,-0.0707 0.15231,-0.19588 0.19948,-0.37569 0.0622,-0.2312 0.093,-0.62282 0.093,-1.17512 0,-0.5523 -0.0274,-0.93138 -0.0832,-1.13688 -0.0558,-0.20765 -0.12663,-0.34543 -0.21239,-0.41393 -0.0836,-0.0707 -0.18004,-0.10594 -0.28939,-0.10594 -0.007,0 -0.0139,-2.7e-4 -0.0207,0 z m -28.23549,3.93516 c -0.39311,0 -0.70951,0.28926 -0.70951,0.64802 0,0.0467 0.005,0.0921 0.015,0.13591 v 0.83716 h 3.35587 v -0.83612 -0.001 c 0.0102,-0.0438 0.016,-0.0892 0.016,-0.13591 0,-0.35876 -0.31692,-0.64802 -0.71003,-0.64802 z m -0.5643,1.97456 c -0.0969,0.005 -0.17312,0.0847 -0.17312,0.18293 0,0.10136 0.0816,0.18294 0.18294,0.18294 h 3.07681 c 0.10136,0 0.18293,-0.0816 0.18293,-0.18294 0,-0.10136 -0.0816,-0.18293 -0.18293,-0.18293 h -3.07681 c -0.003,0 -0.007,-1.6e-4 -0.01,0 z m 0.0765,0.68781 v 0.48214 0.15038 c -0.62387,0.59904 -1.08805,1.51851 -1.42989,2.74609 -0.37964,1.3633 -0.60906,3.05181 -0.63459,4.89634 -0.003,0.0767 -0.008,0.1571 -0.008,0.24236 v 0.77825 h 7.08794 v -0.77825 c 0,-0.0883 -0.005,-0.17011 -0.008,-0.24805 -0.0259,-1.8432 -0.25496,-3.53047 -0.63458,-4.89272 -0.34205,-1.22742 -0.80724,-2.14751 -1.43144,-2.74609 v -0.63045 z m 7.77007,6.81819 c 1.13523,4.13889 1.36001,10.2413 -0.0625,16.27756 2.4263,-0.64704 6.02071,-0.62949 13.17284,-0.0625 -1.25943,-5.62447 -1.2199,-10.39914 -0.0631,-16.12098 -1.57237,0.48131 -4.06232,0.74057 -13.04726,-0.0941 z m -9.8423,3.07371 v 9.3307 h 7.08794 v -9.3307 z m 21.37079,1.34359 v 3.08353 c -1.77827,0.47279 -3.35099,1.2235 -4.94078,2.15439 -1.53035,1.09578 -3.21244,1.52803 -4.93148,2.17041 v -3.08353 c 1.76216,-0.47762 3.29602,-1.39138 4.87308,-2.31665 1.53661,-1.09808 3.2699,-1.37497 4.99918,-2.00815 z m -21.37079,8.58294 v 1.08779 c 0,0.49658 0.0608,0.943 0.17932,1.30845 0.0593,0.18273 0.13082,0.34778 0.2465,0.49816 0.11567,0.15038 0.31626,0.31626 0.58963,0.31626 h 5.05653 c 0.27337,0 0.47448,-0.16588 0.59015,-0.31626 0.11567,-0.15038 0.18672,-0.31543 0.24598,-0.49816 0.11852,-0.36545 0.17983,-0.81187 0.17983,-1.30845 v -1.08779 z"/>
  </g>
</svg>