<?xml version="1.0" encoding="UTF-8" standalone="yes"?>
<svg width="52.917mm" height="52.917mm" viewBox="0 0 52.917 52.917" version="1.1" id="svg70418" xml:space="preserve" xmlns="http://www.w3.org/2000/svg" xmlns:svg="http://www.w3.org/2000/svg">
  <defs id="defs70415"/>
  <g id="layer1" transform="translate(-89.40284,-72.456657)" style="display:inline">
    <rect style="fill:#ffffff;fill-opacity:1;stroke:none;stroke-width:2.01819" id="rect70551" width="52.917" height="52.917" x="89.40284" y="72.456657"/>
    <path id="path2423" style="display:inline;fill:#000000;fill-opacity:1;stroke:none;stroke-width:0.935721;stroke-opacity:1" d="m 123.30637,80.40673 c -0.47963,0 -0.86558,0.386477 -0.86558,0.866097 v 1.109493 h -3.52175 v 10.542509 h 10.80037 V 82.38232 h -3.52175 v -1.109493 c 0,-0.47962 -0.38647,-0.866097 -0.8661,-0.866097 z m 0.38033,0.675411 h 1.26504 c 0.29976,0 0.54106,0.241285 0.54106,0.541053 v 0.759126 h -2.34715 v -0.759126 c 0,-0.299768 0.24128,-0.541053 0.54105,-0.541053 z m -17.2992,0.216525 -5.2e-4,0.0217 c -0.0913,0.0079 -0.18665,0.0183 -0.27491,0.03307 -0.61926,0.103609 -1.15031,0.383827 -1.60766,0.666109 -0.30035,0.185383 -0.57888,0.444985 -0.81804,0.671793 -0.23915,0.22681 -0.42168,0.42013 -0.42168,0.42013 l -0.16588,0.173633 v 1.670182 h -0.93896 c -1.53905,0 -2.777614,2.714103 -2.777614,6.085417 0,0.671148 0.0498,1.315399 0.14056,1.918229 h 14.270974 c 0.0908,-0.60283 0.14056,-1.247081 0.14056,-1.918229 0,-3.371314 -1.23905,-6.085417 -2.77813,-6.085417 h -1.05575 v -1.670175 l -0.16588,-0.173633 c 0,0 -0.18253,-0.19332 -0.42168,-0.42013 -0.23916,-0.226808 -0.52078,-0.48641 -0.82114,-0.671793 -0.45731,-0.282282 -0.98735,-0.5625 -1.60662,-0.666109 -0.0878,-0.01469 -0.18223,-0.02519 -0.27285,-0.03307 l -5.1e-4,-0.0217 c 0,0 -0.0886,0.0011 -0.21239,0.0072 -0.1236,-0.0062 -0.21188,-0.0072 -0.21188,-0.0072 z m 11.27011,1.083654 c -0.6438,0 -1.1622,0.518402 -1.1622,1.162203 v 8.217587 c 0,0.643808 0.5184,1.162719 1.1622,1.162719 h 0.20464 V 82.38232 Z m 13.11807,0 v 10.542509 h 0.20464 c 0.6438,0 1.16168,-0.518911 1.16168,-1.162719 v -8.217587 c 0,-0.643801 -0.51788,-1.162203 -1.16168,-1.162203 z m -24.1763,0.131258 c 0.12199,0.008 0.24978,0.01689 0.28783,0.02325 0.37275,0.06237 0.7776,0.258365 1.17616,0.504362 0.12651,0.07809 0.40783,0.315072 0.62322,0.519348 0.12189,0.115599 0.14583,0.143212 0.21445,0.212907 v 1.18184 h -4.60333 v -1.18184 c 0.0686,-0.0697 0.0929,-0.09761 0.21445,-0.212907 0.21539,-0.204276 0.49671,-0.44126 0.62322,-0.519348 0.39856,-0.245997 0.80341,-0.441995 1.17616,-0.504362 0.038,-0.0064 0.166,-0.0153 0.28784,-0.02325 z m -8.167474,11.428243 c -0.49464,0 -0.89296,0.413016 -0.89296,0.926042 0,0.513028 0.39832,0.926042 0.89296,0.926042 h 34.858864 c 0.49465,0 0.89297,-0.413014 0.89297,-0.926042 0,-0.513026 -0.39832,-0.926042 -0.89297,-0.926042 z m 7.625904,7.871359 c -0.47963,0 -0.86558,0.38647 -0.86558,0.86609 v 1.1095 h -3.52175 v 10.54199 h 10.79985 v -10.54199 h -3.52123 v -1.1095 c 0,-0.47962 -0.38647,-0.86609 -0.86609,-0.86609 z m 18.67276,0.57671 -0.001,0.0217 c -0.0913,0.008 -0.18614,0.0183 -0.2744,0.0331 -0.61926,0.10361 -1.14978,0.38382 -1.60713,0.6661 -0.30035,0.18539 -0.57992,0.44499 -0.81908,0.6718 -0.23915,0.22681 -0.42168,0.42013 -0.42168,0.42013 l -0.16588,0.17363 v 1.67018 h -0.93792 c -1.53906,0 -2.77865,2.7141 -2.77865,6.08542 0,0.67115 0.0498,1.3154 0.14056,1.91823 h 14.27148 c 0.0908,-0.60283 0.14056,-1.24708 0.14056,-1.91823 0,-3.37132 -1.23956,-6.08542 -2.77864,-6.08542 H 128.443 v -1.67018 l -0.16588,-0.17363 c 0,0 -0.18253,-0.19332 -0.42168,-0.42013 -0.23916,-0.22681 -0.51974,-0.48641 -0.8201,-0.6718 -0.45732,-0.28228 -0.98839,-0.56249 -1.60766,-0.6661 -0.0878,-0.0147 -0.18171,-0.0252 -0.27233,-0.0331 l -5.2e-4,-0.0217 c 0,0 -0.0886,0.001 -0.21239,0.007 -0.1236,-0.006 -0.21187,-0.007 -0.21187,-0.007 z m -18.29243,0.0982 h 1.26504 c 0.29976,0 0.54106,0.24128 0.54106,0.54105 v 0.75964 h -2.34715 v -0.75964 c 0,-0.29977 0.24128,-0.54105 0.54105,-0.54105 z m 18.5043,1.11672 c 0.12199,0.008 0.25031,0.0169 0.28836,0.0233 0.37275,0.0624 0.77708,0.25837 1.17563,0.50437 0.12651,0.0781 0.40783,0.31507 0.62322,0.51934 0.12189,0.1156 0.14636,0.14322 0.21498,0.21291 v 1.18184 h -4.60386 v -1.18184 c 0.0686,-0.0697 0.0934,-0.0976 0.21498,-0.21291 0.21539,-0.20427 0.49671,-0.44126 0.62321,-0.51934 0.39856,-0.246 0.80289,-0.442 1.17564,-0.50437 0.038,-0.006 0.166,-0.0153 0.28784,-0.0233 z m -24.53338,0.18397 c -0.643814,0 -1.162214,0.5184 -1.162214,1.1622 v 8.21759 c 0,0.64381 0.5184,1.1622 1.162214,1.1622 h 0.20463 v -10.54199 z m 13.11806,0 v 10.54199 h 0.20464 c 0.6438,0 1.16168,-0.51839 1.16168,-1.1622 v -8.21759 c 0,-0.6438 -0.51788,-1.1622 -1.16168,-1.1622 z m -15.095214,11.78274 c -0.49464,0 -0.89296,0.41301 -0.89296,0.92604 0,0.51303 0.39832,0.92604 0.89296,0.92604 h 34.858864 c 0.49465,0 0.89297,-0.41301 0.89297,-0.92604 0,-0.51303 -0.39832,-0.92604 -0.89297,-0.92604 z"/>
  </g>
</svg>