<?xml version="1.0" encoding="UTF-8" standalone="yes"?>
<svg width="52.917mm" height="52.917mm" viewBox="0 0 52.917 52.917" version="1.1" id="svg5616" xmlns="http://www.w3.org/2000/svg" xmlns:svg="http://www.w3.org/2000/svg">
  <defs id="defs5613"/>
  <g id="layer1" transform="translate(-108.73505,-94.186661)">
    <rect style="fill:#ffffff;fill-opacity:1;stroke:none;stroke-width:2.01819" id="rect70551" width="52.917" height="52.917" x="108.73505" y="94.186661"/>
    <path id="path2891" style="fill:#000000;fill-opacity:1;stroke:none;stroke-width:0.264583px;stroke-linecap:butt;stroke-linejoin:miter;stroke-opacity:1" d="m 143.58529,101.06797 v 3.73207 h -3.73207 v 3.48144 h 3.73207 v 3.73207 h 3.48144 v -3.73207 h 3.73207 v -3.48144 h -3.73207 v -3.73207 z m -10.58902,2.63808 c -1.27777,0 -2.30632,1.02854 -2.30632,2.30632 v 1.21956 c 0,1.27777 1.02855,2.30684 2.30632,2.30684 1.27777,0 2.30632,-1.02907 2.30632,-2.30684 v -1.21956 c 0,-1.27778 -1.02855,-2.30632 -2.30632,-2.30632 z m -4.83226,1.69447 c -0.0727,0.001 -0.14621,0.007 -0.22014,0.0181 -0.94636,0.1367 -1.59863,1.00857 -1.46193,1.95492 l 0.14211,0.98186 c 0.1367,0.94635 1.00857,1.5981 1.95492,1.46141 0.94635,-0.1367 1.59811,-1.00857 1.46141,-1.95492 l -0.14159,-0.98186 c -0.12602,-0.87242 -0.8768,-1.49471 -1.73478,-1.47949 z m -3.36827,2.58434 c -0.1895,0.001 -0.38183,0.0417 -0.56586,0.12609 -0.6928,0.31761 -0.99458,1.13086 -0.67696,1.82366 l 0.32918,0.71933 c 0.31762,0.6928 1.13138,0.99458 1.82418,0.67696 0.6928,-0.3176 0.99458,-1.13086 0.67696,-1.82366 l -0.3297,-0.71882 c -0.23325,-0.50876 -0.7339,-0.80692 -1.2578,-0.80356 z m -2.37763,2.41845 c -0.17042,10e-4 -0.34352,0.0378 -0.50902,0.11369 -0.62303,0.28563 -0.89489,1.01666 -0.60926,1.63969 l 0.29662,0.64699 c 0.28563,0.62304 1.01718,0.89438 1.64021,0.60875 0.62303,-0.28563 0.89438,-1.01718 0.60875,-1.64021 l -0.29611,-0.64647 c -0.20976,-0.45754 -0.66005,-0.72546 -1.13119,-0.72244 z m 8.77052,0.67593 c -4.47521,0.0158 -10.92625,5.11041 -9.34103,11.06858 l 5.2064,15.49362 c 2.4053,4.67543 10.07905,2.78625 8.15454,-3.95169 -0.59045,-1.89514 -3.91045,-4.05269 -3.37137,-8.15558 0.70135,-5.33794 5.56294,-8.13402 2.61844,-12.92066 -0.71246,-1.06796 -1.89702,-1.53912 -3.26698,-1.53427 z m -10.62157,2.07739 c -0.16606,9.2e-4 -0.33442,0.0441 -0.48886,0.13385 -0.47068,0.27351 -0.62957,0.8729 -0.35605,1.34358 l 0.2837,0.48834 c 0.27351,0.47068 0.87291,0.62905 1.34359,0.35554 0.47068,-0.27352 0.62905,-0.87239 0.35553,-1.34307 l -0.2837,-0.48834 c -0.18377,-0.31624 -0.51419,-0.49178 -0.85421,-0.4899 z"/>
  </g>
</svg>