<?xml version="1.0" encoding="UTF-8" standalone="yes"?>
<svg width="52.917mm" height="52.917mm" viewBox="0 0 52.917 52.917" version="1.1" id="svg4817" xmlns="http://www.w3.org/2000/svg" xmlns:svg="http://www.w3.org/2000/svg">
  <defs id="defs4814"/>
  <g id="layer1" transform="translate(-157.39864,-87.250069)">
    <rect style="fill:#ffffff;fill-opacity:1;stroke:none;stroke-width:2.01819" id="rect70551" width="52.917" height="52.917" x="157.39864" y="87.250069"/>
    <path id="path4800" style="color:#000000;fill:#000000" d="m 168.80303,91.943445 -5.73454,4.51549 v 12.939775 c 0.01,0.56101 0.43093,0.76806 0.92191,0.84956 l 0.006,0.002 h 0.008 c 0.98239,0.0953 1.95266,-0.24676 2.66702,-0.72244 9.9e-4,0.0244 0.003,0.0495 0.007,0.0754 v 0.0357 h 0.006 c 6.5e-4,0.003 7.9e-4,0.007 0.002,0.0103 0.0156,0.0716 0.0357,0.18567 0.13901,0.28474 0.22596,0.21667 0.52331,0.27474 0.7674,0.31471 l 0.008,0.002 h 0.006 c 1.10609,0.10735 2.19784,-0.33994 2.9254,-0.90796 v 0.0176 h -0.001 c 0,0 -0.0108,0.10076 -0.014,0.22479 -0.003,0.12403 -0.008,0.26586 0.0429,0.40825 0.0393,0.11063 0.1058,0.23696 0.25011,0.31419 0.44263,0.23695 0.95023,0.15379 1.35961,0.0977 0.48587,-0.0667 0.94784,-0.24783 1.36684,-0.47232 l 0.01,-0.004 0.01,-0.006 c 2.16876,-1.46985 4.14732,-3.29144 6.27765,-4.77697 l -0.0382,-0.0548 h 0.15142 V 91.944675 l -1.00408,0.79685 -3.02772,-0.01 0.59996,-0.47232 -0.24804,-0.31471 -0.99942,0.78703 h -3.20808 l 0.59997,-0.47232 -0.24598,-0.31471 -0.99943,0.78703 h -2.96364 l 0.59996,-0.47232 z m 10.74198,0.83613 v 12.076775 c -2.13539,1.49667 -4.09253,3.29461 -6.20531,4.72788 -0.38726,0.20664 -0.80424,0.36613 -1.22421,0.42374 -0.40951,0.0562 -0.83116,0.10039 -1.11725,-0.0527 -0.008,-0.004 -0.0441,-0.0457 -0.0625,-0.0977 -0.009,-0.0246 -0.0184,-0.12432 -0.0114,-0.17157 l 0.007,-11.930015 c 0.15159,0.0613 0.30905,0.0902 0.44907,0.11317 l 0.008,0.002 h 0.006 c 0.82502,0.0801 1.77975,-0.21094 2.44378,-0.56793 1.88458,-1.24857 3.82645,-3.01319 5.70663,-4.52375 z m -11.50369,0.27233 c 0.77622,0.023 1.66186,0.0447 2.86287,0.0791 l -4.22661,3.32796 v 0.22376 c -0.65264,0.492 -1.64317,0.8802 -2.59158,0.79013 -0.22145,-0.037 -0.43341,-0.0966 -0.5488,-0.20722 0.007,0.007 -0.0106,-0.0219 -0.0232,-0.0801 -0.003,-0.0131 -0.008,-0.0905 -0.006,-0.15193 0.002,-0.0614 0.006,-0.11162 0.006,-0.11162 l -0.045,-0.004 v -0.2651 z m 3.50831,0.0791 h 3.20807 l -4.22661,3.32796 v 0.20257 c -0.65797,0.48365 -1.8957,0.9011 -2.84169,0.81132 -0.22145,-0.037 -0.43342,-0.0966 -0.5488,-0.20722 0.007,0.007 -0.0126,-0.0219 -0.0253,-0.0801 -0.003,-0.0131 -0.007,-0.0905 -0.006,-0.15193 0.002,-0.0614 0.008,-0.11162 0.008,-0.11162 l -0.0393,-0.004 v -0.26562 z m 3.85558,0 h 3.06234 l -4.67568,3.73362 c -0.39858,0.22233 -1.36226,0.70225 -2.35231,0.60823 -0.19752,-0.033 -0.38735,-0.0835 -0.50798,-0.1726 v -0.64699 z m -8.72763,4.03903 v 11.861285 c -0.65173,0.50611 -1.66321,0.9125 -2.63085,0.82062 -0.22145,-0.037 -0.43342,-0.0966 -0.54881,-0.20722 0.007,0.007 -0.0106,-0.0219 -0.0232,-0.0801 -0.0172,-3.90479 -0.006,-7.92736 -0.006,-11.859215 0.18372,0.0979 0.38602,0.13529 0.56017,0.16381 l 0.006,0.002 h 0.008 c 0.96777,0.0939 1.92329,-0.23663 2.63446,-0.70125 z m 3.78478,0.017 c 0.002,0.0275 0.006,0.0558 0.0124,0.0847 0.0101,0.0461 0.0217,0.10918 0.0563,0.17467 l -0.0661,11.442705 -0.14056,0.10697 c -0.64953,0.52236 -1.68369,0.94977 -2.67374,0.85576 -0.22145,-0.037 -0.43342,-0.0966 -0.54881,-0.20722 0.007,0.007 -0.0111,-0.0193 -0.0238,-0.0718 V 97.707915 c 0.18232,0.0958 0.38253,0.13299 0.55501,0.16123 l 0.006,0.002 h 0.006 c 0.95202,0.0924 2.05007,-0.22584 2.81791,-0.6842 z m 25.00519,3.718635 a 3.6001835,3.6001835 0 0 0 -3.59978,3.6003 3.6001835,3.6001835 0 0 0 3.59978,3.60029 3.6001835,3.6001835 0 0 0 3.6003,-3.60029 3.6001835,3.6001835 0 0 0 -3.6003,-3.6003 z m 2.71921,8.0145 -6.11642,0.0357 -0.99012,0.10594 -1.27279,0.70693 -1.02526,1.59112 -0.0708,1.69705 c 0,0 -2.27552,0.45567 -2.67994,0.68007 -1.43586,-0.19671 -2.54515,-0.72051 -5.18315,-0.66095 -0.34253,0.004 -0.68942,0.0244 -1.03559,0.0646 -2.79668,0.21913 -6.06527,0.82992 -6.06527,0.82992 l -0.22272,0.045 5.33456,15.83624 0.18551,-0.0563 c 0,0 1.26169,-0.3341 2.72077,-0.6258 -0.1772,0.21238 -0.39801,0.48016 -0.54984,0.68212 -0.33593,0.44686 -0.75189,0.85788 -0.95498,1.37873 -0.15561,0.3991 -0.15483,0.84499 -0.17673,1.27279 -0.0507,0.98934 0.10593,2.97036 0.10593,2.97036 h 11.73882 c 0,0 0.0304,-0.65311 0.1416,-0.95498 0.0768,-0.20867 0.21502,-0.39131 0.35346,-0.56534 0.11414,-0.14348 0.24639,-0.27405 0.38913,-0.38912 1.86555,-1.50403 6.04562,-3.88917 6.04562,-3.88917 l 0.22014,-0.15865 c 0.70439,0.2613 1.47581,0.57682 2.1823,0.88367 1.45039,0.62996 2.8174,0.97307 2.8174,0.97307 l 0.56741,0.0971 -3.20188,-10.39161 0.031,-8.48114 v -1.13171 l -0.95446,-1.55546 -1.34359,-0.84853 z m -17.1266,4.55581 c 2.13285,0.0116 4.01699,0.62694 4.13721,0.66663 l 1.24747,3.85247 3.29954,10.72131 c -0.28627,-0.0741 -0.75888,-0.19126 -1.51567,-0.33744 -1.14166,-0.22053 -2.50475,-0.41994 -3.46283,-0.31626 -2.05091,0.22196 -5.34044,1.09217 -5.56866,1.16065 l -5.01881,-14.77946 c -0.0882,-0.25974 2.4644,-0.36176 5.4932,-0.7922 0.47199,-0.0417 0.94226,-0.17313 1.38855,-0.1757 z m 11.58534,0.37879 c 2.96775,0.008 5.61976,0.57745 5.78052,0.61236 l 5.40588,16.35353 c -0.30391,-0.14486 -1.04021,-0.50042 -2.27118,-1.03508 -1.45855,-0.63351 -3.12564,-1.30732 -4.07831,-1.47691 -2.41789,-0.43044 -5.64505,0.22905 -6.48022,0.41599 l -4.42505,-14.37793 c 0.98556,-0.1214 3.96277,-0.47293 5.78052,-0.49093 0.0963,-9.5e-4 0.19211,-0.001 0.28784,-0.001 z"/>
  </g>
</svg>