<?xml version="1.0" encoding="UTF-8" standalone="yes"?>
<svg width="52.917mm" height="52.917mm" viewBox="0 0 52.917 52.917" version="1.1" id="svg3342" xmlns="http://www.w3.org/2000/svg" xmlns:svg="http://www.w3.org/2000/svg">
  <defs id="defs3339"/>
  <g id="layer1" transform="translate(-63.708363,-72.656219)">
    <rect style="fill:#ffffff;fill-opacity:1;stroke:none;stroke-width:2.01819" id="rect70551" width="52.917" height="52.917" x="63.708363" y="72.656219"/>
    <path id="path2313" style="fill:#000000;stroke-width:0.311071" d="m 77.210506,79.143137 c -0.14104,-5e-5 -0.28129,0.0654 -0.4253,0.21549 l -5.2e-4,0.0114 c -0.36711,0.40293 -0.614,1.24977 -0.62632,1.82521 l -0.16794,4.78472 -6.088,4.26641 0.0202,0.55035 c 0.0149,0.41322 0.10711,0.53992 0.60926,0.45527 l 5.59243,-1.58336 0.13332,3.022044 -2.53111,1.73271 v 1.07435 l 3.48403,-0.93328 3.48351,0.93328 v -1.07435 l -2.53112,-1.73271 0.13333,-3.022044 5.59242,1.58336 c 0.50223,0.0848 0.59413,-0.042 0.60927,-0.45527 l 0.0202,-0.55035 -6.08852,-4.26641 -0.16794,-4.78472 c -0.013,-0.57548 -0.25919,-1.4223 -0.62632,-1.82521 v -0.0114 c -0.14383,-0.14995 -0.28371,-0.21544 -0.42478,-0.21549 z m 25.913144,0 c -0.14104,-5e-5 -0.28077,0.0654 -0.42478,0.21549 h -5.1e-4 l -5.2e-4,0.0114 c -0.36711,0.40293 -0.614,1.24977 -0.62632,1.82521 l -0.16795,4.78472 -6.088004,4.26641 0.0202,0.55035 c 0.0149,0.41322 0.10709,0.53992 0.60926,0.45527 l 5.592434,-1.58336 0.13332,3.022044 -2.531114,1.73271 v 1.07435 l 3.484024,-0.93328 3.48351,0.93328 v -1.07435 l -2.53111,-1.73271 0.13333,-3.022044 5.59294,1.58336 c 0.50223,0.0848 0.5936,-0.042 0.60874,-0.45527 l 0.0202,-0.55035 -6.08852,-4.26641 -0.16743,-4.78472 c -0.013,-0.57548 -0.25971,-1.4223 -0.62684,-1.82521 v -0.0114 c -0.14383,-0.14995 -0.28371,-0.21544 -0.42478,-0.21549 z m -12.135174,8.47442 c -1.32782,-1.2e-4 -2.40435,1.07617 -2.40451,2.40399 -1.2e-4,1.32802 1.07648,2.404624 2.40451,2.404504 1.32802,1.2e-4 2.40462,-1.076484 2.4045,-2.404504 -1.6e-4,-1.32783 -1.07669,-2.40411 -2.4045,-2.40399 z m -0.59273,5.515434 c -0.74099,0.0564 -1.31852,0.32045 -1.76475,0.94102 l -2.65255,3.64474 c -0.38387,0.47586 -0.53481,0.92543 -0.67025,1.48208 l -1.29449,5.320609 c -0.11463,0.47103 0.17235,0.94267 0.64337,1.0573 0.47104,0.11462 0.94267,-0.17234 1.0573,-0.64337 l 1.4919,-5.996539 0.55087,-0.76429 c 0.13731,-0.16061 0.42018,-0.25923 0.41134,0.13849 v 3.076299 2.31562 c -3e-5,0.11113 0.008,0.22008 0.0243,0.3266 l -0.72553,2.20141 h -6.37894 c -0.37217,0 -0.67179,0.29964 -0.6718,0.6718 v 5.14438 c 0,0.37217 0.29964,0.67179 0.6718,0.6718 h 3.42408 l -2.3456,3.29179 c -0.39472,0.55391 -0.26659,1.31731 0.28732,1.71204 0.55392,0.39472 1.31733,0.26659 1.71204,-0.28732 l 3.36104,-4.71651 h 1.33997 c 0.37217,0 0.67179,-0.29964 0.67179,-0.6718 v -4.28449 l 0.57516,-1.55443 c 0.20252,-0.4793 0.54086,-0.49074 0.74311,0.0491 l 3.66593,11.95844 c 0.19933,0.65029 0.88345,1.01324 1.53375,0.8139 0.6503,-0.19933 1.01324,-0.88345 0.81391,-1.53375 l -4.19768,-13.69426 c -0.014,-0.0457 -0.0308,-0.0903 -0.0501,-0.13281 v -4.332029 c 0.005,-0.30462 0.0256,-0.3728 0.185,-0.01 0.12289,0.24905 0.27504,0.45721 0.52607,0.63562 l 4.51859,3.211689 c 0.39271,0.27917 0.93316,0.18755 1.21233,-0.20515 0.27916,-0.39271 0.18806,-0.93369 -0.20464,-1.21285 l -4.6545,-3.308329 -1.62677,-3.50728 c -0.44151,-1.03823 -0.98911,-1.8116 -2.18281,-1.8097 z"/>
  </g>
</svg>