<?xml version="1.0" encoding="UTF-8" standalone="yes"?>
<svg width="52.917mm" height="52.917mm" viewBox="0 0 52.917 52.917" version="1.1" id="svg70418" xml:space="preserve" xmlns="http://www.w3.org/2000/svg" xmlns:svg="http://www.w3.org/2000/svg">
  <defs id="defs70415"/>
  <g id="layer1" transform="translate(-90.781647,-69.064018)">
    <rect style="fill:#ffffff;fill-opacity:1;stroke:none;stroke-width:2.01819" id="rect70551" width="52.917" height="52.917" x="90.78009" y="69.249527"/>
    <path id="path74349" style="display:inline;stroke-width:1.09849" d="M 115.30987,78.555945 V 83.1691 h -4.61264 v 3.814238 h 4.61264 v 4.613155 h 3.81475 v -4.613155 h 4.61264 V 83.1691 h -4.61264 v -4.613155 z m -14.81692,19.067054 c -0.629676,0 -1.160404,0.292453 -1.160404,0.806668 v 0.26045 12.642123 1.64641 h 2.528524 v -1.64641 -2.30477 h 30.76919 v 2.30477 1.64641 h 2.52852 v -1.64641 -12.642123 -0.26045 c 0,-0.514215 -0.48369,-0.806668 -1.11336,-0.806668 h -0.25476 c -0.62967,0 -1.1604,0.292453 -1.1604,0.806668 v 0.26045 3.302123 c -0.0207,-0.0416 -0.042,-0.0819 -0.0641,-0.11937 -0.10221,-0.17341 -0.29402,-0.27576 -0.45321,-0.39894 -0.21659,-0.16757 -0.25183,-0.25126 -0.49196,-0.38293 -0.70764,-0.38801 -2.53917,-0.1293 -3.7145,-0.1757 -5.39723,-0.21326 -10.70869,-0.61278 -16.3158,-0.75861 -1.02405,0.29256 -1.72737,1.3444 -2.13578,2.39417 -0.24234,0.75517 -0.15503,2.37402 -0.15503,2.37402 h 23.33036 v 0.59893 h -30.76919 v -6.833693 -0.26045 c 0,-0.514215 -0.48369,-0.806668 -1.11336,-0.806668 z m 5.5627,1.782319 c -1.33178,2.55e-4 -2.41125,1.079962 -2.41122,2.411742 -3e-5,1.33178 1.07944,2.41148 2.41122,2.41174 1.33198,3e-5 2.41177,-1.07976 2.41174,-2.41174 3e-5,-1.33198 -1.07976,-2.411774 -2.41174,-2.411742 z"/>
  </g>
</svg>