<?xml version="1.0" encoding="UTF-8" standalone="yes"?>
<svg width="52.917mm" height="52.917mm" viewBox="0 0 52.917 52.917" version="1.1" id="svg12440" xmlns="http://www.w3.org/2000/svg" xmlns:svg="http://www.w3.org/2000/svg">
  <defs id="defs12437"/>
  <g id="layer1" transform="translate(-104.78722,-122.89007)">
    <rect style="fill:#ffffff;fill-opacity:1;stroke:none;stroke-width:2.01819" id="rect70551" width="52.917" height="52.917" x="104.78722" y="122.89007"/>
    <path id="path12312" style="display:inline;fill:#000000;fill-opacity:1;stroke:none;stroke-width:0.773399;stroke-opacity:1" d="m 135.55245,132.79417 v 1.19993 h 3.80029 v -1.19993 z m -0.091,1.77508 a 2.2876165,2.2876165 0 0 0 -0.33383,1.18753 2.2876165,2.2876165 0 0 0 2.2872,2.28771 2.2876165,2.2876165 0 0 0 2.28772,-2.28771 2.2876165,2.2876165 0 0 0 -0.33228,-1.18753 z m 3.70159,3.78944 c -0.0493,2e-5 -0.1,0.003 -0.15141,0.009 l -2.45102,0.48937 c -0.86875,0.35252 -0.92226,0.81704 -1.21129,1.58389 l -1.39682,4.04471 h -5.07669 c -0.76393,0 -1.37873,0.61532 -1.37873,1.37924 0,0.76392 0.64017,1.23787 1.40405,1.22887 l 0.15141,-0.003 v 13.00541 h -15.67966 a 0.40000001,0.40000001 0 0 0 -0.39998,0.39843 0.40000001,0.40000001 0 0 0 0.39998,0.4005 h 16.47858 v -13.81673 l 4.75113,-0.0734 c 0.71571,-0.0183 0.76814,-0.0752 1.0728,-0.69918 l 0.77773,-1.59268 0.87695,4.42093 c 0.1086,0.50928 0.13364,0.76233 -0.0599,1.2299 l -1.98283,4.78937 c -0.28443,0.52275 -0.40303,1.05911 -0.50126,1.63504 l -1.26865,7.43882 c -0.22749,0.77021 0.41332,1.53282 1.20664,1.65778 0.79332,0.12496 1.5323,-0.41332 1.65726,-1.20664 l 1.1436,-7.49877 2.67943,-5.96759 1.50223,4.75371 c 0.10754,0.58388 0.36675,1.02587 0.6904,1.50378 l 4.48034,6.61613 c 0.36813,0.71376 1.35788,0.82148 2.01745,0.3633 0.65957,-0.45819 0.82148,-1.35788 0.36329,-2.01745 l -4.45296,-6.41046 c -1.59678,-5.63003 -2.76904,-10.76612 -4.07624,-16.21349 -0.3224,-0.81445 -0.82582,-1.44929 -1.56579,-1.44901 z m -18.69189,10.62829 c -0.39641,0 -0.7152,0.31982 -0.7152,0.71624 v 0.91674 h -2.91145 v 8.71368 h 8.92711 v -8.71368 h -2.91094 v -0.91674 c 0,-0.39642 -0.3193,-0.71624 -0.71572,-0.71624 z m 0.3142,0.55862 h 1.04593 c 0.24775,0 0.447,0.19975 0.447,0.44752 v 0.62684 h -1.93993 v -0.62684 c 0,-0.24777 0.19923,-0.44752 0.447,-0.44752 z m -4.98316,1.07436 c -0.53212,0 -0.96067,0.42853 -0.96067,0.96066 v 6.79235 c 0,0.53214 0.42855,0.96067 0.96067,0.96067 h 0.16898 v -8.71368 z m 10.84275,0 v 8.71368 h 0.16846 c 0.53212,0 0.96067,-0.42853 0.96067,-0.96067 v -6.79235 c 0,-0.53213 -0.42855,-0.96066 -0.96067,-0.96066 z m -10.41849,11.05048 a 1.1250575,1.1250575 0 0 0 -1.12499,1.12552 1.1250575,1.1250575 0 0 0 1.12499,1.12499 1.1250575,1.1250575 0 0 0 1.125,-1.12499 1.1250575,1.1250575 0 0 0 -1.125,-1.12552 z m 10.32547,0 a 1.1250575,1.1250575 0 0 0 -1.125,1.12552 1.1250575,1.1250575 0 0 0 1.125,1.12499 1.1250575,1.1250575 0 0 0 1.125,-1.12499 1.1250575,1.1250575 0 0 0 -1.125,-1.12552 z"/>
  </g>
</svg>