<?xml version="1.0" encoding="UTF-8" standalone="yes"?>
<svg width="52.917mm" height="52.917mm" viewBox="0 0 52.917 52.917" version="1.1" id="svg1260" xmlns="http://www.w3.org/2000/svg" xmlns:svg="http://www.w3.org/2000/svg">
  <defs id="defs1257"/>
  <g id="layer1" transform="translate(-162.13478,-117.73965)">
    <rect style="fill:#ffffff;fill-opacity:1;stroke:none;stroke-width:2.01819" id="rect70551" width="52.917" height="52.917" x="162.13478" y="117.73965"/>
    <path id="path1206" style="color:#000000;fill:#000000;stroke-width:1.2;stroke-linecap:round;-inkscape-stroke:none" d="m 168.6883,125.7171 v 26.15138 h 3.95014 v -9.50278 h 5.55367 c 4.57789,0 8.32611,-3.74665 8.32611,-8.32456 0,-4.57789 -3.74822,-8.32404 -8.32611,-8.32404 h -5.55367 -0.81855 z m 3.95014,3.9455 h 5.55367 c 2.46032,0 4.37906,1.91822 4.37906,4.37854 0,2.46033 -1.91874,4.37906 -4.37906,4.37906 h -5.55367 z m 14.92209,17.0341 c -0.33175,3e-4 -0.60029,0.26976 -0.59945,0.60151 3e-4,0.33094 0.26851,0.59915 0.59945,0.59945 h 1.3255 l -1.79214,4.1522 c -0.505,-0.15562 -1.04073,-0.23978 -1.59577,-0.23978 -2.99437,0 -5.43584,2.4389 -5.43584,5.43326 0,2.99438 2.44147,5.43585 5.43584,5.43585 2.99438,0 5.43533,-2.44147 5.43533,-5.43585 0,-2.01414 -1.10442,-3.77656 -2.73885,-4.71495 l 0.47749,-1.1064 6.45697,6.49935 h 2.54196 c 0.33501,2.67635 2.62651,4.75785 5.39141,4.75785 2.99437,0 5.43584,-2.44147 5.43584,-5.43585 0,-2.99436 -2.44147,-5.43326 -5.43584,-5.43326 -0.59716,0 -1.17192,0.0974 -1.70998,0.27647 l -1.47949,-3.1595 h -0.14573 l 0.47387,-1.02939 h 1.16996 c 0.33094,-3.1e-4 0.59914,-0.26851 0.59944,-0.59945 8.4e-4,-0.33174 -0.2677,-0.6012 -0.59944,-0.60151 H 197.701 c -0.33175,3e-4 -0.60029,0.26976 -0.59945,0.60151 3e-4,0.33094 0.26851,0.59915 0.59945,0.59945 h 1.17925 l -0.47387,1.02939 h -8.65684 l 0.44442,-1.02939 h 1.03663 c 0.33094,-3e-4 0.59915,-0.26851 0.59945,-0.59945 8.4e-4,-0.33175 -0.2677,-0.60121 -0.59945,-0.60151 z m 1.67122,3.42976 h 8.62221 l -2.78071,6.03788 -5.86631,-5.90713 c -0.008,-0.007 -0.0157,-0.0129 -0.0238,-0.0191 z m 9.91154,0.0687 1.12034,2.39366 c -1.43636,0.86747 -2.44172,2.38046 -2.60966,4.13308 h -1.51515 z m -13.64517,2.81379 c 0.3871,0 0.76148,0.0519 1.11725,0.14831 l -1.62316,3.75997 c -0.13168,0.30424 0.008,0.6576 0.31264,0.7891 0.30409,0.13174 0.6574,-0.008 0.7891,-0.31212 l 1.62368,-3.76101 c 1.21059,0.74363 2.01486,2.07938 2.01486,3.61011 0,2.34586 -1.88852,4.23489 -4.23437,4.23489 -2.34585,0 -4.23436,-1.88903 -4.23436,-4.23489 0,-2.34584 1.88851,-4.23436 4.23436,-4.23436 z m 17.56431,0 c 2.34584,0 4.23436,1.88852 4.23436,4.23436 0,2.34586 -1.88852,4.23489 -4.23436,4.23489 -2.1151,0 -3.85812,-1.5354 -4.18063,-3.55689 h 3.8815 c 0.76665,0.0304 1.16291,-0.39107 0.81551,-1.07909 L 201.86405,153.18 c 0.37973,-0.11111 0.78178,-0.17105 1.19838,-0.17105 z m -2.28979,0.66817 1.42472,3.04478 h -3.33726 c 0.15603,-1.28088 0.87893,-2.38166 1.91254,-3.04478 z"/>
  </g>
</svg>