<?xml version="1.0" encoding="UTF-8" standalone="yes"?>
<svg width="52.917mm" height="52.917mm" viewBox="0 0 52.917 52.917" version="1.1" id="svg7341" xmlns="http://www.w3.org/2000/svg" xmlns:svg="http://www.w3.org/2000/svg">
  <defs id="defs7338"/>
  <g id="layer1" transform="translate(-41.670532,-101.99311)">
    <rect style="fill:#ffffff;fill-opacity:1;stroke:none;stroke-width:2.01819" id="rect70551" width="52.917" height="52.917" x="41.670532" y="101.99311"/>
    <path id="path6265" style="color:#000000;fill:#000000;-inkscape-stroke:none" d="m 77.87883,107.93957 c -0.20244,-7e-5 -0.40314,0.0994 -0.60979,0.32556 v 0.0176 c -0.52673,0.60755 -0.88149,1.88515 -0.89917,2.7528 l -0.24081,7.21403 -8.7359,6.43269 0.0289,0.83044 c 0.0217,0.62308 0.15324,0.81336 0.87385,0.68574 l 8.02483,-2.38745 0.19069,4.55683 -3.6313,2.61328 v 1.61954 l 4.99917,-1.40767 4.99815,1.40767 v -1.61954 l -3.63182,-2.61328 0.19172,-4.55683 8.02431,2.38745 c 0.72061,0.12762 0.85214,-0.0626 0.87385,-0.68574 l 0.0289,-0.83044 -8.7359,-6.43269 -0.24081,-7.21403 c -0.0177,-0.86771 -0.37236,-2.1453 -0.89917,-2.7528 l -5.2e-4,-0.0176 c -0.20649,-0.22601 -0.40682,-0.32549 -0.60926,-0.32556 z m -20.514,18.21387 c -1.24219,0 -2.25206,1.00985 -2.25206,2.25206 v 0.74569 h -4.45709 -0.002 c -0.54123,-4.8e-4 -0.99633,0.39236 -1.11156,0.90072 l -1.64847,6.15208 v 5.38675 l 1.63297,6.09369 0.002,0.006 c 0.10356,0.32746 0.214,0.61277 0.40049,0.84543 0.1865,0.23265 0.46784,0.39455 0.79685,0.42581 l 0.0134,0.002 h 5.01365 4.22093 5.01571 l 0.0134,-0.002 c 0.32902,-0.0313 0.60843,-0.19314 0.79478,-0.42581 0.18635,-0.23268 0.29902,-0.51804 0.40256,-0.84543 l 0.003,-0.006 1.63246,-6.09369 v -5.38675 l -1.65003,-6.15621 c -0.11715,-0.50706 -0.57077,-0.89838 -1.11156,-0.89659 h -4.45864 v -0.74569 c 0,-1.24221 -1.00934,-2.25206 -2.25154,-2.25206 z m 0,0.59945 h 0.99839 c 0.92018,0 1.6521,0.73242 1.6521,1.65261 v 0.74569 H 55.7148 v -0.74569 c 0,-0.92019 0.72985,-1.65261 1.65003,-1.65261 z m -6.71122,2.99827 h 5.2e-4 4.72219 4.97438 4.72271 0.003 c 0.21499,-7.1e-4 0.47792,0.22345 0.52555,0.43356 l 0.002,0.006 1.6309,6.09369 v 5.22862 l -1.60507,5.99808 c -0.0946,0.29867 -0.19538,0.52097 -0.2992,0.65061 -0.10408,0.12995 -0.19253,0.18505 -0.38241,0.20309 h -4.97334 -4.22093 -4.97075 c -0.18988,-0.018 -0.28029,-0.0731 -0.38448,-0.20309 -0.10394,-0.12966 -0.20257,-0.35201 -0.29714,-0.65061 -2.4e-4,-7.4e-4 2.3e-4,-0.001 0,-0.002 l -1.60713,-5.99602 v -5.22862 l 1.63246,-6.09369 0.003,-0.006 c 0.0476,-0.21001 0.30947,-0.43343 0.52451,-0.43356 z m 4.7501,1.52652 c 0.0388,0.88824 -0.21642,1.87439 0.58653,2.50941 v 1.35909 l 1.5782,2.73368 h 0.18345 0.22428 0.18345 l 1.57819,-2.73368 v -1.35909 c 0.80295,-0.63502 0.54778,-1.62117 0.58653,-2.50941 -0.75532,0.17461 -0.95712,0.81361 -1.41231,1.30173 -0.25052,-0.0671 -0.49778,-0.0971 -0.74725,-0.10852 l -5.1e-4,-0.001 c -0.0163,-4.2e-4 -0.0323,-7e-4 -0.0486,-0.001 -0.0835,-0.003 -0.16752,-0.004 -0.25166,-0.004 -0.084,-1.9e-4 -0.16786,8.6e-4 -0.25115,0.004 -0.0165,4e-4 -0.033,6.6e-4 -0.0496,0.001 l -5.2e-4,0.001 c -0.24929,0.0115 -0.49637,0.0415 -0.74672,0.10852 -0.4552,-0.48812 -0.65699,-1.12712 -1.41232,-1.30173 z m 0.35089,4.97644 c -0.55174,0.18528 -1.1211,1.28755 -1.3653,2.07429 0.0352,1.53324 -0.0456,3.72282 0.47543,4.19561 l 0.31316,3.08922 -0.0444,0.26613 c -0.55693,0.24366 -0.65046,0.65108 -0.1328,1.06454 0.5414,0.23286 0.85674,-0.31101 1.08675,-0.97617 v -4.25814 c 0.34263,-0.47447 1.00583,-0.75151 1.77664,-0.80822 0.77071,0.0567 1.43404,0.3338 1.77663,0.80822 v 4.25814 c 0.23001,0.66516 0.54536,1.20903 1.08676,0.97617 0.51765,-0.41346 0.42361,-0.82088 -0.13333,-1.06454 l -0.0444,-0.26613 0.31316,-3.08922 c 0.52107,-0.47279 0.44078,-2.66237 0.47594,-4.19561 -0.24419,-0.78674 -0.81355,-1.88901 -1.36529,-2.07429 l -1.10898,2.19573 c -0.56474,0.36904 -1.43661,0.37572 -2.00091,0 z"/>
  </g>
</svg>