<?xml version="1.0" encoding="UTF-8" standalone="yes"?>
<svg width="52.917mm" height="52.917mm" viewBox="0 0 52.917 52.917" version="1.1" id="svg23392" xmlns="http://www.w3.org/2000/svg" xmlns:svg="http://www.w3.org/2000/svg">
  <defs id="defs23389"/>
  <g id="layer1" transform="translate(-66.805695,-128.7524)">
    <rect style="display:inline;fill:#ffffff;fill-opacity:1;stroke:none;stroke-width:2.01819" id="rect70551" width="52.917" height="52.917" x="66.805695" y="128.7524"/>
    <path id="path23355" style="display:inline;fill:#000000;stroke-width:1.7;stroke-linecap:round" d="m 83.020809,136.99967 c 0,0 -0.70169,6.28527 -0.41083,9.17773 0.13781,1.3705 0.41288,2.07613 1.04025,3.22306 0.76306,1.47525 1.90246,2.04916 2.5001,3.36259 0.14596,0.33216 0.20102,0.63766 0.19999,0.83767 -0.0299,5.77472 -0.1675,16.7321 -0.19533,18.91668 -0.003,0.24937 -0.005,0.38395 -0.005,0.38395 0.28455,0.31018 0.65236,0.44786 1.04439,0.49765 v 0.003 c 0.0174,0.001 0.0352,0.002 0.0527,0.004 0.12354,0.0132 0.24924,0.0169 0.37517,0.016 0.1256,8.7e-4 0.25089,-0.003 0.37413,-0.016 0.0178,-0.001 0.036,-0.002 0.0537,-0.004 v -0.003 c 0.39197,-0.0498 0.75987,-0.18752 1.04438,-0.49765 0,0 -0.001,-0.13458 -0.005,-0.38395 -0.0278,-2.18458 -0.16542,-13.14196 -0.19534,-18.91668 -0.001,-0.20001 0.054,-0.50551 0.19999,-0.83767 0.59765,-1.31343 1.73705,-1.88734 2.50011,-3.36259 0.62737,-1.14693 0.90243,-1.85256 1.04024,-3.22306 0.29086,-2.89246 -0.41082,-9.17773 -0.41082,-9.17773 h -1.28726 v 8.18038 c 0,0.34279 -0.27578,0.61856 -0.61857,0.61856 -0.34279,0 -0.61857,-0.27577 -0.61857,-0.61856 v -8.18038 h -0.84956 -0.60926 v 8.18038 c 0,0.34279 -0.27579,0.61856 -0.61857,0.61856 -0.34279,0 -0.61857,-0.27577 -0.61857,-0.61856 v -8.18038 h -0.60926 -0.84956 v 8.18038 c 0,0.34279 -0.27579,0.61856 -0.61857,0.61856 -0.34279,0 -0.61857,-0.27577 -0.61857,-0.61856 v -8.18038 z m 19.907311,0 c -2.38971,0 -4.313431,1.93256 -4.313431,4.33203 v 12.31863 c 0,1.76596 1.0427,3.27753 2.545581,3.95325 v 14.64975 c 0,0.78671 0.3468,1.16841 0.77773,1.16841 h 1.27331 c 0.43093,0 0.77773,-0.3817 0.77773,-1.16841 v -14.37845 -14.27148 -6.49676 c -0.30708,-0.0692 -0.62599,-0.10697 -0.95446,-0.10697 z"/>
  </g>
</svg>