<?xml version="1.0" encoding="UTF-8" standalone="yes"?>
<svg width="52.917mm" height="52.917mm" viewBox="0 0 52.917 52.917" version="1.1" id="svg1889" xmlns="http://www.w3.org/2000/svg" xmlns:svg="http://www.w3.org/2000/svg">
  <defs id="defs1886"/>
  <g id="layer1" transform="translate(-126.8501,-87.815788)">
    <rect style="display:inline;fill:#ffffff;fill-opacity:1;stroke:none;stroke-width:2.01819" id="rect70551" width="52.917" height="52.917" x="126.8501" y="87.815788"/>
    <path id="rect907" style="stroke-width:1.7;stroke-linecap:round" d="m 148.01602,95.708497 c -1.50345,1e-4 -2.72221,1.21886 -2.72231,2.72231 -1.8e-4,1.50365 1.21866,2.722733 2.72231,2.722833 1.50385,1.8e-4 2.72301,-1.218983 2.72283,-2.722833 -1e-4,-1.50365 -1.21918,-2.72249 -2.72283,-2.72231 z m -0.4501,6.357753 c -0.60788,0 -1.17642,0.16036 -1.66811,0.43925 -1.81505,1.32369 -3.56453,3.19009 -5.26273,4.77232 l -3.12436,6.95151 c -0.31319,0.69677 -0.004,1.50943 0.69247,1.82263 0.69677,0.3132 1.52023,0.01 1.82262,-0.69195 l 2.81482,-6.25336 c 0.0313,-0.0727 0.1645,-0.19566 0.33486,-0.33848 0.63154,-0.48673 1.01389,-0.82907 1.01389,0.0755 v 3.42356 c 0,0.19667 0.0171,0.38891 0.0491,0.57619 l -0.95756,8.48217 -3.7791,8.14214 c -0.42936,0.83073 -0.10623,1.84543 0.7245,2.2748 0.83073,0.42936 1.84492,0.10622 2.27428,-0.72451 l 4.35013,-8.19019 0.9927,-3.97496 c 0.17647,-0.68682 0.28234,-0.7024 0.62477,0.0103 l 1.80971,3.57653 0.89969,8.10029 c 0.0807,2.3456 3.52841,2.52244 3.3755,0.0997 l -0.87488,-9.15035 -2.64532,-8.00571 c -0.1218,-0.39097 -0.0873,-0.85346 -0.0904,-1.21646 v -1.71721 c -0.0206,-0.97182 0.44871,-1.00847 0.95343,-0.18087 l 4.41988,5.7211 c 0.32526,0.43554 0.86092,0.61603 1.35806,0.50798 l 11.15487,16.24191 0.39998,-0.14987 -10.79366,-16.56333 c 0.37564,-0.46541 0.4046,-1.1389 0.0295,-1.64125 l -7.24762,-9.87433 c -1.18047,-1.38932 -1.36675,-2.45085 -3.65094,-2.54506 z"/>
  </g>
</svg>