<?xml version="1.0" encoding="UTF-8" standalone="yes"?>
<svg width="52.917mm" height="52.917mm" viewBox="0 0 52.917 52.917" version="1.1" id="svg5792" xmlns="http://www.w3.org/2000/svg" xmlns:svg="http://www.w3.org/2000/svg">
  <defs id="defs5789"/>
  <g id="layer1" transform="translate(-30.670532,-69.702797)">
    <rect style="fill:#ffffff;fill-opacity:1;stroke:none;stroke-width:2.01819" id="rect70551" width="52.917" height="52.917" x="30.670532" y="69.702797"/>
    <path id="path3171" style="color:#000000;fill:#000000;fill-opacity:1;stroke-linecap:round" d="m 61.974484,76.13177 -2.25206,10.18646 5.13715,-0.54674 1.89756,-8.58242 z m -13.92577,2.27738 c -0.0916,0.002 -0.1845,0.0131 -0.2775,0.0341 -0.74401,0.16822 -1.20743,0.90293 -1.03921,1.64693 l 1.68,7.43211 c 0.0131,-0.002 0.026,-0.004 0.0393,-0.005 l 2.71767,-0.28939 -1.7508,-7.74526 c -0.1472,-0.65101 -0.72813,-1.08712 -1.36943,-1.07332 z m 5.49941,1.49241 v 1.25471 h 3.76411 v -1.25471 z m 18.57406,1.63453 a 1.2752016,1.2752016 0 0 0 -1.13171,0.68988 l -3.2706,-0.0253 c -0.44617,-0.0202 -0.59384,0.19665 -0.71521,0.32608 -0.12136,0.12943 -0.21024,0.26241 -0.293,0.40617 -0.16553,0.28752 -0.30066,0.60708 -0.36897,0.95137 v 0.002 l -0.5054,2.61018 -24.16235,2.53421 a 0.69999999,0.69999999 0 0 0 -0.62321,0.76946 0.69999999,0.69999999 0 0 0 0.76946,0.62322 l 0.0744,-0.008 v 8.77311 h -0.3359 a 0.69999999,0.69999999 0 0 0 -0.69918,0.70125 0.69999999,0.69999999 0 0 0 0.69918,0.69918 h 22.00021 l 2.21434,7.37888 c 0.0272,0.32169 0.0257,0.50914 0.046,0.53898 -0.0769,0.0299 -0.22025,0.0731 -0.40514,0.12299 h -23.57221 a 0.69999999,0.69999999 0 0 0 -0.70125,0.6997 0.69999999,0.69999999 0 0 0 0.70125,0.70073 h 23.76754 l 0.0858,-0.0233 c 0.29824,-0.0767 0.53475,-0.14086 0.76377,-0.24598 0.22903,-0.10512 0.48213,-0.2858 0.62477,-0.55449 0.28529,-0.53737 0.13369,-0.92607 0.0744,-1.45934 l -0.008,-0.0625 -2.12804,-7.09569 h 0.37259 a 0.69999999,0.69999999 0 0 0 0.70125,-0.69918 0.69999999,0.69999999 0 0 0 -0.70125,-0.70125 h -0.59066 l 2.21072,-11.40758 0.52451,-0.0553 a 0.69999999,0.69999999 0 0 0 0.62322,-0.76946 0.69999999,0.69999999 0 0 0 -0.76998,-0.62322 l -0.0992,0.0103 0.42375,-2.18798 v -0.002 c 0.0245,-0.122 0.11817,-0.36405 0.20877,-0.52142 0.009,-0.0157 0.0108,-0.0149 0.0196,-0.0289 l 3.19619,0.0227 a 1.2752016,1.2752016 0 0 0 0.97978,0.46044 1.2752016,1.2752016 0 0 0 1.27537,-1.27537 1.2752016,1.2752016 0 0 0 -1.27537,-1.27486 z m -17.51573,0.27853 -2.11615,1.9451 -5.1e-4,3.32797 5.88078,-0.6258 -5.2e-4,-2.70217 -2.11615,-1.9451 z m 10.95282,6.11901 -0.64388,3.32745 h -0.89504 v -3.16622 z m -2.73988,0.28732 v 3.04013 h -1.38493 v -2.89492 z m -2.58434,0.2713 v 2.76883 h -1.38441 v -2.62362 z m -2.58589,0.27079 v 2.49804 h -1.38441 v -2.35283 z m -2.58589,0.2713 v 2.22674 h -1.38441 v -2.08153 z m -2.58382,0.2713 v 1.95544 h -1.38493 v -1.81023 z m -2.58589,0.2713 v 1.68414 h -1.38493 v -1.53893 z m -2.58382,0.27079 v 1.41335 h -1.38699 v -1.26763 z m -2.5864,0.2713 v 1.14205 h -1.42937 v -0.99219 z m -1.42937,2.34146 h 1.42937 v 2.72076 h -1.42937 z m 2.62878,0 h 1.38699 v 2.72076 h -1.38699 z m 2.58588,0 h 1.38493 v 2.72076 h -1.38493 z m 2.58589,0 h 1.38493 v 2.72076 h -1.38493 z m 2.58434,0 h 1.38441 v 2.72076 h -1.38441 z m 2.58589,0 h 1.38441 v 2.72076 h -1.38441 z m 2.58589,0 h 1.38441 v 2.72076 h -1.38441 z m 2.58382,0 h 1.38493 v 2.72076 h -1.38493 z m 2.58589,0 h 0.66249 l -0.52658,2.72076 h -0.13591 z m -20.72638,3.91965 h 1.42937 v 2.80862 h -1.42937 z m 2.62878,0 h 1.38699 v 2.80862 h -1.38699 z m 2.58588,0 h 1.38493 v 2.80862 h -1.38493 z m 2.58589,0 h 1.38493 v 2.80862 h -1.38493 z m 2.58434,0 h 1.38441 v 2.80862 h -1.38441 z m 2.58589,0 h 1.38441 v 2.80862 h -1.38441 z m 2.58589,0 h 1.38441 v 2.80862 h -1.38441 z m 2.58382,0 h 1.38493 v 2.80862 h -1.38493 z M 43.833474,111.141 a 2.5247703,2.5247703 0 0 0 -2.52491,2.52491 2.5247703,2.5247703 0 0 0 2.52491,2.52491 2.5247703,2.5247703 0 0 0 2.52491,-2.52491 2.5247703,2.5247703 0 0 0 -2.52491,-2.52491 z m 19.68097,0 a 2.5247703,2.5247703 0 0 0 -2.52491,2.52491 2.5247703,2.5247703 0 0 0 2.52491,2.52491 2.5247703,2.5247703 0 0 0 2.52439,-2.52491 2.5247703,2.5247703 0 0 0 -2.52439,-2.52491 z"/>
  </g>
</svg>