<?xml version="1.0" encoding="UTF-8" standalone="yes"?>
<svg width="52.917mm" height="52.917mm" viewBox="0 0 52.917 52.917" version="1.1" id="svg2600" xmlns="http://www.w3.org/2000/svg" xmlns:svg="http://www.w3.org/2000/svg">
  <defs id="defs2597"/>
  <g id="layer1" transform="translate(-157.96436,-112.14149)">
    <rect style="display:inline;fill:#ffffff;fill-opacity:1;stroke:none;stroke-width:2.01819" id="rect70551" width="52.917" height="52.917" x="157.96436" y="112.14149"/>
    <path id="rect3393" style="display:inline;fill:#000000;stroke-width:3.48351;stroke-linecap:round" d="m 185.18949,119.25853 a 2.8208544,2.8208544 0 0 0 -2.82102,2.82101 2.8208544,2.8208544 0 0 0 2.82102,2.8205 2.8208544,2.8208544 0 0 0 2.8205,-2.8205 2.8208544,2.8208544 0 0 0 -2.8205,-2.82101 z m -3.36827,6.65644 c -1.30196,0 -2.21246,0.98565 -2.34921,1.72703 0,0.0188 -1.45056,5.5733 -1.45056,5.5733 -0.17165,0.7011 -0.13619,1.26298 0.25321,1.74563 l 6.39496,3.64784 -0.45682,0.80047 -2.84272,-1.62161 c -0.0126,6.62051 -0.12881,13.34312 -0.0847,18.60352 0,0.85871 0.72888,1.55029 1.6335,1.55029 0.90463,0 1.63245,-0.69158 1.63245,-1.55029 V 142.6354 c 0.008,-0.53256 1.31499,-0.47842 1.31672,0 v 13.75575 c 0,0.8587 0.72886,1.55029 1.63349,1.55029 0.90464,0 1.63246,-0.69159 1.63246,-1.55029 0.2759,-6.47006 -0.026,-13.01491 -0.062,-19.37557 l 0.99425,-0.56327 c 0.50855,-0.19609 0.73351,-0.41882 0.75551,-0.93689 l 0.10026,-7.30033 c 0.0212,-0.92973 -1.15178,-2.27426 -2.55024,-2.30012 z m 0.78755,1.25005 c 1.02874,-1.9e-4 1.86283,0.83367 1.86293,1.86242 1.9e-4,1.02895 -0.83398,1.86313 -1.86293,1.86294 -1.02875,-1e-4 -1.86261,-0.83419 -1.86242,-1.86294 9e-5,-1.02855 0.83387,-1.86232 1.86242,-1.86242 z m 3.33674,2.94763 c 0.89244,0.005 1.10649,1.21209 0.52607,1.57768 l -1.74976,0.94981 0.44958,1.62522 0.8754,-0.42529 c 0.27034,-0.1352 0.39929,-0.21167 0.6997,-0.0997 l 1.50016,0.65009 c 0.9476,0.3408 0.49956,1.8161 -0.62476,1.54978 l -0.92501,-0.39998 c -0.17891,-0.0894 -0.17214,-0.11103 -0.32505,0 -0.53287,0.45567 -0.76949,0.5584 -1.37976,0.1664 l -2.80396,-1.65055 c -0.76001,-0.40171 -0.73588,-1.93753 0.49971,-2.49287 l 2.83394,-1.37304 c 0.15482,-0.0544 0.29625,-0.0782 0.42374,-0.0775 z"/>
  </g>
</svg>