<?xml version="1.0" encoding="UTF-8" standalone="yes"?>
<svg width="52.917mm" height="52.917mm" viewBox="0 0 52.917 52.917" version="1.1" id="svg3104" xmlns="http://www.w3.org/2000/svg" xmlns:svg="http://www.w3.org/2000/svg">
  <defs id="defs3101"/>
  <g id="layer1" transform="translate(-201.71184,-45.468498)">
    <rect style="fill:#ffffff;fill-opacity:1;stroke:none;stroke-width:2.01819" id="rect70551" width="52.917" height="52.917" x="201.71184" y="45.468498"/>
    <path id="path968" style="fill:#000000;stroke-width:3.94633" d="m 233.33282,58.093216 1.11053,2.41846 h 6.63112 l 0.22841,-1.17099 z m -12.48245,1.15497 c -0.0366,4.6e-4 -0.0743,0.003 -0.11214,0.007 -0.59091,0.0155 -1.32989,0.1891 -1.58853,0.82269 -0.30174,0.67711 -0.65168,1.2066 -1.39165,1.54357 l -6.49469,3.54346 -0.076,0.24339 0.13694,0.12196 0.62374,-0.2434 0.85162,-0.0155 c 1.09172,0.15977 2.16565,0.35828 3.22409,0.68471 0.0309,-0.002 0.0613,-0.004 0.092,-0.006 l 0.0377,0.15761 0.0909,0.73794 -0.015,1.05678 0.17466,0.11421 0.69195,-0.11421 -0.49403,-0.0837 -0.0305,-1.58957 c 0,0 0.21248,-0.17637 0.37982,-0.32349 0.15804,-0.009 0.3149,-0.0187 0.46974,-0.031 l 0.83096,2.03553 1.01131,0.008 -0.03,-0.1292 -0.55553,-0.13694 c 0,0 -0.61583,-1.41437 -0.60823,-1.46761 0.004,-0.0274 0.1185,-0.23153 0.22893,-0.42375 0.5356,-0.10651 1.05341,-0.29311 1.55804,-0.6413 0.96904,-0.93999 1.38486,-1.74216 1.26246,-3.22409 0.23734,-0.51919 0.41922,-0.95617 0.9431,-1.24747 l 1.03404,-0.25838 -0.88212,-0.061 0.76068,-0.2434 -0.85163,-0.0909 c -0.31005,-0.35357 -0.72321,-0.75257 -1.27279,-0.74569 z m 13.78521,2.18643 -1.27175,1.38079 h 0.99528 c -0.0155,0.12764 -0.0235,0.2559 -0.0243,0.38448 -1.7e-4,1.85726 1.50533,3.36306 3.36258,3.3631 1.71496,-7.2e-4 3.36434,-1.49798 3.36207,-3.36259 v -1.76526 z m -9.54309,5.8229 -2.08618,1.97921 -1.37666,1.54822 2.27996,2.36627 c 0.45705,-0.5475 0.75045,-1.12773 0.98961,-1.78542 h 1.80661 c 0.35551,-0.004 0.36309,-0.26583 0.55914,-0.49455 0.16481,-0.046 0.17173,-0.11307 0.1819,-0.24649 0.0167,-0.14893 -0.013,-0.13627 -0.13901,-0.20516 l -1.13999,-0.58084 -0.0139,-0.39274 c 0.0313,-0.23638 -0.16478,-0.35988 -0.28681,-0.51057 -0.2676,-0.14147 -0.53837,-0.2588 -0.75293,-0.47335 z m 7.84811,0.19585 c -0.97574,0.0206 -1.51382,0.75042 -2.10065,1.80041 l -5.21881,12.25765 h 3.57136 l 3.47783,-7.45432 v 7.53545 h 11.67422 v -12.27832 c 0.008,-0.87951 -1.06141,-1.84445 -1.98076,-1.83089 h -2.61069 l -1.42937,3.7393 h -0.39067 l -1.66088,-3.76928 z m -21.43385,1.25523 c -0.20199,1.25009 -0.11547,2.46377 0,3.71088 l 0.60824,0.97358 v 3.89382 l -0.66921,0.91209 v 2.34249 c -0.001,0.72251 1.156,0.74737 1.156,0 v -2.03811 l 1.76423,-1.6428 1.21698,-2.12907 5.2927,1.6428 v 3.86281 c 0.0146,1.04556 1.33842,1.05291 1.33842,0.008 v -4.11448 l 1.33842,-2.19005 -2.49442,-2.67684 h -7.84758 z m -0.0377,14.25287 c -0.77539,0 -1.39939,0.624 -1.39939,1.3994 0,0.77539 0.624,1.39991 1.39939,1.39991 h 33.40262 c 0.7754,0 1.3994,-0.62452 1.3994,-1.39991 0,-0.7754 -0.624,-1.3994 -1.3994,-1.3994 z"/>
  </g>
</svg>