<?xml version="1.0" encoding="UTF-8" standalone="yes"?>
<svg width="52.917mm" height="52.917mm" viewBox="0 0 52.917 52.917" version="1.1" id="svg1816" xmlns="http://www.w3.org/2000/svg" xmlns:svg="http://www.w3.org/2000/svg">
  <defs id="defs1813"/>
  <g id="layer1" transform="translate(-113.34795,-59.412468)">
    <rect style="fill:#ffffff;fill-opacity:1;stroke:none;stroke-width:2.01819" id="rect70551" width="52.917" height="52.917" x="113.34795" y="59.412468"/>
    <path id="rect57796-1-7" style="fill:#000000;fill-opacity:1;stroke:none;stroke-width:1.19093;stroke-dasharray:none;stroke-opacity:1;paint-order:fill markers stroke" d="m 121.06289,67.586041 v 5.06533 h 0.87746 v 13.93816 h 15.79439 c 0.1511,0.78318 0.94493,1.36752 1.59318,1.37563 h 3.96979 v -1.37563 h 1.28777 v 3.13521 c -2.17218,3.10755 -3.06583,7.82157 -1.788,10.479469 v 3.95169 h 9.72292 v -4.610569 l 4.04575,-10.72596 c 0.23622,-0.72519 0.2724,-1.50982 0.11368,-2.25309 l -1.17305,-5.49372 v -8.39019 H 158.55 v -5.09633 h -0.41496 -3.25458 -28.90159 -0.0909 -1.78284 -1.81901 z m 5.00279,1.13792 h 28.77499 v 13.7759 c -0.0593,0.0181 -0.12375,0.0362 -0.19224,0.0543 h -5.10769 v -1.60714 c 0,-1.37265 -1.10472,-2.47788 -2.47737,-2.47788 -1.37266,0 -2.47789,1.10523 -2.47789,2.47788 v 1.60714 h -18.5198 z m 2.8727,1.03352 c -1.20244,1.6e-4 -2.18557,0.98297 -2.1854,2.1854 1.6e-4,1.2022 0.9832,2.1837 2.1854,2.18385 1.20242,1.8e-4 2.18368,-0.98142 2.18384,-2.18385 1.7e-4,-1.20267 -0.98119,-2.18557 -2.18384,-2.1854 z m 11.5042,0.56845 c -2.96742,1.2e-4 -5.38095,2.41311 -5.38106,5.38055 -1.9e-4,2.96764 2.41343,5.38095 5.38106,5.38106 2.96766,-1.1e-4 5.38074,-2.41341 5.38055,-5.38106 -1.1e-4,-2.96744 -2.4131,-5.38044 -5.38055,-5.38055 z m -11.5042,0.0977 c 0.84319,-1.2e-4 1.51992,0.67608 1.5198,1.51929 -1.1e-4,0.84304 -0.67677,1.51786 -1.5198,1.51774 -0.84287,-1.1e-4 -1.51918,-0.67487 -1.51929,-1.51774 -1.2e-4,-0.84304 0.67625,-1.51918 1.51929,-1.51929 z m -4.8333,0.0636 h 1.29656 v 12.731 h 19.18384 v 0.93173 h -20.4711 v -13.19506 h -0.009 z m 16.3375,0.50487 c 2.60807,9e-5 4.71434,2.10638 4.71444,4.71445 1.7e-4,2.60825 -2.10618,4.71485 -4.71444,4.71495 -2.60824,-1.1e-4 -4.71513,-2.10671 -4.71496,-4.71495 1e-4,-2.60806 2.10691,-4.71435 4.71496,-4.71445 z m -17.83612,1.23559 h 0.84388 v 12.58838 h 21.13514 v 1.10949 h -21.97902 z m 15.70344,2.09548 c -0.0588,0.1651 -0.16708,0.31014 -0.32505,0.4346 -0.15797,0.12324 -0.30454,0.20681 -0.43925,0.25114 v 0.47129 c 0.25594,-0.085 0.47855,-0.21582 0.66714,-0.39325 v 1.95698 h 0.51625 v -2.72076 z m 2.06292,0 c -0.26083,0 -0.46406,0.0927 -0.60978,0.2775 -0.17635,0.22425 -0.26459,0.59162 -0.26459,1.10174 0,0.51997 0.0804,0.88138 0.24082,1.08469 0.16042,0.20207 0.37149,0.30334 0.63355,0.30334 0.26085,0 0.46405,-0.0927 0.60978,-0.2775 0.17635,-0.22425 0.26458,-0.59277 0.26458,-1.10536 0,-0.51382 -0.0874,-0.88151 -0.26251,-1.10329 -0.14695,-0.18729 -0.351,-0.28112 -0.61185,-0.28112 z m 2.09238,0 c -0.26085,0 -0.46406,0.0927 -0.60978,0.2775 -0.17635,0.22425 -0.26459,0.59162 -0.26459,1.10174 0,0.51997 0.0799,0.88138 0.2403,1.08469 0.16042,0.20207 0.372,0.30334 0.63407,0.30334 0.26084,0 0.46406,-0.0927 0.60978,-0.2775 0.17635,-0.22425 0.26458,-0.59277 0.26458,-1.10536 0,-0.51382 -0.0879,-0.88151 -0.26303,-1.10329 -0.14695,-0.18729 -0.35049,-0.28112 -0.61133,-0.28112 z m -2.10427,0.43098 c 0.004,-1.6e-4 0.008,0 0.0119,0 0.0624,0 0.11756,0.0204 0.16536,0.061 0.049,0.0394 0.0896,0.11871 0.12144,0.23823 0.0319,0.11829 0.0476,0.33632 0.0476,0.65422 0,0.31789 -0.0177,0.54336 -0.0532,0.67644 -0.0269,0.10357 -0.0647,0.17593 -0.11369,0.21653 -0.049,0.0394 -0.10496,0.0589 -0.16743,0.0589 -0.0624,0 -0.11792,-0.0195 -0.16692,-0.0589 -0.0477,-0.0394 -0.0875,-0.1184 -0.11937,-0.23668 -0.0319,-0.11953 -0.0481,-0.3384 -0.0481,-0.65629 0,-0.3179 0.0178,-0.54369 0.0532,-0.678 0.0269,-0.10354 0.0647,-0.17505 0.11369,-0.21445 0.0459,-0.0381 0.0978,-0.0586 0.15554,-0.061 z m 2.09238,0 c 0.004,-1.5e-4 0.008,1e-5 0.0119,0 0.0622,1.1e-4 0.11718,0.0205 0.16485,0.061 0.049,0.0394 0.0896,0.11871 0.12144,0.23823 0.0319,0.11829 0.0475,0.33632 0.0475,0.65422 0,0.31789 -0.0173,0.54336 -0.0527,0.67644 -0.0269,0.10357 -0.0652,0.17593 -0.11421,0.21653 -0.049,0.0394 -0.10445,0.0589 -0.16691,0.0589 -0.0624,0 -0.11843,-0.0195 -0.16743,-0.0589 -0.0477,-0.0394 -0.0875,-0.1184 -0.11938,-0.23668 -0.0319,-0.11953 -0.0475,-0.3384 -0.0475,-0.65629 0,-0.3179 0.0177,-0.54369 0.0532,-0.678 0.0269,-0.10354 0.0647,-0.17505 0.11369,-0.21445 0.046,-0.0381 0.0978,-0.0586 0.15554,-0.061 z m 9.49503,2.53266 c -1.20243,-1.8e-4 -2.18524,0.98142 -2.1854,2.18385 -1.8e-4,1.20268 0.98273,2.18557 2.1854,2.18539 1.20244,-1.6e-4 2.18351,-0.98295 2.18333,-2.18539 -1.7e-4,-1.20219 -0.98113,-2.18368 -2.18333,-2.18385 z m -0.002,0.66611 c 0.84287,1.1e-4 1.51918,0.67488 1.51929,1.51774 1.3e-4,0.84304 -0.67625,1.51917 -1.51929,1.51928 -0.84321,1.3e-4 -1.51941,-0.67606 -1.51928,-1.51928 1.2e-4,-0.84303 0.67624,-1.51787 1.51928,-1.51774 z m -2.40553,5.26531 h 3.66902 v 0.93173 h -3.66902 z m 0,1.59784 h 2.00762 v 1.10949 h -2.00762 z m 0,1.77353 h 2.00762 v 1.44539 c 0.005,0.7217 -1.27354,1.01923 -2.00762,0.47336 z m -9.36429,2.52905 c -2.14779,0.001 -1.83248,3.53152 0.0108,3.53415 h 1.60249 c 0.34375,-1.1836 0.87987,-2.48652 1.62315,-3.53415 z"/>
  </g>
</svg>