<?xml version="1.0" encoding="UTF-8" standalone="yes"?>
<svg width="52.917mm" height="52.917mm" viewBox="0 0 52.917 52.917" version="1.1" id="svg10241" xmlns="http://www.w3.org/2000/svg" xmlns:svg="http://www.w3.org/2000/svg">
  <defs id="defs10238"/>
  <g id="layer1" transform="translate(-56.825394,-108.44764)">
    <rect style="fill:#ffffff;fill-opacity:1;stroke:none;stroke-width:2.01819" id="rect70551" width="52.917" height="52.917" x="56.825394" y="108.44764"/>
    <path id="rect10126" style="color:#000000;fill:#000000;-inkscape-stroke:none" d="m 81.491496,122.41078 a 2.0076344,2.0076344 0 0 0 -2.007629,2.00762 2.0076344,2.0076344 0 0 0 2.007629,2.00763 2.0076344,2.0076344 0 0 0 2.007629,-2.00763 2.0076344,2.0076344 0 0 0 -2.007629,-2.00762 z m 7.711157,5.1e-4 a 2.0076344,2.0076344 0 0 0 -2.007629,2.00763 2.0076344,2.0076344 0 0 0 2.007629,2.00763 2.0076344,2.0076344 0 0 0 2.008146,-2.00763 2.0076344,2.0076344 0 0 0 -2.008146,-2.00763 z m -7.71064,4.56251 c -1.061671,0 -1.916679,0.85449 -1.916679,1.91617 v 3.86333 h 3.832841 v -3.86333 c 0,-1.06168 -0.854492,-1.91617 -1.916162,-1.91617 z m 7.711157,0 c -1.061671,0 -1.916679,0.85449 -1.916679,1.91617 v 3.86333 h 3.832841 v -3.86333 c 0,-1.06168 -0.854492,-1.91617 -1.916162,-1.91617 z m -18.151347,7.60161 c -3.533653,0 -6.414079,2.87835 -6.414079,6.41201 0,3.53366 2.880426,6.41408 6.414079,6.41408 h 30.878217 v -2.20142 H 71.051823 c -2.352911,0 -4.212663,-1.85974 -4.212663,-4.21266 0,-2.35291 1.859752,-4.21318 4.212663,-4.21318 h 30.878217 v -2.19883 z"/>
  </g>
</svg>