<?xml version="1.0" encoding="UTF-8" standalone="yes"?>
<svg width="52.917mm" height="52.917mm" viewBox="0 0 52.917 52.917" version="1.1" id="svg10459" xmlns="http://www.w3.org/2000/svg" xmlns:svg="http://www.w3.org/2000/svg">
  <defs id="defs10456"/>
  <g id="layer1" transform="translate(-134.20436,-52.175789)">
    <rect style="display:inline;fill:#ffffff;fill-opacity:1;stroke:none;stroke-width:2.01819" id="rect70551" width="52.917" height="52.917" x="134.20436" y="52.175789"/>
    <path id="path10051" style="display:inline;fill:#000000;stroke-width:1.7;stroke-linecap:round" d="m 147.92734,60.297155 c 0,0 -0.70169,6.28528 -0.41083,9.177744 0.13781,1.3705 0.41287,2.07612 1.04024,3.22306 0.76306,1.47525 1.90247,2.04915 2.50011,3.36258 0.14596,0.33216 0.20102,0.63767 0.19999,0.83768 -0.0299,5.77472 -0.16751,16.73209 -0.19534,18.91667 -0.003,0.24937 -0.005,0.38396 -0.005,0.38396 0.28455,0.31018 0.65235,0.44785 1.04438,0.49764 v 0.003 c 0.0174,0.001 0.0352,0.002 0.0527,0.004 0.12355,0.0132 0.24924,0.0169 0.37517,0.016 0.1256,8.7e-4 0.2509,-0.003 0.37414,-0.016 0.0178,-0.001 0.036,-0.002 0.0537,-0.004 v -0.003 c 0.39197,-0.0498 0.75987,-0.18751 1.04438,-0.49764 0,0 -0.001,-0.13459 -0.005,-0.38396 -0.0278,-2.18458 -0.16542,-13.14195 -0.19534,-18.91667 -10e-4,-0.20001 0.054,-0.50552 0.19999,-0.83768 0.59765,-1.31343 1.73705,-1.88733 2.50011,-3.36258 0.62737,-1.14694 0.90243,-1.85256 1.04024,-3.22306 0.29086,-2.892464 -0.41082,-9.177744 -0.41082,-9.177744 h -1.28726 v 8.180384 c 0,0.34279 -0.27578,0.61857 -0.61857,0.61857 -0.34279,0 -0.61857,-0.27578 -0.61857,-0.61857 v -8.180384 h -0.84956 -0.60927 v 8.180384 c 0,0.34279 -0.27578,0.61857 -0.61856,0.61857 -0.34279,0 -0.61857,-0.27578 -0.61857,-0.61857 v -8.180384 h -0.60926 -0.84957 v 8.180384 c 0,0.34279 -0.27578,0.61857 -0.61856,0.61857 -0.34279,0 -0.61857,-0.27578 -0.61857,-0.61857 v -8.180384 z m 13.46119,0 1.74976,5.82342 c -1.32183,0.37665 -2.49535,2.874944 -2.28358,4.241604 l 0.41806,2.69854 1.14412,0.0129 h 1.37511 c 5e-5,0.37493 -0.26465,0.7211 -0.6935,0.90693 -0.42879,0.18519 -0.95579,0.18291 -1.38079,-0.008 -0.12835,-0.0575 -0.24127,-0.12963 -0.33642,-0.21239 l 0.78239,5.04776 1.3534,0.0155 h 1.37511 c 5e-5,0.37492 -0.26465,0.72108 -0.6935,0.90692 -0.42879,0.18574 -0.9558,0.18292 -1.38079,-0.008 -0.28467,-0.12759 -0.49358,-0.3262 -0.59893,-0.55604 l 2.33991,15.10089 c 0.22941,1.48057 1.16698,2.70423 2.79621,2.70423 1.62923,0 2.56628,-1.22366 2.79569,-2.70423 l 2.33991,-15.10192 c -0.10529,0.23002 -0.31408,0.4294 -0.59893,0.55707 -0.42499,0.19092 -0.952,0.19374 -1.38079,0.008 -0.42885,-0.18584 -0.69355,-0.532 -0.6935,-0.90692 h 1.37511 l 1.35341,-0.0155 0.78238,-5.04827 c -0.0952,0.0828 -0.20797,0.15534 -0.33641,0.2129 -0.42501,0.19091 -0.95201,0.19319 -1.3808,0.008 -0.42884,-0.18583 -0.69355,-0.532 -0.6935,-0.90693 h 1.37511 l 1.14412,-0.0129 0.41806,-2.69854 c 0.21177,-1.36666 -0.96175,-3.864954 -2.28358,-4.241604 l 1.74976,-5.82342 h -1.52032 l -1.17098,5.77329 h -0.9276 l 0.93173,-5.77329 h -1.41387 l -0.26148,5.77329 h -1.27382 l 0.40359,-5.77329 h -0.44184 -0.58342 -0.44184 l 0.4036,5.77329 h -1.27383 l -0.26148,-5.77329 h -1.41387 l 0.93173,5.77329 h -0.92759 l -1.17099,-5.77329 z m 4.59145,9.960634 1.37511,0.0155 h 1.37511 c 5e-5,0.37492 -0.26465,0.72108 -0.6935,0.90692 -0.42878,0.18599 -0.95579,0.18317 -1.38079,-0.008 -0.42508,-0.19052 -0.68268,-0.53994 -0.67593,-0.91468 z m 0,5.80017 1.37511,0.0155 h 1.37511 c 5e-5,0.37492 -0.26465,0.72108 -0.6935,0.90692 -0.42878,0.18599 -0.95579,0.18317 -1.38079,-0.008 -0.42528,-0.19061 -0.68293,-0.53974 -0.67593,-0.91467 z m 0,5.60069 1.37511,0.0155 h 1.37511 c 5e-5,0.37492 -0.26465,0.72108 -0.6935,0.90692 -0.42878,0.18547 -0.95579,0.18317 -1.38079,-0.008 -0.42528,-0.19061 -0.68293,-0.53974 -0.67593,-0.91467 z m -2.78794,2.90008 1.37511,0.0155 h 1.37511 c 5e-5,0.37493 -0.26465,0.7211 -0.6935,0.90693 -0.42879,0.1852 -0.9558,0.18291 -1.3808,-0.008 -0.42528,-0.19061 -0.68292,-0.53973 -0.67592,-0.91467 z m 8.32559,0 c 0.007,0.37494 -0.25065,0.72406 -0.67593,0.91467 -0.425,0.19091 -0.95201,0.1932 -1.3808,0.008 -0.42885,-0.18583 -0.69354,-0.532 -0.69349,-0.90693 h 1.37511 z m -5.53765,2.90008 1.37511,0.0155 h 1.37511 c 5e-5,0.37487 -0.26465,0.72108 -0.6935,0.90692 -0.42878,0.18547 -0.95579,0.18312 -1.38079,-0.008 -0.42508,-0.19053 -0.68268,-0.53994 -0.67593,-0.91468 z"/>
  </g>
</svg>