<?xml version="1.0" encoding="UTF-8" standalone="yes"?>
<svg width="52.917mm" height="52.917mm" viewBox="0 0 52.917 52.917" version="1.1" id="svg10013" xmlns="http://www.w3.org/2000/svg" xmlns:svg="http://www.w3.org/2000/svg">
  <defs id="defs10010"/>
  <g id="layer1" transform="translate(-45.124352,-81.259926)">
    <rect style="fill:#ffffff;fill-opacity:1;stroke:none;stroke-width:2.01819" id="rect70551" width="52.917" height="52.917" x="45.124352" y="81.259926"/>
    <path id="path968" style="display:inline;fill:#000000;stroke-width:3.94633" d="m 57.845705,88.057093 c -0.535894,8.9e-4 -1.071892,0.28246 -1.18339,0.63407 l -4.027144,8.90436 -0.325045,0.32246 0.312642,0.30851 12.671578,12.603367 7.908561,-8.17366 0.0078,-0.008 c 0.271915,-0.31367 0.411232,-0.73663 0.360185,-1.14825 -0.05105,-0.41163 -0.305981,-0.83125 -0.665076,-1.15652 L 62.336904,89.725203 c -0.384565,-0.36649 -1.049621,-0.31418 -1.668115,0.0362 -0.120735,0.069 -0.238222,0.15156 -0.353467,0.24339 l -1.688269,-1.68775 c -0.219817,-0.18359 -0.500641,-0.2604 -0.781348,-0.25993 z m 20.383252,0.2837 1.110527,2.41846 h 6.631119 l 0.22841,-1.17099 z m -16.664099,2.03192 c 0.130151,-0.003 0.23234,0.0418 0.356568,0.15451 l 10.407633,10.462407 c 0.317786,0.33525 0.431867,0.78248 0.150378,1.15962 l -6.19342,6.40323 3.426147,-7.6538 c 0.274644,-0.61374 0.15931,-1.357567 -0.280603,-1.777667 l -8.490954,-8.49044 c 0.186337,-0.12923 0.35814,-0.20647 0.482658,-0.24029 0.05137,-0.0108 0.09821,-0.0166 0.141593,-0.0176 z m 17.966862,1.30948 -1.271757,1.38079 h 0.995288 c -0.01547,0.12764 -0.02351,0.2559 -0.02429,0.38448 -1.72e-4,1.85724 1.505337,3.36306 3.362586,3.3631 1.714956,-7.2e-4 3.364338,-1.49798 3.362068,-3.36259 v -1.76526 z m -1.727026,6.23373 c -1.584839,0 -2.860808,1.27599 -2.860808,2.860797 0.0036,3.45991 0.0062,6.90566 0.0062,10.37146 h 2.798795 v -7.57783 c 0,-0.15085 0.12148,-0.27182 0.272335,-0.27182 h 0.544669 c 0.150854,0 0.272335,0.12097 0.272335,0.27182 v 7.57783 h 8.206735 v -7.57783 c 0,-0.15085 0.120964,-0.27182 0.271818,-0.27182 h 0.544669 c 0.150854,0 0.272335,0.12097 0.272335,0.27182 v 7.57783 h 2.800346 c -0.0049,-3.46157 0.0047,-6.91873 0.0047,-10.37146 0,-1.584807 -1.275967,-2.860797 -2.860808,-2.860797 -0.16761,0 -0.331366,0.015 -0.490926,0.0424 -0.06578,-0.008 -0.131136,-0.0134 -0.195853,-0.0124 h -2.984314 l -1.42937,3.739307 h -0.01705 l -1.66088,-3.769277 h -3.33158 c -5.2e-5,0.002 5.2e-5,0.003 0,0.005 -0.05401,-0.003 -0.108504,-0.005 -0.163297,-0.005 z M 53.527623,113.0566 c -0.720624,0 -1.300696,0.58006 -1.300696,1.30069 0,0.72062 0.580072,1.3007 1.300696,1.3007 h 36.110974 c 0.720628,0 1.300179,-0.58008 1.300179,-1.3007 0,-0.72063 -0.579551,-1.30069 -1.300179,-1.30069 z m 9.507946,5.74486 3.125391,3.12539 h -5.764506 v 2.32699 h 5.764506 l -3.125391,3.12591 h 2.691826 l 4.289144,-4.28914 -4.289144,-4.28915 z"/>
  </g>
</svg>