<?xml version="1.0" encoding="UTF-8" standalone="yes"?>
<svg width="52.917mm" height="52.917mm" viewBox="0 0 52.917 52.917" version="1.1" id="svg70418" xml:space="preserve" xmlns="http://www.w3.org/2000/svg" xmlns:svg="http://www.w3.org/2000/svg">
  <defs id="defs70415"/>
  <g id="layer1" transform="translate(-67.964111,-69.249527)">
    <rect style="fill:#ffffff;fill-opacity:1;stroke:none;stroke-width:2.01819" id="rect70551" width="52.917" height="52.917" x="67.964111" y="69.249527"/>
    <path id="rect913" style="display:inline;stroke-width:0.79375" d="m 102.10283,77.318968 1.5875,5.771224 h 5.07359 l 1.5875,-5.771224 z m 1.84329,7.492049 v 2.261878 c -3.88742,-0.232222 -6.04195,-0.409244 -10.024191,-0.443384 -4.470459,0.29138 -4.038195,3.590495 -2.783293,6.353617 l 2.439128,-0.04444 c -0.116723,-1.231771 -0.139264,-2.021892 0.132808,-2.325956 0.879695,-0.983132 7.241658,0.61812 10.301698,0.433049 l -0.0222,4.143933 h 4.52427 V 84.811017 Z m -23.742734,9.453687 c -0.147351,-4.56e-4 -0.30691,0.01321 -0.472323,0.04186 l -0.126607,0.0217 c -0.661649,0.114618 -1.155423,0.429862 -1.107426,0.706933 1.099917,6.353463 2.201722,12.709763 3.302641,19.061893 l 0.01137,-0.002 v 0.002 h 2.519226 10.779187 2.519226 v -0.002 l 0.01137,0.002 c 1.100919,-6.35211 2.202724,-12.70844 3.30264,-19.061893 0.048,-0.27707 -0.44578,-0.592316 -1.107425,-0.706933 l -0.126608,-0.0217 c -0.16541,-0.02865 -0.324971,-0.04231 -0.472322,-0.04186 -0.442065,0.0014 -0.772736,0.127058 -0.808736,0.334863 l -0.702283,4.053499 c -0.05598,0.02558 -0.11183,0.05123 -0.170532,0.077 -0.624624,0.274239 -1.407592,0.521972 -1.808675,0.513664 -0.918406,-0.01899 -1.445082,-0.355423 -2.015898,-0.751892 -0.570816,-0.39647 -1.206821,-0.896783 -2.134753,-0.880567 -1.10579,0.01936 -1.777623,0.633381 -2.321823,1.108977 -0.544197,0.475595 -0.970093,0.844872 -1.928047,0.853694 -0.560022,0.0052 -1.202392,-0.311239 -1.909961,-0.695564 -0.707569,-0.384326 -1.47561,-0.834777 -2.379183,-0.859379 -0.498169,-0.01356 -0.977762,0.171103 -1.393197,0.33848 l -0.651123,-3.75791 c -0.036,-0.207805 -0.366671,-0.333437 -0.808736,-0.334863 z m 11.40964,4.346504 c 0.565408,-0.0099 0.948998,0.285765 1.547192,0.70125 0.598194,0.415484 1.390383,0.906942 2.564185,0.931212 0.593426,0.0123 1.22394,-0.1844 1.797306,-0.414448 l -0.357084,2.061888 c -0.533066,0.20357 -1.097648,0.36115 -1.418518,0.3545 -0.918406,-0.019 -1.445083,-0.35748 -2.015898,-0.75395 -0.570816,-0.39647 -1.20682,-0.89472 -2.134753,-0.8785 -1.10579,0.0194 -1.777624,0.63338 -2.321823,1.10897 -0.544197,0.4756 -0.970093,0.84488 -1.928047,0.8537 -0.560022,0.005 -1.202392,-0.31279 -1.909961,-0.69712 -0.707569,-0.38432 -1.47561,-0.83271 -2.379183,-0.85731 -0.312771,-0.008 -0.618411,0.0598 -0.905371,0.15348 l -0.313159,-1.806612 c 0.05937,-0.02558 0.118016,-0.05112 0.183451,-0.07751 0.370095,-0.149282 0.840834,-0.275843 1.00769,-0.271302 0.565551,0.0154 1.218259,0.349217 1.930115,0.735873 0.711857,0.386651 1.486652,0.826931 2.396236,0.818551 1.246458,-0.0115 2.012429,-0.607084 2.57607,-1.099671 0.563644,-0.49259 0.915069,-0.849574 1.681552,-0.862997 z m 0,3.001892 c 0.565408,-0.01 0.948998,0.28577 1.547192,0.70124 0.598194,0.41549 1.390382,0.90695 2.564185,0.93121 0.406766,0.008 0.831358,-0.0816 1.242818,-0.21342 l -1.487765,8.58759 H 95.109453 84.330266 83.960263 l -1.635043,-9.4387 c 0.291843,-0.0955 0.580589,-0.16303 0.703833,-0.15968 0.565551,0.0154 1.218259,0.34973 1.930115,0.73639 0.711857,0.38665 1.486652,0.82642 2.396236,0.81804 1.246458,-0.0115 2.012428,-0.60709 2.57607,-1.09968 0.563645,-0.49259 0.915069,-0.84957 1.681552,-0.86299 z"/>
  </g>
</svg>