<?xml version="1.0" encoding="UTF-8" standalone="yes"?>
<svg width="52.917mm" height="52.917mm" viewBox="0 0 52.917 52.917" version="1.1" id="svg1231" xmlns="http://www.w3.org/2000/svg" xmlns:svg="http://www.w3.org/2000/svg">
  <defs id="defs1228"/>
  <g id="layer1" transform="translate(-93.831825,-136.41246)">
    <rect style="fill:#ffffff;fill-opacity:1;stroke:none;stroke-width:2.01819" id="rect70551" width="52.917" height="52.917" x="93.831825" y="136.41246"/>
    <path id="path916" style="display:inline;fill:#000000;stroke-width:0.7" d="m 114.36879,142.49469 v 5.1e-4 c -2.5987,0 -4.19296,1.79431 -4.21938,3.82974 -5.04372,0.46151 -7.30433,2.92667 -7.30033,4.40025 v 19.90111 c 0.61613,0.75 1.55587,1.82525 2.99981,1.59991 0.23555,1.30832 0.7321,2.23057 1.13947,3.4494 -2.42005,0.61033 -4.83925,1.72332 -7.462594,3.96565 v 3.60598 h 3.606494 c 4.65685,-4.74179 8.86282,-6.88112 17.8816,-6.73861 -1.95422,0.75876 -3.79838,1.65018 -5.36401,3.76205 v 2.90008 h 4.69997 c 3.35218,-6.53372 8.30564,-7.54251 20.70106,-7.20008 l 0.004,-0.61237 h -0.8661 v -1.66294 h 0.52503 v -6.242 c -10.33377,-1.79593 -11.78768,-3.72644 -14.97686,-17.1943 l -0.002,0.008 c -0.40022,-1.47863 -2.6844,-3.52598 -7.23522,-3.94239 -0.0264,-2.03545 -1.53231,-3.82974 -4.13101,-3.82974 z m -0.0109,1.32963 c 1.56212,-1.1e-4 2.82859,1.26612 2.82876,2.82825 1.1e-4,1.56233 -1.26643,2.82888 -2.82876,2.82877 -1.56213,-1.8e-4 -2.82836,-1.26664 -2.82825,-2.82877 1.7e-4,-1.56193 1.26632,-2.82807 2.82825,-2.82825 z m -9.0935,7.06469 h 18.187 c 0.0969,0 0.17518,0.0783 0.17518,0.17518 v 6.37429 c 0,0.097 -0.0782,0.17518 -0.17518,0.17518 h -18.18701 c -0.097,0 -0.17518,-0.0783 -0.17518,-0.17518 v -6.37429 c 0,-0.097 0.0782,-0.17518 0.17518,-0.17518 z m 22.01002,10.87324 c 0.1216,-0.006 0.25994,0.0695 0.39326,0.23926 l 1.39681,1.79472 c 0.27604,0.35438 0.40164,0.81805 0.42323,1.25109 v 1.84743 c 0,0.40924 -0.46091,0.59214 -0.76481,0.32246 l -1.39733,-1.26814 c -0.27646,-0.26928 -0.39918,-0.5162 -0.38809,-0.91932 v -2.86856 c 0.0522,-0.24961 0.18059,-0.39147 0.33693,-0.39894 z m -19.4045,0.64233 c 1.7184,-1e-5 3.11144,1.39304 3.11144,3.11144 0,1.7184 -1.39304,3.11145 -3.11144,3.11144 -1.7184,10e-6 -3.11144,-1.39304 -3.11144,-3.11144 0,-1.7184 1.39304,-3.11145 3.11144,-3.11144 z m 12.97595,0 c 1.71841,-1e-5 3.11145,1.39304 3.11144,3.11144 1e-5,1.7184 -1.39303,3.11145 -3.11144,3.11144 -1.7184,10e-6 -3.11144,-1.39304 -3.11144,-3.11144 0,-1.7184 1.39304,-3.11145 3.11144,-3.11144 z m 9.71207,3.02669 c 0.10607,-0.004 0.23737,0.0345 0.36845,0.10336 l 1.32861,0.80976 c 0.23076,0.21035 0.45635,0.44908 0.45785,0.78187 v 1.84381 c -0.002,0.21333 -0.37834,0.25725 -0.68781,0.10439 l -1.4118,-0.72709 c -0.20625,-0.14824 -0.28844,-0.28331 -0.28784,-0.55862 v -2.11615 c 0.001,-0.16357 0.0962,-0.23666 0.23254,-0.24133 z m 3.36207,1.75235 c 0.0661,-7.5e-4 0.14735,0.0193 0.24546,0.0651 l 1.49707,0.56999 c 0.27707,0.12544 0.4851,0.22471 0.48421,0.56379 v 1.5813 c -0.007,0.19784 -0.16883,0.35809 -0.45992,0.29869 l -1.6521,-0.44442 c -0.23323,-0.0954 -0.38254,-0.20348 -0.38034,-0.47904 v -1.65002 c -0.008,-0.27796 0.0498,-0.50294 0.26562,-0.5054 z m 3.47679,1.03973 c 0.0611,-9.2e-4 0.12655,0.006 0.19482,0.0207 l 1.60507,0.23926 c 0.29569,0.0745 0.48484,0.2237 0.46974,0.56173 v 1.48776 c -0.002,0.20411 -0.16684,0.31624 -0.45682,0.30334 l -1.80093,-0.12867 c -0.26735,-0.0362 -0.46126,-0.29043 -0.46147,-0.59532 v -1.42317 c 0,-0.31052 0.18501,-0.46161 0.44959,-0.4656 z"/>
  </g>
</svg>