<?xml version="1.0" encoding="UTF-8" standalone="yes"?>
<svg width="52.917mm" height="52.917mm" viewBox="0 0 52.917 52.917" version="1.1" id="svg70418" xml:space="preserve" xmlns="http://www.w3.org/2000/svg" xmlns:svg="http://www.w3.org/2000/svg">
  <defs id="defs70415"/>
  <g id="layer1" transform="translate(-131.99982,-72.456657)" style="display:inline">
    <rect style="fill:#ffffff;fill-opacity:1;stroke:none;stroke-width:2.01819" id="rect70551" width="52.917" height="52.917" x="131.99982" y="72.456657"/>
    <path id="path3136" style="display:inline;fill:#000000;fill-opacity:1;stroke:none;stroke-width:1.1335;stroke-opacity:1" d="m 149.30177,84.938494 v 0.599964 4.290694 h 1.20148 v -3.691248 h 25.55244 V 111.69034 H 150.50325 V 94.790089 h -1.20148 v 18.101731 h 27.9554 V 84.938494 Z m -6.57841,4.294312 a 3.0635769,3.0635769 0 0 0 -3.0639,3.063379 3.0635769,3.0635769 0 0 0 3.0639,3.063895 3.0635769,3.0635769 0 0 0 2.92437,-2.151806 h 0.3731 v 0.245463 c 0,0.304464 0.24486,0.549837 0.54932,0.549837 0.30446,0 0.54984,-0.245373 0.54984,-0.549837 v -0.245463 h 0.65474 l 0.72502,-0.818555 1.09916,0.818555 0.70125,-0.794784 0.93534,0.841809 0.7953,-0.7953 0.95912,0.7953 0.77153,-0.701766 -0.86507,-1.356506 h -5.77639 v -0.08165 c 0,-0.30446 -0.24538,-0.549837 -0.54984,-0.549837 -0.30446,0 -0.54932,0.245377 -0.54932,0.549837 v 0.08165 h -0.43821 a 3.0635769,3.0635769 0 0 0 -2.85926,-1.964221 z m -1.28623,2.128035 a 0.93544334,0.93544334 0 0 1 0.93535,0.935344 0.93544334,0.93544334 0 0 1 -0.93535,0.93586 0.93544334,0.93544334 0 0 1 -0.93586,-0.93586 0.93544334,0.93544334 0 0 1 0.93586,-0.935344 z m 20.77083,1.83348 c -0.58101,0 -1.04852,0.46804 -1.04852,1.049032 v 1.344104 h -4.2664 v 12.770793 h 13.08344 V 95.587457 h -4.26641 v -1.344104 c 0,-0.580992 -0.46803,-1.049032 -1.04903,-1.049032 z m 0.46044,0.818038 h 1.53272 c 0.36311,0 0.65526,0.292644 0.65526,0.655774 v 0.919324 h -2.84324 v -0.919324 c 0,-0.36313 0.29213,-0.655774 0.65526,-0.655774 z m -7.30343,1.575098 c -0.77987,0 -1.40767,0.627793 -1.40767,1.407666 v 9.954427 c 0,0.77989 0.6278,1.4087 1.40767,1.4087 h 0.24804 V 95.587457 Z m 15.89102,0 v 12.770793 h 0.24753 c 0.77987,0 1.40766,-0.62881 1.40766,-1.4087 v -9.954427 c 0,-0.779873 -0.62779,-1.407666 -1.40766,-1.407666 z"/>
  </g>
</svg>