<?xml version="1.0" encoding="UTF-8" standalone="yes"?>
<svg width="52.917mm" height="52.917mm" viewBox="0 0 52.917 52.917" version="1.1" id="svg15577" xmlns="http://www.w3.org/2000/svg" xmlns:svg="http://www.w3.org/2000/svg">
  <defs id="defs15574"/>
  <g id="layer1" transform="translate(-54.416355,-85.733849)">
    <rect style="fill:#ffffff;fill-opacity:1;stroke:none;stroke-width:2.01819" id="rect70551" width="52.917" height="52.917" x="54.416355" y="85.733849"/>
    <path id="rect15491" style="display:inline;fill:#000000;fill-opacity:1;stroke-width:1.5" d="m 64.162181,95.565721 v 33.253269 h 33.42535 V 95.565721 Z m 3.29799,3.29024 c 4.376914,1.160859 8.885925,1.749279 13.414168,1.750279 4.528394,-8.7e-4 9.03758,-0.58903 13.414685,-1.749769 v 15.883789 c -4.377105,-1.16073 -8.886292,-1.88532 -13.414685,-1.88619 -4.528243,0.001 -9.037254,0.72585 -13.414168,1.88671 z m 4.354773,18.083649 a 1.8175173,1.8175173 0 0 1 1.817976,1.81746 1.8175173,1.8175173 0 0 1 -1.817976,1.81746 1.8175173,1.8175173 0 0 1 -1.817461,-1.81746 1.8175173,1.8175173 0 0 1 1.817461,-1.81746 z m 9.385473,0 a 1.8175173,1.8175173 0 0 1 1.817977,1.81746 1.8175173,1.8175173 0 0 1 -1.817977,1.81746 1.8175173,1.8175173 0 0 1 -1.81746,-1.81746 1.8175173,1.8175173 0 0 1 1.81746,-1.81746 z m 9.347233,0 a 1.8175173,1.8175173 0 0 1 1.817977,1.81746 1.8175173,1.8175173 0 0 1 -1.817977,1.81746 1.8175173,1.8175173 0 0 1 -1.81746,-1.81746 1.8175173,1.8175173 0 0 1 1.81746,-1.81746 z m -20.988899,4.09122 h 4.513419 c 1.037519,0 1.872237,0.84732 1.872237,1.89911 v 2.80035 h -8.25841 v -2.80035 c 0,-1.05179 0.835235,-1.89911 1.872754,-1.89911 z m 9.385473,0 h 4.51342 c 1.037519,0 1.872237,0.84732 1.872237,1.89911 v 2.80035 H 77.07147 v -2.80035 c 0,-1.05179 0.835235,-1.89911 1.872754,-1.89911 z m 9.347233,0 h 4.51342 c 1.037519,0 1.872237,0.84732 1.872237,1.89911 v 2.80035 h -8.25841 v -2.80035 c 0,-1.05179 0.835235,-1.89911 1.872753,-1.89911 z"/>
  </g>
</svg>