<?xml version="1.0" encoding="UTF-8" standalone="yes"?>
<svg width="52.917mm" height="52.917mm" viewBox="0 0 52.917 52.917" version="1.1" id="svg9532" xmlns="http://www.w3.org/2000/svg" xmlns:svg="http://www.w3.org/2000/svg">
  <defs id="defs9529"/>
  <g id="layer1" transform="translate(-151.7415,-87.250069)">
    <rect style="display:inline;fill:#ffffff;fill-opacity:1;stroke:none;stroke-width:2.01819" id="rect70551" width="52.917" height="52.917" x="151.7415" y="87.250069"/>
    <path id="path9247" style="display:inline;stroke-width:2.18045;stroke-linecap:round" d="m 186.55323,94.907905 -4.38267,7.620205 c -0.91036,-0.11376 -1.84622,-0.17415 -2.80242,-0.17415 -12.61674,0 -18.85259,11.59051 -18.85259,11.59051 0,0.14895 3.31488,5.97406 9.76167,9.26093 l -5.35109,9.30383 4.89376,-0.003 4.04058,-6.99854 c 0.0934,0.0135 0.18666,0.027 0.2806,0.0393 l -0.22737,-0.13125 10.8598,-18.81023 1.67586,0.96739 -10.46757,18.13687 c 0.34723,0.0162 0.69712,0.0253 1.05006,0.0253 0.58238,0 1.15184,-0.0254 1.70791,-0.0734 l 9.96218,-17.262 1.76217,1.01648 -9.14415,15.84606 c 1.26167,-0.28365 2.44264,-0.68303 3.54345,-1.16221 l 7.55097,-13.08395 1.76216,1.01647 -5.86889,10.16992 c 5.00938,-3.37571 7.57679,-7.97235 7.5768,-8.10544 0,0 -3.1555,-6.42063 -9.73584,-9.87279 l 5.37848,-9.316305 z m -6.53086,10.557495 c 0.15274,0 0.30473,10e-4 0.4563,0.004 l -0.74569,1.29656 a 7.4603572,7.4603572 0 0 0 -1.46813,-0.14883 7.4603572,7.4603572 0 0 0 -7.46001,7.46053 7.4603572,7.4603572 0 0 0 1.87999,4.94285 l -1.09089,1.89653 c -7.68656,-2.21426 -10.71097,-7.02524 -10.71097,-7.13704 0,0 5.7448,-8.31422 19.1394,-8.31422 z"/>
  </g>
</svg>