<?xml version="1.0" encoding="UTF-8" standalone="yes"?>
<svg width="52.917mm" height="52.917mm" viewBox="0 0 52.917 52.917" version="1.1" id="svg6239" xmlns="http://www.w3.org/2000/svg" xmlns:svg="http://www.w3.org/2000/svg">
  <defs id="defs6236"/>
  <g id="layer1" transform="translate(-149.47864,-55.570072)">
    <rect style="display:inline;fill:#ffffff;fill-opacity:1;stroke:none;stroke-width:2.01819" id="rect70551" width="52.917" height="52.917" x="149.47864" y="55.570072"/>
    <path id="path6174" style="fill:#000000;fill-opacity:1;stroke-width:0.0243381" d="M 186.50584 65.04908 L 183.62384 65.061482 C 182.84793 65.038482 182.50516 65.207221 181.97381 66.119816 L 180.7403 68.342419 L 183.26934 69.834834 L 185.39996 66.215934 C 185.80814 65.532718 185.93766 65.40739 186.50584 65.04908 z M 186.90323 65.383426 C 186.69329 65.392029 186.47523 65.473435 186.25366 65.642842 C 185.80931 66.057225 185.27913 66.965684 185.23821 67.209672 L 185.95652 68.460758 L 185.00257 68.911893 L 187.94813 68.953751 L 189.43641 66.349776 L 188.52587 66.995731 L 188.27834 66.4769 C 187.92358 65.813326 187.43974 65.361442 186.90323 65.383426 z M 189.80383 69.096378 L 187.23499 70.574841 L 188.78322 73.126106 L 190.40534 73.114221 C 190.76693 73.097751 191.40763 72.555722 191.27764 71.719474 L 189.80383 69.096378 z M 181.58624 69.954724 L 178.68151 70.001749 L 179.42772 70.388289 L 179.16262 70.945878 C 178.53557 71.89857 178.32101 72.09435 178.82259 73.058927 C 179.17981 73.745901 179.75739 74.727158 180.43334 75.783308 C 180.22625 75.30828 180.36356 74.75292 180.71911 74.223714 L 182.09784 71.903442 L 182.94636 72.427958 L 181.58624 69.954724 z M 187.04637 72.453279 L 185.65886 75.045369 L 187.04637 77.568212 L 187.05206 76.521248 L 187.69078 76.521248 C 189.02284 76.603478 189.16619 76.554739 189.83018 75.501672 C 190.24895 74.837482 190.75274 74.029607 191.32105 72.915266 C 191.00758 73.327907 190.29238 73.431679 189.79866 73.488875 L 187.06859 73.494559 L 187.04637 72.453279 z M 181.58831 73.509545 L 180.98369 74.432487 C 180.69812 74.929099 180.74865 76.247298 181.58159 76.497477 L 184.64239 76.494893 L 184.58709 73.531766 L 181.58831 73.509545 z M 167.21658 77.040079 C 165.4884 76.999429 163.38077 78.51289 161.95385 80.819177 C 160.09158 83.828874 159.98538 87.181862 161.71665 88.308642 C 163.44826 89.43558 166.36217 87.908748 168.22478 84.898514 C 170.08737 81.888385 170.19335 78.534907 168.46146 77.408532 C 168.10366 77.175741 167.68261 77.051121 167.21658 77.040079 z M 167.5349 80.103975 C 168.06027 80.096975 168.53279 80.459007 168.64853 80.993326 C 168.78081 81.603976 168.39567 82.20206 167.78502 82.33433 C 166.72464 82.58931 164.723 82.828332 164.43793 82.067163 C 164.21148 81.450043 165.9644 80.420763 167.30753 80.129813 C 167.38383 80.113313 167.45984 80.104875 167.5349 80.103975 z M 171.05458 80.570613 C 170.92733 82.204074 170.29536 84.014998 169.2795 85.657124 C 168.03494 87.668304 166.33505 89.232831 164.65239 89.915779 L 180.73875 98.609822 C 186.17137 100.99284 189.10943 89.362955 185.47696 87.224987 C 184.84054 86.729988 176.42532 83.971956 176.42532 83.971956 L 176.10544 83.767317 L 180.26281 88.019254 L 179.27889 88.980953 L 171.05458 80.570613 z "/>
  </g>
</svg>