<?xml version="1.0" encoding="UTF-8" standalone="yes"?>
<svg width="52.917mm" height="52.917mm" viewBox="0 0 52.917 52.917" version="1.1" id="svg36033" xmlns="http://www.w3.org/2000/svg" xmlns:svg="http://www.w3.org/2000/svg">
  <defs id="defs36030"/>
  <g id="layer1" transform="translate(-120.08989,-145.63828)">
    <rect style="fill:#ffffff;fill-opacity:1;stroke:none;stroke-width:2.01819" id="rect70551" width="52.917" height="52.917" x="120.08989" y="145.63828"/>
    <path id="path35007" style="display:inline;fill:#1f0000;fill-opacity:1;stroke:none;stroke-width:0.903954;stroke-linecap:round;stroke-dasharray:none" d="m 137.10064,155.21977 a 4.4354839,4.4354839 0 0 0 -4.43538,4.43539 4.4354839,4.4354839 0 0 0 0.24287,1.44281 l 2.10789,-2.10788 2.16059,0.57929 0.60048,2.23914 -2.06034,2.06034 a 4.4354839,4.4354839 0 0 0 1.38389,0.22169 4.4354839,4.4354839 0 0 0 4.08141,-2.70526 h 7.00732 v -5.2e-4 h 3.63389 a 4.4354839,4.4354839 0 0 0 4.08399,2.70578 4.4354839,4.4354839 0 0 0 4.43538,-4.43539 4.4354839,4.4354839 0 0 0 -0.24288,-1.44281 l -2.10788,2.10789 -2.16059,-0.5793 -0.60048,-2.23914 2.06034,-2.06034 a 4.4354839,4.4354839 0 0 0 -1.38389,-0.22169 4.4354839,4.4354839 0 0 0 -4.08141,2.70526 h -7.00732 v 5.2e-4 h -3.63389 a 4.4354839,4.4354839 0 0 0 -4.08399,-2.70578 z m 1.83658,12.3331 c -0.62433,0 -1.16047,0.29039 -1.51773,0.69143 -0.35726,0.40104 -0.569,0.89416 -0.71107,1.39423 l -1.5689,5.51904 h -0.3452 c -1.13033,0 -2.0407,0.90985 -2.0407,2.04019 v 6.12107 c 0,1.13034 0.91037,2.04019 2.0407,2.04019 h 0.46561 v 3.61476 h 2.99723 v -3.61476 h 16.67082 v 3.61476 h 2.99723 v -3.61476 h 0.46561 c 1.13033,0 2.0407,-0.90985 2.0407,-2.04019 v -6.12107 c 0,-1.13034 -0.91037,-2.04019 -2.0407,-2.04019 h -0.3452 l -1.56735,-5.51904 c -0.14207,-0.50007 -0.3538,-0.99319 -0.71107,-1.39423 -0.35726,-0.40104 -0.89546,-0.69143 -1.5198,-0.69143 z m 0,1.10329 h 15.31018 c 0.31687,0 0.50041,0.1057 0.6935,0.32246 0.19309,0.21675 0.36174,0.56445 0.4749,0.96273 l 1.48105,5.21622 h -20.60908 l 1.48157,-5.21622 c 0.11316,-0.39828 0.28129,-0.74598 0.47439,-0.96273 0.19309,-0.21676 0.37663,-0.32246 0.69349,-0.32246 z m -1.01647,8.26978 a 2.6031795,2.6031795 0 0 1 2.60294,2.60346 2.6031795,2.6031795 0 0 1 -2.60294,2.60294 2.6031795,2.6031795 0 0 1 -2.60294,-2.60294 2.6031795,2.6031795 0 0 1 2.60294,-2.60346 z m 17.34416,0 a 2.6031795,2.6031795 0 0 1 2.60294,2.60346 2.6031795,2.6031795 0 0 1 -2.60294,2.60294 2.6031795,2.6031795 0 0 1 -2.60346,-2.60294 2.6031795,2.6031795 0 0 1 2.60346,-2.60346 z"/>
  </g>
</svg>