<?xml version="1.0" encoding="UTF-8" standalone="yes"?>
<svg width="52.917mm" height="52.917mm" viewBox="0 0 52.917 52.917" version="1.1" id="svg3097" xmlns="http://www.w3.org/2000/svg" xmlns:svg="http://www.w3.org/2000/svg">
  <defs id="defs3094"/>
  <g id="layer1" transform="translate(-56.701496,-41.992928)">
    <rect style="fill:#ffffff;fill-opacity:1;stroke:none;stroke-width:2.01819" id="rect70551" width="52.917" height="52.917" x="56.701496" y="41.992928"/>
    <path id="path1119" style="display:inline;stroke-width:0.219409" d="m 76.534561,51.86634 -0.830441,0.003 c -1.53e-4,10e-4 -0.849675,8.13153 -1.106909,10.2092 h -1.650545 l -1.578198,5.88853 -7.261056,-0.046 3.556372,9.76529 c 0.482259,-0.13774 0.925369,-0.32971 1.393714,-0.5333 1.13105,-0.49147 2.389278,-1.0388 4.476729,-1.18339 2.671955,-0.18496 4.285582,0.49363 5.807397,1.1343 1.10099,0.46317 2.148433,0.90448 3.517102,0.8878 1.63875,-0.0202 3.06001,-0.60085 4.40696,-1.15135 1.3498,-0.55159 2.63302,-1.07602 4.11293,-1.08831 1.77304,-0.0147 3.08432,0.50363 4.37751,1.01441 1.40724,0.55598 2.79,1.10207 4.721684,0.74879 l 1.74459,-6.97735 h -2.899564 l -0.77205,-2.88199 h -1.11569 l 0.61495,-12.85245 -0.84853,-0.0351 -1.14567,12.88759 h -1.39991 l -0.98082,-3.65921 h -5.80791 l -0.91933,-3.42977 -6.152077,-1.55546 -0.99012,5.02037 h -1.908928 l -0.523482,-1.95337 h -1.218013 z m -0.01705,13.50926 h 4.914946 v 2.89904 h -4.137215 z m 6.505545,0 h 4.24315 v 2.89904 h -4.24315 z m 5.72833,0 h 3.57084 l 0.74259,2.89904 h -4.31343 z m 2.6448,12.37547 c -1.47991,0.0123 -2.76313,0.5362 -4.11293,1.08779 -1.34695,0.5505 -2.7682,1.13115 -4.40696,1.15135 -1.368666,0.0167 -2.416107,-0.42463 -3.517098,-0.8878 -1.521817,-0.64067 -3.134922,-1.31926 -5.80688,-1.1343 -2.087453,0.14459 -3.346196,0.69192 -4.477246,1.18339 -1.270595,0.55233 -2.355201,1.0238 -4.540292,0.53847 l -0.437182,-0.11369 c 0.09654,0.74577 0.09454,1.64583 1.010791,1.77353 2.090306,0.29093 3.261228,-0.21766 4.604887,-0.8015 1.007524,-0.43773 2.128021,-0.92494 3.949113,-1.0511 2.290406,-0.15863 3.724335,0.44483 5.077209,1.01441 1.252388,0.52702 2.443916,1.02849 4.155298,1.00769 1.95143,-0.0237 3.51151,-0.66101 4.98988,-1.26504 1.21004,-0.49432 2.36036,-0.9641 3.52433,-0.9741 1.45775,-0.0121 2.62833,0.45048 3.7822,0.90641 1.58721,0.62707 3.14752,1.24289 5.408974,0.86661 0.59701,-0.15074 0.70379,-0.8946 0.77049,-1.73736 l -0.44286,0.10645 -5.2e-4,-5.1e-4 c -2.162054,0.52505 -3.643204,-0.0602 -5.153174,-0.65681 -1.29319,-0.51078 -2.60499,-1.02859 -4.37803,-1.01389 z m 0,3.51658 c -1.47991,0.0123 -2.76313,0.53619 -4.11293,1.08779 -1.34695,0.55049 -2.7682,1.13135 -4.40696,1.15135 -1.368666,0.0167 -2.416107,-0.42412 -3.517098,-0.88729 -1.521817,-0.64067 -3.134922,-1.31925 -5.80688,-1.13429 -2.087453,0.14459 -3.346196,0.69139 -4.477246,1.18287 -1.270595,0.5521 -2.355201,1.02329 -4.540292,0.53795 l -0.437182,-0.11369 c 0.09654,0.74578 0.09454,1.64637 1.010791,1.77406 2.090306,0.29094 3.261228,-0.21767 4.604887,-0.80151 1.007524,-0.43773 2.128021,-0.92492 3.949113,-1.05109 2.290406,-0.15863 3.724335,0.44504 5.077209,1.0144 1.252388,0.52702 2.443916,1.02849 4.155298,1.00769 1.95143,-0.0239 3.51151,-0.66151 4.98988,-1.26555 1.21004,-0.49432 2.36036,-0.9641 3.52433,-0.9741 1.45775,-0.0121 2.62833,0.45047 3.7822,0.9064 1.58721,0.62707 3.14752,1.24342 5.408974,0.86713 0.59701,-0.15073 0.70379,-0.89514 0.77049,-1.73788 l -0.44286,0.10646 h -5.2e-4 c -2.162054,0.52504 -3.643204,-0.0597 -5.153174,-0.65629 -1.29319,-0.51079 -2.60499,-1.02911 -4.37803,-1.01441 z"/>
  </g>
</svg>