<?xml version="1.0" encoding="UTF-8" standalone="yes"?>
<svg width="52.917mm" height="52.917mm" viewBox="0 0 52.917 52.917" version="1.1" id="svg1873" xmlns="http://www.w3.org/2000/svg" xmlns:svg="http://www.w3.org/2000/svg">
  <defs id="defs1870"/>
  <g id="layer1" transform="translate(-70.057632,-101.99311)">
    <rect style="fill:#ffffff;fill-opacity:1;stroke:none;stroke-width:2.01819" id="rect70551" width="52.917" height="52.917" x="70.057632" y="101.99311"/>
    <path id="rect1750" style="display:inline;fill:#000000;stroke-width:0.7" d="m 96.077138,109.71581 c -6.811152,0 -12.294857,5.48369 -12.294857,12.29486 v 0.94051 c 0,0.0584 0.0018,0.11647 0.0026,0.17466 -4.26e-4,0.0151 -0.0026,0.0298 -0.0026,0.045 v 13.86272 c 0,0.83402 0.64519,1.50534 1.446423,1.50534 h 22.574336 c 0.80123,0 1.44642,-0.67132 1.44642,-1.50534 v -13.86272 c 0,-0.0145 -0.002,-0.0285 -0.002,-0.0429 8.2e-4,-0.0589 0.002,-0.11765 0.002,-0.17673 v -0.94051 c 0,-6.81117 -5.48319,-12.29486 -12.29434,-12.29486 z m -1.51412,1.91306 h 3.905705 c 0.590373,0 1.066085,0.47571 1.066085,1.06609 v 0.42478 c 0,0.59037 -0.475712,1.06556 -1.066085,1.06556 h -3.905705 c -0.590374,0 -1.066085,-0.47519 -1.066085,-1.06556 v -0.42478 c 0,-0.59038 0.475711,-1.06609 1.066085,-1.06609 z m -5.668388,3.78323 h 2.273763 c 0.451758,0 0.815454,0.2657 0.815454,0.59583 v 12.95322 c 0,0.33013 -0.363696,0.59583 -0.815454,0.59583 h -4.07727 c -0.451758,0 -0.815454,-0.2657 -0.815454,-0.59583 v -8.34265 c 0.478103,-1.97917 1.341178,-4.12436 2.618961,-5.2064 z m 6.021855,0 h 3.198771 c 0.599449,0 1.082621,0.27972 1.082621,0.62684 v 12.89172 c 0,0.34712 -0.483172,0.62683 -1.082621,0.62683 h -3.198771 c -0.59945,0 -1.081588,-0.27971 -1.081588,-0.62683 v -12.89172 c 0,-0.34712 0.482138,-0.62684 1.081588,-0.62684 z m 6.946865,0 h 2.27479 c 1.27779,1.08204 2.13983,3.22723 2.61793,5.2064 v 8.34265 c 0,0.33013 -0.36369,0.59583 -0.81545,0.59583 h -4.07727 c -0.45176,0 -0.81546,-0.2657 -0.81546,-0.59583 v -12.95322 c 0,-0.33013 0.3637,-0.59583 0.81546,-0.59583 z m -13.220384,15.72256 a 2.0846775,2.0846775 0 0 1 2.084627,2.08462 2.0846775,2.0846775 0 0 1 -2.084627,2.08463 2.0846775,2.0846775 0 0 1 -2.084627,-2.08463 2.0846775,2.0846775 0 0 1 2.084627,-2.08462 z m 15.745804,0 a 2.0846775,2.0846775 0 0 1 2.08463,2.08462 2.0846775,2.0846775 0 0 1 -2.08463,2.08463 2.0846775,2.0846775 0 0 1 -2.08462,-2.08463 2.0846775,2.0846775 0 0 1 2.08462,-2.08462 z m -18.897033,8.43152 -4.265372,7.62124 h 3.543969 l 2.85409,-7.62124 z m 19.916093,0 2.85409,7.62124 h 3.54397 l -4.26537,-7.62124 z"/>
  </g>
</svg>