<?xml version="1.0" encoding="UTF-8" standalone="yes"?>
<svg width="52.917mm" height="52.917mm" viewBox="0 0 52.917 52.917" version="1.1" id="svg70418" xml:space="preserve" xmlns="http://www.w3.org/2000/svg" xmlns:svg="http://www.w3.org/2000/svg">
  <defs id="defs70415"/>
  <g id="layer1" transform="translate(-59.075142,-72.774986)" style="display:inline">
    <rect style="fill:#ffffff;fill-opacity:1;stroke:none;stroke-width:2.01819" id="rect70551" width="52.917" height="52.917" x="59.075142" y="72.774986"/>
    <path id="path1642" style="display:inline;fill:#000000;fill-opacity:1;stroke:none;stroke-width:1;stroke-opacity:1" d="m 74.296299,80.702364 c -0.28839,-0.0057 -0.56982,0.246386 -0.54777,0.779797 l -0.05529,4.741829 c -0.01218,0.521404 -0.08978,1.24053 -0.44235,1.25057 -0.44529,-0.0035 -0.61365,-0.604058 -0.60565,-1.305863 l -0.14883,-2.440678 c -0.0268,-0.586582 0.13352,-2.040834 -0.56327,-2.032434 -0.84514,0.0089 -0.48595,1.154479 -0.51625,2.004528 l 0.13023,4.001823 c 0,0 0.01626,0.170306 -0.01034,0.257866 -0.03111,0.102328 -0.07812,0.202614 -0.17312,0.251664 -0.10292,0.05314 -0.24502,0.05137 -0.34778,-0.0021 -0.14287,-0.07431 -0.2127,-0.217651 -0.2744,-0.366386 -0.0237,-0.05795 -0.03152,-0.185518 -0.03152,-0.185518 l -0.55294,-3.237529 c -0.05772,-0.467278 -0.10585,-0.975615 -0.65526,-0.927075 -0.40587,0.02004 -0.39349,0.524478 -0.32969,0.941545 l 0.46405,3.141927 0.05478,0.721403 0.03152,0.862482 -0.11007,9.84849 3.01119,0.62735 c -0.19041,-1.89476 0.04161,-2.63738 0.83199,-2.64738 0.89502,-0.0111 0.99773,0.84924 0.86144,2.66289 l 3.26182,-0.7059 c -0.62093,-6.20934 -1.32046,-6.05099 2.9099,-10.35596 1.31568,-1.461876 0.4632,-3.126172 -0.92604,-1.806609 -3.45587,3.819719 -2.3706,1.422283 -2.389,-3.950663 0.02501,-1.034957 -1.07065,-0.869103 -1.11415,-0.07235 l -0.19275,3.423047 c -0.03529,1.261157 -0.97938,1.320177 -0.93018,-0.06046 l -0.05012,-4.653463 c -0.0062,-0.497619 -0.30176,-0.761195 -0.59015,-0.766878 z m 14.93759,0.675411 -5.09323,5.093229 5.0767,5.076694 3.27783,-1.57148 c 0.78587,0.71941 2.54882,2.45467 3.2303,3.12746 v 2.28771 c -0.2831,-0.074 -0.51943,-0.22311 -0.57878,-0.54467 -0.04263,-0.62794 -0.41821,-0.93497 -0.79633,-0.92707 -0.37813,0.008 -0.75855,0.3311 -0.81132,0.96325 -0.05288,0.30933 -0.16392,0.57839 -0.33073,0.60409 -0.85854,0.083 -0.86138,-0.48928 -1.1927,-1.14566 -0.40386,-0.83852 -1.57467,-0.2858 -0.97203,1.15445 l 4.69274,19.588472 v 1.97042 c 0,0.3686 0.29648,0.66559 0.66507,0.66559 0.3686,0 0.6656,-0.29699 0.6656,-0.66559 v -1.97042 l 4.692731,-19.588472 c 0.60264,-1.44024 -0.56817,-1.99296 -0.97203,-1.15445 -0.33132,0.65637 -0.33415,1.22864 -1.192691,1.14566 -0.16681,-0.0257 -0.27785,-0.29477 -0.33073,-0.60409 -0.10555,-1.2643 -1.5224,-1.29207 -1.60766,-0.0362 -0.06303,0.34155 -0.3256,0.48806 -0.632,0.55707 v -10.887704 -0.0098 c -0.0207,-0.683544 0.15732,-1.10479 0.37672,-1.359607 0.21941,-0.254816 0.496,-0.366872 0.78703,-0.371037 0.57629,-0.0082 1.20077,0.362428 1.20872,1.435055 a 0.64999998,0.64999998 0 0 0 0,5.16e-4 0.64999998,0.64999998 0 0 0 0,0.001 c 7e-5,0.01025 5.6e-4,0.02011 5.1e-4,0.03049 h 10e-4 a 0.64999998,0.64999998 0 0 0 0.648541,0.618567 0.64999998,0.64999998 0 0 0 0.64905,-0.61495 h 0.002 c 0.007,-1.686565 -1.247491,-2.787688 -2.529561,-2.76934 -0.64103,0.0092 -1.28988,0.285674 -1.75183,0.822172 -0.46195,0.5365 -0.7198,1.310462 -0.69143,2.246375 v 7.682218 l -2.76624,-2.68976 1.3348,-3.033921 z m -0.12092,1.886189 c 1.17358,-2.5e-5 2.12496,0.95136 2.12493,2.124935 2e-5,0.967805 -0.64663,1.784598 -1.53169,2.041219 -0.0063,0.0019 -0.01312,0.0034 -0.01912,0.0052 v 1.012858 c 0,0.169404 -0.09961,0.305924 -0.22324,0.305924 h -0.80977 c -0.12364,0 -0.22324,-0.13652 -0.22324,-0.305924 v -1.419035 c -0.0056,-0.188024 0.01237,-0.368093 0.33693,-0.519865 0.70831,-0.273946 1.12778,-0.164377 1.20768,-1.128096 1.4e-4,-0.463347 -0.37536,-0.839078 -0.83871,-0.839225 -0.46355,-1.4e-4 -0.83937,0.375675 -0.83923,0.839225 2e-4,0.06067 0.007,0.121141 0.02016,0.180351 h -1.32188 c -0.005,-0.0574 -0.0075,-0.11499 -0.0078,-0.1726 -3e-5,-1.173579 0.95136,-2.124966 2.12494,-2.124935 z m -0.03617,5.753134 a 0.59049863,0.59049863 0 0 1 0.59066,0.59067 0.59049863,0.59049863 0 0 1 -0.59066,0.59066 0.59049863,0.59049863 0 0 1 -0.59067,-0.59066 0.59049863,0.59049863 0 0 1 0.59067,-0.59067 z m -11.38949,15.370122 c -0.51258,0 -0.92501,0.41296 -0.92501,0.92553 v 1.18546 h -3.76359 v 11.26649 h 11.54193 v -11.26649 h -3.7636 v -1.18546 c 0,-0.51257 -0.41294,-0.92553 -0.92552,-0.92553 z m 0.40618,0.72141 h 1.35237 c 0.32036,0 0.57826,0.2579 0.57826,0.57826 v 0.81132 h -2.50889 v -0.81132 c 0,-0.32036 0.2579,-0.57826 0.57826,-0.57826 z m -6.44302,1.38958 c -0.68803,0 -1.24179,0.55427 -1.24179,1.2423 v 8.78189 c 0,0.68803 0.55376,1.2423 1.24179,1.2423 h 0.21911 v -11.26649 z m 14.0193,0 v 11.26649 h 0.21859 c 0.68803,0 1.2423,-0.55427 1.2423,-1.2423 v -8.78189 c 0,-0.68803 -0.55427,-1.2423 -1.2423,-1.2423 z"/>
  </g>
</svg>