<?xml version="1.0" encoding="UTF-8" standalone="yes"?>
<svg width="52.917mm" height="52.917mm" viewBox="0 0 52.917 52.917" version="1.1" id="svg4749" xmlns="http://www.w3.org/2000/svg" xmlns:svg="http://www.w3.org/2000/svg">
  <defs id="defs4746"/>
  <g id="layer1" transform="translate(-44.091904,-117.05135)">
    <rect style="fill:#ffffff;fill-opacity:1;stroke:none;stroke-width:2.01819" id="rect70551" width="52.917" height="52.917" x="44.091904" y="117.05135"/>
    <path id="path1581" style="color:#000000;fill:#000000;stroke-linecap:round" d="m 51.64846,124.09386 c -0.138686,-0.005 -0.266925,0.0875 -0.301791,0.22737 -0.03939,0.16113 0.05946,0.32364 0.220659,0.36277 2.978005,0.72723 4.560894,1.78118 7.080188,3.47679 3.586125,2.8808 5.079237,10.00109 6.595463,16.64446 0.158515,0.79538 0.309511,1.65643 0.185518,2.24224 -0.062,0.29291 -0.176837,0.50741 -0.382405,0.66405 -0.205569,0.15663 -0.52543,0.26561 -1.033529,0.26561 h -1.605587 l 0.01395,0.002 c -0.06936,-0.003 -0.123628,-0.009 -0.187586,-0.008 -0.06396,0.001 -0.156883,0.002 -0.261482,0.078 -0.104599,0.0759 -0.145441,0.19775 -0.15658,0.2713 -0.01114,0.0736 -0.0098,0.13131 -0.0098,0.20309 v 3.48041 c -0.0097,1.82421 -1.944395,4.22846 -5.200717,4.36873 -0.145973,-0.006 -0.277403,-0.027 -0.441833,0.0863 -0.08478,0.0584 -0.147379,0.16135 -0.170016,0.24443 -0.02264,0.0831 -0.02161,0.15116 -0.01912,0.22065 v 2.66961 0.008 c 0.02372,0.54827 -0.169194,1.26177 -0.527616,1.80867 -0.358422,0.54689 -0.849952,0.91571 -1.456759,0.91571 h -2.502173 c -0.16547,7.2e-4 -0.29911,0.13529 -0.298689,0.30075 4.38e-4,0.16486 0.133827,0.29849 0.298689,0.29921 h 2.502173 c 0.852066,0 1.526547,-0.52603 1.959054,-1.18597 0.432507,-0.65993 0.655097,-1.46474 0.624768,-2.16576 v -2.60553 c 0.0201,-0.002 -0.0082,0.003 0.02325,0.004 h 0.01189 0.01188 c 3.545756,-0.14759 5.774832,-2.73399 5.785177,-4.96869 v -3.42511 h 1.607137 c 0.595901,0 1.059987,-0.13403 1.396814,-0.39068 0.336829,-0.25665 0.522392,-0.62453 0.605131,-1.01544 0.165479,-0.78182 -0.02447,-1.68632 -0.183451,-2.48408 v -0.004 l -0.0021,-0.004 C 64.314001,138.04336 62.91423,130.81531 59.01853,127.69057 l -0.0098,-0.008 -0.0098,-0.008 c -2.532183,-1.70432 -4.221768,-2.82287 -7.291028,-3.57239 v 5.1e-4 c -0.02002,-0.005 -0.03962,-0.008 -0.05943,-0.008 z m 27.752311,12.962 -0.300757,0.51934 4.048849,2.33785 h -3.495911 v 0.60151 h 3.497978 l -4.050916,2.33836 0.300757,0.51935 c 1.931663,-1.12653 3.753407,-2.15201 5.449797,-3.1502 -1.880813,-1.09779 -3.825071,-2.22782 -5.449797,-3.16621 z m 8.662004,1.14101 a 1.8497972,1.8497972 0 0 0 -1.850017,1.85002 1.8497972,1.8497972 0 0 0 1.850017,1.8495 1.8497972,1.8497972 0 0 0 1.849499,-1.8495 1.8497972,1.8497972 0 0 0 -1.849499,-1.85002 z m -29.682943,0.21239 c -0.869612,1e-5 -1.574572,0.70497 -1.574581,1.57458 9e-6,0.86961 0.704969,1.57457 1.574581,1.57458 0.869612,-1e-5 1.574572,-0.70497 1.574581,-1.57458 -9e-6,-0.86961 -0.704969,-1.57457 -1.574581,-1.57458 z m 8.710579,1.50379 v 0.60151 h 1.742013 v -0.60151 z m 3.355351,0 v 0.60151 h 2.883028 v -0.60151 z m 4.667932,0 v 0.60151 h 3.011703 v -0.60151 z"/>
  </g>
</svg>