<?xml version="1.0" encoding="UTF-8" standalone="yes"?>
<svg width="52.917mm" height="52.917mm" viewBox="0 0 52.917 52.917" version="1.1" id="svg14029" xmlns="http://www.w3.org/2000/svg" xmlns:svg="http://www.w3.org/2000/svg">
  <defs id="defs14026"/>
  <g id="layer1" transform="translate(-98.123192,-131.84973)">
    <rect style="fill:#ffffff;fill-opacity:1;stroke:none;stroke-width:2.01819" id="rect70551" width="52.917" height="52.917" x="98.123192" y="131.84973"/>
    <path id="path12022" style="stroke-width:0.384759" d="m 127.262,143.38795 c -1.08681,0 -1.96784,0.88103 -1.96784,1.96784 0,1.0868 0.88103,1.96784 1.96784,1.96784 1.08681,0 1.96783,-0.88104 1.96783,-1.96784 0,-1.08681 -0.88103,-1.96784 -1.96783,-1.96784 z m -6.31693,3.85299 c -1.08682,0 -1.96784,0.88104 -1.96784,1.96784 0,1.08681 0.88103,1.96784 1.96784,1.96784 1.08681,0 1.96783,-0.88103 1.96783,-1.96784 0,-1.0868 -0.88103,-1.96784 -1.96783,-1.96784 z m 6.31693,0.77722 c -1.09018,0 -1.96784,0.87766 -1.96784,1.96784 v 3.58169 l 3.93567,-2.32647 V 149.986 c 0,-1.09018 -0.87765,-1.96784 -1.96783,-1.96784 z m 9.25472,1.89601 c -1.5055,-0.008 -2.96865,0.13171 -4.08554,0.85834 l -19.1213,11.1125 c -1.18657,-0.0142 -2.1572,-9.1e-4 -3.21531,0 h -0.004 v 5.2e-4 c -2.88416,0.31495 -5.06917,2.75003 -5.071,5.65133 8.9e-4,2.72436 1.89189,5.16227 4.56664,5.67976 0.36608,0.0208 0.73861,0.008 1.1064,0.008 0.005,1.8e-4 0.0103,3.5e-4 0.0155,5.2e-4 h 5.2e-4 v -5.2e-4 h 3.70003 c 2.47138,0 4.27261,-1.65016 5.83633,-2.4784 l 0.0176,-0.01 16.37678,-9.44387 1.8154,0.0232 v 0.009 h 5.1e-4 c 3.14168,0 5.68854,-2.54685 5.68854,-5.68854 -1.7e-4,-3.12242 -2.51715,-5.66108 -5.63946,-5.68803 v -0.003 c -0.62451,1.1e-4 -1.30314,-0.0271 -1.98747,-0.031 z m -15.57165,1.82469 c -1.09019,0 -1.96784,0.87766 -1.96784,1.96784 v 3.59513 l 3.93567,-2.32647 v -1.26866 c 0,-1.09018 -0.87764,-1.96784 -1.96783,-1.96784 z m 17.50952,0.35243 v 0.006 h 5.2e-4 c 1.95442,0 3.53881,1.58438 3.53881,3.5388 -2.9e-4,1.95039 -1.57861,3.53287 -3.52899,3.53828 v -0.003 l -2.4014,-0.0233 -16.85944,9.72086 c -1.86551,0.99358 -3.39588,2.21071 -4.79505,2.21071 h -3.70003 v -0.005 h -5.2e-4 c -1.95443,0 -3.5388,-1.58438 -3.5388,-3.5388 0.002,-1.77458 1.31744,-3.27354 3.07681,-3.50521 1.10518,0.005 2.37148,0 3.63751,0 l 19.74607,-11.47527 c 0.58682,-0.41012 0.98062,-0.40072 1.37512,-0.4532 z m -23.79492,5.82756 -2.25516,1.29346 -3.21324,-0.0119 0.74517,-1.01338 -1.63401,0.0124 -1.44487,1.55908 1.44487,1.55908 1.63401,0.0124 -0.74517,-1.01286 c 1.18563,-0.003 2.37125,-0.0105 3.55689,-0.0119 l 2.45876,-1.44022 z"/>
  </g>
</svg>