<?xml version="1.0" encoding="UTF-8" standalone="yes"?>
<svg width="52.917mm" height="52.917mm" viewBox="0 0 52.917 52.917" version="1.1" id="svg19069" xmlns="http://www.w3.org/2000/svg" xmlns:svg="http://www.w3.org/2000/svg">
  <defs id="defs19066"/>
  <g id="layer1" transform="translate(-129.44069,-175.90071)">
    <rect style="fill:#ffffff;fill-opacity:1;stroke:none;stroke-width:2.01819" id="rect70551" width="52.917" height="52.917" x="129.44069" y="175.90071"/>
    <path style="fill:#000000;stroke-width:1.5" d="m 141.3107,200.69052 c -1.17759,1.14654 -2.4009,2.24243 -3.625,3.33842 -0.54088,0.44931 0.42582,0.72594 0.71801,0.54565 1.37947,-0.66631 1.8787,-1.07523 2.77793,-1.73467 l 0.0645,12.28332 c -0.002,0.39734 0.42248,1.27384 0.98943,1.33355 l 1.65621,0.0215 -0.0215,-0.88188 -0.71554,0.0183 c -0.28335,-0.006 -0.33036,-0.17985 -0.31691,-0.40549 l 1.27929,-13.79506 0.0113,-0.12144 c 0.23952,-0.13603 0.21441,-0.0683 0.3194,0.0757 0.1312,0.36682 0.39558,0.18841 0.68157,0.0817 1.99242,-0.83537 3.17471,-1.50257 5.36578,-1.10383 -0.0559,0.76443 0.0757,1.44936 0.27962,2.17243 l -1.44112,12.23878 c -0.65758,0.52204 -0.68631,0.8168 -0.66678,1.65621 l 0.12905,0.12906 3.29092,-0.0645 1.50565,-8.15201 0.58075,6.53881 c -0.3505,0.54768 -0.34415,0.87536 -0.34415,1.54867 l 3.57054,-0.043 c -0.0349,-3.94689 -0.33184,-7.87274 -0.65399,-11.80298 -0.0129,-0.2011 0.003,-0.11021 0.13777,-0.22067 2.8875,1.32552 5.62357,1.36123 8.71125,1.37658 0.38122,3.13447 -0.78241,5.99149 -1.61319,8.96937 l -0.40868,0.45177 c -0.57887,0.31523 -0.53773,0.6668 -0.53773,1.29056 l 3.65658,-0.0215 c 1.07573,-3.08987 1.87112,-6.25226 2.66715,-9.42106 0.24136,0.63005 0.63403,1.12147 1.05395,1.63471 l 0.45894,6.04967 c 0.0751,0.4916 -0.34381,0.72025 -0.3729,1.08057 v 0.61309 l 3.57053,-0.0215 c 0.0543,-3.31163 -0.3462,-6.69477 -0.59412,-9.73231 -0.0646,-0.83112 -0.13435,-1.93519 -0.008,-2.76457 1.61846,-6.33177 1.31394,-12.76101 -5.74664,-14.78531 -1.68192,-0.45706 -3.32812,0.0753 -6.36483,0.27921 -3.65807,0.136 -5.25636,-0.82003 -8.02438,-1.09658 -3.63963,-0.25599 -4.70794,0.20264 -6.75074,0.5892 -3.1084,0.54144 -4.54605,8.05222 -5.26977,11.85153 z" id="path17602"/>
  </g>
</svg>