<?xml version="1.0" encoding="UTF-8" standalone="yes"?>
<svg width="52.917mm" height="52.917mm" viewBox="0 0 52.917 52.917" version="1.1" id="svg34462" xmlns="http://www.w3.org/2000/svg" xmlns:svg="http://www.w3.org/2000/svg">
  <defs id="defs34459"/>
  <g id="layer1" transform="translate(-52.315689,-148.83182)">
    <rect style="fill:#ffffff;fill-opacity:1;stroke:none;stroke-width:2.01819" id="rect70551" width="52.917" height="52.917" x="52.315689" y="148.83182"/>
    <path id="rect33856" style="stroke-width:3;paint-order:fill markers stroke" d="M 78.774188,158.19935 60.914813,168.6571 v 2.58641 l 17.859892,-10.45828 17.858858,10.45828 v -2.58692 z m 7.363892,13.9454 a 2.5504031,2.5504031 0 0 0 -2.550232,2.55023 2.5504031,2.5504031 0 0 0 2.550232,2.55023 2.5504031,2.5504031 0 0 0 2.518709,-2.15439 c 1.004242,0.3858 1.663935,1.05843 2.149739,2.22105 0.210582,-2.1224 -0.03358,-3.04217 -2.120284,-2.72283 a 2.5504031,2.5504031 0 0 0 -2.548164,-2.44429 z m -13.727844,0.0222 a 2.5504031,2.5504031 0 0 0 -2.550232,2.55023 2.5504031,2.5504031 0 0 0 2.550232,2.55023 2.5504031,2.5504031 0 0 0 2.550231,-2.55023 2.5504031,2.5504031 0 0 0 -2.550231,-2.55023 z m -2.159042,5.51181 c -0.761125,0.0108 -1.509657,0.36978 -1.997811,1.03766 l -3.477824,4.75836 c -0.70824,0.96899 -0.630189,2.26198 0.118339,3.12332 l 1.662948,2.1575 h -3.095418 c -0.718748,0 -1.297079,0.57833 -1.297079,1.29707 0,0.71875 0.578331,1.2976 1.297079,1.2976 h 5.766573 c 0.35726,0 0.679468,-0.1431 0.913639,-0.37517 0.570846,-0.48499 0.603608,-1.295 0.204122,-1.94355 l -1.524455,-2.55437 c 0.01252,-0.0163 2.507858,-3.3414 2.507858,-3.3414 l 1.351855,5.11804 c 0.141845,0.5488 0.697633,0.87668 1.246436,0.73484 0.548801,-0.14185 0.876683,-0.69815 0.734838,-1.24696 -0.495683,-2.10327 -1.320717,-5.7157 -1.89084,-8.17314 -0.146657,-0.63214 -0.587998,-1.08507 -1.019059,-1.41025 -0.4534,-0.33139 -0.98043,-0.48691 -1.501201,-0.47955 z m 18.223177,0.008 c -0.02487,2.5e-4 -0.04952,8.8e-4 -0.07441,0.002 -2.129187,0.0962 -2.471039,1.41072 -2.726965,2.4846 l -1.878955,7.53959 c -0.06602,0.26496 -0.03345,0.53292 0.08113,0.75396 h -4.102076 v -2.04019 h -2.15129 l -1.796272,1.88464 v 2.01849 h 1.740979 a 1.0866935,1.0866935 0 0 0 -0.587561,0.96479 1.0866935,1.0866935 0 0 0 1.086755,1.08624 1.0866935,1.0866935 0 0 0 1.086239,-1.08624 1.0866935,1.0866935 0 0 0 -0.586011,-0.96479 h 3.303157 a 1.0866935,1.0866935 0 0 0 -0.588077,0.96479 1.0866935,1.0866935 0 0 0 1.086755,1.08624 1.0866935,1.0866935 0 0 0 1.086755,-1.08624 1.0866935,1.0866935 0 0 0 -0.58601,-0.96479 h 1.384411 v -1.47278 c 0.05442,0.03 0.112802,0.0552 0.175183,0.0749 0.513317,0.16218 1.056865,-0.12026 1.219047,-0.63355 l 1.561662,-4.94234 2.199866,3.08457 c 0.07397,0.10372 0.154066,0.20023 0.239262,0.2899 -0.567166,0.88803 -1.82057,2.2862 -1.837614,3.38843 0,0.73103 0.588784,1.31981 1.319816,1.31981 h 5.956742 c 0.731032,0 1.3193,-0.58878 1.3193,-1.31981 0,-0.73104 -0.588268,-1.3193 -1.3193,-1.3193 h -2.826184 l 1.39113,-2.26705 c 0.657102,-0.96406 0.654088,-2.35363 0.0863,-3.18017 l -3.249417,-4.55583 c -0.488015,-0.68424 -1.243429,-1.11793 -2.014347,-1.11001 z"/>
  </g>
</svg>