<?xml version="1.0" encoding="UTF-8" standalone="yes"?>
<svg width="52.917mm" height="52.917mm" viewBox="0 0 52.917 52.917" version="1.1" id="svg9008" xmlns="http://www.w3.org/2000/svg" xmlns:svg="http://www.w3.org/2000/svg">
  <defs id="defs9005"/>
  <g id="layer1" transform="translate(-78.506737,-121.86942)">
    <rect style="display:inline;fill:#ffffff;fill-opacity:1;stroke:none;stroke-width:2.01819" id="rect70551-3" width="52.917" height="52.917" x="78.506737" y="121.86942"/>
    <path id="path8966" style="display:inline;fill:#000000;stroke-width:0.499999" d="m 88.790255,131.46461 v 33.68374 H 99.11469 v -7.44244 h 4.19664 c 0.90603,0.002 1.93322,-0.61396 1.93322,-1.53118 v -5.30872 c 1.18049,-0.79918 1.48448,-1.53102 0.28008,-2.45204 l -0.002,-0.52607 c 1.5801,-0.48943 0.85917,-1.48016 -0.0238,-2.36626 v -2.78588 h 3.59203 c 1.34029,-0.0344 1.60782,-1.52611 0.93793,-2.57504 l -4.50412,-7.53442 v -1.16169 z m 20.166725,13.76867 c -0.82221,0 -1.48414,0.66194 -1.48414,1.48415 v 10.41073 l -2.3611,4.03645 1.18701,4.02663 h 14.84147 v -8.08633 c -0.0103,-0.85281 -0.56939,-1.48164 -1.23455,-1.64021 -0.69464,-0.1656 -1.50353,0.17892 -1.85673,1.18442 l -0.31316,0.0145 c 0.19776,-1.08565 -0.0191,-1.89716 -1.07384,-2.23655 -0.83004,-0.26708 -1.81692,0.0233 -2.07894,1.26297 l -0.60772,-0.13074 c 0.17786,-0.97714 0.17813,-1.5768 -0.77049,-2.096 -0.79933,-0.34588 -2.10088,0.15949 -2.22364,1.54254 l -0.45424,-0.0186 v -8.26978 c 0,-0.82221 -0.66193,-1.48415 -1.48414,-1.48415 z"/>
  </g>
</svg>