<?xml version="1.0" encoding="UTF-8" standalone="yes"?>
<svg width="52.917mm" height="52.917mm" viewBox="0 0 52.917 52.917" version="1.1" id="svg4163" xmlns="http://www.w3.org/2000/svg" xmlns:svg="http://www.w3.org/2000/svg">
  <defs id="defs4160"/>
  <g id="layer1" transform="translate(-33.864082,-47.702789)">
    <rect style="fill:#ffffff;fill-opacity:1;stroke:none;stroke-width:2.01819" id="rect70551" width="52.917" height="52.917" x="33.864082" y="47.702789"/>
    <path id="path2594" style="color:#000000;fill:#000000;fill-opacity:1;stroke-width:0.999792;stroke-linecap:round" d="m 69.387667,58.36333 c -3.66118,-0.0178 -7.92078,0.72666 -12.291759,2.27738 -5.379665,1.90859 -9.917822,4.68025 -12.941329,7.67137 -2.496308,2.46955 -4.00839,5.14723 -3.937745,7.62589 l -0.0031,-0.002 v 8.65632 c 0.106199,0.37632 0.276072,0.68666 0.4439,1.03043 1.199397,2.43966 4.264551,3.78926 8.054806,4.20336 4.134269,0.45169 9.344526,-0.2365 14.724167,-2.14509 5.37964,-1.90859 9.91835,-4.67872 12.94185,-7.66981 1.75457,-1.73579 3.35876,-4.08385 3.93257,-5.88388 0.0947,-0.31478 0.0675,-0.20303 0.12041,-0.43874 v -9.0359 c -0.120859,-0.86399 -0.06393,-1.00516 -0.32163,-1.64086 -0.694154,-1.57028 -2.171339,-2.73692 -4.09981,-3.50583 -1.21421,-0.50462 -2.63298,-0.83972 -4.1894,-1.00976 -0.77518,-0.0847 -1.58804,-0.12923 -2.43293,-0.13333 z m -0.0258,1.23921 c 0.80664,0.003 1.5787,0.0452 2.30994,0.12505 3.89538,0.42559 6.52002,1.90535 7.24193,4.1274 0.021,0.0657 0.0403,0.13218 0.0579,0.19895 0.067,0.25433 0.10846,0.51634 0.12713,0.78497 v 0.64285 c -0.0907,1.36028 -0.7438,2.86214 -1.90738,4.39922 0.28877,-1.02129 0.30901,-2.02523 0.003,-2.97501 -0.78154,-2.42233 -3.44419,-3.77982 -6.92361,-4.15996 -3.47941,-0.38013 -7.86553,0.19879 -12.393044,1.80506 -4.527523,1.60627 -8.345711,3.93761 -10.890292,6.4549 -2.544579,2.51733 -3.876438,5.29244 -3.094902,7.71478 0.165986,0.51446 0.417961,0.98021 0.743624,1.3994 -1.473184,-0.68906 -2.490844,-1.65085 -2.947107,-2.83704 -0.0028,-0.007 -0.005,-0.0145 -0.0078,-0.0217 -0.02269,-0.06 -0.04374,-0.12077 -0.06356,-0.18191 -5.72e-4,-0.002 -0.0015,-0.003 -0.0021,-0.005 -0.02029,-0.0629 -0.03811,-0.12631 -0.05529,-0.19017 -0.578224,-2.19402 0.662124,-4.95555 3.425114,-7.68894 2.852109,-2.82157 7.254421,-5.52948 12.48761,-7.38611 4.251967,-1.50851 8.393757,-2.22095 11.889197,-2.20658 z m -1.16686,4.05608 c 0.67887,0.003 1.32867,0.0382 1.94407,0.10542 3.28219,0.35859 5.49329,1.60772 6.09782,3.48144 0.42239,1.30916 0.0439,2.87436 -1.04076,4.50877 0.35254,-1.01439 0.41164,-2.01432 0.10852,-2.95383 -0.21575,-0.66871 -0.59515,-1.24444 -1.10846,-1.73064 l -0.56069,0.72244 c 0.39057,0.38385 0.67111,0.82108 0.82786,1.30689 0.45942,1.42397 -0.16083,3.19389 -1.70222,4.99608 -2.6321,1.93264 -5.95148,3.70037 -9.70122,5.0307 -4.970462,1.76341 -9.788862,2.44039 -13.601757,2.13889 -1.327433,-0.54253 -2.217223,-1.35789 -2.550232,-2.39004 -0.530737,-1.64497 0.377778,-3.74951 2.48512,-5.83427 0.417594,-0.41309 0.882027,-0.82246 1.385445,-1.22473 l -0.572058,-0.67696 c -0.513005,0.41236 -0.988923,0.83388 -1.421619,1.26194 -2.23397,2.21004 -3.404317,4.64609 -2.71818,6.77271 0.195815,0.60692 0.527022,1.13769 0.970483,1.59422 -1.116833,-0.59961 -1.872062,-1.40725 -2.18798,-2.38642 -0.604539,-1.87369 0.428934,-4.27406 2.829285,-6.64869 2.400341,-2.37459 6.106724,-4.65258 10.510986,-6.21512 3.578457,-1.26956 7.063867,-1.87041 10.005587,-1.8588 z m -0.76688,1.39164 c -2.46427,-0.0116 -5.29571,0.44577 -8.221715,1.3932 l 0.235128,0.86248 c 2.851107,-0.92367 5.605537,-1.36294 7.962307,-1.3534 0.59598,0.002 1.16658,0.0335 1.70687,0.0925 0.30911,0.0338 0.60507,0.0783 0.89194,0.1297 l 0.006,-0.91622 c -0.25579,-0.0424 -0.5155,-0.0808 -0.7829,-0.11007 -0.57275,-0.0626 -1.17355,-0.0952 -1.79783,-0.0982 z m 3.45819,0.38293 -0.006,0.93586 c 0.80903,0.21514 1.50567,0.5085 2.0681,0.8754 l 0.56017,-0.72141 c -0.72202,-0.48389 -1.61139,-0.84589 -2.62207,-1.08985 z m -7.0559,1.19011 -15.808852,9.22734 9.624219,4.53099 15.808853,-9.22734 z m -5.457545,0.10128 c -0.009,0.003 -0.01788,0.006 -0.02687,0.009 -1.26275,0.448 -2.462044,0.96058 -3.583244,1.52187 l 0.454236,0.76894 c 1.061206,-0.52808 2.196324,-1.01236 3.390491,-1.4366 z m 5.504575,1.19683 6.97012,3.46955 -13.248808,7.69256 -6.970118,-3.46956 z m -9.895005,0.74104 c -1.120588,0.60383 -2.151963,1.25604 -3.078365,1.94045 l 0.573608,0.67954 c 0.887011,-0.64945 1.878198,-1.27364 2.957959,-1.85311 z m 25.116295,0.53537 v 3.78168 c -0.0671,0.78991 -0.32409,1.62673 -0.75602,2.48925 -0.0915,-0.46313 -0.30567,-1.17698 -0.61492,-0.86713 l -0.35036,0.39791 c -0.23144,0.26229 -0.45631,0.44125 -0.45631,0.82992 v 1.81074 c -0.4034,0.50125 -0.85828,1.00532 -1.36684,1.50844 -1.47485,1.45903 -3.36719,2.88578 -5.57175,4.18166 l 0.0817,-0.81184 c 0.0388,-0.38674 -0.32976,-0.87877 -0.63149,-0.70177 l -0.63407,0.37207 c -0.30172,0.177 -0.63149,0.31309 -0.63149,0.70177 v 1.43867 c -1.58206,0.81546 -3.29024,1.56159 -5.10098,2.204 -2.30676,0.81839 -4.58041,1.40197 -6.736537,1.7632 v -1.31155 c 0,-0.38868 -0.285294,-0.75196 -0.631485,-0.70176 l -0.80667,0.11679 c -0.346191,0.0502 -0.631486,0.31308 -0.631486,0.70176 v 1.47536 c -1.950115,0.20408 -3.772875,0.2162 -5.392435,0.0393 -1.585053,-0.17317 -2.959723,-0.52082 -4.081405,-1.02216 0.0015,-0.02 0.0026,-0.0401 0.0026,-0.0599 V 85.6868 c 0,-0.38868 -0.30116,-0.58665 -0.631486,-0.70176 l -0.771529,-0.26872 c -0.330324,-0.11511 -0.631486,0.31308 -0.631486,0.70176 v 0.84233 c -0.534196,-0.52229 -0.917631,-1.11781 -1.131197,-1.77974 -0.02872,-0.089 -0.054,-0.17928 -0.07648,-0.27026 v -4.82968 c 1.40873,1.64113 3.827428,2.63226 6.775814,3.01273 0.13893,0.0101 0.221803,0.0139 0.344682,0.0222 0.01318,10e-4 0.02608,0.003 0.03927,0.005 4.134286,0.45168 9.3445,-0.23701 14.72417,-2.1456 5.37966,-1.90859 9.91833,-4.67871 12.94184,-7.66982 0.99286,-0.98221 1.82911,-1.9975 2.47324,-3.01997 0.0911,-0.12576 0.17637,-0.25419 0.25321,-0.38705 z"/>
  </g>
</svg>