<?xml version="1.0" encoding="UTF-8" standalone="yes"?>
<svg width="52.917mm" height="52.917mm" viewBox="0 0 52.917 52.917" version="1.1" id="svg13737" xmlns="http://www.w3.org/2000/svg" xmlns:svg="http://www.w3.org/2000/svg">
  <defs id="defs13734"/>
  <g id="layer1" transform="translate(-154.57007,-50.478642)">
    <rect style="fill:#ffffff;fill-opacity:1;stroke:none;stroke-width:2.01819" id="rect70551" width="52.917" height="52.917" x="154.57007" y="50.478642"/>
    <path id="rect13685" style="display:inline;fill:#000000;stroke-width:0.799999;stroke-linecap:round" d="m 165.50264,60.336093 v 0.72502 h 0.42478 v 21.0013 h 5.2e-4 v 0.77514 h -2.35024 v 10.70064 h 14.09216 v -4.41937 c 0,-1.86084 1.49812,-3.35896 3.35897,-3.35896 1.86084,0 3.35845,1.49812 3.35845,3.35896 v 4.41937 h 14.09216 v -10.70064 h -2.35024 v -2.40037 l -15.65538,-2.36884 -13.34595,2.17351 v -11.31197 c 0.4154,-0.22275 0.94598,-0.46135 1.34203,-0.47749 2.04904,-0.0836 3.5716,2.0825 5.72782,2.0686 1.15003,-0.007 1.71462,-0.21239 1.71462,-0.21239 v -6.29367 c 0,0 -0.45961,0.23209 -1.83813,0.21239 -1.2968,-0.0185 -3.15795,-1.95554 -5.33921,-2.06861 -0.41029,-0.0213 -1.09722,0.23385 -1.60713,0.45424 v -1.55184 h 0.42478 v -0.72502 z"/>
  </g>
</svg>