<?xml version="1.0" encoding="UTF-8" standalone="yes"?>
<svg width="52.917mm" height="52.917mm" viewBox="0 0 52.917 52.917" version="1.1" id="svg9715" xmlns="http://www.w3.org/2000/svg" xmlns:svg="http://www.w3.org/2000/svg">
  <defs id="defs9712"/>
  <g id="layer1" transform="translate(-156.63828,-101.99311)">
    <rect style="fill:#ffffff;fill-opacity:1;stroke:none;stroke-width:2.01819" id="rect70551" width="52.917" height="52.917" x="156.63828" y="101.99311"/>
    <path id="path9189" style="display:inline;fill:#000000;stroke-width:1.8" d="m 200.05827,114.61058 c -0.0395,2.8e-4 -0.0788,0.001 -0.11834,0.003 h -9.5095 l -8.40517,3.13624 h -16.49771 c -0.78819,0 -1.70234,0.31589 -1.9668,1.1374 l -2.68821,8.18193 c -0.30587,0.93092 -0.32025,1.72758 0.0667,2.65617 l 3.02049,8.03465 h 3.98994 c 0.33584,-2.65102 2.59,-4.6391 5.26221,-4.64106 2.67339,4e-4 4.92932,1.98887 5.26531,4.64106 h 12.43077 c 0.33584,-2.65102 2.59,-4.6391 5.26221,-4.64106 2.67339,4e-4 4.92932,1.98887 5.26531,4.64106 h 4.11241 v -8.40569 l -3.44992,-7.77834 c -0.17334,-0.46223 -0.21695,-0.80111 0.42582,-0.75241 h 0.87591 c 1.08113,-0.0111 1.20663,-1.1071 0.70332,-2.11408 l -1.1343,-2.50476 c -0.50815,-1.12218 -1.61357,-1.5706 -2.79208,-1.59266 v -5.2e-4 c -0.0393,-5e-4 -0.0789,-8.1e-4 -0.11834,-5.2e-4 z m -5.59604,6.78304 c 0.0217,-0.002 0.0335,0.0124 0.0279,0.0496 h 5.58312 c 0.17201,0 0.31057,0.13857 0.31057,0.31058 l 2.88303,7.49567 0.0222,2.81688 c 0.001,0.172 -0.14743,0.31072 -0.31057,0.31006 l -3.20343,-0.0129 -0.96583,-2.49287 h -4.31911 c -0.17201,0 -0.31058,-0.13857 -0.31058,-0.31058 v -7.80624 c 0,-0.13438 0.20512,-0.35247 0.28267,-0.36019 z m -28.09855,0.0941 h 8.16126 c 0.17201,0 0.31058,0.13856 0.31058,0.31057 v 4.78989 c 0,0.17201 -0.13857,0.31057 -0.31058,0.31057 h -8.16126 c -0.17201,0 -0.31058,-0.13856 -0.31058,-0.31057 v -4.78989 c 0,-0.17201 0.13857,-0.31057 0.31058,-0.31057 z m 18.3317,0.0155 c 1.7392,2e-5 3.1491,1.33542 3.14916,2.98276 -5e-5,1.64734 -1.40996,2.98275 -3.14916,2.98277 -1.7392,-2e-5 -3.14911,-1.33543 -3.14916,-2.98277 6e-5,-1.64734 1.40996,-2.98274 3.14916,-2.98276 z m 0,6.24303 c 1.94734,1.1e-4 3.52588,0.94334 3.52588,2.10685 -1e-5,1.1635 -1.57854,2.10673 -3.52588,2.10684 -1.94754,6e-5 -3.52639,-0.94322 -3.5264,-2.10684 1e-5,-1.16363 1.57886,-2.10691 3.5264,-2.10685 z m 0,1.04386 c -1.11626,-1.2e-4 -2.02126,0.43652 -2.02106,0.97514 -1.9e-4,0.53861 0.9048,0.97525 2.02106,0.97513 1.11606,-10e-6 2.02073,-0.43662 2.02055,-0.97513 1.9e-4,-0.53852 -0.90449,-0.97513 -2.02055,-0.97514 z m -3.40806,2.03709 c 0.21302,0.27801 0.23283,0.28788 0.38951,0.46514 l -0.02,0.48932 v 0.002 c 0.24836,1.43711 1.57307,1.26485 1.66611,2.31645 0.0299,0.29084 0.0245,0.52758 0.0258,0.76378 0.0272,0.59948 0.74376,1.05689 1.34612,1.07831 0.60222,0.003 1.36125,-0.50818 1.35241,-1.07831 0.001,-0.2362 -0.0124,-0.47294 0.0175,-0.76378 0.0555,-1.19355 1.38078,-0.80528 1.66813,-2.31645 v -0.002 l 0.0113,-0.52801 c 0.14025,-0.14143 0.144,-0.14665 0.35711,-0.42387 l 0.003,0.9431 c 0.007,0.60868 -0.33531,1.06449 -0.66817,1.35754 -0.33197,0.29223 -0.66939,0.49699 -0.8046,0.64027 l -0.002,0.002 c -0.15555,0.17361 -0.18173,0.26794 -0.19741,0.42013 -0.0159,0.15449 0.01,0.38252 0.006,0.69505 v 0.008 l -0.002,0.008 c -0.0249,0.5246 -0.28106,0.96686 -0.65215,1.18184 -0.31004,0.17961 -0.64819,0.22921 -0.98858,0.24081 v 0.004 c -0.0336,0 -0.0672,-5.9e-4 -0.10076,-0.001 -0.0334,4.8e-4 -0.0669,5.2e-4 -0.10026,5.2e-4 v -0.003 c -0.34049,-0.0115 -0.67843,-0.0611 -0.98857,-0.24081 -0.3711,-0.21498 -0.62932,-0.65673 -0.65422,-1.18133 v -0.008 -0.008 c -0.004,-0.31253 0.0216,-0.54107 0.006,-0.69556 -0.0159,-0.1539 -0.0428,-0.24633 -0.20309,-0.42375 -0.13633,-0.14321 -0.47194,-0.34765 -0.80253,-0.63872 -0.33286,-0.29305 -0.67291,-0.74881 -0.66611,-1.35754 z m -8.07548,3.73414 c -2.13498,4e-5 -3.86564,1.73093 -3.8654,3.86591 4e-5,2.13478 1.73061,3.86536 3.8654,3.8654 2.13479,-4e-5 3.86536,-1.73061 3.8654,-3.8654 2.5e-4,-2.13498 -1.73041,-3.86587 -3.8654,-3.86591 z m 22.95829,0 c -2.13498,4e-5 -3.86564,1.73093 -3.86539,3.86591 3e-5,2.13478 1.73061,3.86536 3.86539,3.8654 2.13479,-4e-5 3.86536,-1.73062 3.8654,-3.8654 2.4e-4,-2.13498 -1.73041,-3.86587 -3.8654,-3.86591 z"/>
  </g>
</svg>