<?xml version="1.0" encoding="UTF-8" standalone="yes"?>
<svg width="52.917mm" height="52.917mm" viewBox="0 0 52.917 52.917" version="1.1" id="svg70418" xml:space="preserve" xmlns="http://www.w3.org/2000/svg" xmlns:svg="http://www.w3.org/2000/svg">
  <defs id="defs70415"/>
  <g id="layer1" transform="translate(-127.52541,-72.774986)" style="display:inline">
    <rect style="fill:#ffffff;fill-opacity:1;stroke:none;stroke-width:2.01819" id="rect70551" width="52.917" height="52.917" x="127.52541" y="72.774986"/>
    <path id="rect3991" style="display:inline;fill:#181818;fill-opacity:1;stroke-width:1.2" d="m 164.59825,81.237304 c -1.52076,0 -2.74505,1.224301 -2.74505,2.745052 v 13.661702 c 0.0429,-0.004 0.0863,-0.007 0.13022,-0.007 h 8.06979 c 0.7787,0 1.4056,0.6269 1.4056,1.4056 v 0.0336 c 0,0.7787 -0.6269,1.405602 -1.4056,1.405602 h -1.6185 l -3.67316,3.96875 h -2.90835 v 10.03401 c 0,1.52076 1.22429,2.74505 2.74505,2.74505 h 9.81646 V 81.237304 Z m -31.04513,3.889685 v 0.802535 14.373286 l 0.21859,0.17932 c 3.38564,2.78093 6.63168,6.93867 9.72447,9.46092 l 0.0997,0.0801 0.12093,0.0336 c 1.40588,0.38525 3.28846,0.99059 5.06274,1.36115 1.77429,0.37057 3.45344,0.604 4.63279,-0.16795 l 0.0119,-0.01 0.0114,-0.008 c 1.69605,-1.23273 3.03805,-3.24465 5.19142,-5.87303 l 0.80305,-0.9803 h -7.08225 l -0.15607,0.11317 c -1.17724,0.8409 -2.07341,0.93671 -2.82463,0.69918 -0.75121,-0.23753 -1.41409,-0.87594 -1.91203,-1.71876 -0.49794,-0.84281 -0.81507,-1.87169 -0.90795,-2.75383 -0.0836,-0.794192 0.086,-1.343352 0.24391,-1.605592 0.21746,0.0578 0.54967,0.17579 0.98443,0.34003 0.81394,0.30748 1.95409,0.753672 3.38068,1.192182 l -2.0252,2.34146 h 14.87351 l 3.64835,-4.069522 h -7.15615 v -4.583186 h -3.88193 l -1.19218,1.378206 c -3.66426,-1.344224 -6.94107,-2.14725 -10.28361,-3.956343 -1.83919,-1.520117 -3.88473,-3.33396 -5.97638,-4.617289 l -0.002,-0.0021 c -1.64043,-0.994308 -3.26891,-1.318461 -4.83795,-1.783354 z m 1.19889,1.65778 c 1.31897,0.36939 2.59246,0.654166 3.7853,1.377177 1.97923,1.214761 4.02698,3.022114 5.9061,4.572331 l 0.045,0.03721 0.0512,0.02739 c 3.55611,1.930345 6.95699,2.738366 10.61123,4.089676 l 0.008,0.004 0.008,0.002 c 1.69153,0.57255 2.30717,1.81526 2.17972,2.59571 -0.0637,0.39021 -0.26886,0.692027 -0.72502,0.892447 -0.45616,0.20041 -1.20328,0.27074 -2.26912,-0.0176 l -2.36729,-0.722957 -0.004,-0.002 c -1.60205,-0.46715 -2.86024,-0.96263 -3.78116,-1.31052 -0.46046,-0.17395 -0.83291,-0.31237 -1.15652,-0.39429 -0.1618,-0.041 -0.3107,-0.0701 -0.48628,-0.0682 -0.17559,0.002 -0.42822,0.0437 -0.6227,0.2558 -0.61484,0.67027 -0.69219,1.65832 -0.58032,2.720757 0.11187,1.06244 0.4701,2.2249 1.06867,3.23805 0.59856,1.01316 1.45023,1.89362 2.58382,2.25206 1.06625,0.33713 2.33548,0.0968 3.6406,-0.75396 h 4.26382 c -1.68083,2.10216 -2.94875,3.77665 -4.16408,4.66586 -0.55388,0.35712 -2.04217,0.34653 -3.72071,-0.004 -1.6344,-0.34135 -3.41514,-0.90769 -4.84569,-1.30432 -2.8252,-2.32788 -5.99991,-6.29581 -9.42785,-9.172047 z"/>
  </g>
</svg>