<?xml version="1.0" encoding="UTF-8" standalone="yes"?>
<svg width="52.917mm" height="52.917mm" viewBox="0 0 52.917 52.917" version="1.1" id="svg70418" xml:space="preserve" xmlns="http://www.w3.org/2000/svg" xmlns:svg="http://www.w3.org/2000/svg">
  <defs id="defs70415"/>
  <g id="layer1" transform="translate(-156.02582,-53.323505)">
    <rect style="fill:#ffffff;fill-opacity:1;stroke:none;stroke-width:2.01819" id="rect70551" width="52.917" height="52.917" x="156.02582" y="53.323505"/>
    <path id="path1534" style="color:#000000;fill:#000000;-inkscape-stroke:none" d="m 188.709,60.560956 c -1.1172,-1.29e-4 -2.02297,0.90542 -2.02313,2.022615 -1.3e-4,1.117397 0.90573,2.023261 2.02313,2.023132 1.1172,-1.58e-4 2.02274,-0.905938 2.02261,-2.023132 -1.6e-4,-1.116992 -0.90562,-2.022457 -2.02261,-2.022615 z m -0.78755,4.850866 c -0.48637,-0.01625 -0.98164,0.181953 -1.35857,0.672311 l -2.61535,3.401859 c -0.0641,0.08332 -0.10586,0.176775 -0.12609,0.272852 -0.013,0.0427 -0.0219,0.08764 -0.0264,0.133842 l -0.4899,4.953703 c -0.0371,0.37546 0.23536,0.707539 0.61082,0.744657 0.37546,0.03712 0.70754,-0.235355 0.74466,-0.610815 l 0.4532,-4.589384 c 0.001,-0.0016 0.003,-0.003 0.004,-0.0047 l 0.91984,-1.196826 c -0.1526,5.618242 -0.81117,11.098677 -1.40611,16.707507 -0.0725,0.683254 0.419,1.291775 1.10226,1.364258 0.68324,0.07248 1.29177,-0.419521 1.36425,-1.102775 l 1.1157,-10.518221 c 0.044,-0.02 0.0867,-0.04213 0.12867,-0.06563 l 3.17087,2.843755 -0.71624,4.091739 c -0.0993,0.567483 0.33582,1.112481 0.90331,1.211813 0.56748,0.09933 1.10421,-0.277426 1.20354,-0.84491 l 0.85421,-4.879289 c 0.0509,-0.290826 -0.0237,-0.573271 -0.18448,-0.793233 -0.0491,-0.07352 -0.10825,-0.142184 -0.17777,-0.203605 -1.36938,-1.21539 -2.55625,-2.183935 -3.92431,-3.391524 l 0.093,-1.603003 2.57969,2.184363 c 0.28401,0.248364 0.71281,0.219419 0.96118,-0.0646 0.24836,-0.284011 0.21941,-0.7123 -0.0646,-0.960665 l -3.29385,-3.10317 -0.0284,-2.752803 c 0.0266,-1.053946 -0.86879,-1.866538 -1.79731,-1.897559 z m -16.88062,4.538225 a 2.0228963,2.0228963 0 0 0 -2.02314,2.023132 2.0228963,2.0228963 0 0 0 2.02314,2.022615 2.0228963,2.0228963 0 0 0 2.02261,-2.022615 2.0228963,2.0228963 0 0 0 -2.02261,-2.023132 z m 0.52916,4.470528 c -1.00773,0 -1.81901,0.811283 -1.81901,1.81901 v 3.096452 l -3.40031,2.828768 c -0.30551,0.254106 -0.34713,0.704242 -0.093,1.009757 l 0.015,0.01809 c 0.25411,0.305517 0.70476,0.347121 1.01028,0.09302 l 2.46806,-2.052588 v 12.584761 c 0,0.650445 0.52365,1.174089 1.17409,1.174089 0.65045,0 1.17409,-0.523644 1.17409,-1.174089 v -4.400248 l 2.41691,1.908411 c 0.51049,0.403048 1.24608,0.314666 1.64847,-0.196371 0.40239,-0.511035 0.31466,-1.245944 -0.19585,-1.648995 l -3.86953,-3.054594 v -0.33538 l 1.28984,-2.045869 V 82.291934 79.18308 78.293728 l 0.99632,1.371493 0.26304,4.44314 c 0.0235,0.396687 0.36192,0.69682 0.75861,0.673343 l 0.0232,-0.001 c 0.39669,-0.02348 0.69682,-0.361923 0.67335,-0.75861 l -0.27544,-4.656563 c -0.01,-0.164155 -0.0732,-0.311786 -0.1726,-0.426848 v -5.17e-4 c -0.0122,-0.02086 -0.0258,-0.041 -0.0403,-0.06098 -0.9534,-1.182704 -1.82642,-2.583145 -2.63446,-3.787882 -0.33292,-0.408425 -0.84032,-0.668693 -1.41077,-0.668693 z m 17.15451,10.738362 v 3.82819 h -7.80469 v 4.045232 h -7.40833 v 3.570324 h -7.46466 v 2.400371 h 9.86554 v -3.572392 h 7.40782 v -4.043164 h 7.80469 v -3.827674 h 7.79694 v -2.400887 z"/>
  </g>
</svg>