<?xml version="1.0" encoding="UTF-8" standalone="yes"?>
<svg width="52.917mm" height="52.917mm" viewBox="0 0 52.917 52.917" version="1.1" id="svg37575" xmlns="http://www.w3.org/2000/svg" xmlns:svg="http://www.w3.org/2000/svg">
  <defs id="defs37572"/>
  <g id="layer1" transform="translate(-87.08989,-142.08989)">
    <rect style="fill:#ffffff;fill-opacity:1;stroke:none;stroke-width:2.01819" id="rect70551" width="52.917" height="52.917" x="87.08989" y="142.08989"/>
    <path id="rect36191" style="display:inline;fill:#1f0000;stroke-width:1.104;paint-order:fill markers stroke" d="m 109.26209,151.39646 -14.149013,3.175 v 0.0631 8.69352 17.07648 h 8.355053 v -5.2e-4 h 0.22014 c -0.006,-0.0415 -0.03,-0.22427 -0.03,-0.22427 l -0.006,-0.0393 -0.0253,-0.0294 -1.60352,-1.83193 v -0.002 l -0.002,-0.002 c -0.10593,-0.13453 -0.20155,-0.48892 -0.1757,-0.81442 0.026,-0.32716 0.15208,-0.60309 0.41186,-0.69298 l 13.48238,-4.0075 0.0139,-0.002 5.97845,-1.93373 8.81186,2.31355 c -1.59801,0.61074 -20.09955,7.81503 -20.09955,7.81503 l -6.92257,-3.95222 -0.88832,0.0233 7.20266,5.44928 21.32842,-8.53591 -0.86558,-0.14056 -0.0553,-0.15503 1.24799,-0.52814 -9.76736,-2.5647 -5.94279,1.92081 v -17.83508 h -6.52002 z m -13.156303,4.16926 H 114.7894 c 0.0956,0 0.17208,0.077 0.17208,0.1726 v 16.97725 l -3.98735,1.18494 h -5.23585 v 0.19017 h 4.5961 l -3.86695,1.14929 h -0.72915 v 0.19017 h 0.0894 l -3.65353,1.08572 -0.002,0.002 c -0.39168,0.13554 -0.559,0.53633 -0.58962,0.92191 -0.0306,0.38558 0.0519,0.77622 0.23616,1.00614 l 0.002,0.002 1.05214,1.20303 h -6.767033 c -0.0956,0 -0.17208,-0.077 -0.17208,-0.1726 v -23.73963 c 0,-0.0956 0.0765,-0.1726 0.17208,-0.1726 z m 2.04173,5.01416 v 1.24024 h 14.656473 v -1.24024 z m 0,2.90008 v 0.339 h 6.734993 v -0.339 z m 7.590763,0 v 0.339 h 7.06571 v -0.339 z m -7.590763,1.23352 v 0.339 h 6.734993 v -0.339 z m 7.590763,0 v 0.339 h 7.06571 v -0.339 z m -7.590763,1.45831 v 0.19017 h 6.734993 v -0.19017 z m 7.590763,0 v 0.19017 h 7.06571 v -0.19017 z m -7.590763,1.14721 v 0.19017 h 6.734993 V 167.319 Z m 7.590763,0 v 0.19017 h 7.06571 V 167.319 Z m -7.590763,1.25678 v 0.19016 h 6.734993 v -0.19016 z m 7.590763,0 v 0.19016 h 7.06571 v -0.19016 z m -7.590763,1.42213 v 0.19017 h 6.734993 v -0.19017 z m 7.590763,0 v 0.19017 h 7.06571 v -0.19017 z m -7.590763,1.33945 v 0.19017 h 6.734993 v -0.19017 z m 7.590763,0 v 0.19017 h 7.06571 v -0.19017 z m -7.590763,1.25677 v 0.19017 h 6.734993 v -0.19017 z m 7.590763,0 v 0.19017 h 7.06571 v -0.19017 z m -7.590763,1.30638 v 0.19017 h 6.734993 v -0.19017 z m 32.993863,0.71469 -21.44469,9.47126 -7.31997,-6.40788 6.89881,8.02173 22.70817,-10.71097 -0.72502,-0.11679 z m -32.993863,0.62477 v 0.19017 h 6.734993 v -0.19017 z"/>
  </g>
</svg>