<?xml version="1.0" encoding="UTF-8" standalone="yes"?>
<svg width="52.917mm" height="52.917mm" viewBox="0 0 52.917 52.917" version="1.1" id="svg6223" xmlns="http://www.w3.org/2000/svg" xmlns:svg="http://www.w3.org/2000/svg">
  <defs id="defs6220"/>
  <g id="layer1" transform="translate(-72.541504,-36.901501)">
    <rect style="fill:#ffffff;fill-opacity:1;stroke:none;stroke-width:2.01819" id="rect70551" width="52.917" height="52.917" x="72.541504" y="36.901501"/>
    <path id="path5816" style="display:inline;fill:#000000;fill-opacity:1;stroke:none;stroke-width:1.1335;stroke-opacity:1" d="m 85.138817,46.378349 c -1.692019,-1.7e-4 -3.063786,1.37137 -3.063896,3.06338 -1.8e-4,1.69221 1.371677,3.06407 3.063896,3.06389 1.340598,-1.7e-4 2.525379,-0.87195 2.924369,-2.1518 h 0.373104 v 0.24546 c 0,0.30446 0.244861,0.54984 0.54932,0.54984 0.30446,0 0.549838,-0.24538 0.549838,-0.54984 v -0.24546 h 0.65474 l 0.72502,-0.81856 1.099158,0.81856 0.701249,-0.79479 0.935344,0.84181 0.7953,-0.7953 0.959114,0.7953 0.77153,-0.70177 -0.865064,-1.3565 h -5.776391 v -0.0822 c 0,-0.30446 -0.245378,-0.54983 -0.549838,-0.54983 -0.304459,0 -0.54932,0.24537 -0.54932,0.54983 v 0.0822 h -0.438216 c -0.4549,-1.18325 -1.591579,-1.9641 -2.859257,-1.96422 z m -1.286227,2.12803 c 0.51656,5e-5 0.935294,0.4188 0.935344,0.93535 2.3e-4,0.51676 -0.418584,0.93581 -0.935344,0.93586 -0.516959,2.3e-4 -0.93609,-0.4189 -0.93586,-0.93586 5e-5,-0.51675 0.419101,-0.93558 0.93586,-0.93535 z m 10.442257,10.12858 c -1.290864,0 -1.993626,1.10429 -2.34611,2.34611 l -1.566313,5.518009 h -0.698148 c -1.011601,0 -1.825729,0.81465 -1.825729,1.82625 v 6.6952 c 0,1.0116 0.814128,1.82624 1.825729,1.82624 h 0.628902 c -0.0154,0.21338 -0.02532,0.45042 -0.02532,0.70487 v 1.18339 c 0,0.88983 0.10555,1.60662 0.236678,1.60662 h 2.738851 c 0.131139,0 0.236678,-0.71679 0.236678,-1.60662 v -1.18339 c 0,-0.25445 -0.01,-0.49149 -0.02532,-0.70487 h 16.834115 c -0.0154,0.21338 -0.0253,0.45042 -0.0253,0.70487 v 1.18339 c 0,0.88983 0.10555,1.60662 0.23668,1.60662 h 2.73885 c 0.13113,0 0.23668,-0.71679 0.23668,-1.60662 v -1.18339 c 0,-0.25445 -0.0101,-0.49149 -0.0253,-0.70487 h 0.62838 c 1.0116,0 1.82625,-0.81464 1.82625,-1.82624 v -6.6952 c 0,-1.0116 -0.81465,-1.82625 -1.82625,-1.82625 h -0.69763 l -1.56631,-5.518009 c -0.35249,-1.24182 -1.05524,-2.34611 -2.34611,-2.34611 z m 0,1.03715 h 15.193903 c 0.73446,0 1.10893,0.60241 1.30948,1.30896 l 1.5658,5.518009 H 91.419053 l 1.566313,-5.518009 c 0.200553,-0.70655 0.57502,-1.30896 1.309481,-1.30896 z m -1.166337,8.524539 c 1.439217,1.4e-4 2.605908,1.16683 2.606042,2.60605 1.53e-4,1.43941 -1.166624,2.60644 -2.606042,2.60656 -1.439419,-1.2e-4 -2.606196,-1.16715 -2.606043,-2.60656 1.34e-4,-1.43921 1.166825,-2.60591 2.606043,-2.60605 z m 17.52658,0 c 1.43921,1.4e-4 2.60591,1.16683 2.60604,2.60605 1.5e-4,1.43941 -1.16662,2.60644 -2.60604,2.60656 -1.43961,1.6e-4 -2.60671,-1.16695 -2.60656,-2.60656 1.3e-4,-1.43941 1.16714,-2.60619 2.60656,-2.60605 z"/>
  </g>
</svg>