<?xml version="1.0" encoding="UTF-8" standalone="yes"?>
<svg width="52.917mm" height="52.917mm" viewBox="0 0 52.917 52.917" version="1.1" id="svg7773" xmlns="http://www.w3.org/2000/svg" xmlns:svg="http://www.w3.org/2000/svg">
  <defs id="defs7770"/>
  <g id="layer1" transform="translate(-205.48436,-121.75867)">
    <rect style="fill:#ffffff;fill-opacity:1;stroke:none;stroke-width:2.01819" id="rect70551" width="52.917" height="52.917" x="205.48436" y="121.75867"/>
    <path id="rect7468" style="stroke-width:1.4" d="m 232.16706,127.51021 c -1.87797,-7e-5 -3.40039,1.52234 -3.40031,3.40031 -8e-5,1.87797 1.52234,3.40038 3.4003,3.40031 1.87776,-2.2e-4 3.39986,-1.52254 3.39979,-3.40031 8e-5,-1.87776 -1.52202,-3.4001 -3.39978,-3.40031 z m -3.61581,6.58513 c -1.10717,0.004 -2.16459,0.62995 -2.67374,1.70016 -1.74456,4.19927 -4.30597,8.521 -6.05286,12.52378 -0.18234,0.58531 -0.36341,1.24112 -0.49971,1.79213 l -2.77916,16.40159 c -0.17917,1.05741 0.52805,2.05274 1.58543,2.23191 1.05741,0.17917 2.05274,-0.52752 2.23191,-1.58492 l 2.72335,-16.07086 c 0.1984,-1.06197 0.37259,-1.14498 1.13946,-0.0754 l 2.75539,3.91293 -1.9885,11.73779 c -0.17917,1.0574 0.52751,2.05274 1.58491,2.23191 1.05741,0.17916 2.05917,-0.52705 2.23242,-1.58544 l 1.94718,-11.89643 c 0.16694,-1.26838 0.0613,-1.71282 -0.755,-2.76055 l -3.32589,-4.68033 1.07539,-2.26085 2.15026,2.19986 c 0.45511,0.46561 1.19588,0.4742 1.66242,0.0207 l 5.12682,-1e-5 3.22667,7.14066 h -3.83025 c -0.98039,3.41293 -1.0559,3.53362 -2.13782,7.38043 -8e-5,0.38657 0.31313,0.70004 0.6997,0.70021 0.29425,6e-5 0.55713,-0.18394 0.65783,-0.46043 0.61872,-2.04923 1.22373,-4.1502 1.82935,-6.22029 l 3.41374,-1e-5 2.7833,6.16035 10e-4,-5.9e-4 c 0.1027,0.27258 0.36346,0.45307 0.65474,0.4532 0.38657,8e-5 0.70004,-0.31313 0.70021,-0.6997 -5e-5,-0.11463 -0.0283,-0.22749 -0.0822,-0.32866 l 0.001,-5.2e-4 -7.0156,-15.52359 h -5.81153 c -0.0513,-0.0956 -0.11652,-0.186 -0.19637,-0.26769 l -2.54867,-2.60759 c -0.0685,-0.0701 -0.14368,-0.12941 -0.22325,-0.17881 l 2.43913,-5.12733 c 0.70837,-1.48896 0.0803,-3.25779 -1.4087,-3.96617 -0.41877,-0.19923 -0.8597,-0.29307 -1.29293,-0.29149 z m 5.36556,29.80438 c -1.36691,1.9e-4 -2.47487,1.1084 -2.47478,2.4753 1.9e-4,1.36671 1.10808,2.47459 2.47478,2.47479 1.36692,9e-5 2.47512,-1.10788 2.47531,-2.47479 9e-5,-1.36711 -1.1082,-2.4754 -2.47531,-2.4753 z m 10.97556,0 c -1.36691,1.9e-4 -2.47487,1.1084 -2.47478,2.4753 1.9e-4,1.36671 1.10808,2.47459 2.47479,2.47479 1.36691,9e-5 2.47511,-1.10788 2.4753,-2.47479 9e-5,-1.36711 -1.1082,-2.4754 -2.47531,-2.4753 z"/>
  </g>
</svg>