<?xml version="1.0" encoding="UTF-8" standalone="yes"?>
<svg width="52.917mm" height="52.917mm" viewBox="0 0 52.917 52.917" version="1.1" id="svg70418" xml:space="preserve" xmlns="http://www.w3.org/2000/svg" xmlns:svg="http://www.w3.org/2000/svg">
  <defs id="defs70415"/>
  <g id="layer1" transform="translate(-95.495216,-53.323505)">
    <rect style="fill:#ffffff;fill-opacity:1;stroke:none;stroke-width:2.01819" id="rect70551" width="52.917" height="52.917" x="95.495216" y="53.323505"/>
    <path id="rect74478" style="stroke-width:0.51536" d="m 121.95398,59.110142 -2.08825,1.934766 -0.0165,2.189013 1.35702,-0.998388 0.016,3.63337 h 1.46399 l 0.016,-3.63337 1.35651,0.998388 -0.0165,-2.189013 z m -15.45849,2.853056 v 33.208309 h 2.71301 V 61.963198 Z m 28.20396,0.04702 v 33.208314 h 2.7125 V 62.010223 Z m -22.93193,5.04362 v 1.124479 h 20.37291 v -1.124479 z m 10.02781,3.641638 c -0.78012,-1.1e-5 -1.41232,0.632723 -1.41232,1.412834 0,0.78011 0.6322,1.412322 1.41232,1.412317 0.7801,5e-6 1.41232,-0.632207 1.41232,-1.412317 0,-0.780111 -0.63221,-1.412845 -1.41232,-1.412834 z m 6.87917,1.698088 a 0.43848905,0.43848905 0 0 0 -0.43874,0.438733 0.43848905,0.43848905 0 0 0 0.43874,0.438216 0.43848905,0.43848905 0 0 0 0.43821,-0.438216 0.43848905,0.43848905 0 0 0 -0.43821,-0.438733 z m -8.52351,1.499133 c -0.48073,0.06256 -0.58435,0.348803 -0.71521,0.66766 l -1.72754,5.470984 c -0.10456,0.331096 0.0492,0.672551 0.34468,0.765844 0.29548,0.0933 0.61738,-0.09833 0.72192,-0.429431 l 1.42886,-4.524271 v 3.143994 l -1.35134,9.267134 c -0.0631,0.432527 0.2341,0.831443 0.66662,0.894519 l 0.0191,0.0026 c 0.43253,0.06307 0.83144,-0.234102 0.89452,-0.666626 l 1.03043,-7.066752 c 0.006,-0.226943 0.65512,-0.235973 0.67128,0.0062 l 1.02939,7.060551 c 0.0631,0.432525 0.462,0.729702 0.89452,0.666626 l 0.0191,-0.0026 c 0.43253,-0.06307 0.7297,-0.461992 0.66663,-0.894519 l -1.35134,-9.267134 v -3.143994 c 0.0137,0.02169 0.0302,0.04421 0.046,0.06666 l 0.56276,1.712557 c 0.17766,0.386817 0.62178,0.465012 0.92966,0.221175 l 1.59215,-1.878955 c 0.18571,-0.2303 0.16444,-0.553007 -0.0475,-0.723987 l -0.003,-0.0026 c -0.21203,-0.170979 -0.53206,-0.123329 -0.71778,0.10697 l -0.96687,1.102775 c -0.21326,-0.635266 -0.41597,-1.299201 -0.64027,-1.921847 -0.13273,-0.35178 -0.38369,-0.625689 -0.70228,-0.633553 h -0.61805 -0.68471 -1.37356 z m 8.52351,0.515214 a 0.43848905,0.43848905 0 0 0 -0.43874,0.438216 0.43848905,0.43848905 0 0 0 0.43874,0.438733 0.43848905,0.43848905 0 0 0 0.43821,-0.438733 0.43848905,0.43848905 0 0 0 -0.43821,-0.438216 z m 0,2.013831 a 0.43848905,0.43848905 0 0 0 -0.43874,0.438733 0.43848905,0.43848905 0 0 0 0.43874,0.438216 0.43848905,0.43848905 0 0 0 0.43821,-0.438216 0.43848905,0.43848905 0 0 0 -0.43821,-0.438733 z m -16.90698,14.963944 v 1.124479 h 20.37291 v -1.124479 z m 9.45472,2.30942 -0.016,3.63337 -1.35702,-0.998389 0.016,2.189014 2.08825,1.934769 2.08824,-1.934769 0.0165,-2.189014 -1.35651,0.998389 -0.016,-3.63337 z"/>
  </g>
</svg>