<?xml version="1.0" encoding="UTF-8" standalone="yes"?>
<svg width="52.917mm" height="52.917mm" viewBox="0 0 52.917 52.917" version="1.1" id="svg4696" xmlns="http://www.w3.org/2000/svg" xmlns:svg="http://www.w3.org/2000/svg">
  <defs id="defs4693"/>
  <g id="layer1" transform="translate(-92.767303,-63.315693)">
    <rect style="fill:#ffffff;fill-opacity:1;stroke:none;stroke-width:2.01819" id="rect70551" width="52.917" height="52.917" x="92.767303" y="63.315693"/>
    <path id="rect4211" d="m 120.57601,73.424284 -1.81798,5.1e-4 v 13.99243 l -1.99523,-0.52968 c -0.10686,-0.0283 -0.21413,-0.0394 -0.31884,-0.0351 -0.45374,0.0186 -0.86,0.3281 -0.98289,0.79116 l -0.26148,0.98547 c -0.002,0.007 -0.003,0.0148 -0.005,0.0222 l 7.96851,2.0929 c 1.4e-4,-5.4e-4 3.7e-4,-0.001 5.1e-4,-0.002 l 0.26149,-0.98547 c 0.15124,-0.56993 -0.18559,-1.15049 -0.75551,-1.30173 l -2.09342,-0.55552 z m -15.27607,13.34905 c -0.0407,-0.001 -0.0812,-0.001 -0.12144,5.2e-4 -0.69821,0.0304 -1.32218,0.508 -1.50947,1.22111 l -2.33423,8.88783 c -0.23051,0.87768 0.29022,1.76989 1.16789,2.0004 l 21.23798,5.577946 c 0.69245,0.17815 1.34394,-0.60349 2.0004,-1.16788 l 8.45116,-7.905976 c 0.58063,-0.59007 0.45236,-0.97441 -0.85886,-1.2945 l -27.66395,-7.2657 c -0.12342,-0.0324 -0.24732,-0.0499 -0.36948,-0.0537 z m 27.12961,11.6241 -4.61988,4.358906 4.56303,1.59938 c 1.0226,0.4096 1.73135,0.96087 2.4567,1.76837 l 2.34198,-7.162866 c -0.91074,0.1576 -1.79298,0.31618 -2.63447,0.0946 z"/>
  </g>
</svg>