<?xml version="1.0" encoding="UTF-8" standalone="yes"?>
<svg width="52.917mm" height="52.917mm" viewBox="0 0 52.917 52.917" version="1.1" id="svg70418" xml:space="preserve" xmlns="http://www.w3.org/2000/svg" xmlns:svg="http://www.w3.org/2000/svg">
  <defs id="defs70415"/>
  <g id="layer1" transform="translate(-90.846069,-69.18338)">
    <rect style="fill:#ffffff;fill-opacity:1;stroke:none;stroke-width:2.01819" id="rect70551" width="52.917" height="52.917" x="90.846069" y="69.18338"/>
    <path id="rect74478" style="stroke-width:1.01549" d="m 117.29889,77.450264 c -1.53718,-1.3e-5 -2.7833,1.246118 -2.78329,2.783293 -1e-5,1.537175 1.24612,2.783305 2.78329,2.783292 1.53717,1.3e-5 2.7833,-1.246117 2.78329,-2.783292 1e-5,-1.537175 -1.24611,-2.783306 -2.78329,-2.783293 z m -3.24011,6.299874 c -0.94725,0.123272 -1.15137,0.687393 -1.40922,1.315682 l -3.40392,10.779704 c -0.20601,0.652417 0.0968,1.325636 0.67902,1.509468 0.58222,0.183836 1.21666,-0.193526 1.42266,-0.845943 l 2.81533,-8.915735 v 6.196004 l -2.66289,18.259872 c -0.12428,0.85227 0.46187,1.63839 1.31413,1.76268 l 0.0372,0.005 c 0.85227,0.12429 1.63839,-0.46133 1.76268,-1.31361 l 2.03051,-13.924688 c 0.0126,-0.447186 1.29052,-0.464813 1.32237,0.01237 l 2.02871,13.912318 c 0.12429,0.85227 0.9104,1.4379 1.76268,1.31361 l 0.0372,-0.005 c 0.85228,-0.12428 1.43842,-0.91041 1.31413,-1.76268 l -2.66289,-18.259871 v -6.196004 l 2.81534,8.915735 c 0.20599,0.652417 0.84044,1.029774 1.42265,0.845943 0.58224,-0.183832 0.88503,-0.857052 0.67903,-1.509468 l -3.40393,-10.779704 c -0.25426,-0.725616 -0.76104,-1.29968 -1.40922,-1.315682 h -1.21749 -1.34979 -2.70681 z"/>
  </g>
</svg>