<?xml version="1.0" encoding="UTF-8" standalone="yes"?>
<svg width="52.917mm" height="52.917mm" viewBox="0 0 52.917 52.917" version="1.1" id="svg2177" xmlns="http://www.w3.org/2000/svg" xmlns:svg="http://www.w3.org/2000/svg">
  <defs id="defs2174"/>
  <g id="layer1" transform="translate(-73.000366,-135.29121)">
    <rect style="fill:#ffffff;fill-opacity:1;stroke:none;stroke-width:2.01819" id="rect70551-3" width="52.917" height="52.917" x="73.000366" y="135.29121"/>
    <path id="rect907" style="display:inline;fill:#000000;fill-opacity:1;stroke-width:0.600001" d="m 103.52427,145.13282 c -1.32709,7e-5 -2.40289,1.07586 -2.40296,2.40295 -2.2e-4,1.32729 1.07567,2.40341 2.40296,2.40347 1.32729,-6e-5 2.40317,-1.07619 2.40295,-2.40347 -7e-5,-1.32709 -1.07587,-2.40288 -2.40295,-2.40295 z m -14.44925,0.0915 c -1.327088,7e-5 -2.402889,1.07587 -2.402953,2.40296 7e-5,1.32709 1.075868,2.40288 2.402953,2.40295 1.32729,2.2e-4 2.403408,-1.07567 2.403468,-2.40296 -7e-5,-1.32728 -1.076182,-2.40317 -2.403468,-2.40295 z m -1.318783,5.65082 c -1.639011,0.0475 -2.570537,0.82545 -2.913675,2.13865 -0.541526,2.91554 -1.720878,6.10639 -2.162501,8.86275 l -2.18798,14.54071 c -0.127651,0.84841 0.450599,1.63385 1.296562,1.76113 0.845964,0.12728 1.629863,-0.45279 1.757515,-1.30121 l 1.89559,-12.59545 c 0.05146,-0.40936 0.259086,-0.32602 0.326353,0.0376 l 2.251171,12.6979 c 0.149789,0.84479 0.948758,1.40458 1.791106,1.25523 0.842348,-0.14936 1.39984,-0.94995 1.25005,-1.79473 l -2.516281,-14.19134 c 0.433481,-1.94008 1.013002,-3.94188 1.524096,-5.89787 l 4.458125,5.4255 c 0.47044,0.57252 1.22051,0.75377 1.80092,0.47646 0.4425,0.0743 0.93466,-0.0604 1.32137,-0.40514 l 4.052472,-3.6127 0.97978,-1.55442 c 0.52271,1.84944 1.11019,3.83941 1.6052,5.83264 l -2.29508,13.89018 c -0.14635,0.82732 0.40206,1.61117 1.22938,1.75752 0.82732,0.14634 1.61117,-0.40155 1.75752,-1.22887 l 2.27908,-12.88475 c 0.0584,-0.37097 0.1903,-0.36801 0.31725,0.0216 l 3.83176,13.16681 c 0.23477,0.80669 1.07278,1.26674 1.87947,1.03197 l 0.016,-0.005 c 0.80671,-0.23475 1.26726,-1.07277 1.0325,-1.87948 l -2.33733,-8.03155 6.44665,-1.11462 -0.9834,-5.68803 -2.81533,0.4868 -0.3307,-1.91203 -0.60984,0.10508 c 0.0348,-0.17386 0.0312,-0.35838 -0.0191,-0.54157 l -1.21905,-4.43383 c -0.24672,-0.89739 -0.57437,-1.21866 -1.45055,-1.59991 l -4.37907,-2.23708 c -0.002,-0.002 -0.004,-0.002 -0.006,-0.003 -1.22819,-0.6993 -2.74821,-0.7883 -3.62303,0.12196 -1.1544,1.23282 -2.19973,3.08548 -3.170872,4.62401 l -3.64422,3.24889 -6.27145,-7.63261 c -0.582342,-0.59178 -1.376418,-0.93088 -2.164208,-0.93844 z m 20.521743,4.28966 1.84899,0.85576 1.17822,4.30051 c 0.0304,0.12181 0.0782,0.23436 0.13953,0.33642 l -0.45115,0.078 c 0.11076,0.63725 0.22053,1.27468 0.33069,1.91203 l -0.95031,0.16444 c -0.7149,-2.56214 -1.37821,-5.06652 -2.09597,-7.64712 z m 5.62808,5.57434 0.24551,1.41954 -2.33422,0.40363 -0.24542,-1.41905 0.31412,-0.0547 c 0.2647,0.15117 0.58598,0.20419 0.90641,0.12402 0.25686,-0.0642 0.47609,-0.20529 0.63768,-0.39171 z"/>
  </g>
</svg>