<?xml version="1.0" encoding="UTF-8" standalone="yes"?>
<svg width="52.917mm" height="52.917mm" viewBox="0 0 52.917 52.917" version="1.1" id="svg1362" xmlns="http://www.w3.org/2000/svg" xmlns:svg="http://www.w3.org/2000/svg">
  <defs id="defs1359"/>
  <g id="layer1" transform="translate(-37.767307,-229.73505)">
    <rect style="fill:#ffffff;fill-opacity:1;stroke:none;stroke-width:2.01819" id="rect70551" width="52.917" height="52.917" x="37.767307" y="229.73505"/>
    <path id="rect362" style="fill:#000000;stroke-width:1.8" d="m 59.251948,239.2369 c -1.657779,-0.002 -2.279417,11.7697 -2.267045,13.66583 -0.02887,3.42987 0.01348,6.85924 0.05529,10.28878 -0.585711,-0.35514 -1.257548,-0.54299 -1.942517,-0.54312 -2.070036,-6e-5 -3.748151,1.67805 -3.748092,3.74809 -5.9e-5,2.07004 1.678056,3.74815 3.748092,3.74809 2.069834,-2.3e-4 3.747642,-1.67825 3.747582,-3.74809 -1.4e-4,-0.0557 -0.002,-0.11132 -0.004,-0.16692 l -0.10438,-8.60464 c -6e-4,-0.55928 0.28505,-0.65828 0.54673,-0.66818 0.13085,-0.005 0.23121,0.0318 0.31058,0.10956 0.0794,0.0778 0.17767,0.21686 0.17983,0.58188 l 0.006,8.6465 h 0.003 c -0.003,0.0487 -0.004,0.0975 -0.005,0.14624 9e-4,1.72114 1.17392,3.22044 2.84427,3.63544 v 0.71623 c 0.004,1.41324 1.12842,2.33698 2.20349,2.35748 0.4321,0.008 0.78886,-0.33581 0.79685,-0.76791 0.008,-0.4321 -0.33581,-0.78887 -0.76791,-0.79685 -0.27132,-0.005 -0.66466,-0.15043 -0.66766,-0.79478 v -0.002 -0.65836 c 1.78636,-0.32024 3.08663,-1.87434 3.08663,-3.68918 6e-5,-2.06984 -1.67774,-3.74786 -3.74758,-3.74809 -0.70107,8.6e-4 -1.38785,0.19833 -1.9823,0.56999 0.12076,-3.45435 0.066,-6.90597 0.002,-10.36009 -0.002,-2.15287 -0.5237,-13.67478 -2.29237,-13.66583 z m 9.39839,0.32401 c -0.39963,0 -0.7214,0.32177 -0.7214,0.7214 0,0.39963 0.32177,0.7214 0.7214,0.7214 h 5.41673 c -0.001,0.0255 -0.004,0.0506 -0.004,0.0765 v 0.79996 h -5.41311 c -0.39963,0 -0.7214,0.32176 -0.7214,0.7214 0,0.39962 0.32177,0.7214 0.7214,0.7214 h 5.41311 v 0.87643 h -5.41311 c -0.39963,0 -0.7214,0.32177 -0.7214,0.72141 0,0.39963 0.32177,0.7214 0.7214,0.7214 h 5.41311 v 0.87643 h -5.41311 c -0.39963,0 -0.7214,0.32178 -0.7214,0.7214 0,0.39964 0.32177,0.72089 0.7214,0.72089 h 5.41311 v 0.87643 h -5.41311 c -0.39963,0 -0.7214,0.32177 -0.7214,0.72141 0,0.39963 0.32177,0.7214 0.7214,0.7214 h 5.41311 v 0.87643 h -5.41311 c -0.39963,0 -0.7214,0.32178 -0.7214,0.7214 0,0.39964 0.32177,0.72141 0.7214,0.72141 h 5.41311 v 0.87643 h -5.41311 c -0.39963,0 -0.7214,0.32177 -0.7214,0.7214 0,0.39964 0.32177,0.72141 0.7214,0.72141 h 5.41311 v 0.87643 h -5.41311 c -0.39963,0 -0.7214,0.32177 -0.7214,0.7214 0,0.39963 0.32177,0.7214 0.7214,0.7214 h 5.41311 v 0.87644 h -5.41311 c -0.39963,0 -0.7214,0.32176 -0.7214,0.7214 0,0.39963 0.32177,0.7214 0.7214,0.7214 h 5.41311 v 11.88403 c 0,0.84161 0.67768,1.51929 1.51929,1.51929 0.84161,0 1.51928,-0.67768 1.51928,-1.51929 v -30.36096 c 0,-0.84161 -0.67767,-1.51928 -1.51928,-1.51928 -0.0231,0 -0.0454,0.003 -0.0682,0.004 -6.7e-4,-7e-5 -10e-4,7e-5 -0.002,0 -0.0237,-0.002 -0.0476,-0.004 -0.0718,-0.004 z M 55.09768,264.55576 c 1.016597,10e-6 1.840711,0.82412 1.840714,1.84072 -9e-6,1.01659 -0.824121,1.8407 -1.840714,1.84071 -1.016593,-10e-6 -1.840706,-0.82412 -1.840715,-1.84071 3e-6,-1.0166 0.824118,-1.84071 1.840715,-1.84072 z m 8.427388,0.0445 c 1.0166,1e-5 1.84071,0.82412 1.84072,1.84071 -10e-6,1.01659 -0.82412,1.8407 -1.84072,1.84071 -1.01659,-10e-6 -1.8407,-0.82412 -1.84071,-1.84071 10e-6,-1.01659 0.82412,-1.8407 1.84071,-1.84071 z"/>
  </g>
</svg>