<?xml version="1.0" encoding="UTF-8" standalone="yes"?>
<svg width="52.917mm" height="52.917mm" viewBox="0 0 52.917 52.917" version="1.1" id="svg13503" xmlns="http://www.w3.org/2000/svg" xmlns:svg="http://www.w3.org/2000/svg">
  <defs id="defs13500"/>
  <g id="layer1" transform="translate(-106.25117,-158.05763)">
    <rect style="fill:#ffffff;fill-opacity:1;stroke:none;stroke-width:2.01819" id="rect70551" width="52.917" height="52.917" x="106.25117" y="158.05763"/>
    <path id="path12435" style="display:inline;fill:#1f0000;stroke-width:0.314329;stroke-linecap:round" d="m 132.39833,168.04125 a 17.586693,17.586693 0 0 0 -11.544,4.59352 17.586693,17.586693 0 0 0 -5.72006,12.79043 h -3.18275 v 15.56856 h 41.51633 V 185.4252 h -3.17294 a 17.586693,17.586693 0 0 0 -6.19755,-13.20229 17.586693,17.586693 0 0 0 -11.69903,-4.18166 z m -3.021,2.19883 1.3534,2.08618 2.48409,-0.12661 -1.56631,1.93218 0.88831,2.32286 -2.3213,-0.89245 -1.93477,1.56269 0.13126,-2.48357 -2.08411,-1.35702 2.40244,-0.64285 z m -7.14272,6.09782 1.10484,1.70326 2.02779,-0.10336 -1.27848,1.57717 0.72502,1.89652 -1.89497,-0.72864 -1.57975,1.2759 0.10748,-2.02779 -1.7017,-1.10794 1.96164,-0.52452 z m 10.74095,1.71928 0.83922,1.29346 1.53996,-0.0791 -0.971,1.19786 0.55087,1.44022 -1.43971,-0.55293 -1.19941,0.96893 0.0816,-1.53996 -1.29242,-0.84129 1.48983,-0.39843 z m 8.20725,0.41806 a 3.8263598,3.8263598 0 0 1 2.79518,1.21388 1.3400416,7.041678 64.347595 0 1 3.55223,-0.43564 1.3400416,7.041678 64.347595 0 1 -2.56056,2.50114 3.8263598,3.8263598 0 0 1 0.0393,0.54726 3.8263598,3.8263598 0 0 1 -3.82612,3.82612 3.8263598,3.8263598 0 0 1 -2.79466,-1.21336 1.3400416,7.041678 64.347595 0 1 -3.55328,0.43563 1.3400416,7.041678 64.347595 0 1 2.56161,-2.50062 3.8263598,3.8263598 0 0 1 -0.0403,-0.54777 3.8263598,3.8263598 0 0 1 3.82664,-3.82664 z m -11.5471,7.75456 0.56431,0.86972 1.03559,-0.0527 -0.65319,0.80563 0.37052,0.96842 -0.9679,-0.37207 -0.80667,0.65112 0.0548,-1.03508 -0.86868,-0.56585 1.00149,-0.2682 z m -7.08277,0.10439 a 4.621376,4.621376 0 0 0 -1.80144,3.65714 4.621376,4.621376 0 0 0 4.62142,4.62142 4.621376,4.621376 0 0 0 1.35237,-0.20515 4.8143138,4.8143138 0 0 1 -3.49539,1.50585 4.8143138,4.8143138 0 0 1 -4.81418,-4.81418 4.8143138,4.8143138 0 0 1 4.13722,-4.76508 z m 19.15645,2.68666 1.2175,1.8774 2.235,-0.1142 -1.4087,1.73839 0.79892,2.09031 -2.08876,-0.80305 -1.74098,1.40612 0.11834,-2.23449 -1.87534,-1.22112 2.16163,-0.57825 z"/>
  </g>
</svg>