<?xml version="1.0" encoding="UTF-8" standalone="yes"?>
<svg width="52.917mm" height="52.917mm" viewBox="0 0 52.917 52.917" version="1.1" id="svg2193" xmlns="http://www.w3.org/2000/svg" xmlns:svg="http://www.w3.org/2000/svg">
  <defs id="defs2190"/>
  <g id="layer1" transform="translate(-87.250076,-94.604355)">
    <rect style="fill:#ffffff;fill-opacity:1;stroke:none;stroke-width:2.01819" id="rect70551" width="52.917" height="52.917" x="87.250076" y="94.604355"/>
    <path id="rect1586" style="display:inline;fill:#000000;stroke-width:0.799999;stroke-linecap:round" d="m 95.427241,101.80058 v 23.54792 h 2.61637 v -14.77946 h 6.194459 c 1.17961,0 1.90529,0.21284 2.25309,1.39371 l 0.35295,2.0097 3.45922,-0.009 0.007,-3.17346 c 0.004,-1.80286 -1.82501,-4.0247 -3.8225,-3.98322 h -8.444449 v -5.00641 z m 12.076259,12.87364 a 0.36241072,0.36241072 0 0 0 -0.32401,0.31471 0.36241072,0.36241072 0 0 0 0.31368,0.40566 0.36241072,0.36241072 0 0 0 0.40514,-0.3142 0.36241072,0.36241072 0 0 0 -0.31368,-0.40514 0.36241072,0.36241072 0 0 0 -0.0811,-0.001 z m 2.22415,0 a 0.36241072,0.36241072 0 0 0 -0.0811,10e-4 0.36241072,0.36241072 0 0 0 -0.31367,0.40514 0.36241072,0.36241072 0 0 0 0.40514,0.3142 0.36241072,0.36241072 0 0 0 0.31368,-0.40566 0.36241072,0.36241072 0 0 0 -0.32402,-0.31471 z m -1.11207,0.70796 a 0.36241072,0.36241072 0 0 0 -0.36225,0.36226 0.36241072,0.36241072 0 0 0 0.36225,0.36276 0.36241072,0.36241072 0 0 0 0.36225,-0.36276 0.36241072,0.36241072 0 0 0 -0.36225,-0.36226 z m -1.29966,0.76378 a 0.36241072,0.36241072 0 0 0 -0.32402,0.31471 0.36241072,0.36241072 0 0 0 0.31368,0.40566 0.36241072,0.36241072 0 0 0 0.40514,-0.31419 0.36241072,0.36241072 0 0 0 -0.31367,-0.40514 0.36241072,0.36241072 0 0 0 -0.0811,-0.001 z m 2.5988,0 a 0.36241072,0.36241072 0 0 0 -0.0811,0.001 0.36241072,0.36241072 0 0 0 -0.31316,0.40514 0.36241072,0.36241072 0 0 0 0.40515,0.31419 0.36241072,0.36241072 0 0 0 0.31315,-0.40566 0.36241072,0.36241072 0 0 0 -0.32401,-0.31471 z m -1.29914,0.71985 a 0.36241072,0.36241072 0 0 0 -0.36225,0.36226 0.36241072,0.36241072 0 0 0 0.36225,0.36277 0.36241072,0.36241072 0 0 0 0.36225,-0.36277 0.36241072,0.36241072 0 0 0 -0.36225,-0.36226 z m -1.48673,0.7519 a 0.36241072,0.36241072 0 0 0 -0.32401,0.31522 0.36241072,0.36241072 0 0 0 0.31315,0.40515 0.36241072,0.36241072 0 0 0 0.40515,-0.31368 0.36241072,0.36241072 0 0 0 -0.31316,-0.40566 0.36241072,0.36241072 0 0 0 -0.0811,-0.001 z m 2.97346,0 a 0.36241072,0.36241072 0 0 0 -0.0811,10e-4 0.36241072,0.36241072 0 0 0 -0.31368,0.40566 0.36241072,0.36241072 0 0 0 0.40514,0.31368 0.36241072,0.36241072 0 0 0 0.31368,-0.40515 0.36241072,0.36241072 0 0 0 -0.32401,-0.31522 z m -1.48673,0.73174 a 0.36241072,0.36241072 0 0 0 -0.36225,0.36276 0.36241072,0.36241072 0 0 0 0.36225,0.36226 0.36241072,0.36241072 0 0 0 0.36225,-0.36226 0.36241072,0.36241072 0 0 0 -0.36225,-0.36276 z m -1.67432,0.74052 a 0.36241072,0.36241072 0 0 0 -0.32401,0.31471 0.36241072,0.36241072 0 0 0 0.31368,0.40514 0.36241072,0.36241072 0 0 0 0.40514,-0.31367 0.36241072,0.36241072 0 0 0 -0.31368,-0.40515 0.36241072,0.36241072 0 0 0 -0.0811,-10e-4 z m 3.34863,0 a 0.36241072,0.36241072 0 0 0 -0.0811,0.001 0.36241072,0.36241072 0 0 0 -0.31367,0.40515 0.36241072,0.36241072 0 0 0 0.40514,0.31367 0.36241072,0.36241072 0 0 0 0.31368,-0.40514 0.36241072,0.36241072 0 0 0 -0.32402,-0.31471 z m -8.05273,0.007 -0.3974,0.39067 c 1.16703,1.17307 1.88826,2.79009 1.88826,4.57802 0,1.84199 -0.76635,3.50181 -1.99626,4.6824 l 0.39687,0.39067 c 1.33032,-1.28286 2.16008,-3.08144 2.16008,-5.07307 0,-1.93756 -0.78415,-3.69357 -2.05155,-4.96869 z m 6.37842,0.7369 a 0.36241072,0.36241072 0 0 0 -0.36225,0.36225 0.36241072,0.36241072 0 0 0 0.36225,0.36226 0.36241072,0.36241072 0 0 0 0.36225,-0.36226 0.36241072,0.36241072 0 0 0 -0.36225,-0.36225 z m -7.62848,0.49248 -0.39584,0.38912 c 0.85614,0.85694 1.38493,2.04098 1.38493,3.35019 0,1.36329 -0.57464,2.58969 -1.49397,3.45353 l 0.39688,0.39068 c 1.01881,-0.96624 1.65571,-2.33161 1.65571,-3.84421 0,-1.45882 -0.59172,-2.78083 -1.54771,-3.73931 z m 5.76709,0.23564 a 0.36241072,0.36241072 0 0 0 -0.32401,0.31471 0.36241072,0.36241072 0 0 0 0.31316,0.40515 0.36241072,0.36241072 0 0 0 0.40514,-0.31368 0.36241072,0.36241072 0 0 0 -0.31367,-0.40514 0.36241072,0.36241072 0 0 0 -0.0806,-0.001 z m 3.72277,0 a 0.36241072,0.36241072 0 0 0 -0.0811,0.001 0.36241072,0.36241072 0 0 0 -0.31368,0.40514 0.36241072,0.36241072 0 0 0 0.40515,0.31368 0.36241072,0.36241072 0 0 0 0.31367,-0.40515 0.36241072,0.36241072 0 0 0 -0.32401,-0.31471 z m -1.86138,0.75551 a 0.36241072,0.36241072 0 0 0 -0.36225,0.36225 0.36241072,0.36241072 0 0 0 0.36225,0.36226 0.36241072,0.36241072 0 0 0 0.36225,-0.36226 0.36241072,0.36241072 0 0 0 -0.36225,-0.36225 z m -8.963279,0.32195 -0.39636,0.39015 c 0.52334,0.51884 0.846979,1.2386 0.846979,2.03606 0,0.85151 -0.369389,1.61461 -0.956529,2.13888 l 0.39739,0.39119 c 0.687359,-0.62701 1.119829,-1.529 1.119829,-2.53007 0,-0.94746 -0.38716,-1.80573 -1.011309,-2.42621 z m 6.914309,0.39429 a 0.36241072,0.36241072 0 0 0 -0.32401,0.31471 0.36241072,0.36241072 0 0 0 0.31367,0.40566 0.36241072,0.36241072 0 0 0 0.40514,-0.3142 0.36241072,0.36241072 0 0 0 -0.31367,-0.40514 0.36241072,0.36241072 0 0 0 -0.0811,-10e-4 z m 4.09794,0 a 0.36241072,0.36241072 0 0 0 -0.0811,0.001 0.36241072,0.36241072 0 0 0 -0.31368,0.40514 0.36241072,0.36241072 0 0 0 0.40514,0.3142 0.36241072,0.36241072 0 0 0 0.31368,-0.40566 0.36241072,0.36241072 0 0 0 -0.32401,-0.31471 z m -2.04897,0.76739 a 0.36241072,0.36241072 0 0 0 -0.36225,0.36225 0.36241072,0.36241072 0 0 0 0.36225,0.36277 0.36241072,0.36241072 0 0 0 0.36225,-0.36277 0.36241072,0.36241072 0 0 0 -0.36225,-0.36225 z m -2.23656,0.70435 a 0.36241072,0.36241072 0 0 0 -0.32401,0.31523 0.36241072,0.36241072 0 0 0 0.31368,0.40514 0.36241072,0.36241072 0 0 0 0.40514,-0.31367 0.36241072,0.36241072 0 0 0 -0.31368,-0.40566 0.36241072,0.36241072 0 0 0 -0.0811,-10e-4 z m 4.4726,0 a 0.36241072,0.36241072 0 0 0 -0.0811,10e-4 0.36241072,0.36241072 0 0 0 -0.31367,0.40566 0.36241072,0.36241072 0 0 0 0.40514,0.31367 0.36241072,0.36241072 0 0 0 0.31368,-0.40514 0.36241072,0.36241072 0 0 0 -0.32401,-0.31523 z m -2.23604,0.77928 a 0.36241072,0.36241072 0 0 0 -0.36225,0.36277 0.36241072,0.36241072 0 0 0 0.36225,0.36225 0.36241072,0.36241072 0 0 0 0.36225,-0.36225 0.36241072,0.36241072 0 0 0 -0.36225,-0.36277 z m -2.42363,0.69247 a 0.36241072,0.36241072 0 0 0 -0.32401,0.31522 0.36241072,0.36241072 0 0 0 0.31368,0.40515 0.36241072,0.36241072 0 0 0 0.40514,-0.31368 0.36241072,0.36241072 0 0 0 -0.31368,-0.40566 0.36241072,0.36241072 0 0 0 -0.0811,-0.001 z m 4.84725,0 a 0.36241072,0.36241072 0 0 0 -0.0811,10e-4 0.36241072,0.36241072 0 0 0 -0.31368,0.40566 0.36241072,0.36241072 0 0 0 0.40515,0.31368 0.36241072,0.36241072 0 0 0 0.31367,-0.40515 0.36241072,0.36241072 0 0 0 -0.32401,-0.31522 z m -2.42362,0.79116 a 0.36241072,0.36241072 0 0 0 -0.36225,0.36277 0.36241072,0.36241072 0 0 0 0.36225,0.36225 0.36241072,0.36241072 0 0 0 0.36225,-0.36225 0.36241072,0.36241072 0 0 0 -0.36225,-0.36277 z m 3.90674,1.54771 c -0.98993,0 -0.90604,0.98495 -0.13385,1.45004 0.69164,0.41973 1.37314,0.7484 2.14044,0.76171 0.94358,0.0294 2.6405,0.0202 3.58583,0.0429 0.53369,0.0317 0.50169,0.67076 -0.015,0.67076 h -4.26124 -7.28482 c -0.48478,0 -0.87488,0.3901 -0.87488,0.87488 0,0.39329 0.25658,0.72457 0.61236,0.83561 l 1.31672,0.0398 h 4.80901 c 0.66441,0.003 0.61809,0.8897 -0.0444,0.9002 h -7.58403 c -0.48477,0 -0.87488,0.39063 -0.87488,0.8754 0,0.48478 0.39011,0.87488 0.87488,0.87488 h 7.53029 c 0.77356,-0.002 0.64556,0.88136 0.19534,0.9002 h -6.50038 c -0.0637,0 -0.12254,-0.0187 -0.1726,-0.0501 h -0.23668 c -0.48478,0 -0.8754,0.39011 -0.8754,0.87488 0,0.48478 0.39062,0.87488 0.8754,0.87488 h 7.73545 c 0.63618,-0.0193 0.56547,0.83612 0.17415,0.85008 h -5.43481 c -0.48477,0 -0.87489,0.39063 -0.87489,0.8754 0,0.48478 0.39012,0.87488 0.87489,0.87488 h 7.81657 c 2.83547,1.1085 6.43343,0.10596 8.59379,-0.97513 h 7.50033 v -7.65018 h -7.35046 c -0.48565,0 -1.62179,-3.89454 -5.55005,-3.90054 z"/>
  </g>
</svg>