<?xml version="1.0" encoding="UTF-8" standalone="yes"?>
<svg width="52.917mm" height="52.917mm" viewBox="0 0 52.917 52.917" version="1.1" id="svg1108" xmlns="http://www.w3.org/2000/svg" xmlns:svg="http://www.w3.org/2000/svg">
  <defs id="defs1105"/>
  <g id="layer1" transform="translate(-74.376961,-112.57742)">
    <rect style="fill:#ffffff;fill-opacity:1;stroke:none;stroke-width:2.01819" id="rect70551" width="52.917" height="52.917" x="74.376961" y="112.57742"/>
    <path id="path968" style="fill:#000000;stroke-width:3.94633" d="m 97.054808,125.20213 1.110526,2.41846 h 6.631116 l 0.22841,-1.17099 z m 1.302763,3.3414 -1.271757,1.38079 h 0.995288 c -0.01547,0.12764 -0.02351,0.25589 -0.02429,0.38447 -1.72e-4,1.85726 1.505336,3.36307 3.362588,3.36311 1.71496,-7.2e-4 3.36434,-1.49798 3.36207,-3.36259 v -1.76527 z m -1.694987,6.01875 c -0.97574,0.0206 -1.513816,0.75042 -2.100647,1.80041 l -5.218803,12.25765 h 3.571358 l 3.477824,-7.45433 v 7.53546 h 11.674224 v -12.27832 c 0.008,-0.87951 -1.06141,-1.84446 -1.98076,-1.8309 h -2.61069 l -1.42937,3.73931 h -0.39068 l -1.660877,-3.76928 z m -12.528435,15.5081 c -0.775394,0 -1.399397,0.624 -1.399397,1.3994 0,0.77539 0.624003,1.39991 1.399397,1.39991 h 33.402611 c 0.7754,0 1.3994,-0.62452 1.3994,-1.39991 0,-0.7754 -0.624,-1.3994 -1.3994,-1.3994 z"/>
  </g>
</svg>