<?xml version="1.0" encoding="UTF-8" standalone="yes"?>
<svg width="52.917mm" height="52.917mm" viewBox="0 0 52.917 52.917" version="1.1" id="svg11516" xmlns="http://www.w3.org/2000/svg" xmlns:svg="http://www.w3.org/2000/svg">
  <defs id="defs11513"/>
  <g id="layer1" transform="translate(-128.96086,-106.25117)">
    <rect style="fill:#ffffff;fill-opacity:1;stroke:none;stroke-width:2.01819" id="rect70551" width="52.917" height="52.917" x="128.96086" y="106.25117"/>
    <path id="path11500" style="color:#000000;fill:#000000;fill-opacity:1" d="m 154.70545,114.787 v 3.30987 h -0.0419 c -1.22862,0 -2.21795,0.72474 -2.21795,1.62471 0,0.0168 10e-4,0.0334 0.002,0.0501 h 5.76244 c 6.8e-4,-0.0167 0.002,-0.0333 0.002,-0.0501 0,-0.84771 -0.87789,-1.53993 -2.0066,-1.61747 v -1.81746 h 8.11733 v 31.84611 h -20.30659 v 2.49959 h 22.80636 V 114.787 h -1.73788 -0.76171 z m -1.50327,5.76553 a 0.45463711,0.45463711 0 0 0 -0.50901,0.39223 0.45463711,0.45463711 0 0 0 0.39326,0.50901 0.45463711,0.45463711 0 0 0 0.50901,-0.39326 0.45463711,0.45463711 0 0 0 -0.39326,-0.50798 z m 4.25349,0 a 0.45463711,0.45463711 0 0 0 -0.39326,0.50798 0.45463711,0.45463711 0 0 0 0.50901,0.39326 0.45463711,0.45463711 0 0 0 0.39326,-0.50901 0.45463711,0.45463711 0 0 0 -0.50901,-0.39223 z m -2.12649,0.0486 a 0.45463711,0.45463711 0 0 0 -0.45475,0.45424 0.45463711,0.45463711 0 0 0 0.45475,0.45475 0.45463711,0.45463711 0 0 0 0.45424,-0.45475 0.45463711,0.45463711 0 0 0 -0.45424,-0.45424 z m -1.10225,1.1622 a 0.45463711,0.45463711 0 0 0 -0.48214,0.42478 0.45463711,0.45463711 0 0 0 0.42581,0.48215 0.45463711,0.45463711 0 0 0 0.48214,-0.4253 0.45463711,0.45463711 0 0 0 -0.42581,-0.48163 z m 2.204,0 a 0.45463711,0.45463711 0 0 0 -0.42582,0.48163 0.45463711,0.45463711 0 0 0 0.48214,0.4253 0.45463711,0.45463711 0 0 0 0.42582,-0.48215 0.45463711,0.45463711 0 0 0 -0.48214,-0.42478 z m -3.52795,1.11932 a 0.45463711,0.45463711 0 0 0 -0.5085,0.39274 0.45463711,0.45463711 0 0 0 0.39326,0.50849 0.45463711,0.45463711 0 0 0 0.50849,-0.39326 0.45463711,0.45463711 0 0 0 -0.39325,-0.50797 z m 4.8519,0 a 0.45463711,0.45463711 0 0 0 -0.39326,0.50797 0.45463711,0.45463711 0 0 0 0.50849,0.39326 0.45463711,0.45463711 0 0 0 0.39326,-0.50849 0.45463711,0.45463711 0 0 0 -0.50849,-0.39274 z m -2.4257,0.0677 a 0.45463711,0.45463711 0 0 0 -0.45475,0.45424 0.45463711,0.45463711 0 0 0 0.45475,0.45475 0.45463711,0.45463711 0 0 0 0.45424,-0.45475 0.45463711,0.45463711 0 0 0 -0.45424,-0.45424 z m -1.24798,1.15755 a 0.45463711,0.45463711 0 0 0 -0.48214,0.42478 0.45463711,0.45463711 0 0 0 0.42529,0.48214 0.45463711,0.45463711 0 0 0 0.48215,-0.42529 0.45463711,0.45463711 0 0 0 -0.4253,-0.48163 z m 2.49545,0 a 0.45463711,0.45463711 0 0 0 -0.42529,0.48163 0.45463711,0.45463711 0 0 0 0.48214,0.42529 0.45463711,0.45463711 0 0 0 0.42529,-0.48214 0.45463711,0.45463711 0 0 0 -0.48214,-0.42478 z m -3.97236,1.10485 a 0.45463711,0.45463711 0 0 0 -0.50902,0.39274 0.45463711,0.45463711 0 0 0 0.39326,0.50849 0.45463711,0.45463711 0 0 0 0.50901,-0.39274 0.45463711,0.45463711 0 0 0 -0.39325,-0.50849 z m 5.44928,0 a 0.45463711,0.45463711 0 0 0 -0.39326,0.50849 0.45463711,0.45463711 0 0 0 0.50901,0.39274 0.45463711,0.45463711 0 0 0 0.39326,-0.50849 0.45463711,0.45463711 0 0 0 -0.50901,-0.39274 z m -2.72439,0.0868 a 0.45463711,0.45463711 0 0 0 -0.45475,0.45424 0.45463711,0.45463711 0 0 0 0.45475,0.45475 0.45463711,0.45463711 0 0 0 0.45424,-0.45475 0.45463711,0.45463711 0 0 0 -0.45424,-0.45424 z m -1.39423,1.1529 a 0.45463711,0.45463711 0 0 0 -0.48214,0.4253 0.45463711,0.45463711 0 0 0 0.42582,0.48214 0.45463711,0.45463711 0 0 0 0.48214,-0.42581 0.45463711,0.45463711 0 0 0 -0.42582,-0.48163 z m 2.78795,0 a 0.45463711,0.45463711 0 0 0 -0.42582,0.48163 0.45463711,0.45463711 0 0 0 0.48214,0.42581 0.45463711,0.45463711 0 0 0 0.42582,-0.48214 0.45463711,0.45463711 0 0 0 -0.48214,-0.4253 z m -4.4173,1.09038 a 0.45463711,0.45463711 0 0 0 -0.50902,0.39274 0.45463711,0.45463711 0 0 0 0.39326,0.50849 0.45463711,0.45463711 0 0 0 0.50901,-0.39274 0.45463711,0.45463711 0 0 0 -0.39325,-0.50849 z m 6.04665,0 a 0.45463711,0.45463711 0 0 0 -0.39325,0.50849 0.45463711,0.45463711 0 0 0 0.50901,0.39274 0.45463711,0.45463711 0 0 0 0.39326,-0.50849 0.45463711,0.45463711 0 0 0 -0.50902,-0.39274 z m -3.02307,0.10593 a 0.45463711,0.45463711 0 0 0 -0.45475,0.45424 0.45463711,0.45463711 0 0 0 0.45475,0.45475 0.45463711,0.45463711 0 0 0 0.45424,-0.45475 0.45463711,0.45463711 0 0 0 -0.45424,-0.45424 z m -1.54047,1.14825 a 0.45463711,0.45463711 0 0 0 -0.48214,0.4253 0.45463711,0.45463711 0 0 0 0.42581,0.48214 0.45463711,0.45463711 0 0 0 0.48214,-0.42581 0.45463711,0.45463711 0 0 0 -0.42581,-0.48163 z m 3.08043,0 a 0.45463711,0.45463711 0 0 0 -0.42581,0.48163 0.45463711,0.45463711 0 0 0 0.48214,0.42581 0.45463711,0.45463711 0 0 0 0.42581,-0.48214 0.45463711,0.45463711 0 0 0 -0.48214,-0.4253 z m -4.86275,1.07591 a 0.45463711,0.45463711 0 0 0 -0.5085,0.39274 0.45463711,0.45463711 0 0 0 0.39326,0.50901 0.45463711,0.45463711 0 0 0 0.50901,-0.39326 0.45463711,0.45463711 0 0 0 -0.39377,-0.50849 z m 6.64507,0 a 0.45463711,0.45463711 0 0 0 -0.39377,0.50849 0.45463711,0.45463711 0 0 0 0.50901,0.39326 0.45463711,0.45463711 0 0 0 0.39326,-0.50901 0.45463711,0.45463711 0 0 0 -0.5085,-0.39274 z m -3.32228,0.12505 a 0.45463711,0.45463711 0 0 0 -0.45475,0.45424 0.45463711,0.45463711 0 0 0 0.45475,0.45475 0.45463711,0.45463711 0 0 0 0.45424,-0.45475 0.45463711,0.45463711 0 0 0 -0.45424,-0.45424 z m -1.6862,1.1436 a 0.45463711,0.45463711 0 0 0 -0.48214,0.4253 0.45463711,0.45463711 0 0 0 0.4253,0.48214 0.45463711,0.45463711 0 0 0 0.48214,-0.42581 0.45463711,0.45463711 0 0 0 -0.4253,-0.48163 z m 3.37189,0 a 0.45463711,0.45463711 0 0 0 -0.4253,0.48163 0.45463711,0.45463711 0 0 0 0.48214,0.42581 0.45463711,0.45463711 0 0 0 0.4253,-0.48214 0.45463711,0.45463711 0 0 0 -0.48214,-0.4253 z m -5.30717,1.06092 a 0.45463711,0.45463711 0 0 0 -0.5085,0.39326 0.45463711,0.45463711 0 0 0 0.39274,0.50901 0.45463711,0.45463711 0 0 0 0.50902,-0.39326 0.45463711,0.45463711 0 0 0 -0.39326,-0.50901 z m 7.24245,0 a 0.45463711,0.45463711 0 0 0 -0.39326,0.50901 0.45463711,0.45463711 0 0 0 0.50902,0.39326 0.45463711,0.45463711 0 0 0 0.39274,-0.50901 0.45463711,0.45463711 0 0 0 -0.5085,-0.39326 z m -3.62097,0.14418 a 0.45463711,0.45463711 0 0 0 -0.45475,0.45475 0.45463711,0.45463711 0 0 0 0.45475,0.45475 0.45463711,0.45463711 0 0 0 0.45424,-0.45475 0.45463711,0.45463711 0 0 0 -0.45424,-0.45475 z m -1.83244,1.13946 a 0.45463711,0.45463711 0 0 0 -0.48214,0.4253 0.45463711,0.45463711 0 0 0 0.42581,0.48214 0.45463711,0.45463711 0 0 0 0.48214,-0.4253 0.45463711,0.45463711 0 0 0 -0.42581,-0.48214 z m 3.66437,0 a 0.45463711,0.45463711 0 0 0 -0.42581,0.48214 0.45463711,0.45463711 0 0 0 0.48214,0.4253 0.45463711,0.45463711 0 0 0 0.42581,-0.48214 0.45463711,0.45463711 0 0 0 -0.48214,-0.4253 z m -5.7521,1.04645 a 0.45463711,0.45463711 0 0 0 -0.50901,0.39326 0.45463711,0.45463711 0 0 0 0.39326,0.50901 0.45463711,0.45463711 0 0 0 0.50901,-0.39326 0.45463711,0.45463711 0 0 0 -0.39326,-0.50901 z m 7.83983,0 a 0.45463711,0.45463711 0 0 0 -0.39326,0.50901 0.45463711,0.45463711 0 0 0 0.50902,0.39326 0.45463711,0.45463711 0 0 0 0.39325,-0.50901 0.45463711,0.45463711 0 0 0 -0.50901,-0.39326 z m -3.91966,0.1633 a 0.45463711,0.45463711 0 0 0 -0.45475,0.45475 0.45463711,0.45463711 0 0 0 0.45475,0.45475 0.45463711,0.45463711 0 0 0 0.45424,-0.45475 0.45463711,0.45463711 0 0 0 -0.45424,-0.45475 z m -1.97817,1.13481 a 0.45463711,0.45463711 0 0 0 -0.48214,0.4253 0.45463711,0.45463711 0 0 0 0.4253,0.48214 0.45463711,0.45463711 0 0 0 0.48214,-0.4253 0.45463711,0.45463711 0 0 0 -0.4253,-0.48214 z m 3.95583,0 a 0.45463711,0.45463711 0 0 0 -0.4253,0.48214 0.45463711,0.45463711 0 0 0 0.48214,0.4253 0.45463711,0.45463711 0 0 0 0.4253,-0.48214 0.45463711,0.45463711 0 0 0 -0.48214,-0.4253 z m -6.19652,1.03198 a 0.45463711,0.45463711 0 0 0 -0.50901,0.39326 0.45463711,0.45463711 0 0 0 0.39325,0.50901 0.45463711,0.45463711 0 0 0 0.50902,-0.39326 0.45463711,0.45463711 0 0 0 -0.39326,-0.50901 z m 8.43721,0 a 0.45463711,0.45463711 0 0 0 -0.39326,0.50901 0.45463711,0.45463711 0 0 0 0.50902,0.39326 0.45463711,0.45463711 0 0 0 0.39325,-0.50901 0.45463711,0.45463711 0 0 0 -0.50901,-0.39326 z m -4.21835,0.18242 a 0.45463711,0.45463711 0 0 0 -0.45475,0.45475 0.45463711,0.45463711 0 0 0 0.45475,0.45475 0.45463711,0.45463711 0 0 0 0.45424,-0.45475 0.45463711,0.45463711 0 0 0 -0.45424,-0.45475 z m -2.12441,1.13016 a 0.45463711,0.45463711 0 0 0 -0.48215,0.42582 0.45463711,0.45463711 0 0 0 0.4253,0.48214 0.45463711,0.45463711 0 0 0 0.48214,-0.42582 0.45463711,0.45463711 0 0 0 -0.42529,-0.48214 z m 4.24831,0 a 0.45463711,0.45463711 0 0 0 -0.42529,0.48214 0.45463711,0.45463711 0 0 0 0.48214,0.42582 0.45463711,0.45463711 0 0 0 0.4253,-0.48214 0.45463711,0.45463711 0 0 0 -0.48215,-0.42582 z m -6.64145,1.01751 a 0.45463711,0.45463711 0 0 0 -0.50901,0.39326 0.45463711,0.45463711 0 0 0 0.39325,0.50901 0.45463711,0.45463711 0 0 0 0.5085,-0.39326 0.45463711,0.45463711 0 0 0 -0.39274,-0.50901 z m 9.03459,0 a 0.45463711,0.45463711 0 0 0 -0.39274,0.50901 0.45463711,0.45463711 0 0 0 0.5085,0.39326 0.45463711,0.45463711 0 0 0 0.39325,-0.50901 0.45463711,0.45463711 0 0 0 -0.50901,-0.39326 z m -4.51704,0.20154 a 0.45463711,0.45463711 0 0 0 -0.45475,0.45475 0.45463711,0.45463711 0 0 0 0.45475,0.45475 0.45463711,0.45463711 0 0 0 0.45424,-0.45475 0.45463711,0.45463711 0 0 0 -0.45424,-0.45475 z m -2.27066,1.12551 a 0.45463711,0.45463711 0 0 0 -0.48214,0.42582 0.45463711,0.45463711 0 0 0 0.42581,0.48214 0.45463711,0.45463711 0 0 0 0.48214,-0.42582 0.45463711,0.45463711 0 0 0 -0.42581,-0.48214 z m 4.54081,0 a 0.45463711,0.45463711 0 0 0 -0.42581,0.48214 0.45463711,0.45463711 0 0 0 0.48214,0.42582 0.45463711,0.45463711 0 0 0 0.42581,-0.48214 0.45463711,0.45463711 0 0 0 -0.48214,-0.42582 z m -7.08691,1.00304 a 0.45463711,0.45463711 0 0 0 -0.50901,0.39326 0.45463711,0.45463711 0 0 0 0.39326,0.50901 0.45463711,0.45463711 0 0 0 0.50901,-0.39326 0.45463711,0.45463711 0 0 0 -0.39326,-0.50901 z m 9.63301,0 a 0.45463711,0.45463711 0 0 0 -0.39326,0.50901 0.45463711,0.45463711 0 0 0 0.50901,0.39326 0.45463711,0.45463711 0 0 0 0.39326,-0.50901 0.45463711,0.45463711 0 0 0 -0.50901,-0.39326 z m -4.81625,0.22066 a 0.45463711,0.45463711 0 0 0 -0.45475,0.45475 0.45463711,0.45463711 0 0 0 0.45475,0.45475 0.45463711,0.45463711 0 0 0 0.45424,-0.45475 0.45463711,0.45463711 0 0 0 -0.45424,-0.45475 z m -2.41639,1.12086 a 0.45463711,0.45463711 0 0 0 -0.48214,0.42582 0.45463711,0.45463711 0 0 0 0.4253,0.48214 0.45463711,0.45463711 0 0 0 0.48214,-0.42582 0.45463711,0.45463711 0 0 0 -0.4253,-0.48214 z m 4.83227,0 a 0.45463711,0.45463711 0 0 0 -0.4253,0.48214 0.45463711,0.45463711 0 0 0 0.48214,0.42582 0.45463711,0.45463711 0 0 0 0.4253,-0.48214 0.45463711,0.45463711 0 0 0 -0.48214,-0.42582 z m -7.53133,0.98857 a 0.45463711,0.45463711 0 0 0 -0.50901,0.39326 0.45463711,0.45463711 0 0 0 0.39326,0.50901 0.45463711,0.45463711 0 0 0 0.50901,-0.39326 0.45463711,0.45463711 0 0 0 -0.39326,-0.50901 z m 10.23039,0 a 0.45463711,0.45463711 0 0 0 -0.39326,0.50901 0.45463711,0.45463711 0 0 0 0.50901,0.39326 0.45463711,0.45463711 0 0 0 0.39326,-0.50901 0.45463711,0.45463711 0 0 0 -0.50901,-0.39326 z m -5.11494,0.23978 a 0.45463711,0.45463711 0 0 0 -0.45475,0.45475 0.45463711,0.45463711 0 0 0 0.45475,0.45476 0.45463711,0.45463711 0 0 0 0.45424,-0.45476 0.45463711,0.45463711 0 0 0 -0.45424,-0.45475 z m -2.56263,1.11673 a 0.45463711,0.45463711 0 0 0 -0.48214,0.42529 0.45463711,0.45463711 0 0 0 0.4253,0.48215 0.45463711,0.45463711 0 0 0 0.48214,-0.4253 0.45463711,0.45463711 0 0 0 -0.4253,-0.48214 z m 5.12475,0 a 0.45463711,0.45463711 0 0 0 -0.4253,0.48214 0.45463711,0.45463711 0 0 0 0.48215,0.4253 0.45463711,0.45463711 0 0 0 0.42529,-0.48215 0.45463711,0.45463711 0 0 0 -0.48214,-0.42529 z"/>
  </g>
</svg>