<?xml version="1.0" encoding="UTF-8" standalone="yes"?>
<svg width="52.917mm" height="52.917mm" viewBox="0 0 52.917 52.917" version="1.1" id="svg8450" xmlns="http://www.w3.org/2000/svg" xmlns:svg="http://www.w3.org/2000/svg">
  <defs id="defs8447"/>
  <g id="layer1" transform="translate(-71.967918,-104.66201)">
    <rect style="fill:#ffffff;fill-opacity:1;stroke:none;stroke-width:2.01819" id="rect70551" width="52.917" height="52.917" x="71.967918" y="104.66201"/>
    <path id="rect8374" style="display:inline;stroke-width:1.7" d="m 112.44391,113.42626 -3.2613,5.07928 h 1.50534 l -2.54042,3.88916 h 1.37976 l -2.60294,3.9517 h 4.23385 v 3.48144 h 1.28571 1.28519 v -3.48144 h 4.23437 l -2.60346,-3.9517 h 1.38028 l -2.54041,-3.88916 h 1.50533 z m -31.231685,17.75085 c -1.286935,0 -2.322855,1.13225 -2.322855,2.53835 V 143.997 c 0,1.4061 1.03592,2.53782 2.322855,2.53782 h 8.565886 a 3.3339369,3.3339369 0 0 1 -0.0052,-0.0646 3.3339369,3.3339369 0 0 1 3.334164,-3.33364 3.3339369,3.3339369 0 0 1 3.333646,3.33364 3.3339369,3.3339369 0 0 1 -0.0015,0.0646 h 12.433869 c 1.24623,0 2.56944,-1.09916 2.34921,-2.40914 h 6.32416 v -1.58957 h -6.70657 l -2.15284,-8.82065 c -0.33334,-1.36602 -1.33977,-2.53835 -2.62671,-2.53835 z m 0.232028,2.80655 h 3.691764 c 0.350912,0 0.633036,0.28212 0.633036,0.63304 v 8.89299 c 0,0.35092 -0.282124,0.63356 -0.633036,0.63356 h -3.691764 c -0.350913,0 -0.633037,-0.28264 -0.633037,-0.63356 v -8.89299 c 0,-0.35092 0.282124,-0.63304 0.633037,-0.63304 z m 8.159708,0.0305 h 3.920174 c 0.355066,0 0.640788,0.28572 0.640788,0.64079 v 1.64227 c 0,0.35507 -0.285722,0.64079 -0.640788,0.64079 h -3.920174 c -0.355062,0 -0.640788,-0.28572 -0.640788,-0.64079 v -1.64227 c 0,-0.35507 0.285726,-0.64079 0.640788,-0.64079 z m 10.190593,0.0909 h 3.798216 c 0.35507,0 0.64079,0.28572 0.64079,0.64079 v 3.64629 c 0,0.35506 -0.28572,0.64078 -0.64079,0.64078 h -3.798216 c -0.355066,0 -0.641305,-0.28572 -0.641305,-0.64078 v -3.64629 c 0,-0.35507 0.286239,-0.64079 0.641305,-0.64079 z m -6.687447,10.02058 a 2.3445106,2.3445106 0 0 0 -2.34456,2.34456 2.3445106,2.3445106 0 0 0 2.34456,2.34456 2.3445106,2.3445106 0 0 0 2.344559,-2.34456 2.3445106,2.3445106 0 0 0 -2.344559,-2.34456 z"/>
  </g>
</svg>