<?xml version="1.0" encoding="UTF-8" standalone="yes"?>
<svg width="52.917mm" height="52.917mm" viewBox="0 0 52.917 52.917" version="1.1" id="svg2155" xmlns="http://www.w3.org/2000/svg" xmlns:svg="http://www.w3.org/2000/svg">
  <defs id="defs2152"/>
  <g id="layer1" transform="translate(-61.81554,-121.86942)">
    <rect style="fill:#ffffff;fill-opacity:1;stroke:none;stroke-width:2.01819" id="rect70551" width="52.917" height="52.917" x="61.81554" y="121.86942"/>
    <path id="rect1646" style="fill:#000000;stroke:none;stroke-width:2.858" d="m 92.30133,129.27999 c -2.06986,-1.3e-4 -3.74793,1.67771 -3.74809,3.74757 -1.3e-4,2.07007 1.67802,3.74822 3.74809,3.74809 2.07007,1.3e-4 3.74822,-1.67802 3.74809,-3.74809 -1.6e-4,-2.06986 -1.67823,-3.7477 -3.74809,-3.74757 z m -7.26726,4.24935 c -0.61419,0.0166 -1.27524,0.17852 -1.96112,0.54829 l -8.34833,4.81986 c -1.29808,0.74945 -1.98914,2.13492 -1.90789,3.53105 -0.004,0.0649 -0.007,0.13035 -0.007,0.19637 v 21.90099 c 0,1.57898 1.27098,2.84995 2.84996,2.84995 1.57898,0 2.84996,-1.27097 2.84996,-2.84995 v -18.98282 c 0.0132,-0.007 0.0266,-0.0141 0.0398,-0.0217 l 6.5629,-3.78943 v 2.74299 c -0.0156,0.60582 0.12387,1.37114 0.4961,1.8004 l 3.89898,4.35064 c 0.67893,0.75756 1.83557,0.82104 2.59313,0.14211 0.75756,-0.67893 0.82104,-1.83556 0.14211,-2.59312 l -3.43028,-3.82716 v -7.34839 c 0.0356,-1.54709 -1.58451,-3.52949 -3.77807,-3.47007 z m 13.34234,2.59209 c -0.1913,-0.004 -0.35308,0.14076 -0.37104,0.33125 -0.019,0.20107 0.12863,0.37946 0.3297,0.39842 0.20107,0.019 0.37946,-0.12862 0.39842,-0.32969 0.019,-0.20107 -0.12862,-0.37947 -0.32969,-0.39843 -0.009,-8.6e-4 -0.0182,-0.001 -0.0274,-0.002 z m -1.43144,0.0439 c -0.19129,-0.004 -0.35307,0.14077 -0.37103,0.33125 -0.019,0.20126 0.12893,0.37973 0.33021,0.39843 0.20107,0.0187 0.37921,-0.12915 0.39791,-0.33022 0.0187,-0.20088 -0.12885,-0.37894 -0.3297,-0.3979 -0.009,-8.6e-4 -0.0182,-0.001 -0.0274,-0.002 z m -1.18132,0.48111 c -0.18163,-0.004 -0.33535,0.13334 -0.35243,0.3142 -0.0179,0.1908 0.12235,0.35995 0.31316,0.37775 0.19062,0.0179 0.35968,-0.12204 0.37775,-0.31264 0.0179,-0.19062 -0.12204,-0.35969 -0.31264,-0.37776 -0.009,-8.4e-4 -0.0172,-0.001 -0.0258,-0.002 z m 3.96151,0.006 c -0.23552,-0.005 -0.43473,0.17321 -0.45682,0.40773 -0.0234,0.24763 0.15852,0.46728 0.40618,0.49041 0.24744,0.0231 0.46675,-0.15875 0.48989,-0.40618 0.0231,-0.24725 -0.15844,-0.46649 -0.40566,-0.48989 -0.0112,-10e-4 -0.0224,-0.002 -0.0336,-0.002 z m -2.21175,0.81236 c -0.18161,-0.003 -0.33509,0.13385 -0.35191,0.31471 -0.0179,0.1908 0.12235,0.35995 0.31316,0.37775 0.1908,0.0179 0.35995,-0.12235 0.37775,-0.31316 0.0179,-0.1908 -0.12235,-0.35995 -0.31316,-0.37775 -0.009,-8.4e-4 -0.0172,-0.001 -0.0258,-0.002 z m -2.81275,0.2129 c -0.18143,-0.003 -0.33484,0.13355 -0.35191,0.3142 -0.0179,0.1908 0.12235,0.35995 0.31316,0.37775 0.19062,0.0179 0.35968,-0.12204 0.37775,-0.31264 0.0182,-0.19081 -0.12182,-0.36021 -0.31264,-0.37827 -0.009,-6.8e-4 -0.0176,-0.001 -0.0264,-0.001 z m 6.15932,0.0749 c -0.25658,-0.005 -0.47352,0.18893 -0.49765,0.44442 -0.0253,0.26968 0.17269,0.50887 0.44236,0.53434 0.26987,0.0256 0.50938,-0.17247 0.53485,-0.44235 0.0253,-0.26987 -0.173,-0.50913 -0.44287,-0.53434 -0.0122,-0.001 -0.0244,-0.002 -0.0367,-0.002 z m -2.06964,0.047 c -0.23532,-0.004 -0.43423,0.17341 -0.45631,0.40773 -0.0231,0.24725 0.15844,0.46649 0.40566,0.48989 0.24744,0.0234 0.46701,-0.15821 0.49041,-0.40566 0.0234,-0.24763 -0.15852,-0.46728 -0.40617,-0.49041 -0.0112,-9.3e-4 -0.0224,-0.001 -0.0336,-0.002 z m -2.49546,0.14056 c -0.18142,-0.003 -0.33484,0.13354 -0.35191,0.31419 -0.0179,0.19062 0.12204,0.35969 0.31264,0.37776 0.19062,0.0179 0.35968,-0.12204 0.37775,-0.31264 0.0182,-0.19081 -0.12181,-0.36022 -0.31264,-0.37828 -0.009,-6.6e-4 -0.0172,-0.001 -0.0258,-0.001 z m 3.4494,0.97203 c -0.25658,-0.005 -0.47351,0.18894 -0.49764,0.44442 -0.0253,0.26968 0.17268,0.50886 0.44235,0.53434 0.26987,0.0256 0.50938,-0.17247 0.53485,-0.44235 0.0253,-0.26986 -0.17299,-0.50912 -0.44286,-0.53434 -0.0122,-0.001 -0.0245,-0.002 -0.0367,-0.002 z m -5.36608,0.11524 c -0.17174,-0.003 -0.31686,0.12663 -0.33279,0.29766 -0.0168,0.18035 0.11577,0.34017 0.2961,0.35708 0.18035,0.0168 0.34018,-0.11576 0.35709,-0.2961 0.0168,-0.18017 -0.11546,-0.33992 -0.29559,-0.35709 -0.008,-8.3e-4 -0.0165,-10e-4 -0.0248,-0.002 z m 1.24127,0.13746 c -0.17194,-0.003 -0.31737,0.12643 -0.33331,0.29766 -0.0168,0.18035 0.11577,0.34017 0.2961,0.35708 0.18036,0.0171 0.34045,-0.11523 0.35761,-0.29559 0.0171,-0.18054 -0.11555,-0.3407 -0.29611,-0.3576 -0.008,-8.2e-4 -0.0162,-0.001 -0.0243,-0.002 z m -1.3379,1.30018 c -0.16205,1.4e-4 -0.29338,0.13147 -0.29352,0.29352 -1.5e-4,0.16225 0.13127,0.2939 0.29352,0.29404 0.16246,1.5e-4 0.29419,-0.13158 0.29404,-0.29404 -1.4e-4,-0.16225 -0.13179,-0.29367 -0.29404,-0.29352 z m 1.26917,0 c -0.16225,-1.5e-4 -0.2939,0.13127 -0.29404,0.29352 -1.5e-4,0.16246 0.13158,0.29419 0.29404,0.29404 0.16225,-1.4e-4 0.29367,-0.13179 0.29352,-0.29404 -1.4e-4,-0.16205 -0.13147,-0.29338 -0.29352,-0.29352 z m -5.37228,2.92127 c 3.6e-4,0.47125 0.20079,0.92018 0.55139,1.23507 l 7.25847,8.1287 h 5.75004 v -11.02568 l -12.04739,-3e-5 c -0.91849,-0.0125 -1.51258,0.74406 -1.51251,1.66194 z"/>
  </g>
</svg>