<?xml version="1.0" encoding="UTF-8" standalone="yes"?>
<svg width="52.917mm" height="52.917mm" viewBox="0 0 52.917 52.917" version="1.1" id="svg32849" xmlns="http://www.w3.org/2000/svg" xmlns:svg="http://www.w3.org/2000/svg">
  <defs id="defs32846"/>
  <g id="layer1" transform="translate(-38.122139,-54.444729)">
    <rect style="fill:#ffffff;fill-opacity:1;stroke:none;stroke-width:2.01819" id="rect70551" width="52.917" height="52.917" x="38.122139" y="54.444729"/>
    <path id="rect32219-0" style="fill:#000000;fill-opacity:1;stroke-width:0.990638;paint-order:fill markers stroke" d="m 59.561461,64.19653 c -0.292618,0 -0.528139,0.23552 -0.528139,0.52814 v 0.64212 0.88034 h 1.056446 v -1.46018 -0.0623 c 0,-0.29262 -0.235692,-0.52814 -0.528307,-0.52814 z m -0.233097,2.54666 c -4.700283,0.0198 -9.846334,2.05931 -11.886074,5.67914 2.97939,-0.77689 5.412157,-0.81262 8.109082,0.0428 0.386498,-2.68144 1.860362,-4.07082 3.776992,-5.72197 z m 0.466362,0 c 1.916627,1.65115 3.390495,3.04053 3.776992,5.72197 2.696925,-0.85545 5.129694,-0.81972 8.109083,-0.0428 C 69.641065,68.80253 64.495009,66.763 59.794726,66.74322 Z m -0.761404,5.10698 v 15.57945 h 1.056446 V 71.85017 Z m 8.901373,5.27045 c -1.019244,-2e-5 -1.845509,0.82625 -1.845492,1.84549 -1.7e-5,1.01925 0.826248,1.84552 1.845492,1.8455 1.019247,2e-5 1.845512,-0.82625 1.845495,-1.8455 1.7e-5,-1.01924 -0.826248,-1.84551 -1.845495,-1.84549 z m -0.490056,4.35137 c -0.492815,0.28783 -0.824917,0.69454 -1.074049,1.15969 l -3.402603,6.45095 c -0.268473,0.50899 -0.119184,1.11151 0.334799,1.35097 0.453986,0.23946 1.035577,0.0225 1.304049,-0.4865 l 2.392572,-4.53567 2.124535,4.15956 c 0.43985,0.86117 1.723016,1.43834 2.758078,0.83269 1.519242,-1.21457 3.080494,-2.74074 4.585804,-4.0788 l 2.377729,3.86931 c 0.299162,0.49158 0.975573,0.62212 1.516666,0.29282 0.541093,-0.32929 0.735836,-0.9901 0.436673,-1.48168 L 77.780914,84.0463 C 77.45299,83.549 76.953382,83.42139 76.46185,83.52806 76.319568,83.33318 76.096989,83.17822 75.824504,83.10743 l -6.119665,-1.6817 c -0.748774,-0.22437 -1.572172,-0.29504 -2.2602,0.0463 z m 3.809217,2.41151 3.431101,0.89144 -2.055385,1.82331 z m -18.741278,9.17714 c -0.823068,0 -1.555188,0.27723 -2.233368,0.52489 -0.67817,0.24766 -1.30241,0.46569 -1.8943,0.46569 -0.30135,0 -0.71581,-0.061 -1.16036,-0.15239 v 1.01549 c 0.4062,0.0765 0.8036,0.12747 1.16036,0.12747 0.82308,0 1.55537,-0.27792 2.23354,-0.52558 0.67817,-0.24765 1.30224,-0.46499 1.894128,-0.46499 0.591879,0 1.216123,0.21734 1.894297,0.46499 0.678171,0.24766 1.410295,0.52558 2.233364,0.52558 0.823068,0 1.55536,-0.27792 2.233534,-0.52558 0.678171,-0.24765 1.302243,-0.46499 1.894126,-0.46499 0.591883,0 1.216127,0.21734 1.894298,0.46499 0.678174,0.24766 1.410295,0.52558 2.233363,0.52558 0.823068,0 1.555364,-0.27792 2.233535,-0.52558 0.678174,-0.24765 1.302246,-0.46499 1.894126,-0.46499 0.591883,0 1.216126,0.21734 1.894301,0.46499 0.67817,0.24766 1.410291,0.52558 2.233363,0.52558 0.823068,0 1.555364,-0.27792 2.233531,-0.52558 0.678171,-0.24765 1.302247,-0.46499 1.894129,-0.46499 0.591883,0 1.216124,0.21734 1.894298,0.46499 0.678177,0.24766 1.410295,0.52558 2.233363,0.52558 0.168488,0 0.3474,-0.0133 0.530526,-0.0329 v -1.00013 c -0.19824,0.0268 -0.378905,0.0425 -0.530526,0.0425 -0.591883,0 -1.215952,-0.21803 -1.894126,-0.46569 -0.678174,-0.24765 -1.410463,-0.52489 -2.233535,-0.52489 -0.823071,0 -1.555189,0.27723 -2.233363,0.52489 -0.678174,0.24766 -1.302418,0.46569 -1.894297,0.46569 -0.591887,0 -1.215955,-0.21803 -1.894129,-0.46569 -0.678171,-0.24765 -1.410464,-0.52489 -2.233532,-0.52489 -0.823071,0 -1.555192,0.27724 -2.233366,0.52489 -0.678171,0.24766 -1.302415,0.46569 -1.894298,0.46569 -0.59188,0 -1.215955,-0.21803 -1.894126,-0.46569 -0.678174,-0.24765 -1.410467,-0.52489 -2.233535,-0.52489 -0.823068,0 -1.555192,0.27723 -2.233363,0.52489 -0.678174,0.24766 -1.302415,0.46569 -1.894297,0.46569 -0.591883,0 -1.215956,-0.21803 -1.89413,-0.46569 -0.67817,-0.24766 -1.410463,-0.52489 -2.233531,-0.52489 z m 0,2.56816 c -0.823068,0 -1.555188,0.27792 -2.233368,0.52558 -0.67817,0.24766 -1.30241,0.465 -1.8943,0.465 -0.30135,0 -0.71581,-0.0608 -1.16036,-0.15204 v 1.01532 c 0.4062,0.0763 0.8036,0.1273 1.16036,0.1273 0.82308,0 1.55537,-0.27724 2.23354,-0.5249 0.67817,-0.24766 1.30224,-0.46568 1.894128,-0.46568 0.591879,0 1.216123,0.21802 1.894297,0.46568 0.678171,0.24766 1.410292,0.5249 2.233364,0.5249 0.823068,0 1.55536,-0.27724 2.233534,-0.5249 0.678171,-0.24766 1.302243,-0.46568 1.894126,-0.46568 0.591883,0 1.216127,0.21802 1.894298,0.46568 0.678174,0.24766 1.410295,0.5249 2.233363,0.5249 0.823071,0 1.555364,-0.27724 2.233535,-0.5249 0.678174,-0.24766 1.302246,-0.46568 1.894126,-0.46568 0.591883,0 1.216126,0.21802 1.894301,0.46568 0.67817,0.24766 1.410291,0.5249 2.233363,0.5249 0.823068,0 1.555364,-0.27724 2.233535,-0.5249 0.678167,-0.24766 1.302243,-0.46568 1.894125,-0.46568 0.591883,0 1.216124,0.21802 1.894298,0.46568 0.678177,0.24766 1.410295,0.5249 2.233363,0.5249 0.168491,0 0.347397,-0.0133 0.530526,-0.0329 v -1.00013 c -0.19824,0.0268 -0.378905,0.0425 -0.530526,0.0425 -0.591883,0 -1.215955,-0.21734 -1.894126,-0.465 -0.678174,-0.24766 -1.410463,-0.52558 -2.233535,-0.52558 -0.823071,0 -1.555189,0.27792 -2.233363,0.52558 -0.678174,0.24766 -1.302418,0.465 -1.894297,0.465 -0.591887,0 -1.215955,-0.21734 -1.894129,-0.465 -0.678171,-0.24766 -1.410464,-0.52558 -2.233535,-0.52558 -0.823068,0 -1.555189,0.27792 -2.233363,0.52558 -0.678171,0.24766 -1.302415,0.465 -1.894298,0.465 -0.59188,0 -1.215955,-0.21734 -1.894126,-0.465 -0.678174,-0.24766 -1.410467,-0.52558 -2.233535,-0.52558 -0.823068,0 -1.555192,0.27792 -2.233363,0.52558 -0.678174,0.24766 -1.302415,0.465 -1.894297,0.465 -0.591883,0 -1.215956,-0.21734 -1.89413,-0.465 -0.67817,-0.24766 -1.410463,-0.52558 -2.233531,-0.52558 z"/>
  </g>
</svg>