<?xml version="1.0" encoding="UTF-8" standalone="yes"?>
<svg width="52.917mm" height="52.917mm" viewBox="0 0 52.917 52.917" version="1.1" id="svg8443" xmlns="http://www.w3.org/2000/svg" xmlns:svg="http://www.w3.org/2000/svg">
  <defs id="defs8440"/>
  <g id="layer1" transform="translate(-132.53802,-176.24486)">
    <rect style="fill:#ffffff;fill-opacity:1;stroke:none;stroke-width:2.01819" id="rect70551" width="52.917" height="52.917" x="132.53802" y="176.24486"/>
    <path id="rect8232" style="display:inline;fill:#000000;stroke-width:0.899999" d="m 144.0393,187.16762 c -2.05593,0 -3.71089,1.65549 -3.71089,3.7114 v 1.88568 11.49852 6.24975 l 3.74241,2.43447 -4.73459,5.29167 4.05246,-0.006 3.8654,-4.66483 h 0.0289 v 0.003 l 2.87992,-0.002 2.88045,0.002 v -0.003 h 0.0289 l 3.8654,4.66483 4.05246,0.006 -4.73459,-5.29167 3.7424,-2.43447 v -6.24975 -11.49852 -1.88568 c 0,-2.0559 -1.65495,-3.7114 -3.71088,-3.7114 h -5.29322 c -0.28597,0 -0.56387,0.0334 -0.83095,0.0941 -0.26694,-0.0606 -0.54465,-0.0941 -0.83044,-0.0941 z m 3.14244,1.59525 h 5.96346 c 0.12847,0 0.23203,0.10356 0.23203,0.23203 v 1.07125 c 0,0.12847 -0.10356,0.23203 -0.23203,0.23203 h -5.96346 c -0.12847,0 -0.23203,-0.10356 -0.23203,-0.23203 v -1.07125 c 0,-0.12847 0.10356,-0.23203 0.23203,-0.23203 z m -2.86132,3.0608 h 11.68559 c 0.64739,0 1.16892,0.51563 1.16892,1.156 v 0.6842 4.51703 2.9962 h -14.02292 v -2.9962 -4.51703 -0.6842 c 0,-0.64037 0.52101,-1.156 1.16841,-1.156 z m 17.22478,2.17506 v 1.39888 h 2.60088 c 0.17694,0 0.31936,0.14242 0.31936,0.31936 v 0.60875 c 0,0.17694 -0.14242,0.31936 -0.31936,0.31936 h -2.60088 v 1.49035 h 5.5516 c 0.17695,0 0.31936,0.14241 0.31936,0.31936 v 0.6997 c 0,0.007 -6.1e-4,0.0134 -0.001,0.0202 3.3e-4,0.003 0.001,0.007 0.001,0.0103 v 5.17126 c 0,0.059 -0.0475,0.10645 -0.10645,0.10645 h -5.76451 v 5.80998 h 2.70733 v 2.11408 c 0,0.44658 0.35958,0.80616 0.80616,0.80616 h 1.64279 c 0.44658,0 0.80615,-0.35958 0.80615,-0.80616 v -2.11408 h 1.76423 v -4.92786 -8.82169 -0.12144 c 0,-1.33126 -1.07165,-2.40295 -2.40295,-2.40295 z m 9.32553,5.06429 v 2.49442 h 3.0546 c 0.12144,0 0.16604,0.0799 0.19689,0.19741 l 0.76843,2.92798 h -4.01992 v 5.71076 h 3.0329 v 1.96836 c 0,0.3694 0.29722,0.66663 0.66662,0.66663 h 1.54875 c 0.3694,0 0.66714,-0.29723 0.66714,-0.66663 v -1.96836 h 1.87069 v -3.19412 -0.13952 -0.0109 c 0,-1.3106 -1.05471,-2.36599 -2.36523,-2.36627 l -0.76895,-2.92798 c -0.22164,-0.84422 -0.7245,-1.59784 -1.59732,-1.59784 h -1.01854 v -1.09399 z m -25.92348,5.67356 a 1.828288,1.828288 0 0 1 1.82831,1.82831 1.828288,1.828288 0 0 1 -1.82831,1.82831 1.828288,1.828288 0 0 1 -1.82831,-1.82831 1.828288,1.828288 0 0 1 1.82831,-1.82831 z m 10.43192,0 a 1.828288,1.828288 0 0 1 1.82832,1.82831 1.828288,1.828288 0 0 1 -1.82832,1.82831 1.828288,1.828288 0 0 1 -1.82831,-1.82831 1.828288,1.828288 0 0 1 1.82831,-1.82831 z m 10.57714,1.70325 a 1.3080041,1.3080041 0 0 1 1.30793,1.30793 1.3080041,1.3080041 0 0 1 -1.30793,1.30793 1.3080041,1.3080041 0 0 1 -1.30793,-1.30793 1.3080041,1.3080041 0 0 1 1.30793,-1.30793 z m 9.36894,0.0305 a 1.2319574,1.2319574 0 0 1 1.23196,1.23197 1.2319574,1.2319574 0 0 1 -1.23196,1.23196 1.2319574,1.2319574 0 0 1 -1.23197,-1.23196 1.2319574,1.2319574 0 0 1 1.23197,-1.23197 z"/>
  </g>
</svg>