<?xml version="1.0" encoding="UTF-8" standalone="yes"?>
<svg width="52.917mm" height="52.917mm" viewBox="0 0 52.917 52.917" version="1.1" id="svg3512" xmlns="http://www.w3.org/2000/svg" xmlns:svg="http://www.w3.org/2000/svg">
  <defs id="defs3509"/>
  <g id="layer1" transform="translate(-179.4615,-95.170074)">
    <rect style="fill:#ffffff;fill-opacity:1;stroke:none;stroke-width:2.01819" id="rect70551" width="52.917" height="52.917" x="179.4615" y="95.170074"/>
    <path id="path3341" style="color:#000000;fill:#000000;-inkscape-stroke:none" d="m 193.19322,101.32116 -0.0915,0.0641 c -4.38809,3.15391 -4.75752,8.86088 -4.69532,11.24428 v 22.5919 h 6.97115 c -0.009,0.0508 -0.0145,0.10294 -0.0145,0.15658 0,0.48478 0.39013,0.87488 0.87489,0.87488 h 7.53028 c 0.77356,-0.002 0.64556,0.88136 0.19534,0.9002 h -6.50038 c -0.0637,0 -0.12254,-0.0187 -0.1726,-0.0501 h -0.23667 c -0.48478,0 -0.8754,0.39011 -0.8754,0.87488 0,0.48478 0.39062,0.87488 0.8754,0.87488 h 7.73544 c 0.63618,-0.0193 0.56547,0.83612 0.17415,0.85008 h -5.43481 c -0.48477,0 -0.87488,0.39063 -0.87488,0.8754 0,0.48478 0.39011,0.87488 0.87488,0.87488 h 7.81658 c 2.83544,1.1085 6.43343,0.10596 8.59379,-0.97513 h 7.50032 v -7.65018 h -7.35046 c -0.48565,0 -1.62179,-3.89454 -5.55005,-3.90054 l -6.56704,-5.2e-4 c -0.0796,0 -0.15029,0.008 -0.21601,0.0202 v -4.64726 h 4.42506 c 0.14901,0.0233 0.30017,0.0351 0.45371,0.0351 1.6529,0 3.05281,-1.38387 4.03128,-3.45509 0.97847,-2.07123 1.57045,-4.88902 1.57045,-7.99796 0,-3.10897 -0.59198,-5.92519 -1.57045,-7.99641 -0.97847,-2.07122 -2.37838,-3.45509 -4.03128,-3.45509 -0.35472,0 -0.69771,0.0639 -1.02732,0.18449 v -0.29353 z m 0.25425,0.69919 h 13.38109 c -0.87228,0.59369 -1.62592,1.60079 -2.22312,2.86494 -0.86041,1.82134 -1.42163,4.21885 -1.54461,6.88485 h -0.004 v 0.0966 c -0.0141,0.33446 -0.0217,0.67277 -0.0217,1.01493 0,0.34215 0.008,0.68043 0.0217,1.01492 v 20.62562 h -13.95109 v -21.33772 h 0.49972 v -0.70125 h -0.50127 c -0.0413,-2.32976 0.41202,-7.5725 4.34341,-10.46292 z m 15.18718,0.12867 c 1.24111,0 2.46313,1.09988 3.38119,3.04322 0.91806,1.94335 1.49965,4.67239 1.49965,7.68946 0,3.01704 -0.58159,5.7461 -1.49965,7.68945 -0.91806,1.94336 -2.14008,3.04271 -3.38119,3.04271 -1.24108,0 -2.46054,-1.09935 -3.3786,-3.04271 -0.91807,-1.94335 -1.50017,-4.67241 -1.50017,-7.68945 0,-3.01707 0.5821,-5.74611 1.50017,-7.68946 0.91806,-1.94334 2.13752,-3.04322 3.3786,-3.04322 z m 0.001,6.84144 a 1.8385403,3.891829 0 0 0 -1.83865,3.89175 1.8385403,3.891829 0 0 0 1.83865,3.89176 1.8385403,3.891829 0 0 0 1.83865,-3.89176 1.8385403,3.891829 0 0 0 -1.83865,-3.89175 z m -17.93069,3.49281 v 0.70125 h 2.05104 v -0.70125 z m 3.0763,0 v 0.70125 h 1.90066 v -0.70125 z m 3.12487,0 v 0.70125 h 1.97456 v -0.70125 z m 2.97501,0 v 0.70125 h 2.12494 v -0.70125 z m 3.8747,6.06423 c 0.23413,0.85045 0.51972,1.63394 0.84956,2.33216 0.55039,1.16506 1.23352,2.11257 2.02003,2.7187 h -2.86959 z m 0,11.77499 c 0.0267,0.0186 0.0536,0.037 0.0822,0.0543 0.69163,0.41973 1.37314,0.7484 2.14044,0.76171 0.94358,0.0294 2.64049,0.0202 3.58582,0.0429 0.53369,0.0317 0.50172,0.67076 -0.015,0.67076 h -4.26124 -1.53221 z m 0,3.27991 h 0.11059 c 0.66441,0.003 0.61801,0.8897 -0.0444,0.9002 h -0.0662 z"/>
  </g>
</svg>