<?xml version="1.0" encoding="UTF-8" standalone="yes"?>
<svg width="52.917mm" height="52.917mm" viewBox="0 0 52.917 52.917" version="1.1" id="svg2759" xmlns="http://www.w3.org/2000/svg" xmlns:svg="http://www.w3.org/2000/svg">
  <defs id="defs2756"/>
  <g id="layer1" transform="translate(-170.39433,-162.13478)">
    <rect style="fill:#ffffff;fill-opacity:1;stroke:none;stroke-width:2.01819" id="rect70551" width="52.917" height="52.917" x="170.39433" y="162.13478"/>
    <path id="rect1831" style="fill:#000000;fill-opacity:1;stroke-width:1.2;stroke-linecap:round" d="m 191.293,172.9851 c -1.56225,9e-5 -2.82868,1.26652 -2.82877,2.82877 9e-5,1.56225 1.26652,2.82868 2.82877,2.82877 1.56225,-9e-5 2.82868,-1.26652 2.82877,-2.82877 -9e-5,-1.56225 -1.26652,-2.82868 -2.82877,-2.82877 z m 0.31316,6.50761 v 5.2e-4 c -0.23084,-0.005 -0.46581,0.0123 -0.70228,0.0548 -1.89178,0.33994 -3.14132,2.13691 -2.80138,4.02869 l 1.43764,7.999 c 0.35348,1.90144 1.41538,3.03051 3.56257,3.01428 h 6.07457 l 0.59996,7.93802 c 0.0719,0.96632 0.89976,1.68707 1.85673,1.61592 0.95698,-0.0712 1.66969,-0.90643 1.59784,-1.87275 l -0.80305,-10.79831 c -0.0717,-0.96405 -0.8959,-1.68319 -1.85002,-1.61592 -0.13404,-0.0327 -0.2742,-0.0507 -0.41858,-0.0507 h -3.88813 l -0.82528,-4.59145 4.9103,-0.002 c 0.58883,-0.004 1.39962,-0.48026 1.38441,-1.3839 -0.0129,-0.76666 -0.54921,-1.38441 -1.38441,-1.38441 h -4.13618 c -1.27799,-1.13347 -2.3877,-2.9352 -4.61471,-2.95176 z m 12.70414,3.86075 c -0.53628,0.008 -1.07176,0.1716 -1.50379,0.51005 -0.46083,0.36098 -0.78426,0.93984 -0.80305,1.64279 v 0.006 1.2852 a 0.44999999,0.44999999 0 0 0 0.44958,0.45113 0.44999999,0.44999999 0 0 0 0.44907,-0.45113 v -1.26763 c 0.0122,-0.45661 0.18891,-0.74554 0.45889,-0.95704 0.26999,-0.2115 0.65158,-0.32738 1.03508,-0.31833 0.3835,0.009 0.75671,0.14112 1.01596,0.37155 0.25926,0.23042 0.42888,0.54779 0.41961,1.05058 v 0.004 18.52083 h 0.9002 v -18.5074 c 0.0135,-0.73387 -0.27778,-1.34475 -0.72243,-1.73994 -0.44465,-0.39519 -1.02003,-0.58646 -1.59164,-0.59996 -0.0357,-8.5e-4 -0.0717,-0.001 -0.10748,-5.2e-4 z m -17.33693,12.38477 v 1.70326 h 10.25105 v -1.70326 z"/>
  </g>
</svg>