<?xml version="1.0" encoding="UTF-8" standalone="yes"?>
<svg width="52.917mm" height="52.917mm" viewBox="0 0 52.917 52.917" version="1.1" id="svg70418" xml:space="preserve" xmlns="http://www.w3.org/2000/svg" xmlns:svg="http://www.w3.org/2000/svg">
  <defs id="defs70415"/>
  <g id="layer1" transform="translate(-219.06404,-94.909012)" style="display:inline">
    <rect style="fill:#ffffff;fill-opacity:1;stroke:none;stroke-width:2.01819" id="rect70551" width="52.917" height="52.917" x="219.06404" y="94.909012"/>
    <path id="rect4139" style="stroke-width:1.2" d="m 228.77146,111.04444 c 0.2799,0.66783 0.25778,1.15822 0.10875,1.61841 -0.17767,0.54863 -1.04136,1.02732 -1.53569,1.5585 -1.94363,1.9173 -2.01543,4.26522 0.50317,5.55336 0.67999,0.20048 1.34145,0.17676 1.92798,0.13659 0.58653,-0.0402 1.10734,-0.092 1.48299,-0.0471 0.36646,0.0437 0.5605,0.13134 0.7667,0.41285 0.36655,0.63399 0.4566,1.08575 0.4358,1.51598 -0.0213,0.43966 -0.17163,0.88974 -0.33207,1.44367 -0.32088,1.10787 -0.54138,2.64094 0.76012,4.72281 l 0.002,0.003 0.002,0.003 c 0.14191,0.2223 0.4283,0.64022 0.66548,0.9848 l 1.08101,-0.7252 c -0.24227,-0.35396 -0.54038,-0.78935 -0.65105,-0.9615 -1.13202,-1.81487 -0.90808,-2.64436 -0.61244,-3.66506 0.14808,-0.51124 0.35021,-1.06871 0.38279,-1.7428 0.0326,-0.67408 -0.13221,-1.4405 -0.6246,-2.27419 l -0.0136,-0.0239 -0.0169,-0.0216 c -0.43167,-0.60936 -1.08841,-0.89167 -1.69059,-0.96355 -0.60218,-0.0719 -1.18182,0.004 -1.72694,0.0415 -2.79099,-0.1357 -2.58748,-2.16953 -1.39097,-3.50741 0.52834,-0.56772 1.5411,-1.17777 1.82164,-2.04405 0.23815,-0.73537 0.2172,-1.60675 -0.16788,-2.54138 z m 4.6845,-2.0498 c 0.37295,0.84483 0.37174,1.43276 0.22416,1.92866 -0.16784,0.56392 -0.9404,0.94167 -1.43943,1.4291 -1.22174,1.02919 -1.98691,2.27672 -1.17963,3.65254 0.4077,0.98132 1.03072,1.66692 1.80558,1.85612 0.74429,0.14913 1.41805,-0.0242 1.98781,-0.18793 0.56977,-0.16378 1.05623,-0.31231 1.39411,-0.30302 0.33516,0.009 0.55461,0.08 0.90074,0.57184 0.52429,0.83017 0.49174,1.27412 0.2674,1.76585 -0.22637,0.4962 -0.77082,1.03571 -1.36905,1.63343 -0.59823,0.59773 -1.259,1.26819 -1.55157,2.20268 -0.29241,0.93401 -0.11345,2.06793 0.72418,3.29825 4.1e-4,6.2e-4 5.4e-4,8.4e-4 0.001,0.002 0.14321,0.22244 0.32578,0.47485 0.47282,0.6741 l 1.08186,-0.72578 c -0.14664,-0.19831 -0.35568,-0.48406 -0.47075,-0.66366 l -0.006,-0.008 -0.006,-0.008 c -0.69379,-1.01802 -0.72853,-1.63259 -0.55712,-2.18008 0.1714,-0.5475 0.65238,-1.09197 1.23149,-1.67059 0.57911,-0.57861 1.24953,-1.17782 1.63095,-2.01386 0.38141,-0.83605 0.34224,-1.91864 -0.36306,-3.02339 l -0.006,-0.0122 -0.007,-0.01 c -0.52708,-0.75516 -1.26669,-1.11296 -1.94204,-1.13151 -0.67535,-0.0186 -1.2579,0.20032 -1.78668,0.3523 -0.52877,0.152 -0.98367,0.24218 -1.37344,0.16408 -1.312,-1.16596 -1.09894,-2.19609 0.0256,-3.30544 0.55141,-0.53861 1.5078,-1.08183 1.77734,-1.98748 0.23727,-0.79724 0.17574,-1.74985 -0.28995,-2.82352 z m 4.68823,17.73524 0.84756,1.2634 22.46644,-15.07179 1.58457,2.362 -22.46645,15.07179 0.84756,1.26339 23.70237,-15.90093 -3.27968,-4.88878 z m -4.10065,3.02973 3.02173,4.50428 3.68032,-2.46897 -3.02173,-4.50428 z"/>
  </g>
</svg>