<?xml version="1.0" encoding="UTF-8" standalone="yes"?>
<svg width="52.917mm" height="52.917mm" viewBox="0 0 52.917 52.917" version="1.1" id="svg15917" xmlns="http://www.w3.org/2000/svg" xmlns:svg="http://www.w3.org/2000/svg">
  <defs id="defs15914"/>
  <g id="layer1" transform="translate(-75.409409,-84.701408)">
    <rect style="fill:#ffffff;fill-opacity:1;stroke:none;stroke-width:2.01819" id="rect70551" width="52.917" height="52.917" x="75.409409" y="84.701408"/>
    <path id="path15070" style="display:inline;stroke-width:0.270704" d="m 88.721899,97.670018 a 3.0826612,3.0826612 0 0 0 -3.083015,3.083022 3.0826612,3.0826612 0 0 0 3.083015,3.0825 3.0826612,3.0826612 0 0 0 3.0825,-3.0825 3.0826612,3.0826612 0 0 0 -3.0825,-3.083022 z m 27.724401,7.187682 0.52607,2.02623 h 1.68052 l 0.52606,-2.02623 z m -27.785379,0.03 c -1.739483,-0.009 -3.008007,1.90612 -2.267045,5.11803 h 7.652763 c 0.01001,0.0215 -0.982972,-1.14822 -1.646928,-2.19521 -1.138222,-2.00926 -2.548617,-2.91658 -3.73879,-2.92282 z m 28.396199,2.60087 v 0.79375 c -1.28775,-0.0815 -2.00157,-0.14355 -3.32073,-0.15554 -1.48088,0.10228 -1.3376,1.2607 -0.9219,2.23087 l 0.80821,-0.0155 c -0.0387,-0.43248 -0.0462,-0.70973 0.0439,-0.81649 0.29141,-0.34519 2.39853,0.21692 3.4122,0.15193 l -0.004,1.79937 H 103.82438 99.911436 83.6654 c -0.834021,0 -1.505852,0.67183 -1.505852,1.50585 0,0.83402 0.671831,1.50534 1.505852,1.50534 1.101018,0.10794 1.087481,0.92564 1.565279,1.9482 l 3.134175,6.70812 c 0.353061,0.75561 1.200485,1.50533 2.034501,1.50533 h 9.512081 3.912944 9.51208 c 0.83401,0 1.68144,-0.74972 2.0345,-1.50533 l 3.13417,-6.70812 c 0.4778,-1.02256 0.46426,-1.84026 1.56528,-1.9482 0.83402,0 1.50585,-0.67132 1.50585,-1.50534 0,-0.83402 -0.67183,-1.50585 -1.50585,-1.50585 h -1.50016 v -3.98839 z"/>
  </g>
</svg>