<?xml version="1.0" encoding="UTF-8" standalone="yes"?>
<svg width="52.917mm" height="52.917mm" viewBox="0 0 52.917 52.917" version="1.1" id="svg1722" xmlns="http://www.w3.org/2000/svg" xmlns:svg="http://www.w3.org/2000/svg">
  <defs id="defs1719"/>
  <g id="layer1" transform="translate(-105.00616,-66.805695)">
    <rect style="fill:#ffffff;fill-opacity:1;stroke:none;stroke-width:2.01819" id="rect70551" width="52.917" height="52.917" x="105.00616" y="66.805695"/>
    <path id="rect74478" style="stroke-width:1.01549" d="m 127.25872,73.746267 c -1.53718,-1.3e-5 -2.78331,1.246119 -2.7833,2.783293 -1e-5,1.537173 1.24613,2.783305 2.7833,2.783292 1.53717,1.3e-5 2.7833,-1.246119 2.78329,-2.783292 1e-5,-1.537174 -1.24611,-2.783306 -2.78329,-2.783293 z m -3.24011,6.299874 c -0.94725,0.123272 -1.15137,0.687393 -1.40922,1.315682 l -3.40393,10.7797 c -0.20601,0.65242 0.0968,1.32564 0.67903,1.50947 0.58222,0.18384 1.21665,-0.19352 1.42265,-0.84594 l 2.81533,-8.915736 v 6.196004 l -2.66288,18.259869 c -0.12428,0.85226 0.46187,1.63839 1.31413,1.76268 l 0.0372,0.005 c 0.85227,0.12429 1.63839,-0.46134 1.76268,-1.31362 l 2.03089,-13.924727 c 0.0126,-0.44719 1.29055,-0.46481 1.3224,0.0124 l 2.0283,13.912327 c 0.12429,0.85227 0.9104,1.43791 1.76267,1.31362 l 0.0372,-0.005 c 0.85228,-0.12428 1.43842,-0.91042 1.31413,-1.76268 l -2.66287,-18.259869 v -6.196004 l 2.81533,8.915736 c 0.20599,0.65243 0.84044,1.02977 1.42265,0.84594 0.58224,-0.18383 0.88503,-0.85705 0.67903,-1.50947 l -3.40393,-10.7797 c -0.25425,-0.725616 -0.76103,-1.29968 -1.40921,-1.315682 h -1.2175 -1.34979 -2.70681 z m -9.65213,12.214762 a 1,1 0 0 0 -1.00045,0.99993 v 19.521287 h 36.19726 V 93.260833 a 1,1 0 0 0 -0.99993,-0.99993 1,1 0 0 0 -0.99994,0.99993 v 17.521417 h -32.197 V 93.260833 a 1,1 0 0 0 -0.99994,-0.99993 z"/>
  </g>
</svg>