<?xml version="1.0" encoding="UTF-8" standalone="yes"?>
<svg width="52.917mm" height="52.917mm" viewBox="0 0 52.917 52.917" version="1.1" id="svg4139" xmlns="http://www.w3.org/2000/svg" xmlns:svg="http://www.w3.org/2000/svg">
  <defs id="defs4136"/>
  <g id="layer1" transform="translate(-116.7072,-149.40129)">
    <rect style="fill:#ffffff;fill-opacity:1;stroke:none;stroke-width:2.01819" id="rect70551-3" width="52.917" height="52.917" x="116.7072" y="149.40129"/>
    <path id="path3263-9" style="stroke-width:1.01549" d="m 134.81334,157.20908 c -0.70447,-0.002 -1.1701,0.16718 -1.59319,0.53846 h -5.2e-4 c -0.4814,0.42246 -0.78723,1.10422 -0.77153,1.98127 h 10e-4 c -1.3e-4,10e-4 -4e-4,0.003 -5.2e-4,0.004 1.5e-4,0.23029 0.18674,0.41707 0.41703,0.41703 0.23028,4e-5 0.41688,-0.18673 0.41703,-0.41703 -1.1e-4,-0.006 -8e-5,-0.0121 -0.006,-0.35915 -0.006,-0.34703 0.2049,-0.74517 0.49403,-0.99891 0.28956,-0.2541 0.69356,-0.36749 1.09761,-0.34778 0.56172,0.0274 1.04701,0.41481 1.15445,0.87437 0.10744,0.45954 -0.0793,1.10172 -1.22783,1.76991 l -0.004,0.001 -0.004,0.003 c -0.36452,0.22383 -0.44354,0.63827 -0.43874,0.88676 0.0115,0.59846 0.0359,1.0912 0.0517,1.37563 -0.70341,0.19302 -4.33368,1.10338 -8.44806,2.25775 -1.09072,0.30599 -1.69556,1.12383 -1.64693,1.92702 0.0486,0.80321 0.79598,1.48506 1.85518,1.46503 2.39377,0.0323 5.59614,0.0339 8.82065,0.0264 3.2246,0.008 6.42784,0.007 8.82169,-0.0258 1.05921,0.02 1.80758,-0.66182 1.85621,-1.46503 0.0486,-0.80321 -0.55775,-1.62155 -1.64847,-1.92753 -4.34148,-1.21808 -8.47696,-2.26581 -8.77518,-2.34766 -0.012,-0.19626 -0.0386,-0.57286 -0.0527,-1.30069 -0.002,-0.11924 -0.003,-0.13302 0.0419,-0.16072 1.32658,-0.77535 1.81514,-1.80504 1.61179,-2.67477 -0.20383,-0.87183 -1.09261,-1.47438 -1.87896,-1.50016 -0.0491,-0.002 -0.0972,-0.002 -0.14417,-0.003 z m 19.08669,0.91881 c -1.53718,-1e-5 -2.78331,1.2461 -2.7833,2.78329 -1e-5,1.53717 1.24613,2.78329 2.7833,2.78328 1.53715,1e-5 2.7833,-1.24611 2.78329,-2.78328 1e-5,-1.53719 -1.24613,-2.7833 -2.78329,-2.78329 z m -18.9203,5.51491 h 5.2e-4 c 0.3995,0.10971 4.51636,1.15431 8.80463,2.35748 0.8133,0.22816 1.06196,0.71435 1.04025,1.0728 -0.0217,0.35844 -0.2687,0.69556 -1.00666,0.68161 h -0.007 -0.007 c -0.85999,0.0117 -1.39937,0.0184 -8.8284,0.0186 -7.42905,2.1e-4 -7.95188,-0.007 -8.81807,-0.0186 h -0.007 -0.007 c -0.73795,0.014 -0.98598,-0.32317 -1.00769,-0.68161 -0.0217,-0.35842 0.22694,-0.84516 1.04024,-1.07332 4.28748,-1.20295 8.40201,-2.24683 8.80308,-2.35696 z m 15.68018,0.78496 c -0.94725,0.12327 -1.15136,0.6874 -1.40921,1.31568 l -3.40393,10.77971 c -0.20601,0.65242 0.0968,1.32564 0.67903,1.50947 0.58222,0.18384 1.21665,-0.19355 1.42265,-0.84595 l 2.81533,-8.91573 v 6.196 l -2.66288,18.25987 c -0.12428,0.85227 0.46187,1.63839 1.31413,1.76268 l 0.0372,0.005 c 0.85227,0.12429 1.6384,-0.46133 1.76269,-1.31361 l 2.03037,-13.92474 c 0.0126,-0.44718 1.29055,-0.46477 1.3224,0.0124 l 2.02881,13.91233 c 0.12429,0.85227 0.91042,1.4379 1.76268,1.31361 l 0.0372,-0.005 c 0.85228,-0.12428 1.43842,-0.91041 1.31413,-1.76268 l -2.66288,-18.25987 v -6.196 l 2.81533,8.91573 c 0.20599,0.65241 0.84044,1.02978 1.42265,0.84595 0.58224,-0.18383 0.88503,-0.85705 0.67903,-1.50947 l -3.40393,-10.77971 c -0.25426,-0.72561 -0.76103,-1.29968 -1.40921,-1.31568 h -1.2175 -1.34979 -2.70681 z"/>
  </g>
</svg>