<?xml version="1.0" encoding="UTF-8" standalone="yes"?>
<svg width="52.917mm" height="52.917mm" viewBox="0 0 52.917 52.917" version="1.1" id="svg6687" xmlns="http://www.w3.org/2000/svg" xmlns:svg="http://www.w3.org/2000/svg">
  <defs id="defs6684"/>
  <g id="layer1" transform="translate(-146.99225,-94.681709)">
    <rect style="fill:#ffffff;fill-opacity:1;stroke:none;stroke-width:2.01819" id="rect70551" width="52.917" height="52.917" x="146.99225" y="94.681709"/>
    <path id="path2313" style="fill:#000000;stroke-width:0.418117" d="m 165.23336,99.991358 c -1.78475,-1.6e-4 -3.23163,1.446582 -3.23184,3.231332 -1.7e-4,1.78502 1.44681,3.23201 3.23184,3.23184 1.78502,1.7e-4 3.232,-1.44682 3.23184,-3.23184 -2.1e-4,-1.78476 -1.4471,-3.231492 -3.23184,-3.231332 z m -0.79582,7.412992 -0.001,5.1e-4 c -0.99598,0.0758 -1.77216,0.4304 -2.37195,1.26452 l -3.56515,4.89893 c -0.51597,0.63961 -0.71868,1.24393 -0.90072,1.99213 l -1.73995,7.15149 c -0.15407,0.63312 0.23144,1.26754 0.86455,1.42162 0.63313,0.15406 1.26702,-0.23195 1.4211,-0.86506 l 2.00556,-8.05997 0.74001,-1.02733 c 0.18456,-0.21588 0.56482,-0.34854 0.55294,0.18604 v 4.13514 3.11247 c -4e-5,0.14937 0.0112,0.29555 0.0331,0.43873 l -0.97565,2.95899 c -0.78257,2.6866 -1.65103,4.96971 -1.75752,5.28237 -0.11875,0.34864 -1.14262,2.0037 -2.21382,3.43855 l -3.15281,4.42454 c -0.53055,0.74452 -0.3585,1.77058 0.38603,2.30115 0.74453,0.53055 1.77061,0.35798 2.30115,-0.38654 l 4.51755,-6.33915 c 1.51084,-3.46569 1.51888,-3.48536 2.70423,-6.66213 l 0.77308,-2.08927 c 0.27221,-0.64424 0.72706,-0.65948 0.9989,0.0661 l 4.92735,16.07344 c 0.26792,0.87407 1.18729,1.36193 2.06137,1.09399 0.87409,-0.26792 1.36192,-1.18729 1.09399,-2.06137 l -5.64203,-18.40715 c -0.0188,-0.0614 -0.0412,-0.12114 -0.0672,-0.17828 v -5.82289 c 0.007,-0.40944 0.0343,-0.50113 0.24857,-0.0134 0.16517,0.33475 0.36951,0.61492 0.70693,0.85472 l 6.07353,4.31653 c 0.52785,0.37524 1.25464,0.25241 1.62987,-0.27543 0.37523,-0.52785 0.25241,-1.25518 -0.27543,-1.6304 l -6.25595,-4.44674 -2.18643,-4.71444 c -0.59344,-1.39556 -1.32971,-2.43497 -2.93419,-2.43241 z m 16.13493,15.74373 -3.83284,2.79828 h 9.06457 l -11.25461,8.03052 3.08818,2.41587 11.65665,-8.44238 0.58084,7.07657 3.9579,-3.33416 -0.86506,-8.5447 h -0.22841 z"/>
  </g>
</svg>