<?xml version="1.0" encoding="UTF-8" standalone="yes"?>
<svg width="52.917mm" height="52.917mm" viewBox="0 0 52.917 52.917" version="1.1" id="svg8553" xmlns="http://www.w3.org/2000/svg" xmlns:svg="http://www.w3.org/2000/svg">
  <defs id="defs8550"/>
  <g id="layer1" transform="translate(-164.18721,-96.301498)">
    <rect style="fill:#ffffff;fill-opacity:1;stroke:none;stroke-width:2.01819" id="rect70551" width="52.917" height="52.917" x="164.18721" y="96.301498"/>
    <path id="path8346" style="display:inline;fill:#000000;fill-opacity:1;stroke-width:1.4" d="m 187.2522,105.60007 c -1.46474,-1.4e-4 -2.65217,1.1873 -2.65203,2.65204 1.5e-4,1.46453 1.1875,2.65164 2.65203,2.65151 1.46433,-1.5e-4 2.65137,-1.18718 2.65152,-2.65151 1.4e-4,-1.46454 -1.18698,-2.65189 -2.65152,-2.65204 z m -1.11001,5.87613 c -1.17644,0.009 -2.38386,0.90312 -2.49545,2.10065 l -0.57516,7.81399 -1.3007,7.41298 c -0.0408,0.22942 -0.0303,0.45544 0.0227,0.66663 1.09648,-0.52398 2.12949,-0.79768 3.20756,-1.00459 l 0.66559,-3.74189 2.42311,3.34502 c 1.367,-0.0343 2.97444,0.0747 3.96513,0.15864 -0.0177,-0.0279 -0.0362,-0.0557 -0.0558,-0.0827 l -4.29328,-5.92677 0.18139,-1.94872 3.00291,2.93057 c 0.22554,0.2201 0.52152,0.31999 0.81184,0.30334 l 1.21233,4.95681 0.62477,-0.15297 -1.23145,-5.03483 c 0.0353,-0.0281 0.0694,-0.0578 0.1018,-0.0909 0.41578,-0.42605 0.40796,-1.10351 -0.0181,-1.51929 l -4.2478,-4.14548 0.32711,-3.50987 c 0.11904,-1.27736 -0.81346,-2.40174 -2.09082,-2.52077 -0.0799,-0.007 -0.15924,-0.0108 -0.23772,-0.01 z m 12.7,13.51804 c -0.1878,3.8e-4 -0.37677,0.0276 -0.55862,0.0703 -0.22377,0.0524 -0.471,0.1058 -0.63665,0.2651 -1.1124,1.06979 -2.95228,3.5357 -2.95228,3.5357 0.10607,0 3.71244,2.33371 3.71244,2.33371 l 0.93741,-1.80351 c 0.58209,-1.58981 1.47727,-0.61869 2.54558,-0.93689 0.0975,-0.037 0.16553,-0.12992 0.22996,-0.21188 0.075,-0.0954 0.13985,-0.20272 0.17673,-0.31832 0.0324,-0.10168 0.0792,-0.22116 0.0351,-0.31833 -0.0683,-0.15033 -0.26703,-0.19461 -0.40669,-0.28267 -0.33264,-0.20973 -0.71966,-0.33595 -1.02526,-0.58343 -0.0551,-0.0447 -0.10928,-0.096 -0.14159,-0.15916 -0.0247,-0.0484 -0.0244,-0.1059 -0.0351,-0.15917 -0.0329,-0.16434 -0.008,-0.34814 -0.0884,-0.49506 -0.14253,-0.25955 -0.40091,-0.44764 -0.65422,-0.60099 -0.26789,-0.16217 -0.57411,-0.27456 -0.88419,-0.31833 -0.084,-0.0119 -0.16888,-0.0172 -0.25425,-0.0171 z m -10.24278,3.88968 c -0.64029,0.003 -1.24621,0.0337 -1.72341,0.11059 -2.25318,0.36297 -4.09388,0.6244 -6.46524,2.36213 -0.3079,0.22563 -0.99342,1.10426 -1.19011,1.41955 -0.4671,0.7487 -0.2067,0.98909 -0.2067,0.98909 l 0.36173,-0.12041 c 0,0 0.9757,-0.73046 1.78387,-1.19786 0.89196,-0.51585 1.62628,-0.77107 1.66398,-0.72037 0.0894,0.12029 0.0523,0.24512 -0.091,0.44029 -0.4041,0.55035 -1.33571,1.84612 -1.81591,2.5001 -0.18054,0.24587 -0.44065,0.45008 -0.54157,0.73794 -0.0819,0.23362 -0.0203,0.49473 -0.0305,0.74208 -0.0246,0.59958 -0.0662,1.60338 -0.0904,2.19314 -0.0114,0.28427 -0.0578,0.31961 -0.0191,0.47233 0.0386,0.15224 0.16093,0.26972 0.24133,0.40462 0.12275,0.20587 0.36794,0.61805 0.36794,0.61805 l 2.06705,-0.0129 c 0,0 0.0573,-0.36065 -0.046,-0.48679 -0.2114,-0.25825 -0.62522,-0.16133 -0.90537,-0.34261 -0.20943,-0.13552 -0.54415,-0.5116 -0.54415,-0.5116 l 0.34313,-2.17196 c 0,0 1.35191,-0.92675 2.06654,-1.46193 0.095,-0.0712 0.25602,-0.10362 0.35502,-0.0377 0.19661,0.33631 -0.0201,0.56486 -0.38964,0.99374 -0.21527,0.30394 -0.33152,0.47544 -0.33952,0.94671 -0.0256,0.50447 -0.0686,1.27292 -0.11679,1.75958 -0.0169,0.17049 0.0984,0.33025 0.17674,0.48266 0.16626,0.32383 0.61443,0.90279 0.61443,0.90279 h 1.90014 c 0,0 0.14386,-0.15312 0.14986,-0.25012 0.01,-0.16385 -0.0836,-0.33436 -0.19998,-0.4501 -0.20643,-0.20523 -0.54129,-0.21636 -0.79996,-0.34985 -0.17273,-0.0891 -0.50022,-0.30024 -0.50022,-0.30024 0.0927,-0.74842 0.24111,-1.50495 0.25321,-2.23242 0.40252,-0.74918 0.92193,-1.4258 1.34721,-2.16783 0.225,-0.3218 0.43655,-0.37249 0.8325,-0.36742 2.06219,0.32349 5.9924,0.81753 5.9924,0.81753 l -0.34985,-5.47512 c 0,0 -2.23083,-0.24373 -4.15168,-0.23565 z m 4.95163,0.28526 c 0,0 0.4676,3.32681 0.45011,5.00021 -0.006,0.52823 -0.0963,1.0527 -0.17467,1.5751 -0.0731,0.48652 -0.16558,0.971 -0.27544,1.45055 -0.0501,0.21873 -0.14127,0.42769 -0.17466,0.64958 -0.0347,0.2309 -0.0573,0.46892 -0.0253,0.70021 0.0336,0.24278 0.13093,0.47402 0.22531,0.70022 0.0904,0.21672 0.32504,0.62477 0.32504,0.62477 l 2.05,0.0501 c 0,0 0.0558,-0.28681 0.0248,-0.4253 -0.0228,-0.1019 -0.073,-0.20413 -0.14986,-0.27491 -0.0603,-0.0556 -0.14828,-0.07 -0.2248,-0.0997 -0.0983,-0.0381 -0.20087,-0.065 -0.30024,-0.10025 -0.0671,-0.0238 -0.14105,-0.0349 -0.19998,-0.0749 -0.10254,-0.0695 -0.18751,-0.16801 -0.25012,-0.27492 -0.0533,-0.091 -0.0738,-0.19806 -0.0997,-0.30024 -0.0353,-0.13945 -0.0252,-0.34971 0.0248,-0.49971 0.05,-0.15001 0.40071,-1.31054 0.62529,-2.0252 0.18738,-0.52209 0.27019,-0.91142 0.37465,-1.32499 0.0392,-0.0794 0.0945,-0.16337 0.17518,-0.19998 0.0531,-0.0241 0.12332,-0.0267 0.17519,0 0.0637,0.0328 0.0956,0.10906 0.12454,0.17466 0.20962,0.47564 0.18484,1.02498 0.32504,1.52549 0.24526,0.87559 0.49681,1.76013 0.90021,2.57504 0.20816,0.42051 0.3149,0.89898 0.67489,1.19992 0.0487,0.0407 0.27544,0.0501 0.27544,0.0501 h 2.05 c 0,0 0.0297,-0.27821 -0.0253,-0.39997 -0.0679,-0.15039 -0.20881,-0.26474 -0.34985,-0.35037 -0.14194,-0.0862 -0.3108,-0.12456 -0.47491,-0.14986 -0.12354,-0.019 -0.25968,0.0478 -0.37517,0 -0.0762,-0.0316 -0.13225,-0.10474 -0.17518,-0.17519 -0.5417,-0.88902 -0.6865,-1.96781 -0.94981,-2.97501 -0.16784,-0.64199 -0.30399,-1.29316 -0.39998,-1.94975 -0.0411,-0.28146 -0.12168,-0.5695 -0.0749,-0.85008 0.0135,-0.081 0.0593,-0.15385 0.0997,-0.22531 0.15017,-0.26567 0.52504,-0.74982 0.52504,-0.74982 z m -5.90931,5.29939 c -0.22401,1.22805 -0.37916,2.4088 -0.55123,3.64528 -0.11587,0.83282 0.46168,1.59617 1.29449,1.71204 0.83281,0.11587 1.59617,-0.46117 1.71204,-1.29398 0.14332,-1.23276 0.33917,-2.39781 0.44829,-3.62715 z"/>
  </g>
</svg>