<?xml version="1.0" encoding="UTF-8" standalone="yes"?>
<svg width="52.917mm" height="52.917mm" viewBox="0 0 52.917 52.917" version="1.1" id="svg7601" xmlns="http://www.w3.org/2000/svg" xmlns:svg="http://www.w3.org/2000/svg">
  <defs id="defs7598"/>
  <g id="layer1" transform="translate(-208.93895,-197.23792)">
    <rect style="fill:#ffffff;fill-opacity:1;stroke:none;stroke-width:2.01819" id="rect70551" width="52.917" height="52.917" x="208.93895" y="197.23792"/>
    <path id="path968" style="fill:#000000;stroke-width:3.94633" d="m 240.55993,209.86262 1.11053,2.41846 h 6.63112 l 0.22841,-1.17099 z m 1.30276,3.3414 -1.27175,1.38079 h 0.99528 c -0.0155,0.12764 -0.0235,0.2559 -0.0243,0.38448 -1.7e-4,1.85726 1.50533,3.36306 3.36258,3.3631 1.71496,-7.2e-4 3.36434,-1.49798 3.36207,-3.36259 v -1.76526 z m -17.15037,5.91799 v 5.1e-4 c -0.0111,-3.3e-4 -0.0176,0.004 -0.0243,0.009 v -5.2e-4 c -1.46605,0.98833 -1.89358,3.34152 -0.21446,4.74131 l -0.0295,1.05162 c -0.757,-0.77564 -1.35147,-1.17026 -2.06137,-1.16065 -0.39237,0.005 -0.82033,0.13327 -1.33119,0.38757 l 3.36,1.95338 -0.0455,1.63761 c -1.04578,-1.0919 -1.8476,-1.64707 -2.81326,-1.63399 -0.51537,0.007 -1.07774,0.17551 -1.74873,0.50953 l 4.52065,2.62826 -0.0439,1.83348 c -1.33674,-1.40656 -2.40504,-2.38626 -3.67367,-2.36833 -0.72146,0.0102 -1.50807,0.25608 -2.4474,0.74414 l 6.05699,3.67523 -0.0176,0.82372 h 1.02578 l -0.0176,-0.82372 6.057,-3.67523 c -0.93933,-0.48806 -1.72594,-0.73394 -2.4474,-0.74414 -1.26856,-0.0179 -2.33703,0.96152 -3.67368,2.36781 l -0.0439,-1.83296 4.52066,-2.62826 c -0.67099,-0.33402 -1.23336,-0.50253 -1.74873,-0.50953 -0.96566,-0.0131 -1.76749,0.5421 -2.81327,1.63399 l -0.0455,-1.63761 3.36,-1.95338 c -0.51085,-0.2543 -0.93881,-0.38256 -1.33118,-0.38757 -0.70983,-0.01 -1.30445,0.38473 -2.06137,1.16013 l -0.0295,-1.05109 c 1.67808,-1.39884 1.25237,-3.74971 -0.21136,-4.73924 -0.008,-0.005 -0.0158,-0.0103 -0.0269,-0.0108 z m 15.45539,0.10077 c -0.97574,0.0206 -1.51382,0.75041 -2.10065,1.8004 l -5.21881,12.25766 h 3.57136 l 3.47783,-7.45432 v 7.53545 h 11.67422 v -12.27832 c 0.008,-0.87952 -1.06141,-1.84445 -1.98076,-1.8309 h -2.61069 l -1.42937,3.7393 h -0.39067 l -1.66088,-3.76928 z m -21.47156,15.5081 c -0.77539,0 -1.3994,0.624 -1.3994,1.3994 0,0.77539 0.62401,1.39991 1.3994,1.39991 h 33.40261 c 0.7754,0 1.3994,-0.62452 1.3994,-1.39991 0,-0.7754 -0.624,-1.3994 -1.3994,-1.3994 z"/>
  </g>
</svg>