<?xml version="1.0" encoding="UTF-8" standalone="yes"?>
<svg width="52.917mm" height="52.917mm" viewBox="0 0 52.917 52.917" version="1.1" id="svg1590" xmlns="http://www.w3.org/2000/svg" xmlns:svg="http://www.w3.org/2000/svg">
  <defs id="defs1587"/>
  <g id="layer1" transform="translate(-149.05714,-143.55077)">
    <rect style="fill:#ffffff;fill-opacity:1;stroke:none;stroke-width:2.01819" id="rect70551" width="52.917" height="52.917" x="149.05714" y="143.55077"/>
    <path id="path856" style="display:inline;fill:#000000;stroke-width:5.00079" d="m 175.22238,154.75208 v 2.19934 h 6.86935 c 0.63757,0.0203 0.88951,0.17976 1.06453,0.38861 0.17502,0.20885 0.31391,0.58749 0.30438,1.20148 v 0.01 7.34839 l -3.52382,-3.4892 v 3.04168 l 4.59248,4.54752 4.593,-4.54752 v -3.04168 l -3.46232,3.42822 v -7.26209 c 0.015,-0.96367 -0.20123,-1.91177 -0.81855,-2.64842 -0.61732,-0.73664 -1.59488,-1.14106 -2.67942,-1.17564 h -0.0176 z m -6.24872,0.69866 c -0.13455,0.001 -0.25785,0.0266 -0.36173,0.0801 l -11.59878,4.33979 -0.58032,-0.004 0.003,0.55656 0.002,22.64771 14.411,-0.19999 0.0145,5.2e-4 c 0.52481,-0.0361 1.02924,-0.28907 1.35341,-0.7028 0.32418,-0.41374 0.47312,-1.01761 0.44442,-1.63091 l 0.0941,-18.98437 c -0.0145,-0.67301 -0.6559,-1.22407 -1.52342,-1.46658 -0.16989,-0.0468 -0.34885,-0.0787 -0.53434,-0.10025 l 0.007,-3.02462 c -0.0315,-0.36154 -0.21328,-0.68254 -0.46457,-0.93431 -0.3598,-0.36048 -0.8619,-0.57983 -1.26556,-0.57671 z m 1.71928,5.65702 c 0.28263,0.0518 0.50584,0.13695 0.64751,0.21859 0.0556,0.0365 0.10244,0.0736 0.14211,0.11162 0.11901,0.11418 0.17006,0.24604 0.17983,0.45837 l -0.0982,18.70015 c -0.0172,0.58512 -0.31706,1.08734 -0.90744,1.17151 l -11.28768,0.15864 9.93841,-3.76204 c 0.79682,-0.30176 1.36191,-1.07007 1.34617,-1.84071 z m -2.40192,3.60495 v 2.12028 l -3.52382,1.15239 c -0.21815,-0.48069 -0.66402,-0.83011 -1.20974,-0.87127 -0.82299,-0.0621 -1.53877,0.6021 -1.60921,1.45934 -0.0124,0.15137 -0.004,0.29968 0.0227,0.44184 l -3.32899,1.08779 v -2.25775 z m 0,2.56367 v 2.30786 l -9.64903,3.13315 v -2.17093 l 3.46026,-1.1312 c 0.22358,0.46477 0.66337,0.80051 1.19734,0.84078 0.82299,0.0621 1.5367,-0.6021 1.60714,-1.45934 0.0115,-0.13956 0.005,-0.27682 -0.0171,-0.40876 z m -4.84932,0.26148 c 0.0267,-1.7e-4 0.0536,5.5e-4 0.0806,0.003 0.57561,0.0434 1.01036,0.58128 0.95757,1.2237 -0.0528,0.64242 -0.57006,1.10898 -1.14567,1.06557 -0.57561,-0.0434 -1.01242,-0.58179 -0.95963,-1.22422 0.0503,-0.61231 0.52438,-1.06418 1.06712,-1.06763 z m 21.35477,5.48183 -0.24184,0.12144 c -2.76371,1.38186 -5.43628,2.69986 -8.40621,3.38068 a 0.5,0.5 0 0 0 -0.37517,0.59789 0.5,0.5 0 0 0 0.59945,0.37672 c 3.03283,-0.69524 5.71424,-2.0105 8.4062,-3.35535 2.56787,1.461 5.28098,2.38526 8.0176,3.27732 a 0.5,0.5 0 0 0 0.63097,-0.32039 0.5,0.5 0 0 0 -0.3204,-0.6289 c -2.82058,-0.91943 -5.55117,-1.83435 -8.07599,-3.31246 z m -10.18284,5.49424 v 3.34605 h 1.26246 v 3.40651 H 193.336 v -3.40651 h 1.26246 v -3.34605 z m 17.83044,0.86041 a 0.89263475,0.89263475 0 0 1 0.89245,0.89246 0.89263475,0.89263475 0 0 1 -0.89245,0.89297 0.89263475,0.89263475 0 0 1 -0.89297,-0.89297 0.89263475,0.89263475 0 0 1 0.89297,-0.89246 z"/>
  </g>
</svg>