<?xml version="1.0" encoding="UTF-8" standalone="yes"?>
<svg width="52.917mm" height="52.917mm" viewBox="0 0 52.917 52.917" version="1.1" id="svg3720" xmlns="http://www.w3.org/2000/svg" xmlns:svg="http://www.w3.org/2000/svg">
  <defs id="defs3717"/>
  <g id="layer1" transform="translate(-124.70279,-190.70279)">
    <rect style="fill:#ffffff;fill-opacity:1;stroke:none;stroke-width:2.01819" id="rect70551" width="52.917" height="52.917" x="124.70279" y="190.70279"/>
    <path id="path2967" style="display:inline;fill:#1f0000;stroke-width:1.54932;stroke-linecap:round" d="m 145.01738,200.98192 c -5.70583,0 -8.67789,4.23948 -8.67802,8.98755 0.002,0.0874 0.005,0.17473 0.01,0.262 -1.75889,1.18142 -2.7791,2.97543 -2.77968,5.09426 -4e-5,3.51388 2.84854,6.36245 6.36241,6.36242 1.28059,-5.6e-4 2.51798,-0.4282 3.55792,-1.1524 l -0.91261,12.80491 h 4.74338 c -0.45025,-5.08772 -1.00235,-10.13171 -0.93431,-15.21148 0.12118,-0.0198 0.24198,-0.0411 0.36226,-0.0661 0.9735,1.38052 2.55701,2.20204 4.24625,2.20297 2.87138,-9e-5 5.19907,-2.32777 5.19916,-5.19916 -1.2e-4,-1.87091 -1.05088,-3.38097 -2.67787,-4.30465 0.0332,-0.29842 0.0508,-0.5984 0.0527,-0.89866 -1.3e-4,-4.74786 -2.91419,-8.88162 -8.55142,-8.88162 z m 12.98991,20.8256 -1.59163,5.69525 h -2.07946 -1.18598 -0.18242 l -1.59628,5.83789 h 1.36839 l 1.24075,-4.53823 h 2.93987 l 1.24076,4.53823 h 1.36787 l -1.24075,-4.53823 h 3.66127 l -1.24075,4.53823 h 1.3684 l 1.24075,-4.53823 h 2.82566 l 1.24075,4.53823 h 1.3684 l -1.65262,-6.04563 1.53376,-5.48751 h -0.0227 -1.25418 -8.07238 z m 0.27699,3.58013 h 8.07237 l -0.59118,2.11512 h -2.09186 -1.36839 -4.37234 -0.23978 z"/>
  </g>
</svg>