<?xml version="1.0" encoding="UTF-8" standalone="yes"?>
<svg width="52.917mm" height="52.917mm" viewBox="0 0 52.917 52.917" version="1.1" id="svg1792" xmlns="http://www.w3.org/2000/svg" xmlns:svg="http://www.w3.org/2000/svg">
  <defs id="defs1789"/>
  <g id="layer1" transform="translate(-78.751175,-122.21892)">
    <rect style="fill:#ffffff;fill-opacity:1;stroke:none;stroke-width:2.01819" id="rect70551" width="52.917" height="52.917" x="78.751175" y="122.21892"/>
    <path id="rect1684" style="fill:#1f0000;stroke-width:1.2;stroke-linecap:round" d="m 117.30387,129.91827 -3.2613,5.07928 1.50533,-1e-5 -2.54041,3.88917 h 1.37976 l -2.60295,3.9517 h 4.23386 l -10e-6,3.48143 1.28571,1e-5 1.2852,1e-5 v -3.48145 h 4.23436 l -2.60345,-3.9517 h 1.38027 l -2.54041,-3.88916 h 1.50534 z m -17.7307,6.83679 c -1.39431,-8e-5 -2.5247,1.13009 -2.52492,2.52439 -7e-5,1.39451 1.13042,2.52499 2.52492,2.52491 1.39429,-2.1e-4 2.52447,-1.13061 2.52439,-2.52491 -2.1e-4,-1.39409 -1.13029,-2.52418 -2.52439,-2.52439 z m -7.77007,4.54701 c -0.65542,-0.005 -1.24673,0.34371 -1.46968,0.93018 l -2.10478,5.53609 c -0.29727,0.78196 0.17628,1.68282 1.06195,2.01951 l 1.06195,0.4036 c 0.88565,0.33669 1.838,-0.0221 2.13527,-0.80409 l 2.10426,-5.53609 c 0.29727,-0.78196 -0.17628,-1.68282 -1.06195,-2.01951 l -1.06144,-0.4036 c -0.22141,-0.0842 -0.4471,-0.12461 -0.66558,-0.12609 z m 5.88801,0.60358 c -1.30538,-0.002 -2.52726,0.80088 -3.00396,2.10168 l -2.36626,6.36034 c -0.22703,0.57749 -0.25614,1.02308 -0.32091,1.54977 l -0.68833,5.59191 -3.53001,7.42177 c -0.42954,0.85213 -0.0889,1.88404 0.76325,2.31355 0.85214,0.42954 1.89878,0.0969 2.31304,-0.76275 l 3.34708,-6.94479 c 0.22907,-0.47535 0.39866,-1.04653 0.45579,-1.49604 l 0.27595,-2.34093 c 0.021,-0.28036 0.19658,-0.34529 0.46613,-0.0341 l 2.38332,2.682 2.22983,7.8016 c 0.24164,0.92316 1.17954,1.47152 2.10271,1.2299 0.92317,-0.24165 1.48793,-1.18349 1.2299,-2.1022 l -2.08463,-7.42177 c -0.14266,-0.50801 -0.39296,-1.04934 -0.6475,-1.42421 l -2.60553,-2.98276 c 0.0678,-0.12812 0.12749,-0.262 0.1788,-0.40203 l 1.68621,-4.60128 1.03095,1.60094 c 0.18647,0.28583 0.42054,0.36669 0.76067,0.36587 l 4.69273,-0.0124 1e-5,6.95462 v 9.53327 c -4e-5,0.24324 0.22769,0.43925 0.51004,0.43925 0.28235,0 0.50953,-0.19599 0.50953,-0.43925 v -8.2982 -8.1902 c 0.60937,-0.10719 1.06919,-0.763 1.06919,-1.42833 0,-0.79058 -0.63672,-1.42679 -1.42731,-1.42679 h -4.12429 c -1.26287,-1.62644 -2.00182,-4.76835 -4.10466,-5.44102 -0.36419,-0.1331 -0.73625,-0.19687 -1.10174,-0.1974 z"/>
  </g>
</svg>