<?xml version="1.0" encoding="UTF-8" standalone="yes"?>
<svg width="52.917mm" height="52.917mm" viewBox="0 0 52.917 52.917" version="1.1" id="svg2026" xmlns="http://www.w3.org/2000/svg" xmlns:svg="http://www.w3.org/2000/svg">
  <defs id="defs2023"/>
  <g id="layer1" transform="translate(-126.34335,-104.66201)">
    <rect style="fill:#ffffff;fill-opacity:1;stroke:none;stroke-width:2.01819" id="rect70551-3" width="52.917" height="52.917" x="126.34335" y="104.66201"/>
    <path id="rect1579-4" style="fill:#000000;fill-opacity:1;stroke-width:0.600001" d="m 154.90646,118.9738 c -0.44502,0.0913 -0.81054,0.37372 -0.87027,0.63061 -0.005,0.01 -2.61788,8.69027 -2.61788,8.69027 -0.0388,0.0915 -0.0605,0.19221 -0.0605,0.29817 v 11.69334 c 0,0.4222 0.34003,0.76223 0.76223,0.76223 h 1.36426 v 1.7632 c 0,0.78189 0.62938,1.41128 1.41128,1.41128 h 0.0631 c 0.78189,0 1.41128,-0.62939 1.41128,-1.41128 v -1.7632 h 11.88661 v 1.7632 c 0,0.78189 0.6294,1.41128 1.41129,1.41128 h 0.0636 c 0.78189,0 1.41128,-0.62939 1.41128,-1.41128 v -1.7632 h 1.36478 c 0.4222,0 0.76171,-0.34003 0.76171,-0.76223 v -11.69334 c 0,-0.1072 -0.0219,-0.2089 -0.0615,-0.30127 l -2.59028,-8.65901 c -0.0589,-0.26654 -0.39136,-0.58767 -0.86635,-0.65877 -2.91748,-0.62056 -4.95592,-0.96635 -7.40119,-0.96635 -2.44526,0 -4.67331,0.30778 -7.44345,0.96635 z m 1.40974,2.35076 h 11.99461 c 0.57857,0 0.86056,0.49578 1.04438,1.04438 l 2.11667,6.31641 c 0.18383,0.54859 -0.46581,1.04438 -1.04438,1.04438 h -16.22795 c -0.57858,0 -1.22821,-0.49579 -1.04438,-1.04438 l 2.11667,-6.31641 c 0.18383,-0.5486 0.4658,-1.04438 1.04438,-1.04438 z m -20.14348,2.42569 c -0.81409,-1.3e-4 -1.47417,0.65971 -1.47432,1.47381 -1.3e-4,0.81431 0.66002,1.47446 1.47432,1.47433 0.8141,-1.5e-4 1.47395,-0.66023 1.47382,-1.47433 -1.5e-4,-0.8139 -0.65992,-1.47366 -1.47382,-1.47381 z m 0.22635,3.72846 c -0.17163,10e-4 -0.33544,0.0102 -0.48008,0.015 -0.74944,0 -1.35289,0.60343 -1.35289,1.35289 v 2.58744 l -2.05672,2.23242 c -0.24757,0.26865 -0.23087,0.68415 0.0377,0.93173 0.26865,0.24757 0.68467,0.23033 0.93224,-0.0382 l 1.08675,-1.17926 v 10.01438 c 0,0.43002 0.34616,0.77618 0.77618,0.77618 0.43002,0 0.77618,-0.34616 0.77618,-0.77618 v -3.98839 l 1.99213,1.79317 c 0.31651,0.28488 0.80033,0.25958 1.08521,-0.0568 0.28488,-0.31651 0.25956,-0.80084 -0.0568,-1.08572 -1.00666,-0.90437 -2.01433,-1.81619 -3.02049,-2.71715 v -0.14056 l 1.13895,-1.09089 c 0.015,-1.74969 0.0145,-3.48574 0.0145,-5.24361 0.006,-0.40283 0.11751,-0.56911 0.42168,-0.045 l 2.10323,3.78685 c 0.20499,0.3691 0.66702,0.50109 1.03611,0.29611 0.36909,-0.20499 0.5011,-0.66702 0.29611,-1.03611 l -3.26337,-5.87665 c -0.36462,-0.45158 -0.9517,-0.51579 -1.46657,-0.51159 z m 3.85092,8.11113 4.10156,7.10447 c 0.15954,-0.092 0.34034,-0.14083 0.52452,-0.14159 0.38656,6e-5 0.74235,0.21084 0.92811,0.54984 l 1.66811,-0.96325 c 0.24615,-0.18695 0.36706,-0.53062 0.23048,-0.79427 l -1.6521,-2.77812 c -0.75804,-1.27613 -2.40367,-1.02554 -3.46438,-0.31109 l -0.15658,0.0315 -1.55236,-2.68873 z m 14.84974,0.23513 c 1.03928,1.6e-4 1.88167,0.84277 1.88154,1.88205 1.3e-4,1.03928 -0.84226,1.8819 -1.88154,1.88206 -1.03948,1.3e-4 -1.88218,-0.84257 -1.88205,-1.88206 -1.3e-4,-1.03948 0.84258,-1.88218 1.88205,-1.88205 z m 14.42703,0 c 1.03948,-1.3e-4 1.88219,0.84257 1.88206,1.88205 1.3e-4,1.03949 -0.84257,1.88219 -1.88206,1.88206 -1.03929,-1.5e-4 -1.88167,-0.84277 -1.88154,-1.88206 -1.3e-4,-1.03928 0.84226,-1.8819 1.88154,-1.88205 z m -24.65069,7.19025 c -0.32905,4e-5 -0.59579,0.26678 -0.59583,0.59583 4e-5,0.32905 0.26678,0.59579 0.59583,0.59583 0.32905,-4e-5 0.59579,-0.26678 0.59583,-0.59583 -4e-5,-0.32905 -0.26678,-0.59579 -0.59583,-0.59583 z"/>
  </g>
</svg>