<?xml version="1.0" encoding="UTF-8" standalone="yes"?>
<svg width="52.917mm" height="52.917mm" viewBox="0 0 52.917 52.917" version="1.1" id="svg4762" xmlns="http://www.w3.org/2000/svg" xmlns:svg="http://www.w3.org/2000/svg">
  <defs id="defs4759"/>
  <g id="layer1" transform="translate(-82.63652,-98.811485)">
    <rect style="fill:#ffffff;fill-opacity:1;stroke:none;stroke-width:2.01819" id="rect70551" width="52.917" height="52.917" x="82.63652" y="98.811485"/>
    <path id="rect4471" style="stroke-width:2;stroke-linecap:round" d="m 107.96472,108.56068 c -0.18623,0.004 -0.37042,0.0325 -0.54829,0.0837 -0.51744,0.14907 -0.97923,0.49385 -1.264,0.99632 -0.56954,1.00494 -0.22875,2.28799 0.76378,2.87889 l 0.30695,-0.51573 c -0.7178,-0.42735 -0.95915,-1.34183 -0.54725,-2.06861 0.41189,-0.72679 1.32129,-0.98794 2.05672,-0.59169 0.73543,0.39626 1.01503,1.29903 0.63459,2.04277 l 0.53537,0.27388 c 0.52604,-1.02838 0.13013,-2.29791 -0.88677,-2.84582 -0.33367,-0.17979 -0.69556,-0.26128 -1.0511,-0.25373 z m 1.36684,3.48402 c -0.20311,-5.2e-4 -0.40489,0.0283 -0.59893,0.0842 -0.51745,0.14907 -0.97872,0.49127 -1.26349,0.99373 -0.56955,1.00494 -0.23081,2.29006 0.76171,2.88097 l 0.30851,-0.51573 c -0.71781,-0.42735 -0.9607,-1.34131 -0.5488,-2.0681 0.4119,-0.72677 1.32129,-0.99001 2.05672,-0.59376 0.73543,0.39626 1.01502,1.29904 0.63459,2.04277 l 0.53537,0.27389 c 0.52604,-1.02838 0.13013,-2.29585 -0.88677,-2.84376 -0.31778,-0.17122 -0.66038,-0.25337 -0.99891,-0.25425 z m -2.88199,0.78549 c -0.74028,0 -1.4733,0.368 -1.75183,1.16168 v 0.002 l -2.52181,7.45329 -0.002,0.006 c -0.13517,0.45356 -0.15813,0.92646 0.0413,1.32602 0.19947,0.39956 0.6448,0.66604 1.23248,0.67593 l 0.01,-0.59997 c -0.43388,-0.007 -0.60399,-0.14157 -0.70486,-0.34364 -0.10088,-0.20207 -0.10833,-0.53009 -0.002,-0.88677 l 2.51354,-7.43366 0.002,-0.002 v -0.002 c 0.19564,-0.55168 0.62177,-0.7581 1.18339,-0.7581 z m 4.12688,2.66598 a 1.9620063,1.9620063 0 0 0 -1.96164,1.96164 1.9620063,1.9620063 0 0 0 1.96164,1.96215 1.9620063,1.9620063 0 0 0 1.96215,-1.96215 1.9620063,1.9620063 0 0 0 -1.96215,-1.96164 z m -3.08767,0.85525 c -0.74028,0 -1.47175,0.37059 -1.75028,1.16427 l -0.002,0.002 -2.51922,7.45277 -0.002,0.006 c -0.13518,0.45357 -0.15862,0.92439 0.0408,1.32395 0.19947,0.39956 0.6448,0.6681 1.23249,0.678 l 0.01,-0.59945 c -0.43387,-0.007 -0.60399,-0.14365 -0.70487,-0.34572 -0.10087,-0.20206 -0.11034,-0.53008 -0.004,-0.88676 l 2.5156,-7.43572 v 0.004 c 0.19487,-0.55528 0.62067,-0.76378 1.18391,-0.76378 z m 0.52917,3.47627 c -0.34905,0.003 -0.55053,0.22522 -0.66714,0.52193 l -2.71405,8.59845 c -0.11105,0.35181 0.0828,0.72455 0.4346,0.8356 l 0.0326,0.0103 c 0.35182,0.11105 0.7628,-0.0828 0.87385,-0.4346 l 2.09083,-6.62389 -0.0382,7.94112 -0.26872,10.35648 c -0.0136,0.52414 0.42241,0.94671 0.94672,0.94671 0.52428,0 0.93279,-0.42257 0.94619,-0.94671 0.10534,3.42138 0.24721,-9.95669 0.26872,-10.26553 -0.0445,-0.50063 0.92402,-0.36089 0.88005,0 0.0218,0.35024 0.19114,7.23842 0.26872,10.26553 0.0134,0.52414 0.42189,0.94671 0.94619,0.94671 0.52431,0 0.96031,-0.42257 0.94671,-0.94671 l -0.26871,-10.35648 -0.0698,-7.9251 2.09083,6.62389 c 0.11105,0.3518 0.55355,0.52963 0.90537,0.41858 l 0.0326,-0.0103 c 0.3518,-0.11105 0.54565,-0.48379 0.4346,-0.8356 l -2.71405,-8.59845 c -0.11661,-0.29672 -0.31809,-0.51893 -0.66714,-0.52193 h -1.79421 -1.10226 z m -1.80299,10.16217 v 8.35556 0.004 c 0.008,0.25214 0.1581,0.43067 0.2992,0.55087 0.14109,0.1202 0.28806,0.19703 0.42168,0.24236 l 0.19327,-0.56844 c -0.0509,-0.0173 -0.157,-0.0722 -0.22634,-0.13126 -0.068,-0.0579 -0.0851,-0.10488 -0.0858,-0.10903 v -8.34368 z m -1.36891,0.7152 v 3.92948 l 0.002,0.008 c 0.01,0.22857 0.12168,0.38622 0.24184,0.52348 0.12015,0.13725 0.25853,0.24822 0.40825,0.32401 l 0.27181,-0.53537 c -0.0555,-0.0281 -0.15722,-0.10596 -0.22686,-0.18551 -0.0696,-0.0795 -0.0962,-0.16527 -0.0956,-0.15193 v -3.91243 z"/>
  </g>
</svg>