<?xml version="1.0" encoding="UTF-8" standalone="yes"?>
<svg width="52.917mm" height="52.917mm" viewBox="0 0 52.917 52.917" version="1.1" id="svg7863" xmlns="http://www.w3.org/2000/svg" xmlns:svg="http://www.w3.org/2000/svg">
  <defs id="defs7860"/>
  <g id="layer1" transform="translate(-119.80453,-164.54382)">
    <rect style="fill:#ffffff;fill-opacity:1;stroke:none;stroke-width:2.01819" id="rect70551-3" width="52.917" height="52.917" x="119.80453" y="164.54382"/>
    <path id="path7520" style="fill:#000000;stroke-width:0.626924" d="m 141.79265,170.84777 a 3.506011,3.506011 0 0 0 -3.50573,3.50625 3.506011,3.506011 0 0 0 3.50573,3.50573 3.506011,3.506011 0 0 0 3.50624,-3.50573 3.506011,3.506011 0 0 0 -3.50624,-3.50625 z m 0.35915,9.79475 c -0.225,-4e-5 -0.46063,0.0199 -0.71158,0.062 -2.27816,0.3775 -3.80831,2.51535 -3.4308,4.7935 l 1.62212,9.78959 c 0.3775,2.27815 2.4843,3.42119 4.79351,3.43079 0.61567,0.003 6.73311,-0.0225 7.352,-0.002 0.0118,7e-5 0.0297,0.002 0.0429,0.003 l 0.23255,10.39419 c 0.0253,1.13176 0.91125,2.04329 2.04328,2.04329 1.13204,1e-5 1.99875,-0.91214 2.04381,-2.04329 l 0.63768,-13.46429 c 0.0295,-2.51531 -2.96567,-3.3722 -5.71644,-4.08347 -0.0289,-3.09688 -2.44331,-7.42513 -6.18619,-9.96683 -0.97136,-0.58007 -1.74785,-0.95633 -2.72283,-0.95654 z m -6.40323,19.45825 v 2.10788 h 14.11025 v -2.10788 z"/>
  </g>
</svg>