<?xml version="1.0" encoding="UTF-8" standalone="yes"?>
<svg width="52.917mm" height="52.917mm" viewBox="0 0 52.917 52.917" version="1.1" id="svg10541" xmlns="http://www.w3.org/2000/svg" xmlns:svg="http://www.w3.org/2000/svg">
  <defs id="defs10538"/>
  <g id="layer1" transform="translate(-129.44069,-118.08379)">
    <rect style="fill:#ffffff;fill-opacity:1;stroke:none;stroke-width:2.01819" id="rect70551" width="52.917" height="52.917" x="129.44069" y="118.08379"/>
    <path id="rect10421" style="fill:#000000;stroke-width:1.7" d="m 169.572,125.73852 -3.2613,5.07928 h 1.50533 l -2.54041,3.88916 h 1.37976 l -2.60294,3.9517 h 4.23385 v 3.48144 h 1.28571 1.28519 v -3.48144 h 4.23437 l -2.60346,-3.9517 h 1.38028 l -2.54042,-3.88916 h 1.50534 z m -19.77399,8.80205 c -1.54579,-1.5e-4 -2.79894,1.253 -2.79879,2.79879 1.3e-4,1.54559 1.2532,2.79843 2.79879,2.79828 1.54539,-1.3e-4 2.79815,-1.25289 2.79828,-2.79828 1.5e-4,-1.54559 -1.25269,-2.79866 -2.79828,-2.79879 z m -3.5543,5.19709 c -0.84878,0.0145 -1.6741,0.43779 -2.17351,1.20613 l -5.78311,8.89713 c -0.79907,1.22937 -0.45266,2.86221 0.77669,3.66128 0.653,0.45057 1.21746,0.78071 2.0066,0.76688 l 7.42332,0.0796 0.29714,1.50585 h -11.2665 c -0.45281,0 -0.81752,0.36421 -0.81752,0.817 0,0.45282 0.36471,0.81753 0.81752,0.81753 h 11.58948 l 0.85576,4.33513 c 0.14521,0.73572 0.85437,1.21129 1.59008,1.06609 0.73572,-0.14521 1.21548,-0.85533 1.06557,-1.59009 l -0.77721,-3.81113 h 4.66483 l -1.92495,5.35264 1.40302,0.50436 2.10633,-5.857 h 10.97607 l 2.10633,5.857 1.40302,-0.50436 -1.92495,-5.35264 h 2.48564 c 0.45281,0 0.81752,-0.36471 0.81752,-0.81753 0,-0.45279 -0.36471,-0.817 -0.81752,-0.817 h -3.07372 l -2.07636,-5.77329 h 4.9072 c 0.45289,0 0.81752,-0.36463 0.81752,-0.81752 0,-0.4529 -0.36463,-0.81752 -0.81752,-0.81752 h -24.1515 c -0.45289,0 -0.81752,0.36462 -0.81752,0.81752 0,0.45289 0.36463,0.81752 0.81752,0.81752 h 10.4283 l -2.07635,5.77329 H 151.5147 L 150.892,152.802 c -0.18896,-0.92635 -1.01711,-1.2509 -1.92494,-1.25522 l -5.0121,0.0739 4.69827,-7.20804 1.93276,2.17581 c 0.48076,0.50308 0.96516,0.52728 1.84339,0.53328 h 5.31337 c 0.54814,0 0.9896,-0.44147 0.9896,-0.9896 0,-0.54816 -0.44146,-0.98961 -0.9896,-0.98961 h -5.19193 c -1.26492,-1.11401 -3.33228,-3.82548 -4.4602,-4.74183 l -0.35915,-0.23357 c -0.46101,-0.29966 -0.97849,-0.4381 -1.48776,-0.42944 z m 14.51797,10.34356 h 5.6472 l 2.07636,5.77329 h -9.79992 z"/>
  </g>
</svg>