<?xml version="1.0" encoding="UTF-8" standalone="yes"?>
<svg width="52.917mm" height="52.917mm" viewBox="0 0 52.917 52.917" version="1.1" id="svg7331" xmlns="http://www.w3.org/2000/svg" xmlns:svg="http://www.w3.org/2000/svg">
  <defs id="defs7328"/>
  <g id="layer1" transform="translate(-109.31293,-74.804359)">
    <rect style="display:inline;fill:#ffffff;fill-opacity:1;stroke:none;stroke-width:2.01819" id="rect70551" width="52.917" height="52.917" x="109.31293" y="74.804359"/>
    <path id="path6877" style="color:#000000;fill:#000000" d="M 147.89197 82.118124 L 145.02445 82.13001 C 144.25242 82.10712 143.91138 82.275125 143.38269 83.183176 L 142.15537 85.39441 L 144.67201 86.879591 L 146.79178 83.278777 C 147.19793 82.598963 147.32662 82.47465 147.89197 82.118124 z M 148.2873 82.450404 C 148.0784 82.458963 147.86181 82.539705 147.64134 82.708269 C 147.1992 83.120588 146.6718 84.025093 146.63107 84.267864 L 147.34575 85.512233 L 146.39645 85.961301 L 149.32703 86.003159 L 150.80807 83.412102 L 149.90218 84.05444 L 149.65569 83.538193 C 149.3027 82.877925 148.82113 82.42853 148.2873 82.450404 z M 151.17394 86.144752 L 148.61751 87.61598 L 150.15798 90.154326 L 151.77235 90.141924 C 152.13214 90.125574 152.76985 89.5865 152.64052 88.754412 L 151.17394 86.144752 z M 142.99718 86.998963 L 140.10692 87.045472 L 140.84951 87.430462 L 140.58544 87.985467 C 139.96152 88.933416 139.74786 89.127885 140.24696 90.087664 C 140.6024 90.771208 141.17736 91.747718 141.84996 92.798609 C 141.64389 92.325946 141.78046 91.77333 142.13418 91.246766 L 143.50619 88.937863 L 144.35058 89.460312 L 142.99718 86.998963 z M 148.42992 89.485117 L 147.04913 92.064287 L 148.42992 94.574212 L 148.43561 93.532932 L 149.07123 93.532932 C 150.39666 93.614802 150.53911 93.565865 151.19978 92.518006 C 151.61649 91.857125 152.11792 91.053835 152.68341 89.945037 C 152.3715 90.355627 151.66003 90.458626 151.16877 90.515545 L 148.45214 90.521746 L 148.42992 89.485117 z M 142.99925 90.535699 L 142.39773 91.454505 C 142.1136 91.948634 142.16374 93.26023 142.99253 93.50916 L 146.03782 93.506577 L 145.98304 90.558436 L 142.99925 90.535699 z M 126.55219 92.315952 C 124.73546 92.292652 122.89413 92.917535 121.43674 94.196974 C 118.32757 96.926461 117.93167 101.78294 120.75513 104.83198 L 129.84863 114.64999 L 133.17504 111.73389 L 124.05983 101.89056 C 122.87021 100.6059 123.02533 98.68648 124.35491 97.519252 C 125.68446 96.352033 127.60567 96.450408 128.72983 97.794687 L 137.33499 108.08346 L 140.65934 105.16943 L 132.06968 94.898223 C 130.65393 93.205255 128.61125 92.342282 126.55219 92.315952 z M 138.30134 102.66209 L 140.38028 105.14824 L 137.3567 107.79873 L 135.27155 105.30534 L 138.30134 102.66209 z M 141.00764 105.75596 L 138.18455 108.23333 L 138.52717 108.624 L 141.35077 106.14715 L 141.00764 105.75596 z M 141.8851 106.7683 L 139.06202 109.24515 L 139.40463 109.63634 L 142.22823 107.15897 L 141.8851 106.7683 z M 142.7605 107.75584 L 139.9369 110.23269 L 140.28003 110.62388 L 143.10312 108.14651 L 142.7605 107.75584 z M 144.85701 108.17131 L 132.29189 119.19545 L 133.20708 120.2388 L 145.7722 109.21466 L 144.85701 108.17131 z M 130.66873 109.3206 L 132.88979 111.71838 L 129.86465 114.37094 L 127.63739 111.96591 L 130.66873 109.3206 z M 133.34402 112.48165 L 130.52042 114.95901 L 130.86355 115.34969 L 133.68664 112.87284 L 133.34402 112.48165 z M 134.22097 113.49347 L 131.39789 115.97084 L 131.7405 116.36203 L 134.5641 113.88466 L 134.22097 113.49347 z M 135.09637 114.48101 L 132.27277 116.95838 L 132.6159 117.34957 L 135.4395 114.8722 L 135.09637 114.48101 z "/>
  </g>
</svg>