<?xml version="1.0" encoding="UTF-8" standalone="yes"?>
<svg width="52.917mm" height="52.917mm" viewBox="0 0 52.917 52.917" version="1.1" id="svg3663" xmlns="http://www.w3.org/2000/svg" xmlns:svg="http://www.w3.org/2000/svg">
  <defs id="defs3660"/>
  <g id="layer1" transform="translate(-161.25117,-111.57376)">
    <rect style="fill:#ffffff;fill-opacity:1;stroke:none;stroke-width:2.01819" id="rect70551" width="52.917" height="52.917" x="161.25117" y="111.57376"/>
    <path id="path3333" style="display:inline;fill:#000000;fill-opacity:1;stroke-width:1.13391;paint-order:fill markers stroke" d="m 181.54158,121.09554 -0.0114,0.0258 6.03736,6.33294 6.03684,-6.33139 -0.0119,-0.0274 z m -0.55138,1.26917 -1.64125,3.78065 h -0.10955 l 4.32531,7.89719 v 0.002 c 0.0591,0.10873 0.0771,0.13235 0.12661,0.22065 l 2.92385,-6.00015 z m 13.15475,0.003 -5.62395,5.89887 2.9223,5.99808 c 0.0493,-0.0879 0.0679,-0.11098 0.12661,-0.21911 l 0.002,-0.002 4.32532,-7.89771 h -0.11217 z m -18.23765,3.77805 c -0.52526,0 -0.94826,0.423 -0.94826,0.94826 v 19.04018 c -0.59183,-0.006 -1.21564,-0.28555 -1.89291,-0.60306 -0.6851,-0.32121 -1.42523,-0.68058 -2.25671,-0.68058 v -5.2e-4 c -0.83148,0 -1.57108,0.35991 -2.25619,0.6811 -0.6851,0.3212 -1.31564,0.60409 -1.91358,0.60409 -0.14276,0 -0.31229,-0.0183 -0.49661,-0.0491 v 2.0066 c 0.17125,0.0227 0.33841,0.0372 0.49661,0.0372 0.83149,0 1.57161,-0.36042 2.25671,-0.68161 0.6851,-0.32119 1.31512,-0.60306 1.91306,-0.60306 0.59793,0 1.22899,0.28187 1.9141,0.60306 0.6851,0.32119 1.42471,0.68161 2.25619,0.68161 0.83148,0 1.57109,-0.36042 2.25619,-0.68161 0.6851,-0.32119 1.31565,-0.60306 1.91358,-0.60306 0.59793,0 1.22848,0.28187 1.91358,0.60306 0.6851,0.32119 1.42471,0.68161 2.25619,0.68161 0.83148,0 1.57109,-0.36042 2.25619,-0.68161 0.68511,-0.32119 1.31565,-0.60306 1.91358,-0.60306 0.59793,0 1.22848,0.28187 1.91358,0.60306 0.6851,0.32119 1.42471,0.68161 2.25619,0.68161 0.83148,0 1.57162,-0.36042 2.25671,-0.68161 0.68511,-0.32119 1.31514,-0.60306 1.91307,-0.60306 0.59793,0 1.22899,0.28187 1.91409,0.60306 0.68511,0.32119 1.42471,0.68161 2.25619,0.68161 0.82794,-0.0204 1.72468,-0.34965 2.50063,-0.70486 0.6851,-0.32119 1.31564,-0.60307 1.91357,-0.60307 0.59793,0 1.22848,0.28188 1.91358,0.60307 0.6851,0.32119 1.42471,0.68161 2.2562,0.68161 0.23865,0 0.46909,-0.0322 0.69349,-0.0822 v -2.02054 c -0.2365,0.0676 -0.46749,0.108 -0.69349,0.108 -0.59794,0 -1.22848,-0.28291 -1.91358,-0.6041 -0.6851,-0.32121 -1.42472,-0.68058 -2.2562,-0.68058 -0.83147,0 -1.57108,0.35939 -2.25619,0.68058 -0.63128,0.22676 -1.31973,0.53138 -1.98127,0.60927 V 127.0941 c 0,-0.52526 -0.423,-0.94827 -0.94827,-0.94827 h -1.90582 l -4.65191,8.49509 -0.002,0.002 c -0.20853,0.38377 -0.3604,0.65338 -0.49972,0.85938 -0.0699,0.10327 -0.13442,0.1927 -0.22686,0.28318 -0.0924,0.0905 -0.22719,0.20953 -0.47232,0.23823 -0.24513,0.0287 -0.49608,-0.10783 -0.60358,-0.21652 -0.10749,-0.10868 -0.14829,-0.19318 -0.18758,-0.26768 -0.0786,-0.14893 -0.13029,-0.27636 -0.20103,-0.40825 l -0.006,-0.0103 -2.90318,-5.95571 -2.90318,5.95571 -0.004,0.01 c -0.0707,0.13189 -0.12243,0.25932 -0.20102,0.40825 -0.0393,0.0745 -0.0801,0.159 -0.18759,0.26768 -0.1075,0.10869 -0.35845,0.24574 -0.60358,0.21704 -0.24512,-0.0287 -0.3804,-0.14824 -0.47284,-0.23874 -0.0924,-0.0905 -0.15649,-0.17992 -0.22634,-0.28319 -0.13946,-0.2062 -0.29293,-0.475 -0.50178,-0.85938 l -4.65336,-8.49664 z m 20.40754,22.74951 c -0.60296,0 -1.23875,0.28188 -1.9296,0.60307 -0.78246,0.35521 -1.6864,0.68446 -2.52129,0.70486 -0.83846,0 -1.58445,-0.36042 -2.27531,-0.68161 -0.69086,-0.32119 -1.32716,-0.60306 -1.93012,-0.60306 -0.60295,0 -1.23822,0.28187 -1.92908,0.60306 -0.69085,0.32119 -1.43737,0.68161 -2.27583,0.68161 -0.83846,0 -1.58446,-0.36042 -2.27531,-0.68161 -0.69086,-0.32119 -1.32665,-0.60306 -1.9296,-0.60306 -0.60295,0 -1.23874,0.28187 -1.9296,0.60306 -0.69085,0.32119 -1.43633,0.68161 -2.2748,0.68161 -0.0285,0 -0.0569,-0.001 -0.0853,-0.002 v 3.81992 c 0,0.52526 0.423,0.94826 0.94826,0.94826 h 23.32002 c 0.52527,0 0.94827,-0.423 0.94827,-0.94826 v -3.86178 c -0.70035,-0.0796 -1.33634,-0.38441 -1.93115,-0.66094 -0.69086,-0.32119 -1.32665,-0.60307 -1.9296,-0.60307 z"/>
  </g>
</svg>