<?xml version="1.0" encoding="UTF-8" standalone="yes"?>
<svg width="52.917mm" height="52.917mm" viewBox="0 0 52.917 52.917" version="1.1" id="svg3212" xmlns="http://www.w3.org/2000/svg" xmlns:svg="http://www.w3.org/2000/svg">
  <defs id="defs3209"/>
  <g id="layer1" transform="translate(-195.17302,-158.34915)">
    <rect style="fill:#ffffff;fill-opacity:1;stroke:none;stroke-width:2.01819" id="rect70551" width="52.917" height="52.917" x="195.17302" y="158.34915"/>
    <path id="rect3011" style="display:inline;fill:#000000;stroke-width:0.799999;stroke-linecap:round" d="m 209.5161,167.86927 c -0.45281,0 -0.817,0.36471 -0.817,0.81752 v 10.04487 11.33522 11.67939 h 16.73386 v -11.67939 -7.44554 h 2.07791 v 15.51585 0.006 c 0.006,0.48854 0.21173,0.81984 0.43925,1.15601 0.22752,0.33616 0.51213,0.65716 0.81442,0.95291 0.30229,0.29576 0.62028,0.56304 0.92811,0.77359 0.30783,0.21055 0.53681,0.40151 1.01751,0.4315 l 0.0232,0.002 h 0.87902 l 0.006,-0.002 c 0.45284,-0.007 0.70148,-0.17944 0.99425,-0.37465 0.29277,-0.19521 0.58627,-0.44899 0.86351,-0.74621 0.5545,-0.59445 1.08889,-1.35031 1.08779,-2.29082 v -12.16463 l -0.002,-0.0269 c -0.0571,-0.8135 -0.47442,-1.79294 -1.1467,-2.7621 -0.67228,-0.96918 -1.64846,-1.92416 -2.97656,-1.97043 h -0.0134 -1.41387 v -8.29716 l -3.57807,-2.06706 v -2.07068 c 0,-0.45281 -0.3642,-0.81752 -0.81701,-0.81752 z m 1.52756,1.44126 h 12.04474 v 10.19524 h -12.04474 z m 14.3893,3.18017 2.07791,1.19941 v 7.43158 h -2.07791 v -2.39003 z m 3.57808,10.13064 h 1.37459 c 0.57811,0.0201 1.26446,0.5563 1.79731,1.32447 0.53179,0.76665 0.8624,1.76555 0.88056,2.0097 v 12.09177 c 3.1e-4,0.26225 -0.28084,0.83203 -0.68522,1.26555 -0.2022,0.21676 -0.42279,0.40466 -0.5979,0.52142 -0.17512,0.11677 -0.34978,0.12757 -0.18552,0.12505 h -0.73225 c 0.0284,-0.008 -0.15041,-0.0539 -0.32247,-0.17156 -0.2144,-0.14665 -0.48114,-0.3676 -0.72657,-0.60772 -0.24542,-0.24012 -0.47327,-0.50188 -0.62115,-0.72037 -0.14787,-0.21848 -0.18234,-0.41086 -0.18138,-0.33589 z"/>
  </g>
</svg>