<?xml version="1.0" encoding="UTF-8" standalone="yes"?>
<svg width="52.917mm" height="52.917mm" viewBox="0 0 52.917 52.917" version="1.1" id="svg70418" xml:space="preserve" xmlns="http://www.w3.org/2000/svg" xmlns:svg="http://www.w3.org/2000/svg">
  <defs id="defs70415"/>
  <g id="layer1" transform="translate(-172.76819,-80.790787)" style="display:inline">
    <rect style="fill:#ffffff;fill-opacity:1;stroke:none;stroke-width:2.01819" id="rect70551" width="52.917" height="52.917" x="172.76819" y="80.790787"/>
    <path id="path3382" style="fill:#000000;fill-opacity:1;stroke-width:1.41818" d="m 186.40477,89.026189 c -3.06863,0 -5.55625,2.48762 -5.55625,5.55625 0,3.06863 2.48762,5.556251 5.55625,5.556251 3.06863,0 5.55625,-2.487621 5.55625,-5.556251 0,-3.06863 -2.48762,-5.55625 -5.55625,-5.55625 z m 0,0.89297 c 2.57546,0 4.66328,2.08782 4.66328,4.66328 0,2.57546 -2.08782,4.66328 -4.66328,4.66328 -2.57546,0 -4.66329,-2.08782 -4.66329,-4.66328 0,-2.57546 2.08783,-4.66328 4.66329,-4.66328 z m -0.26459,0.92604 v 3.70158 l -2.28358,-1.53892 -0.41961,0.62218 2.70319,1.82211 v 0.007 h 0.71107 v -4.61367 z m 20.53828,2.05052 c -1.66218,0 -3.00963,1.34746 -3.00963,3.00964 0,1.66217 1.34746,3.00963 3.00963,3.00963 1.66218,0 3.00964,-1.34745 3.00964,-3.00963 0,-1.66218 -1.34746,-3.00964 -3.00964,-3.00964 z m -7.87135,0.0331 c -1.66218,0 -3.00964,1.34746 -3.00964,3.00964 0,1.66218 1.34746,3.00963 3.00964,3.00963 1.66217,0 3.00963,-1.34746 3.00963,-3.00963 0,-1.66218 -1.34745,-3.00964 -3.00963,-3.00964 z m 7.87135,6.94532 c -1.52074,0 -2.74505,1.224291 -2.74505,2.745051 v 9.69036 c 0,1.52076 1.22431,2.74505 2.74505,2.74505 0.0352,0 0.07,-10e-4 0.10491,-0.003 0.16708,0.0656 0.34912,0.1018 0.54002,0.1018 h 7.09414 v 8.94623 c 0,0.74206 0.59739,1.33945 1.33945,1.33945 0.74206,0 1.33945,-0.59739 1.33945,-1.33945 v -9.95495 c 0,-0.14717 -0.0237,-0.28839 -0.0672,-0.42065 4e-4,-0.0141 10e-4,-0.0282 10e-4,-0.0424 0,-0.81535 -0.6564,-1.47175 -1.47175,-1.47175 h -6.13502 l -0.0234,-3.1915 c 0.22444,0.13945 0.42178,0.33972 0.80163,0.4294 l 6.13193,1.64073 c 0.52876,0.1415 1.06824,-0.16991 1.20974,-0.69867 l 0.0274,-0.10284 c 0.1415,-0.52875 -0.1699,-1.06824 -0.69866,-1.20974 l -6.09782,-1.63143 c -0.99103,-3.7197 -0.7059,-2.338 -1.35082,-4.82709 -0.0573,-1.52266 -1.27801,-2.701271 -2.74506,-2.745051 z m -7.5122,0.0992 c -1.39004,0 -2.50889,1.118861 -2.50889,2.508901 v 9.76116 h -6.10454 c -0.84749,-0.0128 -1.05949,0.18547 -1.64486,0.76791 l -6.2575,6.0911 c -0.55606,0.5413 -0.5773,1.41489 -0.0475,1.95905 0.52971,0.54416 1.40402,0.54664 1.96009,0.005 l 4.38836,-4.27209 v 7.4874 c 0,0.6596 0.53103,1.19062 1.19063,1.19062 0.65959,0 1.19062,-0.53102 1.19062,-1.19062 v -9.40925 h 7.29516 c 2.22904,-0.007 3.11198,-0.66519 3.12281,-2.54919 v -9.84126 c 0,-1.39004 -1.11885,-2.508901 -2.50889,-2.508901 z"/>
  </g>
</svg>