<?xml version="1.0" encoding="UTF-8" standalone="yes"?>
<svg width="52.917mm" height="52.917mm" viewBox="0 0 52.917 52.917" version="1.1" id="svg5633" xmlns="http://www.w3.org/2000/svg" xmlns:svg="http://www.w3.org/2000/svg">
  <defs id="defs5630"/>
  <g id="layer1" transform="translate(-103.76731,-65.799561)">
    <rect style="fill:#ffffff;fill-opacity:1;stroke:none;stroke-width:2.01819" id="rect70551" width="52.917" height="52.917" x="103.76731" y="65.799561"/>
    <path id="path5605" style="color:#000000;fill:#000000;stroke-width:1.3;-inkscape-stroke:none" d="m 146.38084,72.443769 -32.67346,9.49038 0.18138,0.62477 0.1819,0.62528 13.65808,-3.9672 v 2.15853 c -0.0192,0.20444 -0.25281,0.52497 -0.56069,0.5333 h -1.31826 l -0.0176,0.002 c -0.79844,0.0462 -1.59172,0.31428 -2.22829,0.8046 -0.63658,0.49032 -1.11572,1.243 -1.14463,2.14457 v 0.01 17.580321 0.008 c 0.0501,2.30237 1.72923,4.18674 4.03127,4.21111 h 0.002 6.77892 v -1.29914 h -6.76755 c -1.62888,-0.0172 -2.70648,-1.21533 -2.74402,-2.93936 V 84.897639 c 0.0168,-0.48013 0.24249,-0.84879 0.63666,-1.15239 0.39395,-0.30344 0.95679,-0.50188 1.50378,-0.53485 h 1.29501 0.008 c 1.0291,-0.0278 1.74631,-0.84403 1.82263,-1.72289 l 0.002,-0.0289 v -2.61845 l 17.71675,-5.14593 -0.1819,-0.62477 z m -18.56683,12.34189 a 2.571816,2.571816 0 0 0 -2.57194,2.57193 2.571816,2.571816 0 0 0 2.57194,2.57194 2.571816,2.571816 0 0 0 2.57142,-2.57194 2.571816,2.571816 0 0 0 -2.57142,-2.57193 z m 0.25063,5.99084 c -1.28578,0 -2.32079,1.03501 -2.32079,2.32079 v 8.499741 c 0,1.28578 1.03501,2.32079 2.32079,2.32079 0.0897,0 0.17815,-0.006 0.2651,-0.0155 0.0618,0.01 0.12503,0.0155 0.18965,0.0155 h 6.35156 v 6.94686 c 0,0.66895 0.5382,1.20768 1.20716,1.20768 0.66895,0 1.20768,-0.53873 1.20768,-1.20768 v -8.13852 -0.016 -0.0155 c 0,-0.66027 -0.53192,-1.19166 -1.19218,-1.19166 h -0.0155 -5.69268 v -2.477881 h 4.09329 c 0.61683,0 1.11311,-0.4968 1.11311,-1.11363 0,-0.61683 -0.49628,-1.11363 -1.11311,-1.11363 h -4.09329 v -3.70055 c 0,-1.28578 -1.03501,-2.32079 -2.32079,-2.32079 z"/>
  </g>
</svg>