<?xml version="1.0" encoding="UTF-8" standalone="yes"?>
<svg width="52.917mm" height="52.917mm" viewBox="0 0 52.917 52.917" version="1.1" id="svg1074" xmlns="http://www.w3.org/2000/svg" xmlns:svg="http://www.w3.org/2000/svg">
  <defs id="defs1071"/>
  <g id="layer1" transform="translate(-129.44069,-188.97835)">
    <rect style="fill:#ffffff;fill-opacity:1;stroke:none;stroke-width:2.01819" id="rect70551" width="52.917" height="52.917" x="129.44069" y="188.97835"/>
    <g id="g1056" transform="translate(119.61895,35.857833)">
      <path id="path911" style="fill:#000000;stroke-width:0.799999;stroke-linecap:round" d="m 21.9105,174.57673 c -1.441466,-0.004 -2.646418,0.13373 -3.408061,0.47646 l 0.0217,2.32285 c 0.430309,0.0604 0.515796,0.34942 0.602031,0.66663 0.791743,6.11903 1.225526,8.25133 7.141166,8.34574 5.293079,-0.0572 6.794524,-2.54456 8.560718,-7.01197 0.161776,-0.69766 0.658054,-0.62467 1.637918,-0.62467 0.979864,0 1.476142,-0.073 1.637919,0.62467 1.766193,4.46741 3.267639,6.95477 8.560717,7.01197 5.91564,-0.0944 6.348907,-2.22671 7.14065,-8.34574 0.08624,-0.31721 0.172237,-0.60623 0.602547,-0.66663 l 0.02119,-2.32285 c -3.046572,-1.37093 -13.181238,0.54023 -17.208252,1.65778 -0.534114,0.0599 -0.977525,0.0568 -1.509985,0 -3.02026,-0.83816 -9.475793,-2.12261 -13.800191,-2.13424 z"/>
      <rect style="fill:#b71f2e;fill-opacity:1;stroke:none;stroke-width:0.799999;stroke-linecap:round" id="rect9462-4" width="53.686893" height="2.6653202" x="125.64804" y="100.21154" transform="rotate(44.918631)"/>
    </g>
  </g>
</svg>