<?xml version="1.0" encoding="UTF-8" standalone="yes"?>
<svg width="52.917mm" height="52.917mm" viewBox="0 0 52.917 52.917" version="1.1" id="svg9396" xmlns="http://www.w3.org/2000/svg" xmlns:svg="http://www.w3.org/2000/svg">
  <defs id="defs9393"/>
  <g id="layer1" transform="translate(-27.228638,-52.007313)">
    <rect style="fill:#ffffff;fill-opacity:1;stroke:none;stroke-width:2.01819" id="rect70551" width="52.917" height="52.917" x="27.228638" y="52.007313"/>
    <path id="path5654" style="display:inline;fill:#1f0000;stroke-width:0.972618;stroke-linecap:round" d="M 53.68738,56.97461 37.74469,67.13317 V 69.8622 L 53.68738,59.70209 69.62956,69.8622 v -2.72903 z m 13.60124,13.30823 -4.07624,25.72401 c -0.0546,0.58086 -0.80769,1.07698 -1.18804,1.06661 l -5.01468,-0.30231 c -0.8127,-0.10044 -1.79476,0.20188 -1.62109,1.15703 l 0.14676,0.80822 c 0.12582,0.69878 0.87551,0.97721 1.50999,0.97721 h 5.10408 c 0.8868,0.0237 1.81853,-0.49834 2.0097,-1.41594 l 0.20515,-1.01596 4.21783,-26.79526 z M 44.0859,70.54898 c -2.92345,0 -5.29315,2.91275 -5.29321,6.50554 4e-5,2.80832 1.42333,5.25726 3.47627,6.11177 0.63056,0.30291 1.25632,0.97307 1.26452,1.36065 -0.002,2.17292 0.007,4.34554 0,6.51846 l -0.55242,0.46302 V 99.957 h 2.2102 V 91.50842 L 44.63832,91.0454 c 0.0129,-2.1578 0.002,-4.31798 0,-6.48074 0.006,-0.38992 0.80716,-1.15791 1.20872,-1.37356 1.99538,-1.02368 3.53256,-3.30259 3.5326,-6.13658 -6e-5,-3.59279 -2.37027,-6.50554 -5.29374,-6.50554 z m 0,1.22731 c 2.37187,1.8e-4 4.29478,2.36331 4.29483,5.27823 1.3e-4,2.91509 -1.92283,5.27807 -4.29483,5.27823 -2.37216,1.1e-4 -4.29497,-2.36295 -4.29483,-5.27823 5e-5,-2.91511 1.9228,-5.27835 4.29483,-5.27823 z m 10.84637,9.04803 c -3.84212,2e-5 -6.95718,3.11457 -6.9572,6.95668 2e-5,3.84211 3.11508,6.95718 6.9572,6.9572 3.84211,-2e-5 6.95666,-3.11509 6.95668,-6.9572 -2e-5,-3.84211 -3.11457,-6.95666 -6.95668,-6.95668 z m 0.38034,0.99425 c 1.31489,0.0812 2.56856,0.58358 3.57601,1.43247 l 0.003,0.17829 -2.46807,-0.0538 -1.12293,-0.71313 z m -0.81804,0.002 0.0129,0.97513 -1.12293,0.71314 -2.46807,0.0532 0.005,-0.26562 c 1.00088,-0.86401 2.25406,-1.38159 3.57291,-1.47588 z m 2.651,2.33009 h 0.0269 l 1.56838,0.0444 1.21181,1.71101 -0.65008,1.55908 H 58.47317 L 56.896,85.21981 Z m -4.12585,0.0708 0.67697,0.94464 -1.17616,2.44171 -1.33687,0.2496 -1.2299,-1.8712 0.99787,-1.62213 z m 1.33636,1.37252 h 1.81797 l 1.58647,2.20969 -1.05161,1.58646 h -2.44172 l -1.03352,-1.58646 z m 6.17585,0.87334 0.38085,0.10335 c 0.10365,0.44935 0.15641,0.90879 0.1571,1.36994 2e-5,0.82306 -0.16558,1.63742 -0.48679,2.3952 l -0.74621,-0.58911 0.062,-2.11201 z m -11.05669,0.14107 1.00872,1.54978 v 1.90324 c 0,0 -0.69754,0.50328 -1.01027,0.68368 -0.44602,-0.8676 -0.67879,-1.82895 -0.67903,-2.80448 0.002,-0.42967 0.048,-0.85803 0.13901,-1.27796 z m 4.54236,3.59306 h 2.84272 l 0.56172,0.78394 -1.3193,2.23707 h -1.81798 l -1.29242,-1.80041 z m 5.53403,0.27596 0.7028,0.52038 c -0.67609,1.177 -1.72314,2.09636 -2.9776,2.61483 l -0.36277,-0.46147 1.06919,-1.62213 z m -8.74211,0.22272 1.55908,0.91778 1.03405,1.59525 -0.46199,0.5302 c -1.284,-0.44171 -2.38545,-1.2969 -3.13159,-2.43138 0.28266,-0.15791 1.00045,-0.61185 1.00045,-0.61185 z"/>
  </g>
</svg>