<?xml version="1.0" encoding="UTF-8" standalone="yes"?>
<svg width="52.917mm" height="52.917mm" viewBox="0 0 52.917 52.917" version="1.1" id="svg70418" xml:space="preserve" xmlns="http://www.w3.org/2000/svg" xmlns:svg="http://www.w3.org/2000/svg">
  <defs id="defs70415"/>
  <g id="layer1" transform="translate(-290.99747,-100.4651)" style="display:inline">
    <rect style="fill:#ffffff;fill-opacity:1;stroke:none;stroke-width:2.01819" id="rect70551" width="52.917" height="52.917" x="290.99747" y="100.4651"/>
    <path id="rect4293" style="display:inline;stroke-width:1.3" d="m 301.01873,114.85198 v 24.14323 h 32.87448 v -24.14323 z m 2.81999,1.81901 h 27.16785 l -11.3648,11.38766 c -1.50343,1.46464 -2.71128,1.52565 -4.31848,-0.0132 -3.78174,-3.56896 -7.68778,-7.56276 -11.48457,-11.3745 z m 28.10319,1.74873 v 17.14779 l -8.59276,-8.55503 z m -28.97187,0.0672 8.55916,8.56072 -8.55916,8.52092 z m 19.03449,9.8702 8.86045,8.8191 h -26.81594 l 8.82375,-8.78448 c 1.31179,1.46563 2.79474,2.83561 4.68907,2.79626 2.05757,-0.14129 3.09197,-1.47986 4.44267,-2.83088 z"/>
  </g>
</svg>