<?xml version="1.0" encoding="UTF-8" standalone="yes"?>
<svg width="52.917mm" height="52.917mm" viewBox="0 0 52.917 52.917" version="1.1" id="svg70418" xml:space="preserve" xmlns="http://www.w3.org/2000/svg" xmlns:svg="http://www.w3.org/2000/svg">
  <defs id="defs70415"/>
  <g id="layer1" transform="translate(-90.781647,-69.064018)">
    <rect style="fill:#ffffff;fill-opacity:1;stroke:none;stroke-width:2.01819" id="rect70551" width="52.917" height="52.917" x="90.781647" y="69.064018"/>
    <path id="svg_3" style="display:inline;fill:#000000;fill-opacity:1;stroke-width:0.0797928" d="m 112.35042,77.465995 c -1.78012,0 -3.22875,1.427306 -3.22875,3.202906 0,1.75631 1.44863,3.202905 3.22875,3.202905 1.7948,0 3.23339,-1.446595 3.23339,-3.202905 0,-1.7756 -1.43859,-3.202906 -3.23339,-3.202906 z m 0.44338,7.143234 c -0.13589,-0.0021 -0.27413,0.0044 -0.41393,0.02015 -1.49118,0.168343 -2.57669,1.321572 -2.43396,2.585889 l 1.2237,10.840174 c 0.62161,1.73585 1.66596,2.105028 3.22875,2.085138 h 8.09563 l 3.84834,8.84442 c 0.44063,1.01263 1.53427,1.50656 2.45153,1.10743 l 0.1664,-0.0724 c 0.91726,-0.39913 1.30104,-1.53605 0.86041,-2.54868 l -4.21525,-9.686228 c -0.54291,-1.054236 -0.99167,-1.314216 -2.12752,-1.361166 h -7.04039 l -0.36277,-3.21634 h 6.01514 c 0.69746,0 1.25883,-0.56138 1.25883,-1.25884 0,-0.69747 -0.56137,-1.25883 -1.25883,-1.25883 h -6.29936 l -0.46096,-4.082443 c -0.12935,-1.145787 -1.22218,-1.977684 -2.53576,-1.998327 z m -3.20859,7.73441 c -3.07953,2.09299 -5.10821,5.623973 -5.10821,9.615951 0,6.40186 5.21708,11.61945 11.61893,11.61945 3.74936,0 7.09196,-1.79042 9.21855,-4.55941 l -1.22628,-2.8174 c -1.515,2.85994 -4.51844,4.80022 -7.99227,4.80022 -5.00914,0 -9.04286,-4.03372 -9.04286,-9.04286 0,-2.588508 1.07733,-4.916311 2.80964,-6.561871 z"/>
  </g>
</svg>