<?xml version="1.0" encoding="UTF-8" standalone="yes"?>
<svg width="52.917mm" height="52.917mm" viewBox="0 0 52.917 52.917" version="1.1" id="svg2843" xmlns="http://www.w3.org/2000/svg" xmlns:svg="http://www.w3.org/2000/svg">
  <defs id="defs2840"/>
  <g id="layer1" transform="translate(-20.00152,-105.69446)">
    <rect style="fill:#ffffff;fill-opacity:1;stroke:none;stroke-width:2.01819" id="rect70551" width="52.917" height="52.917" x="20.00152" y="105.69446"/>
    <path id="path1711" style="display:inline;fill:#000000;stroke-width:1.40551" d="m 46.46002,116.37642 -15.36599,10.15855 v 3.5755 L 46.46002,119.95036 61.826,130.11047 v -3.5755 z m 1.64279,14.00948 c -0.98611,0 -1.41005,0.0274 -2.12855,0.84491 l -4.71186,4.94595 c -0.25359,0.22432 -0.57095,0.5622 -0.87385,0.94517 -0.44966,0.6623 -0.35059,1.90721 -2.49235,3.84162 0.49777,-0.12912 1.06737,-0.23077 1.75028,-0.27751 2.11155,-0.14442 3.38572,0.38548 4.58835,0.88574 0.32439,0.13484 0.64297,0.26738 0.971,0.37982 h 3.699 c 0.55265,-0.16645 1.07933,-0.3784 1.59215,-0.58549 0.80034,-0.32316 1.57129,-0.63382 2.40037,-0.77308 0.0603,-0.0406 0.0733,-0.0733 0.0284,-0.0935 l -8.061,-3.6375 3.45973,-3.45973 h 7.00784 c 0.83546,0 1.50844,-0.67246 1.50844,-1.50792 0,-0.83547 -0.67298,-1.50844 -1.50844,-1.50844 z m -12.253,3.37137 a 2.8941531,2.8941531 0 0 0 -2.89439,2.89388 2.8941531,2.8941531 0 0 0 2.89439,2.8944 2.8941531,2.8941531 0 0 0 2.89388,-2.8944 2.8941531,2.8941531 0 0 0 -2.89388,-2.89388 z m 17.45527,8.4832 c -1.16951,0.01 -2.18376,0.41886 -3.25045,0.84956 -1.06444,0.42985 -2.18743,0.8834 -3.48247,0.89917 -1.0816,0.013 -1.9096,-0.33184 -2.77968,-0.6935 -1.20263,-0.50026 -2.4768,-1.03015 -4.58835,-0.88573 -1.64963,0.1129 -2.64498,0.54074 -3.5388,0.92449 -1.00411,0.43128 -1.8611,0.79909 -3.5879,0.42013 l -0.34519,-0.0889 c 0.0763,0.58232 0.0743,1.28522 0.7984,1.38493 1.65188,0.22717 2.57721,-0.16993 3.63905,-0.62581 0.79621,-0.34179 1.6816,-0.72211 3.12074,-0.82062 1.81002,-0.12386 2.94355,0.34746 4.01268,0.7922 0.98971,0.41152 1.9316,0.80277 3.28403,0.78652 1.54214,-0.0185 2.77513,-0.51589 3.94343,-0.98754 0.95625,-0.38598 1.86501,-0.75287 2.78484,-0.76068 1.15201,-0.009 2.07711,0.35145 2.98896,0.70745 1.25432,0.48964 2.48753,0.97079 4.27468,0.67697 0.47179,-0.1177 0.55604,-0.69845 0.60875,-1.35651 l -0.35037,0.0832 v -5.2e-4 c -1.70859,0.40998 -2.87935,-0.0473 -4.07262,-0.51315 -1.02196,-0.39884 -2.05857,-0.80316 -3.45973,-0.79168 z m 0,2.74609 c -1.16951,0.01 -2.18376,0.41885 -3.25045,0.84956 -1.06444,0.42984 -2.18743,0.88304 -3.48247,0.89865 -1.0816,0.013 -1.9096,-0.3308 -2.77968,-0.69246 -1.20263,-0.50026 -2.4768,-1.03016 -4.58835,-0.88574 -1.64963,0.1129 -2.64498,0.53969 -3.5388,0.92346 -1.00411,0.4311 -1.8611,0.7991 -3.5879,0.42013 l -0.34519,-0.0889 c 0.0763,0.58233 0.0743,1.28573 0.7984,1.38544 1.65188,0.22717 2.57721,-0.16991 3.63905,-0.6258 0.79621,-0.34179 1.6816,-0.72262 3.12074,-0.82114 1.81002,-0.12387 2.94355,0.34762 4.01268,0.7922 0.98971,0.41151 1.9316,0.80327 3.28403,0.78703 1.54214,-0.0187 2.77513,-0.51639 3.94343,-0.98805 0.95625,-0.38598 1.86501,-0.75287 2.78484,-0.76068 1.15201,-0.009 2.07711,0.35145 2.98896,0.70745 1.25432,0.48964 2.48753,0.9713 4.27468,0.67748 0.47179,-0.11769 0.55604,-0.69897 0.60875,-1.35702 l -0.35037,0.0827 c -1.70859,0.40997 -2.87935,-0.0463 -4.07262,-0.51211 -1.02196,-0.39884 -2.05857,-0.80368 -3.45973,-0.7922 z"/>
  </g>
</svg>