<?xml version="1.0" encoding="UTF-8" standalone="yes"?>
<svg width="52.917mm" height="52.917mm" viewBox="0 0 52.917 52.917" version="1.1" id="svg3357" xmlns="http://www.w3.org/2000/svg" xmlns:svg="http://www.w3.org/2000/svg">
  <defs id="defs3354"/>
  <g id="layer1" transform="translate(-96.301498,-43.124359)">
    <rect style="fill:#ffffff;fill-opacity:1;stroke:none;stroke-width:2.01819" id="rect70551" width="52.917" height="52.917" x="96.301498" y="43.124359"/>
    <path id="rect3071" style="display:inline;fill:#000000;stroke-width:0.503299" d="m 124.32218,55.810828 -4.54495,4.472078 4.66535,4.665865 h -21.43331 c -0.41552,0 -0.75035,0.334822 -0.75035,0.750342 v 13.800704 c 0,0.41552 0.33483,0.74983 0.75035,0.74983 h 5.22448 a 1.5875809,1.5875809 0 0 0 -1.14876,1.51774 1.5875809,1.5875809 0 0 0 1.5875,1.5875 1.5875809,1.5875809 0 0 0 1.5875,-1.5875 1.5875809,1.5875809 0 0 0 -1.14825,-1.51774 h 3.18481 a 1.5875809,1.5875809 0 0 0 -1.14928,1.51774 1.5875809,1.5875809 0 0 0 1.58802,1.5875 1.5875809,1.5875809 0 0 0 1.5875,-1.5875 1.5875809,1.5875809 0 0 0 -1.14825,-1.51774 h 19.17092 a 1.5875809,1.5875809 0 0 0 -1.14877,1.51774 1.5875809,1.5875809 0 0 0 1.5875,1.5875 1.5875809,1.5875809 0 0 0 1.5875,-1.5875 1.5875809,1.5875809 0 0 0 -1.14825,-1.51774 h 3.18482 a 1.5875809,1.5875809 0 0 0 -1.14928,1.51774 1.5875809,1.5875809 0 0 0 1.58853,1.5875 1.5875809,1.5875809 0 0 0 1.5875,-1.5875 1.5875809,1.5875809 0 0 0 -1.14877,-1.51774 h 5.22501 c 0.41552,0 0.74982,-0.33431 0.74982,-0.74983 v -8.45064 -1.09968 -1.450555 c 0,-1.966794 -1.44986,-3.550171 -3.25045,-3.550171 h -3.50004 -8.3504 -1.17253 l -4.65398,-4.653979 4.55476,-4.483964 z m -20.14399,11.103198 h 4.33617 c 0.10773,0 0.19482,0.08657 0.19482,0.194303 v 10.586438 c 0,0.10772 -0.0871,0.19482 -0.19482,0.19482 h -4.33617 c -0.10774,0 -0.19431,-0.0871 -0.19431,-0.19482 V 67.108329 c 0,-0.10773 0.0866,-0.194303 0.19431,-0.194303 z m 6.46162,0 h 5.97534 c 0.10774,0 0.19431,0.08657 0.19431,0.194303 v 4.985738 c 0,0.1077 -0.0866,0.19431 -0.19431,0.19431 h -5.97534 c -0.10774,0 -0.19431,-0.0866 -0.19431,-0.19431 v -4.985738 c 0,-0.1077 0.0866,-0.194303 0.19431,-0.194303 z m 8.1442,0 h 5.97535 c 0.10773,0 0.1943,0.08657 0.1943,0.194303 v 4.985738 c 0,0.1077 -0.0866,0.19431 -0.1943,0.19431 h -5.97535 c -0.10772,0 -0.19482,-0.0866 -0.19482,-0.19431 v -4.985738 c 0,-0.1077 0.0871,-0.194303 0.19482,-0.194303 z m 8.14369,0 h 5.97535 c 0.10773,0 0.1943,0.08657 0.1943,0.194303 v 4.985738 c 0,0.1077 -0.0866,0.19431 -0.1943,0.19431 h -5.97535 c -0.10773,0 -0.1943,-0.0866 -0.1943,-0.19431 v -4.985738 c 0,-0.1077 0.0866,-0.194303 0.1943,-0.194303 z m 8.14369,0 h 5.97535 c 0.10773,0 0.19482,0.08657 0.19482,0.194303 v 4.985738 c 0,0.1077 -0.0871,0.19431 -0.19482,0.19431 h -5.97535 c -0.10773,0 -0.1943,-0.0866 -0.1943,-0.19431 v -4.985738 c 0,-0.1077 0.0866,-0.194303 0.1943,-0.194303 z"/>
  </g>
</svg>