<?xml version="1.0" encoding="UTF-8" standalone="yes"?>
<svg width="52.917mm" height="52.917mm" viewBox="0 0 52.917 52.917" version="1.1" id="svg4038" xmlns="http://www.w3.org/2000/svg" xmlns:svg="http://www.w3.org/2000/svg">
  <defs id="defs4035"/>
  <g id="layer1" transform="translate(-69.147217,-60.095787)">
    <rect style="fill:#ffffff;fill-opacity:1;stroke:none;stroke-width:2.01819" id="rect70551" width="52.917" height="52.917" x="69.147217" y="60.095787"/>
    <path id="path2731" style="display:inline;fill:#000000;stroke-width:0.799999;stroke-linecap:round" d="m 77.1076,67.451205 v 14.22445 h 1.99988 v -12.22457 h 27.98279 v 12.15429 h 1.99988 v -14.15417 z m 9.63611,6.23993 -1.17358,1.23042 c 0,0 0.43142,0.41148 0.87489,0.97461 0.44346,0.56314 0.83553,1.30839 0.86144,1.61541 0.0501,0.59358 -0.24847,1.15245 -0.70693,1.89652 -0.45846,0.74407 -1.07431,1.64598 -1.09399,2.85151 -0.0171,1.04639 0.4581,2.03844 0.88677,2.87683 0.42866,0.83835 0.85938,1.48673 0.85938,1.48673 l 1.41593,-0.94155 c 0,0 -0.38196,-0.57555 -0.76171,-1.31826 -0.37975,-0.74272 -0.70757,-1.68929 -0.70125,-2.07636 0.01,-0.6134 0.37057,-1.22372 0.84181,-1.98851 0.47123,-0.7648 1.05633,-1.71247 0.95343,-2.93161 -0.0871,-1.032 -0.69286,-1.85311 -1.21905,-2.52129 -0.52619,-0.66818 -1.03714,-1.15445 -1.03714,-1.15445 z m 5.83995,0 -1.17357,1.23042 c 0,0 0.43141,0.41148 0.87488,0.97461 0.44347,0.56314 0.83553,1.30839 0.86145,1.61541 0.0501,0.59358 -0.24899,1.15245 -0.70745,1.89652 -0.45847,0.74407 -1.07379,1.64598 -1.09348,2.85151 -0.0171,1.04639 0.45811,2.03844 0.88677,2.87683 0.42867,0.83835 0.85938,1.48673 0.85938,1.48673 l 1.41593,-0.94155 c 0,0 -0.38196,-0.57555 -0.76171,-1.31826 -0.37975,-0.74272 -0.70757,-1.68929 -0.70125,-2.07636 0.01,-0.6134 0.37058,-1.22372 0.84181,-1.98851 0.47124,-0.7648 1.05582,-1.71247 0.95292,-2.93161 -0.0871,-1.032 -0.69234,-1.85311 -1.21853,-2.52129 -0.5262,-0.66818 -1.03715,-1.15445 -1.03715,-1.15445 z m 5.83995,0 -1.17409,1.23042 c 0,0 0.43194,0.41148 0.8754,0.97461 0.44347,0.56314 0.83502,1.30839 0.86093,1.61541 0.0501,0.59358 -0.24847,1.15245 -0.70693,1.89652 -0.45846,0.74407 -1.07379,1.64598 -1.09347,2.85151 -0.0171,1.04639 0.4581,2.03844 0.88676,2.87683 0.42867,0.83835 0.85938,1.48673 0.85938,1.48673 l 1.41594,-0.94155 c 0,0 -0.38196,-0.57555 -0.76171,-1.31826 -0.37975,-0.74272 -0.70757,-1.68929 -0.70125,-2.07636 0.01,-0.6134 0.37057,-1.22372 0.84181,-1.98851 0.47123,-0.7648 1.05581,-1.71247 0.95291,-2.93161 -0.0871,-1.032 -0.69234,-1.85311 -1.21853,-2.52129 -0.52619,-0.66818 -1.03715,-1.15445 -1.03715,-1.15445 z m -3.78736,18.95698 c -0.98993,0 -0.90603,0.98495 -0.13384,1.45004 0.69163,0.419729 1.37313,0.748399 2.14043,0.761709 0.94358,0.0294 2.6405,0.0202 3.58583,0.0429 0.53369,0.0317 0.5017,0.67076 -0.015,0.67076 h -4.26123 -7.28483 c -0.48478,0 -0.87488,0.39011 -0.87488,0.874886 0,0.39329 0.25658,0.72456 0.61236,0.8356 l 1.31672,0.0398 h 4.80901 c 0.66441,0.003 0.61805,0.8897 -0.0444,0.9002 h -7.58404 c -0.48476,0 -0.87488,0.39063 -0.87488,0.8754 0,0.48478 0.39012,0.87488 0.87488,0.87488 h 7.53029 c 0.77356,-0.002 0.64556,0.88136 0.19534,0.9002 h -6.50038 c -0.0637,0 -0.12254,-0.0187 -0.1726,-0.0501 h -0.23667 c -0.48478,0 -0.8754,0.39011 -0.8754,0.87488 0,0.48478 0.39062,0.87488 0.8754,0.87488 h 7.73544 c 0.63618,-0.0193 0.56547,0.83612 0.17415,0.85008 h -5.43481 c -0.48477,0 -0.87488,0.39063 -0.87488,0.8754 0,0.48478 0.39011,0.87488 0.87488,0.87488 h 7.81658 c 2.83546,1.1085 6.43343,0.10595 8.59379,-0.97514 h 7.50032 V 96.5492 h -7.35046 c -0.48565,0 -1.62179,-3.894535 -5.55005,-3.900535 z"/>
  </g>
</svg>