<?xml version="1.0" encoding="UTF-8" standalone="yes"?>
<svg width="52.917mm" height="52.917mm" viewBox="0 0 52.917 52.917" version="1.1" id="svg3805" xmlns="http://www.w3.org/2000/svg" xmlns:svg="http://www.w3.org/2000/svg">
  <defs id="defs3802"/>
  <g id="layer1" transform="translate(-78.506744,-121.86942)">
    <rect style="fill:#ffffff;fill-opacity:1;stroke:none;stroke-width:2.01819" id="rect70551-3" width="52.917" height="52.917" x="78.506744" y="121.86942"/>
    <g id="g3788" transform="translate(65.830331,50.083133)">
      <path id="path3606" style="display:inline;fill:#000000;fill-opacity:1;stroke:none;stroke-width:0.55867" d="m 26.194115,79.214439 c -1.526354,-1.17e-4 -2.763971,1.237301 -2.764172,2.763656 -1.15e-4,1.526576 1.237595,2.76377 2.764172,2.763655 1.52658,1.2e-4 2.763769,-1.237077 2.763656,-2.763655 -2.03e-4,-1.526358 -1.2373,-2.763776 -2.763656,-2.763656 z m 14.560869,5.426025 c -1.102651,-8.5e-5 -1.996633,0.893611 -1.996778,1.996261 -8.4e-5,1.102811 0.893967,1.996343 1.996778,1.99626 1.102812,8.7e-5 1.996343,-0.893448 1.99626,-1.99626 -1.46e-4,-1.102652 -0.893609,-1.996348 -1.99626,-1.996261 z m 12.952181,0 c -1.102651,-8.5e-5 -1.996633,0.893611 -1.996778,1.996261 -8.4e-5,1.102811 0.893967,1.996343 1.996778,1.99626 1.102812,8.7e-5 1.99686,-0.893448 1.996777,-1.99626 -1.46e-4,-1.102652 -0.894126,-1.996348 -1.996777,-1.996261 z m -32.384587,1.068152 c -1.062503,0 -1.923991,0.832667 -1.969389,1.883606 -6.7e-5,0.0011 5.7e-5,0.002 0,0.0031 -0.0011,0.02179 -0.0021,0.04414 -0.0021,0.06615 v 0.01757 0.204638 12.31863 c 0,0.7061 0.568238,1.27485 1.274341,1.27485 h 0.102319 c 0.706106,0 1.274341,-0.56875 1.274341,-1.27485 v -9.920843 c -0.0056,-0.472949 0.737423,-0.442291 0.737423,-0.0057 v 25.580873 c 0,0.78555 0.63245,1.418 1.418001,1.418 h 0.0832 c 0.0035,3e-5 0.0069,5.1e-4 0.01033,5.1e-4 h 0.144178 c 0.785558,0 1.418001,-0.63245 1.418001,-1.418 V 101.4694 c -0.0028,-0.18835 0.196776,-0.28652 0.409794,-0.30024 0.213103,0.0137 0.412589,0.11182 0.409794,0.30024 v 14.38775 c 0,0.78555 0.632442,1.418 1.418001,1.418 h 0.144178 c 0.0035,0 0.0069,-4.8e-4 0.01034,-5.1e-4 h 0.0832 c 0.785551,0 1.418518,-0.63245 1.418518,-1.418 V 90.275779 c 0,-0.436621 0.742506,-0.467279 0.736906,0.0057 v 9.920851 c 0,0.7061 0.568237,1.27485 1.274341,1.27485 h 0.102319 c 0.706105,0 1.274341,-0.56875 1.274341,-1.27485 v -12.318638 -0.204638 -0.01757 c 0,-0.02201 -9.34e-4,-0.04436 -0.0021,-0.06615 -5.7e-5,-0.0011 6.7e-5,-0.002 0,-0.0031 -0.0454,-1.050939 -0.906369,-1.883606 -1.968872,-1.883606 l -4.900993,5.17e-4 z m 15.913241,3.623035 c -0.767561,0 -1.389857,0.601434 -1.422653,1.36064 -4.8e-5,7.95e-4 4.1e-5,0.0013 0,0.0021 -7.95e-4,0.01574 -0.0016,0.03216 -0.0016,0.04806 v 0.0124 0.148311 8.898682 c 0,0.510086 0.410263,0.920876 0.920357,0.920876 h 0.0739 c 0.510095,0 0.920874,-0.41079 0.920874,-0.920876 v -7.166488 c -0.0041,-0.341661 0.532267,-0.319977 0.532267,-0.0047 v 18.480004 c 0,0.56749 0.457255,1.02423 1.024744,1.02423 h 0.05994 c 0.0025,2e-5 0.0048,5.2e-4 0.0072,5.2e-4 h 0.104386 c 0.567494,0 1.024227,-0.45674 1.024227,-1.02423 V 100.7175 c -0.002,-0.13606 0.142221,-0.20713 0.296106,-0.21704 0.153948,0.01 0.298125,0.081 0.296106,0.21704 v 10.39368 c 0,0.56749 0.456734,1.02423 1.024227,1.02423 h 0.104386 c 0.0025,0 0.0048,2e-5 0.0072,0 h 0.05994 c 0.567487,0 1.024743,-0.45726 1.024743,-1.02475 V 92.631191 c 0,-0.315418 0.53683,-0.337619 0.532784,0.0041 v 7.167005 c 0,0.510084 0.410262,0.920874 0.920358,0.920874 h 0.0739 c 0.510095,0 0.920874,-0.41078 0.920874,-0.920874 v -8.899199 -0.147794 -0.01292 c 0,-0.0159 -7.49e-4,-0.03181 -0.0016,-0.04754 -4e-5,-7.95e-4 4.9e-5,-0.0019 0,-0.0026 -0.03279,-0.759206 -0.655092,-1.36064 -1.422652,-1.36064 l -3.540353,5.17e-4 z m 12.952181,0 c -0.767561,0 -1.389857,0.601434 -1.422653,1.36064 -4.8e-5,7.95e-4 4.1e-5,0.0013 0,0.0021 -7.95e-4,0.01574 -0.0016,0.03216 -0.0016,0.04806 v 0.0124 0.148311 8.898682 c 0,0.510096 0.410263,0.920876 0.920357,0.920876 h 0.0739 c 0.510095,0 0.920874,-0.41078 0.920874,-0.920876 v -7.166488 c -0.0041,-0.341661 0.532784,-0.319977 0.532784,-0.0047 v 18.480004 c 0,0.56749 0.456738,1.02423 1.024227,1.02423 h 0.05994 c 0.0025,2e-5 0.0054,5.2e-4 0.0078,5.2e-4 h 0.103869 c 0.567494,0 1.024744,-0.45674 1.024744,-1.02423 V 100.7175 c -0.002,-0.13606 0.141704,-0.20712 0.295589,-0.21704 0.153948,0.01 0.298125,0.0809 0.296106,0.21704 v 10.39368 c 0,0.5675 0.45725,1.02423 1.024744,1.02423 h 0.103869 c 0.0025,0 0.0048,3e-5 0.0072,0 h 0.06046 c 0.567487,0 1.024743,-0.45726 1.024743,-1.02475 V 92.631191 c 0,-0.315418 0.536313,-0.337619 0.532267,0.0041 v 7.167005 c 0,0.510084 0.410262,0.920874 0.920358,0.920874 h 0.0739 c 0.510095,0 0.920874,-0.41078 0.920874,-0.920874 v -8.899199 -0.147794 -0.01292 c 0,-0.0159 -7.49e-4,-0.03181 -0.0016,-0.04754 -4e-5,-7.95e-4 4.9e-5,-0.0019 0,-0.0026 -0.03279,-0.759206 -0.654575,-1.36064 -1.422136,-1.36064 l -3.540869,5.17e-4 z"/>
      <path id="rect9462-4" style="fill:#b71f2e;fill-opacity:1;stroke:none;stroke-width:0.452506;stroke-linecap:round" d="m 86.924809,41.475152 4.45e-4,1.831696 13.887196,10e-7 -1.431948,13.813173 1.821888,0.189314 1.45197,-14.002403 14.0771,-6.1e-5 -6e-5,-1.832041 -13.88719,-2e-6 1.43195,-13.813173 -1.82227,-0.188968 -1.4516,14.002057 z" transform="rotate(42.04077)"/>
    </g>
  </g>
</svg>