<?xml version="1.0" encoding="UTF-8" standalone="yes"?>
<svg width="52.917mm" height="52.917mm" viewBox="0 0 52.917 52.917" version="1.1" id="svg3441" xmlns="http://www.w3.org/2000/svg" xmlns:svg="http://www.w3.org/2000/svg">
  <defs id="defs3438"/>
  <g id="layer1" transform="translate(-198.86407,-67.928596)">
    <rect style="fill:#ffffff;fill-opacity:1;stroke:none;stroke-width:2.01819" id="rect70551" width="52.917" height="52.917" x="198.86407" y="67.928596"/>
    <path id="rect2412" style="display:inline;fill:#000000;fill-opacity:1;stroke:none;stroke-width:1" d="m 225.30733,75.467322 a 4.7986317,4.7986317 0 0 0 -4.79867,4.798674 4.7986317,4.7986317 0 0 0 4.79867,4.798673 4.7986317,4.7986317 0 0 0 4.79868,-4.798673 4.7986317,4.7986317 0 0 0 -4.79868,-4.798674 z m -5.75107,11.603943 c -3.51386,0 -6.34276,2.82889 -6.34276,6.34277 v 2.46134 4.324805 4.45761 c 0,1.2532 1.0092,2.26188 2.26239,2.26188 h 3.96979 v 6.38721 h 12.10882 v -3.65456 c 1.74943,-1.14962 4.85973,-3.36385 5.25963,-3.74912 0.38304,-0.40489 0.61753,-0.95204 0.61753,-1.55598 v -4.14704 -4.324805 -2.46134 c 0,-3.51388 -2.8289,-6.34277 -6.34277,-6.34277 z m -0.70176,4.47776 3.74757,4.98678 -4.06125,3.089224 -0.75292,-2.007124 c -0.93042,-0.0361 -1.89556,0.0193 -2.77554,-0.32918 -0.24263,-0.36394 -0.45968,-0.73073 -0.61185,-1.14515 0.67169,-0.46408 1.33007,-0.88712 2.11718,-1.14463 l 0.047,-0.894 c 0.56671,-0.37781 1.1166,-0.64065 1.80351,-0.76843 l 0.10955,-1.50533 0.047,-0.23513 z m 13.1346,3.56619 c 0.27894,-0.005 0.55552,0.0711 0.55138,0.25012 0.003,1.26741 0.0119,7.953005 0.0119,7.953005 l -4.10879,2.97966 c 0.43997,-2.0632 0.47496,-3.0009 -1.16582,-4.14755 h -7.65276 l -0.59583,-1.22318 c 0,0 4.1454,-3.380155 4.33358,-3.380155 0.18819,0 8.06049,1.066604 8.06049,1.066604 v -3.259234 c 0.006,-0.14706 0.28692,-0.23402 0.56586,-0.23927 z"/>
  </g>
</svg>