<?xml version="1.0" encoding="UTF-8" standalone="yes"?>
<svg width="52.917mm" height="52.917mm" viewBox="0 0 52.917 52.917" version="1.1" id="svg4041" xmlns="http://www.w3.org/2000/svg" xmlns:svg="http://www.w3.org/2000/svg">
  <defs id="defs4038"/>
  <g id="layer1" transform="translate(-4.412468,-16.122145)">
    <rect style="fill:#ffffff;fill-opacity:1;stroke:none;stroke-width:2.01819" id="rect70551" width="52.917" height="52.917" x="4.412468" y="16.122145"/>
    <path id="rect3659" d="m 21.143365,24.883023 2.88303,4.21369 c 0.81728,1.21377 0.93125,1.92938 0.71004,3.23805 l -2.35076,11.931567 -0.26665,0.93121 -0.39895,0.71003 -2.70577,2.79415 -0.66508,1.50792 0.53227,1.64124 8.29406,-4.83433 c 3.2313,-7.38906 8.22622,-9.52095 9.80251,-10.37921 1.70749,-1.38082 1.71276,-4.561527 0.04444,-5.455477 l -2.37867,-1.40302 c -0.79528,-0.51686 -1.11961,-0.91196 -1.48001,-1.61334 l -1.50844,-3.28248 z m 12.75065,22.806357 -7.37526,4.38577 -9.38083,2.882 c -1.62672,0.40962 -2.97916,1.23211 -3.32486,2.31149 l -0.9095,3.00963 h 18.67793 c 2.35033,-1.46027 4.81869,-2.50572 7.51168,-2.42982 l 0.02222,2.42982 h 7.95249 c 0.657481,-3.4958 3.38157,-9.09463 0.408761,-11.83752 -4.666371,1.72861 -9.668791,4.51871 -13.582631,-0.75137 z"/>
  </g>
</svg>