<?xml version="1.0" encoding="UTF-8" standalone="yes"?>
<svg width="52.917mm" height="52.917mm" viewBox="0 0 52.917 52.917" version="1.1" id="svg3695" xmlns="http://www.w3.org/2000/svg" xmlns:svg="http://www.w3.org/2000/svg">
  <defs id="defs3692"/>
  <g id="layer1" transform="translate(-120.14868,-95.714149)">
    <rect style="fill:#ffffff;fill-opacity:1;stroke:none;stroke-width:2.01819" id="rect70551" width="52.917" height="52.917" x="120.14868" y="95.714149"/>
    <path id="rect1831" style="fill:#000000;fill-opacity:1;stroke-width:1.2;stroke-linecap:round" d="m 140.20215,106.5908 c -1.56225,9e-5 -2.82868,1.26653 -2.82877,2.82877 9e-5,1.56224 1.26652,2.82867 2.82877,2.82876 1.56225,-9e-5 2.82868,-1.26652 2.82877,-2.82876 -9e-5,-1.56225 -1.26652,-2.82868 -2.82877,-2.82877 z m 10.94558,4.57181 c -0.36344,0 -0.65577,0.29233 -0.65577,0.65578 0,0.36344 0.29233,0.65629 0.65577,0.65629 h 0.1416 v 8.53849 c -0.007,0.50628 0.11662,0.89058 0.39842,1.28158 l 1.70894,2.37091 v 13.01731 h 0.90072 v -12.96665 l 1.7477,-2.42776 c 0.28181,-0.391 0.40704,-0.77271 0.40049,-1.27899 v -8.53488 h 0.22996 c 0.36345,0 0.65629,-0.29285 0.65629,-0.65629 0,-0.36345 -0.29284,-0.65578 -0.65629,-0.65578 z m 1.04232,1.31207 h 3.35535 v 8.54264 0.004 c 0.005,0.42239 0.006,0.41751 -0.22841,0.74259 l -1.45159,2.01178 -1.44694,-2.00815 c -0.2343,-0.32509 -0.23386,-0.31967 -0.22841,-0.74208 v -0.002 z m -11.67474,0.62373 v 5.2e-4 c -0.23084,-0.005 -0.46581,0.0123 -0.70228,0.0548 -1.89178,0.33995 -3.14132,2.13692 -2.80138,4.0287 l 1.43763,7.99899 c 0.35348,1.90144 1.41539,3.03052 3.56258,3.01429 h 6.07456 l 0.59997,7.93802 c 0.0719,0.96632 0.89976,1.68707 1.85673,1.61592 0.95698,-0.0712 1.66968,-0.90644 1.59783,-1.87276 l -0.80305,-10.7983 c -0.0717,-0.96405 -0.89589,-1.68319 -1.85001,-1.61592 -0.13404,-0.0327 -0.2742,-0.0506 -0.41858,-0.0506 h -3.88814 l -0.82527,-4.59145 4.91029,-0.002 c 0.58883,-0.004 1.39963,-0.48025 1.38442,-1.38389 -0.0129,-0.76666 -0.54922,-1.38441 -1.38442,-1.38441 h -4.13618 c -1.27799,-1.13347 -2.38769,-2.9352 -4.6147,-2.95176 z m -4.63279,16.24552 v 1.70326 h 10.25105 v -1.70326 z"/>
  </g>
</svg>