<?xml version="1.0" encoding="UTF-8" standalone="yes"?>
<svg width="52.917mm" height="52.917mm" viewBox="0 0 52.917 52.917" version="1.1" id="svg12780" xmlns="http://www.w3.org/2000/svg" xmlns:svg="http://www.w3.org/2000/svg">
  <defs id="defs12777"/>
  <g id="layer1" transform="translate(-303.92389,-212.03629)">
    <rect style="fill:#ffffff;fill-opacity:1;stroke:none;stroke-width:2.01819" id="rect70551" width="52.917" height="52.917" x="303.92389" y="212.03629"/>
    <path id="rect12583" style="display:inline;fill:#000000;stroke-width:1.7" d="m 326.45938,221.85712 c -0.10818,-0.003 -0.25041,0.0337 -0.41237,0.12041 -4.12684,2.25514 -2.72386,5.35379 -0.54726,8.55245 1.1978,2.16001 1.79758,3.82904 -0.39532,5.75985 -0.53932,0.48729 -0.21829,0.81278 0.3576,0.50437 4.12618,-2.25478 2.72429,-5.3528 0.54829,-8.5509 -1.19837,-2.16075 -1.79861,-3.83064 0.3948,-5.76193 0.38763,-0.35024 0.33074,-0.6165 0.0543,-0.62425 z m 4.62763,0 c -0.10818,-0.003 -0.25041,0.0337 -0.41238,0.12041 -4.12684,2.25514 -2.72386,5.35379 -0.54725,8.55245 1.1978,2.16001 1.79757,3.82904 -0.39532,5.75985 -0.53932,0.48729 -0.21829,0.81278 0.3576,0.50437 4.12617,-2.25478 2.72429,-5.3528 0.54828,-8.5509 -1.19836,-2.16075 -1.7986,-3.83064 0.39481,-5.76193 0.38763,-0.35024 0.33074,-0.6165 0.0543,-0.62425 z m 4.62814,0 c -0.10818,-0.003 -0.25041,0.0337 -0.41237,0.12041 -4.12684,2.25514 -2.72387,5.35379 -0.54726,8.55245 1.1978,2.16001 1.79757,3.82904 -0.39532,5.75985 -0.53932,0.48729 -0.21829,0.81278 0.3576,0.50437 4.12617,-2.25478 2.72429,-5.3528 0.54828,-8.5509 -1.19836,-2.16075 -1.7986,-3.83064 0.39481,-5.76193 0.38763,-0.35024 0.33074,-0.6165 0.0543,-0.62425 z m -13.90819,15.98456 a 1.984375,1.984375 0 0 0 -1.98438,1.98437 1.984375,1.984375 0 0 0 1.98438,1.98438 1.984375,1.984375 0 0 0 1.98437,-1.98438 1.984375,1.984375 0 0 0 -1.98437,-1.98437 z m 17.15192,0 a 1.984375,1.984375 0 0 0 -1.98437,1.98437 1.984375,1.984375 0 0 0 1.98437,1.98438 1.984375,1.984375 0 0 0 1.98438,-1.98438 1.984375,1.984375 0 0 0 -1.98438,-1.98437 z m -8.5757,2.07532 c -1.10438,-2e-4 -2.00031,0.895 -2.0004,1.99936 9e-5,1.10438 0.89602,1.99957 2.0004,1.99937 1.10418,-8e-5 1.99876,-0.89519 1.99884,-1.99937 -8e-5,-1.10416 -0.89466,-1.99928 -1.99884,-1.99936 z m -10.87996,2.66237 c -0.94577,0 -1.70739,0.76161 -1.70739,1.70739 v 3.82819 c 0.51863,-0.0568 0.8155,-0.26779 1.23817,-0.62373 1.00896,0.84481 1.82094,0.77644 2.71353,0 l 0.001,5.1e-4 c 3.4e-4,-2.8e-4 2e-4,-7.7e-4 5.1e-4,-10e-4 v -5.2e-4 c 0.99762,0.83597 1.673,0.78333 2.71405,0 0.45324,0.38167 0.76176,0.59666 1.35444,0.63356 v -3.83698 c 0,-0.94578 -0.76162,-1.70739 -1.70739,-1.70739 z m 17.15141,0 c -0.94577,0 -1.70739,0.76161 -1.70739,1.70739 v 3.82819 c 0.51863,-0.0568 0.81498,-0.26779 1.23765,-0.62373 1.00896,0.84481 1.82146,0.77645 2.71405,0 l 5.1e-4,5.1e-4 c 3.5e-4,-2.8e-4 1.8e-4,-7.7e-4 5.2e-4,-10e-4 v -5.2e-4 c 0.99762,0.83597 1.673,0.78333 2.71405,0 0.45324,0.38167 0.76176,0.59666 1.35444,0.63356 v -3.83698 c 0,-0.94578 -0.76162,-1.70739 -1.70739,-1.70739 z m 6.6151,0.37724 c 0.41568,0.3552 0.6811,0.89743 0.6811,1.50792 v 0.42943 c 1.42758,0.80233 2.18057,1.71662 2.18074,2.6479 -7e-4,2.88056 -7.05146,5.21562 -15.74891,5.2157 -8.69765,10e-6 -15.74873,-2.33507 -15.74943,-5.2157 0.003,-0.9297 0.75558,-1.84228 2.18075,-2.64325 v -0.43408 c 0,-0.60776 0.26294,-1.14798 0.67541,-1.50327 -3.00024,1.3393 -4.6674,3.09632 -4.66897,4.92063 -1e-5,4.0045 7.86294,7.25078 17.56224,7.25072 9.6991,-5e-5 17.56174,-3.2463 17.56172,-7.25072 -2.7e-4,-1.82623 -1.6697,-3.58516 -4.67465,-4.92528 z m -14.58257,1.75442 c -0.94578,0 -1.70688,0.76109 -1.70688,1.70687 v 1.56424 c 0.23771,-0.10733 0.4457,-0.26815 0.69918,-0.48162 1.00897,0.84481 1.82146,0.77644 2.71405,0 l 5.2e-4,5.2e-4 c 3.5e-4,-2.8e-4 1.7e-4,-8e-4 5.2e-4,-10e-4 v -5.1e-4 c 0.99762,0.83595 1.67299,0.78333 2.71404,0 0.24512,0.20641 0.44777,0.36403 0.67593,0.47128 v -1.55287 c 0,-0.94578 -0.76058,-1.70687 -1.70635,-1.70687 z"/>
  </g>
</svg>