<?xml version="1.0" encoding="UTF-8" standalone="yes"?>
<svg width="52.917mm" height="52.917mm" viewBox="0 0 52.917 52.917" version="1.1" id="svg11785" xmlns="http://www.w3.org/2000/svg" xmlns:svg="http://www.w3.org/2000/svg">
  <defs id="defs11782"/>
  <g id="layer1" transform="translate(-189.64436,-71.410072)">
    <rect style="fill:#ffffff;fill-opacity:1;stroke:none;stroke-width:2.01819" id="rect70551" width="52.917" height="52.917" x="189.64436" y="71.410072"/>
    <path id="path11292" style="display:inline;fill:#000000;fill-opacity:1;stroke:none;stroke-width:0.982882;stroke-opacity:1" d="m 216.28066,81.72563 c -0.50381,0 -0.90951,0.40623 -0.90951,0.91002 v 1.1653 h -3.69951 V 94.8747 h 11.34504 V 83.80095 h -3.69952 v -1.1653 c 0,-0.50379 -0.4057,-0.91002 -0.9095,-0.91002 z m 0.39894,0.70952 h 1.32912 c 0.31486,0 0.56844,0.25407 0.56844,0.56895 v 0.79685 h -2.46548 V 83.0041 c 0,-0.31488 0.25304,-0.56895 0.56792,-0.56895 z m -6.33295,1.3658 c -0.67625,0 -1.22059,0.54435 -1.22059,1.2206 v 8.63203 c 0,0.67626 0.54434,1.22112 1.22059,1.22112 h 0.21498 V 83.80095 Z m 13.77952,0 V 94.8747 h 0.21446 c 0.67624,0 1.2206,-0.54486 1.2206,-1.22112 v -8.63203 c 0,-0.67625 -0.54436,-1.2206 -1.2206,-1.2206 z m -16.93798,12.90619 c -1.9436,0.0507 -2.26689,0.97063 -2.88871,2.32854 l -3.3967,7.41764 v 4.80901 h 4.09743 a 2.450125,2.450125 0 0 0 -0.0196,0.29869 2.450125,2.450125 0 0 0 2.44998,2.45049 2.450125,2.450125 0 0 0 2.44998,-2.45049 2.450125,2.450125 0 0 0 -0.0186,-0.29869 h 13.33924 a 2.450125,2.450125 0 0 0 -0.0196,0.29869 2.450125,2.450125 0 0 0 2.44998,2.45049 2.450125,2.450125 0 0 0 2.44998,-2.45049 2.450125,2.450125 0 0 0 -0.0186,-0.29869 h 3.23908 c -0.0121,-3.90624 0,-7.83504 0,-11.72642 0.0354,-1.97364 -0.99656,-2.82877 -2.82877,-2.82877 z m 1.45727,1.83813 c 0.20404,0.002 0.20703,0.0337 0.20878,0.25684 v 4.69377 c -0.003,0.21289 -0.0317,0.24653 -0.28267,0.24753 h -4.2075 l 2.22777,-5.19762 h 1.95337 c 0.0379,-4.1e-4 0.0711,-8.2e-4 0.10025,-5.2e-4 z"/>
  </g>
</svg>