<?xml version="1.0" encoding="UTF-8" standalone="yes"?>
<svg width="52.917mm" height="52.917mm" viewBox="0 0 52.917 52.917" version="1.1" id="svg3988" xmlns="http://www.w3.org/2000/svg" xmlns:svg="http://www.w3.org/2000/svg">
  <defs id="defs3985"/>
  <g id="layer1" transform="translate(-86.766296,-112.92157)">
    <rect style="fill:#ffffff;fill-opacity:1;stroke:none;stroke-width:2.01819" id="rect70551" width="52.917" height="52.917" x="86.766296" y="112.92157"/>
    <path id="rect3861" style="fill:#000000;stroke-width:4" d="m 119.71895,122.23925 c 1.18723,1.04154 1.39558,2.37208 1.82521,3.83284 h 8.45634 c 0.13641,-0.80806 0.52063,-1.49757 0.88211,-2.22054 z m 1.97766,5.28081 -1.63504,1.46245 h 1.27951 c -0.0199,0.1641 -0.0305,0.32923 -0.0315,0.49454 -2.2e-4,2.38784 1.93542,4.32371 4.32325,4.32377 2.20489,-9.3e-4 4.32566,-1.92597 4.32274,-4.32325 v -1.95699 z m -26.646953,5.82187 c -0.60667,0 -1.09503,0.48835 -1.09503,1.09502 v 17.46044 c 0,0.60666 0.48836,1.09502 1.09503,1.09502 0.0729,0 0.14403,-0.007 0.2129,-0.0207 v 0.0207 h 2.12907 v 2.09134 h 0.0212 c -0.0135,0.0689 -0.0212,0.13997 -0.0212,0.21291 0,0.60667 0.48836,1.09502 1.09503,1.09502 h 17.460433 c 0.60667,0 1.09502,-0.48835 1.09502,-1.09502 0,-0.0729 -0.007,-0.14404 -0.0207,-0.21291 h 0.0207 v -2.19004 H 97.452607 v -19.55178 h -2.19005 v 0.0207 c -0.0689,-0.0135 -0.13996,-0.0207 -0.2129,-0.0207 z m 25.886273,1.33842 c -0.98901,0.0209 -1.53426,0.76092 -2.12907,1.82521 l -7.51375,14.9965 h 3.61993 l 5.74901,-10.12806 v 15.14688 h 11.83287 v -19.95434 c 0.008,-0.89149 -1.07578,-1.86946 -2.00763,-1.8557 h -2.64635 l -1.45986,4.25865 h -0.39584 l -1.67277,-4.28914 z"/>
  </g>
</svg>