<?xml version="1.0" encoding="UTF-8" standalone="yes"?>
<svg width="52.917mm" height="52.917mm" viewBox="0 0 52.917 52.917" version="1.1" id="svg1565" xmlns="http://www.w3.org/2000/svg" xmlns:svg="http://www.w3.org/2000/svg">
  <defs id="defs1562"/>
  <g id="layer1" transform="translate(-68.87059,-89.863632)">
    <rect style="fill:#ffffff;fill-opacity:1;stroke:none;stroke-width:2.01819" id="rect70551" width="52.917" height="52.917" x="68.87059" y="89.863632"/>
    <path id="path855" style="color:#000000;fill:#000000;fill-opacity:1" d="m 97.664413,97.660917 c -9.038932,0.06423 -12.9888,5.762823 -14.216186,11.797213 2.527782,2.82931 5.21045,4.91923 8.005196,6.23736 1.556328,-2.27436 2.519131,-4.6572 3.594613,-7.20526 -0.847914,3.25929 -1.697495,5.57458 -2.71508,7.59128 1.493827,0.61326 3.017598,1.00929 4.565096,1.18236 1.579146,-1.90146 2.689475,-4.36111 5.085478,-7.98299 -1.17115,3.04771 -2.658292,5.54301 -4.200778,8.05792 0.258805,0.0147 0.518238,0.0235 0.778248,0.0258 l -0.09974,2.08824 c 1.501465,-0.63763 2.70481,-1.83181 3.76669,-3.03961 a 1.406865,1.406865 0 0 0 1.40612,1.38493 1.406865,1.406865 0 0 0 1.40663,-1.40715 1.406865,1.406865 0 0 0 -1.40663,-1.40663 1.406865,1.406865 0 0 0 -0.1943,0.0139 c 2.11148,-2.45431 3.85249,-3.95558 6.81767,1.0356 0.0758,-0.28276 0.14244,-0.56233 0.20412,-0.84026 h 0.16898 c 0.14791,0.006 0.30997,0.004 0.45114,0.01 l 0.19172,0.01 0.0801,-0.17364 c 0.13001,-0.28033 0.268,-0.43364 0.38654,-0.50798 0.11853,-0.0743 0.22028,-0.0871 0.3514,-0.0584 0.26222,0.0575 0.62135,0.35194 0.8909,0.74621 l 0.0114,0.0176 0.014,0.0134 c 0.47932,0.52334 0.43388,1.03826 0.33383,1.74046 -0.52531,3.32913 -2.02074,4.81881 -3.28714,6.04666 l -0.002,0.002 h -0.002 c -0.0896,0.0897 -0.25067,0.20004 -0.38086,0.24443 -0.13018,0.0444 -0.17387,0.0337 -0.2036,0.004 -0.2091,-0.21428 -0.39966,-0.3714 -0.59945,-0.47026 -0.19978,-0.0989 -0.43794,-0.13365 -0.64233,-0.0372 -0.2044,0.0964 -0.33209,0.28296 -0.4222,0.50177 -0.0901,0.2188 -0.14877,0.48622 -0.19327,0.81442 l -0.002,0.002 v 0.004 c -0.24892,2.22443 -1.17587,4.00303 -2.45308,5.9433 -1.06793,1.15199 -2.06693,2.25211 -3.14813,3.05253 -1.08733,0.80497 -2.246372,1.31258 -3.679878,1.31258 h -0.558106 v -5.2e-4 h -1.720825 c -1.433507,0 -2.590482,-0.50709 -3.677812,-1.31206 -1.081203,-0.80043 -2.082778,-1.90106 -3.150712,-3.05305 -1.277209,-1.94025 -2.204161,-3.71885 -2.45308,-5.9433 v -0.004 -0.002 c -0.0445,-0.3282 -0.105226,-0.59562 -0.195337,-0.81442 -0.09011,-0.21881 -0.21728,-0.40534 -0.421679,-0.50178 -0.2044,-0.0964 -0.443074,-0.0616 -0.642855,0.0372 -0.199378,0.0987 -0.388778,0.25714 -0.59738,0.47077 -0.02972,0.0302 -0.07497,0.0404 -0.205155,-0.004 -0.130189,-0.0444 -0.29123,-0.15476 -0.380855,-0.24443 h -0.0021 v -0.002 c -1.266403,-1.22786 -2.761834,-2.71807 -3.287138,-6.04717 -0.10005,-0.70223 -0.144969,-1.21661 0.334346,-1.73995 l 0.01344,-0.014 0.01189,-0.0176 c 0.259818,-0.38004 0.600279,-0.66674 0.859379,-0.73846 l -0.07597,-0.56947 c -0.006,0.001 -0.01212,0.002 -0.01809,0.004 -0.5006,0.10973 -0.904876,0.51057 -1.222665,0.97048 -0.610507,0.6829 -0.571581,1.46828 -0.468705,2.18953 v 0.002 0.002 c 0.547251,3.46822 2.178909,5.13099 3.451469,6.36499 3.57e-4,3.5e-4 0.0017,-3.6e-4 0.0021,0 8.75e-4,8.4e-4 6.5e-4,0.003 0.0015,0.004 0.153359,0.15249 0.358946,0.29525 0.597896,0.37673 0.240774,0.0821 0.571148,0.0932 0.796851,-0.13643 0.18343,-0.18798 0.339297,-0.30816 0.443384,-0.35967 0.104087,-0.0515 0.127565,-0.0399 0.146244,-0.031 0.01868,0.009 0.07483,0.0553 0.134876,0.20102 0.06005,0.14581 0.117517,0.37434 0.158129,0.67386 0.264663,2.35242 1.253568,4.23259 2.554883,6.20685 l 0.01189,0.0196 0.01757,0.0176 c 1.071843,1.15597 2.091216,2.28768 3.243729,3.1409 1.152514,0.85319 2.449384,1.42575 4.01991,1.42575 h 0.558622 v 5.1e-4 h 1.720309 c 1.570526,0 2.867395,-0.57307 4.019905,-1.42626 1.15252,-0.85322 2.17396,-1.98441 3.2458,-3.14038 l 0.0155,-0.0176 0.0139,-0.0196 c 1.30251,-1.97609 2.29079,-3.85762 2.55437,-6.21306 v 0.006 c 0.0406,-0.29952 0.0965,-0.52806 0.15658,-0.67387 0.06,-0.14581 0.11774,-0.19221 0.13642,-0.20102 0.0187,-0.009 0.0406,-0.0205 0.1447,0.031 0.10408,0.0515 0.25995,0.17169 0.44338,0.35967 h 0.002 c 0.2257,0.22966 0.55607,0.21851 0.79685,0.13642 0.23986,-0.0818 0.44384,-0.22356 0.59738,-0.37672 l 0.002,-0.002 c 1.27281,-1.23413 2.90397,-2.89728 3.45147,-6.36705 v -0.002 -0.002 c 0.10287,-0.72125 0.14335,-1.50663 -0.46716,-2.18953 -0.31779,-0.45992 -0.72361,-0.86076 -1.22421,-0.97049 v -5.1e-4 c -0.0792,-0.0174 -0.16123,-0.0256 -0.24391,-0.0243 -0.18191,0.003 -0.36718,0.0526 -0.53382,0.15709 -0.18817,0.11801 -0.33016,0.34525 -0.46871,0.58188 -0.11589,-0.002 -0.23764,-0.004 -0.32607,-0.008 h -0.006 -0.0563 C 112.5276,104.36467 104.91459,97.585104 97.663773,97.660917 Z m -18.869132,1.616956 -0.150895,0.150895 -0.14211,-0.03979 -0.07131,0.253215 -0.03979,0.03979 0.02222,0.02274 -1.721858,6.123657 0.55087,0.15606 1.457793,-5.18366 c 0.962688,4.74082 2.742184,8.75415 5.528861,11.82823 2.957714,3.26274 7.045137,5.45431 12.427665,6.34018 l 0.0155,0.002 0.449068,0.0253 0.03307,-0.57051 -0.415995,-0.0233 c -5.27336,-0.87018 -9.220202,-2.9974 -12.085567,-6.15828 -2.733277,-3.01516 -4.485595,-6.98319 -5.425509,-11.72229 l 3.882451,3.90003 0.202571,-0.20206 0.203605,-0.20257 z m 4.062801,13.881337 c 0.126669,3.09579 1.386475,6.1354 2.030367,8.71523 1.910432,-1.22473 3.061765,-2.86426 4.265373,-4.13773 -2.315125,-1.14995 -4.3195,-2.62719 -6.29574,-4.5775 z m 7.949386,5.57175 c -0.687928,1.07028 -1.452153,2.1392 -2.329574,3.3259 2.433945,-0.75843 4.470811,-1.60419 5.820317,-2.42156 -1.083559,-0.23754 -2.442385,-0.47069 -3.490743,-0.90434 z m 1.714107,8.3044 -0.05684,0.56844 c 3.639717,0.36657 6.808224,0.46146 10.343555,0.0295 l -0.0682,-0.56844 c -3.484541,0.4258 -6.601835,0.33479 -10.218498,-0.0295 z"/>
  </g>
</svg>