<?xml version="1.0" encoding="UTF-8" standalone="yes"?>
<svg width="52.917mm" height="52.917mm" viewBox="0 0 52.917 52.917" version="1.1" id="svg6426" xmlns="http://www.w3.org/2000/svg" xmlns:svg="http://www.w3.org/2000/svg">
  <defs id="defs6423"/>
  <g id="layer1" transform="translate(-170.83182,-91.347954)">
    <rect style="fill:#ffffff;fill-opacity:1;stroke:none;stroke-width:2.01819" id="rect70551" width="52.917" height="52.917" x="170.83182" y="91.347954"/>
    <path id="path5774" style="display:inline;fill:#000000;fill-opacity:1;stroke:none;stroke-width:0.264583px;stroke-linecap:butt;stroke-linejoin:miter;stroke-opacity:1" d="m 186.47135,106.50234 v 6.76393 6.96391 1.13068 c 0.006,0.556 1.09234,2.80768 3.50366,2.81689 h 14.23789 c 2.29794,0.003 3.49628,-1.89732 3.50418,-2.81689 v -1.13068 -3.05769 h 1.43092 c 2.94028,0 5.3361,-2.39378 5.3361,-5.33404 0,-2.94028 -2.39582,-5.33559 -5.3361,-5.33559 h -1.43092 v -5.2e-4 z m 21.24573,1.79937 h 1.43092 c 1.97421,0 3.53518,1.56252 3.53518,3.53674 0,1.97423 -1.56097,3.53518 -3.53518,3.53518 h -1.43092 v -2.10736 z m -9.65729,0.894 c 1.01285,0 1.91335,0.19678 2.70112,0.59067 0.78778,0.39389 1.38849,0.95457 1.80248,1.68206 0.418,0.72347 0.62683,1.51544 0.62683,2.37557 0,1.02491 -0.31517,1.95119 -0.94619,2.77916 -0.7918,1.04501 -1.80684,1.56734 -3.04478,1.56734 -0.3336,0 -0.58463,-0.0581 -0.75344,-0.17466 -0.16881,-0.11655 -0.28169,-0.28755 -0.33796,-0.51263 -0.47428,0.45819 -1.02073,0.68729 -1.6397,0.68729 -0.66719,0 -1.22186,-0.2291 -1.66398,-0.68729 -0.4381,-0.46222 -0.65732,-1.07499 -0.65732,-1.83865 0,-0.94453 0.26527,-1.80667 0.79582,-2.58641 0.64308,-0.94854 1.46738,-1.42265 2.4722,-1.42265 0.71543,0 1.24379,0.27297 1.58543,0.81959 l 0.15089,-0.66921 h 1.59164 l -0.91054,4.32273 c -0.0563,0.27331 -0.0842,0.45033 -0.0842,0.53072 0,0.10048 0.0219,0.17668 0.0662,0.22893 0.0482,0.0483 0.10468,0.0723 0.16898,0.0723 0.19293,0 0.44178,-0.11621 0.74724,-0.34933 0.40997,-0.30547 0.74156,-0.71543 0.99477,-1.2299 0.25322,-0.51447 0.37983,-1.04719 0.37983,-1.59783 0,-0.98874 -0.35738,-1.81471 -1.07281,-2.47789 -0.71543,-0.6672 -1.71457,-1.00097 -2.99671,-1.00097 -1.08923,0 -2.39004,0.20757 -3.14968,0.65371 -0.75563,0.44212 -1.32619,1.06694 -1.71204,1.87482 -0.38183,0.80385 -0.57258,1.64187 -0.57258,2.51406 0,0.84806 0.21268,1.61976 0.63872,2.3151 0.43007,0.69533 1.0313,1.20177 1.80299,1.51929 0.77572,0.32154 1.66198,0.48266 2.65876,0.48266 0.9606,0 1.78657,-0.13483 2.47788,-0.40411 0.55973,-0.19273 0.90332,-0.544 1.20406,-1.04438 h 1.41749 c -0.40193,0.8159 -0.68627,1.29943 -1.51826,1.76165 -0.95256,0.53053 -2.45813,0.79581 -3.8287,0.79581 -1.32636,0 -2.12821,-0.22525 -3.09284,-0.67541 -0.96462,-0.44614 -1.68207,-1.10496 -2.15232,-1.97714 -0.47026,-0.8762 -0.70538,-1.82878 -0.70538,-2.85771 0,-1.12941 0.26745,-2.18063 0.80201,-3.15329 0.53457,-0.97668 1.26625,-1.70785 2.1947,-2.19418 0.92845,-0.49036 2.36575,-0.71986 3.55947,-0.71986 z m -0.50643,3.54501 c -0.34566,0 -0.66519,0.1343 -0.9586,0.40359 -0.29341,0.26527 -0.5143,0.6451 -0.66301,1.13947 -0.14871,0.49437 -0.22324,0.93281 -0.22324,1.31464 0,0.51045 0.10249,0.88591 0.30747,1.12707 0.20901,0.24115 0.46607,0.36173 0.77153,0.36173 0.2291,0 0.44448,-0.0559 0.64544,-0.16846 0.15274,-0.0804 0.30346,-0.20699 0.45217,-0.37982 0.21302,-0.24517 0.39556,-0.60307 0.54829,-1.07332 0.15675,-0.47026 0.23513,-0.9082 0.23513,-1.31414 0,-0.45418 -0.10634,-0.80218 -0.31936,-1.04334 -0.20901,-0.24517 -0.47428,-0.36742 -0.79582,-0.36742 z m -18.0542,12.95114 c 0.0269,1.03335 2.7562,3.44974 5.61413,3.4184 h 7.48016 9.39375 7.48016 c 2.85793,0.0313 5.58726,-2.38505 5.61412,-3.4184 h -13.59606 -8.39019 z"/>
  </g>
</svg>