<?xml version="1.0" encoding="UTF-8" standalone="yes"?>
<svg width="52.917mm" height="52.917mm" viewBox="0 0 52.917 52.917" version="1.1" id="svg1469" xmlns="http://www.w3.org/2000/svg" xmlns:svg="http://www.w3.org/2000/svg">
  <defs id="defs1466"/>
  <g id="layer1" transform="translate(-183.60602,-181.12215)">
    <rect style="fill:#ffffff;fill-opacity:1;stroke:none;stroke-width:2.01819" id="rect70551" width="52.917" height="52.917" x="183.60602" y="181.12215"/>
    <path id="path1440" style="color:#000000;fill:#000000;fill-opacity:1;-inkscape-stroke:none" d="m 199.91456,192.41516 v 2.16318 h 3.16105 v 6.14846 c 0.003,2.68806 2.8647,5.88691 4.97437,5.9986 v 1.54254 c -2.10967,0.11169 -4.97157,3.31003 -4.97437,5.99809 v 6.31641 h -3.16105 v 2.16421 h 20.29954 v -2.16421 h -3.16105 v -6.31641 c -0.003,-2.68806 -2.86471,-5.8864 -4.97437,-5.99809 v -1.54254 c 2.10966,-0.11169 4.97157,-3.31054 4.97437,-5.9986 v -6.14846 h 3.16105 v -2.16318 z m 4.12585,3.07682 h 4.5129 3.02204 4.5129 v 5.24257 0.004 c -0.0531,2.08105 -2.43928,4.94908 -4.97437,5.12372 v 0.29766 0.0724 0.12144 2.28462 0.12144 0.0723 0.29766 c 2.53509,0.17465 4.92127,3.04268 4.97437,5.12372 v 0.004 5.24206 h -4.5129 -3.02204 -4.5129 v -5.24206 -0.004 c 0.0531,-2.08103 2.43927,-4.94906 4.97437,-5.12372 v -0.29766 -0.0723 -0.12144 -2.28462 -0.12144 -0.0724 -0.29766 c -2.5351,-0.17465 -4.92127,-3.04268 -4.97437,-5.12372 v -0.004 z m 1.99729,2.64222 c -0.70878,0.002 -0.9647,0.7041 -0.95756,1.64486 0.0629,2.11453 1.81695,4.13431 3.47162,4.98109 0.53464,0.2736 1.05298,0.25522 1.50637,0.24753 0.42303,0.003 0.90815,0.0483 1.39785,-0.17725 1.75027,-0.80616 3.63719,-2.9019 3.59254,-5.05137 0.007,-0.94076 -0.24878,-1.64286 -0.95756,-1.64486 h -3.52899 -0.99528 z m 4.01268,14.42806 c -0.0917,8.8e-4 -0.18203,0.0332 -0.29404,0.0961 -1.77953,0.2695 -4.50573,2.68457 -4.59817,3.57136 l -0.0331,2.32854 h 4.02921 1.82004 3.9362 l -0.0331,-2.32854 c -0.0928,-0.89009 -2.75516,-3.32003 -4.52531,-3.57446 -0.11673,-0.0634 -0.2101,-0.0939 -0.30179,-0.093 z"/>
  </g>
</svg>