<?xml version="1.0" encoding="UTF-8" standalone="yes"?>
<svg width="52.917mm" height="52.917mm" viewBox="0 0 52.917 52.917" version="1.1" id="svg2438" xmlns="http://www.w3.org/2000/svg" xmlns:svg="http://www.w3.org/2000/svg">
  <defs id="defs2435"/>
  <g id="layer1" transform="translate(-77.154404,-164.79956)">
    <rect style="fill:#ffffff;fill-opacity:1;stroke:none;stroke-width:2.01819" id="rect70551" width="52.917" height="52.917" x="77.154404" y="164.79956"/>
    <path id="path1518" style="fill:#000000;fill-opacity:1;stroke:none;stroke-width:0.264583px;stroke-linecap:butt;stroke-linejoin:miter;stroke-opacity:1" d="m 86.30204,172.60956 c 0.974632,3.26453 0.95177,4.60727 0.977718,7.64087 0.20639,-0.007 0.397549,-0.0715 0.591179,-0.17053 -0.405772,0.20845 -0.787198,0.27207 -1.113627,0.0879 -0.34861,-0.19674 -0.46435,-0.24668 -0.58136,-0.28474 v 0.42633 c 0.04864,0.0215 0.097,0.0452 0.468705,0.25529 0.371704,0.21014 0.996992,0.10359 1.506368,-0.18035 l -5.17e-4,-0.001 c 0.583712,-0.30468 1.046854,-0.28048 1.403015,-0.0822 0.356161,0.19826 0.611918,0.32148 0.915707,0.3545 0.298796,0.0325 0.638273,-0.0337 1.001489,-0.26407 0.594873,-0.23715 1.121441,-0.29504 1.620055,-0.007 l 0.0015,0.002 c 0.687161,0.38699 1.305911,0.28555 1.81281,0.007 v 5.1e-4 c 0.588102,-0.30982 1.053659,-0.28698 1.411283,-0.0879 0.357624,0.1991 0.612951,0.32096 0.91674,0.35399 0.29914,0.0325 0.638837,-0.0341 1.002523,-0.2651 0.59443,-0.23674 1.120192,-0.29322 1.618506,-0.005 h 0.0021 v 0.002 c 0.693216,0.39041 1.316866,0.28394 1.826246,0 l -5.2e-4,-10e-4 c 0.58373,-0.3047 1.04892,-0.2804 1.40508,-0.0822 0.35617,0.19828 0.61192,0.31993 0.91571,0.35295 0.25649,0.0279 0.54126,-0.0177 0.84646,-0.17674 v -0.45733 c -0.004,0.002 -0.008,0.003 -0.0124,0.005 l -0.0176,0.008 -0.016,0.0103 c -0.30828,0.19974 -0.53812,0.23883 -0.75758,0.21498 -0.21403,-0.0233 -0.42604,-0.11693 -0.65835,-0.22066 -0.27936,-0.1708 -0.58311,-0.26037 -0.90227,-0.26355 v -5.2e-4 c -0.32151,-0.003 -0.65747,0.0822 -0.99788,0.26148 l 5.2e-4,0.001 c -0.43666,0.2431 -0.84846,0.32925 -1.43402,-5.2e-4 l 0.002,0.002 c -0.633624,-0.36647 -1.325507,-0.28029 -1.827279,-0.0382 -0.501772,0.24207 -0.732421,0.28121 -0.95188,0.25735 -0.213901,-0.0233 -0.423729,-0.11701 -0.655774,-0.22066 -0.279488,-0.17097 -0.585534,-0.2609 -0.904854,-0.26407 v -5.2e-4 c -0.319035,-0.003 -0.652395,0.0814 -0.99012,0.25787 -0.0021,10e-4 -0.0041,0.002 -0.0062,0.004 -4.81e-4,2.6e-4 -10e-4,2.6e-4 -0.0015,5.1e-4 -0.259611,0.1437 -0.510754,0.23052 -0.7953,0.20774 -0.05744,-0.005 -0.11623,-0.0139 -0.176734,-0.0279 -0.04037,-0.009 -0.08152,-0.0207 -0.123506,-0.0346 -0.01764,-0.006 -0.03579,-0.0119 -0.05374,-0.0186 0.01803,0.007 0.03602,0.0127 0.05374,0.0186 0.04196,0.0139 0.08316,0.0253 0.123506,0.0346 0.06052,0.014 0.119278,0.0234 0.176734,0.0279 0.114912,0.009 0.224459,1e-5 0.331246,-0.0233 0.02661,-2.32658 0.117507,-3.71104 0.968933,-6.56291 -1.626631,2.35794 -2.075924,3.9962 -2.17041,6.25905 0.08003,0.0318 0.159306,0.0706 0.237711,0.11576 l 0.0021,0.002 c -0.310815,-0.17977 -0.66245,-0.24978 -0.999421,-0.2465 0.07437,-1.75434 0.293516,-3.0293 0.971516,-5.30045 -1.424605,2.06524 -1.923258,3.57018 -2.042768,5.57072 -0.387668,0.17808 -0.510293,0.21688 -0.708484,0.19534 -0.09827,-0.0106 -0.195423,-0.0368 -0.294556,-0.0713 -0.01952,-0.007 -0.03924,-0.0137 -0.05891,-0.0212 -0.0197,-0.007 -0.03954,-0.0152 -0.05943,-0.0233 -0.07936,-0.0321 -0.16051,-0.0679 -0.244429,-0.10542 -0.0349,-0.0213 -0.06973,-0.0412 -0.10542,-0.0599 -0.03569,-0.0188 -0.07209,-0.0365 -0.108521,-0.0527 -0.03422,-0.0152 -0.06852,-0.0289 -0.103353,-0.0419 0.03475,0.0129 0.06921,0.0267 0.103353,0.0419 0.03658,0.0162 0.07269,0.0339 0.108521,0.0527 0.03549,0.0186 0.07071,0.0382 0.10542,0.0594 0.08397,0.0375 0.164989,0.0739 0.244429,0.10594 0.01986,0.008 0.03976,0.0158 0.05943,0.0233 0.01967,0.007 0.03939,0.0144 0.05891,0.0212 0.03904,0.0136 0.07762,0.0257 0.116272,0.0362 0.0074,-2.65785 -0.376008,-4.32331 -2.074292,-6.78512 0.807729,2.7055 0.965491,3.99411 1.001489,6.36705 0.0047,9e-4 0.0093,0.002 0.01395,0.003 -0.105891,-0.0213 -0.213856,-0.0335 -0.323494,-0.0346 v -5.2e-4 c -0.149909,-0.001 -0.303074,0.0172 -0.45837,0.0548 -0.01495,-2.79097 -0.344153,-4.54015 -2.191598,-7.21816 z m 3.022038,7.20886 c 0.03065,0.007 0.0612,0.0145 0.09147,0.0232 -0.03023,-0.009 -0.06085,-0.0161 -0.09147,-0.0232 z m 0.09457,0.0243 c 0.03548,0.0103 0.07051,0.022 0.10542,0.0346 -0.03476,-0.0126 -0.0701,-0.0243 -0.10542,-0.0346 z m -1.23145,0.0837 c -0.03258,0.0131 -0.06498,0.0265 -0.09767,0.0413 0.03264,-0.0147 0.06513,-0.0283 0.09767,-0.0413 z m -0.120406,0.0522 c -0.0376,0.0176 -0.07546,0.0359 -0.113171,0.0558 0.03778,-0.0199 0.0755,-0.0383 0.113171,-0.0558 z m 5.222936,0.0579 c 0.01685,0.009 0.03304,0.0186 0.04961,0.0274 -0.01589,-0.008 -0.03139,-0.0163 -0.04754,-0.0253 z m 0.08217,0.0439 c 0.01677,0.009 0.03363,0.0169 0.05013,0.0248 -0.01658,-0.008 -0.03326,-0.0162 -0.05013,-0.0248 z m 0.121439,0.0574 c 0.0151,0.006 0.03008,0.0122 0.04496,0.0181 -0.01497,-0.006 -0.02976,-0.0116 -0.04496,-0.0181 z m 1.725477,1.18546 c -0.321508,-0.003 -0.657978,0.0822 -0.998389,0.26148 l 5.17e-4,0.001 c -0.436661,0.24309 -0.84847,0.32926 -1.434021,-5.1e-4 l 0.0021,0.002 c -0.117805,-0.0681 -0.237853,-0.12071 -0.35915,-0.15916 v 0.42581 c 0.05302,0.0228 0.105726,0.0488 0.158128,0.0791 l 0.0021,0.002 c 0.693221,0.39039 1.31842,0.28393 1.827796,0 l -5.17e-4,-0.001 c 0.583712,-0.30467 1.04737,-0.28045 1.403532,-0.0822 0.356161,0.19826 0.611401,0.32148 0.91519,0.3545 0.298796,0.0325 0.638273,-0.0337 1.001489,-0.26407 0.594873,-0.23715 1.121442,-0.29583 1.620056,-0.007 l 0.0016,0.002 c 0.687165,0.38699 1.305915,0.28583 1.812805,0.007 v 5.1e-4 c 0.58811,-0.30982 1.05366,-0.28751 1.41129,-0.0884 0.35762,0.19916 0.61295,0.32095 0.91674,0.35398 0.29914,0.0325 0.63883,-0.0341 1.00252,-0.2651 0.59443,-0.23674 1.12019,-0.29253 1.61851,-0.005 h 0.002 v 0.002 c 0.69321,0.39041 1.31686,0.28394 1.82624,0 l -5.2e-4,-0.001 c 0.58373,-0.3047 1.04866,-0.28054 1.50224,-10e-4 l 0.0232,0.0119 c 0.23549,0.10516 0.49151,0.22691 0.7953,0.25993 0.45354,-0.0166 0.77405,-0.12147 1.09967,-0.30076 v -0.42478 c -0.0889,0.0285 -0.17781,0.0604 -0.39274,0.18707 -0.21492,0.12662 -0.44458,0.16596 -0.66404,0.14211 -0.21404,-0.0233 -0.42605,-0.11693 -0.65836,-0.22066 -0.27935,-0.1708 -0.58311,-0.26037 -0.90227,-0.26355 v -5.2e-4 c -0.32151,-0.003 -0.65765,0.0818 -1.04593,0.29353 -0.38828,0.21169 -0.79989,0.29822 -1.38544,-0.0315 l 0.002,0.002 c -0.63363,-0.36647 -1.32551,-0.28024 -1.82728,-0.0382 -0.50178,0.24202 -0.73242,0.28069 -0.95188,0.25683 -0.21391,-0.0233 -0.42373,-0.11701 -0.65578,-0.22066 -0.27949,-0.17097 -0.58553,-0.26089 -0.90485,-0.26406 v -5.2e-4 c -0.31904,-0.003 -0.6524,0.0818 -1.04232,0.29249 -0.38991,0.2107 -0.80065,0.29393 -1.383373,-0.0341 l 0.0021,0.002 c -0.633621,-0.36647 -1.326024,-0.27762 -1.827795,-0.0357 -0.501773,0.242 -0.731904,0.27914 -0.951363,0.25528 -0.214338,-0.0232 -0.424719,-0.11727 -0.657324,-0.22117 -0.27921,-0.17056 -0.58438,-0.26039 -0.903304,-0.26355 z m 23.174296,1.06608 c -2.03477,3.30095 -2.3506,5.42478 -2.34869,8.93899 -0.3499,-0.0133 -0.68423,0.0705 -0.9617,0.20206 -10e-4,-2.19865 -0.2066,-3.53807 -1.4857,-5.6131 0.65661,2.46133 0.64536,3.60519 0.66249,5.88078 -0.0489,0.002 -0.0955,3.1e-4 -0.14107,-0.005 -0.10287,-0.0112 -0.20512,-0.0389 -0.30903,-0.076 0.007,-2.03105 -0.24982,-3.29627 -1.4056,-5.17126 0.54957,2.06008 0.6547,3.03706 0.67851,4.85087 -0.12986,-0.0429 -0.26341,-0.0715 -0.39997,-0.0827 -0.0152,-2.07225 -0.24853,-3.3909 -1.48518,-5.39709 0.63251,2.37099 0.64503,3.41587 0.66042,5.52008 -0.0962,0.0356 -0.19275,0.0779 -0.2899,0.12867 -0.002,0.001 -0.004,0.002 -0.006,0.004 -4.9e-4,2.6e-4 -0.001,2.6e-4 -0.002,5.1e-4 -0.43432,0.2404 -0.8451,0.32377 -1.42782,-0.004 l 0.002,0.002 c -0.63363,-0.36647 -1.43765,-0.27952 -1.93942,-0.0377 -0.49739,0.23161 -0.62028,0.28069 -0.83974,0.25683 -0.21434,-0.0232 -0.42472,-0.11727 -0.65733,-0.22117 -0.2792,-0.17056 -0.58438,-0.26039 -0.9033,-0.26355 l -5.2e-4,-0.001 c -0.32151,-0.003 -0.65797,0.0822 -0.99839,0.26148 l 5.2e-4,0.001 c -0.43666,0.24309 -0.84822,0.32955 -1.19682,0.13281 -0.34861,-0.19674 -0.46435,-0.24719 -0.58136,-0.28525 v 0.42633 c 0.0486,0.0215 0.0975,0.0452 0.46922,0.25528 0.3717,0.21014 0.99647,0.10359 1.50585,-0.18035 l -5.2e-4,-0.001 c 0.58371,-0.30468 1.04737,-0.28048 1.40353,-0.0822 0.35616,0.19826 0.6114,0.322 0.91519,0.35502 0.2988,0.0325 0.63828,-0.0337 1.00149,-0.26407 0.59488,-0.23715 1.12144,-0.29556 1.62006,-0.007 l 0.002,0.002 c 0.68716,0.38699 1.30591,0.28503 1.81281,0.007 v 5.2e-4 c 0.14995,-0.079 0.29157,-0.13583 0.42581,-0.17415 h 0.50902 c 9e-5,-0.0192 -7e-5,-0.0378 0,-0.0569 0.17605,0.014 0.33451,0.0649 0.47594,0.14366 0.35762,0.1991 0.61346,0.32044 0.91725,0.35347 0.29914,0.0325 0.63884,-0.0341 1.00252,-0.2651 0.59444,-0.23674 1.1202,-0.2927 1.61851,-0.005 h 0.002 v 0.002 c 0.69322,0.39041 1.31687,0.28394 1.82625,0 l -5.2e-4,-0.001 c 0.58373,-0.3047 1.0484,-0.28092 1.40456,-0.0827 0.35617,0.19828 0.61244,0.32045 0.91623,0.35347 0.25649,0.0279 0.54125,-0.0177 0.84646,-0.17674 v -0.45733 c -0.004,0.002 -0.008,0.003 -0.0124,0.005 l -0.0176,0.008 -0.016,0.01 c -0.19383,0.12559 -0.35667,0.18799 -0.5054,0.21084 0.0272,-3.60425 0.009,-5.50743 1.04748,-9.40149 -2.04753,3.32164 -2.35457,5.45175 -2.34869,9.00565 -0.16507,-0.0534 -0.33566,-0.0825 -0.5116,-0.0842 v -5.2e-4 c -0.0409,-3.8e-4 -0.0822,6.2e-4 -0.1235,0.003 0.0315,-3.03495 0.18192,-4.57669 1.07642,-7.92974 -1.82367,2.95848 -2.23246,5.11588 -2.22261,8.31783 -0.22378,0.0855 -0.45247,0.11521 -0.7121,0.0537 0.0277,-3.63522 0.004,-5.45411 1.04748,-9.36584 z m -5.8353,10.3079 c -0.31904,-0.003 -0.6524,0.0814 -0.99012,0.25786 -0.002,0.001 -0.004,0.002 -0.006,0.004 -4.9e-4,2.6e-4 -0.001,2.7e-4 -0.002,5.2e-4 -0.43432,0.2404 -0.8451,0.32376 -1.42782,-0.004 l 0.002,0.002 c -0.63362,-0.36647 -1.43765,-0.27952 -1.93942,-0.0377 -0.49739,0.23161 -0.62028,0.2807 -0.83974,0.25684 -0.21434,-0.0232 -0.42472,-0.11728 -0.65733,-0.22118 -0.0268,-0.0163 -0.0539,-0.0317 -0.0811,-0.0465 v 0.42892 c 0.24921,0.12856 0.45734,0.21038 0.69453,0.23616 0.2988,0.0325 0.63828,-0.0337 1.00149,-0.26407 0.59488,-0.23715 1.12145,-0.29555 1.62006,-0.007 l 0.002,0.002 c 0.68716,0.38699 1.30591,0.28503 1.81281,0.007 v 5.2e-4 c 0.5881,-0.30982 1.05314,-0.28646 1.41077,-0.0873 0.35762,0.1991 0.61347,0.32043 0.91725,0.35346 0.29914,0.0325 0.63884,-0.0341 1.00253,-0.2651 0.59443,-0.23674 1.12019,-0.2927 1.6185,-0.005 h 0.002 v 0.002 c 0.69322,0.39041 1.31687,0.28394 1.82625,0 l -5.2e-4,-0.001 c 0.58373,-0.30468 1.04841,-0.28092 1.40457,-0.0827 0.35616,0.19828 0.61243,0.32045 0.91622,0.35347 0.25649,0.0279 0.54126,-0.0177 0.84646,-0.17673 v -0.45734 c -0.004,0.002 -0.008,0.003 -0.0124,0.005 l -0.0176,0.008 -0.016,0.01 c -0.30828,0.19974 -0.53812,0.23882 -0.75758,0.21497 -0.21403,-0.0233 -0.42605,-0.11693 -0.65835,-0.22066 -0.27936,-0.1708 -0.58311,-0.26037 -0.90228,-0.26355 v -5.1e-4 c -0.3215,-0.003 -0.65746,0.0822 -0.99787,0.26148 l 5.2e-4,0.001 c -0.43666,0.2431 -0.84847,0.32926 -1.43402,-5.1e-4 l 0.002,0.002 c -0.63362,-0.36647 -1.32602,-0.28029 -1.8278,-0.0382 -0.50177,0.24207 -0.7319,0.28121 -0.95136,0.25735 -0.2139,-0.0233 -0.42373,-0.11701 -0.65577,-0.22066 -0.27949,-0.17097 -0.58554,-0.26089 -0.90486,-0.26406 z m -27.519769,3.50366 c 1.79061,6.07776 1.463058,8.78375 1.505851,13.70562 h 1.944584 c 0.01166,-5.94526 -0.576643,-9.08201 -3.450435,-13.70562 z m 2.917134,0 c 1.79061,6.07776 1.462542,8.78375 1.505335,13.70562 h 1.944584 c 0.01166,-5.94526 -0.576127,-9.08201 -3.449919,-13.70562 z m 11.293367,0 c 1.790608,6.07776 1.462538,8.78375 1.505338,13.70562 h 1.94458 c 0.0117,-5.94526 -0.57613,-9.08201 -3.449918,-13.70562 z m 2.916618,0 c 1.79061,6.07776 1.46254,8.78375 1.50533,13.70562 h 1.94459 c 0.0117,-5.94526 -0.57613,-9.08201 -3.44992,-13.70562 z m 16.20728,0 c -2.87379,4.62361 -3.46158,7.76036 -3.44992,13.70562 h 1.94459 c 0.0428,-4.92187 -0.28528,-7.62786 1.50533,-13.70562 z m 2.91713,0 c -2.87379,4.62361 -3.46209,7.76036 -3.45043,13.70562 h 1.94458 c 0.0428,-4.92187 -0.28476,-7.62786 1.50585,-13.70562 z m -30.480305,1.37976 c 1.571065,5.26231 1.52507,7.40399 1.567863,12.32586 h 1.944583 c 0.02734,-4.92594 -0.387747,-7.79634 -3.512446,-12.32586 z m 5.676138,0 c 1.571065,5.26231 1.52507,7.40399 1.567863,12.32586 h 1.944584 c 0.02734,-4.92594 -0.387746,-7.79634 -3.512447,-12.32586 z m 13.356807,0 c -3.1247,4.52952 -3.5403,7.39992 -3.51296,12.32586 h 1.94458 c 0.0428,-4.92187 -0.003,-7.06355 1.56838,-12.32586 z m 5.67614,0 c -3.1247,4.52952 -3.53979,7.39992 -3.51245,12.32586 h 1.94459 c 0.0428,-4.92187 -0.003,-7.06355 1.56786,-12.32586 z m -21.855514,1.3286 c 1.381761,4.62823 1.576734,6.66845 1.614372,10.99726 h 1.709973 c 0.02405,-4.33239 -0.576154,-7.01352 -3.324345,-10.99726 z m 19.001944,0 c -2.74819,3.98374 -3.3484,6.66487 -3.32435,10.99726 h 1.70997 c 0.0376,-4.32881 0.23262,-6.36903 1.61438,-10.99726 z"/>
  </g>
</svg>