<?xml version="1.0" encoding="UTF-8" standalone="yes"?>
<svg width="52.917mm" height="52.917mm" viewBox="0 0 52.917 52.917" version="1.1" id="svg5390" xmlns="http://www.w3.org/2000/svg" xmlns:svg="http://www.w3.org/2000/svg">
  <defs id="defs5387"/>
  <g id="layer1" transform="translate(-28.5415,-79.638275)">
    <rect style="fill:#ffffff;fill-opacity:1;stroke:none;stroke-width:2.01819" id="rect70551" width="52.917" height="52.917" x="28.5415" y="79.638275"/>
    <path id="path4881" style="display:inline;fill:#1f0000;fill-opacity:1;stroke:none;stroke-width:0.264583px;stroke-linecap:butt;stroke-linejoin:miter;stroke-opacity:1" d="m 63.100797,85.719475 c -0.0427,1.2e-4 -0.0859,0.01062 -0.12609,0.03256 -0.12872,0.07021 -0.17562,0.230431 -0.10542,0.359151 l 1.11621,2.046387 -4.42764,8.117334 h -1.61437 v 1.301729 h 12.68656 v -1.301729 h -1.61437 l -4.42764,-8.117334 1.11622,-2.046387 c 0.0702,-0.128721 0.0228,-0.288944 -0.10594,-0.359151 -0.12872,-0.07021 -0.28843,-0.0233 -0.35864,0.10542 l -0.95291,1.74718 -0.95291,-1.74718 c -0.0483,-0.0885 -0.13922,-0.138232 -0.23306,-0.137976 z m 1.18597,7.211963 2.02468,3.343465 h -3.89278 z m -13.89269,3.491776 c -2.33196,2.788258 -3.56982,4.078656 -4.47983,9.048026 -0.51855,-1.0371 -1.02084,-2.03878 -1.94096,-2.7497 0.29731,2.32536 0.72335,4.2202 0.078,7.05228 -0.90153,-1.01786 -1.10689,-1.84676 -2.86133,-2.08463 0.37829,0.74318 1.20702,2.51612 1.2883,3.55896 0.44105,4.88814 1.89598,7.41515 5.27409,7.9375 -1.14868,-0.48565 -1.68255,-1.6865 -1.86448,-3.70779 -0.0399,-0.5136 -0.44719,-1.38684 -0.63304,-1.75286 0.86194,0.11716 0.96269,0.52551 1.4056,1.02681 0.31704,-1.39478 0.10782,-2.32797 -0.0382,-3.47318 0.45205,0.35012 0.69867,0.84367 0.95343,1.35444 0.44707,-2.44735 1.05522,-3.08286 2.2009,-4.45605 0.22252,1.13204 0.96348,1.97541 1.48208,2.94865 0.43992,0.81844 0.56252,1.62115 0.54467,2.55592 0.40309,-0.24785 0.52659,-0.59218 0.71882,-1.00511 0.48695,1.29644 0.17181,2.55607 -0.23978,3.62665 0.41627,-0.18104 0.56387,-0.46177 0.75137,-0.85214 0.40209,1.89536 -0.91585,3.19027 -2.34611,3.71915 3.40397,-0.59833 7.30044,-3.44189 6.33605,-7.97677 -0.38165,0.79265 -0.6818,1.36199 -1.5291,1.72961 0.83777,-2.17387 1.47898,-4.73047 0.48782,-7.36286 -0.39127,0.83845 -0.643,1.53694 -1.46348,2.04019 0.0363,-1.89803 -0.21354,-3.52754 -1.10897,-5.18935 -1.05559,-1.97615 -2.5629,-3.689123 -3.01584,-5.987746 z m -4.43125,23.637316 c -0.40773,0 -6.592881,1.98075 -6.592881,1.98075 0,0 0.562106,2.20104 0.633553,2.12959 0.07145,-0.0714 6.112808,-1.76217 6.112808,-1.76217 l -2.65876,2.75229 1.79938,1.3131 3.95014,-4.2354 3.95015,4.2354 1.79937,-1.3131 -2.65875,-2.75229 c 0,0 6.0414,1.69077 6.1128,1.76217 0.0714,0.0714 0.63356,-2.12959 0.63356,-2.12959 0,0 -6.18464,-1.98075 -6.59236,-1.98075 h -2.86701 -0.75551 z"/>
  </g>
</svg>