<?xml version="1.0" encoding="UTF-8" standalone="yes"?>
<svg width="52.917mm" height="52.917mm" viewBox="0 0 52.917 52.917" version="1.1" id="svg9754" xmlns="http://www.w3.org/2000/svg" xmlns:svg="http://www.w3.org/2000/svg">
  <defs id="defs9751"/>
  <g id="layer1" transform="translate(-151.67053,-105.5415)">
    <rect style="fill:#ffffff;fill-opacity:1;stroke:none;stroke-width:2.01819" id="rect70551" width="52.917" height="52.917" x="151.67053" y="105.5415"/>
    <path id="path9713" style="display:inline;fill:#000000;fill-opacity:1;stroke:none;stroke-width:1.10765;stroke-opacity:1" d="m 158.48501,111.85704 v 26.15138 h 3.95014 v -9.50278 h 5.55367 c 4.5779,0 8.32611,-3.74665 8.32611,-8.32456 0,-4.5779 -3.74821,-8.32404 -8.32611,-8.32404 h -5.55367 -0.81855 z m 3.95014,3.9455 h 5.55367 c 2.46032,0 4.37906,1.91822 4.37906,4.37854 0,2.46033 -1.91874,4.37907 -4.37906,4.37907 h -5.55367 z m 14.20069,15.12879 c -1.26143,0 -1.94792,1.07939 -2.29237,2.29289 l -1.53066,5.39191 h -0.68213 c -0.98853,0 -1.78438,0.79638 -1.78438,1.78491 v 6.54223 c 0,0.98853 0.79585,1.78491 1.78438,1.78491 h 0.61444 c -0.0151,0.20851 -0.0248,0.4402 -0.0248,0.68885 v 1.156 c 0,0.86953 0.10337,1.56993 0.23151,1.56993 h 2.67632 c 0.12815,0 0.231,-0.7004 0.231,-1.56993 v -1.156 c 0,-0.24865 -0.01,-0.48034 -0.0248,-0.68885 h 16.45067 c -0.0151,0.20851 -0.0248,0.4402 -0.0248,0.68885 v 1.156 c 0,0.86953 0.10285,1.56993 0.23099,1.56993 h 2.67633 c 0.12814,0 0.23151,-0.7004 0.23151,-1.56993 v -1.156 c 0,-0.24865 -0.01,-0.48034 -0.0248,-0.68885 h 0.61391 c 0.98853,0 1.78491,-0.79638 1.78491,-1.78491 v -6.54223 c 0,-0.98853 -0.79638,-1.78491 -1.78491,-1.78491 h -0.68161 l -1.53066,-5.39191 c -0.34445,-1.2135 -1.03093,-2.29289 -2.29236,-2.29289 z m 0,1.01389 h 14.84767 c 0.71771,0 1.08353,0.58856 1.27951,1.279 l 1.53014,5.39191 h -20.46749 l 1.53066,-5.39191 c 0.19598,-0.69044 0.56179,-1.279 1.27951,-1.279 z m -1.13947,8.32973 c 1.4064,1.4e-4 2.54648,1.14021 2.54662,2.54661 1.5e-4,1.40659 -1.14003,2.54702 -2.54662,2.54713 -1.40659,-1.1e-4 -2.54676,-1.14054 -2.54661,-2.54713 1.3e-4,-1.40639 1.14021,-2.54647 2.54661,-2.54661 z m 17.1266,0 c 1.40639,1.4e-4 2.54649,1.14021 2.54662,2.54661 1.4e-4,1.40659 -1.14002,2.54702 -2.54662,2.54713 -1.40678,1.6e-4 -2.54727,-1.14035 -2.54713,-2.54713 1.3e-4,-1.40658 1.14054,-2.54675 2.54713,-2.54661 z"/>
  </g>
</svg>