<?xml version="1.0" encoding="UTF-8" standalone="yes"?>
<svg width="52.917mm" height="52.917mm" viewBox="0 0 52.917 52.917" version="1.1" id="svg3839" xmlns="http://www.w3.org/2000/svg" xmlns:svg="http://www.w3.org/2000/svg">
  <defs id="defs3836"/>
  <g id="layer1" transform="translate(-67.149841,-141.14174)">
    <rect style="fill:#ffffff;fill-opacity:1;stroke:none;stroke-width:2.01819" id="rect70551" width="52.917" height="52.917" x="67.149841" y="141.14174"/>
    <path id="rect854" style="fill:#000000;fill-opacity:1;stroke-width:1.25" d="m 100.01745,149.23907 c -1.540304,0 -2.794674,1.25229 -2.794674,2.79259 0,1.5403 1.25437,2.79518 2.794674,2.79518 1.54029,0 2.79517,-1.25488 2.79517,-2.79518 0,-1.5403 -1.25488,-2.79259 -2.79517,-2.79259 z m -8.587604,0.0605 c -1.54029,0 -2.79517,1.25281 -2.79517,2.79311 0,1.54029 1.25488,2.79466 2.79517,2.79466 1.5403,0 2.7926,-1.25437 2.7926,-2.79466 0,-1.5403 -1.2523,-2.79311 -2.7926,-2.79311 z m 8.587604,0.43925 c 1.27008,0 2.29495,1.0228 2.29495,2.29288 0,1.27008 -1.02487,2.29495 -2.29495,2.29495 -1.270074,0 -2.294964,-1.02487 -2.294964,-2.29495 0,-1.27008 1.02489,-2.29288 2.294964,-2.29288 z m -19.783304,2.61844 c -0.49483,0.008 -0.93579,0.32336 -1.14237,0.67306 -0.19827,0.37465 -0.2086,0.63574 -0.1749,0.87983 -0.19493,-0.0882 -0.76016,-0.34417 -0.76016,-0.34417 -0.57849,-0.23558 -1.26017,0.0719 -1.49552,0.56328 -0.2581,0.57039 -0.007,1.23742 0.56379,1.49551 l 4.95164,2.24069 c 0.32955,0.14103 0.64378,0.21071 0.96376,0.19947 h 4.82451 c 0.002,5.38709 0.0139,15.3045 0.0139,15.3045 0,0 -4.19466,4.42525 -6.24251,6.643 -0.58734,0.64224 -0.54354,1.63217 0.0987,2.21951 0.64224,0.5873 1.63216,0.54297 2.2195,-0.0992 1.73521,-1.62116 4.47024,-4.61153 5.89422,-6.41253 0.44482,-0.45568 0.57252,-0.82725 0.67282,-1.43712 l 0.72606,-4.4142 0.0853,-0.5178 c 0.0387,-0.49215 0.84429,-0.44897 0.86403,0.0351 l 0.64285,14.86369 c 0.0331,0.7638 0.61525,1.37976 1.37976,1.37976 0.76451,0 1.39385,-0.61537 1.38028,-1.37976 -0.0796,-3.00491 -0.13735,-6.01002 -0.17983,-9.01495 h 2.34146 v 9.08006 c 0,0.90588 0.72862,1.64641 1.62884,1.64641 0.900224,0 1.630904,-0.74053 1.630904,-1.64641 v -3.96255 l 1.96888,2.00763 c 0.63432,0.64673 1.67293,0.6624 2.31562,0.032 0.64268,-0.63035 0.64569,-1.66786 0.0114,-2.31459 l -4.29587,-4.38009 v -0.4625 h 3.37086 c 0.42976,0.003 0.78101,-0.16075 0.96118,-0.44907 0.18017,-0.28832 0.1787,-0.6518 0.0605,-1.00769 l -0.002,-0.006 -3.84834,-9.88777 4.62297,-1.56425 c 0.0871,-0.0296 0.16715,-0.0701 0.24082,-0.11782 l 0.03,0.10129 2.86701,-0.85577 h 0.002 c 1.05959,-0.32504 1.42739,-1.27701 1.13275,-2.00556 -0.29464,-0.72856 -1.22812,-1.19435 -2.39468,-0.73225 l -2.55644,0.77721 c -0.29867,0.0909 -0.49242,0.11662 -0.59944,0.0858 -0.10703,-0.0308 -0.18892,-0.11901 -0.27421,-0.26415 l -1.48008,-2.60131 -0.0191,-0.0191 c -0.79064,-0.86247 -1.89816,-1.26751 -3.05304,-1.27382 l -1.758044,5.2e-4 c -0.89337,0 -1.6965,0.25563 -2.35902,0.77721 -0.34079,-0.21861 -0.77975,-0.31122 -1.31259,-0.33796 -2.40899,0.006 -6.7626,-0.008 -6.7626,-0.008 0,0 -4.77955,-2.25719 -7.17763,-3.36672 -0.1871,-0.0866 -0.38411,-0.12566 -0.57774,-0.12248 z m 0.005,0.49765 c 0.12077,-10e-4 0.24417,0.0237 0.36277,0.0785 2.09284,0.9749 6.28522,2.91036 6.28522,2.91036 0,0 -2.49708,-0.008 -3.73188,-0.0134 -0.0217,-0.0123 -2.1751,-0.98591 -3.61529,-1.63763 -0.15566,-0.2318 -0.18719,-0.53571 -0.0434,-0.84653 0.14382,-0.31081 0.43391,-0.4881 0.74255,-0.4914 z m 18.18442,3.05976 h 1.755974 c 1.03681,0.006 1.98979,0.36128 2.67581,1.10381 l 1.3658,2.36884 c 0.1591,0.35028 0.36839,0.58562 0.64803,0.66611 0.28437,0.0819 0.56247,0.01 0.88263,-0.0879 l 2.58796,-0.78703 0.01,-0.004 c 0.98815,-0.39142 1.55534,-0.0165 1.74615,0.45527 0.1908,0.47179 0.0295,1.07994 -0.81649,1.33945 l -2.32595,0.69453 c 0.0792,-0.2211 0.0875,-0.4694 0.006,-0.71003 l -0.003,-0.009 c -0.19208,-0.56482 -0.80611,-0.94851 -1.36632,-0.74339 l -2.7063,0.99092 c -0.12755,-0.26342 -0.2561,-0.52345 -0.40463,-0.80305 -0.1442,-0.3634 -0.45765,-0.58516 -0.78134,-0.56069 -0.32368,0.0245 -0.59494,0.33171 -0.60927,0.73277 v 0.006 l 0.015,1.23041 -2.372984,0.80719 -2.14354,-5.8415 c -0.0458,-0.0848 -0.0965,-0.16192 -0.15141,-0.23255 0.55582,-0.42038 1.21524,-0.61598 1.9885,-0.61598 z m -3.00601,2.78949 1.85673,5.73557 c 0.14717,0.45459 0.63156,0.70244 1.1343,0.5457 l 2.779674,-0.94051 3.85042,9.88932 c 0.0861,0.25895 0.0659,0.46225 -0.0114,0.58601 -0.0773,0.12376 -0.22045,0.21708 -0.5333,0.21498 h -8.981894 c -0.0724,-5.34328 -0.0947,-10.68659 -0.0946,-16.03107 z m 6.316924,1.62264 c 0.069,-0.005 0.14508,-0.0209 0.27906,0.24805 0.1389,0.26828 0.39286,0.77978 0.39286,0.77978 l -0.80512,0.27388 -0.0134,-1.048 c 0.008,-0.22585 0.0778,-0.24851 0.14676,-0.25373 z m -3.373434,14.90814 h 2.259814 v 9.08006 c 0,0.64054 -0.50186,1.1467 -1.130684,1.1467 -0.62882,0 -1.12913,-0.50616 -1.12913,-1.1467 z m 2.760034,1.17615 3.93878,4.01629 c 0.44852,0.4573 0.4448,1.16734 -0.004,1.60766 -0.44893,0.44031 -1.16068,0.43197 -1.60921,-0.0253 l -2.32544,-2.37092 z"/>
  </g>
</svg>