<?xml version="1.0" encoding="UTF-8" standalone="yes"?>
<svg width="52.917mm" height="52.917mm" viewBox="0 0 52.917 52.917" version="1.1" id="svg2603" xmlns="http://www.w3.org/2000/svg" xmlns:svg="http://www.w3.org/2000/svg">
  <defs id="defs2600"/>
  <g id="layer1" transform="translate(-116.66721,-112.70721)">
    <rect style="fill:#ffffff;fill-opacity:1;stroke:none;stroke-width:2.01819" id="rect70551" width="52.917" height="52.917" x="116.66721" y="112.70721"/>
    <path id="path2574" style="stroke-width:0.384759" d="m 155.0623,125.61743 0.74518,1.01286 c -1.18563,0.003 -2.48959,-2.2e-4 -3.67523,0.001 l -2.79208,1.35393 0.54726,0.94619 2.70681,-1.19631 3.21324,0.0119 -0.74518,1.01337 1.63401,-0.0124 1.44488,-1.55908 -1.44488,-1.55908 z m -14.01051,0.20412 c -1.08681,0 -1.96784,0.88103 -1.96784,1.96784 0,1.0868 0.88103,1.96784 1.96784,1.96784 1.08681,0 1.96784,-0.88104 1.96784,-1.96784 0,-1.08681 -0.88104,-1.96784 -1.96784,-1.96784 z m 14.00896,3.57756 v 5.2e-4 c -1.50549,-0.008 -2.96865,0.13172 -4.08553,0.85835 l -19.12132,11.1125 c -1.18657,-0.0142 -2.1572,-9.1e-4 -3.21531,0 h -0.004 v 5.1e-4 c -2.88416,0.31495 -5.06918,2.75004 -5.07101,5.65134 8.9e-4,2.72435 1.8919,5.16226 4.56665,5.67975 0.36608,0.0208 0.7386,0.008 1.10639,0.008 0.005,1.8e-4 0.0103,3.4e-4 0.0155,5.1e-4 h 5.2e-4 v -5.1e-4 h 3.70003 c 2.47138,0 4.27262,-1.65017 5.83634,-2.47841 l 0.0176,-0.01 16.37678,-9.44387 1.81539,0.0232 v 0.009 h 5.2e-4 c 3.14167,0 5.68854,-2.54686 5.68854,-5.68854 -1.7e-4,-3.12242 -2.51714,-5.66108 -5.63945,-5.68803 v -0.003 c -0.62451,1.1e-4 -1.30315,-0.0271 -1.98748,-0.031 z m -20.32589,0.27544 c -1.08682,0 -1.96784,0.88104 -1.96784,1.96784 0,1.08681 0.88103,1.96784 1.96784,1.96784 1.08681,0 1.96784,-0.88103 1.96784,-1.96784 0,-1.0868 -0.88104,-1.96784 -1.96784,-1.96784 z m 6.31693,0.77721 c -1.09018,0 -1.96784,0.87766 -1.96784,1.96784 v 3.58169 l 3.93568,-2.32647 v -1.25522 c 0,-1.09018 -0.87766,-1.96784 -1.96784,-1.96784 z m 15.94683,1.125 v 0.006 h 5.2e-4 c 1.95442,0 3.5388,1.58439 3.5388,3.53881 -2.9e-4,1.95038 -1.57861,3.53287 -3.52898,3.53828 v -0.003 l -2.40141,-0.0233 -16.85943,9.72086 c -1.86551,0.99357 -3.39589,2.21071 -4.79506,2.21071 h -3.70003 v -0.005 h -5.2e-4 c -1.95443,0 -3.5388,-1.58439 -3.5388,-3.53881 0.002,-1.77457 1.31744,-3.27354 3.07681,-3.50521 1.10518,0.005 2.37148,0 3.63751,0 l 19.74608,-11.47527 c 0.58682,-0.41012 0.98061,-0.40072 1.37511,-0.4532 z m -22.26376,2.59571 c -1.09019,0 -1.96784,0.87766 -1.96784,1.96783 v 3.59513 l 3.93568,-2.32647 v -1.26866 c 0,-1.09017 -0.87765,-1.96783 -1.96784,-1.96783 z"/>
  </g>
</svg>