<?xml version="1.0" encoding="UTF-8" standalone="yes"?>
<svg width="52.917mm" height="52.917mm" viewBox="0 0 52.917 52.917" version="1.1" id="svg3837" xmlns="http://www.w3.org/2000/svg" xmlns:svg="http://www.w3.org/2000/svg">
  <defs id="defs3834"/>
  <g id="layer1" transform="translate(-78.198647,-79.89579)">
    <rect style="fill:#ffffff;fill-opacity:1;stroke:none;stroke-width:2.01819" id="rect70551" width="52.917" height="52.917" x="78.198647" y="79.89579"/>
    <path id="path3616" style="display:inline;fill:#000000;stroke-width:0.7" d="m 95.015985,94.775697 c -0.380784,-0.005 -0.716876,0.26709 -0.781347,0.65475 -0.07114,0.42774 0.216138,0.82906 0.643888,0.9002 l 9.767364,1.62471 4.33617,0.77463 4.33979,-0.7643 9.76736,-1.62471 c 0.42775,-0.0711 0.71503,-0.47245 0.64389,-0.9002 -0.0645,-0.38766 -0.40056,-0.65974 -0.78135,-0.65474 v 5.2e-4 c -0.0394,5.4e-4 -0.0793,0.003 -0.11937,0.0103 l -10.4712,1.7415 c -0.42775,0.0711 -0.71503,0.47297 -0.64389,0.90072 0.0177,0.10654 0.0561,0.2042 0.11007,0.2899 l -2.81533,0.51212 -2.87166,-0.52245 c 0.054,-0.0857 0.0923,-0.18337 0.11007,-0.28991 0.0711,-0.42775 -0.21614,-0.82958 -0.64389,-0.90072 l -10.471192,-1.74149 c -0.0401,-0.007 -0.07997,-0.0104 -0.119373,-0.0109 z m -8.36073,0.81959 c -0.190662,-8e-4 -0.40218,0.20412 -0.744657,0.6227 -0.548567,0.67496 -0.328492,0.99328 -0.07028,1.76785 l 2.616378,5.020893 c 0.448535,0.83859 1.141807,0.81415 1.908927,1.06091 0.353568,0.0706 4.082919,0.95969 5.763473,1.36116 1.12959,0.27713 1.874005,1.0536 2.48667,2.04329 l 2.948144,4.7625 c 0.79695,1.31281 1.63136,1.36736 2.79311,1.36736 h 2.78277 l 1.53531,3.33054 h -6.92102 v 1.00046 h 19.12544 c 0.56851,0 1.05427,-0.22858 1.40664,-0.55087 0.35237,-0.3223 0.59349,-0.72064 0.80822,-1.11518 a 0.5,0.5 0 0 0 -0.19896,-0.68006 0.5,0.5 0 0 0 -0.67954,0.20154 c -0.19553,0.35926 -0.39369,0.66326 -0.60358,0.85524 -0.2099,0.19198 -0.40722,0.28887 -0.73278,0.28887 h -5.64978 l -1.53531,-3.33054 h 5.74901 c 4.74221,-0.26168 4.13146,-11.59214 -2.98432,-11.86801 h -5.71696 a 1.6625849,1.8625951 0 0 0 -1.6614,-1.804033 1.6625849,1.8625951 0 0 0 -1.66088,1.804033 H 90.15375 l -2.828768,-5.445153 c -0.27864,-0.44469 -0.455593,-0.67845 -0.651123,-0.69298 -0.0061,-4.5e-4 -0.01245,-4.9e-4 -0.0186,-5.2e-4 z m 15.012525,7.076063 h 11.2882 v 5.70042 c 0,-0.10001 -6.33812,0 -6.33812,0 -4.39056,-0.0734 -4.98963,-2.38116 -4.95008,-5.70042 z m 12.06903,5.1e-4 h 2.05052 c 3.3075,0.026 5.36883,2.27516 5.37435,5.69991 h -7.42487 z m -5.49527,10.93009 h 4.35218 l 1.53479,3.33054 h -4.35167 z"/>
  </g>
</svg>