<?xml version="1.0" encoding="UTF-8" standalone="yes"?>
<svg width="52.917mm" height="52.917mm" viewBox="0 0 52.917 52.917" version="1.1" id="svg3421" xmlns="http://www.w3.org/2000/svg" xmlns:svg="http://www.w3.org/2000/svg">
  <defs id="defs3418"/>
  <g id="layer1" transform="translate(-120.62721,-84.987213)">
    <rect style="fill:#ffffff;fill-opacity:1;stroke:none;stroke-width:2.01819" id="rect70551" width="52.917" height="52.917" x="120.62721" y="84.987213"/>
    <path id="rect3241" style="fill:#000000;fill-opacity:1;stroke:none;stroke-width:7.19206" d="m 156.90707,92.664379 v 3.63957 h -3.63957 v 3.18016 h 3.63957 v 3.639061 h 3.17965 v -3.639061 h 3.63958 v -3.18016 h -3.63958 v -3.63957 z m -13.2612,3.65455 a 5.3502727,5.3502727 0 0 0 -5.35006,5.350581 5.3502727,5.3502727 0 0 0 5.35006,5.35006 5.3502727,5.3502727 0 0 0 5.35006,-5.35006 5.3502727,5.3502727 0 0 0 -5.35006,-5.350581 z m -10.8505,11.500591 c -1.30196,0 -2.35024,1.04828 -2.35024,2.35025 0,1.30196 1.04828,2.35024 2.35024,2.35024 h 5.30045 v 4.80023 h 11.10061 v -4.80023 h 5.29994 c 1.30196,0 2.35024,-1.04828 2.35024,-2.35024 0,-1.30197 -1.04828,-2.35025 -2.35024,-2.35025 z m 5.20226,10.835 c -1.20232,1.09369 -2.42989,2.23887 -3.62251,3.31556 -0.83335,0.82466 -0.84068,2.15923 -0.016,2.99258 l 4.58628,4.63486 c 0.82465,0.83335 2.15975,0.84014 2.9931,0.0155 0.83335,-0.82466 0.84016,-2.15924 0.0155,-2.99259 l -2.06809,-2.09031 1.90014,-1.74098 z m 11.29647,0 -3.7884,4.13463 1.90014,1.74098 -2.06809,2.09031 c -0.82466,0.83336 -0.81784,2.16793 0.0155,2.99259 0.83336,0.82462 2.16845,0.81784 2.9931,-0.0155 l 4.58629,-4.63486 c 0.82465,-0.83335 0.81733,-2.16792 -0.016,-2.99258 -1.19262,-1.07669 -2.4202,-2.22187 -3.62252,-3.31556 z"/>
  </g>
</svg>