<?xml version="1.0" encoding="UTF-8" standalone="yes"?>
<svg width="52.917mm" height="52.917mm" viewBox="0 0 52.917 52.917" version="1.1" id="svg1872" xmlns="http://www.w3.org/2000/svg" xmlns:svg="http://www.w3.org/2000/svg">
  <defs id="defs1869"/>
  <g id="layer1" transform="translate(-98.467346,-141.83003)">
    <rect style="fill:#ffffff;fill-opacity:1;stroke:none;stroke-width:2.01819" id="rect70551" width="52.917" height="52.917" x="98.467346" y="141.83003"/>
    <path id="rect1579" style="stroke-width:1.7" d="m 128.82597,150.1134 c -1.66321,-2.1e-4 -3.01165,1.34798 -3.01171,3.01119 6e-5,1.66321 1.3485,3.01141 3.01171,3.01119 1.663,-6e-5 3.01112,-1.34817 3.01118,-3.01119 -6e-5,-1.663 -1.34818,-3.01112 -3.01118,-3.01119 z m -17.03566,2.92489 v 3.09749 l 11.61532,-1.07539 v -0.77463 h 1.24746 v -1.24747 z m 18.07383,3.24476 c -1.0972,0.10935 -1.68847,0.46163 -2.5094,1.52187 l -2.94969,3.65146 -1.91772,-3.56102 c -0.27685,-0.51408 -0.9051,-0.70942 -1.40869,-0.43822 -0.5036,0.2712 -0.68613,0.9034 -0.40928,1.41749 l 3.02359,5.61412 c 0.38765,0.71984 1.12523,0.65149 1.60093,0.0305 l 2.28152,-3.02772 c 1.77144,2.66412 4.41942,6.78848 6.02392,9.18962 l 0.51779,14.34176 c 0.0288,0.79786 0.64288,1.44075 1.44126,1.44075 0.79838,0 1.42513,-0.64252 1.44074,-1.44075 l 0.2899,-14.82751 c 1.08266,-1.00896 0.91756,-2.70626 0.17818,-4.09704 -1.51191,-2.84394 -1.87304,-5.2701 -4.00378,-7.71775 -1.03579,-1.38214 -2.36301,-2.12723 -3.59927,-2.09755 z m -12.34911,0.30438 -0.52917,5.38416 V 186.459 h 10.09913 v -2.37299 h -7.72615 v -22.11442 l -0.52916,-5.38416 z"/>
  </g>
</svg>