<?xml version="1.0" encoding="UTF-8" standalone="yes"?>
<svg width="52.917mm" height="52.917mm" viewBox="0 0 52.917 52.917" version="1.1" id="svg12748" xmlns="http://www.w3.org/2000/svg" xmlns:svg="http://www.w3.org/2000/svg">
  <defs id="defs12745"/>
  <g id="layer1" transform="translate(-150.43375,-135.63536)">
    <rect style="fill:#ffffff;fill-opacity:1;stroke:none;stroke-width:2.01819" id="rect70551" width="52.917" height="52.917" x="150.43375" y="135.63536"/>
    <path id="path12356" style="fill:#000000;fill-opacity:1;stroke-width:0.0243381" d="m 186.81528,144.05931 -2.88199,0.0124 c -0.77591,-0.023 -1.11868,0.14574 -1.65003,1.05833 l -1.23352,2.22261 2.52905,1.49241 2.13061,-3.6189 c 0.40818,-0.68321 0.5377,-0.80854 1.10588,-1.16685 z m 0.44752,0.33383 c -0.0167,-2.3e-4 -0.0334,-1.7e-4 -0.0501,5.1e-4 -0.20994,0.009 -0.428,0.09 -0.64957,0.25942 -0.44435,0.41438 -0.97452,1.32284 -1.01544,1.56683 l 0.7183,1.25109 -0.95395,0.45113 2.94556,0.0419 1.48828,-2.60398 -0.91054,0.64596 -0.24753,-0.51883 c -0.34367,-0.64284 -0.8085,-1.08685 -1.32498,-1.09399 z m -20.89692,1.31051 v 1.45004 c -0.71564,0.18119 -0.73534,0.60279 0,0.74828 0.13727,0.22041 0.0987,0.29255 0,0.51469 -1.50579,0.94768 -3.50912,2.01362 -4.16305,3.97547 -0.0883,0.17723 -0.0872,0.5809 0.2558,0.82579 v 7.53029 c 0.25094,1.74002 1.54096,1.81786 1.6154,2.16783 -0.13477,0.57033 -1.70067,1.31082 -1.82418,2.33887 v 12.6752 c 0.0535,1.4076 0.60362,2.19063 1.63711,2.19831 h 1.464 5.36453 1.46399 c 1.03351,-0.008 1.58361,-0.79071 1.63711,-2.19831 v -12.6752 c -0.12351,-1.02805 -1.68941,-1.76854 -1.82418,-2.33887 0.0744,-0.34997 1.36447,-0.42781 1.61541,-2.16783 v -7.53029 c 0.34295,-0.24489 0.3441,-0.64856 0.2558,-0.82579 -0.65393,-1.96185 -2.65727,-3.02779 -4.16306,-3.97547 -0.0987,-0.22214 -0.13727,-0.29429 0,-0.51469 0.73534,-0.14549 0.71564,-0.56708 0,-0.74828 v -1.45004 h -0.80925 -1.71617 z m 23.74739,2.40296 -2.56883,1.47846 1.54822,2.55126 1.62212,-0.0119 c 0.36159,-0.0165 1.00229,-0.55851 0.8723,-1.39475 z m -8.21759,0.85834 -2.90473,0.047 0.74621,0.38654 -0.2651,0.55759 c -0.62705,0.95268 -0.84161,1.14847 -0.34003,2.11304 0.35722,0.68697 0.9348,1.66824 1.61075,2.72439 -0.20709,-0.47503 -0.0698,-1.0304 0.28577,-1.5596 l 1.37873,-2.32027 0.84853,0.52452 z m 5.46014,2.49856 -1.38752,2.59209 1.38752,2.52284 0.006,-1.04696 h 0.63872 c 1.33206,0.0822 1.47541,0.0335 2.1394,-1.01958 0.41877,-0.66419 0.92256,-1.47207 1.49087,-2.58641 -0.31347,0.41264 -1.02867,0.51642 -1.52239,0.57361 l -2.73007,0.006 z m -5.45807,1.05626 -0.60461,0.92294 c -0.28557,0.49662 -0.23505,1.81482 0.59789,2.06499 l 3.0608,-0.003 -0.0553,-2.96312 z"/>
  </g>
</svg>