<?xml version="1.0" encoding="UTF-8" standalone="yes"?>
<svg width="52.917mm" height="52.917mm" viewBox="0 0 52.917 52.917" version="1.1" id="svg70418" xml:space="preserve" xmlns="http://www.w3.org/2000/svg" xmlns:svg="http://www.w3.org/2000/svg">
  <defs id="defs70415"/>
  <g id="layer1" transform="translate(-29.543716,-69.249527)">
    <rect style="fill:#ffffff;fill-opacity:1;stroke:none;stroke-width:2.01819" id="rect70551" width="52.917" height="52.917" x="29.543716" y="69.249527"/>
    <path id="rect913" style="display:inline;stroke-width:0.79375" d="m 50.269232,79.143346 c -1.360214,-1.1e-5 -2.462908,1.102691 -2.462899,2.462899 -9e-6,1.360205 1.102694,2.462909 2.462899,2.462898 1.360196,1.1e-5 2.462908,-1.102693 2.462899,-2.462898 9e-6,-1.360208 -1.102694,-2.46291 -2.462899,-2.462899 z m 17.86816,0.935343 c -1.360216,-1.1e-5 -2.462391,1.102692 -2.462382,2.462899 -9e-6,1.360209 1.102175,2.46291 2.462382,2.462899 1.360196,1.1e-5 2.462908,-1.10269 2.462899,-2.462899 9e-6,-1.360207 -1.102694,-2.46291 -2.462899,-2.462899 z m -20.339327,4.631759 c -0.838199,0.10908 -1.018787,0.608312 -1.246952,1.16427 l -2.891297,8.100798 h 2.037602 l 1.796789,-5.856491 0.600481,4.089673 -0.689364,1.766818 h 5.705595 L 52.3952,92.221617 53.054592,88.119025 c 0.04574,0.06121 0.087,0.114176 0.130741,0.172083 l 0.834057,3.316077 c 0.09509,0.377934 0.476778,0.605396 0.855762,0.510046 l 0.205156,-0.05168 c 0.07738,-0.01947 0.148512,-0.05116 0.211873,-0.09198 0.130117,-0.03397 0.247011,-0.103629 0.336414,-0.208773 l 2.957959,-3.478341 c 0.26423,-0.310754 0.182684,-0.81153 -0.182935,-1.122412 -0.365619,-0.310882 -0.87265,-0.310754 -1.136882,0 l -2.077392,2.442745 -0.343648,-1.366325 c -0.08483,-0.559618 -0.599476,-1.841784 -0.640271,-2.342493 -0.224989,-0.64208 -0.673394,-1.150111 -1.246953,-1.16427 l -0.889351,-0.0155 H 50.87488 48.479677 Z m 17.583205,0.942578 c -0.838199,0.10908 -1.018786,0.608313 -1.246952,1.16427 l -3.304191,6.630086 h 2.117401 c 0.0154,0 0.02968,4.74e-4 0.04496,5.17e-4 l 2.369881,-4.394047 v 5.48287 l -0.04289,0.294555 H 43.354408 c -0.569045,0 -1.027327,0.458283 -1.027327,1.027328 0,0.569045 0.458282,1.027327 1.027327,1.027327 h 21.665345 l -2.013831,13.808458 c -0.109973,0.75415 0.409092,1.44961 1.163237,1.5596 l 0.03256,0.004 c 0.754153,0.10998 1.45013,-0.40803 1.560111,-1.1622 l 1.796273,-12.321731 c 0.01115,-0.395714 1.142288,-0.411403 1.170471,0.01085 l 1.795239,12.310881 c 0.109981,0.75416 0.805442,1.27218 1.559595,1.1622 l 0.03307,-0.004 c 0.754162,-0.10997 1.272702,-0.80545 1.16272,-1.5596 L 71.265366,96.885932 h 2.13062 l 0.01809,0.05736 c 0.182276,0.577311 0.743655,0.910942 1.258838,0.748275 0.35518,-0.112141 0.592782,-0.429901 0.646472,-0.805636 h 2.411223 c 0.569045,0 1.027327,-0.458282 1.027327,-1.027327 0,-0.569045 -0.458282,-1.027328 -1.027327,-1.027328 h -2.938322 l -2.530595,-8.013981 c -0.224989,-0.642079 -0.673393,-1.150111 -1.246952,-1.16427 h -1.077454 -1.194242 -2.395203 z m 5.541481,3.400826 1.824179,5.777425 h -1.781287 l -0.04289,-0.294555 z m -37.527425,8.408272 c -0.08309,0.0017 -0.148828,0.02887 -0.148828,0.06253 0,0.03475 0.0697,0.06304 0.15658,0.06304 0.08688,0 0.157096,-0.02829 0.157096,-0.06304 0,-0.03475 -0.07022,-0.06253 -0.157096,-0.06253 -0.0027,0 -0.0051,-5.4e-5 -0.0078,0 z"/>
  </g>
</svg>