<?xml version="1.0" encoding="UTF-8" standalone="yes"?>
<svg width="52.917mm" height="52.917mm" viewBox="0 0 52.917 52.917" version="1.1" id="svg15818" xmlns="http://www.w3.org/2000/svg" xmlns:svg="http://www.w3.org/2000/svg">
  <defs id="defs15815"/>
  <g id="layer1" transform="translate(-47.877537,-99.499786)">
    <rect style="fill:#ffffff;fill-opacity:1;stroke:none;stroke-width:2.01819" id="rect70551" width="52.917" height="52.917" x="47.877537" y="99.499786"/>
    <path id="rect15728" style="display:inline;fill:#000000;stroke-width:1.1;stroke-linecap:square" d="m 61.42443,109.33424 a 4.7502422,4.7502422 0 0 0 -4.7501,4.75009 4.7502422,4.7502422 0 0 0 3.78065,4.64727 v 23.85073 h 31.54277 v -2.19935 H 62.65381 v -21.7134 a 4.7502422,4.7502422 0 0 0 3.52123,-4.58525 4.7502422,4.7502422 0 0 0 -4.75061,-4.75009 z m 0,1.49965 a 3.2501657,3.2501657 0 0 1 1.92908,0.63458 l -1.96732,1.96733 -0.35347,0.35346 0.70745,0.70694 0.35347,-0.35347 1.9637,-1.96371 a 3.2501657,3.2501657 0 0 1 0.61753,1.90531 3.2501657,3.2501657 0 0 1 -3.25044,3.24994 3.2501657,3.2501657 0 0 1 -3.24993,-3.24994 3.2501657,3.2501657 0 0 1 3.24993,-3.25044 z m 15.06368,7.02541 c -1.08036,0 -1.94976,0.31433 -1.94976,0.70486 v 2.1637 h -4.45089 v 17.39531 h 14.40119 v -17.39531 h -4.44986 v -2.1637 c 0,-0.39053 -0.86994,-0.70486 -1.95026,-0.70486 z m -0.92501,1.12499 h 3.45043 v 1.74357 H 75.5631 Z m -8.35143,1.74357 c -1.09692,0 -1.98024,0.8828 -1.98024,1.97972 v 13.43587 c 0,1.09692 0.88332,1.97972 1.98024,1.97972 h 1.27641 v -17.39531 z m 18.87688,0 v 17.39531 h 1.27641 c 1.09692,0 1.98024,-0.8828 1.98024,-1.97972 v -13.43587 c 0,-1.09692 -0.88332,-1.97972 -1.98024,-1.97972 z"/>
  </g>
</svg>