<?xml version="1.0" encoding="UTF-8" standalone="yes"?>
<svg width="52.917mm" height="52.917mm" viewBox="0 0 52.917 52.917" version="1.1" id="svg16788" xmlns="http://www.w3.org/2000/svg" xmlns:svg="http://www.w3.org/2000/svg">
  <defs id="defs16785"/>
  <g id="layer1" transform="translate(-124.27847,-67.838142)">
    <rect style="fill:#ffffff;fill-opacity:1;stroke:none;stroke-width:2.01819" id="rect70551-3" width="52.917" height="52.917" x="124.27847" y="67.838142"/>
    <path id="path5467" style="fill:#000000;fill-opacity:1;stroke-width:0.600001" d="m 160.28505,81.083842 c -2.44526,0 -4.67334,0.30778 -7.44348,0.96635 -0.44502,0.0913 -0.8105,0.37357 -0.87023,0.63045 -0.005,0.01 -2.61792,8.69043 -2.61792,8.69043 -0.0388,0.0915 -0.0605,0.19221 -0.0605,0.29817 v 11.693348 c 0,0.4222 0.34003,0.76222 0.76223,0.76222 h 1.36426 v 1.7632 c 0,0.78189 0.62938,1.41129 1.41128,1.41129 h 0.0631 c 0.78189,0 1.41128,-0.6294 1.41128,-1.41129 v -1.7632 h 11.88661 v 1.7632 c 0,0.78189 0.6294,1.41129 1.41129,1.41129 h 0.0636 c 0.78189,0 1.41128,-0.6294 1.41128,-1.41129 v -1.7632 h 1.36478 c 0.4222,0 0.76171,-0.34002 0.76171,-0.76222 V 91.669242 c 0,-0.1072 -0.0219,-0.2089 -0.0615,-0.30127 l -2.59002,-8.6589 c -0.0589,-0.26654 -0.39162,-0.58778 -0.86661,-0.65888 -2.91748,-0.62056 -4.95583,-0.96635 -7.4011,-0.96635 z m -6.03374,3.31711 h 11.99461 c 0.57857,0 0.86057,0.49578 1.04438,1.04438 l 2.11667,6.31641 c 0.18383,0.54859 -0.46581,1.04439 -1.04438,1.04439 h -16.22795 c -0.57858,0 -1.22821,-0.4958 -1.04438,-1.04439 l 2.11667,-6.31641 c 0.18383,-0.5486 0.4658,-1.04438 1.04438,-1.04438 z m -12.40648,2.58744 c -0.8139,1.5e-4 -1.47366,0.65991 -1.47381,1.47381 -1.3e-4,0.8141 0.65971,1.47418 1.47381,1.47433 0.81431,1.3e-4 1.47446,-0.66002 1.47433,-1.47433 -1.5e-4,-0.8141 -0.66023,-1.47394 -1.47433,-1.47381 z m -0.22634,3.72846 c -0.51486,-0.004 -1.10196,0.06 -1.46658,0.51159 l -3.26337,5.87665 c -0.20499,0.36909 -0.073,0.83112 0.29611,1.03611 0.3691,0.20498 0.83112,0.073 1.03611,-0.29611 l 2.10323,-3.78685 c 0.30417,-0.52414 0.41568,-0.35791 0.42168,0.045 0,1.75787 -5.6e-4,3.49392 0.0145,5.24361 l 1.13895,1.090888 v 0.14056 c -1.00616,0.90096 -2.01383,1.81278 -3.02049,2.71715 -0.31641,0.28488 -0.34176,0.76921 -0.0568,1.08572 0.28488,0.31641 0.76869,0.34176 1.0852,0.0568 l 1.99213,-1.79317 v 3.98839 c 0,0.43002 0.34616,0.77618 0.77618,0.77618 0.43002,0 0.77618,-0.34616 0.77618,-0.77618 V 96.618812 l 1.08676,1.17926 c 0.24757,0.26857 0.66359,0.28585 0.93224,0.0382 0.2686,-0.24758 0.28531,-0.66308 0.0377,-0.93173 l -2.05672,-2.23242 v -2.58744 c 0,-0.74946 -0.60345,-1.35289 -1.35289,-1.35289 -0.14464,-0.005 -0.30844,-0.014 -0.48007,-0.015 z m -3.85093,8.11113 -0.62735,0.009 -1.55236,2.688728 -0.15658,-0.0315 c -1.06071,-0.71445 -2.70635,-0.96452 -3.46439,0.31161 l -1.6521,2.7776 c -0.13658,0.26365 -0.0157,0.60784 0.23048,0.79479 l 1.66812,0.96325 c 0.18576,-0.339 0.54155,-0.5503 0.9281,-0.55036 0.18418,7.6e-4 0.36498,0.0496 0.52452,0.1416 z m 15.26728,0.0734 c 1.03928,1.6e-4 1.88167,0.84278 1.88154,1.882058 1.3e-4,1.03927 -0.84226,1.88189 -1.88154,1.88205 -1.03947,1.3e-4 -1.88218,-0.84257 -1.88205,-1.88205 -1.3e-4,-1.039478 0.84259,-1.882188 1.88205,-1.882058 z m 14.42703,0 c 1.03948,-1.3e-4 1.88219,0.84258 1.88206,1.882058 1.3e-4,1.03948 -0.84257,1.88218 -1.88206,1.88205 -1.03929,-1.5e-4 -1.88167,-0.84277 -1.88154,-1.88205 -1.3e-4,-1.039278 0.84226,-1.881908 1.88154,-1.882058 z m -34.32039,7.352008 c -0.32904,4e-5 -0.59578,0.26678 -0.59582,0.59583 4e-5,0.32905 0.26678,0.59578 0.59582,0.59582 0.32905,-4e-5 0.59579,-0.26677 0.59583,-0.59582 -4e-5,-0.32905 -0.26678,-0.59579 -0.59583,-0.59583 z"/>
  </g>
</svg>