<?xml version="1.0" encoding="UTF-8" standalone="yes"?>
<svg width="52.917mm" height="52.917mm" viewBox="0 0 52.917 52.917" version="1.1" id="svg1211" xmlns="http://www.w3.org/2000/svg" xmlns:svg="http://www.w3.org/2000/svg">
  <defs id="defs1208"/>
  <g id="layer1" transform="translate(-63.020061,-103.28542)">
    <rect style="fill:#ffffff;fill-opacity:1;stroke:none;stroke-width:2.01819" id="rect70551" width="52.917" height="52.917" x="63.020061" y="103.28542"/>
    <path id="rect853" style="stroke-width:2.4;stroke-linecap:round" d="m 88.864129,110.96521 -18.035592,11.99255 v 3.58944 l 18.035592,-12.01322 18.035591,12.01322 v -3.58944 z m -0.108521,10.08931 c -2.325564,0 -4.197677,1.8721 -4.197677,4.19767 v 2.85978 h 8.395354 v -2.85978 c 0,-2.32557 -1.872113,-4.19767 -4.197677,-4.19767 z m -4.197677,9.12554 v 17.88624 h 8.395354 v -17.88624 z m -12.697415,2.86442 c -0.241821,0.002 -0.496718,0.0111 -0.763261,0.0253 0.08964,2.80368 1.023806,3.4884 3.848344,3.22461 0.0146,-2.75513 -1.115973,-3.26336 -3.085083,-3.24993 z m 6.305041,0.13694 c -0.950779,0.94143 -1.740621,1.77655 -2.105298,2.97657 -0.0922,0.3034 -0.154756,0.62031 -0.188102,0.95704 a 5.7339253,5.7339253 0 0 0 -4.911845,5.67356 5.7339253,5.7339253 0 0 0 5.734017,5.73402 5.7339253,5.7339253 0 0 0 5.734017,-5.73402 5.7339253,5.7339253 0 0 0 -4.844149,-5.66425 c 0.02404,-0.17135 0.05893,-0.32786 0.102836,-0.47233 0.229475,-0.75512 0.751788,-1.35049 1.6738,-2.26343 z m 17.25166,3.02152 v 9.30848 c 0,1.48297 1.193872,2.67684 2.676839,2.67684 h 3.923794 c 1.48296,0 2.67684,-1.19387 2.67684,-2.67684 v -0.67386 h 1.64848 c 1.00733,0 1.78542,-0.87336 1.78542,-1.865 v -3.42977 c 0,-0.99164 -0.77809,-1.86552 -1.78542,-1.86552 h -1.64848 v -1.47433 z m 9.277473,2.9745 h 1.64848 c 0.13986,0 0.28525,0.12083 0.28525,0.36535 v 3.42977 c 0,0.24452 -0.14539,0.36535 -0.28525,0.36535 h -1.64848 z"/>
  </g>
</svg>