<?xml version="1.0" encoding="UTF-8" standalone="yes"?>
<svg width="52.917mm" height="52.917mm" viewBox="0 0 52.917 52.917" version="1.1" id="svg8839" xmlns="http://www.w3.org/2000/svg" xmlns:svg="http://www.w3.org/2000/svg">
  <defs id="defs8836"/>
  <g id="layer1" transform="translate(-78.573761,-122.21892)">
    <rect style="fill:#ffffff;fill-opacity:1;stroke:none;stroke-width:2.01819" id="rect70551" width="52.917" height="52.917" x="78.573761" y="122.21892"/>
    <path id="rect4471-5" style="stroke-width:2;stroke-linecap:round" d="m 89.976462,131.96811 c -0.18623,0.004 -0.370417,0.0325 -0.548287,0.0837 -0.517439,0.14907 -0.979236,0.49385 -1.264005,0.99632 -0.56954,1.00494 -0.228752,2.288 0.763777,2.8789 l 0.306958,-0.51573 c -0.717799,-0.42735 -0.959153,-1.34183 -0.547253,-2.06861 0.411889,-0.72679 1.321293,-0.98795 2.056722,-0.5917 0.735429,0.39626 1.015026,1.29903 0.634586,2.04277 l 0.535368,0.27389 c 0.52604,-1.02838 0.130132,-2.29791 -0.886767,-2.84582 -0.33367,-0.17979 -0.695559,-0.26128 -1.051099,-0.25373 z m 13.925248,0 c -0.18623,0.004 -0.37042,0.0325 -0.54829,0.0837 -0.51744,0.14907 -0.97923,0.49385 -1.264,0.99632 -0.56954,1.00494 -0.22875,2.288 0.76378,2.8789 l 0.30695,-0.51573 c -0.7178,-0.42735 -0.95915,-1.34183 -0.54725,-2.06861 0.41189,-0.72679 1.32129,-0.98795 2.05672,-0.5917 0.73543,0.39626 1.01503,1.29903 0.63459,2.04277 l 0.53537,0.27389 c 0.52604,-1.02838 0.13013,-2.29791 -0.88677,-2.84582 -0.33367,-0.17979 -0.69556,-0.26128 -1.0511,-0.25373 z m 13.92525,0 c -0.18623,0.004 -0.37042,0.0325 -0.54829,0.0837 -0.51744,0.14907 -0.97923,0.49385 -1.264,0.99632 -0.56954,1.00494 -0.22875,2.288 0.76377,2.8789 l 0.30696,-0.51573 c -0.7178,-0.42736 -0.95915,-1.34182 -0.54725,-2.06861 0.41189,-0.72678 1.32129,-0.98795 2.05672,-0.5917 0.73543,0.39627 1.01503,1.29903 0.63459,2.04277 l 0.53537,0.27389 c 0.52603,-1.02838 0.13013,-2.29791 -0.88677,-2.84582 -0.33367,-0.17979 -0.69556,-0.26128 -1.0511,-0.25373 z m -26.483656,3.48402 c -0.20311,-5.2e-4 -0.40489,0.0283 -0.59893,0.0842 -0.51745,0.14907 -0.978719,0.49128 -1.263489,0.99374 -0.569549,1.00494 -0.230808,2.29005 0.761711,2.88096 l 0.308508,-0.51573 c -0.717809,-0.42735 -0.960703,-1.3413 -0.548804,-2.06809 0.4119,-0.72677 1.321293,-0.99001 2.056722,-0.59376 0.73543,0.39626 1.015017,1.29904 0.634587,2.04277 l 0.535368,0.27388 c 0.526039,-1.02838 0.130131,-2.29584 -0.886768,-2.84375 -0.31778,-0.17122 -0.660376,-0.25337 -0.998905,-0.25425 z m 13.925246,0 c -0.20311,-5.2e-4 -0.40489,0.0283 -0.59893,0.0842 -0.51745,0.14907 -0.97872,0.49128 -1.26349,0.99374 -0.56955,1.00494 -0.2308,2.29005 0.76171,2.88096 l 0.30851,-0.51573 c -0.71781,-0.42735 -0.9607,-1.3413 -0.5488,-2.06809 0.4119,-0.72677 1.32129,-0.99001 2.05672,-0.59376 0.73543,0.39626 1.01502,1.29904 0.63459,2.04277 l 0.53537,0.27388 c 0.52603,-1.02838 0.13013,-2.29584 -0.88677,-2.84375 -0.31778,-0.17122 -0.66038,-0.25337 -0.99891,-0.25425 z m 13.92525,0 c -0.20311,-5.2e-4 -0.40489,0.0283 -0.59893,0.0842 -0.51745,0.14907 -0.97872,0.49128 -1.26349,0.99374 -0.56955,1.00494 -0.23081,2.29005 0.76171,2.88096 l 0.30851,-0.51573 c -0.71781,-0.42735 -0.9607,-1.3413 -0.5488,-2.06809 0.4119,-0.72677 1.32129,-0.99001 2.05672,-0.59376 0.73543,0.39626 1.01502,1.29904 0.63459,2.04277 l 0.53536,0.27388 c 0.52604,-1.02838 0.13014,-2.29584 -0.88676,-2.84375 -0.31778,-0.17122 -0.66038,-0.25336 -0.99891,-0.25425 z m -30.732491,0.78548 c -0.740279,0 -1.473301,0.36801 -1.751831,1.16169 v 0.002 l -2.52181,7.45329 -0.0021,0.006 c -0.13517,0.45356 -0.158089,0.92646 0.04134,1.32602 0.19947,0.39956 0.644804,0.66604 1.232483,0.67593 l 0.0098,-0.59997 c -0.43388,-0.007 -0.603997,-0.14157 -0.704867,-0.34364 -0.10088,-0.20207 -0.108397,-0.53009 -0.0021,-0.88677 l 2.513542,-7.43366 0.0021,-0.002 v -0.002 c 0.19564,-0.55168 0.621771,-0.75809 1.18339,-0.75809 z m 13.925251,0 c -0.74028,0 -1.4733,0.36801 -1.75183,1.16169 v 0.002 l -2.521814,7.45329 -0.0021,0.006 c -0.13517,0.45356 -0.158088,0.92646 0.04134,1.32602 0.19947,0.39956 0.644804,0.66604 1.232483,0.67593 l 0.0098,-0.59997 c -0.43388,-0.007 -0.603997,-0.14157 -0.704867,-0.34364 -0.10088,-0.20207 -0.108397,-0.53009 -0.0021,-0.88677 l 2.513538,-7.43366 0.002,-0.002 v -0.002 c 0.19564,-0.55168 0.62178,-0.75809 1.18339,-0.75809 z m 13.92525,0 c -0.74028,0 -1.47331,0.36801 -1.75184,1.16169 v 0.002 l -2.5218,7.45329 -0.002,0.006 c -0.13517,0.45356 -0.15809,0.92646 0.0413,1.32602 0.19946,0.39956 0.6448,0.66604 1.23248,0.67593 l 0.0103,-0.59997 c -0.43388,-0.007 -0.604,-0.14157 -0.70487,-0.34364 -0.10088,-0.20207 -0.1084,-0.53009 -0.002,-0.88677 l 2.51354,-7.43366 0.002,-0.002 v -0.002 c 0.19564,-0.55168 0.62177,-0.75809 1.18339,-0.75809 z m -23.723621,2.66599 a 1.9620063,1.9620063 0 0 0 -1.961637,1.96164 1.9620063,1.9620063 0 0 0 1.961637,1.96215 1.9620063,1.9620063 0 0 0 1.962154,-1.96215 1.9620063,1.9620063 0 0 0 -1.962154,-1.96164 z m 13.925251,0 a 1.9620063,1.9620063 0 0 0 -1.96164,1.96164 1.9620063,1.9620063 0 0 0 1.96164,1.96215 1.9620063,1.9620063 0 0 0 1.96215,-1.96215 1.9620063,1.9620063 0 0 0 -1.96215,-1.96164 z m 13.92525,0 a 1.9620063,1.9620063 0 0 0 -1.96164,1.96164 1.9620063,1.9620063 0 0 0 1.96164,1.96215 1.9620063,1.9620063 0 0 0 1.96215,-1.96215 1.9620063,1.9620063 0 0 0 -1.96215,-1.96164 z m -30.938168,0.85524 c -0.740279,0 -1.471751,0.3706 -1.750281,1.16427 l -0.0021,0.002 -2.519226,7.45278 -0.0021,0.006 c -0.13518,0.45357 -0.158595,0.92439 0.04082,1.32395 0.199469,0.39956 0.644793,0.6681 1.232482,0.678 l 0.0098,-0.59945 c -0.43387,-0.007 -0.603987,-0.14365 -0.704867,-0.34572 -0.100869,-0.20206 -0.110474,-0.53008 -0.0041,-0.88676 l 2.515609,-7.43572 v 0.004 c 0.19487,-0.55528 0.620668,-0.76378 1.183907,-0.76378 z m 13.925248,0 c -0.74028,0 -1.47175,0.3706 -1.75028,1.16427 l -0.002,0.002 -2.519227,7.45278 -0.0021,0.006 c -0.135179,0.45357 -0.158595,0.92439 0.04083,1.32395 0.19947,0.39956 0.644793,0.6681 1.232487,0.678 l 0.0103,-0.59945 c -0.43387,-0.007 -0.603991,-0.14365 -0.704871,-0.34572 -0.100869,-0.20206 -0.110474,-0.53008 -0.0041,-0.88676 l 2.515611,-7.43572 v 0.004 c 0.19487,-0.55528 0.62067,-0.76378 1.18391,-0.76378 z m 13.92525,0 c -0.74028,0 -1.47175,0.3706 -1.75028,1.16427 l -0.002,0.002 -2.51923,7.45278 -0.002,0.006 c -0.13518,0.45357 -0.15859,0.92438 0.0408,1.32395 0.19947,0.39956 0.6448,0.6681 1.23249,0.678 l 0.01,-0.59945 c -0.43387,-0.007 -0.60399,-0.14365 -0.70487,-0.34572 -0.10087,-0.20206 -0.11047,-0.53008 -0.004,-0.88676 l 2.51561,-7.43572 v 0.004 c 0.19487,-0.55528 0.62067,-0.76378 1.1839,-0.76378 z m -27.321331,3.47628 c -0.34905,0.003 -0.550533,0.22522 -0.667143,0.52193 l -2.714046,8.59844 c -0.11105,0.35181 0.0828,0.72456 0.434599,0.83561 l 0.03256,0.0103 c 0.351819,0.11105 0.762798,-0.0828 0.873848,-0.4346 l 2.090829,-6.62389 -0.03824,7.94112 -0.268717,10.35647 c -0.0136,0.52414 0.422402,0.94671 0.946712,0.94671 0.524279,0 0.932795,-0.42257 0.946195,-0.94671 0.10534,3.42138 0.247208,-9.95668 0.268718,-10.26552 -0.0445,-0.50063 0.924019,-0.36089 0.88005,0 0.0218,0.35024 0.191137,7.23842 0.268717,10.26552 0.0134,0.52414 0.421896,0.94671 0.946195,0.94671 0.52431,0 0.960313,-0.42257 0.946713,-0.94671 l -0.268718,-10.35647 -0.06976,-7.9251 2.090828,6.62389 c 0.11105,0.3518 0.553552,0.52963 0.905372,0.41858 l 0.03256,-0.0103 c 0.351799,-0.11105 0.545648,-0.4838 0.434599,-0.83561 l -2.714047,-8.59844 c -0.11661,-0.29672 -0.318093,-0.51893 -0.667142,-0.52193 h -1.794206 -1.102258 z m 13.925251,0 c -0.34905,0.003 -0.55054,0.22522 -0.66715,0.52193 l -2.71404,8.59844 c -0.11105,0.35181 0.0828,0.72456 0.4346,0.83561 l 0.0326,0.0103 c 0.35182,0.11105 0.7628,-0.0828 0.87385,-0.4346 l 2.09082,-6.62389 -0.0382,7.94112 -0.26871,10.35647 c -0.0136,0.52414 0.4224,0.94671 0.94671,0.94671 0.52428,0 0.9328,-0.42257 0.9462,-0.94671 0.10534,3.42138 0.2472,-9.95668 0.26871,-10.26552 -0.0445,-0.50063 0.92402,-0.36089 0.88005,0 0.0218,0.35024 0.19114,7.23842 0.26872,10.26552 0.0134,0.52414 0.4219,0.94671 0.9462,0.94671 0.5243,0 0.96031,-0.42257 0.94671,-0.94671 l -0.26872,-10.35647 -0.0698,-7.9251 2.09083,6.62389 c 0.11105,0.3518 0.55355,0.52963 0.90537,0.41858 l 0.0326,-0.0103 c 0.3518,-0.11105 0.54565,-0.4838 0.4346,-0.83561 l -2.71405,-8.59844 c -0.11661,-0.29672 -0.31809,-0.51893 -0.66714,-0.52193 h -1.79421 -1.10225 z m 13.92525,0 c -0.34905,0.003 -0.55054,0.22522 -0.66715,0.52193 l -2.71404,8.59844 c -0.11105,0.35181 0.0828,0.72456 0.4346,0.83561 l 0.0326,0.0103 c 0.35182,0.11105 0.76279,-0.0828 0.87384,-0.4346 l 2.09083,-6.62389 -0.0382,7.94112 -0.26872,10.35647 c -0.0136,0.52414 0.42241,0.94671 0.94672,0.94671 0.52428,0 0.93279,-0.42257 0.94619,-0.94671 0.10534,3.42138 0.24721,-9.95668 0.26872,-10.26552 -0.0445,-0.50063 0.92402,-0.36089 0.88005,0 0.0218,0.35024 0.19114,7.23842 0.26872,10.26552 0.0134,0.52414 0.42189,0.94671 0.94619,0.94671 0.52431,0 0.96031,-0.42257 0.94671,-0.94671 l -0.26871,-10.35647 -0.0698,-7.9251 2.09083,6.62389 c 0.11105,0.3518 0.55355,0.52963 0.90537,0.41858 l 0.0331,-0.0103 c 0.3518,-0.11105 0.54565,-0.4838 0.4346,-0.83561 l -2.71405,-8.59844 c -0.11661,-0.29672 -0.31809,-0.51893 -0.66714,-0.52193 h -1.79421 -1.10277 z m -29.653492,10.16217 v 8.35556 0.004 c 0.008,0.25214 0.158107,0.43067 0.299207,0.55087 0.141089,0.1202 0.288059,0.19703 0.421679,0.24236 l 0.19327,-0.56844 c -0.0509,-0.0173 -0.157003,-0.0722 -0.226343,-0.13126 -0.068,-0.0579 -0.08508,-0.10488 -0.08578,-0.10903 v -8.34368 z m 13.925252,0 v 8.35556 0.004 c 0.008,0.25214 0.1581,0.43067 0.2992,0.55087 0.14109,0.1202 0.28806,0.19703 0.42168,0.24236 l 0.19327,-0.56844 c -0.0509,-0.0173 -0.157,-0.0722 -0.22634,-0.13126 -0.068,-0.0579 -0.0851,-0.10488 -0.0858,-0.10903 v -8.34368 z m 13.92525,0 v 8.35556 0.004 c 0.008,0.25214 0.1581,0.43067 0.2992,0.55087 0.14109,0.1202 0.28806,0.19703 0.42168,0.24236 l 0.19327,-0.56844 c -0.0509,-0.0173 -0.157,-0.0722 -0.22634,-0.13126 -0.068,-0.0579 -0.0851,-0.10489 -0.0858,-0.10903 v -8.34368 z m -28.618414,0.71468 -0.600997,5.2e-4 v 3.92948 l 0.0016,0.008 c 0.01,0.22857 0.121686,0.38622 0.241845,0.52348 0.12015,0.13725 0.258524,0.24822 0.408244,0.32401 l 0.271818,-0.53537 c -0.0555,-0.0281 -0.157219,-0.10596 -0.226859,-0.18551 -0.0696,-0.0795 -0.0962,-0.16527 -0.0956,-0.15193 z m 13.925764,0 -0.60151,5.2e-4 v 3.92948 l 0.002,0.008 c 0.01,0.22857 0.12168,0.38622 0.24184,0.52348 0.12015,0.13725 0.25853,0.24822 0.40825,0.32401 l 0.27182,-0.53537 c -0.0555,-0.0281 -0.15722,-0.10596 -0.22686,-0.18551 -0.0696,-0.0795 -0.0962,-0.16527 -0.0956,-0.15193 z m 13.92525,0 -0.60151,5.2e-4 v 3.92948 l 0.002,0.008 c 0.01,0.22857 0.12168,0.38622 0.24184,0.52348 0.12015,0.13725 0.25853,0.24822 0.40825,0.32401 l 0.27181,-0.53537 c -0.0555,-0.0281 -0.15722,-0.10596 -0.22686,-0.18551 -0.0696,-0.0795 -0.0962,-0.16527 -0.0956,-0.15193 z"/>
  </g>
</svg>