<?xml version="1.0" encoding="UTF-8" standalone="yes"?>
<svg width="52.917mm" height="52.917mm" viewBox="0 0 52.917 52.917" version="1.1" id="svg2874" xmlns="http://www.w3.org/2000/svg" xmlns:svg="http://www.w3.org/2000/svg">
  <defs id="defs2871"/>
  <g id="layer1" transform="translate(-118.93008,-57.832928)">
    <rect style="display:inline;fill:#ffffff;fill-opacity:1;stroke:none;stroke-width:2.01819" id="rect70551" width="52.917" height="52.917" x="118.93008" y="57.832928"/>
    <path id="path2771" style="fill:#000000;stroke-width:1.7;stroke-linecap:round" d="m 145.2723,66.698703 -13.93558,8.047059 a 1.697,1.697 0 0 0 -0.40463,0.33744 h -3.78788 v 3.39463 h 36.48873 v -3.39463 h -3.91088 a 1.697,1.697 0 0 0 -0.28163,-0.20464 z m 0,3.920175 7.73338,4.464324 h -15.46572 z m -15.91169,9.101254 v 1.5999 c 0.44107,-0.0423 0.98484,0.0244 1.25005,0.35037 0.25832,0.35515 0.22102,0.93232 0.19999,1.45004 l -0.54984,14.10043 h -1.20044 v 1.95027 h 2.58175 1.59371 2.58175 v -1.95027 h -1.20044 l -0.54984,-14.10043 c -0.021,-0.51772 -0.0583,-1.09489 0.19999,-1.45004 0.26521,-0.32592 0.80898,-0.39267 1.25005,-0.35037 v -1.5999 h -2.55643 -1.04387 z m 8.63306,0 v 1.5999 c 0.44107,-0.0423 0.98484,0.0244 1.25006,0.35037 0.25831,0.35515 0.22102,0.93232 0.19999,1.45004 l -0.54984,14.10043 h -1.20045 v 1.95027 h 2.58176 1.5937 2.58176 v -1.95027 h -1.20045 l -0.54984,-14.10043 c -0.021,-0.51772 -0.0583,-1.09489 0.19999,-1.45004 0.26522,-0.32592 0.80899,-0.39267 1.25005,-0.35037 v -1.5999 h -2.55643 -1.04386 z m 8.63307,0 v 1.5999 c 0.44107,-0.0423 0.98484,0.0244 1.25005,0.35037 0.25832,0.35515 0.22102,0.93232 0.19999,1.45004 l -0.54984,14.10043 h -1.20044 v 1.95027 h 2.58175 1.59371 2.58175 v -1.95027 h -1.20044 l -0.54984,-14.10043 c -0.021,-0.51772 -0.0583,-1.09489 0.19999,-1.45004 0.26521,-0.32592 0.80899,-0.39267 1.25005,-0.35037 v -1.5999 h -2.55643 -1.04387 z m 8.63306,0 v 1.5999 c 0.44107,-0.0423 0.98484,0.0244 1.25006,0.35037 0.25831,0.35515 0.22102,0.93232 0.19999,1.45004 l -0.54984,14.10043 h -1.20045 v 1.95027 h 2.58176 1.5937 2.58175 v -1.95027 h -1.20044 l -0.54984,-14.10043 c -0.021,-0.51772 -0.0583,-1.09489 0.19999,-1.45004 0.26522,-0.32592 0.80899,-0.39267 1.25005,-0.35037 v -1.5999 h -2.55643 -1.04386 z m -28.13885,20.749638 v 1.41438 h 36.53524 v -1.41438 z"/>
  </g>
</svg>