<?xml version="1.0" encoding="UTF-8" standalone="yes"?>
<svg width="52.917mm" height="52.917mm" viewBox="0 0 52.917 52.917" version="1.1" id="svg11421" xmlns="http://www.w3.org/2000/svg" xmlns:svg="http://www.w3.org/2000/svg">
  <defs id="defs11418"/>
  <g id="layer1" transform="translate(-100.53223,-85.733849)">
    <rect style="fill:#ffffff;fill-opacity:1;stroke:none;stroke-width:2.01819" id="rect70551" width="52.917" height="52.917" x="100.53223" y="85.733849"/>
    <path id="path10414" style="color:#000000;fill:#000000;stroke-linecap:round" d="m 145.82188,92.966129 -0.4439,0.12971 c -0.9051,0.26817 -1.84424,0.45531 -2.79052,1.02888 l -0.001,0.001 c -1.20658,0.7403 -2.3864,1.78652 -3.44734,2.66341 -1.85211,1.00241 -3.66954,1.47011 -5.68337,2.19263 -0.14743,-0.24281 -0.24364,-0.48989 -0.53485,-0.48989 h -11.20659 c -0.34557,0 -0.84746,0.36035 -0.62374,0.62373 l 2.9652,3.490741 c 0.26809,0.31639 0.49963,0.64395 0.99632,0.62425 l 10.51409,0.015 c 0.45843,-0.0115 0.71431,-0.45818 0.40463,-0.91416 l -0.29198,-0.38705 -0.0114,-0.0274 c 0.82293,-0.25295 1.48075,-0.51044 1.95027,-0.68781 0.25079,-0.0947 0.44249,-0.16307 0.56793,-0.19637 0.19265,0.81251 0.27186,2.05172 -0.12437,2.77365 -0.28723,0.48619 -1.47605,1.1279 -1.90938,1.26492 -0.43335,0.13702 -1.01111,-1.34768 -1.6902,-1.83275 l -0.0899,-0.0651 h -4.08554 l 0.46354,0.56534 c 1.24217,1.51618 2.62465,3.57416 3.60302,4.28526 l 0.007,0.005 0.007,0.006 c 0.68031,0.44532 1.64869,0.31091 2.67219,0.0971 1.0235,-0.21376 2.10977,-0.56325 2.92075,-0.78548 l 0.0698,-0.0191 0.0574,-0.0465 c 1.78408,-1.45497 3.65647,-3.85337 5.60948,-5.45754 l 0.12609,-0.10336 v -8.291481 z m -0.44808,0.95602 -5.1e-4,7.487911 c -1.97742,1.65916 -4.05206,4.10041 -5.68178,5.44324 -0.82522,0.2288 -1.85237,0.5555 -2.79518,0.75241 -0.96827,0.2019 -1.82662,0.20807 -2.14612,0.002 -0.70107,-0.51294 -2.73258,-3.1799 -3.70217,-4.39253 l 2.50543,-0.0152 c 0.75286,0.49072 2.02432,2.57366 2.63939,2.37918 0.65391,-0.20676 2.10326,-1.0189 2.44854,-1.60334 0.15841,-0.80214 0.51332,-2.52937 -0.007,-3.19417 -0.24236,-0.19971 -0.42806,-0.26608 -0.63976,-0.16882 -0.18667,0.0473 -0.38631,0.12704 -0.65193,0.22738 -0.53123,0.20068 -1.18055,0.44093 -2.1047,0.71041 l -0.003,0.001 -1.36529,0.41703 c -0.61483,0.16628 -1.04583,0.12543 -1.30896,0.01 -0.26314,-0.11561 -0.42746,-0.80672 -0.46421,-1.03182 -0.0735,-0.4502 0.28153,-1.166791 1.25729,-1.497071 l 0.005,-0.001 0.005,-0.002 c 2.10795,-0.7795 4.07003,-1.24494 6.12107,-2.35903 l 0.0295,-0.016 0.0264,-0.0217 c 1.08397,-0.89425 2.26479,-1.93683 3.40651,-2.63756 0.68809,-0.41707 1.66635,-0.58118 2.4272,-0.79427 z m -29.89167,10.961601 -1.6583,3.64164 c -0.38101,-0.13592 -0.79109,-0.21032 -1.21801,-0.21032 -0.54807,0 -1.06757,0.12273 -1.53427,0.34106 v 0.78497 c 0.44636,-0.27271 0.97127,-0.42995 1.53427,-0.42995 0.32473,0 0.6374,0.0529 0.92914,0.14935 l -1.22938,2.69854 c -0.0795,0.17509 -0.002,0.38146 0.17312,0.46095 0.1748,0.08 0.38138,0.003 0.46147,-0.17156 l 1.22576,-2.69183 c 0.8308,0.51903 1.38183,1.44162 1.38183,2.49649 0,0.55229 -0.15126,1.06783 -0.41445,1.50843 h 0.78135 c 0.21077,-0.45998 0.32918,-0.97053 0.32918,-1.50843 0,-1.33029 -0.71899,-2.49673 -1.78852,-3.13108 l 0.33228,-0.73122 4.48396,4.38165 h 1.64073 c 0.054,0.34848 0.15852,0.68041 0.30437,0.98908 h 0.78755 c -0.18436,-0.29823 -0.31782,-0.63187 -0.38602,-0.98908 h 3.19722 l 2.16059,-2.16059 c 0.29909,0.46069 0.47284,1.01107 0.47284,1.603 0,0.56837 -0.16017,1.09778 -0.4377,1.54667 h 0.78755 c 0.22189,-0.46965 0.34623,-0.99387 0.34623,-1.54667 0,-0.76004 -0.23494,-1.4666 -0.63562,-2.05104 l 0.37724,-0.31057 -0.24081,-0.29353 c -0.78511,-0.95414 -1.95378,-1.46946 -3.1471,-1.44435 -0.39777,0.008 -0.79798,0.077 -1.18804,0.20929 -0.40707,0.13807 -0.78093,0.3383 -1.11207,0.58808 l -0.72709,-0.73381 1.0604,-2.29857 h 0.72399 c 0.19218,-5.1e-4 0.3476,-0.15663 0.34726,-0.34881 -2.2e-4,-0.19178 -0.15548,-0.34728 -0.34726,-0.34779 h -2.42725 c -0.19178,5.1e-4 -0.34704,0.15601 -0.34726,0.34779 -3.4e-4,0.19218 0.15508,0.3483 0.34726,0.34881 h 0.9369 l -2.37608,5.15111 c -0.67038,-0.68587 -3.6009,-3.48326 -4.03077,-3.8933 l 0.57258,-1.25781 h 0.93121 c 0.19258,6e-5 0.34864,-0.15623 0.3483,-0.34881 -2.3e-4,-0.19219 -0.15612,-0.34785 -0.3483,-0.34779 z m -7.13445,1.52549 -0.1881,7.05228 h 2.22415 l -0.18396,-6.40529 z m 13.03021,2.04846 0.46509,0.45785 c -0.60227,0.57723 -1.01578,1.33775 -1.16323,2.17764 l -0.009,0.005 h -0.6842 l 1.21595,-2.63704 z m 1.23404,6.04872 -2.61948,5.75211 c -0.60184,-0.2147 -1.24957,-0.33228 -1.92391,-0.33228 -0.86572,0 -1.68695,0.19411 -2.42415,0.53898 v 1.23972 c 0.70507,-0.43076 1.53484,-0.67903 2.42415,-0.67903 0.51293,0 1.00627,0.0832 1.46709,0.23565 l -1.94148,4.26278 c -0.12556,0.27656 -0.003,0.60253 0.27336,0.72813 0.27614,0.12616 0.60227,0.005 0.72864,-0.27131 l 1.93632,-4.25193 c 1.31231,0.81984 2.18281,2.27718 2.18281,3.94343 0,2.57223 -2.07448,4.64416 -4.64674,4.64416 -0.88931,0 -1.71907,-0.24816 -2.42414,-0.67851 v 1.24178 c 0.73719,0.34482 1.55842,0.53847 2.42414,0.53847 3.16674,0 5.74642,-2.57918 5.74642,-5.7459 0,-2.1013 -1.13627,-3.94393 -2.82567,-4.94596 l 0.52555,-1.15445 7.08225,6.92103 h 2.5921 c 0.42574,2.75006 2.81107,4.86275 5.6782,4.86275 3.16674,0 5.74642,-2.57708 5.74642,-5.74384 0,-1.20052 -0.37116,-2.31694 -1.00407,-3.24011 l 0.59583,-0.49041 -0.38086,-0.46302 c -1.24014,-1.50717 -3.08581,-2.32116 -4.97075,-2.28151 -0.62832,0.0132 -1.26077,0.12124 -1.87689,0.33021 -0.643,0.21809 -1.23341,0.53458 -1.75648,0.92914 l -1.14825,-1.15962 1.67483,-3.63078 h 1.1436 c 0.30363,-6.6e-4 0.54928,-0.24724 0.5488,-0.55087 -6.5e-4,-0.30283 -0.24598,-0.54815 -0.5488,-0.54881 h -3.83388 c -0.30282,6.6e-4 -0.54815,0.24598 -0.5488,0.54881 -4.8e-4,0.30363 0.24518,0.55021 0.5488,0.55087 h 1.4795 l -3.75326,8.13697 c -1.05891,-1.08339 -5.68805,-5.50181 -6.36705,-6.1495 l 0.90485,-1.98747 h 1.47071 c 0.30424,2e-4 0.55084,-0.24664 0.55035,-0.55087 -6.5e-4,-0.30343 -0.24692,-0.54901 -0.55035,-0.54881 z m -11.2696,2.40967 -0.38705,14.48646 h 3.69951 l -0.38705,-13.46481 z m 20.58221,3.23495 0.73432,0.72347 c -0.95133,0.91178 -1.60418,2.1134 -1.83709,3.4401 l -0.014,0.008 h -1.08108 l 1.92082,-4.16512 z m 8.84287,2.92902 c 0.47243,0.72769 0.74673,1.59717 0.74673,2.53214 0,2.57228 -2.07449,4.64417 -4.64675,4.64417 -2.27073,0 -4.15287,-1.61489 -4.56303,-3.76308 h 5.04982 z"/>
  </g>
</svg>