<?xml version="1.0" encoding="UTF-8" standalone="yes"?>
<svg width="52.917mm" height="52.917mm" viewBox="0 0 52.917 52.917" version="1.1" id="svg1891" xmlns="http://www.w3.org/2000/svg" xmlns:svg="http://www.w3.org/2000/svg">
  <defs id="defs1888"/>
  <g id="layer1" transform="translate(-120.79957,-98.089882)">
    <rect style="fill:#ffffff;fill-opacity:1;stroke:none;stroke-width:2.01819" id="rect70551" width="52.917" height="52.917" x="120.79957" y="98.089882"/>
    <path id="path1843" style="color:#000000;display:inline;fill:#000000;stroke-width:1.3;-inkscape-stroke:none" d="m 167.62375,105.58935 -13.4736,4.88808 -0.18345,-0.5116 c -0.10787,-0.30253 -0.38958,-0.51187 -0.70487,-0.52968 -0.11254,-0.006 -0.21753,0.0123 -0.31471,0.047 l -12.46487,4.44314 c -0.4067,0.14498 -0.62903,0.61337 -0.48421,1.01958 l 0.21084,0.58808 -13.3165,4.83071 v 1.38338 l 18.67535,-6.77427 -3.4954,10.18336 h -10.18852 c -0.826,0 -1.49087,0.66541 -1.49087,1.49138 v 15.36806 c 0,0.826 0.66487,1.49086 1.49087,1.49086 h 30.39504 c 0.82601,0 1.49139,-0.66486 1.49139,-1.49086 v -15.36804 c 0,-0.82597 -0.66538,-1.49138 -1.49139,-1.49138 h -10.18801 l -3.83077,-11.16004 19.36368,-7.02438 z m -20.5419,8.97723 1.13636,3.31143 h -2.27324 z m -1.58388,4.61264 h 0.0336 3.10006 0.0336 l 0.88832,2.58744 h -4.94388 z m -1.33481,3.88865 h 0.30748 5.2219 0.30748 l 0.71727,2.08928 h -7.2714 z m -11.97601,4.08709 h 6.04666 v 8.13232 h -6.04666 z m 7.91476,0 h 6.04615 v 8.13232 h -6.04615 z m 7.91425,0 h 6.04614 v 8.13232 h -6.04614 z m 7.91373,0 h 6.04614 v 8.13232 h -6.04614 z"/>
  </g>
</svg>