<?xml version="1.0" encoding="UTF-8" standalone="yes"?>
<svg width="52.917mm" height="52.917mm" viewBox="0 0 52.917 52.917" version="1.1" id="svg70418" xml:space="preserve" xmlns="http://www.w3.org/2000/svg" xmlns:svg="http://www.w3.org/2000/svg">
  <defs id="defs70415"/>
  <g id="layer1" transform="translate(-186.4424,-53.323505)">
    <rect style="fill:#ffffff;fill-opacity:1;stroke:none;stroke-width:2.01819" id="rect70551" width="52.917" height="52.917" x="186.4424" y="53.323505"/>
    <path id="path2437" style="color:#000000;fill:#000000;stroke-width:1.27244;-inkscape-stroke:none" d="m 203.11493,61.661487 c -1.36167,-0.01502 -2.51079,1.040841 -2.59571,2.415356 -0.0876,1.419114 0.99208,2.640177 2.41122,2.727483 1.41889,0.08725 2.63968,-0.991831 2.72697,-2.410706 0.0872,-1.418621 -0.9916,-2.639844 -2.41019,-2.727482 -0.0443,-0.0027 -0.0884,-0.0042 -0.13229,-0.0047 z m 13.3103,3.003951 c -1.29265,0 -2.34456,1.036595 -2.34456,2.325956 0,1.275354 1.05191,2.325956 2.34456,2.325956 1.3033,0 2.34817,-1.050602 2.34817,-2.325956 0,-1.289361 -1.04487,-2.325956 -2.34817,-2.325956 z m -14.79031,3.090767 c -0.5434,0.0095 -1.09318,0.237439 -1.54565,0.756543 l -3.58789,4.116028 c -0.088,0.100798 -0.14817,0.215977 -0.18139,0.336414 -0.0198,0.05321 -0.0351,0.109621 -0.0444,0.167948 l -1.00976,6.252849 c -0.0765,0.47394 0.24334,0.917206 0.71727,0.993737 0.47394,0.07653 0.91721,-0.24333 0.99374,-0.717269 l 0.93483,-5.793444 c 0.001,-0.0019 0.004,-0.0035 0.005,-0.0057 l 1.26193,-1.447973 c -0.6336,7.123366 -1.89921,14.032002 -3.09386,21.108789 -0.14561,0.862072 0.43086,1.67347 1.29294,1.81901 0.86206,0.145539 1.67348,-0.431384 1.81901,-1.293461 l 2.24069,-13.271025 c 0.0575,-0.02196 0.11332,-0.04682 0.16847,-0.07338 l 2.89233,4.117061 -1.13482,7.63881 c -0.17053,0.712946 0.33917,1.439145 1.05213,1.609721 0.71293,0.170574 1.42416,-0.265807 1.59474,-0.978751 l 1.44229,-8.581389 c 0.0875,-0.36537 0.0144,-0.730214 -0.1726,-1.02216 -0.0566,-0.09722 -0.12633,-0.188886 -0.20981,-0.272334 -1.38676,-1.744316 -2.32684,-3.298837 -3.87625,-5.150073 l 0.2434,-1.797307 3.10524,2.976563 c 0.34127,0.33766 0.88809,0.334031 1.22576,-0.0072 0.33766,-0.34126 0.33469,-0.88707 -0.007,-1.224732 l -3.94084,-4.199226 0.17983,-3.498495 c 0.11631,-1.336067 -0.95679,-2.437611 -2.1332,-2.550232 h -0.001 c -0.0767,-0.0073 -0.15423,-0.01066 -0.23151,-0.0093 z m 15.11225,2.096513 c -0.0987,-0.0015 -0.19873,0.003 -0.30024,0.01447 -1.08284,0.122244 -1.8715,0.95983 -1.76785,1.877921 l 0.88883,7.871871 c 0.45139,1.260498 1.20974,1.528563 2.34456,1.51412 h 5.87872 l 2.79466,6.422347 c 0.31996,0.735327 1.11417,1.093916 1.78025,0.804085 l 0.12041,-0.05271 c 0.66607,-0.289831 0.94472,-1.115206 0.62476,-1.850533 l -3.06079,-7.033679 c -0.39423,-0.76554 -0.71981,-0.954478 -1.54461,-0.98857 H 219.393 l -0.26303,-2.335258 h 4.36769 c 0.50647,0 0.91416,-0.407692 0.91416,-0.914156 0,-0.506472 -0.40769,-0.914157 -0.91416,-0.914157 h -4.57439 l -0.33435,-2.964676 c -0.0939,-0.83202 -0.88789,-1.436086 -1.84175,-1.451075 z m -2.32957,5.616195 c -2.23622,1.519836 -3.70934,4.08424 -3.70934,6.983036 0,4.648746 3.78795,8.437211 8.4367,8.437211 2.72261,0 5.14993,-1.299674 6.69416,-3.310392 l -0.89038,-2.04587 c -1.10012,2.076761 -3.28125,3.485576 -5.80378,3.485576 -3.63741,0 -6.56653,-2.92911 -6.56653,-6.566525 0,-1.879659 0.78279,-3.570152 2.04071,-4.765084 z m 17.47283,13.921114 -37.97907,8.512655 h 37.97907 z"/>
  </g>
</svg>