<?xml version="1.0" encoding="UTF-8" standalone="yes"?>
<svg width="52.917mm" height="52.917mm" viewBox="0 0 52.917 52.917" version="1.1" id="svg5362" xmlns="http://www.w3.org/2000/svg" xmlns:svg="http://www.w3.org/2000/svg">
  <defs id="defs5359"/>
  <g id="layer1" transform="translate(-107.75935,-50.630726)">
    <rect style="fill:#ffffff;fill-opacity:1;stroke:none;stroke-width:2.01819" id="rect70551" width="52.917" height="52.917" x="107.75935" y="50.630726"/>
    <path id="rect1831-9" style="display:inline;fill:#000000;fill-opacity:1;stroke-width:1.2;stroke-linecap:round" d="m 130.10342,61.507241 c -1.56225,9e-5 -2.82868,1.266529 -2.82877,2.828767 9e-5,1.562237 1.26652,2.828678 2.82877,2.828768 1.56224,-9e-5 2.82868,-1.266531 2.82877,-2.828768 -9e-5,-1.562248 -1.26653,-2.828677 -2.82877,-2.828767 z m 6.58823,5.50819 c -0.92399,-1.44e-4 -1.67314,0.748775 -1.67329,1.672765 -1.4e-4,0.92419 0.7491,1.67342 1.67329,1.67328 0.92398,-1.5e-4 1.6729,-0.7493 1.67276,-1.67328 -1.5e-4,-0.92378 -0.74898,-1.672617 -1.67276,-1.672765 z m -6.09265,0.992705 c -0.0598,5e-4 -0.12077,0.003 -0.18242,0.007 v 5.2e-4 c -0.23084,-0.005 -0.46582,0.0123 -0.70229,0.0548 -1.89176,0.33995 -3.14131,2.13691 -2.80137,4.02869 l 1.43763,7.999 c 0.35348,1.90144 1.41539,3.03051 3.56258,3.01428 h 6.07456 l 0.59996,7.93802 c 0.0719,0.96632 0.89977,1.68707 1.85674,1.61592 0.95698,-0.0712 1.66968,-0.90643 1.59783,-1.87275 l -0.80305,-10.79831 c -0.0717,-0.96403 -0.8959,-1.68319 -1.85001,-1.61592 -0.13404,-0.0327 -0.2742,-0.0495 -0.41858,-0.0506 l -3.93981,-0.0305 c -0.54308,-3.1499 -0.7038,-4.4676 -1.09193,-7.25641 -0.2441,-1.75395 -1.41493,-3.07732 -3.33984,-3.0334 z m 6.03374,3.16901 c -0.97935,0.0995 -1.68752,0.96833 -1.58802,1.94768 l 0.27543,2.70991 c 0.0995,0.97935 0.98933,1.48907 1.53893,1.49847 0.26939,-0.0108 3.22051,-0.002 3.22051,-0.002 l 1.17457,0.7917 c 0.39358,0.28481 0.93992,0.19722 1.22473,-0.19637 0.28481,-0.39358 0.21708,-0.96961 -0.19637,-1.22473 -1.07783,-0.66506 -1.62099,-0.98406 -2.10788,-0.99218 -0.49725,-0.007 -0.92445,0.002 -1.30066,0.0293 0.004,-0.0877 -0.009,-0.17331 -0.0184,-0.26337 l -0.23461,-2.31459 1.42937,0.21911 c 0.46883,0.0719 0.90427,-0.2474 0.97617,-0.71623 l 0.001,-0.008 c 0.0719,-0.46883 -0.2474,-0.90376 -0.71624,-0.97565 -1.26779,-0.19626 -2.83111,-0.53838 -3.67853,-0.50305 z m -10.84895,13.08323 v 1.70325 h 10.25105 v -1.70325 z"/>
  </g>
</svg>