<?xml version="1.0" encoding="UTF-8" standalone="yes"?>
<svg width="52.917mm" height="52.917mm" viewBox="0 0 52.917 52.917" version="1.1" id="svg5106" xmlns="http://www.w3.org/2000/svg" xmlns:svg="http://www.w3.org/2000/svg">
  <defs id="defs5103"/>
  <g id="layer1" transform="translate(-74.032814,-172.11508)">
    <rect style="fill:#ffffff;fill-opacity:1;stroke:none;stroke-width:2.01819" id="rect70551" width="52.917" height="52.917" x="74.032814" y="172.11508"/>
    <g id="g5089" transform="translate(60.63888,8.903697)">
      <path id="path4287" style="color:#000000;fill:#000000;fill-opacity:1;stroke-linecap:round;-inkscape-stroke:none" d="m 39.492251,171.02713 c -0.79147,-0.009 -1.536701,0.0441 -3.379638,0.53175 -2.356264,0.62036 -4.43037,1.7618 -6.08335,3.30264 -3.173751,2.95843 -4.78175,7.39009 -3.894336,12.30054 0.01572,0.10334 0.0144,0.13679 0.02532,0.22066 -0.200922,-0.12403 -0.368902,-0.26723 -0.675928,-0.31626 -0.471006,-0.0752 -1.047349,0.0846 -1.548743,0.55656 -0.616036,0.55394 -0.878221,1.36016 -0.896586,2.21071 -0.01844,0.85402 0.19061,1.77825 0.541052,2.69958 0.699531,1.8391 1.959481,3.66519 3.372921,4.72271 0.141909,0.11128 0.337738,0.15741 0.488342,0.14624 0.151878,-0.0113 0.266086,-0.0578 0.363286,-0.10748 0.194401,-0.0994 0.339041,-0.22294 0.472839,-0.33177 0.04537,-0.0369 0.06286,-0.0482 0.103353,-0.0801 0.0077,0.0419 0.03788,0.0384 0.04703,0.12092 0.02638,0.23769 0.03751,0.63241 0.198954,1.11311 l 0.0041,0.0119 0.0057,0.014 c 1.088394,2.72604 2.435545,5.21025 4.000273,7.05435 1.474429,1.73765 3.168634,2.93103 5.034318,3.10937 1.62036,-0.0164 2.938828,0.0207 4.352706,0.001 1.870345,-0.17425 3.566988,-1.36892 5.044653,-3.1104 0.927739,-1.09338 1.845936,-2.33186 2.551782,-3.53054 0.813509,-1.49805 1.496496,-2.94224 1.657264,-4.66276 0.0092,-0.0825 0.03877,-0.079 0.04651,-0.12092 0.0405,0.0318 0.05851,0.0432 0.10387,0.0801 0.133798,0.10883 0.277922,0.23232 0.472323,0.33177 0.0972,0.0497 0.211407,0.0963 0.363285,0.10748 0.150607,0.0112 0.346433,-0.035 0.488342,-0.14624 1.413442,-1.05752 2.673392,-2.88362 3.372921,-4.72271 0.350444,-0.92133 0.559491,-1.84504 0.541052,-2.69906 -0.01836,-0.85055 -0.278486,-1.65728 -0.894519,-2.21123 -0.501783,-0.47322 -1.079278,-0.63188 -1.55081,-0.55656 -0.305956,0.0489 -0.473279,0.1906 -0.67386,0.31419 0.01086,-0.0833 0.01025,-0.11615 0.02584,-0.21859 0.887413,-4.91046 -0.721102,-9.34212 -3.894853,-12.30054 -3.034746,-2.39613 -5.741826,-3.82051 -9.36532,-3.83439 v 5.2e-4 c -0.157718,-1.2e-4 -0.314543,0.002 -0.470772,0.006 -0.0014,-4e-5 -0.0028,3e-5 -0.0041,0 -0.118298,-0.003 -0.232131,-0.005 -0.345199,-0.007 z m 0.353984,1.00511 c 3.67636,0.0966 6.856845,1.42605 9.147762,3.56154 2.934584,2.73547 4.425607,6.7894 3.594096,11.39051 l -0.0021,0.006 v 0.008 c -0.05354,0.34927 -0.0859,0.60491 -0.09405,0.81287 -0.0081,0.20795 -0.05773,0.37448 0.150378,0.64027 0.104055,0.1329 0.327231,0.22819 0.478524,0.22272 0.151293,-0.005 0.238143,-0.0514 0.308508,-0.0879 0.140731,-0.0729 0.231194,-0.14648 0.334347,-0.22065 0.206306,-0.14833 0.424546,-0.28017 0.614949,-0.31058 0.190406,-0.0304 0.375441,-0.0192 0.709001,0.29662 l 0.0062,0.004 0.0057,0.006 c 0.366696,0.32698 0.551882,0.82282 0.566373,1.49397 0.01449,0.67114 -0.157241,1.48854 -0.474389,2.32234 -0.612846,1.61119 -1.775023,3.24558 -2.927987,4.1584 -0.06008,-0.0411 -0.117422,-0.0775 -0.205155,-0.14883 -0.127946,-0.10407 -0.260837,-0.22235 -0.437183,-0.32401 -0.08817,-0.0508 -0.188874,-0.10282 -0.340031,-0.12299 -0.148413,-0.0198 -0.368061,0.0286 -0.513664,0.154 -0.336049,0.28487 -0.450475,0.69441 -0.484208,0.99838 -0.03368,0.30352 -0.0661,0.55567 -0.150378,0.89659 -0.709167,2.86881 -2.36925,5.04437 -3.826123,6.76134 -1.457913,1.7182 -3.032534,2.76736 -4.63486,2.81482 h -3.628719 c -1.605618,0 -3.184409,-1.09435 -4.644677,-2.81533 -1.456875,-1.71697 -2.767144,-4.11359 -3.826123,-6.76186 -0.110231,-0.33343 -0.116696,-0.59255 -0.150379,-0.89607 -0.03379,-0.30445 -0.147422,-0.71502 -0.484725,-0.99994 -0.145622,-0.12411 -0.363857,-0.17216 -0.511596,-0.15245 -0.151157,0.0202 -0.251342,0.0721 -0.339515,0.12299 -0.176343,0.10166 -0.31182,0.21994 -0.439766,0.32401 -0.08756,0.0712 -0.143035,0.10772 -0.203088,0.14883 -1.152985,-0.9128 -2.314615,-2.54718 -2.92747,-4.1584 -0.31715,-0.8338 -0.491464,-1.6512 -0.476974,-2.32234 0.01449,-0.67115 0.201743,-1.16699 0.568441,-1.49397 l 0.0041,-0.006 0.0057,-0.004 c 0.33356,-0.31592 0.518595,-0.32704 0.709001,-0.29663 0.190406,0.0304 0.409162,0.16225 0.615466,0.31058 0.103153,0.0742 0.195166,0.14772 0.335897,0.22066 0.07036,0.0365 0.155151,0.0824 0.306441,0.0879 0.151293,0.005 0.376536,-0.0899 0.480591,-0.22273 0.208111,-0.26579 0.15646,-0.43284 0.148312,-0.64079 -0.0081,-0.20796 -0.03793,-0.46308 -0.09147,-0.81235 l -0.0021,-0.008 v -0.006 c -0.831512,-4.60113 0.656928,-8.65503 3.591512,-11.39052 2.28822,-2.13298 5.464495,-3.46166 9.13536,-3.56102 z m -5.352645,25.29148 c -0.607729,0.0881 -0.962052,0.19312 -1.403532,0.67231 l 0.765328,0.0925 c 0.0037,0.0407 0.01353,0.0813 0.03049,0.12092 0.91934,2.15591 3.507836,3.5015 6.301425,3.50728 2.793587,0.006 5.314423,-1.36817 6.248197,-3.51968 0.01529,-0.0355 0.02488,-0.072 0.02946,-0.10852 l 0.717785,-0.0868 c -0.441478,-0.47919 -0.795801,-0.58417 -1.403532,-0.67231 l -0.0708,0.53485 c -0.0024,0.005 -0.005,0.009 -0.0072,0.0145 -0.770417,1.77513 -2.985753,3.04276 -5.513875,3.03754 -2.528124,-0.005 -4.807474,-1.24328 -5.565552,-3.021 -0.01706,-0.0401 -0.03997,-0.0759 -0.06718,-0.10697 z"/>
      <path id="rect4508" style="fill:#b71f2e;fill-opacity:1;stroke:none;stroke-width:0.799999;stroke-linecap:round;stroke-dasharray:none;stroke-opacity:1" d="m 158.59477,111.78953 10e-6,2.13654 9.62667,-2.1e-4 -0.0166,9.62665 2.13654,0.004 0.0166,-9.63031 9.63032,-2e-4 -3.8e-4,-2.13618 -9.6263,-1.5e-4 0.0162,-9.62629 -2.13617,-0.004 -0.0166,9.6303 z" transform="rotate(44.951228)"/>
    </g>
  </g>
</svg>