<?xml version="1.0" encoding="UTF-8" standalone="yes"?>
<svg width="52.917mm" height="52.917mm" viewBox="0 0 52.917 52.917" version="1.1" id="svg5415" xmlns="http://www.w3.org/2000/svg" xmlns:svg="http://www.w3.org/2000/svg">
  <defs id="defs5412"/>
  <g id="layer1" transform="translate(-133.91461,-118.77209)">
    <rect style="fill:#ffffff;fill-opacity:1;stroke:none;stroke-width:2.01819" id="rect70551" width="52.917" height="52.917" x="133.91461" y="118.77209"/>
    <path id="path4515" style="fill:#000000;stroke-width:0.26592" d="m 170.89133,127.34124 c -0.12056,-5e-5 -0.24017,0.0562 -0.36328,0.18449 l -5.2e-4,0.01 c -0.31382,0.34445 -0.52483,1.06819 -0.53537,1.56011 l -0.14366,4.09019 -5.20433,3.64732 0.017,0.47025 c 0.0127,0.35324 0.0916,0.46201 0.5209,0.38964 l 4.78059,-1.35392 0.1142,2.58331 -2.16369,1.48156 v 0.91829 l 2.97811,-0.79788 2.97811,0.79788 v -0.91829 l -2.16369,-1.48156 0.11369,-2.58331 4.78059,1.35392 c 0.42933,0.0725 0.50795,-0.0363 0.5209,-0.38964 l 0.0176,-0.47025 -5.20485,-3.64732 -0.14367,-4.09019 c -0.0111,-0.49195 -0.22152,-1.21568 -0.53536,-1.56011 v -0.01 c -0.12296,-0.12818 -0.24269,-0.18445 -0.36329,-0.18449 z m -25.98136,19.38797 c -0.82214,0 -1.48363,0.66199 -1.48363,1.48414 v 10.47533 c 0,0.82214 0.66149,1.48415 1.48363,1.48415 h 1.17668 a 4.2420897,4.2420897 0 0 1 4.2323,-4.0814 4.2420897,4.2420897 0 0 1 4.23281,4.0814 h 11.38277 a 4.2420897,4.2420897 0 0 1 4.23282,-4.0814 4.2420897,4.2420897 0 0 1 4.2323,4.0814 h 1.43609 c 0.82214,0 1.48414,-0.66201 1.48414,-1.48415 v -10.47533 c 0,-0.82215 -0.662,-1.48414 -1.48414,-1.48414 z m 0.17674,1.89704 h 6.10453 c 0.19602,0 0.35399,0.15744 0.35399,0.35346 v 4.30879 c 0,0.19602 -0.15797,0.35398 -0.35399,0.35398 h -6.10453 c -0.19602,0 -0.35399,-0.15796 -0.35399,-0.35398 v -4.30879 c 0,-0.19602 0.15797,-0.35346 0.35399,-0.35346 z m 8.07134,0 h 6.10454 c 0.19602,0 0.35398,0.15744 0.35398,0.35346 v 4.30879 c 0,0.19602 -0.15796,0.35398 -0.35398,0.35398 h -6.10454 c -0.19602,0 -0.35398,-0.15796 -0.35398,-0.35398 v -4.30879 c 0,-0.19602 0.15796,-0.35346 0.35398,-0.35346 z m 8.07134,0 h 6.10454 c 0.19602,0 0.35398,0.15744 0.35398,0.35346 v 4.30879 c 0,0.19602 -0.15796,0.35398 -0.35398,0.35398 h -6.10454 c -0.19602,0 -0.35398,-0.15796 -0.35398,-0.35398 v -4.30879 c 0,-0.19602 0.15796,-0.35346 0.35398,-0.35346 z m 8.07134,0 h 6.10454 c 0.19602,0 0.35398,0.15744 0.35398,0.35346 v 4.30879 c 0,0.19602 -0.15796,0.35398 -0.35398,0.35398 h -6.10454 c -0.19602,0 -0.35398,-0.15796 -0.35398,-0.35398 v -4.30879 c 0,-0.19602 0.15796,-0.35346 0.35398,-0.35346 z m -18.98178,8.92038 a 2.7867742,2.7867742 0 0 0 -2.7864,2.7864 2.7867742,2.7867742 0 0 0 2.7864,2.78691 2.7867742,2.7867742 0 0 0 2.78691,-2.78691 2.7867742,2.7867742 0 0 0 -2.78691,-2.7864 z m 19.8484,0 a 2.7867742,2.7867742 0 0 0 -2.78691,2.7864 2.7867742,2.7867742 0 0 0 2.78691,2.78691 2.7867742,2.7867742 0 0 0 2.78691,-2.78691 2.7867742,2.7867742 0 0 0 -2.78691,-2.7864 z"/>
  </g>
</svg>