<?xml version="1.0" encoding="UTF-8" standalone="yes"?>
<svg width="52.917mm" height="52.917mm" viewBox="0 0 52.917 52.917" version="1.1" id="svg9552" xmlns="http://www.w3.org/2000/svg" xmlns:svg="http://www.w3.org/2000/svg">
  <defs id="defs9549"/>
  <g id="layer1" transform="translate(-64.052513,-153.87521)">
    <rect style="fill:#ffffff;fill-opacity:1;stroke:none;stroke-width:2.01819" id="rect70551" width="52.917" height="52.917" x="64.052513" y="153.87521"/>
    <g id="g9535" transform="translate(71.069615,2.290358)">
      <path id="path8539" style="display:inline;fill:#000000;fill-opacity:1;stroke:none;stroke-width:0.799999;stroke-linecap:round" d="m 11.397877,167.19393 c -2.1577283,0.0513 -3.5885294,11.46236 -3.8715978,15.14223 -1.8287142,0.008 -3.6433191,-0.0647 -5.4590983,-0.25838 -3.3373637,-0.42075 2.5572356,3.06412 3.4933268,3.36879 6.6075323,1.76225 7.5078783,2.03326 13.6642823,2.01279 6.317802,0.0572 9.951667,-0.78186 13.664282,-2.01279 0.936091,-0.30467 6.830692,-3.78954 3.493327,-3.36879 -1.815779,0.19365 -3.630384,0.26638 -5.459098,0.25838 -0.283069,-3.67987 -1.713869,-15.09093 -3.871599,-15.14223 -2.661098,0 -5.187186,1.22662 -7.826912,1.35548 -2.639726,-0.12886 -5.165813,-1.35548 -7.826913,-1.35548 z m 7.528223,17.03101 c 5.654527,0 10.238155,0.50723 10.238135,1.05368 -3.7e-5,0.54644 -4.588815,1.20664 -10.243303,1.20664 -5.654487,0 -10.2334467,-0.6602 -10.2334834,-1.20664 -2.04e-5,-0.54645 4.5841244,-1.05368 10.2386514,-1.05368 z"/>
      <rect style="fill:#b71f2e;fill-opacity:1;stroke:none;stroke-width:0.799999;stroke-linecap:round" id="rect9462" width="53.686893" height="2.6653202" x="112.63995" y="111.01407" transform="rotate(44.918631)"/>
    </g>
  </g>
</svg>