<?xml version="1.0" encoding="UTF-8" standalone="yes"?>
<svg width="52.917mm" height="52.917mm" viewBox="0 0 52.917 52.917" version="1.1" id="svg658" xmlns="http://www.w3.org/2000/svg" xmlns:svg="http://www.w3.org/2000/svg">
  <defs id="defs655"/>
  <g id="layer1" transform="translate(-100.57376,-77.154404)">
    <rect style="fill:#ffffff;fill-opacity:1;stroke:none;stroke-width:2.01819" id="rect70551" width="52.917" height="52.917" x="100.57376" y="77.154404"/>
    <path id="rect364" style="fill:#1f0000;stroke-width:1.2;stroke-linecap:round" d="m 134.78038,89.89126 a 1.7955666,1.7955666 0 0 0 -1.79575,1.79576 1.7955666,1.7955666 0 0 0 1.79576,1.79524 1.7955666,1.7955666 0 0 0 1.79523,-1.79525 1.7955666,1.7955666 0 0 0 -1.79524,-1.79575 z m 2.59572,3.22358 c -0.52035,-0.009 -1.53634,0.44412 -1.67019,1.1467 l -1.21749,6.43527 c -0.0633,0.33469 0.15519,0.65499 0.48989,0.7183 0.33469,0.0633 0.65551,-0.15521 0.71882,-0.4899 l 0.84801,-4.48499 3.22047,2.5554 c 0.16506,0.10277 0.0879,0.29228 -0.0481,0.41237 l -2.52439,1.95493 c -0.31657,0.36501 -0.35137,0.75439 -0.31936,1.15187 l 0.008,0.70537 -8.12508,3.52227 -10e-6,-0.14159 10e-6,-0.6873 c -10e-6,-0.86003 -0.69233,-1.55236 -1.55236,-1.55236 -0.86005,0 -1.55237,0.69231 -1.55237,1.55236 v 2.17454 l -8.08581,3.50522 c 0.0368,-0.67916 -0.26957,-1.09188 -0.90588,-0.99787 l -3.38171,0.5674 1.78335,-3.95272 c 0.008,-0.017 0.014,-0.034 0.0207,-0.0512 l 3.17396,2.55385 c 0.30105,0.24225 0.73862,0.19462 0.98082,-0.10645 0.24225,-0.30104 0.19462,-0.73863 -0.10645,-0.98082 l -4.75785,-3.82768 c -1.16219,-0.71007 -2.08473,-0.37774 -2.69544,0.88574 l -2.27014,5.03173 c -0.42295,0.93738 -0.009,2.03272 0.92863,2.45567 0.69919,0.41525 2.63937,0.0155 4.33668,-0.3235 l -7.09828,3.07682 c -0.1748,0.0758 -0.23646,0.32005 -0.13797,0.54725 l 0.185,0.42685 c 0.0985,0.22721 0.31871,0.34915 0.49351,0.27337 l 7.66981,-3.32486 -0.33434,2.67787 c -0.0479,0.38341 0.22172,0.73085 0.60513,0.77877 l 0.0904,0.0114 c 0.38341,0.0479 0.73085,-0.22224 0.77877,-0.60564 l 0.44338,-3.54863 8.28373,-3.59047 v 3.97236 3.79201 l 3.10472,1e-5 v -9.11055 l 8.14317,-3.53002 0.0362,2.99619 c 0.005,0.4083 0.3291,0.73691 0.73742,0.73691 0.40832,10e-6 0.73691,-0.32858 0.73691,-0.7369 l -1e-5,-3.65094 8.07961,-3.50211 c 0.17482,-0.0758 0.23647,-0.32005 0.13798,-0.54726 l -0.185,-0.42685 c -0.0739,-0.17041 -0.21632,-0.28158 -0.35657,-0.29455 -0.0467,-0.004 -0.0932,0.002 -0.13694,0.0212 l -5.256,2.27841 2.44325,-1.83709 c 0.58714,-0.46614 0.70801,-2.1264 -0.005,-2.697 l -4.62814,-3.53622 c -0.33442,-0.26534 -0.73332,-0.39035 -1.12757,-0.38292 z m -23.07612,7.37732 a 1.7955666,1.7955666 0 0 0 -1.79575,1.79576 1.7955666,1.7955666 0 0 0 1.79575,1.79524 1.7955666,1.7955666 0 0 0 1.79524,-1.79524 1.7955666,1.7955666 0 0 0 -1.79524,-1.79576 z"/>
  </g>
</svg>