<?xml version="1.0" encoding="UTF-8" standalone="yes"?>
<svg width="52.917mm" height="52.917mm" viewBox="0 0 52.917 52.917" version="1.1" id="svg4294" xmlns="http://www.w3.org/2000/svg" xmlns:svg="http://www.w3.org/2000/svg">
  <defs id="defs4291"/>
  <g id="layer1" transform="translate(-134.28343,-135.34795)">
    <rect style="fill:#ffffff;fill-opacity:1;stroke:none;stroke-width:2.01819" id="rect70551" width="52.917" height="52.917" x="134.28343" y="135.34795"/>
    <path id="rect74478" style="stroke-width:0.775771" d="m 149.46665,145.16432 c -0.002,10.19344 -10e-4,20.38962 -10e-4,30.5847 h -5.12682 v 2.69958 h 7.82795 v -30.01006 h 17.15244 v 30.01006 h 7.82588 v -2.69958 h -5.12682 c 0.001,-10.19508 -0.001,-20.39126 -0.001,-30.5847 z m 6.92516,0.67231 h 3.41426 v 1.84744 h -3.41426 z m 5.28495,0 h 3.41478 v 1.84744 h -3.41478 z m 0.6904,0.38034 v 1.02888 h 2.3151 v -1.02888 z m -1.62936,4.32894 c -1.17431,-1e-5 -2.12649,0.95217 -2.12649,2.12648 0,1.1743 0.95219,2.12598 2.12649,2.12597 1.1743,1e-5 2.12598,-0.95167 2.12597,-2.12597 1e-5,-1.17431 -0.95166,-2.12649 -2.12597,-2.12648 z m -2.4753,4.81262 c -0.72364,0.0942 -0.87996,0.52514 -1.07694,1.00511 l -2.60036,8.23516 c -0.15738,0.49841 0.0741,1.01297 0.51883,1.15341 0.44478,0.14044 0.92939,-0.14806 1.08676,-0.64647 l 2.15077,-6.81095 v 4.73304 l -2.03398,13.94954 c -0.0949,0.65108 0.35248,1.25174 1.00355,1.34669 l 0.0284,0.004 c 0.65108,0.0949 1.25173,-0.35247 1.34668,-1.00356 l 1.55133,-10.63759 c 0.01,-0.34161 0.98594,-0.35529 1.01028,0.009 l 1.54977,10.62829 c 0.095,0.65109 0.6956,1.0985 1.34669,1.00355 l 0.0284,-0.004 c 0.65109,-0.0949 1.09851,-0.69561 1.00356,-1.34669 l -2.03399,-13.94902 v -4.73356 l 2.15078,6.81096 c 0.15736,0.4984 0.64198,0.7869 1.08675,0.64647 0.4448,-0.14044 0.6762,-0.65501 0.51883,-1.15342 l -2.60036,-8.23516 c -0.19423,-0.55433 -0.58176,-0.99237 -1.07693,-1.00459 h -0.93018 -1.03094 -2.06758 z"/>
  </g>
</svg>