<?xml version="1.0" encoding="UTF-8" standalone="yes"?>
<svg width="52.917mm" height="52.917mm" viewBox="0 0 52.917 52.917" version="1.1" id="svg1089" xmlns="http://www.w3.org/2000/svg" xmlns:svg="http://www.w3.org/2000/svg">
  <defs id="defs1086"/>
  <g id="layer1" transform="translate(-188.57376,-109.44473)">
    <rect style="fill:#ffffff;fill-opacity:1;stroke:none;stroke-width:2.01819" id="rect70551" width="52.917" height="52.917" x="188.57376" y="109.44473"/>
    <path id="path917" style="fill:#000000;stroke-width:4.04698" d="m 218.8853,125.93666 -5.64152,8.46357 -12.31398,0.95963 c -4.46542,0.31793 -6.48546,1.82059 -6.44456,2.96003 0.0398,1.11042 2.02836,1.92405 5.46064,1.81642 a 0.92036289,0.92036289 0 0 0 -0.38188,0.74518 0.92036289,0.92036289 0 0 0 0.92035,0.92036 0.92036289,0.92036289 0 0 0 0.92036,-0.92036 0.92036289,0.92036289 0 0 0 -0.4656,-0.79995 c 0.20035,-0.0154 0.40337,-0.033 0.61184,-0.0543 l 12.80388,-0.50953 a 0.92036289,0.92036289 0 0 0 -0.60824,0.86506 0.92036289,0.92036289 0 0 0 0.92037,0.92036 0.92036289,0.92036289 0 0 0 0.92035,-0.92036 0.92036289,0.92036289 0 0 0 -0.67593,-0.88728 l 1.9637,-0.078 a 0.92036289,0.92036289 0 0 0 -0.57826,0.85422 0.92036289,0.92036289 0 0 0 0.92036,0.92035 0.92036289,0.92036289 0 0 0 0.92036,-0.92035 0.92036289,0.92036289 0 0 0 -0.64699,-0.87902 l 5.90868,-0.23513 10.34717,-2.35696 1.50172,-8.33851 -3.30005,-0.18655 -3.11196,5.78208 -7.50032,-0.0388 1.55547,-8.02277 z m -24.35201,18.53427 v 1.39888 h 41.04659 v -1.39888 z"/>
  </g>
</svg>