<?xml version="1.0" encoding="UTF-8" standalone="yes"?>
<svg width="52.917mm" height="52.917mm" viewBox="0 0 52.917 52.917" version="1.1" id="svg9555" xmlns="http://www.w3.org/2000/svg" xmlns:svg="http://www.w3.org/2000/svg">
  <defs id="defs9552"/>
  <g id="layer1" transform="translate(-78.16259,-70.935478)">
    <rect style="fill:#ffffff;fill-opacity:1;stroke:none;stroke-width:2.01819" id="rect70551" width="52.917" height="52.917" x="78.16259" y="70.935478"/>
    <path id="rect74478" style="stroke-width:0.51536" d="m 104.62083,76.655708 -2.08825,1.934765 -0.0165,2.189014 1.35703,-0.998389 0.016,3.63337 h 1.46399 l 0.016,-3.63337 1.35651,0.998389 -0.0165,-2.189014 z m -16.780884,2.458248 v 33.208314 h 2.71301 V 79.113956 Z m 30.849784,0.04702 v 33.208314 h 2.7125 V 79.160981 Z m -25.313694,5.438428 v 1.124479 h 22.489584 v -1.124479 z m 4.56148,3.466455 c -0.7781,-7e-6 -1.4087,0.630609 -1.4087,1.4087 0,0.778088 0.63061,1.409223 1.4087,1.409216 0.778077,7e-6 1.408697,-0.631128 1.408697,-1.409216 0,-0.778091 -0.63062,-1.408707 -1.408697,-1.4087 z m 9.357044,2.694926 c -0.77496,0 -1.40559,0.621227 -1.40559,1.39423 0,0.764606 0.63063,1.394747 1.40559,1.394747 0.78136,0 1.40767,-0.630141 1.40767,-1.394747 0,-0.773003 -0.62631,-1.39423 -1.40767,-1.39423 z m 6.93033,0.363802 c -0.24236,-1.39e-4 -0.43886,0.196369 -0.43873,0.438733 1.5e-4,0.242162 0.19657,0.438355 0.43873,0.438216 0.24196,-1.54e-4 0.43807,-0.196261 0.43822,-0.438216 1.3e-4,-0.242157 -0.19606,-0.438579 -0.43822,-0.438733 z m -17.927584,0.130225 c -0.47948,0.0624 -0.58261,0.348081 -0.71313,0.666109 l -1.72289,5.456514 c -0.10428,0.330242 0.0489,0.670726 0.34364,0.763778 0.29472,0.09306 0.61558,-0.09764 0.71986,-0.427881 l 1.42523,-4.512903 v 3.136243 l -1.34772,9.242848 c -0.0628,0.4314 0.23369,0.82902 0.66508,0.89194 l 0.0186,0.003 c 0.4314,0.0629 0.82953,-0.23367 0.89245,-0.66508 l 1.02785,-7.04815 c 0.007,-0.226357 0.65309,-0.235379 0.66921,0.0062 l 1.026807,7.04195 c 0.0629,0.4314 0.46104,0.72799 0.892447,0.66507 l 0.0186,-0.003 c 0.43141,-0.0629 0.72799,-0.46053 0.66508,-0.89193 l -1.347717,-9.242849 v -3.136243 l 1.425227,4.512903 c 0.10428,0.330241 0.42516,0.520933 0.71986,0.427881 0.29472,-0.09305 0.44792,-0.433537 0.34364,-0.763778 l -1.72289,-5.456514 c -0.12871,-0.367292 -0.385027,-0.658009 -0.713127,-0.666109 h -0.6165 -0.683157 -1.36995 z m 17.927584,1.884122 c -0.24216,-1.39e-4 -0.43858,0.196055 -0.43873,0.438217 -1.3e-4,0.242363 0.19637,0.438871 0.43873,0.438732 0.24216,-1.54e-4 0.43835,-0.196576 0.43822,-0.438732 -1.5e-4,-0.241955 -0.19626,-0.438063 -0.43822,-0.438217 z m -6.73757,0.731739 c -0.0592,-8.99e-4 -0.11897,0.0019 -0.17984,0.0088 -0.64918,0.07329 -1.12202,0.575095 -1.05988,1.125512 l 0.53278,4.719614 c 0.27062,0.755691 0.72526,0.916611 1.4056,0.907951 h 3.52434 l 1.67586,3.84989 c 0.19182,0.44085 0.66779,0.65591 1.06712,0.48215 l 0.0724,-0.0315 c 0.39932,-0.17376 0.56647,-0.66866 0.37465,-1.1095 l -1.83503,-4.216791 c -0.23634,-0.458965 -0.43156,-0.572295 -0.92604,-0.592734 h -3.06545 l -0.15761,-1.399915 h 2.61845 c 0.30365,0 0.54777,-0.244649 0.54777,-0.548286 0,-0.303642 -0.24412,-0.547771 -0.54777,-0.547771 h -2.74247 l -0.20051,-1.777669 c -0.0563,-0.498816 -0.53245,-0.860728 -1.10432,-0.869714 z m 6.73757,1.282092 c -0.24236,-1.39e-4 -0.43886,0.196369 -0.43873,0.438733 1.5e-4,0.242162 0.19657,0.438355 0.43873,0.438216 0.24196,-1.54e-4 0.43807,-0.196261 0.43822,-0.438216 1.3e-4,-0.242157 -0.19606,-0.438579 -0.43822,-0.438733 z m -8.13387,2.085144 c -1.34067,0.911179 -2.22415,2.44841 -2.22415,4.186311 0,2.78704 2.27105,5.05809 5.05809,5.05809 1.63226,0 3.08738,-0.7789 4.01319,-1.98438 l -0.53382,-1.2268 c -0.65955,1.24508 -1.96705,2.0898 -3.47937,2.0898 -2.18071,0 -3.93671,-1.75599 -3.93671,-3.93671 0,-1.1269 0.46902,-2.140285 1.22318,-2.856676 z M 93.376036,109.06406 v 1.12448 h 22.489584 v -1.12448 z m 10.513054,2.30942 -0.016,3.63337 -1.35703,-0.99839 0.0165,2.18902 2.08825,1.93477 2.08824,-1.93477 0.0165,-2.18902 -1.35651,0.99839 -0.016,-3.63337 z"/>
  </g>
</svg>