<?xml version="1.0" encoding="UTF-8" standalone="yes"?>
<svg width="52.917mm" height="52.917mm" viewBox="0 0 52.917 52.917" version="1.1" id="svg10399" xml:space="preserve" xmlns="http://www.w3.org/2000/svg" xmlns:svg="http://www.w3.org/2000/svg">
  <defs id="defs10396"/>
  <g id="layer1" transform="translate(-71.122147,-157.70279)">
    <rect style="fill:#ffffff;fill-opacity:1;stroke:none;stroke-width:2.01819" id="rect70551" width="52.917" height="52.917" x="71.122147" y="157.70279"/>
    <path id="path8457" style="display:inline;fill:#000000;fill-opacity:1;stroke:none;stroke-width:0.935721;stroke-opacity:1" d="m 94.9653,167.54275 c -0.692313,0.60755 -1.132076,1.58811 -1.109493,2.84944 h 0.001 c -1.81e-4,0.002 -3.53e-4,0.004 -5.16e-4,0.006 2.09e-4,0.33118 0.268782,0.59952 0.599963,0.59945 0.331181,7e-5 0.599754,-0.26827 0.599963,-0.59945 -1.44e-4,-0.009 -5.54e-4,-0.0179 -0.0091,-0.51698 -0.0086,-0.49908 0.29513,-1.07137 0.710946,-1.43628 0.416417,-0.36543 0.997118,-0.52857 1.578198,-0.50023 0.807817,0.0394 1.505844,0.5969 1.660364,1.25781 0.15452,0.66091 -0.11408,1.58411 -1.765783,2.54506 l -0.0057,0.002 -0.0062,0.004 c -0.524233,0.32191 -0.637872,0.918 -0.630969,1.27537 0.01662,0.86067 0.05161,1.56963 0.07441,1.97869 -1.011616,0.27759 -6.993249,1.91949 -12.910323,3.57963 -1.568611,0.44006 -2.438787,1.6163 -2.368848,2.7714 0.06994,1.15513 1.144771,2.13617 2.668054,2.10737 3.442577,0.0464 8.809411,0.048 13.446725,0.0372 4.637429,0.0108 10.005059,0.01 13.447759,-0.0367 1.52329,0.0288 2.59967,-0.95224 2.66961,-2.10737 0.0699,-1.15512 -0.80231,-2.33186 -2.37092,-2.77192 -6.24367,-1.75177 -12.95222,-3.5911 -13.381097,-3.70882 -0.01733,-0.28225 -0.05574,-0.82448 -0.07596,-1.8712 -0.0033,-0.17149 -0.0045,-0.19063 0.06046,-0.23048 1.907804,-1.11508 2.610647,-2.59652 2.318207,-3.84731 -0.293143,-1.25381 -1.571685,-2.12002 -2.702573,-2.1571 -1.130889,-0.0371 -1.849138,0.20085 -2.498177,0.77042 z m 2.532145,8.47804 c 0.574545,0.15777 7.255815,1.99296 13.422955,3.72328 1.16964,0.32813 1.52724,1.02756 1.49603,1.54306 -0.0312,0.51549 -0.38618,1.00037 -1.44746,0.9803 h -0.01 -0.01 c -1.23678,0.0168 -2.77382,0.026 -13.457834,0.0263 -10.684014,3e-4 -12.196633,-0.01 -13.442329,-0.0268 h -0.0098 -0.0098 c -1.061279,0.0201 -1.417796,-0.46482 -1.449007,-0.98031 -0.03121,-0.51545 0.326388,-1.21492 1.496033,-1.54305 6.166006,-1.73001 12.844085,-3.56439 13.420886,-3.72277 z m -11.331608,14.87557 -5.17e-4,0.0196 c -0.08367,0.007 -0.17078,0.017 -0.251664,0.0305 -0.567509,0.095 -1.054166,0.35161 -1.473295,0.6103 -0.275248,0.16989 -0.530653,0.40762 -0.749825,0.61547 -0.219165,0.20785 -0.38654,0.38498 -0.38654,0.38498 l -0.151929,0.15917 v 1.53065 h -0.860412 c -1.410433,0 -2.545581,2.48735 -2.545581,5.57692 0,0.61506 0.0455,1.20559 0.128674,1.75804 h 13.078271 c 0.08321,-0.55245 0.129192,-1.14298 0.129192,-1.75804 0,-3.08957 -1.135642,-5.57692 -2.546098,-5.57692 H 89.56873 v -1.53065 l -0.151929,-0.15917 c 0,0 -0.167375,-0.17713 -0.38654,-0.38498 -0.219171,-0.20785 -0.477151,-0.44557 -0.752408,-0.61547 -0.419094,-0.25869 -0.905259,-0.51536 -1.472779,-0.6103 -0.08046,-0.0135 -0.167067,-0.0233 -0.250114,-0.0305 v -0.0196 c 0,0 -0.08138,6e-4 -0.19482,0.006 -0.113271,-0.006 -0.194303,-0.006 -0.194303,-0.006 z m 0.194303,1.11311 c 0.111795,0.007 0.22868,0.0154 0.26355,0.0212 0.341599,0.0572 0.712719,0.23707 1.07797,0.46251 0.115938,0.0716 0.373634,0.28874 0.571025,0.47594 0.111703,0.10593 0.134001,0.13095 0.196887,0.19482 v 1.08313 h -4.218864 v -1.08313 c 0.06287,-0.0639 0.08499,-0.0891 0.196371,-0.19482 0.19739,-0.1872 0.455603,-0.40438 0.571541,-0.47594 0.365251,-0.22544 0.735855,-0.40535 1.077454,-0.46251 0.03482,-0.005 0.152408,-0.0139 0.264066,-0.0212 z m 17.25321,1.45831 c -0.10287,8e-5 -0.21214,0.0133 -0.3297,0.0429 v -5.1e-4 c -1.59516,0.50149 -1.22888,3.13656 -1.22783,4.50928 h 4.79868 0.0227 4.79867 c 10e-4,-1.37272 0.36682,-4.00779 -1.22835,-4.50928 v 5.1e-4 c -1.20514,-0.3037 -1.50761,1.09099 -3.58169,1.18908 -1.87153,-0.0886 -2.30094,-1.23274 -3.25252,-1.23197 z m -1.59267,5.84771 v 1.0914 h -3.183265 c -0.288576,0 -0.520899,0.23232 -0.520899,0.5209 0,0.28857 0.232323,0.5209 0.520899,0.5209 h 16.056905 c 0.28857,0 0.52089,-0.23233 0.52089,-0.5209 0,-0.28858 -0.23232,-0.5209 -0.52089,-0.5209 h -3.18327 v -1.0914 z"/>
  </g>
</svg>