<?xml version="1.0" encoding="UTF-8" standalone="yes"?>
<svg width="52.917mm" height="52.917mm" viewBox="0 0 52.917 52.917" version="1.1" id="svg3456" xmlns="http://www.w3.org/2000/svg" xmlns:svg="http://www.w3.org/2000/svg">
  <defs id="defs3453"/>
  <g id="layer1" transform="translate(-145.51865,-75.935791)">
    <rect style="display:inline;fill:#ffffff;fill-opacity:1;stroke:none;stroke-width:2.01819" id="rect70551" width="52.917" height="52.917" x="145.51865" y="75.935791"/>
    <path id="rect3393" style="display:inline;fill:#000000;stroke-width:3.394;stroke-linecap:round" d="m 174.57619,83.075568 a 2.7711716,2.7711716 0 0 0 -2.77089,2.7709 2.7711716,2.7711716 0 0 0 2.77089,2.77141 2.7711716,2.7711716 0 0 0 2.7714,-2.77141 2.7711716,2.7711716 0 0 0 -2.7714,-2.7709 z m -3.08044,6.78461 c -1.00495,0.14015 -1.99966,0.71933 -2.31562,1.61127 l -3.21789,9.421132 c -0.25006,0.73219 0.13485,1.52175 0.863,1.77043 0.72814,0.24868 1.51572,-0.14062 1.76578,-0.87281 l 2.2748,-6.660582 v 6.455422 c -0.0224,0.10528 -0.0346,0.21444 -0.0346,0.3266 v 18.25108 c 0,0.85875 0.69155,1.55029 1.55029,1.55029 0.85874,0 1.54978,-0.69154 1.54978,-1.55029 v -13.75575 c 0.008,-0.53256 1.24841,-0.47842 1.25005,0 v 13.75575 c 0,0.85874 0.69155,1.55029 1.55029,1.55029 0.85875,0 1.54978,-0.69155 1.54978,-1.55029 v -15.63936 c 0.21059,0.18219 0.48539,0.29249 0.78703,0.29249 0.66599,0 1.202,-0.536 1.202,-1.20199 V 92.900818 c -0.001,-0.30015 0.0101,-0.49203 0,-0.78445 0,-1.25006 -1.00614,-2.25619 -2.2562,-2.25619 z m -5.22035,13.437942 -0.0114,0.002 c -0.80368,0.0273 -1.48632,0.37709 -1.92805,0.92811 -0.44172,0.55102 -0.653,1.27525 -0.65629,2.05465 v 0.002 15.37219 h 1.00046 v -15.37064 -0.002 c 0.003,-0.60061 0.16689,-1.09531 0.43511,-1.42989 0.26587,-0.33165 0.62956,-0.52875 1.16996,-0.55087 0.50944,0.0114 0.73832,0.17358 0.92397,0.48628 0.18798,0.31661 0.28415,0.83279 0.2713,1.418 v 0.006 0.74776 a 0.5,0.5 0 0 0 0.50023,0.50022 0.5,0.5 0 0 0 0.49971,-0.50022 v -0.73226 c 0.0153,-0.69607 -0.0744,-1.38074 -0.41186,-1.94923 -0.3375,-0.5685 -0.97814,-0.97082 -1.78128,-0.98237 z"/>
  </g>
</svg>