<?xml version="1.0" encoding="UTF-8" standalone="yes"?>
<svg width="52.917mm" height="52.917mm" viewBox="0 0 52.917 52.917" version="1.1" id="svg16593" xmlns="http://www.w3.org/2000/svg" xmlns:svg="http://www.w3.org/2000/svg">
  <defs id="defs16590"/>
  <g id="layer1" transform="translate(-47.18924,-106.7269)">
    <rect style="fill:#ffffff;fill-opacity:1;stroke:none;stroke-width:2.01819" id="rect70551" width="52.917" height="52.917" x="47.18924" y="106.7269"/>
    <path id="rect16436" style="stroke-width:1.5" d="m 70.82068,114.45688 a 2.8442707,2.8442707 0 0 0 -2.844271,2.84427 2.8442707,2.8442707 0 0 0 2.844271,2.84427 2.8442707,2.8442707 0 0 0 2.844271,-2.84428 2.8442707,2.8442707 0 0 0 -2.844271,-2.84426 z m -2.881478,6.5474 c -0.41159,8.3e-4 -0.855278,0.005 -1.350822,0.0134 -0.203758,0.003 -0.467908,0.10046 -0.661459,0.31884 -3.008611,3.39469 -4.813855,7.58235 -7.095173,11.22774 -0.272449,0.43395 -0.142503,1.00292 0.291454,1.27538 0.433958,0.27244 1.002929,0.14246 1.275376,-0.29146 l 4.587832,-7.30757 0.185009,0.017 0.0646,0.34417 c -0.368789,1.72118 -1.210372,3.50096 -1.339453,5.21208 L 62.512671,150.159 c -0.05996,0.79465 0.531356,1.48258 1.326018,1.54254 0.794662,0.06 1.482581,-0.53136 1.542541,-1.32602 l 1.105876,-14.6544 c 0.0137,-0.4574 0.230408,-0.70594 0.632002,-0.73485 0.527891,0.009 0.653512,0.22038 0.744142,0.73277 l 1.442806,6.47713 -0.01085,8.27753 c -0.0011,0.79692 0.639681,1.43923 1.436605,1.44022 0.79692,0.001 1.439122,-0.63968 1.440222,-1.43661 l 0.0093,-7.05537 c 0,0 0.0013,-1.22576 -0.01964,-2.02159 -0.580417,-3.42743 -1.293283,-5.60003 -1.981272,-8.31731 l 1.685168,-7.49566 c 0.09179,-0.35061 0.158837,-0.51294 0.315227,-0.67852 0.07151,-0.0924 0.227769,-0.018 0.302307,0.0997 l 2.011248,2.8639 6.22701,2.92024 c 0.463134,0.21922 1.012237,0.0228 1.231449,-0.44029 0.219207,-0.46312 0.02285,-1.01221 -0.440283,-1.23144 l -5.936589,-2.81017 -1.950785,-2.73058 -0.869198,-1.5043 c 0,0 -0.350072,-0.58769 -0.623735,-0.77463 -0.235996,-0.16121 -0.531741,-0.25412 -0.817521,-0.25786 -1.194388,-0.0156 -2.140739,-0.0417 -3.375504,-0.0393 z m 13.530958,11.87421 -1.785938,1.20717 1.81901,1.10794 1.752865,-1.10795 z m -4.612122,2.46032 -1.491898,0.14675 1.587499,16.2538 4.127397,-1e-5 h 1.810226 4.128946 l 1.58595,-16.25378 -1.491898,-0.14677 -1.455209,14.90091 -2.767789,-1e-5 h -1.810226 -2.76779 z m 5.83582,0.76429 -1.785938,1.20716 1.81901,1.10795 1.752865,-1.10795 z m -1.190626,6.26732 -1.785937,1.20716 1.81901,1.10794 1.752865,-1.10794 z m -0.09922,4.79557 -1.785937,1.20716 1.819009,1.10795 1.752865,-1.10795 z"/>
  </g>
</svg>