<?xml version="1.0" encoding="UTF-8" standalone="yes"?>
<svg width="52.917mm" height="52.917mm" viewBox="0 0 52.917 52.917" version="1.1" id="svg4701" xmlns="http://www.w3.org/2000/svg" xmlns:svg="http://www.w3.org/2000/svg">
  <defs id="defs4698"/>
  <g id="layer1" transform="translate(-78.218918,-152.3802)">
    <rect style="fill:#ffffff;fill-opacity:1;stroke:none;stroke-width:2.01819" id="rect70551" width="52.917" height="52.917" x="78.218918" y="152.3802"/>
    <path id="path3380-1" style="fill:#000000;stroke-width:1.3" d="m 119.97597,162.94563 c -0.0895,-2.9e-4 -0.17626,0.002 -0.25735,0.004 l -5.2927,0.0465 -24.511683,8.98033 c -1.1577,0.45528 -2.06539,0.82736 -2.03812,2.88561 v 13.74541 l 2.48719,-0.91157 a 0.99798387,0.99798387 0 0 0 -0.40721,0.80409 0.99798387,0.99798387 0 0 0 0.99787,0.99787 0.99798387,0.99798387 0 0 0 0.99839,-0.99787 0.99798387,0.99798387 0 0 0 -0.99839,-0.99787 0.99798387,0.99798387 0 0 0 -0.0672,0.003 l 2.52698,-0.92604 a 0.99798387,0.99798387 0 0 0 -0.4191,0.81235 0.99798387,0.99798387 0 0 0 0.99787,0.99787 0.99798387,0.99798387 0 0 0 0.99787,-0.99787 0.99798387,0.99798387 0 0 0 -0.99787,-0.99787 0.99798387,0.99798387 0 0 0 -0.0811,0.003 l 19.746593,-7.2347 a 0.99798387,0.99798387 0 0 0 -0.45475,0.83612 0.99798387,0.99798387 0 0 0 0.99787,0.99839 0.99798387,0.99798387 0 0 0 0.99788,-0.99839 0.99798387,0.99798387 0 0 0 -0.99788,-0.99787 0.99798387,0.99798387 0 0 0 -0.12609,0.009 l 2.69337,-0.98651 a 0.99798387,0.99798387 0 0 0 -0.49867,0.86403 0.99798387,0.99798387 0 0 0 0.99787,0.99788 0.99798387,0.99798387 0 0 0 0.99787,-0.99788 0.99798387,0.99798387 0 0 0 -0.99787,-0.99787 0.99798387,0.99798387 0 0 0 -0.18035,0.0171 l 4.28294,-1.56941 v -12.14241 c 0,-1.11666 -0.76768,-1.24595 -1.39423,-1.24799 z m -4.83278,2.19367 h 4.44521 c 0.18466,0 0.33383,0.14865 0.33383,0.33331 v 4.53978 c 0,0.18466 -0.14917,0.33331 -0.33383,0.33331 h -4.44521 c -0.18466,0 -0.33331,-0.14865 -0.33331,-0.33331 v -4.53978 c 0,-0.18466 0.14865,-0.33331 0.33331,-0.33331 z m -6.35517,2.235 h 4.44573 c 0.18466,0 0.33331,0.14865 0.33331,0.33332 v 4.53977 c 0,0.18467 -0.14865,0.33332 -0.33331,0.33332 h -4.44573 c -0.18466,0 -0.33331,-0.14865 -0.33331,-0.33332 v -4.53977 c 0,-0.18467 0.14865,-0.33332 0.33331,-0.33332 z m -6.35517,2.23449 h 4.44573 c 0.18466,0 0.33331,0.14865 0.33331,0.33332 v 4.53977 c 0,0.18467 -0.14865,0.33331 -0.33331,0.33331 h -4.44573 c -0.18466,0 -0.33331,-0.14864 -0.33331,-0.33331 v -4.53977 c 0,-0.18467 0.14865,-0.33332 0.33331,-0.33332 z m -6.355163,2.23449 h 4.445723 c 0.18467,0 0.33331,0.14865 0.33331,0.33332 v 4.53977 c 0,0.18467 -0.14864,0.33331 -0.33331,0.33331 h -4.445723 c -0.18467,0 -0.33332,-0.14864 -0.33332,-0.33331 v -4.53977 c 0,-0.18467 0.14865,-0.33332 0.33332,-0.33332 z m -6.35465,2.23501 h 4.4452 c 0.18467,0 0.33332,0.14864 0.33332,0.33331 v 4.53926 c 0,0.18467 -0.14865,0.33383 -0.33332,0.33383 h -4.4452 c -0.18467,0 -0.33332,-0.14916 -0.33332,-0.33383 v -4.53926 c 0,-0.18467 0.14865,-0.33331 0.33332,-0.33331 z m 35.375103,4.69222 -40.841443,14.3645 v 1.5968 l 40.841443,-14.3645 z"/>
  </g>
</svg>