<?xml version="1.0" encoding="UTF-8" standalone="yes"?>
<svg width="52.917mm" height="52.917mm" viewBox="0 0 52.917 52.917" version="1.1" id="svg14775" xmlns="http://www.w3.org/2000/svg" xmlns:svg="http://www.w3.org/2000/svg">
  <defs id="defs14772"/>
  <g id="layer1" transform="translate(-256.39862,-79.895782)">
    <rect style="fill:#ffffff;fill-opacity:1;stroke:none;stroke-width:2.01819" id="rect70551" width="52.917" height="52.917" x="256.39862" y="79.895782"/>
    <path id="rect14755" style="fill:#000000;stroke-width:0.799999;stroke-linecap:round" d="m 297.9079,87.0658 -4.9997,4.999687 a 11.70499,11.70499 0 0 1 2.86546,5.21209 l 6.3345,-6.31176 V 87.0658 Z m -15.61507,2.44946 c -4.88899,-0.0155 -9.25987,3.068797 -10.88409,7.680147 -0.15566,0.44265 0.0768,0.9277 0.51934,1.08366 0.44222,0.15619 0.92738,-0.0753 1.08418,-0.51728 1.38607,-3.93525 5.1032,-6.55876 9.2754,-6.54534 4.17218,0.0134 7.87386,2.65965 9.23458,6.60373 1.33067,3.856973 0.15808,7.015633 -1.87327,9.531723 -1.53132,1.71604 -2.065,2.21618 -2.23242,2.41949 -0.60063,0.72938 -1.79351,2.14285 -2.17972,3.545 l -0.002,0.01 -0.002,0.0119 c -0.63709,2.55768 -0.96844,4.20395 -1.7911,5.00279 -0.41134,0.39942 -1.12481,0.78378 -1.83762,0.82527 -0.7128,0.0415 -1.47215,-0.12761 -2.77967,-0.59789 -0.44181,-0.15906 -0.92889,0.0703 -1.08779,0.51211 -0.15892,0.44225 0.0712,0.92953 0.51366,1.08779 1.43675,0.51677 2.39687,0.75643 3.45147,0.69505 1.0546,-0.0614 2.24549,-0.6415 2.92541,-1.30173 1.35983,-1.32046 1.60904,-3.22381 2.25412,-5.8136 l -0.004,0.0196 c 0.18699,-0.67888 1.2962,-2.23964 1.85157,-2.91404 0.14076,-0.17092 0.71274,-0.81846 0.83561,-0.95756 3.70093,-3.04472 5.13304,-8.08416 3.56464,-12.630243 -1.59452,-4.6217 -5.94653,-7.734477 -10.83552,-7.750427 z m 0.0661,4.544427 c -0.0853,-6.7e-4 -0.17109,2.9e-4 -0.25684,0.003 -2.74374,0.0797 -5.18744,1.77105 -6.22856,4.31085 -0.17801,0.43466 0.0303,0.93131 0.46509,1.10897 0.43352,0.17727 0.92876,-0.0296 1.10743,-0.4625 0.78793,-1.92215 2.6302,-3.1979 4.70669,-3.2582 2.07649,-0.0603 3.98891,1.10544 4.88704,2.97863 0.89813,1.873193 0.60877,4.094353 -0.73846,5.675623 -0.30387,0.35716 -0.26109,0.89292 0.0956,1.19734 0.35715,0.30386 0.89292,0.26108 1.19734,-0.0956 1.78015,-2.08938 2.16343,-5.03658 0.97669,-7.511683 -1.14964,-2.39777 -3.56755,-3.92532 -6.21203,-3.94602 z m -6.05338,14.608413 -12.69948,12.69948 v 4.27519 l 3.71295,-0.0124 14.22032,-14.16968 a 11.70499,11.70499 0 0 1 -1.418,-0.44907 11.70499,11.70499 0 0 1 -3.0484,-1.77715 11.70499,11.70499 0 0 1 -0.76739,-0.56637 z m 17.00568,7.78712 v 2.33371 h 2.86391 v 6.71742 h 2.61689 v -6.71742 h 2.86391 v -2.33371 z"/>
  </g>
</svg>