<?xml version="1.0" encoding="UTF-8" standalone="yes"?>
<svg width="52.917mm" height="52.917mm" viewBox="0 0 52.917 52.917" version="1.1" id="svg4395" xmlns="http://www.w3.org/2000/svg" xmlns:svg="http://www.w3.org/2000/svg">
  <defs id="defs4392"/>
  <g id="layer1" transform="translate(-16.831827,-155.57376)">
    <rect style="fill:#ffffff;fill-opacity:1;stroke:none;stroke-width:2.01819" id="rect70551" width="52.917" height="52.917" x="16.831827" y="155.57376"/>
    <path id="rect4216" style="display:inline;fill:#000000;fill-opacity:1;stroke-width:2.2" d="m 30.081589,164.02624 c -0.0477,0.20156 0.20438,0.45169 0.1819,0.52917 -0.0489,0.16847 -0.86788,0.6728 -0.86455,1.10381 0.003,0.35275 0.6165,0.81442 0.6165,0.81442 v 0.46302 h -1.48828 v 0.92604 h 1.02526 c 0,0 -0.62332,0.28817 -0.89297,0.49609 -0.2902,0.22379 -0.59491,0.46693 -0.76068,0.79376 -0.0861,0.16972 -0.0931,0.37202 -0.0992,0.56224 -0.0942,2.94867 -0.11507,6.2558 0,8.92968 0.0135,0.35605 1.07511,0.85886 1.62058,0.95912 0.29842,0.0526 0.78585,0.0408 1.12138,0.0238 0.33552,0.017 0.82295,0.0288 1.12137,-0.0238 0.54547,-0.10026 1.60708,-0.60307 1.62058,-0.95912 0.11507,-2.67388 0.0942,-5.98101 0,-8.92968 -0.006,-0.19022 -0.0131,-0.39252 -0.0992,-0.56224 -0.16577,-0.32683 -0.47048,-0.56997 -0.76068,-0.79376 -0.26965,-0.20792 -0.89297,-0.49609 -0.89297,-0.49609 h 1.02526 v -0.92604 h -1.48828 v -0.46302 c 0,0 0.6135,-0.46166 0.6165,-0.81442 0.003,-0.43101 -0.81565,-0.93534 -0.86455,-1.10381 -0.0225,-0.0775 0.22961,-0.32761 0.18191,-0.52917 -0.25016,-0.44992 -0.73414,-0.42574 -0.91988,0 z m 18.19062,0.0589 c -1.5885,1e-4 -2.87621,1.28781 -2.87631,2.87631 -1.9e-4,1.58871 1.28761,2.87673 2.87631,2.87683 1.5887,-1e-4 2.8765,-1.28812 2.87631,-2.87683 -1e-4,-1.5885 -1.28781,-2.87621 -2.87631,-2.87631 z m -17.89193,5.07153 c 0.0553,-1.6e-4 0.10761,2.2e-4 0.16071,5.1e-4 0.13549,-7e-4 0.27608,-1.5e-4 0.42581,0.002 v 0.008 c 0.90789,0.0397 1.39145,0.21877 1.38545,0.85732 0.0524,2.54533 0.006,5.1834 0,7.8574 -2.8e-4,0.12902 -0.0766,0.25576 -0.16382,0.35088 -0.0686,0.0748 -0.16596,0.12617 -0.26406,0.15245 -0.3617,0.0969 -0.96738,0.0749 -1.38286,0.0434 -0.41548,0.0315 -1.02166,0.0535 -1.38338,-0.0434 -0.0981,-0.0263 -0.19547,-0.0776 -0.26407,-0.15245 -0.0872,-0.0951 -0.163,-0.22186 -0.1633,-0.35088 -9e-4,-0.40251 -0.003,-0.80342 -0.005,-1.20406 h 0.65887 v -1.19063 h -0.66611 c -0.002,-0.3552 -0.004,-0.70931 -0.006,-1.06247 h 0.67231 v -1.1907 h -0.67696 c -7.3e-4,-0.35518 -10e-4,-0.70943 0,-1.06195 h 0.67696 v -1.19063 h -0.66921 c 0.004,-0.32043 0.009,-0.63939 0.0155,-0.95704 -0.006,-0.63854 0.47706,-0.8176 1.38493,-0.85732 v -0.008 c 0.0909,-0.001 0.17889,-0.002 0.26459,-0.002 z m 20.3848,0.94102 c -0.78949,0.008 -1.62246,0.50182 -2.64325,1.62368 -1.41025,1.95824 -3.48228,4.79335 -4.00906,5.51387 l -4.69222,0.56896 c -0.52733,0.064 -0.91163,0.52047 -0.85886,1.04903 0.0528,0.52857 0.52098,0.91163 1.04955,0.85887 l 5.35212,-0.53434 c 0.10308,-0.0103 0.20057,-0.0362 0.29043,-0.0754 l 0.37207,-0.0346 0.3638,-0.19844 2.34818,-3.63802 c 0,0 1.46333,2.5438 2.21588,3.80339 1.06089,1.77567 1.80691,3.80121 3.24115,5.29166 0.10368,0.10774 0.23188,0.19683 0.37052,0.25374 l 0.48937,14.19913 c 0.0303,0.87895 0.70802,1.5875 1.5875,1.5875 0.87947,0 1.5632,-0.70836 1.5875,-1.5875 l 0.41393,-14.97221 c 0.0171,-0.014 0.034,-0.0281 0.0491,-0.0429 0.2677,-0.26259 0.36702,-0.66277 0.46302,-1.02527 0.0902,-0.34252 0.11582,-0.70439 0.0992,-1.05833 -0.0194,-0.41468 -0.093,-0.83235 -0.23151,-1.2237 -1.04006,-2.84749 -2.68933,-5.47185 -4.72116,-8.27804 -1.17888,-1.29767 -2.12222,-2.09116 -3.13727,-2.08101 z m -7.41557,10.5482 c -0.0358,-6e-4 -0.0711,0.002 -0.1049,0.009 -1.20205,0.242 -2.1607,0.28584 -3.43959,0.82682 -0.1953,0.0826 -0.25738,0.35404 -0.29765,0.56224 -0.04,0.20679 -0.007,0.43088 0.0661,0.62839 0.25596,0.6911 1.25677,1.81901 1.25677,1.81901 h -4.16718 c 0,0 0.57997,-1.83023 0.69453,-2.77813 -0.22107,-0.63605 -0.84398,-0.63153 -1.09141,-0.16536 -0.49149,1.27219 -0.91792,2.68196 -1.32292,4.13411 -0.12233,0.43861 -0.0914,0.97995 0.16537,1.35599 0.49941,0.5125 1.53052,0.54456 2.2841,0.57723 l 2.82515,0.0295 c 1.04663,-0.014 2.43309,-2.3e-4 3.02669,-0.7059 0.21795,-0.27674 0.36575,-0.63994 0.3638,-0.99219 -0.002,-0.34193 -0.19932,-0.65934 -0.3638,-0.95911 -0.44333,-0.80801 -1.65365,-2.21589 -1.65365,-2.21589 l -0.0992,-0.39688 c 0,0 1.22929,-0.23763 2.18281,-0.42994 0.30756,-0.062 0.41254,-0.601 0.29766,-0.89297 -0.0885,-0.22495 -0.37181,-0.402 -0.6227,-0.40618 z m -10.60555,3.81269 c -0.88589,-1e-5 -1.60404,0.71815 -1.60404,1.60403 0,0.88589 0.71815,1.60404 1.60404,1.60404 0.88588,-1e-5 1.60403,-0.71816 1.60403,-1.60404 0,-0.88588 -0.71815,-1.60403 -1.60403,-1.60403 z m -2.10582,4.32221 c -0.31045,0 -0.56017,0.22967 -0.56017,0.5147 0,0.28503 0.24972,0.51418 0.56017,0.51418 h 14.59498 c 0.31046,0 0.56017,-0.22915 0.56017,-0.51418 0,-0.28503 -0.24971,-0.5147 -0.56017,-0.5147 z"/>
  </g>
</svg>