<?xml version="1.0" encoding="UTF-8" standalone="yes"?>
<svg width="52.917mm" height="52.917mm" viewBox="0 0 52.917 52.917" version="1.1" id="svg2124" xmlns="http://www.w3.org/2000/svg" xmlns:svg="http://www.w3.org/2000/svg">
  <defs id="defs2121"/>
  <g id="layer1" transform="translate(-60.266872,-152.15448)">
    <rect style="fill:#ffffff;fill-opacity:1;stroke:none;stroke-width:2.01819" id="rect70551" width="52.917" height="52.917" x="60.266872" y="152.15448"/>
    <path id="path2065" style="fill:#000000;fill-opacity:1;stroke-width:2.63014;stroke-linecap:round" d="m 86.72589,165.21224 c -1.344136,-2.6e-4 -2.433929,1.08935 -2.43396,2.43344 3.1e-5,1.34414 1.089824,2.43371 2.43396,2.43345 1.343931,-3e-5 2.433412,-1.08951 2.433443,-2.43345 -3.1e-5,-1.34389 -1.089512,-2.43341 -2.433443,-2.43344 z m -10.17664,0.78186 c -1.343935,3e-5 -2.433412,1.08953 -2.433443,2.43345 3.1e-5,1.34394 1.089508,2.43341 2.433443,2.43344 1.344137,2.6e-4 2.433929,-1.0893 2.43396,-2.43344 -3.1e-5,-1.34412 -1.089823,-2.43371 -2.43396,-2.43345 z m 20.352246,0 c -1.344137,-2.6e-4 -2.433929,1.08933 -2.43396,2.43345 3.1e-5,1.34414 1.089823,2.4337 2.43396,2.43344 1.343935,-3e-5 2.433412,-1.0895 2.433443,-2.43344 -3.1e-5,-1.34392 -1.089508,-2.43342 -2.433443,-2.43345 z m -11.87111,4.70411 c -0.01888,-2.8e-4 -0.03679,-5e-5 -0.05374,5.2e-4 -0.04204,10e-4 -0.07824,0.006 -0.110071,0.0129 h -0.608749 c -0.480661,-0.0159 -1.023323,0.1327 -1.181323,0.64905 l -1.872237,5.54127 h 1.393713 0.353984 l 0.734839,-2.13527 c 0.03473,-0.0926 0.11883,-0.1436 0.19637,-0.1416 0.07754,0.002 0.14863,0.0552 0.15813,0.17002 v 2.10685 h 5.368665 v -2.10685 c 0.0095,-0.11482 0.08111,-0.16802 0.158646,-0.17002 0.07754,-0.002 0.161124,0.049 0.195854,0.1416 l 0.734839,2.13527 h 0.353983 1.393714 l -1.871721,-5.54127 c -0.157995,-0.51635 -0.700657,-0.66492 -1.181323,-0.64905 h -0.608748 c -0.08318,-0.0189 -0.197059,-0.017 -0.362769,0 h -2.993099 c -0.07667,-0.008 -0.142309,-0.0126 -0.198954,-0.0134 z m -8.481136,0.83147 v 5.2e-4 c -1.255357,0 -2.277541,0.95874 -2.378666,1.64796 0.809595,0.65096 1.328058,1.64901 1.328084,2.76884 -2.6e-5,1.1238 -0.52219,2.12522 -1.336869,2.77605 v 0.1354 c 0.665591,0.39297 1.101741,0.99938 1.101741,1.45365 0,0 0.0011,2.94134 -0.0026,3.97909 l 3.747574,-6.95772 -0.03359,0.003 c 0.0066,-0.0728 -0.03772,-4.04989 -0.03772,-4.04989 0,-0.69194 -1.065095,-1.757 -2.387968,-1.757 z m 20.352246,0 c -1.322873,0 -2.387968,1.06506 -2.387968,1.757 0,0 -0.04432,3.97709 -0.03772,4.04989 l -0.03359,-0.003 3.747575,6.95772 c -0.0037,-1.03775 -0.0026,-3.9791 -0.0026,-3.9791 0,-0.45427 0.43615,-1.06066 1.101741,-1.45365 v -0.1354 c -0.814679,-0.65082 -1.336843,-1.65224 -1.336869,-2.77605 2.6e-5,-1.11982 0.518489,-2.11787 1.328084,-2.76883 -0.101125,-0.68922 -1.123309,-1.64796 -2.378666,-1.64796 z m -25.445475,2.12649 c -1.343936,3e-5 -2.433412,1.0895 -2.433443,2.43344 3.1e-5,1.34394 1.089507,2.43342 2.433443,2.43345 1.344138,2.6e-4 2.433929,-1.08931 2.43396,-2.43345 -3.1e-5,-1.34414 -1.089822,-2.4337 -2.43396,-2.43344 z m 30.538709,0 c -1.34414,-2.6e-4 -2.433934,1.0893 -2.433965,2.43344 3.1e-5,1.34414 1.089825,2.43371 2.433965,2.43345 1.34393,-3e-5 2.43341,-1.08951 2.43344,-2.43345 -3e-5,-1.34394 -1.08951,-2.43341 -2.43344,-2.43344 z m -22.032768,4.76043 -6.879167,13.26224 H 100.36795 L 93.488785,178.4166 Z m -8.505941,0.77567 c -1.322873,0 -2.387451,1.06508 -2.387451,1.75699 v 4.11138 6.95307 h 2.083593 l 2.67684,-4.99608 0.0098,-1.8464 c 0.0066,-0.0728 0.0052,-4.22197 0.0052,-4.22197 0,-0.69191 -1.065094,-1.75699 -2.387968,-1.75699 z m 30.538709,0 c -1.32288,0 -2.387973,1.06508 -2.387973,1.75699 0,0 -0.0014,4.14917 0.0052,4.22197 l 0.0098,1.8464 2.676843,4.99608 h 2.08359 v -6.95307 -4.11138 c 0,-0.69191 -1.06458,-1.75699 -2.38745,-1.75699 z"/>
  </g>
</svg>