<?xml version="1.0" encoding="UTF-8" standalone="no"?>
<svg
   xmlns:dc="http://purl.org/dc/elements/1.1/"
   xmlns:cc="http://creativecommons.org/ns#"
   xmlns:rdf="http://www.w3.org/1999/02/22-rdf-syntax-ns#"
   xmlns:svg="http://www.w3.org/2000/svg"
   xmlns="http://www.w3.org/2000/svg"
   xmlns:sodipodi="http://sodipodi.sourceforge.net/DTD/sodipodi-0.dtd"
   xmlns:inkscape="http://www.inkscape.org/namespaces/inkscape"
   width="50"
   height="50"
   viewBox="0 0 13.229166 13.229167"
   version="1.1"
   id="svg8"
   inkscape:version="1.0.2 (e86c870879, 2021-01-15, custom)"
   sodipodi:docname="star.svg">
  <defs
     id="defs2" />
  <g
     inkscape:label="Calque 1"
     inkscape:groupmode="layer"
     id="layer1">
    <path
       sodipodi:type="star"
       style="fill:#3e3e3e;stroke:none;stroke-width:0.195597;stroke-linejoin:round"
       id="path891"
       sodipodi:sides="5"
       sodipodi:cx="7.158339"
       sodipodi:cy="6.7378941"
       sodipodi:r1="6.9339609"
       sodipodi:r2="3.1275184"
       sodipodi:arg1="-0.5707373"
       sodipodi:arg2="0.057581231"
       inkscape:flatsided="false"
       inkscape:rounded="-0.0029665144"
       inkscape:randomized="0"
       d="m 12.993287,2.9918034 c -0.0076,-0.011913 -2.713428,3.9402104 -2.712613,3.9260775 8.15e-4,-0.014133 2.234541,4.2227281 2.243507,4.2117731 0.009,-0.01096 -4.585858,-1.3630314 -4.5721651,-1.3666238 C 7.9657088,9.7594377 4.6264743,13.193099 4.6396637,13.198241 4.6528531,13.203384 4.5188753,8.4156315 4.5265233,8.4275441 4.5341713,8.4394567 0.23668474,6.3247158 0.23587005,6.3388487 0.23505536,6.3529815 4.7470767,4.7460643 4.7381105,4.7570191 4.7291443,4.767974 5.4123861,0.02733054 5.3986932,0.03092302 5.3850003,0.0345155 8.3075607,3.8291381 8.2943713,3.823996 8.2811819,3.8188539 13.000935,3.003716 12.993287,2.9918034 Z"
       inkscape:transform-center-x="0.46715165"
       inkscape:transform-center-y="-0.23486259" />
  </g>
</svg>
