<?xml version="1.0" encoding="UTF-8" standalone="yes"?>
<svg xmlns:svg="http://www.w3.org/2000/svg" xmlns="http://www.w3.org/2000/svg" height="200" width="200" version="1.0" id="svg24" viewBox="0 0 200 200">
  <defs id="defs28"/>
  <path d="m5.4189,5.423,189.16,0,0,189.15-189.16,0,0-189.15z" fill-rule="evenodd" fill="#a92121" id="path6" style="fill:#9b2423;fill-opacity:1"/>
  <path fill="#ffffff" d="m94.419,166.13c-1.4503-5.2224,4.2944-7.5531,5.6742-11.954,1.4159-6.3753,0.60461-13.029,0.86348-19.52-0.142-9.744,0.34044-19.523-0.41326-29.243-0.90758-5.0643-8.6001-4.9463-10.486-0.60756-1.8601,1.9529-0.64315-5.0677-2.4799-6.2382-2.5973-3.6514-8.3068-4.2476-10.83-0.17815-1.535,2.1082-1.8275,1.2191-1.5841-0.96286,0.14878-5.4139-6.7162-9.6752-11.277-6.2576-1.9449,1.23-4.2427,6.0743-4.1619,0.85256-0.57218-9.1339,0.57956-18.403-1.0614-27.445-1.3304-5.0292-9.3811-4.4119-11.943-0.81937-1.1877,4.3539-0.56013,9.0876-0.83626,13.606-0.19277,17.37-0.0889,34.741-0.1156,52.112-1.6206,0.007-3.7453,0.51742-2.9995-1.8424-0.19314-7.472,0.55153-15.04-0.74157-22.429-1.2117-4.7165-6.4006-6.9263-10.873-5.5137-4.4804,2.8327-1.9972,9.366-2.7485,13.825-0.02219,7.7595-0.02226,15.519-0.03382,23.279,5.1132,9.8229,10.948,19.33,14.969,29.671,1.0434,1.4156-0.39075,5.1885,2.3666,4.361,16.285-0.1009,32.569-0.20181,48.854-0.30272-0.04758-1.4644-0.09516-2.9288-0.14274-4.3932z" id="path10"/>
  <path fill="#ffffff" d="m44.419,67.604c0.79046-0.62851,1.0005-3.2943,0.38574-4.8948-0.23359-0.60807-1.0979-0.94787-2.411-0.94787h-2.0469l0.16145-13.333,0.16145-13.333,13.348-0.16128,13.348-0.16127v13.494,13.494h-2.9995-2.9995v2.9848c0,3.5841,0.35616,3.7495,7.5006,3.4849l4.7971-0.17768,0.15817-19.625,0.15817-19.625h-19.788-19.788l-0.16625,19.179c-0.09144,10.548-0.07178,19.46,0.04368,19.805,0.26687,0.79591,9.1078,0.63662,10.138-0.18267z" id="path20"/>
  <path fill="#ffffff" d="m57.262,59.265c1.384-0.41421,3.2779-1.721,4.6514-3.2095,5.2094-5.6454,3.3088-14.501-3.8049-17.729-9.4733-4.298-19.536,4.9241-15.611,14.307,2.4551,5.8695,8.395,8.5372,14.764,6.6309z" id="path22"/>
  <path id="path14553-3-5" style="display:inline;fill:#ffffff;fill-opacity:1;stroke:none;stroke-width:0.140431px;stroke-linecap:butt;stroke-linejoin:miter;stroke-opacity:1" d="m 153.05729,48.334702 c -1.73331,6.543763 -2.25706,14.36851 -0.99341,21.072726 2.54675,9.548086 8.32297,16.948155 15.54195,23.088119 1.2739,1.146279 2.71358,1.933607 4.14454,2.672963 V 75.325634 c -4.29084,-0.680491 -7.50715,-4.522455 -9.82281,-7.9105 -3.90122,-6.007418 -6.39029,-12.575783 -8.8702,-19.080432 z m -24.74272,8.646275 c -0.98746,0.0029 -2.03898,0.03783 -3.09062,0.07291 5.70288,4.365016 7.4814,10.930216 9.35895,17.123683 1.95761,6.806943 4.3965,13.3336 8.24995,18.963144 7.22701,9.590656 18.17979,13.822146 28.91746,10.739846 -9.49929,-3.95248 -15.34651,-13.206218 -19.72027,-21.158035 -3.96492,-6.26773 -5.08546,-14.189204 -10.36486,-19.338162 -3.8636,-3.664237 -8.25556,-6.412539 -13.35061,-6.403249 z m 1.53731,28.69352 c -0.66696,12.252733 3.46981,22.442953 10.90141,30.954183 7.86798,9.19097 20.43887,13.86986 30.99684,17.25699 v -19.84288 c -6.75428,-0.13233 -12.90488,-2.37669 -18.09587,-5.50232 -10.26079,-6.22444 -17.54784,-13.36702 -23.80255,-22.865973 z m -14.21967,38.128773 c 9.57578,2.28044 14.05111,8.44237 19.39321,14.86839 4.27327,5.45607 9.94146,8.70049 16.1871,9.80325 7.77868,1.30921 15.183,0.0975 20.53779,-5.63562 -12.45613,-2.21333 -19.76728,-9.87284 -28.26344,-16.86423 -9.94573,-6.65789 -17.6699,-9.86185 -27.85466,-2.17179 z m 14.17878,19.7417 c 1.12873,6.28325 3.10567,12.18715 6.67711,16.98152 9.82537,11.58187 22.58626,11.36833 35.26221,11.59471 v -19.84288 c -8.0445,1.88628 -17.90174,2.78353 -25.35589,0.96324 -6.79804,-1.39533 -11.91766,-5.42595 -16.58343,-9.6966 z"/>
</svg>