<?xml version="1.0" encoding="UTF-8" standalone="yes"?>
<svg version="1.1" viewBox="0 0 150 150" xmlns="http://www.w3.org/2000/svg">
  <rect x="5" y="5" width="140" height="140" fill="#F4F8F4"/>
  <path d="m25.18 143.1h54.87s4.98-4.71 7.48-7.08c1.94-1.65 2.11-2.77 5.44-2.7 3.62 0.06 7.25 0.13 10.87 0.19l-10.22 9.59h15.22l8.16-8.2v-58.07h-15c-2.35 0-2.68-0.32-4.2-1.84l-8.69-10.27c-2.41 5.27-4.68 9.75-7.08 14.84-0.27 0.52-0.91 1.69-0.43 2.6l23.88 48.22-8.76-0.03c-4.58 0.1-6.49-3.06-8.1-5.89-6.46-13.02-12.95-26.03-19.42-39.05l-1.22 23.17c-0.32 4.01-3.03 5.03-6.58 5.14l-40.12 0.09c0-4.61 4.57-10.7 12.01-10.99 0 0 14.33 0.16 21.82 0.19 0.95 0 1.21-0.53 1.32-1.32 0.35-5.96 0.68-11.96 1.05-17.92 0.23-2.96 0.49-5.01 1.35-7.25 2.8-6 5.6-11.97 8.4-17.95l-10.25-0.12c-0.27-0.01-0.48 0.05-0.62 0.29l-7.42 13c-3.06 5.58-11.33 1.51-8.56-4.41l9.1-15.22c1.6-2.38 2.33-3.2 6.49-3.33 0 0 19.43-0.03 29.16-0.03 3.16-0.07 3.52 0.92 5.03 2.53 4.06 5.01 8.5 10.35 12.46 15.02 0.55 0.66 0.86 0.93 2.17 0.93h12.21v-45.73l-83.66 0.08s0.13 53.19 0.06 79.22c-8.53 0.27-14.4 6.72-14.72 15.03 4.8 0.06 9.74-0.17 14.66-0.11v19.18l-8.16 8.2zm-20.18 1.93v-140h140v140h-140zm81.32-118.5c5.57 0 9.84 4.28 9.84 9.88 0 5.61-4.27 9.89-9.84 9.89s-9.85-4.28-9.85-9.89c0-5.6 4.28-9.88 9.85-9.88z" fill="#0F8558"/>
</svg>