<?xml version="1.0" encoding="UTF-8" standalone="yes"?>
<svg xmlns="http://www.w3.org/2000/svg" xmlns:xlink="http://www.w3.org/1999/xlink" width="685pt" height="600pt" viewBox="0 0 685 600" version="1.1">
  <g id="surface1">
    <path style="fill-rule:evenodd;fill:rgb(0.784314%,1.960784%,1.960784%);fill-opacity:1;stroke-width:0.127844;stroke-linecap:butt;stroke-linejoin:miter;stroke:rgb(0.784314%,1.960784%,1.960784%);stroke-opacity:1;stroke-miterlimit:2.613;" d="M 197.46208 164.743687 L 104.11927 2.938542 L 103.544526 2.076193 L 102.826095 1.427453 L 102.032993 0.853307 L 101.099599 0.423828 L 100.165073 0.134495 L 99.158139 0.0644219 L 98.150073 0.134495 L 97.146533 0.423828 L 96.283285 0.853307 L 95.420036 1.427453 L 94.77062 2.076193 L 94.197007 2.938542 L 0.853066 164.743687 L 0.423139 165.67724 L 0.134635 166.610792 L 0.0644891 167.618937 L 0.134635 168.627083 L 0.423139 169.630708 L 0.853066 170.494188 L 1.42781 171.356536 L 2.076095 172.005276 L 2.939343 172.579422 L 3.802591 173.013422 L 4.810657 173.302755 L 5.814197 173.372828 L 192.50208 173.372828 L 193.50562 173.302755 L 194.442409 173.013422 L 195.376934 172.579422 L 196.170036 172.005276 L 196.888467 171.356536 L 197.46208 170.494188 L 197.892007 169.630708 L 198.181642 168.627083 L 198.251788 167.618937 L 198.181642 166.610792 L 197.892007 165.67724 Z M 197.46208 164.743687 " transform="matrix(3.452621,0,0,3.456221,0,0)"/>
    <path style="fill-rule:evenodd;fill:rgb(92.156863%,74.901961%,16.862745%);fill-opacity:1;stroke-width:0.127844;stroke-linecap:butt;stroke-linejoin:miter;stroke:rgb(0.784314%,1.960784%,1.960784%);stroke-opacity:1;stroke-miterlimit:2.613;" d="M 99.158139 18.110458 L 181.856861 161.505641 L 16.458285 161.505641 Z M 99.158139 18.110458 " transform="matrix(3.452621,0,0,3.456221,0,0)"/>
    <path style="fill-rule:evenodd;fill:rgb(0.784314%,1.960784%,1.960784%);fill-opacity:1;stroke-width:0.027966;stroke-linecap:butt;stroke-linejoin:miter;stroke:rgb(0.784314%,1.960784%,1.960784%);stroke-opacity:1;stroke-miterlimit:2.613;" d="M 166.141898 151.360891 L 163.927774 151.290818 L 161.750985 151.106594 L 159.571934 150.70876 L 158.520876 150.419427 L 157.469818 150.05663 L 156.454964 149.657667 L 155.474051 149.115167 L 154.529343 148.533109 L 153.658175 147.880979 L 151.950912 146.500995 L 151.044672 145.883901 L 150.068285 145.341401 L 149.052299 144.942438 L 147.962774 144.654234 L 146.911715 144.47001 L 145.82219 144.325344 L 143.606934 144.180677 L 141.396204 144.180677 L 139.216022 144.325344 L 137.005292 144.579641 L 134.861314 145.013641 L 132.724124 145.595698 L 130.618613 146.282865 L 128.587774 147.009589 L 124.450292 148.641609 L 122.416058 149.40337 L 120.313942 150.126703 L 118.208431 150.743797 L 116.067847 151.290818 L 113.888796 151.68526 L 111.712007 152.013021 L 109.53635 152.232281 L 107.322226 152.341911 L 105.146569 152.376948 L 102.931314 152.267318 L 100.755657 152.087615 L 98.575474 151.759854 L 96.399818 151.290818 L 94.294307 150.634167 L 92.263467 149.83737 L 90.231496 148.965979 L 88.23573 148.024516 L 86.204891 147.154255 L 84.134453 146.392495 L 82.032336 145.848865 L 79.853285 145.486068 L 77.642555 145.266807 L 75.466898 145.161698 L 73.251642 145.196734 L 71.036387 145.341401 L 68.86073 145.630734 L 66.720146 146.103161 L 64.614635 146.755292 L 62.583796 147.587125 L 60.588029 148.498073 L 56.595365 150.419427 L 54.564526 151.216224 L 52.459015 151.904521 L 50.318431 152.411984 L 48.141642 152.739745 L 45.927518 152.919448 L 43.751861 152.919448 L 41.536606 152.774781 L 40.44708 152.630115 L 39.360949 152.450411 L 38.306496 152.157688 L 37.763431 151.977984 L 37.290511 151.724818 L 36.85719 151.395927 L 36.458942 151.036521 L 35.732591 150.201297 L 35.149927 149.220276 L 34.931569 148.712813 L 34.82635 148.169182 L 34.82635 147.626682 L 34.896496 147.084182 L 35.259672 146.028568 L 36.165912 146.537161 L 37.072153 147.009589 L 38.051934 147.407422 L 39.06792 147.701276 L 40.087299 147.951052 L 41.103285 148.134146 L 42.154343 148.278812 L 43.169197 148.388443 L 45.274708 148.388443 L 47.380219 148.243776 L 49.41219 147.880979 L 50.427044 147.626682 L 51.443029 147.298922 L 53.365255 146.537161 L 55.251277 145.630734 L 57.103358 144.654234 L 58.98938 143.747807 L 60.876533 142.876417 L 62.837226 142.07962 L 64.834124 141.42749 L 66.829891 140.915505 L 68.895803 140.552708 L 70.962847 140.302932 L 73.068358 140.153745 L 75.173869 140.153745 L 77.239781 140.193302 L 79.345292 140.373005 L 81.41573 140.626172 L 83.446569 141.025135 L 85.47854 141.567635 L 87.439234 142.259323 L 89.396533 143.05612 L 91.282555 143.92751 L 93.208175 144.798901 L 95.130401 145.595698 L 97.126168 146.247828 L 99.158139 146.755292 L 101.228577 147.084182 L 103.294489 147.263885 L 105.4 147.337349 L 107.465912 147.298922 L 109.571423 147.189292 L 111.641861 146.974552 L 113.708905 146.645661 L 115.739745 146.212792 L 117.775109 145.665771 L 119.767482 145.048677 L 121.728175 144.325344 L 123.688869 143.563583 L 127.568394 142.041193 L 129.529088 141.352896 L 131.524854 140.700766 L 133.555693 140.153745 L 135.591058 139.720875 L 137.658102 139.427021 L 139.763613 139.212281 L 141.829526 139.138818 L 143.935036 139.177245 L 146.040547 139.286875 L 148.10646 139.576208 L 149.122445 139.790948 L 150.138431 140.048635 L 151.118212 140.373005 L 152.099124 140.770839 L 153.040438 141.244396 L 153.911606 141.751859 L 154.782774 142.368953 L 155.618869 143.021083 L 157.25146 144.290307 L 158.122628 144.868974 L 159.063942 145.306365 L 160.083321 145.665771 L 161.099307 145.885031 L 163.165219 146.173234 Z M 166.141898 151.360891 " transform="matrix(3.452621,0,0,3.456221,0,0)"/>
    <path style="fill-rule:evenodd;fill:rgb(0.784314%,1.960784%,1.960784%);fill-opacity:1;stroke-width:0.027966;stroke-linecap:butt;stroke-linejoin:miter;stroke:rgb(0.784314%,1.960784%,1.960784%);stroke-opacity:1;stroke-miterlimit:2.613;" d="M 80.654307 128.114766 L 78.509197 127.935063 L 76.478358 127.860469 L 74.446387 127.825432 L 72.415547 127.860469 L 72.415547 119.302531 L 74.774489 118.141807 L 78.259161 118.141807 L 80.654307 119.302531 Z M 80.654307 128.114766 " transform="matrix(3.452621,0,0,3.456221,0,0)"/>
    <path style="fill-rule:evenodd;fill:rgb(0.784314%,1.960784%,1.960784%);fill-opacity:1;stroke-width:0.027966;stroke-linecap:butt;stroke-linejoin:miter;stroke:rgb(0.784314%,1.960784%,1.960784%);stroke-opacity:1;stroke-miterlimit:2.613;" d="M 152.352555 127.462635 L 151.227956 127.208339 L 150.103358 126.990208 L 148.036314 126.700875 L 146.040547 126.521172 L 144.153394 126.411542 L 142.337518 126.411542 L 140.485438 126.446578 L 138.637883 126.521172 L 136.751861 126.700875 L 134.899781 126.954042 L 133.013759 127.243375 L 131.196752 127.645729 L 129.38427 128.079729 L 127.606861 128.587193 L 125.939197 129.094656 L 124.341679 129.673323 L 122.779234 130.215823 L 115.814416 124.196333 L 108.954818 117.997141 L 105.579891 114.876635 L 102.243431 111.684927 L 98.93865 108.458182 L 95.711934 105.157974 L 92.516898 101.821599 L 89.435 98.41176 L 86.423248 94.895682 L 83.556314 91.271104 L 82.212226 89.419823 L 80.907737 87.532375 L 79.673394 85.575984 L 78.513723 83.545 L 77.53281 81.477849 L 77.094964 80.426755 L 76.736314 79.337234 L 76.443285 78.212677 L 76.223796 77.051953 L 76.188723 75.927396 L 76.223796 75.348729 L 76.33354 74.766672 L 121.981606 74.766672 Z M 152.352555 127.462635 " transform="matrix(3.452621,0,0,3.456221,0,0)"/>
    <path style="fill-rule:evenodd;fill:rgb(0.784314%,1.960784%,1.960784%);fill-opacity:1;stroke-width:0.027966;stroke-linecap:butt;stroke-linejoin:miter;stroke:rgb(0.784314%,1.960784%,1.960784%);stroke-opacity:1;stroke-miterlimit:2.613;" d="M 160.844745 142.184729 L 154.966058 131.993641 L 153.623102 131.486177 L 152.279015 131.087214 L 150.974526 130.762844 L 149.705109 130.509677 L 148.505839 130.325453 L 147.309964 130.180786 L 145.021168 130.001083 L 142.845511 129.92762 L 140.669854 129.966047 L 138.454599 130.110714 L 136.239343 130.325453 L 134.028613 130.654344 L 131.852956 131.126771 L 129.747445 131.669271 L 127.677007 132.251328 L 125.720839 132.939625 L 123.833686 133.626792 L 122.09135 134.278922 L 120.313942 135.005646 L 118.826168 135.587703 L 117.372336 136.130203 L 115.993175 136.59924 L 114.615146 137.001594 L 113.274453 137.325964 L 111.931496 137.615297 L 110.587409 137.833427 L 109.208248 137.978094 L 107.755547 138.087724 L 106.341314 138.12276 L 104.892007 138.12276 L 103.54792 138.052687 L 102.278504 137.943057 L 101.079234 137.763354 L 99.958029 137.509057 L 98.903577 137.14626 L 97.743905 136.70887 L 96.474489 136.16524 L 95.673467 135.802443 L 94.802299 135.403479 L 93.024891 134.606682 L 92.043978 134.169292 L 91.029124 133.771458 L 88.88854 133.009698 L 86.67781 132.357568 L 84.392409 131.813938 L 82.14208 131.416104 L 79.891752 131.161807 L 77.712701 131.017141 L 75.572117 130.942547 L 73.466606 130.942547 L 71.326022 131.052177 L 69.115292 131.23188 L 66.864964 131.559641 L 64.579562 131.993641 L 62.329234 132.575698 L 60.080036 133.302422 L 57.974526 134.099219 L 56.95854 134.533219 L 56.052299 134.935573 L 54.200219 135.802443 L 52.34927 136.747297 L 51.587847 137.181297 L 50.899964 137.544094 L 50.283358 137.833427 L 49.700693 138.087724 L 48.719781 138.525115 L 47.778467 138.814448 L 46.798686 139.029188 L 45.782701 139.138818 L 44.693175 139.212281 L 43.642117 139.177245 L 42.626131 139.067615 L 42.841095 140.228339 L 42.950839 140.770839 L 43.134124 141.243266 L 43.353613 141.607193 L 43.67719 142.040063 L 44.075438 142.51362 L 44.438613 142.94649 L 44.981679 143.345453 L 45.201168 143.528547 L 45.384453 143.634786 L 45.892445 143.852917 L 46.400438 143.92751 L 46.724015 143.962547 L 47.415292 143.962547 L 47.669854 143.92751 L 48.251387 143.852917 L 48.93927 143.782844 L 49.227774 143.70825 L 49.447263 143.673214 L 50.353504 143.49351 L 50.755146 143.38049 L 51.079854 143.310417 L 51.806204 143.091156 L 52.494088 142.876417 L 52.712445 142.801823 L 52.965876 142.693323 L 53.54854 142.478583 L 54.130073 142.219766 L 54.927701 141.821932 L 56.848796 140.845432 L 58.81062 139.939005 L 60.806387 139.067615 L 62.942445 138.305854 L 65.157701 137.68876 L 67.372956 137.216333 L 69.622153 136.888573 L 71.834015 136.673833 L 74.013066 136.59924 L 76.188723 136.59924 L 78.403978 136.70887 L 80.614708 136.927 L 82.829964 137.290927 L 85.079161 137.798391 L 87.255949 138.415484 L 89.36146 139.212281 L 91.357226 140.048635 L 93.279453 140.915505 L 94.185693 141.352896 L 95.020657 141.716823 L 96.72792 142.40399 L 98.395584 142.911453 L 100.102847 143.310417 L 101.880255 143.59975 L 103.692737 143.747807 L 105.544818 143.782844 L 107.430839 143.747807 L 109.317993 143.634786 L 111.170073 143.455083 L 113.021022 143.16575 L 114.833504 142.801823 L 116.610912 142.329396 L 118.426788 141.751859 L 120.23927 141.134766 L 122.052883 140.408042 L 123.978504 139.646281 L 125.899599 138.884521 L 127.896496 138.161188 L 129.962409 137.474021 L 132.06792 136.888573 L 134.248102 136.3845 L 136.458832 136.020573 L 138.672956 135.767406 L 140.884818 135.62274 L 143.098942 135.587703 L 145.314197 135.692813 L 147.599599 135.912073 L 148.724197 136.095167 L 149.920073 136.309906 L 151.083139 136.638797 L 152.279015 137.001594 L 153.443212 137.509057 L 154.602883 138.052687 L 155.728613 138.704818 L 156.743467 139.427021 L 157.689307 140.153745 L 158.485803 140.805875 L 158.813905 141.060172 L 159.138613 141.314469 L 159.681679 141.677266 L 160.228139 141.966599 Z M 160.844745 142.184729 " transform="matrix(3.452621,0,0,3.456221,0,0)"/>
    <path style="fill-rule:evenodd;fill:rgb(92.156863%,74.901961%,16.862745%);fill-opacity:1;stroke-width:0.0159806;stroke-linecap:butt;stroke-linejoin:miter;stroke:rgb(92.156863%,74.901961%,16.862745%);stroke-opacity:1;stroke-miterlimit:2.613;" d="M 111.821752 94.278589 L 110.477664 88.438802 L 109.934599 93.626458 L 108.193394 95.548943 L 105.435073 96.201073 L 103.369161 87.279208 L 107.102737 86.407818 L 107.505511 86.228115 L 107.794015 85.903745 L 107.938832 85.466354 L 107.938832 85.032354 L 107.755547 84.634521 L 107.430839 84.341797 L 107.032591 84.162094 L 106.559672 84.19713 L 102.861168 85.068521 L 102.313577 82.818276 L 102.751423 82.419313 L 103.041058 81.911849 L 103.149672 81.333182 L 103.076131 80.751125 L 102.821569 80.208625 L 102.46292 79.771234 L 101.950401 79.481901 L 101.372263 79.337234 L 100.79073 79.411828 L 100.247664 79.626568 L 99.809818 79.989365 L 99.486241 80.462922 L 99.341423 81.040458 L 99.376496 81.622516 L 99.556387 82.166146 L 99.919562 82.638573 L 100.392482 82.966333 L 100.935547 83.146036 L 101.478613 85.39176 L 97.743905 86.263151 L 97.345657 86.447375 L 97.056022 86.735578 L 96.90781 87.169578 L 96.90781 87.606969 L 97.091095 88.005932 L 97.415803 88.294135 L 97.814051 88.478359 L 98.251898 88.438802 L 101.99 87.571932 L 104.055912 96.528833 L 101.298723 97.180964 L 98.903577 96.201073 L 96.146387 91.778568 L 97.489343 97.65 L 101.845182 99.356615 L 108.739854 97.75963 Z M 101.864416 81.259719 L 101.821423 81.013333 L 101.677737 80.806505 L 101.474088 80.665229 L 101.228577 80.622281 L 100.97854 80.665229 L 100.774891 80.806505 L 100.630073 81.013333 L 100.591606 81.259719 L 100.630073 81.504974 L 100.774891 81.712932 L 100.97854 81.856469 L 101.228577 81.896026 L 101.474088 81.856469 L 101.677737 81.712932 L 101.821423 81.504974 Z M 101.864416 81.259719 " transform="matrix(3.452621,0,0,3.456221,0,0)"/>
    <path style="fill-rule:evenodd;fill:rgb(0.784314%,1.960784%,1.960784%);fill-opacity:1;stroke-width:0.027966;stroke-linecap:butt;stroke-linejoin:miter;stroke:rgb(0.784314%,1.960784%,1.960784%);stroke-opacity:1;stroke-miterlimit:2.613;" d="M 79.926825 113.283042 L 79.818212 112.521281 L 79.56365 111.794557 L 79.165401 111.177464 L 78.618942 110.633833 L 78.00573 110.236 L 77.27938 109.981703 L 76.516825 109.872073 L 75.755401 109.981703 L 75.029051 110.236 L 74.411314 110.633833 L 73.868248 111.177464 L 73.47 111.794557 L 73.212044 112.521281 L 73.106825 113.283042 L 73.212044 114.044802 L 73.47 114.767005 L 73.868248 115.384099 L 74.411314 115.93112 L 75.029051 116.330083 L 75.755401 116.58325 L 76.516825 116.69288 L 77.27938 116.58325 L 78.00573 116.330083 L 78.618942 115.93112 L 79.165401 115.384099 L 79.56365 114.767005 L 79.818212 114.044802 Z M 79.926825 113.283042 " transform="matrix(3.452621,0,0,3.456221,0,0)"/>
    <path style="fill-rule:evenodd;fill:rgb(0.784314%,1.960784%,1.960784%);fill-opacity:1;stroke-width:0.027966;stroke-linecap:butt;stroke-linejoin:miter;stroke:rgb(0.784314%,1.960784%,1.960784%);stroke-opacity:1;stroke-miterlimit:2.613;" d="M 76.516825 119.884589 L 76.443285 119.337568 L 76.188723 118.830104 L 75.790474 118.470698 L 75.317555 118.21301 L 74.774489 118.141807 L 74.228029 118.21301 L 73.759635 118.470698 L 73.356861 118.830104 L 73.106825 119.337568 L 73.033285 119.884589 L 73.106825 120.427089 L 73.356861 120.899516 L 73.759635 121.298479 L 74.228029 121.552776 L 74.774489 121.622849 L 75.317555 121.552776 L 75.790474 121.298479 L 76.188723 120.899516 L 76.443285 120.427089 Z M 76.516825 119.884589 " transform="matrix(3.452621,0,0,3.456221,0,0)"/>
    <path style="fill-rule:evenodd;fill:rgb(0.784314%,1.960784%,1.960784%);fill-opacity:1;stroke-width:0.027966;stroke-linecap:butt;stroke-linejoin:miter;stroke:rgb(0.784314%,1.960784%,1.960784%);stroke-opacity:1;stroke-miterlimit:2.613;" d="M 80.036569 119.884589 L 79.926825 119.337568 L 79.673394 118.830104 L 79.310219 118.470698 L 78.802226 118.21301 L 78.259161 118.141807 L 77.712701 118.21301 L 77.243175 118.470698 L 76.841533 118.830104 L 76.586971 119.337568 L 76.516825 119.884589 L 76.586971 120.427089 L 76.841533 120.899516 L 77.243175 121.298479 L 77.712701 121.552776 L 78.259161 121.622849 L 78.802226 121.552776 L 79.310219 121.298479 L 79.673394 120.899516 L 79.926825 120.427089 Z M 80.036569 119.884589 " transform="matrix(3.452621,0,0,3.456221,0,0)"/>
    <path style="fill-rule:evenodd;fill:rgb(0.784314%,1.960784%,1.960784%);fill-opacity:1;stroke-width:0.027966;stroke-linecap:butt;stroke-linejoin:miter;stroke:rgb(0.784314%,1.960784%,1.960784%);stroke-opacity:1;stroke-miterlimit:2.613;" d="M 63.853212 107.223995 L 63.77854 106.681495 L 63.525109 106.172901 L 63.126861 105.775068 L 62.653942 105.555807 L 62.110876 105.450698 L 61.56781 105.555807 L 61.059818 105.775068 L 60.696642 106.172901 L 60.443212 106.681495 L 60.36854 107.223995 L 60.443212 107.731458 L 60.696642 108.243443 L 61.059818 108.642406 L 61.56781 108.857146 L 62.110876 108.966776 L 62.653942 108.857146 L 63.126861 108.642406 L 63.525109 108.243443 L 63.77854 107.731458 Z M 63.853212 107.223995 " transform="matrix(3.452621,0,0,3.456221,0,0)"/>
    <path style="fill-rule:evenodd;fill:rgb(0.784314%,1.960784%,1.960784%);fill-opacity:1;stroke-width:0.027966;stroke-linecap:butt;stroke-linejoin:miter;stroke:rgb(0.784314%,1.960784%,1.960784%);stroke-opacity:1;stroke-miterlimit:2.613;" d="M 92.701314 107.223995 L 92.591569 106.681495 L 92.337007 106.172901 L 91.973832 105.775068 L 91.465839 105.555807 L 90.923905 105.450698 L 90.376314 105.555807 L 89.903394 105.775068 L 89.505146 106.172901 L 89.290182 106.681495 L 89.181569 107.223995 L 89.290182 107.731458 L 89.505146 108.243443 L 89.903394 108.642406 L 90.376314 108.857146 L 90.923905 108.966776 L 91.465839 108.857146 L 91.973832 108.642406 L 92.337007 108.243443 L 92.591569 107.731458 Z M 92.701314 107.223995 " transform="matrix(3.452621,0,0,3.456221,0,0)"/>
    <path style="fill-rule:evenodd;fill:rgb(0.784314%,1.960784%,1.960784%);fill-opacity:1;stroke-width:0.027966;stroke-linecap:butt;stroke-linejoin:miter;stroke:rgb(0.784314%,1.960784%,1.960784%);stroke-opacity:1;stroke-miterlimit:2.613;" d="M 76.008832 118.650401 L 73.540146 121.114255 L 60.876533 108.458182 L 63.345219 105.954771 Z M 76.008832 118.650401 " transform="matrix(3.452621,0,0,3.456221,0,0)"/>
    <path style="fill-rule:evenodd;fill:rgb(0.784314%,1.960784%,1.960784%);fill-opacity:1;stroke-width:0.027966;stroke-linecap:butt;stroke-linejoin:miter;stroke:rgb(0.784314%,1.960784%,1.960784%);stroke-opacity:1;stroke-miterlimit:2.613;" d="M 92.193321 108.458182 L 79.490109 121.114255 L 77.024818 118.650401 L 89.689562 105.954771 Z M 92.193321 108.458182 " transform="matrix(3.452621,0,0,3.456221,0,0)"/>
  </g>
</svg>