<?xml version="1.0" encoding="UTF-8" standalone="yes"?>
<svg width="400px" height="400px" version="1.1" viewBox="0 0 200 200" xmlns="http://www.w3.org/2000/svg">
  <rect width="200" height="200" style="fill:#ffffff"/>
  <rect x="5" y="5" width="190" height="190" style="fill:#008855"/>
  <path d="m130.73 38.116h47.168v15.723h-47.168zm15.723-15.723h15.723v47.168h-15.723z" style="fill:#ffffff"/>
  <g style="fill:#ffffff;stroke:none">
    <path d="m70.835 21.837h8.358l-0.116 11.643h6.955c4.278 0 6.776 6.014 6.776 7.751h-35.222c0-1.833 2.597-7.751 6.776-7.751h6.358z"/>
    <path d="m39.313 108.59a2.5761 2.4971 0 0 1-5.152 0 2.5761 2.4971 0 1 1 5.152 0zm71.437 0.33a2.58 2.5009 0 0 0 5.16 0 2.58 2.5009 0 1 0-5.16 0zm-33.297-63.634a2.5761 2.4971 0 0 1-5.152 0 2.5761 2.4971 0 1 1 5.152 0zm0.106 8.564a2.5761 2.4971 0 0 1-5.152 0 2.5761 2.4971 0 1 1 5.152 0zm0.182 8.685a2.5761 2.4971 0 0 1-5.152 0 2.5761 2.4971 0 1 1 5.152 0zm-14.786 15.848a2.5761 2.4971 0 0 1-5.152 0 2.5761 2.4971 0 1 1 5.152 0zm1.851-8.037a2.5765 2.4975 0 0 1-5.153 0 2.5765 2.4975 0 1 1 5.153 0zm1.681-8.555a2.5761 2.4971 0 0 1-5.152 0 2.5761 2.4971 0 1 1 5.152 0zm2.449-8.264a2.5761 2.4971 0 0 1-5.152 0 2.5761 2.4971 0 1 1 5.152 0zm-32.565 63.463a2.5761 2.4971 0 0 1-5.152 0 2.5761 2.4971 0 1 1 5.152 0zm5.875-16.06a2.5761 2.4971 0 0 1-5.152 0 2.5761 2.4971 0 1 1 5.152 0zm3.023-8.102a2.5761 2.4971 0 0 1-5.152 0 2.5761 2.4971 0 1 1 5.152 0zm3.202-7.836a2.5761 2.4971 0 0 1-5.152 0 2.5761 2.4971 0 1 1 5.152 0zm3.27-7.817a2.5761 2.4971 0 0 1-5.152 0 2.5761 2.4971 0 1 1 5.152 0zm3.214-8.325a2.5761 2.4971 0 0 1-5.152 0 2.5761 2.4971 0 1 1 5.152 0zm2.706-7.474a2.5761 2.4971 0 0 1-5.152 0 2.5761 2.4971 0 1 1 5.152 0zm3.04-8.269a2.5761 2.4971 0 0 1-5.152 0 2.5761 2.4971 0 1 1 5.152 0zm3.143-7.385a2.5761 2.4971 0 0 1-5.152 0 2.5761 2.4971 0 1 1 5.152 0zm6.906-0.209a2.5761 2.4971 0 0 1-5.152 0 2.5761 2.4971 0 1 1 5.152 0zm16.133 32.738a2.5761 2.4971 0 0 0 5.152 0 2.5761 2.4971 0 1 0-5.152 0zm-1.793-8.064a2.5761 2.4971 0 0 0 5.152 0 2.5761 2.4971 0 1 0-5.152 0zm-1.835-8.556a2.5761 2.4971 0 0 0 5.152 0 2.5761 2.4971 0 1 0-5.152 0zm-1.864-8.101a2.5761 2.4971 0 0 0 5.152 0 2.5761 2.4971 0 1 0-5.152 0zm32.629 63.46a2.58 2.5009 0 0 0 5.16 0 2.58 2.5009 0 1 0-5.16 0zm-6.36-16.06a2.5761 2.4971 0 0 0 5.15 0 2.5761 2.4971 0 1 0-5.15 0zm-2.88-8.127a2.5761 2.4971 0 0 0 5.15 0 2.5761 2.4971 0 1 0-5.15 0zm-2.99-7.482a2.5761 2.4971 0 0 0 5.15 0 2.5761 2.4971 0 1 0-5.15 0zm-3.482-8.489a2.5761 2.4971 0 0 0 5.152 0 2.5761 2.4971 0 1 0-5.152 0zm-2.782-7.757a2.577 2.498 0 0 0 5.154 0 2.577 2.498 0 1 0-5.154 0zm-3.023-7.877a2.5761 2.4971 0 0 0 5.152 0 2.5761 2.4971 0 1 0-5.152 0zm-2.973-7.925a2.5761 2.4971 0 0 0 5.152 0 2.5761 2.4971 0 1 0-5.152 0zm-2.93-7.728a2.5761 2.4971 0 0 0 5.152 0 2.5761 2.4971 0 1 0-5.152 0zm-7.003-0.046a2.5761 2.4971 0 0 0 5.152 0 2.5761 2.4971 0 1 0-5.152 0z"/>
    <path d="m80.522 85.426h-12.891c-6.3305-0.21928-11.224 3.2053-12.052 9.217l-0.08652 34.522c0.01199 2.1508 1.4642 3.6052 3.7082 3.5947 2.2287-0.0124 3.8652-1.4598 3.8817-3.5947v-31.298c0.0034-0.35937 0.46773-0.65728 0.84992-0.66261 0.38623-4e-3 0.77828 0.29273 0.78242 0.66261v75.624c0.01199 2.4528 1.8987 4.3877 4.4594 4.3787 2.555-4e-3 4.6919-1.9312 4.7029-4.3787l0.01582-45.565c0.14207-0.3579 0.49915-0.55418 0.80821-0.54967 0.30406-7e-3 0.6963 0.18504 0.82738 0.54967l0.01981 45.565c0.0034 2.4528 2.0389 4.3877 4.5996 4.3787 2.555-4e-3 4.5391-1.9312 4.5447-4.3787v-75.624c0.0034-0.35937 0.41403-0.65728 0.79069-0.66261 0.38622-4e-3 0.86697 0.29273 0.87119 0.66261v31.298c0.01199 2.1508 1.5662 3.6052 3.8099 3.5947 2.2286-0.0124 3.6853-1.4598 3.6962-3.5947l-0.0877-34.522c-0.82842-6.0119-5.7221-9.4363-12.047-9.217"/>
    <circle cx="74.835" cy="75.034" r="7.8636"/>
  </g>
</svg>