<?xml version="1.0" encoding="UTF-8" standalone="yes"?>
<svg xmlns="http://www.w3.org/2000/svg" xmlns:xlink="http://www.w3.org/1999/xlink" width="685pt" height="600pt" viewBox="0 0 685 600" version="1.1">
  <g id="surface1">
    <path style="fill-rule:evenodd;fill:rgb(0.784314%,1.960784%,1.960784%);fill-opacity:1;stroke-width:0.127844;stroke-linecap:butt;stroke-linejoin:miter;stroke:rgb(0.784314%,1.960784%,1.960784%);stroke-opacity:1;stroke-miterlimit:2.613;" d="M 197.46208 164.743687 L 104.122664 2.943062 L 103.544526 2.079583 L 102.826095 1.430844 L 102.036387 0.856698 L 101.099599 0.423828 L 100.165073 0.137885 L 99.158139 0.0644219 L 98.153467 0.137885 L 97.146533 0.423828 L 96.283285 0.856698 L 95.420036 1.430844 L 94.77062 2.079583 L 94.197007 2.943062 L 0.857591 164.743687 L 0.423139 165.67724 L 0.134635 166.615312 L 0.0644891 167.622328 L 0.134635 168.627083 L 0.423139 169.634099 L 0.857591 170.497578 L 1.431204 171.361057 L 2.076095 172.009797 L 2.939343 172.583943 L 3.802591 173.013422 L 4.810657 173.302755 L 5.817591 173.372828 L 192.50208 173.372828 L 193.509015 173.302755 L 194.442409 173.013422 L 195.376934 172.583943 L 196.170036 172.009797 L 196.888467 171.361057 L 197.46208 170.497578 L 197.896533 169.634099 L 198.181642 168.627083 L 198.255182 167.622328 L 198.181642 166.615312 L 197.896533 165.67724 Z M 197.46208 164.743687 " transform="matrix(3.452621,0,0,3.456221,0,0)"/>
    <path style="fill-rule:evenodd;fill:rgb(92.156863%,74.901961%,16.862745%);fill-opacity:1;stroke-width:0.127844;stroke-linecap:butt;stroke-linejoin:miter;stroke:rgb(0.784314%,1.960784%,1.960784%);stroke-opacity:1;stroke-miterlimit:2.613;" d="M 99.158139 18.114979 L 181.856861 161.509031 L 16.458285 161.509031 Z M 99.158139 18.114979 " transform="matrix(3.452621,0,0,3.456221,0,0)"/>
    <path style="fill-rule:evenodd;fill:rgb(0.784314%,1.960784%,1.960784%);fill-opacity:1;stroke-width:0.027966;stroke-linecap:butt;stroke-linejoin:miter;stroke:rgb(0.784314%,1.960784%,1.960784%);stroke-opacity:1;stroke-miterlimit:2.613;" d="M 125.24792 84.798401 L 121.110438 80.661839 L 99.994234 101.77074 L 104.130584 105.907302 Z M 125.24792 84.798401 " transform="matrix(3.452621,0,0,3.456221,0,0)"/>
    <path style="fill-rule:evenodd;fill:rgb(0.784314%,1.960784%,1.960784%);fill-opacity:1;stroke-width:0.027966;stroke-linecap:butt;stroke-linejoin:miter;stroke:rgb(0.784314%,1.960784%,1.960784%);stroke-opacity:1;stroke-miterlimit:2.613;" d="M 98.286971 101.77074 L 94.189088 105.907302 L 73.071752 84.798401 L 77.204708 80.661839 Z M 98.286971 101.77074 " transform="matrix(3.452621,0,0,3.456221,0,0)"/>
    <path style="fill-rule:evenodd;fill:rgb(0.784314%,1.960784%,1.960784%);fill-opacity:1;stroke-width:0.027966;stroke-linecap:butt;stroke-linejoin:miter;stroke:rgb(0.784314%,1.960784%,1.960784%);stroke-opacity:1;stroke-miterlimit:2.613;" d="M 126.084015 82.727859 L 126.009343 81.966099 L 125.720839 81.243896 L 125.24792 80.661839 L 124.630182 80.189411 L 123.943431 79.900078 L 123.180876 79.790448 L 122.419453 79.900078 L 121.728175 80.189411 L 121.110438 80.661839 L 120.642044 81.243896 L 120.349015 81.966099 L 120.278869 82.727859 L 120.349015 83.454583 L 120.642044 84.181307 L 121.110438 84.798401 L 121.728175 85.232401 L 122.419453 85.520604 L 123.180876 85.630234 L 123.943431 85.520604 L 124.630182 85.232401 L 125.24792 84.798401 L 125.720839 84.181307 L 126.009343 83.454583 Z M 126.084015 82.727859 " transform="matrix(3.452621,0,0,3.456221,0,0)"/>
    <path style="fill-rule:evenodd;fill:rgb(0.784314%,1.960784%,1.960784%);fill-opacity:1;stroke-width:0.027966;stroke-linecap:butt;stroke-linejoin:miter;stroke:rgb(0.784314%,1.960784%,1.960784%);stroke-opacity:1;stroke-miterlimit:2.613;" d="M 78.040803 82.727859 L 77.931058 81.966099 L 77.642555 81.243896 L 77.204708 80.661839 L 76.586971 80.189411 L 75.865146 79.900078 L 75.138796 79.790448 L 74.376241 79.900078 L 73.649891 80.189411 L 73.071752 80.661839 L 72.598832 81.243896 L 72.310328 81.966099 L 72.200584 82.727859 L 72.310328 83.454583 L 72.598832 84.181307 L 73.071752 84.798401 L 73.649891 85.232401 L 74.376241 85.520604 L 75.138796 85.630234 L 75.865146 85.520604 L 76.586971 85.232401 L 77.204708 84.798401 L 77.642555 84.181307 L 77.931058 83.454583 Z M 78.040803 82.727859 " transform="matrix(3.452621,0,0,3.456221,0,0)"/>
    <path style="fill-rule:evenodd;fill:rgb(0.784314%,1.960784%,1.960784%);fill-opacity:1;stroke-width:0.027966;stroke-linecap:butt;stroke-linejoin:miter;stroke:rgb(0.784314%,1.960784%,1.960784%);stroke-opacity:1;stroke-miterlimit:2.613;" d="M 105.001752 103.841281 L 104.892007 103.079521 L 104.603504 102.387833 L 104.130584 101.77074 L 103.512847 101.302833 L 102.826095 101.008979 L 102.060146 100.900479 L 101.302117 101.008979 L 100.610839 101.302833 L 99.994234 101.77074 L 99.559781 102.387833 L 99.266752 103.079521 L 99.158139 103.841281 L 99.266752 104.603042 L 99.559781 105.290208 L 99.994234 105.907302 L 100.610839 106.341302 L 101.302117 106.634026 L 102.060146 106.743656 L 102.826095 106.634026 L 103.512847 106.341302 L 104.130584 105.907302 L 104.603504 105.290208 L 104.892007 104.603042 Z M 105.001752 103.841281 " transform="matrix(3.452621,0,0,3.456221,0,0)"/>
    <path style="fill-rule:evenodd;fill:rgb(0.784314%,1.960784%,1.960784%);fill-opacity:1;stroke-width:0.027966;stroke-linecap:butt;stroke-linejoin:miter;stroke:rgb(0.784314%,1.960784%,1.960784%);stroke-opacity:1;stroke-miterlimit:2.613;" d="M 99.158139 103.841281 L 99.051788 103.079521 L 98.759891 102.387833 L 98.286971 101.77074 L 97.708832 101.302833 L 96.982482 101.008979 L 96.219927 100.900479 L 95.493577 101.008979 L 94.767226 101.302833 L 94.189088 101.77074 L 93.716168 102.387833 L 93.427664 103.079521 L 93.31792 103.841281 L 93.427664 104.603042 L 93.716168 105.290208 L 94.189088 105.907302 L 94.767226 106.341302 L 95.493577 106.634026 L 96.219927 106.743656 L 96.982482 106.634026 L 97.708832 106.341302 L 98.286971 105.907302 L 98.759891 105.290208 L 99.051788 104.603042 Z M 99.158139 103.841281 " transform="matrix(3.452621,0,0,3.456221,0,0)"/>
    <path style="fill-rule:evenodd;fill:rgb(0.784314%,1.960784%,1.960784%);fill-opacity:1;stroke-width:0.027966;stroke-linecap:butt;stroke-linejoin:miter;stroke:rgb(0.784314%,1.960784%,1.960784%);stroke-opacity:1;stroke-miterlimit:2.613;" d="M 104.818467 92.848875 L 104.712117 91.759354 L 104.384015 90.673224 L 103.876022 89.693333 L 103.149672 88.86037 L 102.313577 88.134776 L 101.33719 87.626182 L 100.247664 87.298422 L 99.158139 87.188792 L 98.036934 87.298422 L 96.982482 87.626182 L 96.001569 88.134776 L 95.130401 88.86037 L 94.442518 89.693333 L 93.935657 90.673224 L 93.607555 91.759354 L 93.49781 92.848875 L 93.607555 93.939526 L 93.935657 95.024526 L 94.442518 96.005547 L 95.130401 96.841901 L 96.001569 97.564104 L 96.982482 98.071568 L 98.036934 98.400458 L 99.158139 98.508958 L 100.247664 98.400458 L 101.33719 98.071568 L 102.313577 97.564104 L 103.149672 96.841901 L 103.876022 96.005547 L 104.384015 95.024526 L 104.712117 93.939526 Z M 104.818467 92.848875 " transform="matrix(3.452621,0,0,3.456221,0,0)"/>
    <path style="fill-rule:evenodd;fill:rgb(0.784314%,1.960784%,1.960784%);fill-opacity:1;stroke-width:0.027966;stroke-linecap:butt;stroke-linejoin:miter;stroke:rgb(0.784314%,1.960784%,1.960784%);stroke-opacity:1;stroke-miterlimit:2.613;" d="M 151.845693 126.583333 L 138.094818 114.212073 L 138.094818 122.993792 L 134.173431 121.430714 L 131.779416 120.59888 L 129.349197 119.981786 L 126.880511 119.579432 L 124.376752 119.364693 L 121.83792 119.364693 L 119.333029 119.579432 L 116.868869 119.981786 L 114.435255 120.59888 L 112.076314 121.430714 L 107.215876 123.353198 L 105.255182 124.005328 L 103.259416 124.477755 L 101.228577 124.767089 L 99.158139 124.876719 L 97.091095 124.767089 L 95.060255 124.477755 L 93.064489 124.005328 L 91.102664 123.353198 L 86.243358 121.430714 L 83.884416 120.59888 L 81.450803 119.981786 L 78.947044 119.579432 L 76.443285 119.364693 L 73.94292 119.364693 L 71.439161 119.579432 L 68.970474 119.981786 L 66.501788 120.59888 L 64.141715 121.430714 L 59.282409 123.353198 L 57.211971 124.044885 L 55.071387 124.552349 L 52.89573 124.806646 L 50.720073 124.876719 L 48.541022 124.697016 L 48.033029 124.732052 L 47.560109 124.950182 L 47.196934 125.349146 L 46.981971 125.821573 L 46.872226 126.798073 L 46.981971 127.744057 L 47.306679 128.649354 L 47.853139 129.485708 L 48.541022 130.172875 L 49.337518 130.681469 L 50.283358 131.009229 L 51.224672 131.114339 L 53.872117 130.969672 L 56.48562 130.606875 L 59.064051 129.989781 L 61.56781 129.157948 L 66.431642 127.235464 L 68.537153 126.50874 L 70.747883 126.001276 L 72.962007 125.676906 L 75.212336 125.568406 L 77.423066 125.676906 L 79.673394 126.001276 L 81.853577 126.50874 L 83.954562 127.235464 L 88.818394 129.157948 L 91.032518 129.919708 L 93.31792 130.501766 L 95.638394 130.899599 L 97.962263 131.079302 L 100.322336 131.079302 L 102.677883 130.899599 L 105.001752 130.501766 L 107.25208 129.919708 L 109.501277 129.157948 L 114.325511 127.235464 L 116.466095 126.50874 L 118.646277 126.001276 L 120.857007 125.676906 L 123.107336 125.568406 L 125.356533 125.676906 L 127.571788 126.001276 L 129.747445 126.50874 L 131.888029 127.235464 L 136.716788 129.157948 L 138.094818 129.630375 L 138.094818 131.188932 L 139.798686 131.841062 L 141.251387 132.349656 L 142.775365 132.74749 L 142.775365 121.212583 L 150.286642 127.997224 Z M 151.845693 126.583333 " transform="matrix(3.452621,0,0,3.456221,0,0)"/>
    <path style="fill-rule:evenodd;fill:rgb(0.784314%,1.960784%,1.960784%);fill-opacity:1;stroke-width:0.027966;stroke-linecap:butt;stroke-linejoin:miter;stroke:rgb(0.784314%,1.960784%,1.960784%);stroke-opacity:1;stroke-miterlimit:2.613;" d="M 144.880876 126.001276 L 144.880876 135.252031 L 142.880584 134.962698 L 140.923285 134.490271 L 139.001058 133.83701 L 134.173431 131.915656 L 131.779416 131.079302 L 129.349197 130.462208 L 126.880511 130.064375 L 124.376752 129.845115 L 121.83792 129.845115 L 119.333029 130.064375 L 116.868869 130.462208 L 114.435255 131.079302 L 112.076314 131.915656 L 107.215876 133.83701 L 105.255182 134.490271 L 103.259416 134.962698 L 101.228577 135.252031 L 99.158139 135.360531 L 97.091095 135.252031 L 95.060255 134.962698 L 93.064489 134.490271 L 91.102664 133.83701 L 86.243358 131.915656 L 83.884416 131.079302 L 81.450803 130.462208 L 78.947044 130.064375 L 76.443285 129.845115 L 73.94292 129.845115 L 71.439161 130.064375 L 68.970474 130.462208 L 66.501788 131.079302 L 64.141715 131.915656 L 59.282409 133.83701 L 57.103358 134.560344 L 54.853029 135.072328 L 52.607226 135.325495 L 50.283358 135.325495 L 47.997956 135.107365 L 45.747628 134.669974 L 43.571971 133.981677 L 42.989307 133.873177 L 42.447372 134.016714 L 42.009526 134.380641 L 41.719891 134.853068 L 41.64635 135.431734 L 41.829635 135.977625 L 42.591058 137.173385 L 43.497299 138.297943 L 44.587956 139.278964 L 45.747628 140.07576 L 47.052117 140.727891 L 48.396204 141.200318 L 49.810438 141.489651 L 51.224672 141.599281 L 53.872117 141.454615 L 56.48562 141.091818 L 59.064051 140.474724 L 61.56781 139.63837 L 66.431642 137.715885 L 68.532628 136.993682 L 70.747883 136.446661 L 72.962007 136.157328 L 75.212336 136.048828 L 77.423066 136.157328 L 79.673394 136.446661 L 81.849051 136.993682 L 83.954562 137.715885 L 88.818394 139.63837 L 91.032518 140.40013 L 93.31792 140.982188 L 95.638394 141.380021 L 97.962263 141.564245 L 100.322336 141.564245 L 102.677883 141.380021 L 105.001752 140.982188 L 107.25208 140.40013 L 109.501277 139.63837 L 114.325511 137.715885 L 116.466095 136.993682 L 118.646277 136.446661 L 120.857007 136.157328 L 123.107336 136.048828 L 125.356533 136.157328 L 127.571788 136.446661 L 129.747445 136.993682 L 131.888029 137.715885 L 136.716788 139.63837 L 139.400438 140.513151 L 142.122555 141.165281 L 144.880876 141.489651 L 144.880876 150.775443 L 158.63062 138.369146 Z M 144.880876 126.001276 " transform="matrix(3.452621,0,0,3.456221,0,0)"/>
    <path style="fill-rule:evenodd;fill:rgb(0.784314%,1.960784%,1.960784%);fill-opacity:1;stroke-width:0.027966;stroke-linecap:butt;stroke-linejoin:miter;stroke:rgb(0.784314%,1.960784%,1.960784%);stroke-opacity:1;stroke-miterlimit:2.613;" d="M 106.016606 102.896427 L 102.060146 100.900479 L 96.219927 100.900479 L 92.301934 102.896427 L 92.301934 120.778583 L 94.189088 121.395677 L 96.146387 121.829677 L 98.142153 122.012771 L 100.13792 122.012771 L 102.134818 121.829677 L 104.095511 121.395677 L 106.016606 120.778583 Z M 106.016606 102.896427 " transform="matrix(3.452621,0,0,3.456221,0,0)"/>
  </g>
</svg>