<?xml version="1.0" encoding="UTF-8" standalone="yes"?>
<svg xmlns="http://www.w3.org/2000/svg" xmlns:xlink="http://www.w3.org/1999/xlink" width="685pt" height="600pt" viewBox="0 0 685 600" version="1.1">
  <g id="surface1">
    <path style="fill-rule:evenodd;fill:rgb(0.784314%,1.960784%,1.960784%);fill-opacity:1;stroke-width:0.127844;stroke-linecap:butt;stroke-linejoin:miter;stroke:rgb(0.784314%,1.960784%,1.960784%);stroke-opacity:1;stroke-miterlimit:2.613;" d="M 197.46208 164.743687 L 104.11927 2.943062 L 103.544526 2.079583 L 102.826095 1.430844 L 102.032993 0.856698 L 101.099599 0.423828 L 100.165073 0.137885 L 99.158139 0.0644219 L 98.150073 0.137885 L 97.146533 0.423828 L 96.283285 0.856698 L 95.420036 1.430844 L 94.77062 2.079583 L 94.197007 2.943062 L 0.853066 164.743687 L 0.423139 165.67724 L 0.134635 166.615312 L 0.0644891 167.622328 L 0.134635 168.627083 L 0.423139 169.634099 L 0.853066 170.497578 L 1.42781 171.361057 L 2.076095 172.009797 L 2.939343 172.583943 L 3.802591 173.013422 L 4.810657 173.302755 L 5.814197 173.372828 L 192.50208 173.372828 L 193.50562 173.302755 L 194.442409 173.013422 L 195.376934 172.583943 L 196.170036 172.009797 L 196.888467 171.361057 L 197.46208 170.497578 L 197.892007 169.634099 L 198.181642 168.627083 L 198.251788 167.622328 L 198.181642 166.615312 L 197.892007 165.67724 Z M 197.46208 164.743687 " transform="matrix(3.452621,0,0,3.456221,0,0)"/>
    <path style="fill-rule:evenodd;fill:rgb(92.156863%,74.901961%,16.862745%);fill-opacity:1;stroke-width:0.127844;stroke-linecap:butt;stroke-linejoin:miter;stroke:rgb(0.784314%,1.960784%,1.960784%);stroke-opacity:1;stroke-miterlimit:2.613;" d="M 99.158139 18.114979 L 181.856861 161.509031 L 16.458285 161.509031 Z M 99.158139 18.114979 " transform="matrix(3.452621,0,0,3.456221,0,0)"/>
    <path style=" stroke:none;fill-rule:evenodd;fill:rgb(0.784314%,1.960784%,1.960784%);fill-opacity:1;" d="M 273.085938 321.839844 C 279.53125 321.839844 317.027344 326.5625 323.230469 327.5625 C 330.929688 328.804688 342.851562 334.273438 357 348.4375 C 371.148438 362.597656 383.070312 358.871094 392.511719 358.871094 C 401.9375 358.871094 438.191406 356.386719 457.800781 365.839844 C 477.667969 375.03125 493.554688 383.484375 493.554688 383.484375 L 480.148438 425.242188 C 480.148438 425.242188 458.058594 416.035156 447.132812 413.308594 C 425.527344 408.097656 418.824219 416.035156 398.460938 418.773438 C 373.386719 422.257812 340.117188 412.808594 326.210938 406.355469 C 314.046875 400.628906 272.828125 386.710938 272.828125 386.710938 Z M 273.085938 321.839844 "/>
    <path style=" stroke:none;fill-rule:evenodd;fill:rgb(0.784314%,1.960784%,1.960784%);fill-opacity:1;" d="M 233.597656 516.953125 L 214.230469 516.953125 L 214.230469 342.96875 L 233.597656 342.96875 Z M 233.597656 516.953125 "/>
    <path style=" stroke:none;fill-rule:evenodd;fill:rgb(9.803922%,9.019608%,9.803922%);fill-opacity:1;" d="M 243.292969 360.871094 L 227.890625 360.871094 L 227.890625 347.9375 L 243.292969 347.9375 Z M 243.292969 360.871094 "/>
    <path style=" stroke:none;fill-rule:evenodd;fill:rgb(0.784314%,1.960784%,1.960784%);fill-opacity:1;" d="M 275.808594 325.320312 L 233.851562 356.144531 Z M 275.808594 325.320312 "/>
    <path style="fill:none;stroke-width:2.83056;stroke-linecap:butt;stroke-linejoin:miter;stroke:rgb(9.803922%,9.019608%,9.803922%);stroke-opacity:1;stroke-miterlimit:2.613;" d="M 79.883832 94.12601 L 67.731606 103.044484 " transform="matrix(3.452621,0,0,3.456221,0,0)"/>
    <path style=" stroke:none;fill-rule:evenodd;fill:rgb(0.784314%,1.960784%,1.960784%);fill-opacity:1;" d="M 275.3125 383.242188 L 233.609375 352.417969 Z M 275.3125 383.242188 "/>
    <path style="fill:none;stroke-width:2.83056;stroke-linecap:butt;stroke-linejoin:miter;stroke:rgb(9.803922%,9.019608%,9.803922%);stroke-opacity:1;stroke-miterlimit:2.613;" d="M 79.740146 110.88474 L 67.66146 101.966266 " transform="matrix(3.452621,0,0,3.456221,0,0)"/>
  </g>
</svg>