<?xml version="1.0" encoding="UTF-8" standalone="yes"?>
<svg xmlns="http://www.w3.org/2000/svg" xmlns:xlink="http://www.w3.org/1999/xlink" width="685pt" height="600pt" viewBox="0 0 685 600" version="1.1">
  <g id="surface1">
    <path style="fill-rule:evenodd;fill:rgb(0.784314%,1.960784%,1.960784%);fill-opacity:1;stroke-width:0.127844;stroke-linecap:butt;stroke-linejoin:miter;stroke:rgb(0.784314%,1.960784%,1.960784%);stroke-opacity:1;stroke-miterlimit:2.613;" d="M 197.46208 164.743682 L 104.11927 2.943057 L 103.544526 2.079578 L 102.826095 1.430839 L 102.032993 0.856693 L 101.099599 0.423823 L 100.165073 0.13788 L 99.158139 0.0644169 L 98.150073 0.13788 L 97.146533 0.423823 L 96.283285 0.856693 L 95.420036 1.430839 L 94.77062 2.079578 L 94.197007 2.943057 L 0.853066 164.743682 L 0.423139 165.677235 L 0.134635 166.615307 L 0.0644891 167.622323 L 0.134635 168.627078 L 0.423139 169.634094 L 0.853066 170.497573 L 1.42781 171.361052 L 2.076095 172.009792 L 2.939343 172.583938 L 3.802591 173.013417 L 4.810657 173.30275 L 5.814197 173.372823 L 192.50208 173.372823 L 193.50562 173.30275 L 194.442409 173.013417 L 195.376934 172.583938 L 196.170036 172.009792 L 196.888467 171.361052 L 197.46208 170.497573 L 197.892007 169.634094 L 198.181642 168.627078 L 198.251788 167.622323 L 198.181642 166.615307 L 197.892007 165.677235 Z M 197.46208 164.743682 " transform="matrix(3.452621,0,0,3.456221,0,0.0000172811)"/>
    <path style="fill-rule:evenodd;fill:rgb(92.156863%,74.901961%,16.862745%);fill-opacity:1;stroke-width:0.127844;stroke-linecap:butt;stroke-linejoin:miter;stroke:rgb(0.784314%,1.960784%,1.960784%);stroke-opacity:1;stroke-miterlimit:2.613;" d="M 99.158139 18.114974 L 181.856861 161.509026 L 16.458285 161.509026 Z M 99.158139 18.114974 " transform="matrix(3.452621,0,0,3.456221,0,0.0000172811)"/>
    <path style=" stroke:none;fill-rule:evenodd;fill:rgb(0.784314%,1.960784%,1.960784%);fill-opacity:1;" d="M 328.207031 446.113281 C 278.789062 455.308594 233.851562 450.339844 206.796875 434.179688 L 456.574219 357.386719 L 457.816406 381.742188 L 457.558594 381.984375 C 444.152344 396.402344 425.285156 410.324219 402.4375 421.503906 C 395.75 408.839844 382.585938 400.628906 367.441406 400.628906 C 345.589844 400.628906 327.707031 418.277344 327.707031 440.402344 C 327.707031 442.132812 328.207031 446.113281 328.207031 446.113281 "/>
    <path style=" stroke:none;fill-rule:evenodd;fill:rgb(0.784314%,1.960784%,1.960784%);fill-opacity:1;" d="M 259.179688 515.953125 L 489.847656 429.46875 L 489.847656 515.953125 Z M 259.179688 515.953125 "/>
    <path style="fill:none;stroke-width:5.05185;stroke-linecap:butt;stroke-linejoin:miter;stroke:rgb(9.803922%,9.019608%,9.803922%);stroke-opacity:1;stroke-miterlimit:2.613;" d="M 113.685146 127.494276 C 113.685146 131.446615 110.450511 134.684662 106.494051 134.684662 C 102.540985 134.684662 99.301825 131.446615 99.301825 127.494276 C 99.301825 123.536287 102.540985 120.302761 106.494051 120.302761 C 110.450511 120.302761 113.685146 123.536287 113.685146 127.494276 Z M 113.685146 127.494276 " transform="matrix(3.452621,0,0,3.456221,0,0.0000172811)"/>
    <path style="fill:none;stroke-width:4.83112;stroke-linecap:butt;stroke-linejoin:miter;stroke:rgb(9.803922%,9.019608%,9.803922%);stroke-opacity:1;stroke-miterlimit:2.613;" d="M 87.005912 63.778781 L 102.540985 114.54887 " transform="matrix(3.452621,0,0,3.456221,0,0.0000172811)"/>
    <path style="fill:none;stroke-width:2.91945;stroke-linecap:butt;stroke-linejoin:miter;stroke:rgb(9.803922%,9.019608%,9.803922%);stroke-opacity:1;stroke-miterlimit:2.613;" d="M 66.224599 125.767318 L 87.869161 68.309787 " transform="matrix(3.452621,0,0,3.456221,0,0.0000172811)"/>
    <path style="fill:none;stroke-width:2.22729;stroke-linecap:butt;stroke-linejoin:miter;stroke:rgb(9.803922%,9.019608%,9.803922%);stroke-opacity:1;stroke-miterlimit:2.613;" d="M 87.50938 65.935219 L 131.016861 110.021255 " transform="matrix(3.452621,0,0,3.456221,0,0.0000172811)"/>
    <path style=" stroke:none;fill-rule:evenodd;fill:rgb(0.784314%,1.960784%,1.960784%);fill-opacity:1;" d="M 489.847656 400.128906 L 368.679688 445.371094 C 366.199219 446.371094 363.703125 445.117188 362.71875 442.632812 C 361.722656 440.402344 362.960938 437.664062 365.445312 436.664062 L 428.265625 413.050781 L 489.847656 390.195312 Z M 489.847656 400.128906 "/>
    <path style=" stroke:none;fill-rule:evenodd;fill:rgb(0.784314%,1.960784%,1.960784%);fill-opacity:1;" d="M 352.292969 473.210938 C 350.296875 473.210938 348.074219 473.453125 346.078125 473.453125 C 346.078125 473.453125 339.375 473.210938 335.90625 472.453125 C 323.484375 470.96875 313.304688 465.003906 301.636719 461.773438 C 290.957031 458.792969 280.289062 458.792969 269.605469 459.777344 C 256.941406 460.777344 246.773438 466.988281 234.59375 470.46875 C 223.925781 473.710938 212.746094 473.210938 202.078125 470.96875 C 200.835938 478.679688 206.542969 485.886719 213.746094 486.375 C 228.390625 486.875 242.054688 482.148438 255.957031 476.679688 C 261.917969 474.695312 268.121094 473.210938 274.824219 472.453125 C 290.46875 470.96875 304.859375 476.679688 319.023438 482.148438 C 320.503906 482.902344 321.746094 483.390625 323.242188 483.648438 Z M 352.292969 473.210938 "/>
    <path style=" stroke:none;fill-rule:evenodd;fill:rgb(0.784314%,1.960784%,1.960784%);fill-opacity:1;" d="M 275.324219 501.535156 L 274.824219 501.535156 C 268.121094 502.035156 261.917969 503.535156 255.957031 505.519531 C 242.054688 511.242188 228.390625 515.710938 213.746094 515.210938 C 206.542969 514.710938 200.835938 507.503906 202.078125 500.050781 C 212.746094 502.035156 223.925781 502.535156 234.609375 499.550781 C 246.773438 495.824219 256.941406 489.855469 269.605469 488.859375 C 280.289062 487.617188 290.96875 487.617188 301.636719 490.855469 C 302.136719 490.855469 302.636719 491.097656 302.878906 491.097656 Z M 275.324219 501.535156 "/>
  </g>
</svg>