<?xml version="1.0" encoding="UTF-8" standalone="yes"?>
<svg xmlns:svg="http://www.w3.org/2000/svg" xmlns="http://www.w3.org/2000/svg" height="200" width="200" version="1.0" id="svg28" viewBox="0 0 200 200">
  <defs id="defs32"/>
  <path fill="#a92121" d="m5.4189,5.423,189.16,0,0,189.15-189.16,0,0-189.15z" fill-rule="evenodd" id="path6" style="fill:#9b2423;fill-opacity:1"/>
  <g transform="translate(227.95276,-1.1811024)" fill="#ffffff" id="g14">
    <path d="m-149.44,95.107h48.177v-5.9823h-98.848c0.13822,2.0808-0.39792,4.359,0.5722,6.2639,2.94,0.06043,6.1231-0.18707,9.1562-0.1348,13.647-0.12318,27.295-0.14145,40.943-0.14679z" id="path8"/>
    <path d="m-101.97,86.908c-3.5454-2.7624-9.1182-2.0785-12.664-5.363-8.8984-6.5299-10.51-18.226-16.535-26.859-4.9118-7.2072-12.272-13.644-21.323-14.338-8.1339-1.2282-16.54,1.5859-22.591,7.0903-2.3624,2.5007-5.5405,4.4178-7.4206,7.2295-2.0504,5.3846-3.9567,10.868-5.186,16.503,1.4105,3.8396-0.5572,7.977-3.2991,10.855-1.5814,3.3941-7.8841,1.9846-8.2993,5.4098,17.591,0.65826,35.208,0.40487,52.81,0.49345,14.17-0.09064,28.352,0.2035,42.513-0.36038,0.57245-0.16718,1.8373,0.08671,1.9945-0.65997z" id="path10"/>
    <path d="m-106.65,82.356c-1.6188-2.0634-4.5144-2.9015-6.0351-5.2164-3.6756-3.7677-4.7464-9.0461-6.384-13.855-2.8801-7.7542-6.751-15.354-12.491-21.393-5.2072-4.796-12.153-7.0494-18.826-8.9979-6.1089-1.9376-12.559-1.3817-18.868-1.4971-0.26509,3.2238-0.91518,6.4538-0.68186,9.6884,3.3812-0.35325,6.4896-2.1155,9.917-2.3889,8.7196-1.25,17.7,1.8621,24.504,7.2662,5.8482,5.7303,9.6058,13.22,12.44,20.812,2.732,6.2903,6.4855,13.104,13.315,15.587,0.76769,0.01396,3.156,1.5817,3.1101-0.0055z" id="path12"/>
  </g>
  <g transform="translate(-0.13238367,0.07363986)" fill="#ffffff" id="g26">
    <path id="path14553-3-5" style="display:inline;fill:#ffffff;fill-opacity:1;stroke:none;stroke-width:0.137318px;stroke-linecap:butt;stroke-linejoin:miter;stroke-opacity:1" d="m 154.07169,49.866904 c -1.6949,6.398715 -2.20703,14.050021 -0.97139,20.605631 2.49029,9.336446 8.13848,16.572486 15.19745,22.576352 1.24567,1.12087 2.65343,1.890747 4.05267,2.613715 V 76.259559 c -4.19573,-0.665406 -7.34075,-4.42221 -9.60508,-7.735156 -3.81475,-5.874259 -6.24864,-12.297031 -8.67358,-18.657499 z m -24.19428,8.454623 c -0.96557,0.0029 -1.99378,0.03699 -3.02212,0.07129 5.57647,4.268263 7.31558,10.687939 9.15151,16.744123 1.91422,6.656061 4.29905,13.038049 8.06709,18.54281 7.06681,9.37807 17.77681,13.51577 28.27647,10.50179 -9.28873,-3.86487 -15.00633,-12.913494 -19.28315,-20.689052 -3.87704,-6.1288 -4.97274,-13.874688 -10.13512,-18.909515 -3.77795,-3.583016 -8.07256,-6.2704 -13.05468,-6.261315 z m 1.50324,28.057505 c -0.65217,11.981135 3.39289,21.945488 10.65976,30.268058 7.69359,8.98725 19.98583,13.56242 30.30978,16.87447 v -19.40304 c -6.60458,-0.1294 -12.61884,-2.324 -17.69476,-5.38036 -10.03336,-6.08647 -17.15889,-13.070733 -23.27495,-22.359128 z m -13.90448,37.283618 c 9.36353,2.22989 13.73965,8.25523 18.96334,14.53882 4.17855,5.33513 9.7211,8.50764 15.82829,9.58595 7.60627,1.28019 14.84646,0.0953 20.08256,-5.5107 -12.18003,-2.16427 -19.32913,-9.654 -27.63696,-16.49042 -9.72527,-6.51031 -17.27823,-9.64325 -27.23723,-2.12365 z m 13.86449,19.30411 c 1.10372,6.14397 3.03683,11.91701 6.52911,16.6051 9.60758,11.32516 22.08561,11.11635 34.48059,11.33771 v -19.40304 c -7.86618,1.84446 -17.50493,2.72182 -24.79386,0.94188 -6.64735,-1.36441 -11.65348,-5.30568 -16.21584,-9.48166 z"/>
  </g>
</svg>