<?xml version="1.0" encoding="UTF-8" standalone="yes"?>
<svg xmlns="http://www.w3.org/2000/svg" height="525" width="600" version="1.1" viewBox="0 0 600 525">
  <path d="M597.7,500.3,313.9,8.7c-2.9-5-8.2-8-13.9-8s-11,3.1-13.9,8l-283.8,491.6c-2.9,5-2.9,11.1,0,16,2.9,5,8.2,8,13.9,8h567.6c5.7,0,11-3.1,13.9-8,2.9-5,2.9-11.1,0-16z"/>
  <polygon points="299.88,48.2,555.88,491.5,43.875,491.5" fill="#f6bd16" transform="matrix(1,0,0,0.99591458,0.225,2.73324)"/>
  <g transform="matrix(0.87358305,0,0,0.87358305,553.69356,106.28029)">
    <g fill="#000000" transform="matrix(1.1414343,0,0,1.1414343,245.53947,-98.124337)" stroke="#000000">
      <path d="m-501.18,175.99-92.65,234.62-41.071-12.975-5.0243,15.605c18.917,4.5648,38.838,13.073,57.575,17.624l6.2377-21.562h25.406c0.75683,14.134,8.9195,28.421,24.088,28.455,15.236,1.2808,28.699-9.6512,29.467-27.705l61.273-0.23767c-1.8048,20.282,20.959,27.14,30.492,27.431,13.443,0,29.724-11.957,30.492-27.193l35.321-0.23767,0.51234-75.768c-1.223-13.743-6.9086-19.236-19.488-19.744h-32.219l0.19983-89.108c0.44117-8.9421-7.1692-15.879-16.312-16.917l-65.498,0.23954c-8.3026,1.917-11.841,4.2538-15.838,12.9-20.424,51.952-37.549,95.269-56.235,146.35l-13.369-0.25617,71.576-186.16zm25.912,50.779c0.99833-2.1049,1.4462-4.2885,7.0519-5.7352l56.644-0.66894c4.473,0.0866,6.6344,3.4047,7.4288,7.3892v86.549h-9.4062l-0.7685-47.951c-0.003-2.6837-2.8595-4.8717-5.7932-5l-6.6403-0.25617c-2.4095-0.0929-6.5513,3.4396-7.4739,5.1531l-10.812,21.104-23.845-6.148c-5.2118-1.572-8.9752,8.1123-3.3055,10.025l28.317,8.9926c6.7546,2.2663,4.377-0.54081,5.6276-1.3323l4.6945-9.5863v18l-29.827,0.25617c-2.1721,0.36168-3.1832,1.8512-3.6365,3.7862l-12.044,38.213-33.82-0.25617,35.164-51.87,6.8063,6.2627c5.9506,1.3813,3.0076-2.1783,3.4185-3.8746l-14.707-18.518c-2.9681-0.34367-5.7492-0.46923-4.6994,3.8746l5.8943,7.1752-37.289,56.438-10.261,0.51233zm18.461,94.071,7.233-0.7685,1.0247,29.232-16.67,0.25617zm-67.506,76.963c7.4686,0.00001,13.5,6.0631,13.5,13.531-0.00001,7.4682-6.0314,13.531-13.5,13.531s-13.531-6.0631-13.531-13.531c0-7.4682,6.0626-13.531,13.531-13.531zm118.67-8.7097c11.873-1.2661,17.855,9.9056,17.855,17.374-0.00001,7.4682-4.7506,16.349-16.574,17.117-7.4529,0.48442-18.148-9.1551-17.63-16.605,0.7685-11.055,5.8891-16.77,16.349-17.886z"/>
      <path stroke-width="2.62827206" d="m-426.16,235.53c-8.4176-0.4144-12.347,11.494-6.0625,16.562,5.6393,6.9769,18.987,1.6265,17.656-7.5938-0.17628-5.733-6.2011-9.6474-11.594-8.9688z"/>
    </g>
  </g>
</svg>