<?xml version="1.0" encoding="UTF-8" standalone="yes"?>
<svg xmlns="http://www.w3.org/2000/svg" xmlns:xlink="http://www.w3.org/1999/xlink" width="685pt" height="600pt" viewBox="0 0 685 600" version="1.1">
  <g id="surface1">
    <path style="fill-rule:evenodd;fill:rgb(0.784314%,1.960784%,1.960784%);fill-opacity:1;stroke-width:0.127844;stroke-linecap:butt;stroke-linejoin:miter;stroke:rgb(0.784314%,1.960784%,1.960784%);stroke-opacity:1;stroke-miterlimit:2.613;" d="M 197.46208 164.743687 L 104.122664 2.943062 L 103.544526 2.079583 L 102.826095 1.430844 L 102.036387 0.856698 L 101.099599 0.423828 L 100.165073 0.137885 L 99.158139 0.0644219 L 98.153467 0.137885 L 97.146533 0.423828 L 96.283285 0.856698 L 95.420036 1.430844 L 94.77062 2.079583 L 94.197007 2.943062 L 0.857591 164.743687 L 0.423139 165.67724 L 0.134635 166.615312 L 0.0644891 167.622328 L 0.134635 168.627083 L 0.423139 169.634099 L 0.857591 170.497578 L 1.431204 171.361057 L 2.076095 172.009797 L 2.939343 172.583943 L 3.802591 173.013422 L 4.810657 173.302755 L 5.817591 173.372828 L 192.50208 173.372828 L 193.509015 173.302755 L 194.442409 173.013422 L 195.376934 172.583943 L 196.170036 172.009797 L 196.888467 171.361057 L 197.46208 170.497578 L 197.896533 169.634099 L 198.181642 168.627083 L 198.255182 167.622328 L 198.181642 166.615312 L 197.896533 165.67724 Z M 197.46208 164.743687 " transform="matrix(3.452621,0,0,3.456221,0,0)"/>
    <path style="fill-rule:evenodd;fill:rgb(92.156863%,74.901961%,16.862745%);fill-opacity:1;stroke-width:0.127844;stroke-linecap:butt;stroke-linejoin:miter;stroke:rgb(0.784314%,1.960784%,1.960784%);stroke-opacity:1;stroke-miterlimit:2.613;" d="M 99.158139 18.114979 L 181.856861 161.509031 L 16.458285 161.509031 Z M 99.158139 18.114979 " transform="matrix(3.452621,0,0,3.456221,0,0)"/>
    <path style="fill-rule:evenodd;fill:rgb(0.784314%,1.960784%,1.960784%);fill-opacity:1;stroke-width:0.027966;stroke-linecap:butt;stroke-linejoin:miter;stroke:rgb(0.784314%,1.960784%,1.960784%);stroke-opacity:1;stroke-miterlimit:2.613;" d="M 111.044489 79.884255 L 109.337226 78.142604 L 108.864307 77.743641 L 108.357445 77.41588 L 107.81438 77.166104 L 107.231715 76.98188 L 106.618504 76.87225 L 106.001898 76.87225 L 104.802628 77.056474 L 103.603358 77.380844 L 102.477628 77.818234 L 101.317956 80.462922 L 100.372117 82.712036 L 100.266898 83.00137 L 100.228431 83.146036 L 100.301971 83.290703 L 100.481861 83.87276 L 100.845036 85.032354 L 101.282883 86.158042 L 101.353029 86.447375 L 101.536314 86.700542 L 102.118978 86.845208 L 102.735584 86.845208 L 103.313723 86.810172 L 104.512993 86.520839 L 105.638723 86.083448 L 106.723723 85.540948 L 107.016752 85.431318 L 107.086898 85.396281 L 107.126496 85.466354 L 107.231715 85.361245 L 107.634489 84.887687 L 108.395912 83.946224 L 109.810146 81.985313 L 110.501423 80.970385 L 110.791058 80.462922 L 110.934745 80.173589 Z M 111.044489 79.884255 " transform="matrix(3.452621,0,0,3.456221,0,0)"/>
    <path style="fill-rule:evenodd;fill:rgb(0.784314%,1.960784%,1.960784%);fill-opacity:1;stroke-width:0.027966;stroke-linecap:butt;stroke-linejoin:miter;stroke:rgb(0.784314%,1.960784%,1.960784%);stroke-opacity:1;stroke-miterlimit:2.613;" d="M 101.536314 89.966844 L 100.665146 91.236068 L 99.830182 92.540328 L 98.923942 94.028813 L 98.052774 95.58737 L 97.255146 97.145927 L 96.927044 97.982281 L 96.818431 98.380115 L 96.708686 98.814115 L 96.708686 99.032245 L 96.743759 99.248115 L 96.853504 99.431208 L 97.036788 99.536318 L 97.435036 99.685505 L 97.907956 99.685505 L 98.779124 99.610911 L 99.650292 99.431208 L 101.282883 98.849151 L 102.118978 98.486354 L 102.880401 98.052354 L 103.603358 97.544891 L 104.219964 96.966224 L 104.474526 96.603427 L 104.65781 96.166036 L 104.727956 95.732036 L 104.65781 95.294646 L 104.692883 94.860646 L 104.802628 94.427776 L 105.020985 94.063849 L 105.31062 93.736089 L 106.072044 93.302089 L 106.470292 93.048922 L 106.758796 92.759589 L 106.833467 92.540328 L 106.873066 92.322198 L 106.873066 92.107458 L 106.798394 91.888198 L 106.618504 91.490365 L 106.360547 91.126437 L 105.743942 90.509344 L 104.982518 90.075344 L 104.149818 89.78262 L 103.27865 89.67299 L 102.407482 89.747583 Z M 101.536314 89.966844 " transform="matrix(3.452621,0,0,3.456221,0,0)"/>
    <path style="fill-rule:evenodd;fill:rgb(0.784314%,1.960784%,1.960784%);fill-opacity:1;stroke-width:0.027966;stroke-linecap:butt;stroke-linejoin:miter;stroke:rgb(0.784314%,1.960784%,1.960784%);stroke-opacity:1;stroke-miterlimit:2.613;" d="M 112.025401 99.286542 L 111.189307 98.704484 L 110.247993 98.232057 L 109.775073 98.087391 L 109.26708 97.982281 L 109.01365 98.017318 L 108.759088 98.126948 L 108.395912 98.486354 L 107.744234 99.286542 L 107.161569 100.118375 L 106.072044 101.896193 L 106.470292 102.15049 L 106.943212 102.36862 L 107.379927 102.548323 L 107.88792 102.622917 L 108.864307 102.622917 L 109.810146 102.403656 L 110.063577 102.438693 L 110.353212 102.473729 L 110.646241 102.438693 L 110.899672 102.330193 L 111.334124 101.970786 L 111.626022 101.497229 L 111.805912 100.954729 L 111.915657 100.407708 L 112.025401 99.865208 Z M 112.025401 99.286542 " transform="matrix(3.452621,0,0,3.456221,0,0)"/>
    <path style="fill-rule:evenodd;fill:rgb(0.784314%,1.960784%,1.960784%);fill-opacity:1;stroke-width:0.027966;stroke-linecap:butt;stroke-linejoin:miter;stroke:rgb(0.784314%,1.960784%,1.960784%);stroke-opacity:1;stroke-miterlimit:2.613;" d="M 125.341825 111.435151 L 122.801861 109.981703 L 119.138431 116.47475 L 121.677263 117.923677 Z M 125.341825 111.435151 " transform="matrix(3.452621,0,0,3.456221,0,0)"/>
    <path style="fill-rule:evenodd;fill:rgb(0.784314%,1.960784%,1.960784%);fill-opacity:1;stroke-width:0.027966;stroke-linecap:butt;stroke-linejoin:miter;stroke:rgb(0.784314%,1.960784%,1.960784%);stroke-opacity:1;stroke-miterlimit:2.613;" d="M 111.009416 118.251437 L 109.775073 120.899516 L 103.025219 117.77901 L 104.219964 115.134323 Z M 111.009416 118.251437 " transform="matrix(3.452621,0,0,3.456221,0,0)"/>
    <path style="fill-rule:evenodd;fill:rgb(0.784314%,1.960784%,1.960784%);fill-opacity:1;stroke-width:0.027966;stroke-linecap:butt;stroke-linejoin:miter;stroke:rgb(0.784314%,1.960784%,1.960784%);stroke-opacity:1;stroke-miterlimit:2.613;" d="M 100.736423 109.404167 L 98.306204 111.036187 L 102.407482 117.271547 L 104.837701 115.641786 Z M 100.736423 109.404167 " transform="matrix(3.452621,0,0,3.456221,0,0)"/>
    <path style="fill-rule:evenodd;fill:rgb(0.784314%,1.960784%,1.960784%);fill-opacity:1;stroke-width:0.027966;stroke-linecap:butt;stroke-linejoin:miter;stroke:rgb(0.784314%,1.960784%,1.960784%);stroke-opacity:1;stroke-miterlimit:2.613;" d="M 119.173504 140.735802 L 115.83365 140.083672 L 114.021168 149.368333 L 117.396095 150.021594 Z M 119.173504 140.735802 " transform="matrix(3.452621,0,0,3.456221,0,0)"/>
    <path style="fill-rule:evenodd;fill:rgb(0.784314%,1.960784%,1.960784%);fill-opacity:1;stroke-width:0.027966;stroke-linecap:butt;stroke-linejoin:miter;stroke:rgb(0.784314%,1.960784%,1.960784%);stroke-opacity:1;stroke-miterlimit:2.613;" d="M 111.552482 142.368953 L 105.599124 149.692703 L 102.950547 147.517052 L 108.903905 140.193302 Z M 111.552482 142.368953 " transform="matrix(3.452621,0,0,3.456221,0,0)"/>
    <path style="fill-rule:evenodd;fill:rgb(0.784314%,1.960784%,1.960784%);fill-opacity:1;stroke-width:0.027966;stroke-linecap:butt;stroke-linejoin:miter;stroke:rgb(0.784314%,1.960784%,1.960784%);stroke-opacity:1;stroke-miterlimit:2.613;" d="M 125.525109 110.708427 L 125.415365 110.165927 L 125.087263 109.657333 L 124.618869 109.364609 L 124.072409 109.2595 L 123.529343 109.364609 L 123.056423 109.657333 L 122.728321 110.165927 L 122.623102 110.708427 L 122.728321 111.252057 L 123.056423 111.724484 L 123.529343 112.048854 L 124.072409 112.157354 L 124.618869 112.048854 L 125.087263 111.724484 L 125.415365 111.252057 Z M 125.525109 110.708427 " transform="matrix(3.452621,0,0,3.456221,0,0)"/>
    <path style="fill-rule:evenodd;fill:rgb(0.784314%,1.960784%,1.960784%);fill-opacity:1;stroke-width:0.027966;stroke-linecap:butt;stroke-linejoin:miter;stroke:rgb(0.784314%,1.960784%,1.960784%);stroke-opacity:1;stroke-miterlimit:2.613;" d="M 121.860547 117.200344 L 121.751934 116.657844 L 121.423832 116.185417 L 120.950912 115.856526 L 120.407847 115.751417 L 119.826314 115.856526 L 119.353394 116.185417 L 119.063759 116.657844 L 118.918942 117.200344 L 119.063759 117.743974 L 119.353394 118.216401 L 119.826314 118.540771 L 120.407847 118.650401 L 120.950912 118.540771 L 121.423832 118.216401 L 121.751934 117.743974 Z M 121.860547 117.200344 " transform="matrix(3.452621,0,0,3.456221,0,0)"/>
    <path style="fill-rule:evenodd;fill:rgb(0.784314%,1.960784%,1.960784%);fill-opacity:1;stroke-width:0.027966;stroke-linecap:butt;stroke-linejoin:miter;stroke:rgb(0.784314%,1.960784%,1.960784%);stroke-opacity:1;stroke-miterlimit:2.613;" d="M 105.091131 116.438583 L 104.982518 115.896083 L 104.65781 115.423656 L 104.184891 115.094766 L 103.603358 114.986266 L 103.060292 115.094766 L 102.587372 115.423656 L 102.263796 115.896083 L 102.154051 116.438583 L 102.263796 117.01725 L 102.587372 117.489677 L 103.060292 117.817437 L 103.603358 117.923677 L 104.184891 117.817437 L 104.65781 117.489677 L 104.982518 117.01725 Z M 105.091131 116.438583 " transform="matrix(3.452621,0,0,3.456221,0,0)"/>
    <path style="fill-rule:evenodd;fill:rgb(0.784314%,1.960784%,1.960784%);fill-opacity:1;stroke-width:0.027966;stroke-linecap:butt;stroke-linejoin:miter;stroke:rgb(0.784314%,1.960784%,1.960784%);stroke-opacity:1;stroke-miterlimit:2.613;" d="M 100.954781 110.236 L 100.845036 109.657333 L 100.556533 109.184906 L 100.083613 108.860536 L 99.505474 108.752036 L 98.959015 108.860536 L 98.486095 109.184906 L 98.161387 109.657333 L 98.052774 110.236 L 98.161387 110.783021 L 98.486095 111.252057 L 98.959015 111.579818 L 99.505474 111.689448 L 100.083613 111.579818 L 100.556533 111.252057 L 100.845036 110.783021 Z M 100.954781 110.236 " transform="matrix(3.452621,0,0,3.456221,0,0)"/>
    <path style="fill-rule:evenodd;fill:rgb(0.784314%,1.960784%,1.960784%);fill-opacity:1;stroke-width:0.027966;stroke-linecap:butt;stroke-linejoin:miter;stroke:rgb(0.784314%,1.960784%,1.960784%);stroke-opacity:1;stroke-miterlimit:2.613;" d="M 114.782591 119.555698 L 114.672847 119.013198 L 114.344745 118.540771 L 113.87635 118.216401 L 113.329891 118.106771 L 112.751752 118.216401 L 112.278832 118.540771 L 111.990328 119.013198 L 111.840985 119.555698 L 111.990328 120.137755 L 112.278832 120.611312 L 112.751752 120.935682 L 113.329891 121.044182 L 113.87635 120.935682 L 114.344745 120.611312 L 114.672847 120.137755 Z M 114.782591 119.555698 " transform="matrix(3.452621,0,0,3.456221,0,0)"/>
    <path style="fill-rule:evenodd;fill:rgb(0.784314%,1.960784%,1.960784%);fill-opacity:1;stroke-width:0.027966;stroke-linecap:butt;stroke-linejoin:miter;stroke:rgb(0.784314%,1.960784%,1.960784%);stroke-opacity:1;stroke-miterlimit:2.613;" d="M 111.840985 119.555698 L 111.735766 119.013198 L 111.442737 118.540771 L 110.969818 118.216401 L 110.391679 118.106771 L 109.845219 118.216401 L 109.376825 118.540771 L 109.048723 119.013198 L 108.938978 119.555698 L 109.048723 120.137755 L 109.376825 120.611312 L 109.845219 120.935682 L 110.391679 121.044182 L 110.969818 120.935682 L 111.442737 120.611312 L 111.735766 120.137755 Z M 111.840985 119.555698 " transform="matrix(3.452621,0,0,3.456221,0,0)"/>
    <path style="fill-rule:evenodd;fill:rgb(0.784314%,1.960784%,1.960784%);fill-opacity:1;stroke-width:0.027966;stroke-linecap:butt;stroke-linejoin:miter;stroke:rgb(0.784314%,1.960784%,1.960784%);stroke-opacity:1;stroke-miterlimit:2.613;" d="M 119.208577 140.411432 L 119.138431 139.903969 L 118.883869 139.391984 L 118.520693 139.032578 L 118.048905 138.779411 L 117.501314 138.704818 L 116.958248 138.779411 L 116.489854 139.032578 L 116.126679 139.391984 L 115.872117 139.903969 L 115.798577 140.411432 L 115.872117 140.955062 L 116.126679 141.42749 L 116.489854 141.825323 L 116.958248 142.040063 L 117.501314 142.149693 L 118.048905 142.040063 L 118.520693 141.825323 L 118.883869 141.42749 L 119.138431 140.955062 Z M 119.208577 140.411432 " transform="matrix(3.452621,0,0,3.456221,0,0)"/>
    <path style="fill-rule:evenodd;fill:rgb(0.784314%,1.960784%,1.960784%);fill-opacity:1;stroke-width:0.027966;stroke-linecap:butt;stroke-linejoin:miter;stroke:rgb(0.784314%,1.960784%,1.960784%);stroke-opacity:1;stroke-miterlimit:2.613;" d="M 111.95073 141.279432 L 111.840985 140.735802 L 111.626022 140.263375 L 111.22438 139.903969 L 110.755985 139.646281 L 110.247993 139.576208 L 109.700401 139.646281 L 109.228613 139.903969 L 108.829234 140.263375 L 108.61427 140.735802 L 108.505657 141.279432 L 108.61427 141.825323 L 108.829234 142.294359 L 109.228613 142.658286 L 109.700401 142.911453 L 110.247993 142.986047 L 110.755985 142.911453 L 111.22438 142.658286 L 111.626022 142.294359 L 111.840985 141.825323 Z M 111.95073 141.279432 " transform="matrix(3.452621,0,0,3.456221,0,0)"/>
    <path style="fill-rule:evenodd;fill:rgb(0.784314%,1.960784%,1.960784%);fill-opacity:1;stroke-width:0.027966;stroke-linecap:butt;stroke-linejoin:miter;stroke:rgb(0.784314%,1.960784%,1.960784%);stroke-opacity:1;stroke-miterlimit:2.613;" d="M 111.840985 131.853495 L 111.770839 131.306474 L 111.517409 130.834047 L 111.154234 130.435083 L 110.681314 130.220344 L 110.138248 130.110714 L 109.630255 130.220344 L 109.122263 130.435083 L 108.759088 130.834047 L 108.505657 131.306474 L 108.430985 131.853495 L 108.505657 132.356437 L 108.759088 132.865031 L 109.122263 133.227828 L 109.630255 133.482125 L 110.138248 133.556719 L 110.681314 133.482125 L 111.154234 133.227828 L 111.517409 132.865031 L 111.770839 132.356437 Z M 111.840985 131.853495 " transform="matrix(3.452621,0,0,3.456221,0,0)"/>
    <path style="fill-rule:evenodd;fill:rgb(0.784314%,1.960784%,1.960784%);fill-opacity:1;stroke-width:0.027966;stroke-linecap:butt;stroke-linejoin:miter;stroke:rgb(0.784314%,1.960784%,1.960784%);stroke-opacity:1;stroke-miterlimit:2.613;" d="M 115.290584 131.853495 L 115.215912 131.306474 L 114.962482 130.834047 L 114.599307 130.435083 L 114.091314 130.220344 L 113.583321 130.110714 L 113.040255 130.220344 L 112.568467 130.435083 L 112.204161 130.834047 L 111.95073 131.306474 L 111.840985 131.853495 L 111.95073 132.356437 L 112.204161 132.865031 L 112.568467 133.227828 L 113.040255 133.482125 L 113.583321 133.556719 L 114.091314 133.482125 L 114.599307 133.227828 L 114.962482 132.865031 L 115.215912 132.356437 Z M 115.290584 131.853495 " transform="matrix(3.452621,0,0,3.456221,0,0)"/>
    <path style="fill-rule:evenodd;fill:rgb(0.784314%,1.960784%,1.960784%);fill-opacity:1;stroke-width:0.027966;stroke-linecap:butt;stroke-linejoin:miter;stroke:rgb(0.784314%,1.960784%,1.960784%);stroke-opacity:1;stroke-miterlimit:2.613;" d="M 117.431168 149.692703 L 117.321423 149.150203 L 117.10646 148.677776 L 116.704818 148.278812 L 116.231898 148.060682 L 115.688832 147.954443 L 115.180839 148.060682 L 114.709051 148.278812 L 114.309672 148.677776 L 114.056241 149.150203 L 113.986095 149.692703 L 114.056241 150.201297 L 114.309672 150.70876 L 114.709051 151.071557 L 115.180839 151.325854 L 115.688832 151.400448 L 116.231898 151.325854 L 116.704818 151.071557 L 117.10646 150.70876 L 117.321423 150.201297 Z M 117.431168 149.692703 " transform="matrix(3.452621,0,0,3.456221,0,0)"/>
    <path style="fill-rule:evenodd;fill:rgb(0.784314%,1.960784%,1.960784%);fill-opacity:1;stroke-width:0.027966;stroke-linecap:butt;stroke-linejoin:miter;stroke:rgb(0.784314%,1.960784%,1.960784%);stroke-opacity:1;stroke-miterlimit:2.613;" d="M 106.001898 148.606573 L 105.892153 148.060682 L 105.673796 147.591646 L 105.274416 147.192682 L 104.802628 146.974552 L 104.259562 146.864922 L 103.751569 146.974552 L 103.27865 147.192682 L 102.880401 147.591646 L 102.626971 148.060682 L 102.552299 148.606573 L 102.626971 149.115167 L 102.880401 149.62263 L 103.27865 149.985427 L 103.751569 150.239724 L 104.259562 150.309797 L 104.802628 150.239724 L 105.274416 149.985427 L 105.673796 149.62263 L 105.892153 149.115167 Z M 106.001898 148.606573 " transform="matrix(3.452621,0,0,3.456221,0,0)"/>
    <path style="fill-rule:evenodd;fill:rgb(0.784314%,1.960784%,1.960784%);fill-opacity:1;stroke-width:0.027966;stroke-linecap:butt;stroke-linejoin:miter;stroke:rgb(0.784314%,1.960784%,1.960784%);stroke-opacity:1;stroke-miterlimit:2.613;" d="M 114.672847 114.083229 L 114.599307 113.356505 L 114.309672 112.669339 L 113.87635 112.087281 L 113.259745 111.614854 L 112.606934 111.360557 L 111.840985 111.252057 L 111.119161 111.360557 L 110.427883 111.614854 L 109.845219 112.087281 L 109.411898 112.669339 L 109.122263 113.356505 L 109.01365 114.083229 L 109.122263 114.806562 L 109.411898 115.49712 L 109.845219 116.075786 L 110.427883 116.548214 L 111.119161 116.80251 L 111.840985 116.912141 L 112.606934 116.80251 L 113.259745 116.548214 L 113.87635 116.075786 L 114.309672 115.49712 L 114.599307 114.806562 Z M 114.672847 114.083229 " transform="matrix(3.452621,0,0,3.456221,0,0)"/>
    <path style="fill-rule:evenodd;fill:rgb(0.784314%,1.960784%,1.960784%);fill-opacity:1;stroke-width:0.027966;stroke-linecap:butt;stroke-linejoin:miter;stroke:rgb(0.784314%,1.960784%,1.960784%);stroke-opacity:1;stroke-miterlimit:2.613;" d="M 92.02927 75.13399 L 81.391971 73.864766 L 72.576204 77.309641 L 29.532591 153.935505 L 94.493431 153.935505 L 94.568102 153.611135 L 94.568102 153.282245 L 94.533029 152.595078 L 94.751387 151.25126 L 95.001423 148.568146 L 95.149635 145.883901 L 95.254854 143.16575 L 95.294453 140.481505 L 95.149635 137.798391 L 94.96635 136.459094 L 94.71292 135.84087 L 94.423285 135.223776 L 93.044124 132.903458 L 92.282701 131.778901 L 91.446606 130.727807 L 91.193175 130.509677 L 91.083431 130.400047 L 90.90354 130.329974 L 90.247336 130.329974 L 88.907774 130.435083 L 87.563686 130.544714 L 86.872409 130.544714 L 86.727591 130.509677 L 86.618978 130.474641 L 86.657445 130.400047 L 86.837336 130.110714 L 87.528613 128.95112 L 88.141825 127.751969 L 89.197409 125.251948 L 90.17719 122.747406 L 91.048358 120.208958 L 91.919526 117.634344 L 91.701168 117.309974 L 91.521277 116.947177 L 91.193175 116.25549 L 90.575438 114.841599 L 89.376168 111.977651 L 89.485912 105.376104 L 89.525511 102.075896 L 89.485912 100.447266 L 89.485912 99.610911 L 89.376168 98.814115 L 89.012993 98.161984 L 88.759562 97.470297 L 88.544599 96.748094 L 88.399781 96.02137 L 88.181423 94.532885 L 88.141825 93.048922 L 88.181423 91.560438 L 88.291168 90.075344 L 88.689416 87.137932 L 89.232482 84.200521 L 89.923759 81.298146 L 90.685182 78.435328 L 91.55635 75.56799 L 91.666095 78.470365 L 91.879927 81.333182 L 92.134489 84.200521 L 92.572336 87.029432 L 92.860839 88.443323 L 93.224015 89.822177 L 93.443504 90.509344 L 93.771606 91.161474 L 94.169854 91.740141 L 94.423285 92.032865 L 94.71292 92.212568 L 95.041022 92.322198 L 95.404197 92.287161 L 95.727774 92.177531 L 96.055876 91.997828 L 96.563869 91.490365 L 97.036788 90.946734 L 97.399964 90.329641 L 97.759745 89.712547 L 98.341277 88.408286 L 98.595839 87.716599 L 98.779124 87.029432 L 98.923942 86.337745 L 98.923942 85.614411 L 98.66938 84.200521 L 98.341277 82.78663 L 98.017701 81.407776 L 98.271131 80.716089 L 98.559635 80.063958 L 99.102701 78.724661 L 99.540547 77.345807 L 99.720438 76.65412 L 99.830182 75.966953 L 99.865255 75.240229 L 99.830182 74.880823 L 99.758905 74.516896 L 99.610693 74.189135 L 99.430803 73.899802 L 99.177372 73.646635 L 98.84927 73.462411 L 98.524562 73.357302 L 98.161387 73.282708 L 97.435036 73.247672 L 96.743759 73.357302 L 96.020803 73.501969 L 94.641642 73.934839 L 93.333759 74.516896 Z M 92.02927 75.13399 " transform="matrix(3.452621,0,0,3.456221,0,0)"/>
    <path style="fill-rule:evenodd;fill:rgb(0.784314%,1.960784%,1.960784%);fill-opacity:1;stroke-width:0.027966;stroke-linecap:butt;stroke-linejoin:miter;stroke:rgb(0.784314%,1.960784%,1.960784%);stroke-opacity:1;stroke-miterlimit:2.613;" d="M 115.290584 119.739922 L 113.329891 118.106771 L 110.391679 118.106771 L 108.430985 119.739922 L 108.430985 131.853495 L 115.290584 131.853495 Z M 115.290584 119.739922 " transform="matrix(3.452621,0,0,3.456221,0,0)"/>
    <path style="fill-rule:evenodd;fill:rgb(0.784314%,1.960784%,1.960784%);fill-opacity:1;stroke-width:0.027966;stroke-linecap:butt;stroke-linejoin:miter;stroke:rgb(0.784314%,1.960784%,1.960784%);stroke-opacity:1;stroke-miterlimit:2.613;" d="M 120.841168 118.579198 L 119.934927 115.82149 L 112.856971 118.176844 L 113.766606 120.970719 Z M 120.841168 118.579198 " transform="matrix(3.452621,0,0,3.456221,0,0)"/>
    <path style="fill-rule:evenodd;fill:rgb(0.784314%,1.960784%,1.960784%);fill-opacity:1;stroke-width:0.027966;stroke-linecap:butt;stroke-linejoin:miter;stroke:rgb(0.784314%,1.960784%,1.960784%);stroke-opacity:1;stroke-miterlimit:2.613;" d="M 115.145766 131.126771 L 112.025401 132.540661 L 115.943394 141.134766 L 119.063759 139.719745 Z M 115.145766 131.126771 " transform="matrix(3.452621,0,0,3.456221,0,0)"/>
    <path style="fill-rule:evenodd;fill:rgb(0.784314%,1.960784%,1.960784%);fill-opacity:1;stroke-width:0.027966;stroke-linecap:butt;stroke-linejoin:miter;stroke:rgb(0.784314%,1.960784%,1.960784%);stroke-opacity:1;stroke-miterlimit:2.613;" d="M 111.840985 131.813938 L 108.430985 131.853495 L 108.505657 141.279432 L 111.95073 141.243266 Z M 111.840985 131.813938 " transform="matrix(3.452621,0,0,3.456221,0,0)"/>
  </g>
</svg>