<?xml version="1.0" encoding="UTF-8" standalone="yes"?>
<svg xmlns:svg="http://www.w3.org/2000/svg" xmlns="http://www.w3.org/2000/svg" height="200" width="200" version="1.0" id="svg36" viewBox="0 0 200 200">
  <defs id="defs40"/>
  <path d="m5.4189,5.423,189.16,0,0,189.15-189.16,0,0-189.15z" fill-rule="evenodd" fill="#a92121" id="path6" style="fill:#9b2423;fill-opacity:1"/>
  <path fill="#ffffff" d="m95.746,29.204c0,23.692-0.3937,77.009-0.3937,100.7l5.3,0.013c1.2115-0.79206,3.7759-2.853,3.1481-4.4638,0.0661-9.0222,0.083-34.826,0.14964-43.848l2.4914,0.09842c0.98435,6.6363,6.3808,9.4252,12.038,9.3061,6.3687-0.13406,12.214-5.4111,11.256-13.791-0.2208-5.1135-4.5998-9.925-11.398-10.076-7.979-0.09581-11.683,4.6386-12.035,10.053l-2.2053-0.05376c0-10.242-0.0984-33.87-0.0984-44.113-0.29471-0.84732-2.373-3.0986-3.3694-3.5237-0.75991-0.49676-4.0214-0.30497-4.8833-0.30191zm19.683,41.538v6.6468c-2.1828,0-3.6274,0.14764-5.8102,0.14764,0.57827-3.7742,2.3785-6.2571,5.8102-6.7944zm4.8021,0.04921c3.871,0.53864,5.7519,2.7809,6.0667,6.5484h-5.9682c0-2.1828-0.0984-4.3656-0.0984-6.5484zm-10.415,10.809c2.1828,0,3.2337,0.04921,5.4165,0.04921,0,2.2583-0.0492,3.3848-0.0492,5.6431-3.2304-0.91291-4.7656-2.8044-5.3672-5.6923zm10.12,0.04921c2.3339,0,4.028,0.04921,6.3619,0.04921-1.2744,3.5665-3.3401,5.767-6.3619,5.8487v-5.8979z" id="path34"/>
  <path id="path14553-3-5" style="display:inline;fill:#ffffff;fill-opacity:1;stroke:none;stroke-width:0.138112px;stroke-linecap:butt;stroke-linejoin:miter;stroke-opacity:1" d="m 153.91571,49.107909 c -1.70468,6.435689 -2.21978,14.131201 -0.977,20.724699 2.50467,9.390396 8.1855,16.668247 15.28525,22.706807 1.25287,1.127346 2.66877,1.901665 4.0761,2.628813 v -19.51516 c -4.21998,-0.669247 -7.38317,-4.447762 -9.66057,-7.779847 -3.8368,-5.908206 -6.28476,-12.368091 -8.72372,-18.765312 z m -24.33408,8.50348 c -0.97115,0.0026 -2.00531,0.03722 -3.03958,0.07169 5.6087,4.292933 7.35784,10.749706 9.20438,16.840877 1.92528,6.694526 4.32389,13.11339 8.1137,18.649954 7.10766,9.43225 17.87954,13.59386 28.43987,10.56247 -9.3424,-3.887202 -15.09305,-12.988102 -19.39457,-20.808596 -3.89944,-6.164215 -5.00148,-13.954854 -10.19368,-19.018775 -3.79979,-3.60372 -8.11922,-6.306633 -13.13012,-6.297496 z m 1.51191,28.219629 c -0.65593,12.050361 3.41251,22.072282 10.72137,30.442952 7.73805,9.03918 20.10131,13.6408 30.48492,16.97199 v -19.51517 c -6.64274,-0.13015 -12.69175,-2.33743 -17.79701,-5.41145 -10.09133,-6.12163 -17.25804,-13.146261 -23.40944,-22.488322 z m -13.98482,37.499052 c 9.41764,2.24277 13.81905,8.30293 19.07292,14.62283 4.2027,5.36596 9.77728,8.5568 15.91976,9.64134 7.65021,1.28759 14.93224,0.0959 20.1986,-5.54254 -12.2504,-2.17678 -19.44082,-9.70978 -27.79665,-16.58571 -9.78147,-6.54793 -17.37808,-9.69896 -27.39463,-2.13592 z m 13.94462,19.41566 c 1.11008,6.17947 3.05437,11.98587 6.56683,16.70105 9.6631,11.3906 22.21323,11.18058 34.67983,11.40322 v -19.51516 c -7.91163,1.85512 -17.60607,2.73756 -24.93712,0.94733 -6.68577,-1.37229 -11.72082,-5.33634 -16.30954,-9.53646 z"/>
  <g fill="#ffffff" id="g32">
    <path d="m47.352,151.1-1.3873,9.2729-4.0904-0.13919-1.5264-9.1337z" id="path18"/>
    <path d="m37.088,29.174c0,29.403,0.04921,71.011,0.04921,100.41-1.0624,0.0415-4.8713,0.20812-5.6484,0.13193-1.3329,0.0772-3.0406-3.3905-2.6985-4.7815,0-27.305,0.02039-64.866,0.02039-92.171,0.4679-0.95529,2.233-3.1153,3.3975-3.3892,0.68359-0.3693,4.1218-0.24662,4.8798-0.20386z" id="path20"/>
    <path d="m40.348,37.389c-0.06863-2.6354,3.5473-3.7315,5.4619-2.2929,1.992,1.2243,1.0227,3.9111,1.2601,5.8572,0.09404,34.516,0.18808,69.031,0.28213,103.55h-7.0041v-107.11z" fill-rule="evenodd" id="path22"/>
    <path d="m58.456,37.685v82.178c-0.37355,1.1086-0.20661,2.5495-1.4827,3.1244-1.1852,0.91733-2.78,0.96192-3.9732,0.0326-1.6872-0.93161-1.6207-3.0395-1.5408-4.7163v-81.274c0.24227-1.2231,1.2347-1.7625,2.2741-2.2592,1.4604-0.79685,3.1047,0.21968,4.2133,1.1154,0.37411,0.58137,0.06718,1.2267,0.50922,1.7986z" fill-rule="evenodd" id="path24"/>
    <path d="m69.826,37.685v83.161c-0.42447,1.7043-2.1262,2.9814-3.8526,2.8671-2.1545-0.16932-3.5007-2.4819-3.1441-4.5009v-82.182c0.23979-1.1527,1.1407-1.6748,2.0407-2.2918,1.7157-0.74847,3.6379,0.20272,4.6645,1.637-0.06552,0.48663,0.05743,0.88616,0.29153,1.3096z" fill-rule="evenodd" id="path26"/>
    <path d="m80.904,37.685v83.161c-0.46447,1.0697-0.78352,2.2719-2.0407,2.6192-1.5861,0.68238-3.5461-0.0566-4.4468-1.4754-0.4566-1.4265-0.58619-2.9582-0.50922-4.4859v-79.818c0.3586-1.0188,0.31426-2.2572,1.641-2.5585,1.4581-1.1165,3.5666-0.66185,4.7727,0.59405,0.24693,0.64747,0.70976,1.2382,0.58306,1.9644z" fill-rule="evenodd" id="path28"/>
    <path d="m92.273,37.685,0,83.161-0.58306,1.3096-0.58306,0.65481-1.1661,0.6548-1.1661,0.32741-1.1661-0.32741-1.1661-0.6548-0.58306-0.65481-0.29153-0.65482-0.29153-0.65481,0-83.815,0.58306-1.3096,0.58306-0.3274,1.1661-0.65481,1.1661-0.3274,1.4576,0.3274,0.87459,0.65481,0.58306,0.3274,0.29153,0.65481,0.29153,0.65481,0,0.65481z" fill-rule="evenodd" id="path30"/>
  </g>
</svg>