<?xml version="1.0" encoding="UTF-8" standalone="yes"?>
<svg xmlns="http://www.w3.org/2000/svg" xmlns:xlink="http://www.w3.org/1999/xlink" width="685pt" height="600pt" viewBox="0 0 685 600" version="1.1">
  <g id="surface1">
    <path style="fill-rule:evenodd;fill:rgb(0.784314%,1.960784%,1.960784%);fill-opacity:1;stroke-width:0.127844;stroke-linecap:butt;stroke-linejoin:miter;stroke:rgb(0.784314%,1.960784%,1.960784%);stroke-opacity:1;stroke-miterlimit:2.613;" d="M 197.46208 164.743687 L 104.11927 2.943062 L 103.544526 2.079583 L 102.826095 1.430844 L 102.032993 0.856698 L 101.099599 0.423828 L 100.165073 0.137885 L 99.158139 0.0644219 L 98.150073 0.137885 L 97.146533 0.423828 L 96.283285 0.856698 L 95.420036 1.430844 L 94.77062 2.079583 L 94.197007 2.943062 L 0.853066 164.743687 L 0.423139 165.67724 L 0.134635 166.615312 L 0.0644891 167.622328 L 0.134635 168.627083 L 0.423139 169.634099 L 0.853066 170.497578 L 1.42781 171.361057 L 2.076095 172.009797 L 2.939343 172.583943 L 3.802591 173.013422 L 4.810657 173.302755 L 5.814197 173.372828 L 192.50208 173.372828 L 193.50562 173.302755 L 194.442409 173.013422 L 195.376934 172.583943 L 196.170036 172.009797 L 196.888467 171.361057 L 197.46208 170.497578 L 197.892007 169.634099 L 198.181642 168.627083 L 198.251788 167.622328 L 198.181642 166.615312 L 197.892007 165.67724 Z M 197.46208 164.743687 " transform="matrix(3.452621,0,0,3.456221,0,0)"/>
    <path style="fill-rule:evenodd;fill:rgb(92.156863%,74.901961%,16.862745%);fill-opacity:1;stroke-width:0.127844;stroke-linecap:butt;stroke-linejoin:miter;stroke:rgb(0.784314%,1.960784%,1.960784%);stroke-opacity:1;stroke-miterlimit:2.613;" d="M 99.158139 18.114979 L 181.856861 161.509031 L 16.458285 161.509031 Z M 99.158139 18.114979 " transform="matrix(3.452621,0,0,3.456221,0,0)"/>
    <path style="fill-rule:evenodd;fill:rgb(0.784314%,1.960784%,1.960784%);fill-opacity:1;stroke-width:0.215738;stroke-linecap:butt;stroke-linejoin:miter;stroke:rgb(0.784314%,1.960784%,1.960784%);stroke-opacity:1;stroke-miterlimit:2.613;" d="M 181.848942 161.473995 L 16.431131 161.473995 L 53.231752 97.384401 L 54.720657 96.657677 L 56.063613 95.930953 L 58.71219 94.626693 L 61.395839 93.357469 L 64.084015 92.161708 L 66.806131 91.037151 L 69.524854 89.986057 L 72.283175 88.97 L 75.079964 88.060182 L 77.911825 87.228349 L 80.740292 86.501625 L 83.607226 85.849495 L 86.509234 85.305865 L 89.415766 84.908031 L 92.352847 84.615307 L 95.294453 84.470641 L 98.231533 84.435604 L 101.173139 84.615307 L 104.076277 84.943068 L 106.978285 85.450531 L 109.845219 86.177255 L 111.22438 86.576219 L 112.642007 87.044125 L 115.365255 88.169813 L 116.669745 88.786906 L 117.974234 89.478594 L 119.24365 90.200797 L 120.517591 90.997594 L 121.712336 91.798911 L 122.911606 92.669172 L 124.036204 93.610635 L 125.161934 94.55662 L 126.25146 95.568156 L 127.267445 96.622641 L 128.247226 97.708771 L 129.18854 98.833328 L 130.099307 99.994052 L 130.965949 101.193203 L 131.766971 102.42287 L 132.528394 103.658187 L 133.255876 104.965839 L 133.942628 106.271229 L 135.141898 108.954344 L 133.654124 109.930844 L 132.130146 108.55651 L 131.294051 107.939417 L 130.422883 107.357359 L 128.607007 106.341302 L 126.759453 105.474432 L 125.813613 105.072078 L 124.833832 104.712672 L 122.876533 104.095578 L 120.845693 103.658187 L 118.810328 103.403891 L 116.743285 103.368854 L 115.723905 103.403891 L 114.673978 103.513521 L 113.657993 103.623151 L 112.642007 103.841281 L 110.681314 104.383781 L 109.700401 104.712672 L 108.755693 105.145542 L 107.81438 105.579542 L 106.943212 106.126563 L 106.072044 106.669062 L 105.235949 107.286156 L 104.439453 107.974453 L 103.711971 108.66162 L 103.025219 109.426771 L 102.372409 110.224698 L 101.755803 111.056531 L 101.208212 111.966349 L 100.736423 112.872776 L 100.337044 113.81424 L 99.973869 114.79413 L 99.685365 115.77063 L 99.430803 116.790078 L 99.247518 117.806135 L 99.142299 118.822193 L 99.102701 119.833729 L 99.177372 121.904271 L 99.465876 123.970292 L 99.938796 125.96624 L 100.266898 126.94726 L 100.665146 127.888724 L 101.536314 129.775042 L 102.587372 131.551729 L 103.786642 133.219917 L 105.13073 134.778474 L 106.615109 136.228531 L 108.212628 137.536182 L 109.880292 138.696906 L 111.661095 139.748 L 113.474708 140.727891 L 115.365255 141.634318 L 117.251277 142.470672 L 119.138431 143.232432 L 121.09573 143.919599 L 123.056423 144.571729 L 127.047956 145.66125 L 129.044854 146.09525 L 131.075693 146.458047 L 135.176971 147.076271 L 139.27938 147.474104 L 143.380657 147.657198 L 147.517007 147.693365 L 151.653358 147.509141 L 155.755766 147.184771 L 159.857044 146.712344 L 163.958321 146.09525 L 167.986058 145.33349 L 172.012664 144.46662 Z M 181.848942 161.473995 " transform="matrix(3.452621,0,0,3.456221,0,0)"/>
  </g>
</svg>