<?xml version="1.0" encoding="UTF-8" standalone="yes"?>
<svg xmlns:svg="http://www.w3.org/2000/svg" xmlns="http://www.w3.org/2000/svg" version="1.1" width="600" height="525" id="svg3069" viewBox="0 0 600 525">
  <defs id="defs3073"/>
  <path d="M 597.6,499.6 313.8,8 C 310.9,3 305.6,0 299.9,0 294.2,0 288.9,3.1 286,8 L 2.2,499.6 c -2.9,5 -2.9,11.1 0,16 2.9,5 8.2,8 13.9,8 h 567.6 c 5.7,0 11,-3.1 13.9,-8 2.9,-5 2.9,-11.1 0,-16 z" id="sign_border"/>
  <polygon points="43.875,491.5 299.875,48.2 555.875,491.5 " transform="matrix(1,0,0,0.99591458,0.125,2.0332437)" id="polygon7" style="fill:#F9A800;fill-opacity:1;stroke:none;overflow:visible"/>
  <g transform="translate(685.76837,32.949456)" id="g2978">
    <g id="g2942" style="fill:#000000;stroke:#000000">
      <rect width="8.932188" height="225.88577" x="-392.22946" y="208.2478" id="rect2934" style="fill:#000000;fill-opacity:1;stroke:#000000;stroke-width:0.88582665;stroke-linecap:square;stroke-miterlimit:4;stroke-opacity:1;stroke-dasharray:none;stroke-dashoffset:0"/>
      <rect width="8.932188" height="147.93304" x="-462.147" y="135.91931" transform="matrix(0.965926,-0.258819,0.258819,0.965926,0,0)" id="rect2940" style="fill:#000000;fill-opacity:1;stroke:#000000;stroke-width:0.88582653;stroke-linecap:square;stroke-miterlimit:4;stroke-opacity:1;stroke-dasharray:none;stroke-dashoffset:0"/>
    </g>
    <g transform="matrix(0.866025,-0.5,0.5,0.866025,-212.5458,-150.8503)" id="g2946" style="fill:#000000;stroke:#000000">
      <rect width="8.932188" height="225.88577" x="-392.22946" y="208.2478" id="rect2948" style="fill:#000000;fill-opacity:1;stroke:#000000;stroke-width:0.88582665;stroke-linecap:square;stroke-miterlimit:4;stroke-opacity:1;stroke-dasharray:none;stroke-dashoffset:0"/>
      <rect width="8.932188" height="147.93304" x="-462.147" y="135.91931" transform="matrix(0.965926,-0.258819,0.258819,0.965926,0,0)" id="rect2950" style="fill:#000000;fill-opacity:1;stroke:#000000;stroke-width:0.88582653;stroke-linecap:square;stroke-miterlimit:4;stroke-opacity:1;stroke-dasharray:none;stroke-dashoffset:0"/>
    </g>
    <g transform="matrix(0.5,-0.866025,0.866025,0.5,-472.0409,-175.2175)" id="g2952" style="fill:#000000;stroke:#000000">
      <rect width="8.932188" height="225.88577" x="-392.22946" y="208.2478" id="rect2954" style="fill:#000000;fill-opacity:1;stroke:#000000;stroke-width:0.88582665;stroke-linecap:square;stroke-miterlimit:4;stroke-opacity:1;stroke-dasharray:none;stroke-dashoffset:0"/>
      <rect width="8.932188" height="147.93304" x="-462.147" y="135.91931" transform="matrix(0.965926,-0.258819,0.258819,0.965926,0,0)" id="rect2956" style="fill:#000000;fill-opacity:1;stroke:#000000;stroke-width:0.88582653;stroke-linecap:square;stroke-miterlimit:4;stroke-opacity:1;stroke-dasharray:none;stroke-dashoffset:0"/>
    </g>
    <g transform="matrix(-0.5,-0.866026,0.866026,-0.5,-859.8043,145.9731)" id="g2964" style="fill:#000000;stroke:#000000">
      <rect width="8.932188" height="225.88577" x="-392.22946" y="208.2478" id="rect2966" style="fill:#000000;fill-opacity:1;stroke:#000000;stroke-width:0.88582665;stroke-linecap:square;stroke-miterlimit:4;stroke-opacity:1;stroke-dasharray:none;stroke-dashoffset:0"/>
      <rect width="8.932188" height="147.93304" x="-462.147" y="135.91931" transform="matrix(0.965926,-0.258819,0.258819,0.965926,0,0)" id="rect2968" style="fill:#000000;fill-opacity:1;stroke:#000000;stroke-width:0.88582653;stroke-linecap:square;stroke-miterlimit:4;stroke-opacity:1;stroke-dasharray:none;stroke-dashoffset:0"/>
    </g>
    <g transform="matrix(-0.866026,-0.500001,0.500001,-0.866026,-884.1717,405.4684)" id="g2970" style="fill:#000000;stroke:#000000">
      <rect width="8.932188" height="225.88577" x="-392.22946" y="208.2478" id="rect2972" style="fill:#000000;fill-opacity:1;stroke:#000000;stroke-width:0.88582665;stroke-linecap:square;stroke-miterlimit:4;stroke-opacity:1;stroke-dasharray:none;stroke-dashoffset:0"/>
      <rect width="8.932188" height="147.93304" x="-462.147" y="135.91931" transform="matrix(0.965926,-0.258819,0.258819,0.965926,0,0)" id="rect2974" style="fill:#000000;fill-opacity:1;stroke:#000000;stroke-width:0.88582653;stroke-linecap:square;stroke-miterlimit:4;stroke-opacity:1;stroke-dasharray:none;stroke-dashoffset:0"/>
    </g>
    <rect width="8.932188" height="302.24036" x="-325.65689" y="-500.70599" transform="matrix(2.701365e-7,-1,1,1.508884e-7,0,0)" id="rect2960" style="fill:#000000;fill-opacity:1;stroke:#000000;stroke-width:0.88582659;stroke-linecap:square;stroke-miterlimit:4;stroke-opacity:1;stroke-dasharray:none;stroke-dashoffset:0"/>
    <rect width="8.932189" height="147.93307" x="-214.3521" y="-531.64728" transform="matrix(-0.258819,-0.965926,0.965926,-0.258819,0,0)" id="rect2962" style="fill:#000000;fill-opacity:1;stroke:#000000;stroke-width:0.88582665;stroke-linecap:square;stroke-miterlimit:4;stroke-opacity:1;stroke-dasharray:none;stroke-dashoffset:0"/>
  </g>
</svg>