<?xml version="1.0" encoding="UTF-8" standalone="yes"?>
<svg xmlns:svg="http://www.w3.org/2000/svg" xmlns="http://www.w3.org/2000/svg" height="400px" width="400px" viewBox="0 0 200 200" version="1.1">
  <g style="stroke:none; fill-rule:nonzero;">
    <rect style="fill:#ffffff;" y="0" x="0" height="200" width="200"/>
    <path style="fill:#008855;" d="M 5,100 5,5 100,5 195,5 195,100 195,195 100,195 5,195 z M 85.59,177.28 C 91.808,176.19 110.89,168.35 110.41,167.09 110.26,166.7 107.93,163.82 105.24,160.68 102.54,157.54 95.91,149.8 90.504,143.47 L 80.675,131.97 76.241,136.19 C 71.032,141.14 71.303,141.35 66.092,128.29 60.501,114.26 46.629,72.663 46.629,69.918 46.629,69.438 49.549,69.045 53.119,69.045 L 59.608,69.045 58.92,65.576 C 58.055,61.214 55.463,49.139 53.592,40.758 52.805,37.236 51.836,32.315 51.437,29.823 51.039,27.331 50.392,25.094 50,24.851 48.58,23.974 38.043,26.489 32.526,29.022 21.879,33.91 22.611,31.678 22.622,59.219 22.629,78.883 23.001,85.066 24.589,91.994 31.535,122.29 45.659,149.18 63.886,166.81 73.822,176.42 77.49,179.15 79.62,178.53 80.555,178.26 83.242,177.7 85.59,177.28 z M 118.52,162.49 C 120.08,161.06 121.35,159.42 121.35,158.86 121.35,157.79 97.867,129.59 94.427,126.53 93.258,125.49 91.521,125.01 90.165,125.37 87.619,126.03 83.989,128.84 83.989,130.13 83.989,130.59 88.432,136.16 93.862,142.49 99.293,148.83 105.84,156.51 108.4,159.56 110.97,162.62 113.66,165.11 114.39,165.11 115.11,165.11 116.97,163.93 118.52,162.49 z M 67.591,66.384 C 71.174,64.887 71.375,64.547 70.901,60.78 69.606,50.483 63.709,24.872 62.45,24.073 61.674,23.581 59.186,23.171 56.921,23.162 53.205,23.148 52.853,23.381 53.318,25.548 53.601,26.869 55.693,36.956 57.967,47.963 60.241,58.971 62.478,67.978 62.939,67.978 63.399,67.978 65.493,67.26 67.591,66.384 z"/>
    <path style="fill:#ffffff;" d="M 146.35,53.482 146.35,70.374 162.9,70.374 162.9,53.482 179.46,53.482 179.46,36.928 162.9,36.928 162.9,20.374 146.35,20.374 146.35,36.928 129.46,36.928 129.46,53.482 146.35,53.482"/>
  </g>
</svg>