<?xml version="1.0" encoding="UTF-8" standalone="yes"?>
<svg xmlns:svg="http://www.w3.org/2000/svg" xmlns="http://www.w3.org/2000/svg" version="1.1" width="400px" height="400px" viewBox="0 0 200 200">
  <defs/>
  <g style="stroke:none">
    <rect width="200" height="200" x="0" y="0" style="fill:#ffffff;fill-rule:nonzero;stroke:none"/>
    <rect width="190" height="190" x="5" y="5" style="fill:#008855;fill-rule:nonzero;stroke:none"/>
    <g style="fill:#ffffff;">
      <path d="M 77.84,38.97 C 73.384,38.97 69.746,39.202 69.746,39.47 69.746,39.738 77.031,49.555 85.934,61.314 108,90.452 115.51,99.464 117,103 L 115,109 C 115.61,110.7 117.92,113.78 121.47,118.5 125.16,123.42 128.02,127.97 127.81,128.59 127.01,129.01 126,130 126,130 L 112.22,130.34 112.22,140.37 112.22,150.41 88.844,150.41 65.5,150.41 65.5,136.62 65.5,122.81 50.375,122.84 C 42.056,122.85 34.746,123.2 34.125,123.62 33.504,124.05 31.906,127.52 30.562,131.31 29.219,135.11 24.909,143.99 25,146 L 25,168 30,168 C 31,167 30.857,164.55 31.375,164.28 34.749,153.02 51.623,153.15 55.063,164.47 L 56.281,168.47 83.969,168.44 111.69,168.38 113.81,163.91 C 116.53,158.18 121.84,155.11 127.25,156.13 133,157 137.56,161.61 138.53,168.59 L 149,168.5 157,165 C 157,165 156.78,165.01 156.78,157.87 L 156.78,150.41 147.75,150.41 139,150 139.19,145.22 140.53,144 C 140.99,143.59 143.44,148 144,148 L 152,148 154.22,140.03 156.56,132.31 127.06,92.906 119.09,82.281 109.09,69.219 104.03,62.313 97.063,53.031 C 91.075,45.048 88,40 87,39 87,39 82.187,38.969 77.844,38.969 z M 76,42 83,42 81,48 76,42 z M 87,46 93,54 84,54 87,46 z M 88,58 95,58 93,64 88,58 z M 99,61 105,69 96,69 99,61 z M 99,73 106,73 104,79 99,73 z M 110,76 116,84 107,84 110,76 z M 111,89 118,89 116,95 111,89 z M 122,92 128,100 119,100 122,92 z M 122,104 129,104 127,110 122,104 z M 133,107 139,115 130,115 133,107 z M 134,120 141,120 139,126 134,120 z M 145,122 151,130 142,130 145,122 z M 51.719,128.28 52,144 29,146 C 29.044,143.44 33.777,130.12 35,129 L 51.719,128.28 z M 146,135 152,135 150,140 146,135 z"/>
      <path d="M 50.56,175.81 C 54.737,171.63 54.946,166.77 51.144,162.25 48.023,158.54 43.741,157.29 39.574,158.88 32.221,161.67 30.297,170.02 35.676,175.78 40.005,180.41 45.945,180.42 50.56,175.81 z"/>
      <path d="M 131.85,176.69 C 133.72,175.08 134.82,172.84 135.23,169.84 135.76,165.89 135.46,165.02 132.59,162.15 124.34,153.9 111,162.72 115.95,173.15 118.85,179.27 126.79,181.04 131.85,176.69 z"/>
      <path d="M 62.3,118.31 C 62.276,114.42 61,113 59,113 56.723,113 54.888,115.01 54.888,117.53 54.888,119.04 54.447,120.58 55,121 L 62,121 C 62.405,120.64 62.308,119.22 62.302,118.31 z"/>
      <path d="M 126.25,81.244 140.05,67.389 141.96,70.048 152.33,70.048 141.13,58.772 129.93,47.497 133.51,47.497 137.08,47.497 137.08,50.316 C 137.08,52.797 137.39,53.437 139.65,55.641 141.06,57.018 142.46,58.145 142.76,58.145 143.07,58.145 143.31,54.817 143.31,50.748 143.31,40.558 143.68,40.92 133.18,40.92 L 124.83,40.92 115.33,50.472 C 113.38,53.765 114.7,59.238 114.39,63.62 L 104.33,63.821 C 99.302,63.821 98.294,69.328 104.33,69.34 L 117.85,69.1 C 118.65,69.088 120.24,68.728 120.42,67.846 L 120.42,55.776 124.91,60.813 C 127.67,63.911 130.47,66.552 130.23,66.81 L 119.02,78.562 119.41,95.998 C 119.41,101.03 126.51,100.46 126.45,95.998 z"/>
      <path d="M 174.71,49.22 174.77,23.07 149.38,23.069 124,23.069 124,31.564 123.96,39.447 128.16,39.447 128.23,33.247 128.16,26.827 149.56,26.827 170.72,26.827 170.72,49.063 170.72,71.302 138.15,71.248 134.16,75.448 154.23,75.538 174.66,75.37 174.72,49.22 z"/>
      <path d="M 128.36,66.677 124,61.658 124.11,71.248 z"/>
      <path d="M 118.81,45.476 C 120.7,43.746 121.09,41.553 119.94,39.104 118.19,35.395 114.13,34.542 110.97,37.218 107.74,39.944 108.49,44.901 112.37,46.569 114.69,47.567 116.93,47.187 118.81,45.476 z"/>
    </g>
  </g>
</svg>