<?xml version="1.0" encoding="UTF-8" standalone="yes"?>
<svg xmlns:svg="http://www.w3.org/2000/svg" xmlns="http://www.w3.org/2000/svg" height="400px" width="400px" viewBox="0 0 200 200" version="1.1">
  <rect width="200" height="200" fill="#ffffff"/>
  <rect x="5" y="5" width="190" height="190" style="fill:#008855"/>
  <path d="m130.73 38.116h47.168v15.723h-47.168zm15.723-15.723h15.723v47.168h-15.723z" style="fill:#ffffff"/>
  <g style="fill:#ffffff">
    <rect x="21.892" y="89.808" width="156.17" height="6.2241" ry="3.1121"/>
    <rect x="33.287" y="93.783" width="133.53" height="60"/>
    <rect x="21.892" y="150.87" width="156.17" height="6.2241" ry="3.1121"/>
  </g>
  <g style="fill:#008855">
    <circle cx="48.983" cy="123.28" r="8.8106"/>
    <path d="m60.458 115.72v16.124c-0.24745 7.0179 4.7457 11.416 11.53 12.335l35.487 0.0959c2.4272-0.0133 4.6407-1.8157 4.6289-4.3033-0.014-2.4707-2.2197-4.387-4.6289-4.4053h-33.414c-0.40555-3e-3 -0.74174-0.18299-0.74776-0.60675-0.0042-0.42817 0.33035-0.60198 0.74776-0.60656h80.897c2.768-0.0133 5.3203-2.1049 5.3102-4.9435-4e-3 -2.8324-2.5482-5.3486-5.3102-5.3608l-48.524-0.0175c-0.40388-0.1575-0.62539-0.40609-0.6203-0.74871-7e-3 -0.33708 0.20882-0.62464 0.6203-0.76995l48.524-0.022c2.768-3e-3 5.3203-2.2403 5.3102-5.0791-4e-3 -2.8324-2.5482-5.1991-5.3102-5.2054h-80.897c-0.40555-3e-3 -0.74174-0.19819-0.74776-0.61574-0.0042-0.42815 0.33035-0.54073 0.74776-0.54541h33.414c2.4272-0.0133 4.6407-1.7828 4.6289-4.2701-0.014-2.4706-2.2197-4.4185-4.6289-4.4306l-35.487 0.0972c-6.7845 0.91836-11.777 5.3172-11.53 12.329"/>
  </g>
</svg>