<?xml version="1.0" encoding="UTF-8" standalone="yes"?>
<svg xmlns="http://www.w3.org/2000/svg" xmlns:xlink="http://www.w3.org/1999/xlink" width="685pt" height="600pt" viewBox="0 0 685 600" version="1.1">
  <g id="surface1">
    <path style="fill-rule:evenodd;fill:rgb(0.784314%,1.960784%,1.960784%);fill-opacity:1;stroke-width:0.127844;stroke-linecap:butt;stroke-linejoin:miter;stroke:rgb(0.784314%,1.960784%,1.960784%);stroke-opacity:1;stroke-miterlimit:2.613;" d="M 197.46208 164.743687 L 104.122664 2.943062 L 103.544526 2.079583 L 102.826095 1.430844 L 102.036387 0.856698 L 101.099599 0.423828 L 100.165073 0.137885 L 99.158139 0.0644219 L 98.153467 0.137885 L 97.146533 0.423828 L 96.283285 0.856698 L 95.420036 1.430844 L 94.77062 2.079583 L 94.197007 2.943062 L 0.857591 164.743687 L 0.423139 165.67724 L 0.134635 166.615312 L 0.0644891 167.622328 L 0.134635 168.627083 L 0.423139 169.634099 L 0.857591 170.497578 L 1.431204 171.361057 L 2.076095 172.009797 L 2.939343 172.583943 L 3.802591 173.013422 L 4.810657 173.302755 L 5.817591 173.372828 L 192.50208 173.372828 L 193.509015 173.302755 L 194.442409 173.013422 L 195.376934 172.583943 L 196.170036 172.009797 L 196.888467 171.361057 L 197.46208 170.497578 L 197.896533 169.634099 L 198.181642 168.627083 L 198.255182 167.622328 L 198.181642 166.615312 L 197.896533 165.67724 Z M 197.46208 164.743687 " transform="matrix(3.452621,0,0,3.456221,0,0)"/>
    <path style="fill-rule:evenodd;fill:rgb(92.156863%,74.901961%,16.862745%);fill-opacity:1;stroke-width:0.127844;stroke-linecap:butt;stroke-linejoin:miter;stroke:rgb(0.784314%,1.960784%,1.960784%);stroke-opacity:1;stroke-miterlimit:2.613;" d="M 99.158139 18.114979 L 181.856861 161.509031 L 16.458285 161.509031 Z M 99.158139 18.114979 " transform="matrix(3.452621,0,0,3.456221,0,0)"/>
    <path style=" stroke:none;fill-rule:evenodd;fill:rgb(0.784314%,1.960784%,1.960784%);fill-opacity:1;" d="M 492.070312 492.097656 C 492.070312 511.984375 475.941406 528.132812 455.820312 528.132812 C 435.964844 528.132812 419.824219 511.984375 419.824219 492.097656 C 419.824219 472.210938 435.964844 456.050781 455.820312 456.050781 C 475.941406 456.050781 492.070312 472.210938 492.070312 492.097656 "/>
    <path style=" stroke:none;fill-rule:evenodd;fill:rgb(92.156863%,74.901961%,16.862745%);fill-opacity:1;" d="M 471.464844 492.097656 C 471.464844 500.792969 464.519531 507.757812 455.820312 507.757812 C 447.132812 507.757812 440.1875 500.792969 440.1875 492.097656 C 440.1875 483.390625 447.132812 476.4375 455.820312 476.4375 C 464.519531 476.4375 471.464844 483.390625 471.464844 492.097656 "/>
    <path style=" stroke:none;fill-rule:evenodd;fill:rgb(0.784314%,1.960784%,1.960784%);fill-opacity:1;" d="M 245.277344 492.097656 C 245.277344 511.984375 229.132812 528.132812 209.28125 528.132812 C 189.414062 528.132812 173.269531 511.984375 173.269531 492.097656 C 173.269531 472.210938 189.414062 456.050781 209.28125 456.050781 C 229.132812 456.050781 245.277344 472.210938 245.277344 492.097656 "/>
    <path style=" stroke:none;fill-rule:evenodd;fill:rgb(92.156863%,74.901961%,16.862745%);fill-opacity:1;" d="M 224.910156 492.097656 C 224.910156 500.792969 217.964844 507.757812 209.28125 507.757812 C 200.582031 507.757812 193.636719 500.792969 193.636719 492.097656 C 193.636719 483.390625 200.582031 476.4375 209.28125 476.4375 C 217.964844 476.4375 224.910156 483.390625 224.910156 492.097656 "/>
    <path style=" stroke:none;fill-rule:evenodd;fill:rgb(0.784314%,1.960784%,1.960784%);fill-opacity:1;" d="M 192.136719 443.875 C 192.136719 443.875 219.707031 370.804688 276.808594 309.902344 C 333.910156 249.015625 393.507812 211.738281 393.507812 211.738281 L 393.507812 483.648438 L 408.65625 483.648438 L 408.898438 502.777344 L 255.957031 502.535156 L 255.957031 483.648438 L 374.628906 483.648438 L 374.628906 443.875 Z M 192.136719 443.875 "/>
  </g>
</svg>