<?xml version="1.0" encoding="UTF-8" standalone="yes"?>
<svg xmlns="http://www.w3.org/2000/svg" xmlns:xlink="http://www.w3.org/1999/xlink" width="685pt" height="600pt" viewBox="0 0 685 600" version="1.1">
  <g id="surface1">
    <path style="fill-rule:evenodd;fill:rgb(0.784314%,1.960784%,1.960784%);fill-opacity:1;stroke-width:0.127844;stroke-linecap:butt;stroke-linejoin:miter;stroke:rgb(0.784314%,1.960784%,1.960784%);stroke-opacity:1;stroke-miterlimit:2.613;" d="M 197.46208 164.743687 L 104.11927 2.943062 L 103.544526 2.079583 L 102.826095 1.430844 L 102.032993 0.856698 L 101.099599 0.423828 L 100.165073 0.137885 L 99.158139 0.0644219 L 98.150073 0.137885 L 97.146533 0.423828 L 96.283285 0.856698 L 95.420036 1.430844 L 94.77062 2.079583 L 94.197007 2.943062 L 0.853066 164.743687 L 0.423139 165.67724 L 0.134635 166.615312 L 0.0644891 167.622328 L 0.134635 168.627083 L 0.423139 169.634099 L 0.853066 170.497578 L 1.42781 171.361057 L 2.076095 172.009797 L 2.939343 172.583943 L 3.802591 173.013422 L 4.810657 173.302755 L 5.814197 173.372828 L 192.50208 173.372828 L 193.50562 173.302755 L 194.442409 173.013422 L 195.376934 172.583943 L 196.170036 172.009797 L 196.888467 171.361057 L 197.46208 170.497578 L 197.892007 169.634099 L 198.181642 168.627083 L 198.251788 167.622328 L 198.181642 166.615312 L 197.892007 165.67724 Z M 197.46208 164.743687 " transform="matrix(3.452621,0,0,3.456221,0,0)"/>
    <path style="fill-rule:evenodd;fill:rgb(92.156863%,74.901961%,16.862745%);fill-opacity:1;stroke-width:0.127844;stroke-linecap:butt;stroke-linejoin:miter;stroke:rgb(0.784314%,1.960784%,1.960784%);stroke-opacity:1;stroke-miterlimit:2.613;" d="M 99.158139 18.114979 L 181.856861 161.509031 L 16.458285 161.509031 Z M 99.158139 18.114979 " transform="matrix(3.452621,0,0,3.456221,0,0)"/>
    <path style="fill-rule:evenodd;fill:rgb(0.784314%,1.960784%,1.960784%);fill-opacity:1;stroke-width:0.027966;stroke-linecap:butt;stroke-linejoin:miter;stroke:rgb(0.784314%,1.960784%,1.960784%);stroke-opacity:1;stroke-miterlimit:2.613;" d="M 153.766788 131.696396 L 155.435584 134.598771 L 154.02135 134.853068 L 152.607117 134.997734 L 151.154416 134.997734 L 149.740182 134.853068 L 148.325949 134.633807 L 146.981861 134.235974 L 144.294818 133.254953 L 142.954124 132.782526 L 141.576095 132.388083 L 140.196934 132.060323 L 138.782701 131.806026 L 138.05635 131.77099 L 137.33 131.841062 L 135.950839 132.060323 L 134.536606 132.388083 L 133.192518 132.822083 L 130.508869 133.801974 L 129.165912 134.310568 L 127.786752 134.669974 L 126.372518 134.888104 L 124.954891 134.997734 L 123.540657 134.997734 L 122.09135 134.853068 L 120.71219 134.598771 L 119.333029 134.200938 L 116.645985 133.18488 L 115.301898 132.712453 L 113.927263 132.31462 L 112.548102 131.985729 L 111.130474 131.806026 L 109.53635 130.392135 L 108.81 129.700448 L 108.228467 129.013281 L 109.681168 128.903651 L 111.130474 128.938687 L 112.583175 129.048318 L 114.032482 129.267578 L 115.451241 129.665411 L 116.82927 130.137839 L 119.547993 131.188932 L 120.275474 131.403672 L 120.962226 131.587896 L 122.416058 131.77099 L 123.868759 131.806026 L 125.356533 131.77099 L 126.805839 131.552859 L 128.224599 131.188932 L 130.943321 130.172875 L 132.32135 129.665411 L 133.735584 129.267578 L 135.189416 129.048318 L 136.638723 128.938687 L 138.091423 128.903651 L 139.544124 128.938687 L 141.033029 129.048318 L 142.447263 129.267578 L 143.860365 129.665411 L 145.239526 130.137839 L 147.997847 131.188932 L 149.377007 131.552859 L 150.829708 131.77099 L 152.317482 131.806026 Z M 153.766788 131.696396 " transform="matrix(3.452621,0,0,3.456221,0,0)"/>
    <path style="fill-rule:evenodd;fill:rgb(0.784314%,1.960784%,1.960784%);fill-opacity:1;stroke-width:0.027966;stroke-linecap:butt;stroke-linejoin:miter;stroke:rgb(0.784314%,1.960784%,1.960784%);stroke-opacity:1;stroke-miterlimit:2.613;" d="M 144.478102 115.590927 L 146.872117 119.798693 L 145.529161 119.399729 L 144.188467 118.892266 L 142.845511 118.419839 L 141.46635 117.985839 L 140.08719 117.696505 L 138.672956 117.478375 L 137.981679 117.443339 L 137.259854 117.478375 L 135.841095 117.731542 L 134.461934 118.095469 L 133.118978 118.493302 L 130.435328 119.509359 L 129.095766 119.981786 L 127.71208 120.341193 L 126.297847 120.560453 L 124.884745 120.668953 L 123.470511 120.633917 L 122.052883 120.49038 L 120.63865 120.236083 L 119.259489 119.833729 L 116.610912 118.822193 L 115.266825 118.349766 L 113.888796 117.950802 L 112.509635 117.658078 L 111.095401 117.478375 L 109.642701 117.478375 L 108.228467 117.551839 L 106.814234 117.806135 L 105.435073 118.165542 L 102.786496 119.146563 L 101.51708 116.571948 L 104.090985 115.590927 L 105.4 115.158057 L 106.739562 114.829167 L 108.118723 114.649464 L 109.497883 114.576 L 110.877044 114.576 L 112.255073 114.68563 L 113.634234 114.90376 L 114.978321 115.22813 L 116.286204 115.665521 L 117.591825 116.137948 L 118.861241 116.606984 L 120.16573 117.040984 L 121.544891 117.333708 L 122.92292 117.478375 L 124.30208 117.513411 L 125.681241 117.403781 L 127.025328 117.189042 L 128.364891 116.790078 L 130.943321 115.810187 L 132.24781 115.33776 L 133.555693 114.973833 L 134.934854 114.720667 L 136.314015 114.614427 L 139.072336 114.614427 L 140.450365 114.649464 L 141.829526 114.79413 L 143.173613 115.1185 L 143.825292 115.33776 Z M 144.478102 115.590927 " transform="matrix(3.452621,0,0,3.456221,0,0)"/>
    <path style="fill-rule:evenodd;fill:rgb(0.784314%,1.960784%,1.960784%);fill-opacity:1;stroke-width:0.027966;stroke-linecap:butt;stroke-linejoin:miter;stroke:rgb(0.784314%,1.960784%,1.960784%);stroke-opacity:1;stroke-miterlimit:2.613;" d="M 139.759088 107.430823 L 141.794453 110.986458 L 140.485438 110.587495 L 139.142482 110.368234 L 138.489672 110.298161 L 137.801788 110.259734 L 136.458832 110.442828 L 135.114745 110.732161 L 133.810255 111.094958 L 131.271423 112.001385 L 130.002007 112.473812 L 128.73146 112.907813 L 127.388504 113.232182 L 126.044416 113.415276 L 124.700328 113.48987 L 123.360766 113.450312 L 121.981606 113.341813 L 120.673723 113.087516 L 119.369234 112.688552 L 118.098686 112.216125 L 115.55646 111.274661 L 114.251971 110.876828 L 112.94635 110.587495 L 111.603394 110.368234 L 110.224234 110.298161 L 108.880146 110.333198 L 107.540584 110.477865 L 106.196496 110.767198 L 104.92708 111.165031 L 102.388248 112.111016 L 101.079234 112.508849 L 99.774745 112.872776 L 98.575474 110.185141 L 99.884489 109.930844 L 101.153905 109.53301 L 103.619197 108.626583 L 104.888613 108.192583 L 106.161423 107.829786 L 107.465912 107.57549 L 108.774927 107.430823 L 110.079416 107.392396 L 111.418978 107.430823 L 112.727993 107.57549 L 114.032482 107.829786 L 115.301898 108.157547 L 116.575839 108.591547 L 119.041131 109.53301 L 120.310547 109.895807 L 121.618431 110.150104 L 122.962518 110.298161 L 124.267007 110.333198 L 125.611095 110.259734 L 126.915584 110.044995 L 128.185 109.677677 L 129.419343 109.243677 L 131.923102 108.302214 L 133.192518 107.90438 L 134.461934 107.610526 L 135.806022 107.465859 L 137.110511 107.430823 Z M 139.759088 107.430823 " transform="matrix(3.452621,0,0,3.456221,0,0)"/>
    <path style="fill-rule:evenodd;fill:rgb(0.784314%,1.960784%,1.960784%);fill-opacity:1;stroke-width:0.027966;stroke-linecap:butt;stroke-linejoin:miter;stroke:rgb(0.784314%,1.960784%,1.960784%);stroke-opacity:1;stroke-miterlimit:2.613;" d="M 137.294927 103.189151 L 135.661204 100.356849 L 134.826241 100.431443 L 133.990146 100.576109 L 132.32135 101.048536 L 129.095766 102.243167 L 127.45865 102.786797 L 126.62708 102.969891 L 125.790985 103.079521 L 124.919818 103.149594 L 124.04865 103.149594 L 122.344781 103.079521 L 121.474745 102.969891 L 120.63865 102.825224 L 119.802555 102.607094 L 119.004927 102.31776 L 117.407409 101.700667 L 115.774818 101.118609 L 114.107153 100.684609 L 112.439489 100.356849 L 110.732226 100.247219 L 108.989891 100.282255 L 108.73646 103.149594 L 110.587409 103.114557 L 111.49365 103.189151 L 112.399891 103.29426 L 114.216898 103.731651 L 115.958102 104.275281 L 117.661971 104.962448 L 119.404307 105.579542 L 121.181715 106.051969 L 122.09135 106.196635 L 122.997591 106.306266 L 124.849672 106.306266 L 126.697226 106.161599 L 127.606861 106.016932 L 128.513102 105.833839 L 130.255438 105.290208 L 131.997774 104.603042 L 133.700511 103.985948 L 135.47792 103.513521 Z M 137.294927 103.189151 " transform="matrix(3.452621,0,0,3.456221,0,0)"/>
    <path style="fill-rule:evenodd;fill:rgb(0.784314%,1.960784%,1.960784%);fill-opacity:1;stroke-width:0.027966;stroke-linecap:butt;stroke-linejoin:miter;stroke:rgb(0.784314%,1.960784%,1.960784%);stroke-opacity:1;stroke-miterlimit:2.613;" d="M 131.849562 93.685229 L 133.44708 96.51301 L 130.543942 97.673734 L 129.056168 98.181198 L 127.497117 98.543995 L 125.969745 98.763255 L 124.376752 98.868365 L 122.817701 98.798292 L 121.255255 98.580161 L 119.732409 98.181198 L 118.243504 97.673734 L 115.301898 96.583083 L 113.782445 96.115177 L 112.255073 95.786286 L 110.697153 95.606583 L 109.099635 95.606583 L 109.28292 93.755302 L 109.28292 92.775411 L 110.732226 92.775411 L 112.184927 92.848875 L 113.634234 93.068135 L 115.051861 93.395896 L 116.431022 93.864932 L 117.770584 94.372396 L 119.149745 94.88099 L 120.528905 95.353417 L 121.946533 95.568156 L 123.395839 95.677786 L 124.849672 95.64162 L 126.297847 95.498083 L 127.71208 95.169193 L 129.095766 94.736323 Z M 131.849562 93.685229 " transform="matrix(3.452621,0,0,3.456221,0,0)"/>
    <path style="fill-rule:evenodd;fill:rgb(0.784314%,1.960784%,1.960784%);fill-opacity:1;stroke-width:0.027966;stroke-linecap:butt;stroke-linejoin:miter;stroke:rgb(0.784314%,1.960784%,1.960784%);stroke-opacity:1;stroke-miterlimit:2.613;" d="M 126.915584 142.470672 L 126.372518 142.435635 L 125.826058 142.326005 L 124.739927 142.071708 L 123.685474 141.708911 L 122.634416 141.271521 L 120.63865 140.330057 L 118.641752 139.278964 L 116.720657 138.189443 L 114.795036 136.993682 L 112.94635 135.759495 L 111.130474 134.454104 L 109.388139 133.040214 L 107.755547 131.551729 L 106.959051 130.754932 L 106.271168 129.884672 L 105.106971 127.962187 L 102.931314 124.044885 L 100.935547 120.091417 L 98.973723 116.064484 L 97.087701 112.001385 L 95.348759 107.90438 L 94.513796 105.798802 L 93.786314 103.693224 L 93.532883 102.607094 L 93.314526 101.520964 L 93.059964 100.431443 L 92.696788 99.380349 L 92.228394 98.364292 L 91.680803 97.384401 L 91.029124 96.477974 L 90.302774 95.606583 L 89.540219 94.809786 L 88.70865 94.083062 L 87.802409 93.430932 L 86.821496 92.848875 L 85.802117 92.376448 L 84.751058 91.978615 L 83.661533 91.724318 L 82.575401 91.614688 L 66.790292 91.614688 L 31.521569 152.806427 L 166.794708 152.806427 L 160.84135 142.470672 Z M 126.915584 142.470672 " transform="matrix(3.452621,0,0,3.456221,0,0)"/>
    <path style="fill-rule:evenodd;fill:rgb(0.784314%,1.960784%,1.960784%);fill-opacity:1;stroke-width:0.027966;stroke-linecap:butt;stroke-linejoin:miter;stroke:rgb(0.784314%,1.960784%,1.960784%);stroke-opacity:1;stroke-miterlimit:2.613;" d="M 109.243321 69.888693 L 101.079234 69.091896 L 100.755657 72.282474 L 108.954818 73.079271 Z M 109.243321 69.888693 " transform="matrix(3.452621,0,0,3.456221,0,0)"/>
    <path style="fill-rule:evenodd;fill:rgb(0.784314%,1.960784%,1.960784%);fill-opacity:1;stroke-width:0.027966;stroke-linecap:butt;stroke-linejoin:miter;stroke:rgb(0.784314%,1.960784%,1.960784%);stroke-opacity:1;stroke-miterlimit:2.613;" d="M 112.509635 72.611365 L 112.548102 75.657276 L 103.404234 84.833438 L 98.032409 79.536151 L 106.415985 71.087844 L 110.224234 70.326083 Z M 112.509635 72.611365 " transform="matrix(3.452621,0,0,3.456221,0,0)"/>
    <path style="fill-rule:evenodd;fill:rgb(0.784314%,1.960784%,1.960784%);fill-opacity:1;stroke-width:0.027966;stroke-linecap:butt;stroke-linejoin:miter;stroke:rgb(0.784314%,1.960784%,1.960784%);stroke-opacity:1;stroke-miterlimit:2.613;" d="M 101.224051 81.313969 L 97.56062 80.407542 L 95.020657 90.455094 L 98.685219 91.399948 Z M 101.224051 81.313969 " transform="matrix(3.452621,0,0,3.456221,0,0)"/>
    <path style="fill-rule:evenodd;fill:rgb(0.784314%,1.960784%,1.960784%);fill-opacity:1;stroke-width:0.027966;stroke-linecap:butt;stroke-linejoin:miter;stroke:rgb(0.784314%,1.960784%,1.960784%);stroke-opacity:1;stroke-miterlimit:2.613;" d="M 101.224051 94.88099 L 100.935547 97.891865 L 99.338029 98.290828 L 98.540401 98.435495 L 97.704307 98.543995 L 96.036642 98.688661 L 95.638394 98.653625 L 95.240146 98.580161 L 94.477591 98.290828 L 93.677701 96.692714 L 92.696788 95.243786 L 94.837372 95.53312 L 95.891825 95.64162 L 96.982482 95.64162 L 98.067482 95.568156 L 99.158139 95.458526 L 100.208066 95.20875 Z M 101.224051 94.88099 " transform="matrix(3.452621,0,0,3.456221,0,0)"/>
    <path style="fill-rule:evenodd;fill:rgb(0.784314%,1.960784%,1.960784%);fill-opacity:1;stroke-width:0.027966;stroke-linecap:butt;stroke-linejoin:miter;stroke:rgb(0.784314%,1.960784%,1.960784%);stroke-opacity:1;stroke-miterlimit:2.613;" d="M 149.555766 124.442719 L 148.869015 124.298052 L 148.177737 124.044885 L 146.798577 123.571328 L 144.079854 122.556401 L 142.700693 122.157438 L 141.283066 121.904271 L 138.379927 121.720047 L 136.931752 121.759604 L 135.47792 121.829677 L 134.063686 122.048937 L 132.649453 122.376698 L 129.927336 123.391625 L 128.583248 123.900219 L 127.169015 124.298052 L 125.755912 124.552349 L 124.30208 124.657458 L 122.852774 124.622422 L 121.400073 124.477755 L 120.71219 124.333089 L 120.020912 124.153385 L 118.641752 123.680958 L 115.919635 122.666031 L 114.540474 122.22751 L 113.126241 121.939307 L 111.676934 121.794641 L 110.224234 121.759604 L 108.774927 121.794641 L 107.357299 121.939307 L 105.907993 122.192474 L 104.528832 122.591437 L 105.907993 125.204479 L 107.357299 124.841682 L 108.81 124.622422 L 110.259307 124.587385 L 111.712007 124.697016 L 113.165839 124.950182 L 114.580073 125.314109 L 115.993175 125.783146 L 118.751496 126.798073 L 120.130657 127.2705 L 121.579964 127.599391 L 123.032664 127.779094 L 124.485365 127.852557 L 125.969745 127.744057 L 127.423577 127.524797 L 128.83781 127.200427 L 130.255438 126.728 L 133.013759 125.711943 L 134.391788 125.279073 L 135.841095 124.915146 L 137.294927 124.657458 L 138.016752 124.622422 L 138.744234 124.622422 L 140.196934 124.876719 L 141.611168 125.204479 L 143.025401 125.638479 L 145.782591 126.653406 L 147.200219 127.126964 L 148.614453 127.48976 L 150.063759 127.7045 L 151.517591 127.852557 Z M 149.555766 124.442719 " transform="matrix(3.452621,0,0,3.456221,0,0)"/>
    <path style="fill-rule:evenodd;fill:rgb(0.784314%,1.960784%,1.960784%);fill-opacity:1;stroke-width:0.027966;stroke-linecap:butt;stroke-linejoin:miter;stroke:rgb(0.784314%,1.960784%,1.960784%);stroke-opacity:1;stroke-miterlimit:2.613;" d="M 100.13792 102.75176 L 99.083467 102.969891 L 97.997336 103.114557 L 96.90781 103.189151 L 95.783212 103.149594 L 96.290073 104.638078 L 96.872737 106.126563 L 98.357117 105.942339 L 99.844891 105.689172 Z M 100.13792 102.75176 " transform="matrix(3.452621,0,0,3.456221,0,0)"/>
    <path style="fill-rule:evenodd;fill:rgb(0.784314%,1.960784%,1.960784%);fill-opacity:1;stroke-width:0.027966;stroke-linecap:butt;stroke-linejoin:miter;stroke:rgb(0.784314%,1.960784%,1.960784%);stroke-opacity:1;stroke-miterlimit:2.613;" d="M 117.591825 68.330135 L 117.48208 67.493781 L 117.192445 66.771578 L 116.685584 66.118318 L 116.02938 65.607464 L 115.301898 65.31813 L 114.470328 65.2085 L 113.669307 65.31813 L 112.94635 65.607464 L 112.294672 66.118318 L 111.786679 66.771578 L 111.49365 67.493781 L 111.383905 68.330135 L 111.49365 69.126932 L 111.786679 69.888693 L 112.294672 70.505786 L 112.94635 71.01325 L 113.669307 71.34101 L 114.470328 71.44725 L 115.301898 71.34101 L 116.02938 71.01325 L 116.685584 70.505786 L 117.192445 69.888693 L 117.48208 69.126932 Z M 117.591825 68.330135 " transform="matrix(3.452621,0,0,3.456221,0,0)"/>
    <path style="fill-rule:evenodd;fill:rgb(0.784314%,1.960784%,1.960784%);fill-opacity:1;stroke-width:0.027966;stroke-linecap:butt;stroke-linejoin:miter;stroke:rgb(0.784314%,1.960784%,1.960784%);stroke-opacity:1;stroke-miterlimit:2.613;" d="M 89.286788 86.611255 L 89.216642 86.029198 L 88.923613 85.520604 L 88.525365 85.087734 L 87.982299 84.833438 L 87.399635 84.723807 L 86.821496 84.833438 L 86.313504 85.087734 L 85.876788 85.520604 L 85.622226 86.029198 L 85.513613 86.611255 L 85.622226 87.188792 L 85.876788 87.735812 L 86.313504 88.134776 L 86.821496 88.422979 L 87.399635 88.497573 L 87.982299 88.422979 L 88.525365 88.134776 L 88.923613 87.735812 L 89.216642 87.188792 Z M 89.286788 86.611255 " transform="matrix(3.452621,0,0,3.456221,0,0)"/>
    <path style="fill-rule:evenodd;fill:rgb(0.784314%,1.960784%,1.960784%);fill-opacity:1;stroke-width:0.027966;stroke-linecap:butt;stroke-linejoin:miter;stroke:rgb(0.784314%,1.960784%,1.960784%);stroke-opacity:1;stroke-miterlimit:2.613;" d="M 106.271168 103.693224 L 106.161423 103.114557 L 105.907993 102.607094 L 105.470146 102.169703 L 104.962153 101.919927 L 104.384015 101.810297 L 103.762883 101.919927 L 103.259416 102.169703 L 102.821569 102.607094 L 102.568139 103.114557 L 102.458394 103.693224 L 102.568139 104.275281 L 102.821569 104.817781 L 103.259416 105.220135 L 103.762883 105.509469 L 104.384015 105.579542 L 104.962153 105.509469 L 105.470146 105.220135 L 105.907993 104.817781 L 106.161423 104.275281 Z M 106.271168 103.693224 " transform="matrix(3.452621,0,0,3.456221,0,0)"/>
    <path style="fill-rule:evenodd;fill:rgb(0.784314%,1.960784%,1.960784%);fill-opacity:1;stroke-width:0.027966;stroke-linecap:butt;stroke-linejoin:miter;stroke:rgb(0.784314%,1.960784%,1.960784%);stroke-opacity:1;stroke-miterlimit:2.613;" d="M 103.947299 83.529177 L 103.876022 82.94712 L 103.584124 82.40349 L 103.184745 82.005656 L 102.641679 81.712932 L 102.060146 81.641729 L 101.478613 81.712932 L 100.97062 82.005656 L 100.536168 82.40349 L 100.282737 82.94712 L 100.172993 83.529177 L 100.282737 84.106714 L 100.536168 84.615307 L 100.97062 85.052698 L 101.478613 85.305865 L 102.060146 85.415495 L 102.641679 85.305865 L 103.184745 85.052698 L 103.584124 84.615307 L 103.876022 84.106714 Z M 103.947299 83.529177 " transform="matrix(3.452621,0,0,3.456221,0,0)"/>
    <path style="fill-rule:evenodd;fill:rgb(0.784314%,1.960784%,1.960784%);fill-opacity:1;stroke-width:0.027966;stroke-linecap:butt;stroke-linejoin:miter;stroke:rgb(0.784314%,1.960784%,1.960784%);stroke-opacity:1;stroke-miterlimit:2.613;" d="M 101.26365 80.841542 L 101.188978 80.262875 L 100.935547 79.755411 L 100.497701 79.321411 L 99.954635 79.068245 L 99.376496 78.954094 L 98.794964 79.068245 L 98.286971 79.321411 L 97.85365 79.755411 L 97.599088 80.262875 L 97.489343 80.841542 L 97.599088 81.458635 L 97.85365 81.966099 L 98.286971 82.40349 L 98.794964 82.657786 L 99.376496 82.727859 L 99.954635 82.657786 L 100.497701 82.40349 L 100.935547 81.966099 L 101.188978 81.458635 Z M 101.26365 80.841542 " transform="matrix(3.452621,0,0,3.456221,0,0)"/>
    <path style="fill-rule:evenodd;fill:rgb(0.784314%,1.960784%,1.960784%);fill-opacity:1;stroke-width:0.027966;stroke-linecap:butt;stroke-linejoin:miter;stroke:rgb(0.784314%,1.960784%,1.960784%);stroke-opacity:1;stroke-miterlimit:2.613;" d="M 98.759891 90.927521 L 98.650146 90.345464 L 98.395584 89.801833 L 97.958869 89.404 L 97.45427 89.149703 L 96.872737 89.040073 L 96.255 89.149703 L 95.748139 89.404 L 95.310292 89.801833 L 95.05573 90.345464 L 94.947117 90.927521 L 95.05573 91.505057 L 95.310292 92.052078 L 95.748139 92.451042 L 96.255 92.740375 L 96.872737 92.813839 L 97.45427 92.740375 L 97.958869 92.451042 L 98.395584 92.052078 L 98.650146 91.505057 Z M 98.759891 90.927521 " transform="matrix(3.452621,0,0,3.456221,0,0)"/>
    <path style="fill-rule:evenodd;fill:rgb(0.784314%,1.960784%,1.960784%);fill-opacity:1;stroke-width:0.027966;stroke-linecap:butt;stroke-linejoin:miter;stroke:rgb(0.784314%,1.960784%,1.960784%);stroke-opacity:1;stroke-miterlimit:2.613;" d="M 107.247555 93.357469 L 107.13781 92.775411 L 106.887774 92.271339 L 106.451058 91.833948 L 105.943066 91.579651 L 105.360401 91.470021 L 104.782263 91.579651 L 104.235803 91.833948 L 103.837555 92.271339 L 103.54792 92.775411 L 103.47438 93.357469 L 103.54792 93.939526 L 103.837555 94.482026 L 104.235803 94.88099 L 104.782263 95.169193 L 105.360401 95.243786 L 105.943066 95.169193 L 106.451058 94.88099 L 106.887774 94.482026 L 107.13781 93.939526 Z M 107.247555 93.357469 " transform="matrix(3.452621,0,0,3.456221,0,0)"/>
    <path style="fill-rule:evenodd;fill:rgb(0.784314%,1.960784%,1.960784%);fill-opacity:1;stroke-width:0.027966;stroke-linecap:butt;stroke-linejoin:miter;stroke:rgb(0.784314%,1.960784%,1.960784%);stroke-opacity:1;stroke-miterlimit:2.613;" d="M 110.697153 71.485677 L 110.622482 70.978214 L 110.407518 70.540823 L 110.044343 70.181417 L 109.606496 69.962156 L 109.099635 69.888693 L 108.591642 69.962156 L 108.153796 70.181417 L 107.794015 70.540823 L 107.575657 70.978214 L 107.505511 71.485677 L 107.575657 71.958104 L 107.794015 72.427141 L 108.153796 72.791068 L 108.591642 73.009198 L 109.099635 73.079271 L 109.606496 73.009198 L 110.044343 72.791068 L 110.407518 72.427141 L 110.622482 71.958104 Z M 110.697153 71.485677 " transform="matrix(3.452621,0,0,3.456221,0,0)"/>
    <path style="fill-rule:evenodd;fill:rgb(0.784314%,1.960784%,1.960784%);fill-opacity:1;stroke-width:0.027966;stroke-linecap:butt;stroke-linejoin:miter;stroke:rgb(0.784314%,1.960784%,1.960784%);stroke-opacity:1;stroke-miterlimit:2.613;" d="M 112.982555 73.732531 L 112.911277 73.223938 L 112.654453 72.791068 L 112.329745 72.427141 L 111.856825 72.212401 L 111.383905 72.137807 L 110.877044 72.212401 L 110.442591 72.427141 L 110.079416 72.791068 L 109.861058 73.223938 L 109.751314 73.732531 L 109.861058 74.239995 L 110.079416 74.677385 L 110.442591 75.040182 L 110.877044 75.254922 L 111.383905 75.329516 L 111.856825 75.254922 L 112.329745 75.040182 L 112.654453 74.677385 L 112.911277 74.239995 Z M 112.982555 73.732531 " transform="matrix(3.452621,0,0,3.456221,0,0)"/>
    <path style="fill-rule:evenodd;fill:rgb(0.784314%,1.960784%,1.960784%);fill-opacity:1;stroke-width:0.027966;stroke-linecap:butt;stroke-linejoin:miter;stroke:rgb(0.784314%,1.960784%,1.960784%);stroke-opacity:1;stroke-miterlimit:2.613;" d="M 102.533066 62.454182 L 102.458394 61.981755 L 102.204964 61.509328 L 101.880255 61.184958 L 101.407336 60.930661 L 100.935547 60.857198 L 100.427555 60.930661 L 99.994234 61.184958 L 99.629927 61.509328 L 99.411569 61.981755 L 99.301825 62.454182 L 99.411569 62.962776 L 99.629927 63.395646 L 99.994234 63.759573 L 100.427555 63.977703 L 100.935547 64.083943 L 101.407336 63.977703 L 101.880255 63.759573 L 102.204964 63.395646 L 102.458394 62.962776 Z M 102.533066 62.454182 " transform="matrix(3.452621,0,0,3.456221,0,0)"/>
    <path style="fill-rule:evenodd;fill:rgb(0.784314%,1.960784%,1.960784%);fill-opacity:1;stroke-width:0.027966;stroke-linecap:butt;stroke-linejoin:miter;stroke:rgb(0.784314%,1.960784%,1.960784%);stroke-opacity:1;stroke-miterlimit:2.613;" d="M 102.533066 70.68549 L 102.458394 70.181417 L 102.204964 69.744026 L 101.880255 69.380099 L 101.407336 69.165359 L 100.935547 69.091896 L 100.427555 69.165359 L 99.994234 69.380099 L 99.629927 69.744026 L 99.411569 70.181417 L 99.301825 70.68549 L 99.411569 71.157917 L 99.629927 71.630344 L 99.994234 71.994271 L 100.427555 72.20901 L 100.935547 72.282474 L 101.407336 72.20901 L 101.880255 71.994271 L 102.204964 71.630344 L 102.458394 71.157917 Z M 102.533066 70.68549 " transform="matrix(3.452621,0,0,3.456221,0,0)"/>
    <path style="fill-rule:evenodd;fill:rgb(0.784314%,1.960784%,1.960784%);fill-opacity:1;stroke-width:0.027966;stroke-linecap:butt;stroke-linejoin:miter;stroke:rgb(0.784314%,1.960784%,1.960784%);stroke-opacity:1;stroke-miterlimit:2.613;" d="M 126.079489 83.634286 L 126.009343 83.130214 L 125.755912 82.692823 L 125.42781 82.330026 L 124.954891 82.110766 L 124.485365 82.040693 L 123.978504 82.110766 L 123.540657 82.330026 L 123.177482 82.692823 L 122.962518 83.130214 L 122.852774 83.634286 L 122.962518 84.146271 L 123.177482 84.579141 L 123.540657 84.943068 L 123.978504 85.161198 L 124.485365 85.232401 L 124.954891 85.161198 L 125.42781 84.943068 L 125.755912 84.579141 L 126.009343 84.146271 Z M 126.079489 83.634286 " transform="matrix(3.452621,0,0,3.456221,0,0)"/>
    <path style="fill-rule:evenodd;fill:rgb(0.784314%,1.960784%,1.960784%);fill-opacity:1;stroke-width:0.027966;stroke-linecap:butt;stroke-linejoin:miter;stroke:rgb(0.784314%,1.960784%,1.960784%);stroke-opacity:1;stroke-miterlimit:2.613;" d="M 97.634161 89.219776 L 88.200657 84.90351 L 86.638212 88.352906 L 96.071715 92.630745 Z M 97.634161 89.219776 " transform="matrix(3.452621,0,0,3.456221,0,0)"/>
    <path style="fill-rule:evenodd;fill:rgb(0.784314%,1.960784%,1.960784%);fill-opacity:1;stroke-width:0.027966;stroke-linecap:butt;stroke-linejoin:miter;stroke:rgb(0.784314%,1.960784%,1.960784%);stroke-opacity:1;stroke-miterlimit:2.613;" d="M 107.212482 93.537172 L 103.47438 93.177766 L 102.497993 103.513521 L 106.231569 103.876318 Z M 107.212482 93.537172 " transform="matrix(3.452621,0,0,3.456221,0,0)"/>
    <path style="fill-rule:evenodd;fill:rgb(0.784314%,1.960784%,1.960784%);fill-opacity:1;stroke-width:0.027966;stroke-linecap:butt;stroke-linejoin:miter;stroke:rgb(0.784314%,1.960784%,1.960784%);stroke-opacity:1;stroke-miterlimit:2.613;" d="M 103.876022 82.912083 L 100.282737 84.106714 L 103.54792 93.974563 L 107.13781 92.775411 Z M 103.876022 82.912083 " transform="matrix(3.452621,0,0,3.456221,0,0)"/>
    <path style="fill-rule:evenodd;fill:rgb(0.784314%,1.960784%,1.960784%);fill-opacity:1;stroke-width:0.027966;stroke-linecap:butt;stroke-linejoin:miter;stroke:rgb(0.784314%,1.960784%,1.960784%);stroke-opacity:1;stroke-miterlimit:2.613;" d="M 102.533066 62.455312 L 99.301825 62.455312 L 99.301825 70.68549 L 102.533066 70.68549 Z M 102.533066 62.455312 " transform="matrix(3.452621,0,0,3.456221,0,0)"/>
    <path style="fill-rule:evenodd;fill:rgb(0.784314%,1.960784%,1.960784%);fill-opacity:1;stroke-width:0.027966;stroke-linecap:butt;stroke-linejoin:miter;stroke:rgb(0.784314%,1.960784%,1.960784%);stroke-opacity:1;stroke-miterlimit:2.613;" d="M 125.42781 82.368453 L 112.329745 72.466698 L 110.407518 75.001755 L 123.505584 84.90351 Z M 125.42781 82.368453 " transform="matrix(3.452621,0,0,3.456221,0,0)"/>
  </g>
</svg>