<?xml version="1.0" encoding="UTF-8" standalone="yes"?>
<svg xmlns="http://www.w3.org/2000/svg" height="525" width="600" version="1.1" viewBox="0 0 600 525">
  <path d="M597.6,499.6,313.8,8c-2.9-5-8.2-8-13.9-8s-11,3.1-13.9,8l-283.8,491.6c-2.9,5-2.9,11.1,0,16,2.9,5,8.2,8,13.9,8h567.6c5.7,0,11-3.1,13.9-8,2.9-5,2.9-11.1,0-16z"/>
  <polygon points="43.875,491.5,299.88,48.2,555.88,491.5" fill="#f6bd16" transform="matrix(1,0,0,0.99591458,0.125,2.0332437)"/>
  <g transform="translate(617.624,0)" fill="#000000">
    <path d="m-409.18,463.24-14.99,0.0772,0-28.225,0-28.225-50.163-0.17048-0.42941-13.716,65.234-0.74358z"/>
    <path d="m-383.05,452.2c-5.1944-2.7327-8.1793-7.0185-8.1793-11.744,0-2.6413,8.1349-13.507,22.689-30.305,21.57-24.896,23.478-26.592,38.696-34.395l16.007-8.2075-15.361-2.1854c-31.14-4.4301-36.494-4.7861-40.602-2.6996-3.7401,1.8994-25.086,10.693-45.629,18.796-10.202,4.0246-16.756,2.4731-20.048-4.7461-2.8993-6.3584,1.1098-13.509,9.4743-16.898,3.5231-1.4276,12.171-5.3119,19.217-8.6319,7.0462-3.32,18.773-8.3232,26.059-11.118l13.247-5.0819,22.692,3.0238c35.939,4.7891,31.331,7.1944,44.61-23.282,6.2912-14.438,11.439-27.127,11.439-28.196,0-1.0694-1.4413-2.4063-3.2028-2.9709-1.7616-0.56464-5.3813-2.8832-8.0439-5.1524s-11.136-8.4759-18.83-13.793c-7.6937-5.3168-14.699-11.489-15.566-13.716-0.86791-2.227-5.7778-12.887-10.911-23.688-5.133-10.801-9.3328-21.235-9.3328-23.187,0-5.5523,5.2356-9.5623,11.668-8.9369,5.3685,0.52192,6.4031,1.9584,16.903,23.469l11.184,22.913,14.438,9.8351c7.9409,5.4093,16.085,11.277,18.098,13.039,2.0132,1.7624,8.6018,5.27,14.641,7.7948,6.0396,2.5247,15.923,6.6697,21.962,9.211,9.543,4.0155,26.34,15.796,35.845,25.14,1.6492,1.6213,5.5128,4.4319,8.5859,6.2458,7.1276,4.2072,8.5496,7.4898,16.089,37.141,6.5426,25.732,6.4308,29.224-1.0639,33.232-2.6609,1.423-4.9276,1.2412-8.6766-0.69607-4.5907-2.3722-5.6544-4.9807-11.151-27.346-5.8153-23.664-6.3634-24.927-12.786-29.475-3.6906-2.6132-10.811-8.0025-15.823-11.976-5.0118-3.9737-9.6888-6.6315-10.394-5.9062-0.70471,0.72532-7.2001,14.898-14.434,31.494-7.2341,16.596-14.365,31.554-15.847,33.24-1.482,1.6857-14.77,9.4699-29.529,17.298-26.476,14.044-27.047,14.478-42.815,32.597-8.7894,10.1-17.281,20.22-18.87,22.489-4.3548,6.2169-12.073,9.677-16.45,7.3743z"/>
    <path d="m-258.9,271.18c-14.26-8.7598-10.387-34.701,6.856-37.193,14.964-3.4671,30.724,13.934,23.062,28.204-4.9623,11.137-19.64,13.706-29.918,8.9896z"/>
  </g>
</svg>